<?xml version="1.0" encoding="UTF-8"?>
<svg xmlns="http://www.w3.org/2000/svg" viewBox="-66.983 -34.612 149.619 78.354">
<defs>
<style>
.node-0{fill:#ffffff;stroke:#000000;stroke-width:0.500px;opacity:1.0;}
.node-1{fill:#ffffff;stroke:#000000;stroke-width:0.500px;opacity:1.0;}
.node-2{fill:#505050;stroke:#000000;stroke-width:0.500px;opacity:1.0;}
.node-3{fill:#ffffff;stroke:#000000;stroke-width:0.500px;opacity:1.0;}
.node-4{fill:#505050;stroke:#000000;stroke-width:0.500px;opacity:1.0;}
.node-5{fill:#ffffff;stroke:#000000;stroke-width:0.500px;opacity:1.0;}
.node-6{fill:#ffffff;stroke:#000000;stroke-width:0.500px;opacity:1.0;}
.node-7{fill:#ffffff;stroke:#000000;stroke-width:0.500px;opacity:1.0;}
.node-8{fill:#505050;stroke:#000000;stroke-width:0.500px;opacity:1.0;}
.node-9{fill:#ffffff;stroke:#000000;stroke-width:0.500px;opacity:1.0;}
.node-10{fill:#505050;stroke:#000000;stroke-width:0.500px;opacity:1.0;}
.node-11{fill:#ff0000;stroke:#000000;stroke-width:0.500px;opacity:1.0;}
.node-12{fill:#505050;stroke:#000000;stroke-width:0.500px;opacity:1.0;}
.node-13{fill:#505050;stroke:#000000;stroke-width:0.500px;opacity:1.0;}
.node-14{fill:#ff0000;stroke:#000000;stroke-width:0.500px;opacity:1.0;}
.node-15{fill:#ffffff;stroke:#000000;stroke-width:0.500px;opacity:1.0;}
.node-16{fill:#505050;stroke:#000000;stroke-width:0.500px;opacity:1.0;}
.node-17{fill:#ffffff;stroke:#000000;stroke-width:0.500px;opacity:1.0;}
.node-18{fill:#505050;stroke:#000000;stroke-width:0.500px;opacity:1.0;}
.node-19{fill:#505050;stroke:#000000;stroke-width:0.500px;opacity:1.0;}
.node-20{fill:#ff0000;stroke:#000000;stroke-width:0.500px;opacity:1.0;}
.node-21{fill:#0000ff;stroke:#000000;stroke-width:0.500px;opacity:1.0;}
.node-22{fill:#505050;stroke:#000000;stroke-width:0.500px;opacity:1.0;}
.node-23{fill:#505050;stroke:#000000;stroke-width:0.500px;opacity:1.0;}
.node-24{fill:#ffffff;stroke:#000000;stroke-width:0.500px;opacity:1.0;}
.node-25{fill:#505050;stroke:#000000;stroke-width:0.500px;opacity:1.0;}
.node-26{fill:#505050;stroke:#000000;stroke-width:0.500px;opacity:1.0;}
.node-27{fill:#505050;stroke:#000000;stroke-width:0.500px;opacity:1.0;}
.node-28{fill:#505050;stroke:#000000;stroke-width:0.500px;opacity:1.0;}
.node-29{fill:#505050;stroke:#000000;stroke-width:0.500px;opacity:1.0;}
.node-30{fill:#0000ff;stroke:#000000;stroke-width:0.500px;opacity:1.0;}
.node-31{fill:#505050;stroke:#000000;stroke-width:0.500px;opacity:1.0;}
.node-32{fill:#505050;stroke:#000000;stroke-width:0.500px;opacity:1.0;}
.node-33{fill:#505050;stroke:#000000;stroke-width:0.500px;opacity:1.0;}
.node-34{fill:#505050;stroke:#000000;stroke-width:0.500px;opacity:1.0;}
.node-35{fill:#0000ff;stroke:#000000;stroke-width:0.500px;opacity:1.0;}
.node-36{fill:#505050;stroke:#000000;stroke-width:0.500px;opacity:1.0;}
.node-37{fill:#505050;stroke:#000000;stroke-width:0.500px;opacity:1.0;}
.node-38{fill:#505050;stroke:#000000;stroke-width:0.500px;opacity:1.0;}
.node-39{fill:#505050;stroke:#000000;stroke-width:0.500px;opacity:1.0;}
.node-40{fill:#0000ff;stroke:#000000;stroke-width:0.500px;opacity:1.0;}
.node-41{fill:#0000ff;stroke:#000000;stroke-width:0.500px;opacity:1.0;}
.node-42{fill:#505050;stroke:#000000;stroke-width:0.500px;opacity:1.0;}
.node-43{fill:#505050;stroke:#000000;stroke-width:0.500px;opacity:1.0;}
.node-44{fill:#ffffff;stroke:#000000;stroke-width:0.500px;opacity:1.0;}
.node-45{fill:#505050;stroke:#000000;stroke-width:0.500px;opacity:1.0;}
.node-46{fill:#505050;stroke:#000000;stroke-width:0.500px;opacity:1.0;}
.node-47{fill:#505050;stroke:#000000;stroke-width:0.500px;opacity:1.0;}
.node-48{fill:#505050;stroke:#000000;stroke-width:0.500px;opacity:1.0;}
.node-49{fill:#505050;stroke:#000000;stroke-width:0.500px;opacity:1.0;}
.node-50{fill:#ff0000;stroke:#000000;stroke-width:0.500px;opacity:1.0;}
.node-51{fill:#ffff00;stroke:#000000;stroke-width:0.500px;opacity:1.0;}
.node-52{fill:#0000ff;stroke:#000000;stroke-width:0.500px;opacity:1.0;}
.node-53{fill:#ffffff;stroke:#000000;stroke-width:0.500px;opacity:1.0;}
.node-54{fill:#505050;stroke:#000000;stroke-width:0.500px;opacity:1.0;}
.node-55{fill:#ffff00;stroke:#000000;stroke-width:0.500px;opacity:1.0;}
.node-56{fill:#505050;stroke:#000000;stroke-width:0.500px;opacity:1.0;}
.node-57{fill:#505050;stroke:#000000;stroke-width:0.500px;opacity:1.0;}
.node-58{fill:#505050;stroke:#000000;stroke-width:0.500px;opacity:1.0;}
.node-59{fill:#ffffff;stroke:#000000;stroke-width:0.500px;opacity:1.0;}
.node-60{fill:#505050;stroke:#000000;stroke-width:0.500px;opacity:1.0;}
.node-61{fill:#ff0000;stroke:#000000;stroke-width:0.500px;opacity:1.0;}
.node-62{fill:#505050;stroke:#000000;stroke-width:0.500px;opacity:1.0;}
.node-63{fill:#ffffff;stroke:#000000;stroke-width:0.500px;opacity:1.0;}
.node-64{fill:#ffffff;stroke:#000000;stroke-width:0.500px;opacity:1.0;}
.node-65{fill:#505050;stroke:#000000;stroke-width:0.500px;opacity:1.0;}
.node-66{fill:#505050;stroke:#000000;stroke-width:0.500px;opacity:1.0;}
.node-67{fill:#505050;stroke:#000000;stroke-width:0.500px;opacity:1.0;}
.node-68{fill:#505050;stroke:#000000;stroke-width:0.500px;opacity:1.0;}
.node-69{fill:#ffffff;stroke:#000000;stroke-width:0.500px;opacity:1.0;}
.node-70{fill:#ffffff;stroke:#000000;stroke-width:0.500px;opacity:1.0;}
.node-71{fill:#ffffff;stroke:#000000;stroke-width:0.500px;opacity:1.0;}
</style>

</defs>
<polygon class="node-0" points="-22.619,22.865 -22.605,22.645 -22.602,22.622 -22.560,22.403 -22.491,22.191 -22.480,22.166 -22.385,21.964 -22.265,21.775 -22.247,21.752 -22.104,21.580 -21.941,21.426 -21.866,21.367 -21.651,21.198 -19.934,19.854 -19.040,19.154 -18.897,19.055 -18.708,18.950 -18.507,18.871 -18.487,18.863 -18.279,18.810 -18.066,18.783 -17.851,18.783 -17.837,18.783 -17.626,18.810 -17.420,18.863 -17.223,18.941 -17.037,19.043 -16.865,19.168 -16.710,19.314 -16.575,19.477 -16.461,19.657 -16.370,19.849 -16.305,20.051 -16.265,20.259 -16.263,20.275 -16.249,20.490 -16.263,20.704 -16.303,20.915 -16.308,20.936 -16.374,21.142 -16.466,21.337 -16.478,21.358 -16.595,21.541 -16.733,21.708 -16.750,21.726 -16.826,21.799 -16.891,21.857 -16.959,21.917 -18.314,23.050 -18.990,23.615 -19.570,24.100 -19.685,24.197 -19.739,24.237 -19.867,24.329 -19.891,24.342 -20.086,24.450 -20.293,24.532 -20.509,24.587 -20.531,24.593 -20.750,24.620 -20.971,24.620 -20.989,24.618 -21.205,24.591 -21.416,24.537 -21.619,24.457 -21.810,24.352 -21.986,24.224 -22.145,24.074 -22.284,23.906 -22.401,23.722 -22.494,23.525 -22.561,23.318 -22.564,23.303 -22.605,23.086"/>
<polygon class="node-1" points="19.172,-8.306 19.172,-8.314 19.186,-8.528 19.226,-8.739 19.292,-8.943 19.384,-9.138 19.499,-9.319 19.508,-9.333 19.646,-9.500 19.804,-9.648 19.952,-9.756 19.995,-9.787 20.199,-9.909 21.372,-10.605 21.893,-10.915 22.417,-11.226 22.714,-11.402 22.773,-11.438 22.865,-11.491 22.957,-11.542 23.033,-11.582 23.242,-11.665 23.264,-11.672 23.482,-11.728 23.704,-11.756 23.727,-11.757 23.950,-11.757 24.171,-11.729 24.387,-11.673 24.405,-11.667 24.610,-11.586 24.804,-11.479 24.983,-11.350 25.144,-11.198 25.285,-11.028 25.288,-11.023 25.405,-10.839 25.498,-10.642 25.565,-10.434 25.606,-10.220 25.607,-10.214 25.621,-9.993 25.607,-9.772 25.566,-9.555 25.498,-9.345 25.403,-9.145 25.395,-9.128 25.276,-8.939 25.133,-8.768 25.118,-8.752 24.954,-8.599 24.773,-8.467 24.632,-8.386 24.605,-8.370 21.873,-6.880 21.749,-6.813 21.656,-6.766 21.454,-6.686 21.244,-6.632 21.224,-6.630 21.009,-6.603 20.793,-6.603 20.579,-6.630 20.562,-6.634 20.354,-6.687 20.154,-6.766 19.966,-6.870 19.792,-6.996 19.636,-7.143 19.631,-7.148 19.495,-7.312 19.381,-7.491 19.291,-7.684 19.225,-7.886 19.186,-8.094"/>
<polygon class="node-2" points="-25.701,25.310 -25.687,25.082 -25.644,24.857 -25.637,24.829 -25.566,24.609 -25.468,24.401 -25.453,24.372 -25.328,24.176 -25.181,23.997 -25.159,23.972 -24.990,23.813 -24.862,23.711 -24.314,23.282 -23.325,22.508 -23.021,22.270 -22.196,21.624 -21.867,21.367 -21.583,21.232 -21.249,21.195 -21.070,21.215 -20.336,21.537 -20.163,21.672 -20.001,21.825 -19.851,21.994 -19.501,22.566 -19.367,22.970 -19.376,23.719 -19.499,23.937 -19.619,24.137 -19.772,24.269 -20.141,24.578 -20.250,24.669 -21.196,25.460 -22.639,26.668 -22.658,26.684 -22.846,26.820 -22.874,26.836 -23.076,26.948 -23.290,27.033 -23.318,27.041 -23.540,27.098 -23.767,27.127 -23.791,27.127 -24.016,27.127 -24.240,27.099 -24.459,27.043 -24.669,26.960 -24.678,26.955 -24.872,26.848 -25.052,26.718 -25.213,26.566 -25.355,26.395 -25.473,26.208 -25.478,26.199 -25.574,25.995 -25.644,25.781 -25.686,25.559 -25.700,25.334"/>
<polygon class="node-3" points="-30.527,2.463 -30.513,2.237 -30.470,2.014 -30.400,1.799 -30.395,1.788 -30.297,1.580 -30.174,1.386 -30.028,1.209 -29.860,1.052 -29.843,1.036 -29.656,0.900 -29.453,0.788 -29.429,0.778 -29.332,0.735 -29.208,0.690 -27.687,0.165 -27.582,0.128 -27.398,0.065 -27.328,0.041 -27.280,0.025 -27.238,0.012 -27.064,-0.031 -27.039,-0.034 -26.817,-0.062 -26.593,-0.062 -26.371,-0.034 -26.347,-0.031 -26.131,0.025 -25.923,0.107 -25.904,0.116 -25.709,0.223 -25.530,0.353 -25.369,0.505 -25.358,0.517 -25.218,0.686 -25.101,0.871 -25.007,1.069 -24.939,1.278 -24.898,1.493 -24.885,1.712 -24.885,1.712 -24.898,1.931 -24.939,2.146 -25.007,2.355 -25.101,2.553 -25.218,2.738 -25.227,2.751 -25.369,2.922 -25.530,3.074 -25.709,3.204 -25.728,3.216 -25.788,3.250 -25.923,3.323 -25.975,3.347 -26.126,3.412 -27.545,4.021 -27.806,4.132 -27.892,4.169 -28.011,4.212 -28.037,4.220 -28.099,4.236 -28.263,4.278 -28.494,4.307 -28.522,4.308 -28.755,4.308 -28.986,4.278 -29.013,4.272 -29.237,4.214 -29.453,4.129 -29.656,4.017 -29.674,4.006 -29.860,3.871 -30.028,3.713 -30.174,3.536 -30.182,3.525 -30.304,3.333 -30.400,3.128 -30.470,2.912 -30.513,2.690"/>
<polygon class="node-4" points="22.321,-10.411 22.336,-10.612 22.375,-10.802 22.517,-11.139 22.619,-11.281 22.823,-11.457 22.876,-11.499 25.801,-13.236 25.882,-13.284 26.087,-13.396 26.304,-13.482 26.330,-13.491 26.555,-13.549 26.786,-13.578 26.813,-13.580 27.044,-13.580 27.273,-13.551 27.296,-13.546 27.518,-13.490 27.731,-13.405 27.932,-13.295 27.945,-13.286 28.128,-13.153 28.293,-12.998 28.437,-12.824 28.558,-12.633 28.654,-12.428 28.724,-12.213 28.766,-11.991 28.781,-11.765 28.766,-11.540 28.764,-11.525 28.721,-11.300 28.651,-11.082 28.553,-10.875 28.542,-10.856 28.418,-10.661 28.270,-10.482 28.102,-10.324 28.082,-10.306 27.894,-10.169 27.743,-10.082 27.380,-9.884 27.142,-9.754 26.822,-9.579 26.380,-9.338 25.327,-8.764 24.744,-8.446 24.562,-8.354 24.401,-8.303 24.229,-8.278 24.050,-8.280 23.681,-8.363 23.319,-8.548 23.148,-8.675 22.987,-8.823 22.705,-9.170 22.588,-9.365 22.491,-9.568 22.415,-9.778 22.361,-9.991 22.329,-10.203"/>
<polygon class="node-5" points="-34.476,27.365 -34.462,27.145 -34.421,26.927 -34.413,26.896 -34.343,26.683 -34.248,26.481 -34.232,26.447 -34.110,26.256 -34.087,26.225 -33.942,26.050 -33.777,25.895 -33.747,25.868 -33.563,25.734 -33.529,25.713 -33.331,25.603 -33.295,25.589 -33.085,25.506 -32.935,25.464 -29.207,24.587 -28.957,24.529 -28.756,24.482 -28.533,24.431 -28.503,24.425 -28.280,24.397 -28.055,24.397 -28.030,24.399 -27.810,24.427 -27.595,24.482 -27.389,24.564 -27.195,24.671 -27.187,24.675 -27.011,24.803 -26.853,24.952 -26.714,25.119 -26.598,25.303 -26.505,25.499 -26.500,25.511 -26.431,25.722 -26.390,25.940 -26.376,26.161 -26.376,26.185 -26.390,26.410 -26.432,26.631 -26.440,26.660 -26.510,26.877 -26.607,27.082 -26.623,27.113 -26.745,27.307 -26.768,27.335 -26.914,27.512 -27.082,27.669 -27.110,27.693 -27.296,27.828 -27.497,27.938 -27.528,27.955 -27.740,28.039 -27.772,28.049 -27.952,28.097 -28.020,28.113 -28.889,28.309 -31.762,28.959 -32.190,29.056 -32.351,29.092 -32.573,29.120 -32.605,29.122 -32.826,29.122 -33.046,29.094 -33.070,29.089 -33.280,29.035 -33.482,28.955 -33.673,28.851 -33.682,28.844 -33.854,28.719 -34.009,28.573 -34.144,28.410 -34.258,28.230 -34.262,28.224 -34.354,28.027 -34.421,27.820 -34.462,27.607 -34.475,27.390"/>
<polygon class="node-6" points="22.075,12.811 22.089,12.589 22.131,12.371 22.200,12.159 22.295,11.958 22.414,11.770 22.556,11.599 22.718,11.446 22.898,11.315 23.093,11.208 23.107,11.203 23.316,11.120 23.469,11.078 23.558,11.057 25.881,10.517 26.821,10.298 27.581,10.122 28.154,9.988 28.228,9.973 28.456,9.944 28.482,9.943 28.713,9.943 28.942,9.972 28.971,9.978 29.195,10.035 29.410,10.120 29.437,10.133 29.640,10.245 29.827,10.381 29.849,10.399 30.016,10.557 30.163,10.734 30.177,10.755 30.300,10.948 30.397,11.154 30.467,11.371 30.471,11.388 30.514,11.609 30.528,11.834 30.514,12.058 30.471,12.279 30.402,12.493 30.306,12.697 30.185,12.887 30.042,13.061 29.878,13.215 29.696,13.347 29.681,13.356 29.481,13.466 29.269,13.550 29.099,13.596 28.120,13.809 27.550,13.933 26.599,14.140 24.545,14.586 24.362,14.625 24.316,14.634 24.297,14.638 24.073,14.666 23.847,14.666 23.623,14.638 23.599,14.635 23.379,14.578 23.168,14.495 23.144,14.484 22.945,14.375 22.762,14.241 22.742,14.225 22.577,14.070 22.433,13.896 22.420,13.876 22.300,13.686 22.204,13.483 22.135,13.269 22.131,13.252 22.089,13.033"/>
<polygon class="node-7" points="27.242,-15.791 27.242,-15.805 27.257,-16.031 27.299,-16.252 27.369,-16.467 27.378,-16.489 27.460,-16.666 27.475,-16.696 27.518,-16.774 29.293,-20.009 29.562,-20.500 29.634,-20.629 29.716,-20.773 29.813,-20.927 29.833,-20.954 29.978,-21.129 30.144,-21.285 30.171,-21.308 30.355,-21.442 30.386,-21.460 30.586,-21.570 30.798,-21.654 30.831,-21.664 31.051,-21.720 31.276,-21.749 31.307,-21.751 31.532,-21.751 31.755,-21.723 31.780,-21.719 31.995,-21.664 32.201,-21.582 32.396,-21.475 32.409,-21.468 32.585,-21.339 32.744,-21.190 32.883,-21.022 33.000,-20.838 33.093,-20.640 33.161,-20.433 33.202,-20.218 33.203,-20.204 33.217,-19.982 33.203,-19.760 33.161,-19.542 33.155,-19.518 33.085,-19.304 33.006,-19.132 32.946,-19.019 32.730,-18.619 32.424,-18.050 30.796,-15.032 30.655,-14.809 30.509,-14.632 30.488,-14.611 30.320,-14.453 30.134,-14.318 30.107,-14.301 29.905,-14.190 29.690,-14.105 29.661,-14.095 29.438,-14.038 29.210,-14.009 29.182,-14.007 28.953,-14.007 28.727,-14.035 28.703,-14.040 28.485,-14.096 28.275,-14.179 28.077,-14.288 28.064,-14.295 27.884,-14.426 27.722,-14.578 27.580,-14.750 27.461,-14.937 27.366,-15.139 27.298,-15.350 27.256,-15.569"/>
<polygon class="node-8" points="-29.240,25.812 -29.205,25.379 -29.041,24.846 -28.868,24.601 -28.657,24.462 -28.490,24.419 -28.415,24.401 -27.720,24.238 -26.222,23.885 -24.985,23.595 -24.591,23.506 -23.864,23.724 -23.486,23.874 -22.930,24.435 -22.627,24.912 -22.449,25.250 -22.359,25.425 -22.341,26.017 -22.378,26.208 -22.450,26.390 -22.658,26.684 -22.874,26.836 -23.049,26.932 -23.318,27.041 -23.508,27.088 -23.615,27.114 -23.739,27.144 -27.568,28.011 -27.664,28.032 -27.828,28.069 -28.070,28.102 -28.317,28.024 -28.440,27.943 -28.786,27.544 -29.123,26.737"/>
<polygon class="node-9" points="2.132,-9.140 2.146,-9.367 2.189,-9.590 2.211,-9.667 2.231,-9.729 2.291,-9.909 2.333,-10.035 2.924,-11.799 2.959,-11.896 3.003,-11.991 3.059,-12.109 3.066,-12.119 3.192,-12.317 3.342,-12.498 3.513,-12.659 3.703,-12.797 3.909,-12.911 4.128,-12.997 4.135,-12.999 4.362,-13.058 4.594,-13.087 4.828,-13.087 5.060,-13.058 5.286,-12.999 5.504,-12.913 5.709,-12.801 5.898,-12.663 6.069,-12.503 6.218,-12.323 6.343,-12.125 6.347,-12.119 6.447,-11.906 6.519,-11.682 6.563,-11.451 6.578,-11.217 6.563,-10.982 6.519,-10.751 6.517,-10.740 6.479,-10.613 6.421,-10.459 6.356,-10.298 5.907,-9.184 5.732,-8.751 5.620,-8.475 5.599,-8.423 5.524,-8.269 5.402,-8.078 5.257,-7.903 5.092,-7.747 4.908,-7.614 4.902,-7.610 4.703,-7.501 4.493,-7.417 4.274,-7.361 4.049,-7.333 3.823,-7.333 3.598,-7.361 3.379,-7.417 3.168,-7.501 2.970,-7.610 2.787,-7.743 2.622,-7.898 2.478,-8.072 2.357,-8.263 2.260,-8.468 2.190,-8.683 2.148,-8.905 2.146,-8.913"/>
<polygon class="node-10" points="25.419,-12.425 25.443,-12.931 25.463,-13.024 25.485,-13.070 25.671,-13.408 27.158,-16.118 27.393,-16.545 27.450,-16.645 27.510,-16.747 27.589,-16.821 27.692,-16.880 27.966,-16.948 28.512,-16.921 28.718,-16.877 29.148,-16.740 29.578,-16.547 29.784,-16.433 30.325,-16.042 30.470,-15.903 30.594,-15.764 30.694,-15.626 30.768,-15.492 30.838,-15.245 30.798,-15.037 30.351,-14.207 28.962,-11.632 28.818,-11.366 28.586,-10.938 28.399,-10.644 28.251,-10.465 28.102,-10.324 28.082,-10.306 27.869,-10.156 27.518,-10.019 26.921,-10.059 26.533,-10.193 26.381,-10.328 26.095,-10.603 25.634,-11.237 25.442,-11.808"/>
<polygon class="node-11" points="-22.609,-23.196 -22.595,-23.421 -22.553,-23.642 -22.550,-23.658 -22.481,-23.869 -22.387,-24.070 -22.268,-24.257 -22.126,-24.428 -21.965,-24.580 -21.785,-24.710 -21.590,-24.817 -21.384,-24.899 -21.169,-24.954 -20.949,-24.982 -20.931,-24.984 -20.706,-24.984 -20.483,-24.955 -20.265,-24.899 -20.241,-24.893 -20.030,-24.809 -19.831,-24.700 -19.806,-24.686 -19.622,-24.552 -19.456,-24.396 -19.434,-24.375 -19.289,-24.199 -19.167,-24.006 -19.152,-23.982 -19.108,-23.895 -19.032,-23.721 -18.994,-23.630 -18.690,-22.893 -18.508,-22.452 -18.316,-21.984 -18.228,-21.772 -18.031,-21.294 -18.008,-21.237 -17.959,-21.092 -17.935,-21.013 -17.928,-20.990 -17.884,-20.760 -17.869,-20.526 -17.871,-20.506 -17.885,-20.275 -17.928,-20.048 -18.000,-19.828 -18.099,-19.618 -18.223,-19.423 -18.370,-19.244 -18.539,-19.086 -18.726,-18.950 -18.929,-18.838 -19.144,-18.753 -19.368,-18.696 -19.598,-18.667 -19.616,-18.666 -19.850,-18.666 -20.082,-18.696 -20.309,-18.754 -20.332,-18.762 -20.551,-18.848 -20.758,-18.962 -20.780,-18.977 -20.971,-19.116 -21.144,-19.278 -21.162,-19.300 -21.312,-19.482 -21.439,-19.681 -21.517,-19.841 -21.550,-19.918 -21.605,-20.068 -21.625,-20.123 -21.930,-20.974 -22.263,-21.905 -22.497,-22.556 -22.549,-22.725 -22.591,-22.948 -22.595,-22.972"/>
<polygon class="node-12" points="-25.087,27.009 -25.085,26.837 -25.037,26.508 -24.660,24.186 -24.489,23.803 -24.257,23.623 -23.864,23.724 -23.486,23.874 -22.200,24.793 -22.099,24.878 -21.892,25.059 -21.723,25.263 -21.650,25.379 -21.518,25.663 -21.056,26.667 -20.125,28.690 -20.044,28.869 -20.003,28.959 -19.960,29.056 -19.890,29.272 -19.884,29.293 -19.841,29.519 -19.827,29.749 -19.828,29.778 -19.842,30.010 -19.886,30.238 -19.895,30.271 -19.967,30.493 -20.067,30.705 -20.083,30.737 -20.209,30.936 -20.232,30.964 -20.382,31.145 -20.553,31.305 -20.580,31.328 -20.769,31.465 -20.974,31.577 -21.002,31.591 -21.217,31.677 -21.441,31.734 -21.467,31.739 -21.693,31.768 -21.922,31.768 -22.148,31.739 -22.163,31.737 -22.381,31.681 -22.590,31.598 -22.786,31.490 -22.968,31.358 -23.132,31.205 -23.275,31.032 -23.395,30.842 -23.402,30.829 -23.455,30.719 -23.550,30.514 -24.218,29.025 -24.593,28.188 -24.883,27.543 -25.051,27.165"/>
<polygon class="node-13" points="27.936,10.595 27.995,10.178 28.156,10.030 28.209,9.982 28.271,9.963 28.434,9.923 28.537,9.899 31.155,9.291 32.342,9.015 33.106,8.839 33.338,8.809 33.370,8.807 33.605,8.807 33.839,8.836 33.873,8.841 34.101,8.900 34.134,8.912 34.353,8.999 34.560,9.113 34.588,9.131 34.777,9.269 34.949,9.430 34.969,9.452 35.117,9.631 35.242,9.827 35.253,9.849 35.351,10.057 35.422,10.275 35.465,10.500 35.479,10.730 35.480,10.740 35.466,10.965 35.424,11.186 35.354,11.401 35.258,11.605 35.137,11.795 35.130,11.804 34.984,11.981 34.817,12.138 34.631,12.273 34.430,12.383 34.408,12.395 34.192,12.480 33.979,12.535 33.884,12.556 33.691,12.599 33.599,12.619 33.400,12.662 30.832,13.220 30.050,13.390 29.175,13.580 29.107,13.577 28.819,13.469 28.649,13.243 28.562,13.094 28.392,12.736 28.237,12.316 28.168,12.092 28.107,11.862 28.054,11.632 27.975,11.184 27.951,10.973 27.938,10.775"/>
<polygon class="node-14" points="-57.032,9.730 -57.019,9.515 -56.978,9.303 -56.972,9.283 -56.904,9.073 -56.810,8.873 -56.691,8.686 -56.671,8.654 -56.527,8.480 -56.497,8.449 -56.329,8.292 -56.291,8.264 -56.103,8.127 -55.899,8.014 -55.852,7.990 -55.633,7.903 -55.582,7.885 -55.353,7.826 -55.299,7.815 -55.064,7.785 -55.010,7.781 -54.774,7.781 -54.705,7.785 -54.209,7.828 -53.045,7.929 -50.823,8.121 -50.339,8.163 -50.249,8.171 -50.142,8.181 -49.881,8.205 -49.657,8.233 -49.613,8.243 -49.390,8.300 -49.175,8.385 -49.139,8.400 -48.941,8.509 -48.912,8.529 -48.732,8.660 -48.570,8.812 -48.428,8.983 -48.416,8.998 -48.299,9.182 -48.207,9.379 -48.139,9.585 -48.099,9.799 -48.085,10.016 -48.099,10.233 -48.139,10.446 -48.145,10.466 -48.214,10.677 -48.309,10.879 -48.428,11.067 -48.447,11.096 -48.592,11.271 -48.619,11.299 -48.787,11.457 -48.974,11.592 -49.011,11.619 -49.215,11.731 -49.258,11.753 -49.476,11.839 -49.524,11.854 -49.752,11.913 -49.801,11.921 -50.034,11.950 -50.084,11.951 -50.318,11.951 -50.642,11.924 -51.031,11.893 -54.434,11.614 -54.625,11.598 -55.110,11.559 -55.188,11.550 -55.405,11.524 -55.456,11.517 -55.682,11.459 -55.728,11.445 -55.942,11.361 -55.981,11.341 -56.179,11.232 -56.362,11.100 -56.389,11.079 -56.550,10.927 -56.691,10.757 -56.705,10.739 -56.820,10.557 -56.912,10.362 -56.978,10.157 -57.019,9.945"/>
<polygon class="node-15" points="-23.428,30.780 -23.374,30.521 -23.043,30.248 -22.320,29.798 -21.888,29.570 -21.446,29.358 -20.485,28.990 -20.222,28.931 -20.000,29.026 -19.962,29.049 -19.916,29.146 -19.656,29.711 -18.927,31.295 -18.495,32.235 -17.843,33.652 -17.804,33.744 -17.733,33.962 -17.725,33.988 -17.682,34.217 -17.667,34.450 -17.666,34.484 -17.681,34.719 -17.687,34.755 -17.731,34.988 -17.805,35.213 -17.819,35.250 -17.920,35.465 -17.941,35.498 -18.069,35.699 -18.220,35.882 -18.246,35.910 -18.419,36.072 -18.610,36.211 -18.639,36.231 -18.844,36.344 -18.873,36.356 -19.089,36.441 -19.313,36.498 -19.542,36.527 -19.563,36.529 -19.791,36.529 -20.016,36.501 -20.237,36.444 -20.448,36.360 -20.647,36.251 -20.831,36.117 -20.997,35.961 -21.142,35.786 -21.264,35.594 -21.331,35.459 -21.378,35.357 -22.152,33.631 -22.450,32.967 -23.002,31.736 -23.299,31.075"/>
<polygon class="node-16" points="25.419,-12.425 25.512,-12.622 25.755,-12.769 26.247,-12.731 28.492,-12.440 28.957,-12.329 29.199,-12.127 29.233,-12.096 29.429,-11.911 30.428,-10.956 30.624,-10.768 31.841,-9.602 37.227,-4.442 37.855,-3.838 38.502,-3.217 38.570,-3.151 38.719,-2.970 38.845,-2.773 38.853,-2.759 38.951,-2.551 39.022,-2.332 39.065,-2.106 39.079,-1.877 39.065,-1.647 39.022,-1.421 38.951,-1.203 38.944,-1.189 38.845,-0.977 38.719,-0.780 38.570,-0.599 38.551,-0.581 38.378,-0.418 38.187,-0.279 38.159,-0.263 37.949,-0.147 37.727,-0.059 37.692,-0.049 37.460,0.011 37.221,0.041 37.184,0.045 36.943,0.045 36.906,0.041 36.668,0.011 36.436,-0.048 36.403,-0.059 36.182,-0.147 35.973,-0.262 35.947,-0.277 35.756,-0.416 35.634,-0.526 34.595,-1.540 32.122,-3.954 30.295,-5.738 28.290,-7.694 27.099,-8.857 26.704,-9.243 26.502,-9.441 26.300,-9.641 26.090,-9.890 25.929,-10.237 25.804,-10.581 25.442,-11.808"/>
<polygon class="node-17" points="-61.983,9.323 -61.969,9.113 -61.968,9.098 -61.928,8.885 -61.861,8.679 -61.768,8.483 -61.753,8.452 -61.634,8.264 -61.609,8.232 -61.464,8.057 -61.298,7.901 -61.261,7.868 -61.073,7.732 -61.028,7.703 -60.822,7.590 -60.771,7.565 -60.551,7.478 -60.494,7.460 -60.264,7.401 -60.205,7.390 -59.968,7.360 -59.909,7.356 -59.671,7.356 -59.613,7.360 -59.501,7.369 -58.709,7.438 -58.015,7.498 -56.941,7.591 -55.174,7.744 -54.996,7.760 -54.808,7.777 -54.738,7.788 -54.609,7.821 -54.397,8.382 -54.378,8.563 -54.368,8.759 -54.376,9.191 -54.453,9.885 -54.659,10.748 -54.724,10.931 -54.865,11.236 -55.084,11.509 -55.155,11.544 -55.280,11.542 -55.600,11.518 -58.453,11.285 -59.145,11.228 -59.428,11.205 -59.848,11.170 -60.149,11.145 -60.377,11.114 -60.604,11.055 -60.655,11.041 -60.871,10.956 -60.915,10.936 -61.114,10.827 -61.150,10.803 -61.330,10.672 -61.492,10.519 -61.514,10.497 -61.652,10.329 -61.768,10.146 -61.861,9.950 -61.865,9.939 -61.930,9.739 -61.969,9.533"/>
<polygon class="node-18" points="-32.691,3.268 -32.676,3.032 -32.631,2.800 -32.558,2.575 -32.458,2.361 -32.449,2.345 -32.320,2.143 -32.167,1.958 -31.993,1.794 -31.973,1.778 -31.777,1.635 -31.565,1.519 -31.460,1.472 -31.383,1.443 -31.318,1.420 -31.234,1.390 -30.925,1.283 -30.654,1.190 -30.198,1.032 -29.572,0.816 -29.409,0.760 -29.311,0.727 -29.160,0.679 -28.943,0.639 -28.722,0.628 -28.507,0.626 -28.286,0.667 -28.065,0.768 -27.668,0.953 -27.487,1.099 -27.324,1.266 -26.966,1.868 -26.855,2.320 -26.840,2.551 -26.963,3.220 -27.058,3.423 -27.243,3.665 -27.389,3.830 -27.555,3.974 -27.738,4.093 -27.935,4.187 -27.946,4.192 -28.416,4.394 -29.013,4.651 -29.907,5.034 -30.054,5.089 -30.084,5.098 -30.319,5.158 -30.561,5.189 -30.592,5.190 -30.835,5.190 -31.076,5.160 -31.106,5.154 -31.340,5.094 -31.565,5.005 -31.589,4.992 -31.799,4.877 -31.993,4.736 -32.167,4.572 -32.180,4.558 -32.331,4.376 -32.458,4.176 -32.558,3.962 -32.631,3.737 -32.676,3.504"/>
<polygon class="node-19" points="31.916,9.197 32.053,8.694 32.262,7.943 34.284,0.693 34.567,-0.318 34.785,-1.090 34.863,-1.303 38.430,-3.186 38.527,-3.176 38.551,-3.166 38.570,-3.151 38.733,-2.932 38.845,-2.773 38.951,-2.551 39.022,-2.332 39.060,-2.109 39.061,-2.103 39.063,-1.873 39.063,-1.873 39.061,-1.654 39.060,-1.641 39.009,-1.378 38.935,-1.116 38.205,1.444 36.690,6.752 35.549,10.747 35.400,11.255 35.354,11.401 35.253,11.610 35.137,11.783 34.984,11.981 34.817,12.138 34.408,12.395 34.192,12.480 33.994,12.525 33.736,12.319 32.215,9.758 31.933,9.247"/>
<polygon class="node-20" points="-51.657,9.333 -51.655,8.908 -51.630,8.733 -51.575,8.567 -51.463,8.336 -51.355,8.117 -50.076,5.508 -50.041,5.437 -49.926,5.206 -49.862,5.077 -49.738,4.882 -49.591,4.704 -49.567,4.677 -49.396,4.516 -49.364,4.491 -49.171,4.351 -48.963,4.236 -48.922,4.215 -48.699,4.127 -48.653,4.112 -48.419,4.052 -48.371,4.044 -48.132,4.013 -48.083,4.013 -47.842,4.013 -47.603,4.043 -47.557,4.051 -47.326,4.110 -47.285,4.124 -47.065,4.211 -46.857,4.325 -46.825,4.343 -46.637,4.480 -46.613,4.501 -46.446,4.658 -46.301,4.834 -46.178,5.027 -46.170,5.042 -46.075,5.244 -46.006,5.457 -45.964,5.676 -45.950,5.899 -45.950,5.899 -45.964,6.122 -46.006,6.341 -46.010,6.357 -46.081,6.575 -46.117,6.653 -46.212,6.847 -46.252,6.924 -46.896,8.164 -48.007,10.300 -48.234,10.732 -48.325,10.906 -48.447,11.096 -48.592,11.271 -48.619,11.299 -48.757,11.426 -48.823,11.482 -49.175,11.703 -49.258,11.753 -49.432,11.817 -49.752,11.913 -49.985,11.942 -50.084,11.951 -50.318,11.951 -51.251,10.500 -51.500,9.842"/>
<polygon class="node-21" points="2.851,-11.417 2.878,-11.625 2.926,-11.803 2.933,-11.826 2.959,-11.904 2.972,-11.942 3.476,-13.448 3.665,-14.012 3.682,-14.062 3.713,-14.145 3.767,-14.259 3.817,-14.366 3.824,-14.379 3.955,-14.585 4.111,-14.773 4.288,-14.940 4.486,-15.083 4.700,-15.201 4.709,-15.206 4.935,-15.295 5.170,-15.356 5.411,-15.386 5.654,-15.386 5.895,-15.356 6.130,-15.295 6.356,-15.206 6.569,-15.089 6.765,-14.946 6.943,-14.780 7.097,-14.593 7.227,-14.388 7.331,-14.168 7.406,-13.937 7.410,-13.926 7.455,-13.686 7.471,-13.443 7.455,-13.199 7.410,-12.959 7.406,-12.945 7.361,-12.796 7.334,-12.727 7.313,-12.674 7.269,-12.560 6.562,-10.807 6.536,-10.743 6.436,-10.499 6.337,-10.315 6.149,-10.051 5.895,-9.861 5.624,-9.676 5.194,-9.544 4.733,-9.516 4.500,-9.543 4.269,-9.595 4.046,-9.674 3.833,-9.776 3.634,-9.902 3.452,-10.048 3.289,-10.212 3.150,-10.391 3.035,-10.584 2.946,-10.786 2.886,-10.995 2.854,-11.206"/>
<polygon class="node-22" points="32.876,12.734 32.890,12.308 32.908,11.903 33.089,11.348 33.253,11.192 33.426,11.032 33.603,10.869 34.316,10.426 34.873,10.262 35.686,10.188 35.875,10.370 36.072,10.564 36.649,11.148 37.036,11.538 43.552,18.127 44.565,19.152 44.769,19.359 44.788,19.379 44.819,19.412 44.972,19.597 44.995,19.632 45.122,19.832 45.223,20.046 45.236,20.079 45.308,20.300 45.352,20.529 45.354,20.554 45.368,20.781 45.354,21.009 45.311,21.233 45.241,21.450 45.144,21.656 45.022,21.848 44.876,22.024 44.710,22.180 44.526,22.314 44.505,22.328 44.301,22.440 44.084,22.526 44.052,22.536 43.822,22.595 43.587,22.625 43.545,22.629 43.305,22.629 43.260,22.625 43.020,22.595 42.974,22.583 42.739,22.522 42.512,22.433 42.467,22.413 42.254,22.296 42.213,22.270 42.016,22.127 41.981,22.096 41.839,21.961 41.827,21.949 41.627,21.745 41.230,21.340 40.830,20.928 39.640,19.703 38.263,18.286 34.969,14.896 33.633,13.521 33.064,12.933"/>
<polygon class="node-23" points="-21.658,-20.451 -21.646,-20.665 -21.437,-21.287 -21.312,-21.476 -20.798,-21.948 -20.139,-22.224 -19.903,-22.264 -19.429,-22.264 -18.935,-22.096 -18.579,-21.949 -18.369,-21.745 -18.222,-21.587 -18.099,-21.412 -18.032,-21.296 -18.002,-21.223 -17.843,-20.838 -17.487,-19.976 -17.031,-18.869 -16.884,-18.512 -16.834,-18.361 -16.808,-18.280 -16.803,-18.258 -16.757,-18.020 -16.742,-17.778 -16.757,-17.536 -16.759,-17.521 -16.804,-17.285 -16.878,-17.057 -16.980,-16.840 -17.109,-16.637 -17.262,-16.452 -17.437,-16.288 -17.631,-16.147 -17.841,-16.031 -18.064,-15.943 -18.297,-15.883 -18.312,-15.880 -18.552,-15.850 -18.795,-15.850 -19.036,-15.880 -19.057,-15.885 -19.294,-15.946 -19.521,-16.036 -19.735,-16.154 -19.757,-16.167 -19.955,-16.311 -20.134,-16.479 -20.152,-16.498 -20.308,-16.687 -20.439,-16.893 -20.522,-17.064 -20.553,-17.137 -20.606,-17.281 -20.663,-17.439 -20.944,-18.222 -21.515,-19.816 -21.591,-20.033 -21.623,-20.207"/>
<polygon class="node-24" points="38.463,30.190 38.477,29.963 38.481,29.940 38.522,29.722 38.532,29.685 38.728,29.005 39.747,25.472 39.804,25.273 39.895,24.966 39.928,24.861 39.970,24.729 40.065,24.527 40.185,24.338 40.327,24.166 40.490,24.013 40.671,23.882 40.688,23.870 40.888,23.759 41.101,23.675 41.130,23.666 41.356,23.608 41.588,23.579 41.627,23.576 41.864,23.576 41.907,23.580 42.144,23.610 42.376,23.670 42.422,23.683 42.647,23.772 42.691,23.792 42.903,23.909 42.944,23.936 43.140,24.078 43.176,24.111 43.351,24.276 43.505,24.461 43.533,24.497 43.660,24.698 43.680,24.735 43.781,24.948 43.853,25.171 43.863,25.204 43.906,25.431 43.921,25.662 43.922,25.687 43.907,25.912 43.865,26.135 43.816,26.306 43.788,26.400 43.617,26.979 43.560,27.172 43.389,27.752 42.651,30.253 42.595,30.444 42.445,30.948 42.429,31.000 42.371,31.176 42.276,31.379 42.273,31.385 42.156,31.570 42.016,31.738 41.857,31.888 41.849,31.896 41.667,32.028 41.470,32.136 41.261,32.218 41.235,32.227 41.013,32.284 40.785,32.313 40.748,32.315 40.514,32.315 40.283,32.286 40.238,32.280 40.009,32.221 39.964,32.207 39.742,32.119 39.698,32.097 39.487,31.982 39.446,31.953 39.252,31.812 39.077,31.647 39.040,31.613 38.888,31.429 38.858,31.391 38.731,31.190 38.709,31.150 38.609,30.938 38.596,30.898 38.524,30.678 38.481,30.450 38.477,30.417"/>
<polygon class="node-25" points="-27.988,16.909 -27.973,16.663 -27.971,16.642 -27.924,16.397 -27.847,16.159 -27.836,16.135 -27.729,15.907 -27.594,15.694 -27.575,15.670 -27.413,15.475 -27.228,15.302 -27.202,15.283 -26.997,15.133 -26.775,15.011 -26.745,14.999 -26.510,14.906 -26.265,14.843 -26.235,14.839 -25.986,14.808 -25.735,14.808 -25.486,14.839 -25.463,14.843 -25.223,14.905 -24.992,14.996 -24.774,15.116 -24.764,15.124 -24.566,15.267 -24.387,15.435 -24.231,15.623 -24.100,15.830 -23.996,16.051 -23.919,16.294 -23.904,16.351 -23.742,17.057 -22.901,20.727 -22.195,23.814 -22.111,24.185 -22.064,24.413 -22.054,24.611 -22.074,24.811 -22.123,25.012 -22.423,25.362 -23.027,25.724 -23.238,25.842 -23.461,25.938 -24.296,26.237 -24.789,26.300 -24.994,26.220 -25.181,26.117 -25.348,25.993 -25.612,25.595 -25.715,25.426 -25.848,25.031 -27.477,19.049 -27.926,17.398 -27.941,17.329 -27.973,17.155"/>
<polygon class="node-26" points="16.854,-16.212 16.870,-16.462 16.917,-16.708 16.923,-16.729 17.002,-16.969 17.109,-17.197 17.244,-17.411 17.259,-17.431 17.421,-17.627 17.606,-17.800 17.627,-17.816 17.831,-17.965 18.053,-18.087 18.289,-18.180 18.312,-18.188 18.555,-18.250 18.805,-18.282 19.057,-18.282 19.076,-18.281 19.324,-18.250 19.565,-18.188 19.797,-18.096 19.957,-18.012 24.257,-15.469 26.863,-13.928 26.984,-13.856 27.109,-13.782 27.269,-13.679 27.411,-13.552 27.736,-13.230 28.045,-12.733 28.079,-12.522 28.088,-12.303 27.732,-11.528 26.585,-10.394 26.082,-10.181 25.885,-10.198 25.697,-10.243 25.521,-10.316 25.170,-10.506 24.431,-10.907 20.943,-12.801 20.113,-13.252 19.436,-13.619 18.254,-14.261 17.833,-14.492 17.774,-14.527 17.573,-14.673 17.392,-14.843 17.234,-15.034 17.101,-15.243 16.995,-15.468 16.919,-15.703 16.872,-15.947 16.870,-15.961"/>
<polygon class="node-27" points="39.908,24.931 39.945,24.788 40.107,24.224 40.248,23.735 40.303,23.543 40.583,22.573 40.975,21.213 41.013,21.091 41.057,21.042 41.273,20.878 44.788,19.379 44.819,19.412 44.942,19.566 45.101,19.799 45.122,19.832 45.223,20.046 45.236,20.079 45.311,20.330 45.341,20.505 45.348,20.820 45.341,20.978 45.311,21.233 45.297,21.283 45.207,21.591 44.799,22.973 44.078,25.419 43.991,25.713 43.935,25.904 43.878,26.096 43.843,26.213 43.728,26.319 43.494,26.375 42.602,26.199 42.361,26.145 42.113,26.081 41.861,26.006 41.611,25.922 40.431,25.487 40.274,25.382 40.142,25.280 39.921,25.007"/>
<polygon class="node-28" points="-50.001,5.619 -49.992,5.442 -49.952,5.273 -49.858,5.064 -48.795,2.897 -48.053,1.383 -47.747,0.760 -47.693,0.656 -47.565,0.455 -47.414,0.272 -47.392,0.248 -47.216,0.083 -47.020,-0.059 -46.987,-0.082 -46.773,-0.200 -46.733,-0.217 -46.503,-0.308 -46.264,-0.370 -46.218,-0.381 -45.972,-0.412 -45.925,-0.416 -45.676,-0.416 -45.629,-0.411 -45.383,-0.380 -45.143,-0.319 -45.101,-0.307 -44.872,-0.217 -44.834,-0.199 -44.621,-0.082 -44.424,0.061 -44.397,0.082 -44.222,0.246 -44.069,0.431 -44.053,0.451 -43.927,0.649 -43.827,0.862 -43.755,1.086 -43.753,1.095 -43.710,1.321 -43.695,1.550 -43.710,1.779 -43.711,1.786 -43.755,2.017 -43.827,2.240 -43.877,2.349 -43.951,2.500 -44.095,2.777 -45.895,6.239 -46.024,6.486 -46.097,6.625 -46.184,6.774 -46.299,6.909 -46.521,7.138 -46.886,7.311 -47.097,7.366 -47.324,7.398 -48.059,7.354 -48.309,7.294 -48.792,7.108 -49.582,6.529 -49.924,5.988 -49.978,5.802"/>
<polygon class="node-29" points="-47.815,1.172 -47.702,0.677 -47.565,0.455 -47.414,0.272 -47.392,0.248 -47.216,0.083 -47.020,-0.059 -46.949,-0.098 -46.733,-0.217 -46.503,-0.308 -46.019,-0.401 -45.563,-0.405 -45.225,-0.367 -44.933,-0.334 -43.695,-0.192 -39.124,0.333 -34.308,0.887 -33.709,0.955 -31.328,1.229 -31.040,1.264 -30.748,1.300 -29.963,1.538 -29.487,2.004 -29.338,2.183 -28.981,2.800 -28.882,3.026 -28.867,3.265 -28.867,3.265 -28.882,3.504 -28.954,3.971 -29.148,4.396 -29.447,4.748 -29.858,5.008 -30.054,5.089 -30.116,5.099 -30.741,5.163 -30.908,5.170 -31.229,5.148 -31.816,5.085 -33.010,4.954 -39.329,4.263 -43.908,3.762 -44.210,3.728 -44.816,3.660 -44.862,3.651 -45.215,3.575 -45.594,3.369 -45.939,3.156 -47.089,2.327 -47.562,1.873 -47.729,1.578 -47.771,1.394"/>
<polygon class="node-30" points="3.712,-13.013 3.735,-14.168 4.013,-14.595 4.288,-14.940 4.479,-15.071 4.709,-15.206 4.935,-15.295 5.228,-15.367 5.520,-15.432 6.676,-15.682 7.984,-15.965 10.625,-16.536 11.152,-16.650 11.741,-16.777 11.986,-16.808 12.234,-16.808 12.479,-16.777 12.488,-16.775 12.726,-16.714 12.953,-16.624 13.168,-16.505 13.366,-16.361 13.545,-16.194 13.701,-16.005 13.833,-15.798 13.937,-15.576 13.941,-15.567 14.017,-15.332 14.064,-15.089 14.079,-14.842 14.064,-14.596 14.061,-14.579 14.014,-14.335 13.937,-14.099 13.832,-13.874 13.698,-13.664 13.687,-13.648 13.529,-13.456 13.347,-13.286 13.146,-13.140 13.131,-13.129 12.913,-13.010 12.683,-12.918 12.448,-12.859 12.328,-12.833 12.066,-12.779 10.470,-12.451 9.024,-12.155 8.235,-11.993 7.333,-11.808 6.537,-11.645 6.364,-11.621 6.012,-11.617 5.228,-11.781 5.012,-11.837 4.805,-11.919 4.395,-12.108 4.228,-12.264 4.083,-12.440"/>
<polygon class="node-31" points="-32.059,1.922 -32.028,1.540 -31.998,1.395 -31.938,1.262 -31.873,1.120 -30.712,-1.327 -30.145,-2.522 -30.083,-2.649 -29.942,-2.940 -29.812,-3.145 -29.804,-3.158 -29.646,-3.348 -29.467,-3.517 -29.267,-3.662 -29.247,-3.675 -29.029,-3.794 -28.798,-3.886 -28.772,-3.893 -28.529,-3.955 -28.281,-3.987 -28.031,-3.987 -28.002,-3.987 -27.754,-3.955 -27.511,-3.893 -27.484,-3.885 -27.252,-3.793 -27.033,-3.673 -27.011,-3.659 -26.811,-3.514 -26.630,-3.344 -26.472,-3.153 -26.461,-3.138 -26.329,-2.931 -26.225,-2.710 -26.149,-2.477 -26.103,-2.236 -26.088,-1.991 -26.088,-1.991 -26.103,-1.747 -26.149,-1.506 -26.225,-1.273 -26.311,-1.087 -26.393,-0.920 -26.717,-0.270 -27.869,2.040 -28.281,2.868 -28.530,3.365 -28.650,3.606 -28.708,3.721 -28.862,4.003 -29.004,4.203 -29.148,4.396 -29.447,4.748 -29.890,5.010 -30.054,5.089 -30.116,5.099 -30.877,4.866 -31.560,3.445 -31.763,2.974 -31.888,2.671 -31.967,2.375"/>
<polygon class="node-32" points="36.895,-2.103 37.020,-2.812 37.227,-3.299 37.492,-3.856 37.844,-4.075 44.657,-5.964 50.372,-7.548 50.524,-7.583 50.576,-7.595 50.828,-7.627 50.882,-7.631 51.135,-7.631 51.189,-7.627 51.439,-7.595 51.489,-7.584 51.731,-7.521 51.964,-7.429 52.006,-7.412 52.222,-7.293 52.256,-7.271 52.452,-7.128 52.629,-6.962 52.650,-6.939 52.801,-6.757 52.929,-6.556 53.030,-6.341 53.034,-6.329 53.106,-6.109 53.149,-5.882 53.164,-5.651 53.149,-5.421 53.147,-5.409 53.103,-5.176 53.030,-4.950 52.929,-4.735 52.913,-4.710 52.784,-4.505 52.629,-4.318 52.601,-4.290 52.421,-4.121 52.222,-3.976 52.183,-3.948 51.964,-3.828 51.918,-3.806 51.683,-3.713 51.632,-3.698 51.539,-3.671 51.237,-3.591 50.948,-3.515 48.338,-2.832 46.629,-2.384 42.446,-1.289 39.189,-0.437 38.934,-0.371 38.555,-0.332 37.969,-0.739 37.105,-1.404 37.030,-1.633 36.959,-1.868"/>
<polygon class="node-33" points="-24.022,-12.856 -24.006,-13.103 -23.960,-13.346 -23.958,-13.353 -23.882,-13.585 -23.778,-13.806 -23.705,-13.929 -23.552,-14.159 -22.210,-16.174 -21.350,-17.465 -21.157,-17.754 -20.706,-18.430 -20.591,-18.595 -20.474,-18.744 -20.198,-18.951 -19.969,-19.083 -19.535,-19.316 -18.623,-19.493 -18.169,-19.475 -17.890,-19.439 -17.405,-19.185 -17.253,-19.002 -16.808,-18.280 -16.763,-18.040 -16.813,-17.274 -16.987,-16.836 -17.064,-16.703 -17.368,-16.228 -17.428,-16.134 -17.490,-16.038 -18.187,-14.953 -19.348,-13.146 -19.935,-12.232 -20.270,-11.710 -20.329,-11.624 -20.486,-11.435 -20.665,-11.267 -20.864,-11.122 -21.080,-11.004 -21.093,-10.997 -21.324,-10.906 -21.565,-10.844 -21.812,-10.813 -21.834,-10.812 -22.084,-10.812 -22.333,-10.843 -22.575,-10.906 -22.600,-10.913 -22.834,-11.006 -23.054,-11.127 -23.076,-11.142 -23.279,-11.289 -23.462,-11.461 -23.622,-11.654 -23.637,-11.674 -23.771,-11.884 -23.877,-12.110 -23.883,-12.130 -23.960,-12.366 -24.006,-12.609"/>
<polygon class="node-34" points="-32.148,5.137 -32.147,4.575 -31.710,3.827 -31.520,3.711 -31.312,3.600 -28.528,3.373 -28.337,3.906 -25.853,10.852 -24.969,13.325 -24.372,14.995 -24.271,15.278 -24.065,15.865 -24.002,16.067 -23.938,16.320 -23.891,16.568 -23.925,16.856 -24.320,17.639 -24.490,17.846 -24.972,18.136 -25.975,18.422 -26.149,18.444 -26.325,18.444 -26.499,18.422 -27.377,18.136 -27.690,17.835 -27.833,17.639 -27.983,17.252 -28.079,16.972 -28.659,15.290 -28.950,14.444 -31.308,7.598 -31.864,5.984 -32.038,5.478 -32.123,5.226"/>
<polygon class="node-35" points="-2.248,-15.168 -2.232,-15.421 -2.230,-15.436 -2.183,-15.684 -2.105,-15.925 -1.997,-16.153 -1.862,-16.367 -1.854,-16.377 -1.694,-16.571 -1.511,-16.743 -1.307,-16.890 -1.087,-17.012 -0.853,-17.104 -0.610,-17.167 -0.360,-17.198 -0.109,-17.198 0.141,-17.167 0.361,-17.112 2.482,-16.444 2.828,-16.335 4.550,-15.793 5.006,-15.649 5.422,-15.518 5.620,-15.453 5.676,-15.384 5.839,-15.028 5.928,-13.723 5.909,-13.184 5.866,-12.773 5.674,-11.933 5.620,-11.763 5.466,-11.668 5.215,-11.640 4.904,-11.626 4.715,-11.655 4.444,-11.706 4.184,-11.780 4.075,-11.812 -0.431,-13.118 -0.678,-13.189 -0.827,-13.233 -0.850,-13.240 -1.082,-13.333 -1.089,-13.336 -1.309,-13.457 -1.513,-13.605 -1.697,-13.778 -1.858,-13.972 -1.993,-14.185 -2.100,-14.413 -2.106,-14.427 -2.184,-14.667 -2.232,-14.916"/>
<polygon class="node-36" points="43.189,20.634 43.809,18.782 43.975,18.543 44.175,18.490 45.028,18.336 52.769,16.971 55.451,16.498 56.959,16.232 57.274,16.178 57.511,16.148 57.571,16.145 57.825,16.145 57.888,16.150 58.142,16.182 58.205,16.196 58.454,16.259 58.516,16.281 58.755,16.375 58.812,16.404 59.036,16.527 59.088,16.562 59.293,16.710 59.338,16.750 59.520,16.921 59.555,16.963 59.712,17.153 59.844,17.360 59.866,17.399 59.968,17.617 60.043,17.845 60.052,17.876 60.096,18.106 60.111,18.340 60.110,18.358 60.096,18.584 60.053,18.807 59.983,19.023 59.886,19.229 59.880,19.239 59.755,19.437 59.605,19.617 59.435,19.778 59.408,19.798 59.214,19.939 59.003,20.055 58.962,20.074 58.733,20.165 58.684,20.178 58.441,20.240 58.374,20.252 55.928,20.646 50.290,21.554 46.851,22.108 45.141,22.382 44.829,22.420 44.325,22.193 43.856,21.832 43.390,21.358 43.319,21.123 43.251,20.881"/>
<polygon class="node-37" points="11.533,-16.237 11.561,-16.528 11.662,-16.754 11.710,-16.768 11.959,-16.824 17.950,-18.120 18.369,-18.210 18.555,-18.250 18.805,-18.282 19.057,-18.282 19.307,-18.250 19.565,-18.188 19.811,-18.076 20.023,-17.959 20.200,-17.780 20.473,-17.179 20.495,-16.983 20.426,-15.933 20.257,-15.626 20.060,-15.289 19.938,-15.095 19.380,-14.628 18.786,-14.200 18.685,-14.146 18.567,-14.114 18.445,-14.088 18.166,-14.030 18.025,-14.002 17.064,-13.804 13.133,-12.998 12.595,-12.887 12.459,-12.860 12.407,-12.868 12.350,-12.908 12.288,-12.978 12.222,-13.077 12.086,-13.357 12.016,-13.534 11.948,-13.732 11.818,-14.177 11.759,-14.417 11.658,-14.913 11.617,-15.161 11.583,-15.403"/>
<polygon class="node-38" points="-51.915,-2.771 -51.900,-3.004 -51.900,-3.007 -51.855,-3.242 -51.781,-3.470 -51.679,-3.687 -51.550,-3.890 -51.533,-3.911 -51.377,-4.100 -51.199,-4.268 -51.169,-4.291 -50.967,-4.437 -50.749,-4.557 -50.708,-4.578 -50.473,-4.671 -50.426,-4.685 -50.179,-4.748 -50.128,-4.755 -49.874,-4.787 -49.618,-4.787 -49.565,-4.786 -49.311,-4.754 -49.259,-4.745 -49.012,-4.682 -48.963,-4.665 -48.728,-4.572 -48.685,-4.549 -48.465,-4.428 -48.262,-4.281 -48.230,-4.255 -48.050,-4.086 -47.996,-4.027 -46.290,-2.096 -45.449,-1.144 -44.995,-0.631 -44.838,-0.453 -44.748,-0.348 -44.701,-0.251 -44.786,0.021 -44.840,0.177 -45.113,0.824 -45.420,1.477 -45.595,1.776 -46.048,2.484 -46.315,2.735 -46.523,2.814 -47.275,2.667 -47.727,2.457 -47.910,2.316 -48.011,2.213 -48.420,1.773 -48.578,1.602 -48.821,1.339 -48.975,1.171 -50.812,-0.818 -51.135,-1.167 -51.377,-1.430 -51.405,-1.463 -51.533,-1.619 -51.665,-1.826 -51.679,-1.848 -51.781,-2.065 -51.855,-2.293 -51.900,-2.529 -51.915,-2.768"/>
<polygon class="node-39" points="-19.540,-19.329 -18.970,-19.626 -18.432,-19.744 -18.270,-19.765 -18.007,-19.754 -17.265,-19.716 -10.195,-19.347 -9.685,-19.320 -7.879,-19.226 -6.569,-19.157 -6.283,-19.142 -6.034,-19.109 -5.782,-19.045 -5.539,-18.949 -5.311,-18.823 -5.100,-18.670 -5.087,-18.659 -4.896,-18.480 -4.729,-18.278 -4.589,-18.057 -4.580,-18.039 -4.468,-17.802 -4.387,-17.553 -4.338,-17.296 -4.322,-17.034 -4.321,-17.015 -4.338,-16.755 -4.387,-16.498 -4.467,-16.250 -4.579,-16.013 -4.584,-16.002 -4.723,-15.783 -4.889,-15.583 -5.078,-15.405 -5.288,-15.253 -5.515,-15.128 -5.756,-15.032 -6.008,-14.968 -6.265,-14.935 -6.525,-14.935 -6.534,-14.936 -12.389,-15.372 -15.313,-15.590 -17.670,-15.766 -17.846,-15.889 -18.519,-16.905 -18.851,-17.496 -19.259,-18.364 -19.496,-19.027"/>
<polygon class="node-40" points="-30.052,-2.493 -30.050,-2.643 -30.018,-2.783 -29.953,-2.926 -29.259,-4.388 -28.893,-5.159 -28.040,-6.956 -27.873,-7.310 -27.761,-7.544 -27.455,-8.188 -27.349,-8.411 -27.278,-8.553 -27.144,-8.765 -27.138,-8.772 -26.977,-8.968 -26.792,-9.141 -26.586,-9.291 -26.364,-9.413 -26.344,-9.421 -26.106,-9.516 -25.858,-9.579 -25.604,-9.611 -25.577,-9.613 -25.320,-9.613 -25.064,-9.581 -25.037,-9.575 -24.787,-9.511 -24.547,-9.416 -24.322,-9.292 -24.298,-9.278 -24.090,-9.127 -23.903,-8.951 -23.886,-8.934 -23.723,-8.737 -23.587,-8.522 -23.478,-8.291 -23.472,-8.275 -23.394,-8.035 -23.347,-7.787 -23.331,-7.535 -23.347,-7.283 -23.394,-7.036 -23.472,-6.796 -23.566,-6.595 -23.609,-6.504 -23.720,-6.283 -24.054,-5.611 -25.101,-3.512 -26.130,-1.448 -26.274,-1.167 -26.366,-1.056 -26.642,-0.796 -26.804,-0.733 -27.412,-0.777 -27.645,-0.803 -27.884,-0.849 -28.833,-1.083 -29.261,-1.356 -29.449,-1.509 -29.616,-1.669 -29.759,-1.835 -29.964,-2.170"/>
<polygon class="node-41" points="-27.367,-8.314 -27.278,-8.553 -27.191,-8.699 -26.687,-9.454 -24.173,-13.227 -23.948,-13.563 -23.784,-13.807 -23.719,-13.898 -23.594,-14.051 -23.486,-14.110 -23.024,-14.164 -22.627,-14.093 -22.411,-14.026 -21.094,-13.276 -20.583,-12.774 -20.455,-12.605 -20.351,-12.440 -20.202,-11.995 -20.207,-11.870 -20.325,-11.625 -20.460,-11.415 -20.797,-10.890 -22.140,-8.799 -23.299,-6.995 -23.447,-6.765 -23.565,-6.583 -23.867,-6.395 -24.183,-6.293 -24.542,-6.282 -25.137,-6.368 -25.549,-6.464 -25.996,-6.689 -26.540,-6.988 -26.962,-7.361 -27.287,-7.843 -27.350,-8.064"/>
<polygon class="node-42" points="49.203,-7.282 49.969,-9.836 50.033,-10.050 50.322,-11.014 50.452,-11.443 50.502,-11.588 50.513,-11.616 50.616,-11.835 50.745,-12.039 50.768,-12.072 50.925,-12.262 50.958,-12.294 51.141,-12.465 51.343,-12.613 51.387,-12.643 51.608,-12.765 51.658,-12.789 51.895,-12.883 51.949,-12.900 52.197,-12.964 52.253,-12.974 52.507,-13.006 52.564,-13.008 52.818,-13.008 52.872,-13.002 53.122,-12.970 53.367,-12.907 53.414,-12.894 53.645,-12.803 53.685,-12.783 53.899,-12.665 54.097,-12.522 54.124,-12.501 54.298,-12.337 54.451,-12.153 54.463,-12.135 54.588,-11.938 54.687,-11.727 54.759,-11.505 54.803,-11.276 54.818,-11.044 54.803,-10.811 54.759,-10.582 54.755,-10.559 54.733,-10.479 53.738,-7.238 53.146,-5.309 53.113,-5.201 53.017,-4.929 52.891,-4.688 52.801,-4.535 52.758,-4.480 52.629,-4.318 52.601,-4.290 52.343,-4.075 51.918,-3.806 51.731,-3.736 49.342,-6.993 49.251,-7.139"/>
<polygon class="node-43" points="-27.855,17.420 -27.560,17.060 -25.751,15.107 -25.457,14.818 -25.154,14.632 -24.806,14.505 -24.127,14.348 -21.216,13.676 -19.479,13.275 -19.130,13.194 -17.731,12.871 -17.664,12.857 -17.409,12.825 -17.390,12.824 -17.135,12.824 -16.881,12.856 -16.634,12.919 -16.396,13.013 -16.388,13.017 -16.166,13.139 -15.962,13.288 -15.778,13.460 -15.617,13.655 -15.482,13.868 -15.374,14.097 -15.296,14.337 -15.293,14.347 -15.245,14.598 -15.229,14.853 -15.245,15.108 -15.293,15.359 -15.297,15.378 -15.377,15.623 -15.486,15.855 -15.624,16.073 -15.638,16.092 -15.802,16.291 -15.990,16.468 -16.010,16.482 -16.218,16.634 -16.444,16.758 -16.684,16.853 -16.706,16.859 -16.866,16.904 -17.421,17.028 -19.159,17.415 -22.792,18.223 -24.165,18.529 -24.484,18.600 -24.739,18.651 -25.045,18.676 -25.321,18.676 -25.900,18.586 -26.499,18.422 -27.377,18.136 -27.690,17.835 -27.833,17.639"/>
<polygon class="node-44" points="50.456,-11.441 50.484,-11.550 50.677,-12.195 50.871,-12.842 50.935,-13.058 51.519,-15.006 51.878,-16.203 52.074,-16.855 52.126,-17.002 52.138,-17.035 52.241,-17.255 52.372,-17.461 52.397,-17.500 52.556,-17.692 52.590,-17.730 52.774,-17.903 52.817,-17.937 53.024,-18.087 53.074,-18.117 53.299,-18.241 53.355,-18.264 53.595,-18.359 53.654,-18.375 53.903,-18.439 53.963,-18.447 54.218,-18.479 54.474,-18.479 54.531,-18.478 54.783,-18.447 54.836,-18.438 55.079,-18.376 55.125,-18.361 55.354,-18.270 55.570,-18.151 55.603,-18.132 55.798,-17.991 55.974,-17.825 55.992,-17.808 56.142,-17.627 56.268,-17.428 56.368,-17.216 56.441,-16.992 56.485,-16.761 56.499,-16.527 56.485,-16.292 56.441,-16.061 56.435,-16.032 56.412,-15.951 56.311,-15.621 55.435,-12.767 55.033,-11.457 54.766,-10.587 54.731,-10.479 54.684,-10.488 54.610,-10.504 54.370,-10.556 52.825,-10.901 52.560,-10.961 51.123,-11.287 50.786,-11.364 50.559,-11.416 50.491,-11.432"/>
<polygon class="node-45" points="-7.604,-17.006 -7.499,-17.835 -7.142,-18.633 -6.802,-18.942 -6.579,-19.019 -5.794,-19.046 -5.702,-19.019 -5.294,-18.891 -4.912,-18.771 -1.562,-17.717 -0.462,-17.370 -0.007,-17.227 0.224,-17.154 0.352,-17.103 0.539,-17.023 0.827,-16.645 0.938,-16.270 0.966,-16.054 0.975,-15.824 0.965,-15.582 0.935,-15.334 0.887,-15.084 0.527,-14.135 0.269,-13.746 -0.020,-13.450 -0.170,-13.342 -0.321,-13.263 -0.470,-13.215 -0.614,-13.198 -0.752,-13.212 -0.928,-13.262 -1.876,-13.536 -3.825,-14.101 -6.210,-14.792 -6.732,-14.944 -7.044,-15.352"/>
<polygon class="node-46" points="50.324,-3.477 50.548,-4.542 50.657,-5.056 50.849,-5.238 51.046,-5.422 51.245,-5.607 51.669,-5.763 53.251,-6.188 53.613,-6.081 55.595,-4.290 56.039,-3.888 58.052,-2.069 60.775,0.393 62.615,2.057 63.546,2.899 63.769,3.104 63.887,3.216 63.920,3.250 64.077,3.439 64.099,3.473 64.228,3.675 64.330,3.892 64.404,4.120 64.409,4.139 64.452,4.366 64.467,4.598 64.452,4.830 64.409,5.057 64.337,5.278 64.330,5.295 64.228,5.512 64.099,5.714 63.947,5.898 63.920,5.928 63.741,6.096 63.704,6.124 63.501,6.272 63.281,6.393 63.230,6.419 62.992,6.513 62.933,6.534 62.683,6.598 62.619,6.611 62.360,6.644 62.292,6.649 62.030,6.649 61.962,6.646 61.702,6.613 61.635,6.602 61.381,6.537 61.318,6.518 61.077,6.422 61.020,6.397 60.794,6.273 60.745,6.242 60.540,6.093 60.500,6.059 60.433,6.001 59.976,5.580 59.519,5.158 56.150,2.052 50.686,-2.986 50.473,-3.183"/>
<polygon class="node-47" points="57.161,20.456 57.295,16.532 57.342,16.205 57.453,16.159 57.701,16.159 57.950,16.163 58.324,16.240 58.575,16.310 58.755,16.375 58.812,16.404 59.036,16.527 59.088,16.562 59.338,16.750 59.429,16.832 59.520,16.918 59.615,17.008 60.051,17.425 61.995,19.289 63.244,20.486 63.426,20.659 63.698,20.921 63.880,21.096 63.959,21.174 63.999,21.222 64.158,21.414 64.292,21.624 64.319,21.668 64.423,21.888 64.439,21.930 64.512,22.156 64.557,22.389 64.561,22.418 64.575,22.648 64.561,22.878 64.518,23.104 64.446,23.323 64.348,23.531 64.225,23.726 64.078,23.903 63.910,24.061 63.886,24.083 63.694,24.223 63.486,24.337 63.444,24.360 63.217,24.450 63.166,24.467 62.925,24.529 62.866,24.539 62.614,24.571 62.549,24.573 62.292,24.573 62.224,24.567 61.967,24.535 61.898,24.520 61.645,24.455 61.577,24.433 61.335,24.337 61.270,24.307 61.042,24.181 60.983,24.145 60.774,23.993 60.722,23.952 60.502,23.747 60.231,23.482 59.615,22.881 57.433,20.751 57.170,20.494"/>
<polygon class="node-48" points="17.398,-17.120 17.414,-17.340 17.461,-17.622 17.555,-17.811 17.611,-17.898 17.832,-18.191 17.960,-18.361 18.193,-18.668 19.489,-20.384 19.626,-20.563 19.717,-20.677 19.795,-20.768 19.989,-20.950 20.014,-20.970 20.229,-21.126 20.461,-21.254 20.489,-21.266 20.735,-21.363 20.991,-21.429 21.253,-21.462 21.278,-21.465 21.540,-21.465 21.800,-21.432 22.053,-21.367 22.068,-21.362 22.309,-21.267 22.535,-21.143 22.745,-20.991 22.933,-20.814 23.098,-20.614 23.236,-20.396 23.346,-20.162 23.426,-19.916 23.475,-19.662 23.478,-19.644 23.495,-19.383 23.478,-19.122 23.429,-18.864 23.424,-18.838 23.342,-18.587 23.229,-18.348 23.215,-18.322 23.072,-18.097 22.962,-17.958 22.914,-17.900 22.878,-17.858 22.196,-17.043 22.092,-16.920 22.042,-16.860 21.590,-16.321 21.001,-15.619 20.953,-15.561 20.861,-15.452 20.831,-15.417 20.691,-15.261 20.503,-15.085 20.331,-14.946 20.035,-14.771 19.767,-14.650 19.433,-14.555 19.208,-14.496 18.970,-14.520 18.589,-14.766 18.412,-14.927 18.070,-15.334 17.905,-15.592 17.627,-16.082 17.456,-16.665 17.412,-16.894"/>
<polygon class="node-49" points="56.038,16.603 56.056,16.227 56.068,16.182 56.143,15.930 56.224,15.668 56.887,13.524 57.722,10.824 58.564,8.103 59.328,5.634 59.418,5.347 59.628,5.047 63.744,3.147 63.799,3.164 63.846,3.187 64.099,3.473 64.288,3.848 64.404,4.120 64.467,4.598 64.435,4.834 64.404,5.067 64.380,5.154 64.114,5.999 63.935,6.563 63.318,8.510 60.709,16.747 60.541,17.278 60.450,17.564 60.233,17.904 59.560,18.158 58.922,18.331 58.272,18.465 57.994,18.386 57.714,18.300 57.438,18.208 56.520,17.227"/>
<polygon class="node-50" points="-56.158,-7.390 -56.143,-7.630 -56.098,-7.867 -56.023,-8.096 -55.921,-8.314 -55.910,-8.331 -55.778,-8.540 -55.620,-8.731 -55.440,-8.900 -55.410,-8.925 -55.206,-9.074 -55.167,-9.096 -54.942,-9.219 -54.703,-9.314 -54.653,-9.332 -54.400,-9.396 -54.345,-9.406 -54.084,-9.439 -54.025,-9.441 -53.761,-9.441 -53.702,-9.435 -53.440,-9.402 -53.381,-9.388 -53.126,-9.322 -52.881,-9.225 -52.829,-9.204 -52.599,-9.078 -52.553,-9.050 -52.344,-8.898 -52.306,-8.867 -52.120,-8.692 -51.902,-8.447 -50.086,-6.392 -48.003,-4.035 -47.923,-3.722 -47.953,-3.584 -48.202,-3.098 -48.491,-2.739 -49.279,-2.042 -49.501,-1.889 -49.727,-1.749 -49.952,-1.625 -50.173,-1.520 -50.386,-1.434 -50.775,-1.327 -51.094,-1.310 -51.221,-1.336 -51.323,-1.385 -51.399,-1.455 -51.471,-1.531 -51.545,-1.611 -51.956,-2.057 -52.953,-3.136 -53.880,-4.139 -54.563,-4.879 -54.821,-5.158 -55.595,-5.997 -55.756,-6.192 -55.778,-6.225 -55.910,-6.434 -56.015,-6.657 -56.092,-6.893 -56.098,-6.913 -56.143,-7.149"/>
<polygon class="node-51" points="-18.185,14.121 -18.182,13.889 -18.165,13.674 -18.133,13.478 -18.089,13.306 -18.032,13.160 -17.964,13.041 -17.678,12.885 -17.588,12.839 -17.219,12.753 -17.043,12.712 -9.923,11.068 -9.007,10.857 -8.762,10.802 -8.502,10.769 -8.240,10.769 -8.232,10.770 -7.974,10.802 -7.723,10.867 -7.481,10.962 -7.253,11.088 -7.043,11.240 -6.854,11.418 -6.688,11.618 -6.549,11.838 -6.545,11.845 -6.434,12.082 -6.353,12.330 -6.304,12.587 -6.288,12.849 -6.304,13.110 -6.307,13.125 -6.356,13.383 -6.437,13.632 -6.549,13.870 -6.689,14.091 -6.700,14.104 -6.867,14.306 -7.058,14.486 -7.271,14.640 -7.500,14.766 -7.744,14.863 -7.757,14.867 -7.964,14.922 -8.116,14.957 -9.391,15.241 -9.572,15.281 -13.349,16.122 -15.296,16.555 -15.659,16.636 -16.558,16.835 -16.755,16.877 -17.098,16.885 -17.537,16.460 -17.642,16.285 -17.743,16.087 -17.836,15.869 -17.996,15.389 -18.060,15.135 -18.111,14.876 -18.150,14.619"/>
<polygon class="node-52" points="-27.367,-8.314 -27.278,-8.553 -27.135,-8.736 -25.646,-9.184 -25.257,-9.248 -24.745,-9.324 -24.372,-9.348 -24.153,-9.324 -23.953,-9.292 -23.765,-9.255 -23.385,-9.159 -22.645,-8.971 -20.831,-8.510 -19.829,-8.255 -19.484,-8.162 -19.236,-8.063 -19.002,-7.935 -18.983,-7.922 -18.768,-7.766 -18.574,-7.584 -18.404,-7.379 -18.394,-7.363 -18.252,-7.140 -18.139,-6.900 -18.058,-6.649 -18.008,-6.389 -17.991,-6.125 -17.991,-6.125 -18.008,-5.862 -18.058,-5.602 -18.139,-5.350 -18.252,-5.111 -18.394,-4.888 -18.562,-4.684 -18.755,-4.503 -18.969,-4.348 -19.200,-4.220 -19.216,-4.214 -19.464,-4.116 -19.722,-4.050 -19.986,-4.016 -20.252,-4.016 -20.275,-4.016 -20.540,-4.050 -20.765,-4.106 -20.846,-4.128 -21.378,-4.279 -24.751,-5.236 -25.230,-5.374 -25.407,-5.452 -25.674,-5.589 -25.987,-5.823 -26.250,-6.087 -26.646,-6.647 -27.350,-8.064"/>
<polygon class="node-53" points="60.591,23.833 60.595,23.659 60.647,23.562 60.824,23.320 60.945,23.178 61.244,22.864 61.417,22.697 61.797,22.354 61.999,22.184 62.613,21.707 63.486,21.165 63.717,21.078 63.799,21.066 63.856,21.077 64.054,21.261 64.144,21.347 67.236,24.310 68.157,25.193 68.345,25.374 68.520,25.545 68.566,25.598 68.727,25.793 68.763,25.846 68.895,26.055 69.000,26.278 69.021,26.325 69.096,26.554 69.106,26.595 69.149,26.824 69.164,27.057 69.149,27.290 69.148,27.308 69.106,27.529 69.037,27.743 68.941,27.947 68.820,28.137 68.676,28.311 68.660,28.330 68.490,28.490 68.301,28.627 68.266,28.650 68.055,28.766 67.831,28.854 67.778,28.875 67.539,28.937 67.477,28.951 67.226,28.982 67.157,28.989 66.900,28.989 66.826,28.986 66.568,28.954 66.491,28.942 66.237,28.877 66.160,28.857 66.086,28.829 65.840,28.732 65.770,28.697 65.539,28.570 65.474,28.528 65.262,28.374 65.205,28.328 65.067,28.203 64.339,27.493 61.292,24.518"/>
<polygon class="node-54" points="62.180,4.631 62.180,4.187 62.572,2.910 62.777,2.333 62.865,2.229 63.114,2.173 63.739,2.034 64.115,1.951 67.543,1.190 67.672,1.161 67.869,1.118 67.942,1.107 68.207,1.074 68.284,1.071 68.552,1.071 68.629,1.076 68.895,1.110 68.969,1.123 69.228,1.190 69.298,1.211 69.544,1.309 69.608,1.337 69.837,1.462 69.892,1.496 70.100,1.647 70.145,1.684 70.328,1.856 70.362,1.894 70.518,2.083 70.649,2.290 70.666,2.321 70.767,2.536 70.840,2.762 70.885,2.995 70.900,3.232 70.900,3.235 70.900,3.235 70.885,3.463 70.885,3.468 70.840,3.701 70.767,3.927 70.666,4.142 70.539,4.342 70.518,4.374 70.362,4.562 70.328,4.594 70.145,4.766 69.942,4.914 69.892,4.947 69.667,5.071 69.608,5.099 69.365,5.196 69.298,5.218 69.039,5.285 66.846,5.739 65.192,6.081 64.435,6.237 64.182,6.288 64.059,6.312 64.053,6.311 63.902,6.278 63.536,5.998 62.255,4.889"/>
<polygon class="node-55" points="-13.498,4.375 -13.481,4.107 -13.431,3.844 -13.348,3.589 -13.345,3.580 -13.230,3.336 -13.086,3.109 -12.914,2.901 -12.718,2.717 -12.500,2.558 -12.264,2.429 -12.252,2.422 -12.001,2.323 -11.740,2.256 -11.472,2.222 -11.202,2.222 -10.935,2.256 -10.923,2.257 -10.663,2.324 -10.413,2.423 -10.178,2.553 -9.960,2.711 -9.764,2.895 -9.593,3.102 -9.449,3.329 -9.334,3.572 -9.301,3.660 -9.002,4.538 -8.529,5.926 -7.138,10.006 -6.853,10.843 -6.571,11.672 -6.454,12.015 -6.396,12.185 -6.353,12.330 -6.304,12.587 -6.288,12.849 -6.304,13.110 -6.307,13.125 -6.434,13.616 -6.448,13.646 -6.578,13.892 -6.689,14.091 -6.867,14.306 -7.074,14.492 -7.260,14.627 -7.500,14.766 -7.771,14.864 -8.051,14.896 -8.372,14.633 -10.335,12.731 -10.725,12.285 -10.889,12.025 -10.944,11.934 -11.006,11.760 -12.087,8.715 -12.515,7.512 -13.247,5.448 -13.317,5.253 -13.380,5.072 -13.431,4.906 -13.481,4.642"/>
<polygon class="node-56" points="-8.363,-18.117 -8.354,-18.381 -8.245,-19.275 -8.023,-21.087 -7.868,-22.349 -7.819,-22.600 -7.736,-22.855 -7.621,-23.098 -7.477,-23.325 -7.468,-23.339 -7.298,-23.544 -7.104,-23.727 -6.889,-23.883 -6.655,-24.012 -6.407,-24.110 -6.149,-24.176 -5.885,-24.209 -5.618,-24.209 -5.354,-24.176 -5.096,-24.110 -4.848,-24.012 -4.834,-24.004 -4.598,-23.875 -4.381,-23.717 -4.185,-23.533 -4.013,-23.325 -3.999,-23.307 -3.854,-23.079 -3.739,-22.834 -3.731,-22.810 -3.647,-22.553 -3.597,-22.287 -3.580,-22.018 -3.580,-21.993 -3.597,-21.724 -3.602,-21.687 -3.634,-21.469 -3.770,-20.559 -3.920,-19.554 -4.024,-18.857 -4.082,-18.468 -4.154,-17.986 -4.168,-17.891 -4.204,-17.690 -4.350,-17.355 -4.429,-17.187 -4.537,-17.009 -4.806,-16.668 -5.661,-15.976 -6.576,-15.263 -6.817,-15.114 -7.044,-15.352 -7.665,-16.348 -7.851,-16.667 -8.175,-17.266 -8.302,-17.676"/>
<polygon class="node-57" points="-38.783,25.279 -38.765,25.008 -38.761,24.975 -38.709,24.703 -38.623,24.440 -38.608,24.400 -38.488,24.147 -38.338,23.911 -38.311,23.870 -38.131,23.652 -38.096,23.615 -37.889,23.420 -37.822,23.367 -37.568,23.172 -36.624,22.454 -35.018,21.231 -30.305,17.642 -29.707,17.186 -28.726,16.440 -28.083,15.950 -27.929,15.863 -27.446,15.631 -26.563,15.557 -26.351,15.640 -26.141,15.749 -25.820,16.290 -25.374,17.347 -25.285,17.576 -25.025,18.428 -25.023,18.680 -25.140,18.812 -25.405,19.031 -25.732,19.300 -27.296,20.584 -28.689,21.726 -32.480,24.837 -34.964,26.875 -34.990,26.895 -35.194,27.042 -35.238,27.070 -35.486,27.207 -35.534,27.227 -35.797,27.331 -36.070,27.401 -36.117,27.411 -36.395,27.446 -36.439,27.447 -36.715,27.447 -36.989,27.412 -37.024,27.405 -37.287,27.337 -37.540,27.237 -37.778,27.106 -37.795,27.096 -38.010,26.939 -38.204,26.757 -38.373,26.552 -38.516,26.328 -38.629,26.087 -38.711,25.834 -38.715,25.817 -38.765,25.551"/>
<polygon class="node-58" points="-16.689,-4.621 -16.672,-4.897 -16.620,-5.167 -16.535,-5.430 -16.418,-5.679 -16.341,-5.806 -15.983,-6.352 -14.786,-8.165 -10.510,-14.645 -9.089,-16.798 -8.886,-17.097 -8.646,-17.408 -8.524,-17.477 -8.378,-17.524 -8.209,-17.549 -8.021,-17.550 -6.441,-16.948 -5.048,-16.322 -5.029,-15.628 -5.188,-15.095 -5.235,-14.974 -5.396,-14.719 -6.316,-13.273 -6.784,-12.537 -8.823,-9.334 -9.624,-8.075 -11.915,-4.476 -12.587,-3.420 -12.659,-3.316 -12.834,-3.104 -12.840,-3.099 -13.041,-2.910 -13.265,-2.747 -13.507,-2.614 -13.764,-2.512 -14.031,-2.444 -14.306,-2.409 -14.322,-2.407 -14.599,-2.407 -14.874,-2.442 -15.143,-2.511 -15.401,-2.613 -15.417,-2.620 -15.659,-2.754 -15.883,-2.916 -16.085,-3.106 -16.262,-3.320 -16.270,-3.331 -16.418,-3.564 -16.535,-3.813 -16.620,-4.076 -16.672,-4.346"/>
<polygon class="node-59" points="67.800,1.145 67.801,1.133 68.705,0.932 71.187,0.381 74.116,-0.269 74.455,-0.344 74.538,-0.357 74.809,-0.391 74.894,-0.396 75.169,-0.396 75.255,-0.392 75.527,-0.358 75.611,-0.345 75.693,-0.324 75.955,-0.257 76.031,-0.229 76.279,-0.130 76.347,-0.096 76.577,0.031 76.635,0.070 76.843,0.221 76.890,0.264 77.072,0.435 77.232,0.628 77.260,0.666 77.390,0.871 77.494,1.090 77.505,1.118 77.578,1.340 77.622,1.570 77.636,1.804 77.636,1.804 77.622,2.037 77.578,2.267 77.505,2.490 77.406,2.702 77.390,2.733 77.260,2.938 77.106,3.125 77.072,3.165 76.890,3.336 76.843,3.375 76.635,3.526 76.577,3.562 76.347,3.688 76.279,3.719 76.031,3.817 75.955,3.842 75.693,3.909 75.279,3.996 73.125,4.441 69.299,5.232 69.169,5.259 69.037,5.283 69.001,5.194 68.826,4.658 68.765,4.462 68.627,4.017 68.045,2.053 67.987,1.848 67.935,1.665 67.855,1.371"/>
<polygon class="node-60" points="-21.608,-5.674 -21.603,-5.938 -21.504,-6.879 -21.393,-7.122 -21.262,-7.350 -21.113,-7.557 -20.949,-7.741 -20.772,-7.900 -20.394,-8.129 -19.985,-8.191 -19.790,-8.209 -19.600,-8.193 -19.161,-8.085 -18.979,-8.039 -17.403,-7.638 -16.488,-7.405 -15.923,-7.261 -15.481,-7.148 -15.303,-7.064 -15.146,-6.953 -13.525,-4.982 -12.965,-4.238 -12.570,-3.564 -12.851,-3.100 -13.053,-2.910 -13.497,-2.623 -14.290,-2.419 -14.726,-2.452 -15.083,-2.498 -15.274,-2.547 -15.747,-2.681 -16.799,-2.979 -17.380,-3.144 -20.513,-4.033 -20.648,-4.072 -20.824,-4.145 -21.171,-4.342 -21.538,-4.863 -21.588,-5.418"/>
<polygon class="node-61" points="19.354,-19.796 19.385,-20.019 19.538,-20.427 19.671,-20.624 20.087,-21.175 22.208,-23.981 22.237,-24.018 22.415,-24.234 22.619,-24.425 22.648,-24.450 22.874,-24.614 23.119,-24.749 23.151,-24.766 23.410,-24.868 23.679,-24.937 23.710,-24.944 23.984,-24.979 24.259,-24.979 24.285,-24.977 24.555,-24.943 24.819,-24.875 25.071,-24.775 25.310,-24.644 25.317,-24.639 25.534,-24.482 25.729,-24.299 25.899,-24.092 26.042,-23.867 26.047,-23.859 26.163,-23.613 26.247,-23.354 26.298,-23.087 26.315,-22.815 26.316,-22.789 26.298,-22.514 26.247,-22.244 26.238,-22.212 26.152,-21.948 26.033,-21.697 26.015,-21.665 25.865,-21.429 25.756,-21.294 25.597,-21.101 25.188,-20.613 23.571,-18.684 23.096,-18.118 22.973,-17.975 22.812,-17.830 22.521,-17.617 22.312,-17.531 21.851,-17.443 21.356,-17.473 20.737,-17.764 20.505,-17.898 20.288,-18.055 19.813,-18.422 19.665,-18.637 19.450,-19.095 19.387,-19.330 19.355,-19.565"/>
<polygon class="node-62" points="-16.220,-3.052 -15.881,-4.834 -15.853,-4.982 -15.661,-5.390 -15.455,-5.610 -15.333,-5.698 -14.646,-5.643 -14.526,-5.628 -12.037,-4.318 -11.991,-4.229 -11.926,-4.039 -11.862,-3.851 -11.607,-3.105 -10.993,-1.304 -9.776,2.267 -9.538,2.964 -9.364,3.477 -9.344,3.567 -9.332,3.931 -9.404,4.046 -10.415,4.780 -11.167,5.088 -11.429,5.170 -12.189,5.333 -13.243,5.242 -13.397,4.987 -13.440,4.906 -13.563,4.561 -15.330,-0.415 -16.171,-2.783 -16.208,-2.916"/>
<polygon class="node-63" points="-7.877,-22.266 -7.843,-22.551 -7.831,-22.650 -7.745,-23.358 -7.475,-25.570 -7.289,-27.088 -7.263,-27.298 -7.224,-27.618 -7.217,-27.667 -7.165,-27.939 -7.079,-28.203 -6.961,-28.455 -6.949,-28.477 -6.802,-28.709 -6.627,-28.921 -6.426,-29.110 -6.414,-29.119 -6.194,-29.279 -5.956,-29.410 -5.703,-29.510 -5.440,-29.577 -5.171,-29.612 -4.899,-29.612 -4.630,-29.577 -4.366,-29.510 -4.352,-29.505 -4.096,-29.404 -3.855,-29.271 -3.632,-29.110 -3.614,-29.093 -3.412,-28.903 -3.235,-28.689 -3.086,-28.455 -3.071,-28.428 -2.952,-28.176 -2.866,-27.910 -2.859,-27.879 -2.806,-27.605 -2.789,-27.326 -2.790,-27.294 -2.807,-27.017 -2.829,-26.866 -2.878,-26.538 -3.007,-25.671 -3.464,-22.608 -3.589,-21.770 -3.611,-21.634 -3.741,-21.379 -3.997,-21.164 -4.168,-21.075 -4.364,-21.000 -4.821,-20.901 -5.073,-20.878 -5.880,-20.917 -6.666,-21.113 -7.317,-21.436 -7.487,-21.565 -7.629,-21.700 -7.740,-21.840 -7.819,-21.983 -7.865,-22.125"/>
<polygon class="node-64" points="-49.546,28.597 -49.530,28.336 -49.481,28.080 -49.473,28.037 -49.390,27.783 -49.371,27.738 -49.255,27.492 -49.110,27.263 -49.079,27.214 -48.903,27.002 -48.863,26.956 -48.661,26.766 -48.613,26.725 -48.387,26.561 -48.333,26.526 -48.089,26.392 -48.031,26.365 -47.773,26.263 -47.413,26.151 -47.286,26.112 -46.761,25.950 -42.408,24.607 -42.140,24.540 -42.088,24.533 -41.814,24.498 -41.539,24.498 -41.493,24.501 -41.224,24.535 -40.961,24.603 -40.927,24.612 -40.680,24.710 -40.447,24.838 -40.428,24.851 -40.217,25.004 -40.028,25.182 -39.862,25.382 -39.723,25.601 -39.612,25.837 -39.532,26.084 -39.483,26.339 -39.480,26.362 -39.463,26.628 -39.480,26.893 -39.485,26.928 -39.536,27.195 -39.620,27.453 -39.637,27.496 -39.754,27.745 -39.781,27.788 -39.930,28.023 -40.108,28.238 -40.145,28.280 -40.349,28.472 -40.394,28.509 -40.622,28.674 -40.672,28.704 -40.918,28.839 -40.972,28.861 -41.232,28.964 -41.411,29.018 -42.032,29.205 -43.113,29.530 -43.646,29.690 -45.454,30.234 -45.874,30.360 -46.670,30.598 -46.897,30.652 -47.170,30.686 -47.226,30.690 -47.497,30.690 -47.548,30.686 -47.813,30.652 -48.071,30.586 -48.109,30.575 -48.352,30.478 -48.581,30.353 -48.603,30.338 -48.809,30.189 -48.995,30.014 -49.157,29.818 -49.293,29.604 -49.402,29.373 -49.480,29.131 -49.528,28.882 -49.530,28.857"/>
<polygon class="node-65" points="-43.183,26.206 -43.172,25.938 -42.919,25.050 -42.810,24.891 -42.499,24.669 -42.355,24.593 -42.077,24.505 -41.868,24.440 -40.584,24.044 -38.857,23.511 -37.653,23.140 -37.561,23.112 -37.504,23.098 -37.410,23.101 -36.614,23.366 -35.563,24.230 -35.093,24.733 -34.739,25.362 -34.648,26.311 -34.964,26.875 -35.008,26.903 -35.486,27.207 -35.534,27.227 -35.846,27.342 -35.982,27.386 -37.472,27.834 -39.029,28.303 -40.613,28.779 -41.110,28.927 -41.225,28.961 -41.385,28.979 -41.729,28.975 -41.899,28.908 -42.219,28.546 -42.374,28.364 -42.519,28.155 -42.651,27.924 -42.768,27.673 -42.869,27.408 -42.950,27.132"/>
<polygon class="node-66" points="-18.761,-5.255 -18.761,-5.261 -18.743,-5.548 -18.689,-5.831 -18.600,-6.104 -18.477,-6.364 -18.323,-6.607 -18.320,-6.612 -18.135,-6.836 -17.924,-7.034 -17.689,-7.205 -17.435,-7.345 -17.165,-7.451 -16.884,-7.524 -16.866,-7.528 -16.577,-7.564 -16.286,-7.564 -15.997,-7.528 -15.976,-7.523 -15.843,-7.493 -15.694,-7.451 -15.578,-7.410 -14.147,-6.857 -13.925,-6.760 -13.694,-6.624 -13.482,-6.458 -13.310,-6.312 -13.031,-5.983 -12.796,-5.569 -12.704,-5.383 -12.612,-5.117 -12.549,-4.839 -12.489,-4.479 -12.566,-4.232 -12.665,-4.013 -12.853,-3.750 -13.080,-3.438 -13.361,-3.157 -13.724,-2.895 -14.072,-2.729 -14.326,-2.629 -14.590,-2.563 -14.858,-2.532 -15.127,-2.536 -15.275,-2.550 -15.392,-2.575 -15.495,-2.600 -15.741,-2.665 -16.065,-2.750 -16.267,-2.803 -16.596,-2.889 -16.980,-2.990 -16.999,-2.996 -17.148,-3.041 -17.244,-3.075 -17.419,-3.149 -17.675,-3.289 -17.911,-3.460 -18.123,-3.660 -18.135,-3.674 -18.320,-3.897 -18.475,-4.142 -18.599,-4.405 -18.688,-4.680 -18.743,-4.965"/>
<polygon class="node-67" points="-38.088,26.796 -37.593,23.949 -37.357,23.460 -36.865,23.366 -36.614,23.366 -34.212,24.667 -33.816,25.083 -33.739,25.218 -33.699,25.295 -33.603,25.499 -33.508,25.702 -33.361,26.020 -32.562,27.751 -31.752,29.505 -31.702,29.621 -31.618,29.881 -31.566,30.150 -31.563,30.180 -31.545,30.458 -31.563,30.736 -31.569,30.776 -31.622,31.054 -31.709,31.324 -31.726,31.369 -31.848,31.628 -31.874,31.673 -32.029,31.916 -32.213,32.138 -32.248,32.180 -32.459,32.378 -32.501,32.414 -32.735,32.584 -32.782,32.611 -33.034,32.750 -33.301,32.856 -33.348,32.874 -33.624,32.945 -33.670,32.952 -33.949,32.988 -34.231,32.988 -34.268,32.986 -34.543,32.951 -34.811,32.882 -34.835,32.873 -35.087,32.773 -35.325,32.643 -35.544,32.483 -35.741,32.298 -35.914,32.089 -36.059,31.861 -36.130,31.716 -36.195,31.574 -36.394,31.125 -37.283,29.124 -37.966,27.586 -38.033,27.380 -38.061,27.161 -38.083,26.984"/>
<polygon class="node-68" points="-40.588,21.866 -40.570,21.584 -40.517,21.307 -40.509,21.271 -40.420,20.998 -40.298,20.738 -40.278,20.697 -40.122,20.451 -40.092,20.413 -39.904,20.187 -39.690,19.986 -39.651,19.950 -39.412,19.777 -39.366,19.749 -39.107,19.607 -39.057,19.587 -38.784,19.478 -38.499,19.405 -38.449,19.395 -38.159,19.358 -38.111,19.358 -37.823,19.358 -37.536,19.394 -37.497,19.402 -37.221,19.473 -36.957,19.578 -36.931,19.592 -36.686,19.726 -36.461,19.890 -36.257,20.081 -36.079,20.296 -35.930,20.532 -35.828,20.742 -35.715,20.981 -35.615,21.192 -35.307,21.846 -34.630,23.286 -34.567,23.428 -34.526,23.520 -34.426,23.841 -34.372,24.145 -34.362,24.505 -34.437,24.639 -34.553,24.821 -34.687,24.967 -34.848,25.112 -35.514,25.617 -36.602,26.175 -37.416,26.416 -37.690,26.448 -37.948,26.439 -38.150,26.406 -38.396,26.215 -38.592,26.018 -38.769,25.800 -38.892,25.612 -38.966,25.482 -39.164,25.111 -39.197,25.048 -40.321,22.937 -40.430,22.702 -40.516,22.439 -40.568,22.167 -40.570,22.148"/>
<polygon class="node-69" points="-36.131,31.505 -36.071,31.392 -34.804,30.358 -34.537,30.206 -34.260,30.060 -33.697,29.798 -32.443,29.399 -31.951,29.382 -31.777,29.466 -31.720,29.584 -31.642,29.747 -31.601,29.831 -31.341,30.395 -31.136,30.839 -30.570,32.065 -29.631,34.098 -29.526,34.324 -29.474,34.437 -29.204,35.023 -29.150,35.140 -29.105,35.246 -29.019,35.511 -28.967,35.784 -28.960,35.821 -28.942,36.105 -28.945,36.148 -28.963,36.436 -29.017,36.719 -29.030,36.769 -29.120,37.047 -29.143,37.097 -29.268,37.363 -29.425,37.611 -29.458,37.660 -29.645,37.887 -29.685,37.930 -29.900,38.132 -29.945,38.168 -30.183,38.340 -30.232,38.367 -30.486,38.507 -30.757,38.614 -30.804,38.630 -31.081,38.702 -31.366,38.738 -31.406,38.742 -31.688,38.742 -31.968,38.707 -31.995,38.703 -32.263,38.634 -32.519,38.532 -32.761,38.399 -32.984,38.237 -33.186,38.048 -33.362,37.836 -33.509,37.603 -33.592,37.436 -33.749,37.082 -36.041,31.921 -36.098,31.791"/>
<polygon class="node-70" points="-21.063,-5.965 -21.044,-6.268 -20.987,-6.566 -20.893,-6.855 -20.764,-7.129 -20.601,-7.385 -20.408,-7.619 -20.187,-7.826 -20.177,-7.835 -19.929,-8.015 -19.661,-8.162 -19.376,-8.275 -19.080,-8.351 -19.058,-8.355 -18.753,-8.393 -18.446,-8.393 -18.141,-8.355 -17.901,-8.297 -17.819,-8.272 -17.618,-8.199 -16.062,-7.597 -15.740,-7.472 -15.582,-7.411 -15.332,-7.289 -15.048,-7.111 -14.838,-6.926 -14.652,-6.714 -14.541,-6.506 -14.412,-6.252 -14.272,-5.953 -14.210,-5.670 -14.184,-5.381 -14.192,-5.090 -14.426,-4.248 -14.569,-3.993 -14.741,-3.758 -15.160,-3.362 -15.402,-3.207 -15.927,-2.997 -16.203,-2.944 -16.509,-2.938 -16.760,-2.948 -17.032,-3.004 -17.060,-3.011 -18.924,-3.501 -19.060,-3.537 -19.251,-3.588 -19.356,-3.622 -19.525,-3.686 -19.642,-3.735 -19.911,-3.883 -20.160,-4.064 -20.384,-4.274 -20.400,-4.290 -20.595,-4.526 -20.759,-4.784 -20.889,-5.061 -20.983,-5.352 -20.987,-5.365 -21.044,-5.663"/>
<polygon class="node-71" points="-42.542,18.172 -42.523,17.878 -42.468,17.589 -42.377,17.310 -42.365,17.272 -42.238,17.002 -42.214,16.964 -42.052,16.708 -41.859,16.475 -41.823,16.437 -41.600,16.228 -41.353,16.049 -41.308,16.016 -41.039,15.868 -40.988,15.843 -40.703,15.730 -40.649,15.715 -40.352,15.638 -40.049,15.600 -39.997,15.595 -39.693,15.595 -39.644,15.599 -39.346,15.637 -39.055,15.711 -39.016,15.723 -38.741,15.832 -38.482,15.975 -38.457,15.992 -38.222,16.162 -38.011,16.361 -37.826,16.585 -37.670,16.830 -37.623,16.919 -37.410,17.372 -37.032,18.176 -36.232,19.879 -35.975,20.424 -35.893,20.602 -35.803,20.816 -35.749,21.045 -35.751,21.534 -35.808,21.786 -35.902,22.038 -36.194,22.527 -36.854,23.162 -37.696,23.598 -38.300,23.745 -38.600,23.770 -39.171,23.724 -39.433,23.653 -39.674,23.551 -40.077,23.227 -40.229,23.082 -40.350,22.880 -40.366,22.852 -40.478,22.642 -40.933,21.787 -41.318,21.064 -42.032,19.722 -42.227,19.355 -42.302,19.211 -42.380,19.037 -42.469,18.764 -42.523,18.481 -42.541,18.194"/>
</svg>