<?xml version="1.0" encoding="UTF-8"?>
<svg xmlns="http://www.w3.org/2000/svg" viewBox="-11.315 -7.545 23.179 16.192">
<defs>
<style>
.node-0{fill:#ffffff;stroke:#000000;stroke-width:0.050px;opacity:1.0;}
.node-1{fill:#ffffff;stroke:#000000;stroke-width:0.050px;opacity:1.0;}
.node-2{fill:#ffffff;stroke:#000000;stroke-width:0.050px;opacity:1.0;}
.node-3{fill:#ffffff;stroke:#000000;stroke-width:0.050px;opacity:1.0;}
.node-4{fill:#ffffff;stroke:#000000;stroke-width:0.050px;opacity:1.0;}
.node-5{fill:#ffffff;stroke:#000000;stroke-width:0.050px;opacity:1.0;}
.node-6{fill:#ff0000;stroke:#000000;stroke-width:0.050px;opacity:1.0;}
.node-7{fill:#ffffff;stroke:#000000;stroke-width:0.050px;opacity:1.0;}
.node-8{fill:#505050;stroke:#000000;stroke-width:0.050px;opacity:1.0;}
.node-9{fill:#505050;stroke:#000000;stroke-width:0.050px;opacity:1.0;}
.node-10{fill:#ff0000;stroke:#000000;stroke-width:0.050px;opacity:1.0;}
.node-11{fill:#505050;stroke:#000000;stroke-width:0.050px;opacity:1.0;}
.node-12{fill:#ffffff;stroke:#000000;stroke-width:0.050px;opacity:1.0;}
.node-13{fill:#ffffff;stroke:#000000;stroke-width:0.050px;opacity:1.0;}
.node-14{fill:#ffffff;stroke:#000000;stroke-width:0.050px;opacity:1.0;}
.node-15{fill:#505050;stroke:#000000;stroke-width:0.050px;opacity:1.0;}
.node-16{fill:#505050;stroke:#000000;stroke-width:0.050px;opacity:1.0;}
.node-17{fill:#505050;stroke:#000000;stroke-width:0.050px;opacity:1.0;}
.node-18{fill:#0000ff;stroke:#000000;stroke-width:0.050px;opacity:1.0;}
.node-19{fill:#505050;stroke:#000000;stroke-width:0.050px;opacity:1.0;}
.node-20{fill:#505050;stroke:#000000;stroke-width:0.050px;opacity:1.0;}
.node-21{fill:#505050;stroke:#000000;stroke-width:0.050px;opacity:1.0;}
.node-22{fill:#505050;stroke:#000000;stroke-width:0.050px;opacity:1.0;}
.node-23{fill:#505050;stroke:#000000;stroke-width:0.050px;opacity:1.0;}
.node-24{fill:#505050;stroke:#000000;stroke-width:0.050px;opacity:1.0;}
.node-25{fill:#0000ff;stroke:#000000;stroke-width:0.050px;opacity:1.0;}
.node-26{fill:#ffffff;stroke:#000000;stroke-width:0.050px;opacity:1.0;}
.node-27{fill:#505050;stroke:#000000;stroke-width:0.050px;opacity:1.0;}
.node-28{fill:#ffff00;stroke:#000000;stroke-width:0.050px;opacity:1.0;}
.node-29{fill:#505050;stroke:#000000;stroke-width:0.050px;opacity:1.0;}
.node-30{fill:#ffffff;stroke:#000000;stroke-width:0.050px;opacity:1.0;}
.node-31{fill:#ff0000;stroke:#000000;stroke-width:0.050px;opacity:1.0;}
.node-32{fill:#ffffff;stroke:#000000;stroke-width:0.050px;opacity:1.0;}
.node-33{fill:#505050;stroke:#000000;stroke-width:0.050px;opacity:1.0;}
.node-34{fill:#ffffff;stroke:#000000;stroke-width:0.050px;opacity:1.0;}
.node-35{fill:#ffffff;stroke:#000000;stroke-width:0.050px;opacity:1.0;}
.node-36{fill:#ff0000;stroke:#000000;stroke-width:0.050px;opacity:1.0;}
.node-37{fill:#505050;stroke:#000000;stroke-width:0.050px;opacity:1.0;}
.node-38{fill:#ffffff;stroke:#000000;stroke-width:0.050px;opacity:1.0;}
.node-39{fill:#ffffff;stroke:#000000;stroke-width:0.050px;opacity:1.0;}
.node-40{fill:#ffffff;stroke:#000000;stroke-width:0.050px;opacity:1.0;}
</style>

</defs>
<circle class="node-0" cx="-2.084" cy="2.378" r="1.200"/>
<circle class="node-1" cx="2.423" cy="-0.965" r="1.200"/>
<circle class="node-2" cx="-2.996" cy="0.193" r="1.200"/>
<polygon class="node-3" points="-0.764,-1.011 -0.761,-1.087 -0.754,-1.162 -0.742,-1.236 -0.726,-1.310 -0.705,-1.382 -0.679,-1.453 -0.649,-1.522 -0.615,-1.589 -0.577,-1.654 -0.534,-1.716 -0.488,-1.776 -0.438,-1.832 -0.385,-1.886 -0.329,-1.935 -0.269,-1.982 -0.207,-2.024 -0.142,-2.062 -0.075,-2.097 -0.006,-2.126 0.065,-2.152 0.138,-2.173 0.211,-2.189 0.286,-2.201 0.361,-2.208 0.436,-2.211 0.511,-2.208 0.586,-2.201 0.661,-2.189 0.734,-2.173 0.807,-2.152 0.877,-2.126 0.947,-2.097 1.014,-2.062 1.079,-2.024 1.141,-1.982 1.200,-1.935 1.257,-1.886 1.310,-1.832 1.360,-1.776 1.406,-1.716 1.449,-1.654 1.487,-1.589 1.521,-1.522 1.549,-1.452 1.568,-1.379 1.584,-1.306 1.594,-1.232 1.605,-1.085 1.607,-1.011 1.605,-0.938 1.598,-0.865 1.578,-0.718 1.563,-0.645 1.547,-0.572 1.521,-0.501 1.487,-0.433 1.449,-0.369 1.406,-0.306 1.360,-0.247 1.310,-0.190 1.257,-0.137 1.200,-0.087 1.141,-0.041 1.079,0.001 1.014,0.040 0.947,0.074 0.877,0.104 0.807,0.129 0.734,0.150 0.661,0.167 0.586,0.179 0.511,0.186 0.436,0.188 0.361,0.186 0.286,0.179 0.211,0.167 0.138,0.150 0.065,0.129 -0.006,0.104 -0.075,0.074 -0.142,0.040 -0.207,0.001 -0.269,-0.041 -0.329,-0.087 -0.385,-0.137 -0.438,-0.190 -0.488,-0.247 -0.534,-0.306 -0.577,-0.369 -0.615,-0.433 -0.649,-0.501 -0.679,-0.570 -0.705,-0.641 -0.726,-0.713 -0.742,-0.787 -0.754,-0.861 -0.761,-0.936"/>
<circle class="node-4" cx="2.644" cy="1.421" r="1.200"/>
<polygon class="node-5" points="-4.800,3.012 -4.798,2.937 -4.791,2.862 -4.779,2.787 -4.763,2.714 -4.742,2.641 -4.716,2.570 -4.686,2.501 -4.652,2.434 -4.613,2.369 -4.571,2.307 -4.525,2.247 -4.475,2.191 -4.422,2.138 -4.365,2.088 -4.306,2.042 -4.243,1.999 -4.179,1.961 -4.111,1.927 -4.042,1.897 -3.971,1.871 -3.899,1.850 -3.826,1.834 -3.751,1.822 -3.676,1.815 -3.601,1.812 -3.525,1.815 -3.450,1.822 -3.376,1.834 -3.303,1.850 -3.230,1.871 -3.159,1.897 -3.090,1.927 -3.023,1.961 -2.961,2.003 -2.904,2.053 -2.805,2.165 -2.721,2.284 -2.687,2.348 -2.623,2.474 -2.591,2.537 -2.563,2.601 -2.540,2.667 -2.492,2.800 -2.462,2.940 -2.432,3.085 -2.431,3.160 -2.431,3.235 -2.439,3.310 -2.460,3.383 -2.486,3.453 -2.516,3.523 -2.550,3.590 -2.588,3.655 -2.630,3.717 -2.677,3.776 -2.726,3.833 -2.780,3.886 -2.836,3.936 -2.896,3.982 -2.958,4.025 -3.023,4.063 -3.090,4.097 -3.159,4.127 -3.230,4.153 -3.303,4.174 -3.376,4.190 -3.450,4.202 -3.525,4.209 -3.601,4.211 -3.676,4.209 -3.751,4.202 -3.826,4.190 -3.899,4.174 -3.971,4.153 -4.042,4.127 -4.111,4.097 -4.179,4.063 -4.243,4.025 -4.306,3.982 -4.365,3.936 -4.422,3.886 -4.475,3.833 -4.525,3.776 -4.571,3.717 -4.613,3.655 -4.652,3.590 -4.686,3.523 -4.716,3.453 -4.742,3.383 -4.763,3.310 -4.779,3.237 -4.791,3.162 -4.798,3.087"/>
<circle class="node-6" cx="-2.284" cy="-2.545" r="1.520"/>
<polygon class="node-7" points="2.246,-2.189 2.248,-2.264 2.255,-2.339 2.267,-2.414 2.284,-2.487 2.305,-2.560 2.330,-2.631 2.360,-2.700 2.394,-2.767 2.433,-2.832 2.475,-2.894 2.521,-2.954 2.571,-3.010 2.624,-3.063 2.681,-3.113 2.740,-3.159 2.803,-3.202 2.867,-3.240 2.935,-3.274 3.004,-3.304 3.075,-3.330 3.147,-3.351 3.221,-3.367 3.295,-3.379 3.370,-3.386 3.445,-3.389 3.521,-3.386 3.596,-3.379 3.670,-3.367 3.744,-3.351 3.816,-3.330 3.887,-3.304 3.956,-3.274 4.023,-3.240 4.088,-3.202 4.150,-3.159 4.210,-3.113 4.266,-3.063 4.320,-3.010 4.369,-2.954 4.416,-2.894 4.458,-2.832 4.496,-2.767 4.531,-2.700 4.560,-2.631 4.586,-2.560 4.607,-2.487 4.623,-2.414 4.635,-2.339 4.642,-2.264 4.645,-2.189 4.642,-2.114 4.635,-2.039 4.623,-1.964 4.607,-1.891 4.586,-1.818 4.560,-1.748 4.531,-1.678 4.496,-1.611 4.458,-1.546 4.416,-1.484 4.369,-1.425 4.320,-1.368 4.266,-1.315 4.210,-1.265 4.150,-1.219 4.088,-1.176 4.023,-1.138 3.956,-1.104 3.887,-1.074 3.816,-1.048 3.744,-1.027 3.670,-1.011 3.596,-0.999 3.521,-0.992 3.445,-0.990 3.370,-0.992 3.296,-1.008 3.224,-1.031 3.154,-1.055 3.086,-1.084 3.021,-1.118 2.959,-1.156 2.840,-1.236 2.782,-1.276 2.726,-1.319 2.672,-1.366 2.622,-1.416 2.522,-1.518 2.472,-1.572 2.427,-1.629 2.386,-1.690 2.349,-1.755 2.313,-1.821 2.285,-1.891 2.267,-1.964 2.255,-2.039 2.248,-2.114"/>
<polygon class="node-8" points="-4.130,2.227 -4.120,2.121 -4.108,2.011 -4.067,1.912 -4.012,1.820 -3.952,1.732 -3.887,1.648 -3.816,1.568 -3.741,1.492 -3.661,1.421 -3.576,1.356 -3.488,1.296 -3.396,1.242 -3.298,1.200 -3.198,1.163 -3.096,1.134 -2.890,1.091 -2.786,1.075 -2.577,1.052 -2.471,1.048 -2.364,1.048 -2.259,1.061 -2.154,1.085 -2.052,1.115 -1.951,1.151 -1.853,1.193 -1.758,1.242 -1.666,1.296 -1.578,1.356 -1.493,1.421 -1.413,1.492 -1.338,1.568 -1.267,1.648 -1.202,1.732 -1.142,1.820 -1.087,1.912 -1.039,2.007 -0.996,2.105 -0.960,2.206 -0.931,2.309 -0.907,2.413 -0.891,2.518 -0.880,2.625 -0.877,2.731 -0.880,2.838 -0.891,2.944 -0.907,3.050 -0.931,3.154 -0.960,3.257 -0.996,3.357 -1.039,3.455 -1.087,3.550 -1.142,3.642 -1.202,3.731 -1.267,3.815 -1.338,3.895 -1.413,3.971 -1.493,4.041 -1.578,4.107 -1.666,4.167 -1.758,4.221 -1.853,4.270 -1.951,4.312 -2.052,4.348 -2.154,4.378 -2.259,4.401 -2.364,4.418 -2.470,4.428 -2.577,4.431 -2.684,4.428 -2.790,4.418 -2.896,4.401 -3.000,4.378 -3.102,4.348 -3.203,4.312 -3.301,4.270 -3.396,4.221 -3.488,4.166 -3.564,4.090 -3.627,4.000 -3.684,3.910 -3.729,3.813 -3.883,3.449 -3.969,3.183 -3.994,3.095 -4.014,3.005 -4.089,2.636 -4.103,2.539 -4.126,2.334"/>
<polygon class="node-9" points="1.268,-1.472 1.276,-1.683 1.286,-1.791 1.321,-1.891 1.364,-1.989 1.412,-2.084 1.467,-2.176 1.527,-2.265 1.592,-2.349 1.663,-2.429 1.738,-2.505 1.818,-2.575 1.903,-2.641 1.991,-2.701 2.083,-2.755 2.178,-2.804 2.276,-2.846 2.377,-2.882 2.479,-2.912 2.585,-2.928 2.694,-2.911 2.800,-2.879 2.902,-2.846 3.092,-2.768 3.354,-2.657 3.593,-2.523 3.671,-2.477 3.904,-2.332 4.219,-2.101 4.445,-1.876 4.512,-1.788 4.549,-1.688 4.572,-1.584 4.589,-1.479 4.599,-1.372 4.602,-1.266 4.599,-1.159 4.589,-1.052 4.572,-0.947 4.549,-0.843 4.519,-0.740 4.483,-0.640 4.440,-0.542 4.392,-0.447 4.337,-0.355 4.277,-0.266 4.212,-0.182 4.141,-0.102 4.066,-0.026 3.986,0.044 3.901,0.110 3.813,0.170 3.721,0.224 3.626,0.273 3.528,0.315 3.427,0.351 3.325,0.381 3.221,0.404 3.114,0.414 3.007,0.410 2.797,0.401 2.693,0.391 2.484,0.361 2.379,0.344 2.276,0.315 2.178,0.273 2.083,0.224 1.991,0.170 1.903,0.110 1.818,0.044 1.738,-0.026 1.663,-0.102 1.592,-0.182 1.527,-0.266 1.467,-0.355 1.415,-0.448 1.383,-0.551 1.359,-0.655 1.298,-1.063 1.288,-1.164 1.273,-1.368"/>
<polygon class="node-10" points="-6.872,1.076 -6.869,0.981 -6.860,0.885 -6.845,0.791 -6.824,0.698 -6.797,0.606 -6.765,0.516 -6.727,0.429 -6.684,0.344 -6.635,0.262 -6.581,0.183 -6.523,0.107 -6.460,0.035 -6.392,-0.032 -6.321,-0.095 -6.245,-0.154 -6.166,-0.207 -6.084,-0.256 -5.999,-0.299 -5.911,-0.337 -5.821,-0.370 -5.730,-0.396 -5.637,-0.417 -5.542,-0.432 -5.447,-0.441 -5.352,-0.444 -5.256,-0.441 -5.161,-0.432 -5.067,-0.417 -4.974,-0.396 -4.882,-0.370 -4.792,-0.337 -4.705,-0.299 -4.619,-0.256 -4.537,-0.207 -4.458,-0.154 -4.383,-0.095 -4.311,-0.032 -4.244,0.035 -4.181,0.107 -4.122,0.183 -4.068,0.262 -4.020,0.344 -3.977,0.429 -3.939,0.517 -3.907,0.607 -3.879,0.698 -3.859,0.791 -3.844,0.885 -3.835,0.981 -3.832,1.076 -3.835,1.171 -3.844,1.267 -3.859,1.361 -3.879,1.454 -3.906,1.546 -3.938,1.636 -3.976,1.723 -4.020,1.808 -4.068,1.890 -4.122,1.969 -4.181,2.045 -4.244,2.116 -4.313,2.182 -4.385,2.245 -4.459,2.305 -4.537,2.359 -4.619,2.408 -4.705,2.451 -4.792,2.489 -4.882,2.522 -4.974,2.548 -5.067,2.569 -5.161,2.584 -5.256,2.593 -5.352,2.596 -5.447,2.593 -5.542,2.584 -5.637,2.569 -5.730,2.548 -5.821,2.522 -5.911,2.489 -5.999,2.451 -6.084,2.408 -6.166,2.359 -6.245,2.306 -6.321,2.247 -6.392,2.184 -6.460,2.117 -6.523,2.045 -6.581,1.969 -6.635,1.890 -6.684,1.808 -6.727,1.723 -6.765,1.636 -6.797,1.546 -6.824,1.454 -6.845,1.361 -6.860,1.267 -6.869,1.171"/>
<polygon class="node-11" points="1.910,0.928 1.918,0.823 1.928,0.716 1.953,0.613 1.986,0.511 2.029,0.413 2.077,0.318 2.134,0.228 2.349,0.130 2.741,-0.000 2.995,-0.078 3.399,-0.195 3.567,-0.238 3.841,-0.300 4.049,-0.347 4.162,-0.366 4.282,-0.382 4.386,-0.352 4.478,-0.298 4.566,-0.238 4.651,-0.173 4.731,-0.102 4.806,-0.026 4.877,0.054 4.942,0.138 5.002,0.226 5.057,0.318 5.105,0.413 5.148,0.511 5.184,0.612 5.214,0.715 5.237,0.819 5.254,0.924 5.264,1.031 5.267,1.137 5.264,1.244 5.254,1.350 5.237,1.456 5.214,1.560 5.184,1.663 5.148,1.763 5.105,1.861 5.057,1.956 5.002,2.048 4.942,2.137 4.877,2.221 4.806,2.301 4.731,2.377 4.651,2.447 4.566,2.513 4.478,2.573 4.386,2.627 4.291,2.676 4.193,2.718 4.092,2.754 3.990,2.784 3.886,2.807 3.780,2.824 3.674,2.834 3.567,2.837 3.460,2.834 3.354,2.824 3.248,2.807 3.144,2.784 3.042,2.754 2.941,2.718 2.843,2.676 2.748,2.627 2.656,2.573 2.568,2.513 2.486,2.445 2.412,2.367 2.350,2.280 2.289,2.195 2.235,2.105 2.136,1.924 2.064,1.732 2.029,1.637 2.001,1.539 1.979,1.440 1.938,1.240 1.920,1.137 1.911,1.033"/>
<polygon class="node-12" points="-3.067,4.282 -3.044,4.184 -2.983,4.078 -2.904,3.978 -2.821,3.892 -2.750,3.822 -2.607,3.715 -2.391,3.563 -2.278,3.493 -2.083,3.385 -1.766,3.233 -1.434,3.123 -1.319,3.103 -1.195,3.093 -1.066,3.097 -0.989,3.140 -0.951,3.205 -0.925,3.276 -0.904,3.348 -0.888,3.422 -0.876,3.496 -0.869,3.571 -0.867,3.647 -0.869,3.722 -0.876,3.797 -0.888,3.872 -0.904,3.945 -0.925,4.018 -0.951,4.088 -0.981,4.158 -1.015,4.225 -1.053,4.290 -1.096,4.352 -1.142,4.412 -1.192,4.468 -1.245,4.521 -1.302,4.571 -1.361,4.618 -1.424,4.660 -1.488,4.698 -1.556,4.732 -1.625,4.762 -1.696,4.788 -1.768,4.809 -1.842,4.825 -1.916,4.837 -1.991,4.844 -2.067,4.847 -2.142,4.844 -2.217,4.837 -2.291,4.825 -2.365,4.809 -2.437,4.788 -2.508,4.762 -2.578,4.732 -2.645,4.698 -2.710,4.660 -2.772,4.618 -2.832,4.571 -2.888,4.521 -2.941,4.468 -2.991,4.412 -3.037,4.352"/>
<polygon class="node-13" points="-7.515,0.976 -7.513,0.901 -7.506,0.826 -7.494,0.751 -7.477,0.678 -7.456,0.605 -7.431,0.534 -7.401,0.465 -7.367,0.398 -7.328,0.333 -7.286,0.271 -7.240,0.211 -7.190,0.155 -7.136,0.101 -7.080,0.052 -7.020,0.005 -6.958,-0.037 -6.893,-0.075 -6.826,-0.110 -6.757,-0.140 -6.686,-0.165 -6.613,-0.186 -6.540,-0.203 -6.465,-0.214 -6.390,-0.221 -6.315,-0.224 -6.240,-0.221 -6.165,-0.214 -6.099,-0.156 -6.063,-0.005 -6.044,0.292 -6.056,0.663 -6.063,0.816 -6.094,1.116 -6.116,1.289 -6.163,1.568 -6.183,1.669 -6.212,1.791 -6.254,1.945 -6.315,2.092 -6.390,2.173 -6.465,2.167 -6.540,2.155 -6.613,2.138 -6.686,2.117 -6.757,2.092 -6.826,2.062 -6.893,2.028 -6.958,1.989 -7.020,1.947 -7.080,1.901 -7.136,1.851 -7.190,1.798 -7.240,1.741 -7.286,1.682 -7.328,1.619 -7.367,1.554 -7.401,1.487 -7.431,1.418 -7.456,1.347 -7.477,1.275 -7.494,1.201 -7.506,1.127 -7.513,1.052"/>
<polygon class="node-14" points="3.034,3.174 3.037,3.099 3.044,3.024 3.056,2.949 3.072,2.876 3.093,2.803 3.132,2.738 3.283,2.651 3.431,2.591 3.618,2.518 3.780,2.458 4.181,2.327 4.347,2.281 4.541,2.230 4.697,2.192 4.784,2.174 4.872,2.169 4.940,2.203 4.999,2.250 5.056,2.300 5.109,2.353 5.159,2.409 5.205,2.469 5.247,2.531 5.286,2.596 5.320,2.663 5.350,2.733 5.376,2.803 5.397,2.876 5.413,2.949 5.425,3.024 5.432,3.099 5.434,3.174 5.432,3.250 5.425,3.325 5.413,3.399 5.397,3.473 5.376,3.545 5.350,3.616 5.320,3.685 5.286,3.752 5.247,3.817 5.205,3.880 5.159,3.939 5.109,3.996 5.056,4.049 4.999,4.099 4.940,4.145 4.877,4.187 4.812,4.226 4.745,4.260 4.676,4.290 4.605,4.316 4.533,4.337 4.459,4.353 4.385,4.365 4.310,4.372 4.234,4.374 4.159,4.372 4.084,4.365 4.009,4.353 3.936,4.337 3.863,4.316 3.793,4.290 3.723,4.260 3.656,4.226 3.591,4.187 3.529,4.145 3.469,4.099 3.413,4.049 3.360,3.996 3.310,3.939 3.263,3.880 3.221,3.817 3.183,3.752 3.149,3.685 3.119,3.616 3.093,3.545 3.072,3.473 3.056,3.399 3.044,3.325 3.037,3.250"/>
<polygon class="node-15" points="2.228,0.118 2.264,0.008 2.353,-0.195 2.408,-0.287 2.473,-0.371 2.655,-0.589 2.815,-0.774 2.971,-0.937 3.184,-1.136 3.485,-1.373 3.782,-1.568 4.061,-1.721 4.277,-1.790 4.389,-1.799 4.494,-1.776 4.592,-1.733 4.687,-1.685 4.779,-1.630 4.867,-1.570 4.952,-1.505 5.032,-1.434 5.107,-1.359 5.178,-1.279 5.243,-1.194 5.303,-1.106 5.358,-1.014 5.406,-0.919 5.449,-0.821 5.485,-0.720 5.514,-0.618 5.538,-0.513 5.554,-0.408 5.565,-0.302 5.568,-0.195 5.565,-0.088 5.554,0.018 5.538,0.124 5.514,0.228 5.485,0.330 5.449,0.431 5.406,0.529 5.358,0.624 5.303,0.716 5.243,0.804 5.155,0.870 5.020,0.887 4.888,0.891 4.657,0.892 4.551,0.882 4.282,0.850 3.689,0.744 3.630,0.731 3.048,0.575 2.791,0.488 2.691,0.452 2.483,0.354 2.365,0.294 2.250,0.220"/>
<polygon class="node-16" points="-4.771,-0.185 -4.748,-0.290 -4.705,-0.388 -4.657,-0.483 -4.602,-0.575 -4.542,-0.663 -4.477,-0.748 -4.406,-0.828 -4.331,-0.903 -4.251,-0.974 -4.166,-1.039 -4.078,-1.099 -3.986,-1.154 -3.891,-1.202 -3.793,-1.245 -3.692,-1.281 -3.590,-1.311 -3.486,-1.334 -3.380,-1.351 -3.274,-1.361 -3.167,-1.364 -3.060,-1.361 -2.954,-1.351 -2.849,-1.334 -2.744,-1.311 -2.642,-1.281 -2.541,-1.245 -2.443,-1.202 -2.348,-1.154 -2.256,-1.099 -2.168,-1.039 -2.083,-0.974 -2.003,-0.903 -1.928,-0.828 -1.857,-0.748 -1.792,-0.663 -1.732,-0.575 -1.677,-0.483 -1.629,-0.388 -1.586,-0.290 -1.550,-0.189 -1.521,-0.087 -1.497,0.017 -1.481,0.123 -1.470,0.229 -1.467,0.336 -1.470,0.443 -1.481,0.549 -1.497,0.655 -1.521,0.759 -1.550,0.861 -1.586,0.962 -1.629,1.060 -1.677,1.155 -1.732,1.247 -1.792,1.335 -1.868,1.411 -1.958,1.472 -2.148,1.568 -2.522,1.707 -2.797,1.779 -3.072,1.848 -3.363,1.884 -3.569,1.902 -3.676,1.902 -3.785,1.897 -3.889,1.871 -3.986,1.826 -4.078,1.771 -4.149,1.687 -4.208,1.594 -4.262,1.502 -4.352,1.316 -4.473,1.054 -4.679,0.431 -4.724,0.238 -4.755,0.033"/>
<polygon class="node-17" points="2.828,2.548 2.844,2.438 2.894,2.327 2.999,2.129 3.059,2.041 3.227,1.812 3.283,1.746 3.442,1.568 3.860,1.180 4.034,1.047 4.230,0.912 4.302,0.864 4.462,0.819 4.819,0.739 5.028,0.699 5.143,0.682 5.266,0.666 5.373,0.694 5.461,0.754 5.546,0.819 5.626,0.890 5.701,0.965 5.772,1.045 5.837,1.130 5.897,1.218 5.952,1.310 6.000,1.405 6.043,1.503 6.079,1.604 6.108,1.706 6.132,1.810 6.148,1.916 6.159,2.022 6.162,2.129 6.159,2.236 6.148,2.342 6.132,2.448 6.108,2.552 6.079,2.654 6.043,2.755 6.000,2.853 5.952,2.948 5.897,3.040 5.837,3.128 5.772,3.213 5.701,3.293 5.626,3.368 5.546,3.439 5.461,3.504 5.373,3.564 5.271,3.600 5.051,3.616 4.944,3.613 4.741,3.592 4.645,3.581 4.374,3.532 3.944,3.436 3.678,3.364 3.586,3.334 3.394,3.266 3.296,3.224 3.193,3.179 3.097,3.120 3.027,3.040 2.972,2.948 2.924,2.853 2.881,2.755 2.845,2.654"/>
<polygon class="node-18" points="-0.982,-1.381 -0.979,-1.478 -0.970,-1.575 -0.955,-1.671 -0.934,-1.766 -0.906,-1.860 -0.873,-1.951 -0.835,-2.041 -0.791,-2.127 -0.741,-2.211 -0.686,-2.292 -0.627,-2.369 -0.562,-2.442 -0.493,-2.511 -0.420,-2.575 -0.343,-2.635 -0.263,-2.689 -0.179,-2.739 -0.092,-2.783 -0.003,-2.822 0.089,-2.855 0.182,-2.882 0.277,-2.903 0.373,-2.918 0.470,-2.928 0.568,-2.931 0.665,-2.928 0.762,-2.918 0.858,-2.903 0.953,-2.882 1.047,-2.855 1.138,-2.822 1.228,-2.783 1.314,-2.739 1.398,-2.689 1.479,-2.635 1.556,-2.575 1.629,-2.511 1.698,-2.442 1.762,-2.369 1.806,-2.281 1.845,-2.191 1.890,-1.904 1.902,-1.814 1.915,-1.551 1.883,-1.043 1.831,-0.686 1.741,-0.410 1.693,-0.324 1.629,-0.251 1.556,-0.186 1.479,-0.127 1.398,-0.072 1.314,-0.022 1.228,0.022 1.138,0.060 1.047,0.093 0.953,0.121 0.858,0.142 0.762,0.157 0.665,0.166 0.568,0.169 0.470,0.166 0.373,0.157 0.277,0.142 0.182,0.121 0.089,0.093 -0.003,0.060 -0.092,0.022 -0.179,-0.022 -0.263,-0.072 -0.343,-0.127 -0.420,-0.186 -0.493,-0.251 -0.562,-0.320 -0.627,-0.393 -0.686,-0.470 -0.741,-0.550 -0.791,-0.634 -0.835,-0.721 -0.873,-0.810 -0.906,-0.902 -0.934,-0.995 -0.955,-1.090 -0.970,-1.186 -0.979,-1.283"/>
<polygon class="node-19" points="-3.618,-1.826 -3.615,-1.933 -3.605,-2.039 -3.588,-2.145 -3.565,-2.249 -3.535,-2.351 -3.498,-2.452 -3.453,-2.548 -3.401,-2.641 -3.342,-2.730 -3.283,-2.817 -3.212,-2.896 -3.061,-3.043 -2.893,-3.168 -2.807,-3.227 -2.717,-3.280 -2.624,-3.327 -2.529,-3.369 -2.431,-3.404 -2.231,-3.466 -2.024,-3.502 -1.918,-3.513 -1.812,-3.509 -1.706,-3.505 -1.600,-3.493 -1.496,-3.472 -1.393,-3.443 -1.292,-3.407 -1.194,-3.364 -1.099,-3.316 -1.007,-3.261 -0.919,-3.201 -0.834,-3.136 -0.754,-3.065 -0.679,-2.990 -0.608,-2.910 -0.543,-2.825 -0.483,-2.737 -0.428,-2.645 -0.407,-2.537 -0.494,-2.006 -0.554,-1.654 -0.586,-1.484 -0.693,-0.936 -0.760,-0.592 -0.834,-0.516 -0.919,-0.451 -1.007,-0.391 -1.099,-0.336 -1.194,-0.288 -1.292,-0.245 -1.393,-0.209 -1.495,-0.180 -1.607,-0.196 -1.918,-0.363 -2.323,-0.580 -3.224,-1.108 -3.421,-1.231 -3.522,-1.305 -3.565,-1.403 -3.588,-1.508 -3.605,-1.613 -3.615,-1.719"/>
<polygon class="node-20" points="-6.313,-0.055 -6.299,-0.161 -6.276,-0.265 -6.246,-0.368 -6.210,-0.468 -6.168,-0.566 -6.119,-0.661 -6.065,-0.753 -6.005,-0.842 -5.939,-0.926 -5.869,-1.006 -5.793,-1.082 -5.713,-1.152 -5.629,-1.218 -5.541,-1.278 -5.449,-1.332 -5.353,-1.381 -5.255,-1.423 -5.155,-1.459 -5.052,-1.489 -4.948,-1.512 -4.843,-1.529 -4.736,-1.539 -4.630,-1.542 -4.523,-1.539 -4.417,-1.529 -4.311,-1.512 -4.207,-1.489 -4.104,-1.459 -4.004,-1.423 -3.906,-1.381 -3.811,-1.332 -3.719,-1.278 -3.648,-1.193 -3.622,-1.060 -3.610,-0.928 -3.595,-0.699 -3.583,-0.506 -3.599,-0.177 -3.606,-0.038 -3.632,0.220 -3.648,0.345 -3.687,0.601 -3.715,0.738 -3.781,1.061 -3.860,1.370 -3.900,1.485 -3.949,1.605 -4.011,1.719 -4.104,1.774 -4.207,1.804 -4.312,1.820 -4.419,1.823 -4.525,1.813 -4.731,1.771 -4.830,1.744 -5.018,1.669 -5.275,1.528 -5.505,1.363 -5.579,1.305 -5.797,1.123 -5.928,0.982 -6.041,0.822 -6.099,0.739 -6.133,0.646 -6.201,0.457 -6.234,0.360 -6.289,0.158 -6.305,0.052"/>
<polygon class="node-21" points="0.549,-2.234 0.574,-2.435 0.615,-2.651 0.649,-2.760 0.710,-2.849 0.789,-2.921 0.874,-2.986 0.962,-3.046 1.054,-3.100 1.149,-3.149 1.247,-3.191 1.348,-3.227 1.450,-3.257 1.554,-3.281 1.660,-3.297 1.766,-3.307 1.873,-3.311 1.980,-3.307 2.086,-3.297 2.192,-3.281 2.296,-3.257 2.398,-3.227 2.499,-3.191 2.597,-3.149 2.692,-3.100 2.784,-3.046 2.872,-2.986 2.957,-2.921 3.037,-2.850 3.112,-2.774 3.183,-2.694 3.248,-2.610 3.308,-2.521 3.360,-2.428 3.399,-2.329 3.434,-2.229 3.461,-2.127 3.480,-2.023 3.490,-1.919 3.502,-1.713 3.487,-1.509 3.460,-1.410 3.426,-1.315 3.384,-1.223 3.244,-0.966 3.078,-0.735 2.853,-0.425 2.644,-0.209 2.568,-0.134 2.484,-0.068 2.394,-0.007 2.296,0.036 2.192,0.059 2.086,0.076 1.980,0.086 1.873,0.089 1.766,0.086 1.660,0.076 1.554,0.059 1.450,0.036 1.348,0.006 1.247,-0.030 1.155,-0.085 1.074,-0.157 1.007,-0.246 0.907,-0.444 0.827,-0.628 0.790,-0.714 0.760,-0.802 0.688,-1.053 0.620,-1.372 0.566,-1.693 0.554,-1.862"/>
<polygon class="node-22" points="-4.256,1.774 -4.214,1.668 -4.093,1.475 -3.839,1.069 -3.728,0.931 -3.654,0.878 -3.295,0.665 -2.799,0.451 -2.647,0.395 -2.210,0.278 -1.894,0.238 -1.672,0.258 -1.570,0.295 -1.483,0.358 -1.403,0.429 -1.328,0.504 -1.257,0.584 -1.192,0.669 -1.132,0.757 -1.077,0.849 -1.029,0.944 -0.986,1.042 -0.950,1.143 -0.920,1.245 -0.897,1.349 -0.880,1.455 -0.870,1.561 -0.867,1.668 -0.870,1.775 -0.880,1.881 -0.897,1.986 -0.920,2.091 -0.950,2.193 -0.986,2.294 -1.029,2.392 -1.077,2.487 -1.132,2.579 -1.192,2.667 -1.257,2.752 -1.328,2.831 -1.408,2.902 -1.492,2.967 -1.580,3.026 -1.672,3.078 -1.768,3.122 -1.961,3.199 -2.161,3.249 -2.364,3.272 -2.465,3.282 -2.567,3.285 -2.669,3.282 -2.770,3.272 -2.973,3.249 -3.173,3.199 -3.366,3.122 -3.462,3.078 -3.554,3.026 -3.642,2.967 -3.726,2.902 -3.804,2.829 -3.877,2.752 -3.942,2.667 -4.002,2.579 -4.057,2.487 -4.105,2.392 -4.148,2.294 -4.184,2.193 -4.214,2.091 -4.237,1.986 -4.254,1.881"/>
<polygon class="node-23" points="3.654,-1.211 3.661,-1.317 3.681,-1.422 3.714,-1.523 3.767,-1.613 3.828,-1.699 3.891,-1.785 3.967,-1.860 4.046,-1.931 4.135,-1.991 4.227,-2.045 4.322,-2.094 4.420,-2.136 4.520,-2.172 4.623,-2.202 4.727,-2.225 4.833,-2.242 4.939,-2.252 5.046,-2.256 5.152,-2.252 5.259,-2.242 5.364,-2.225 5.468,-2.202 5.571,-2.172 5.672,-2.136 5.770,-2.094 5.865,-2.045 5.957,-1.991 6.045,-1.931 6.129,-1.865 6.209,-1.795 6.285,-1.719 6.356,-1.639 6.421,-1.555 6.481,-1.467 6.535,-1.375 6.584,-1.279 6.626,-1.181 6.662,-1.081 6.692,-0.978 6.716,-0.874 6.732,-0.769 6.742,-0.662 6.746,-0.556 6.742,-0.449 6.732,-0.343 6.716,-0.237 6.692,-0.133 6.662,-0.030 6.626,0.070 6.584,0.168 6.535,0.263 6.481,0.355 6.421,0.444 6.356,0.528 6.285,0.608 6.209,0.684 6.129,0.754 6.045,0.820 5.957,0.880 5.865,0.934 5.770,0.983 5.672,1.025 5.565,1.041 5.455,1.039 5.246,1.031 5.145,1.022 4.757,0.955 4.663,0.934 4.381,0.856 4.294,0.812 4.170,0.650 4.113,0.572 4.063,0.491 3.933,0.253 3.869,0.092 3.705,-0.471 3.673,-0.642 3.655,-0.913 3.654,-1.008"/>
<polygon class="node-24" points="4.257,1.124 4.298,0.922 4.355,0.838 4.563,0.759 4.752,0.695 4.929,0.644 5.733,0.438 5.912,0.397 6.337,0.316 6.457,0.307 6.560,0.343 6.648,0.403 6.732,0.469 6.812,0.539 6.888,0.615 6.958,0.695 7.024,0.779 7.084,0.868 7.138,0.960 7.187,1.055 7.229,1.153 7.265,1.253 7.295,1.356 7.318,1.460 7.335,1.566 7.345,1.672 7.349,1.779 7.345,1.885 7.335,1.992 7.318,2.097 7.295,2.201 7.265,2.304 7.229,2.404 7.187,2.502 7.138,2.598 7.084,2.690 7.024,2.778 6.958,2.862 6.888,2.942 6.812,3.018 6.732,3.088 6.648,3.154 6.560,3.214 6.468,3.268 6.372,3.317 6.274,3.359 6.174,3.395 6.071,3.425 5.967,3.448 5.862,3.465 5.755,3.475 5.649,3.479 5.542,3.475 5.436,3.465 5.330,3.448 5.228,3.418 5.133,3.367 5.048,3.296 4.968,3.226 4.824,3.077 4.716,2.906 4.666,2.825 4.536,2.587 4.433,2.351 4.316,1.947 4.276,1.692 4.258,1.422 4.257,1.326"/>
<polygon class="node-25" points="-3.917,-1.204 -3.916,-1.306 -3.881,-1.397 -3.836,-1.484 -3.787,-1.567 -3.732,-1.648 -3.672,-1.725 -3.608,-1.798 -3.539,-1.867 -3.464,-1.929 -3.373,-1.969 -3.276,-1.994 -3.181,-2.015 -2.890,-2.006 -2.632,-1.952 -2.405,-1.897 -2.075,-1.756 -2.011,-1.729 -1.950,-1.697 -1.891,-1.662 -1.654,-1.510 -1.470,-1.377 -1.405,-1.327 -1.209,-1.149 -1.100,-1.000 -0.993,-0.830 -0.956,-0.737 -0.938,-0.640 -0.940,-0.543 -0.956,-0.446 -0.977,-0.351 -1.004,-0.258 -1.037,-0.166 -1.076,-0.077 -1.120,0.010 -1.169,0.094 -1.224,0.174 -1.284,0.251 -1.348,0.324 -1.417,0.393 -1.514,0.429 -1.621,0.443 -1.824,0.453 -2.006,0.455 -2.091,0.456 -2.702,0.436 -2.775,0.420 -2.847,0.399 -3.101,0.245 -3.349,0.081 -3.469,-0.017 -3.577,-0.133 -3.613,-0.203 -3.644,-0.275 -3.737,-0.497 -3.870,-0.913 -3.894,-1.007 -3.906,-1.104"/>
<polygon class="node-26" points="4.146,-1.967 4.166,-2.040 4.196,-2.109 4.230,-2.176 4.269,-2.241 4.311,-2.303 4.357,-2.363 4.407,-2.419 4.460,-2.473 4.517,-2.523 4.576,-2.569 4.639,-2.611 4.704,-2.649 4.771,-2.684 4.840,-2.714 4.911,-2.739 4.983,-2.760 5.057,-2.777 5.131,-2.788 5.206,-2.796 5.282,-2.798 5.357,-2.796 5.432,-2.788 5.507,-2.777 5.580,-2.760 5.653,-2.739 5.724,-2.714 5.793,-2.684 5.860,-2.649 5.925,-2.611 5.987,-2.569 6.047,-2.523 6.103,-2.473 6.157,-2.419 6.206,-2.363 6.253,-2.303 6.295,-2.241 6.333,-2.176 6.368,-2.109 6.398,-2.040 6.423,-1.969 6.444,-1.896 6.461,-1.823 6.472,-1.748 6.479,-1.673 6.482,-1.598 6.479,-1.523 6.470,-1.448 6.348,-1.394 6.104,-1.387 5.863,-1.409 5.725,-1.422 5.617,-1.440 5.543,-1.454 5.330,-1.496 5.195,-1.526 4.984,-1.579 4.676,-1.674 4.475,-1.752 4.246,-1.864"/>
<polygon class="node-27" points="-2.038,-1.812 -2.024,-1.901 -1.975,-2.171 -1.920,-2.350 -1.799,-2.613 -1.752,-2.701 -1.645,-2.878 -1.582,-2.965 -1.509,-3.042 -1.427,-3.110 -1.337,-3.168 -1.240,-3.213 -1.140,-3.249 -1.037,-3.279 -0.933,-3.302 -0.827,-3.319 -0.721,-3.329 -0.614,-3.333 -0.507,-3.329 -0.401,-3.319 -0.296,-3.302 -0.191,-3.279 -0.089,-3.249 0.012,-3.213 0.110,-3.171 0.205,-3.122 0.297,-3.068 0.385,-3.008 0.469,-2.942 0.550,-2.872 0.625,-2.796 0.690,-2.711 0.728,-2.608 0.751,-2.499 0.778,-2.287 0.796,-1.901 0.796,-1.364 0.753,-0.881 0.720,-0.786 0.680,-0.692 0.632,-0.602 0.576,-0.515 0.450,-0.346 0.373,-0.274 0.293,-0.204 0.204,-0.144 0.110,-0.094 0.012,-0.052 -0.089,-0.016 -0.191,0.014 -0.296,0.037 -0.401,0.054 -0.507,0.064 -0.614,0.067 -0.721,0.064 -0.827,0.054 -0.933,0.037 -1.037,0.014 -1.137,-0.023 -1.215,-0.115 -1.344,-0.305 -1.398,-0.397 -1.691,-0.949 -1.827,-1.238 -1.955,-1.548 -1.990,-1.632 -2.017,-1.721"/>
<polygon class="node-28" points="-2.229,0.559 -2.229,0.446 -2.078,0.304 -1.632,-0.077 -1.392,-0.260 -1.298,-0.295 -1.194,-0.297 -1.092,-0.291 -0.006,-0.217 0.237,-0.200 0.343,-0.153 0.430,-0.081 0.510,-0.001 0.585,0.083 0.654,0.173 0.718,0.266 0.775,0.364 0.827,0.464 0.872,0.568 0.910,0.675 0.942,0.783 0.966,0.894 0.984,1.005 0.995,1.118 0.998,1.231 0.995,1.344 0.984,1.456 0.966,1.568 0.942,1.678 0.910,1.787 0.872,1.893 0.827,1.997 0.775,2.098 0.718,2.195 0.654,2.289 0.585,2.378 0.510,2.463 0.430,2.543 0.345,2.618 0.256,2.687 0.163,2.751 0.065,2.808 -0.035,2.859 -0.139,2.904 -0.246,2.943 -0.354,2.974 -0.465,2.999 -0.576,3.017 -0.689,3.027 -0.802,3.031 -0.915,3.027 -1.027,3.017 -1.139,2.999 -1.250,2.974 -1.358,2.943 -1.465,2.904 -1.555,2.831 -1.627,2.731 -1.745,2.528 -1.789,2.425 -1.898,2.137 -1.985,1.881 -2.073,1.557 -2.152,1.231 -2.199,0.964 -2.212,0.869 -2.218,0.771"/>
<polygon class="node-29" points="4.314,0.854 4.323,0.745 4.372,0.634 4.477,0.436 4.537,0.348 4.705,0.119 4.762,0.053 4.921,-0.124 5.338,-0.513 5.512,-0.646 5.708,-0.781 5.941,-0.939 6.127,-1.042 6.338,-1.113 6.453,-1.142 6.565,-1.141 6.664,-1.102 6.759,-1.054 6.851,-0.999 6.940,-0.939 7.024,-0.874 7.104,-0.803 7.180,-0.728 7.250,-0.647 7.316,-0.563 7.376,-0.475 7.430,-0.383 7.479,-0.288 7.521,-0.190 7.557,-0.089 7.587,0.013 7.610,0.118 7.627,0.223 7.637,0.329 7.641,0.436 7.637,0.543 7.627,0.649 7.610,0.755 7.587,0.859 7.557,0.962 7.521,1.062 7.479,1.160 7.430,1.255 7.376,1.347 7.316,1.435 7.219,1.494 7.093,1.518 6.960,1.522 6.837,1.520 6.436,1.489 6.275,1.467 5.761,1.375 5.703,1.362 5.121,1.206 4.864,1.119 4.763,1.083 4.532,0.994 4.419,0.930"/>
<polygon class="node-30" points="5.513,3.332 5.549,3.209 5.597,3.094 5.727,2.891 5.839,2.751 5.917,2.661 5.977,2.597 6.191,2.387 6.202,2.378 6.471,2.164 6.690,2.008 6.777,1.956 6.886,1.897 7.010,1.843 7.137,1.808 7.241,1.810 7.315,1.846 7.358,1.908 7.397,1.973 7.431,2.040 7.461,2.109 7.486,2.180 7.507,2.252 7.524,2.326 7.536,2.400 7.543,2.475 7.545,2.551 7.543,2.626 7.536,2.701 7.524,2.776 7.507,2.849 7.486,2.922 7.461,2.993 7.431,3.062 7.397,3.129 7.358,3.194 7.316,3.256 7.270,3.316 7.220,3.372 7.167,3.426 7.110,3.475 7.050,3.522 6.988,3.564 6.923,3.602 6.856,3.637 6.787,3.667 6.716,3.692 6.644,3.713 6.570,3.730 6.495,3.741 6.420,3.748 6.345,3.751 6.270,3.748 6.195,3.741 6.120,3.730 6.047,3.713 5.974,3.692 5.903,3.667 5.834,3.637 5.767,3.602 5.702,3.564 5.640,3.522 5.580,3.475 5.527,3.422"/>
<polygon class="node-31" points="-6.636,-0.697 -6.633,-0.792 -6.624,-0.888 -6.609,-0.982 -6.588,-1.075 -6.561,-1.167 -6.529,-1.257 -6.491,-1.344 -6.448,-1.429 -6.399,-1.511 -6.345,-1.590 -6.287,-1.666 -6.224,-1.738 -6.156,-1.805 -6.085,-1.868 -6.009,-1.927 -5.930,-1.980 -5.848,-2.029 -5.763,-2.072 -5.675,-2.110 -5.585,-2.143 -5.494,-2.169 -5.401,-2.190 -5.306,-2.205 -5.211,-2.214 -5.116,-2.217 -5.020,-2.214 -4.925,-2.205 -4.831,-2.190 -4.738,-2.169 -4.646,-2.143 -4.556,-2.110 -4.469,-2.072 -4.383,-2.029 -4.301,-1.980 -4.222,-1.927 -4.147,-1.868 -4.075,-1.805 -4.008,-1.738 -3.945,-1.666 -3.886,-1.590 -3.832,-1.511 -3.794,-1.423 -3.773,-1.329 -3.759,-1.234 -3.747,-1.048 -3.732,-0.522 -3.745,-0.436 -3.849,-0.285 -3.899,-0.215 -3.954,-0.151 -4.121,0.026 -4.240,0.125 -4.488,0.292 -4.551,0.329 -4.617,0.363 -4.891,0.483 -5.116,0.560 -5.453,0.615 -5.541,0.611 -5.725,0.597 -5.819,0.582 -5.911,0.555 -5.998,0.518 -6.080,0.469 -6.156,0.411 -6.224,0.344 -6.287,0.272 -6.345,0.196 -6.399,0.117 -6.448,0.035 -6.491,-0.050 -6.529,-0.137 -6.561,-0.227 -6.588,-0.319 -6.609,-0.412 -6.624,-0.506 -6.633,-0.602"/>
<polygon class="node-32" points="6.344,-0.267 6.369,-0.617 6.416,-0.788 6.459,-0.861 6.508,-0.933 6.571,-0.978 6.640,-1.013 6.714,-1.027 6.789,-1.034 6.864,-1.036 6.940,-1.034 7.015,-1.027 7.089,-1.015 7.162,-0.998 7.235,-0.977 7.306,-0.952 7.375,-0.922 7.442,-0.888 7.507,-0.849 7.569,-0.807 7.629,-0.761 7.685,-0.711 7.739,-0.658 7.788,-0.601 7.835,-0.542 7.877,-0.479 7.915,-0.414 7.949,-0.347 7.979,-0.278 8.005,-0.207 8.026,-0.135 8.042,-0.061 8.054,0.013 8.061,0.088 8.064,0.163 8.061,0.239 8.054,0.314 8.042,0.388 8.026,0.462 8.005,0.534 7.979,0.605 7.949,0.674 7.915,0.741 7.877,0.806 7.835,0.868 7.788,0.928 7.739,0.984 7.685,1.038 7.629,1.088 7.569,1.134 7.507,1.176 7.442,1.214 7.375,1.249 7.305,1.277 7.228,1.284 7.148,1.269 7.068,1.230 6.994,1.188 6.925,1.132 6.811,1.010 6.765,0.951 6.689,0.847 6.572,0.623 6.539,0.557 6.453,0.326 6.430,0.246 6.378,0.006 6.358,-0.115"/>
<polygon class="node-33" points="-2.897,-0.217 -2.888,-0.318 -2.858,-0.613 -2.722,-1.082 -2.645,-1.265 -2.542,-1.437 -2.489,-1.524 -2.428,-1.608 -2.292,-1.769 -2.210,-1.835 -2.119,-1.889 -2.021,-1.929 -1.916,-1.949 -1.804,-1.939 -1.698,-1.929 -1.497,-1.896 -1.402,-1.878 -1.310,-1.853 -1.222,-1.821 -0.976,-1.719 -0.679,-1.566 -0.390,-1.397 -0.250,-1.294 0.098,-0.975 0.221,-0.811 0.278,-0.721 0.336,-0.626 0.373,-0.524 0.389,-0.418 0.386,-0.311 0.376,-0.205 0.359,-0.099 0.333,0.004 0.278,0.098 0.208,0.183 0.038,0.323 -0.126,0.442 -0.540,0.642 -0.767,0.736 -1.150,0.847 -1.310,0.892 -1.568,0.933 -1.660,0.944 -1.754,0.947 -1.955,0.953 -2.176,0.947 -2.351,0.840 -2.510,0.709 -2.588,0.640 -2.661,0.564 -2.734,0.486 -2.788,0.395 -2.821,0.293 -2.853,0.193 -2.876,0.091"/>
<polygon class="node-34" points="-5.444,2.557 -5.442,2.482 -5.435,2.407 -5.423,2.332 -5.406,2.259 -5.385,2.187 -5.360,2.116 -5.330,2.047 -5.296,1.979 -5.257,1.915 -5.215,1.852 -5.169,1.793 -5.119,1.736 -5.066,1.683 -5.009,1.633 -4.950,1.587 -4.887,1.545 -4.822,1.506 -4.755,1.472 -4.686,1.442 -4.615,1.416 -4.543,1.395 -4.469,1.379 -4.395,1.367 -4.320,1.360 -4.245,1.358 -4.169,1.360 -4.094,1.367 -4.020,1.379 -3.946,1.395 -3.874,1.416 -3.804,1.444 -3.738,1.480 -3.677,1.524 -3.617,1.568 -3.561,1.617 -3.510,1.669 -3.463,1.725 -3.375,1.838 -3.303,1.959 -3.267,2.020 -3.235,2.082 -3.207,2.146 -3.151,2.276 -3.112,2.414 -3.095,2.485 -3.082,2.557 -3.069,2.706 -3.071,2.781 -3.083,2.855 -3.104,2.928 -3.129,2.999 -3.159,3.068 -3.194,3.135 -3.232,3.200 -3.274,3.262 -3.320,3.322 -3.370,3.378 -3.424,3.432 -3.480,3.481 -3.540,3.528 -3.602,3.570 -3.667,3.608 -3.734,3.642 -3.803,3.672 -3.874,3.698 -3.946,3.719 -4.020,3.735 -4.094,3.747 -4.169,3.754 -4.245,3.757 -4.320,3.754 -4.395,3.747 -4.469,3.735 -4.543,3.719 -4.615,3.698 -4.686,3.672 -4.755,3.642 -4.822,3.608 -4.887,3.570 -4.950,3.528 -5.009,3.481 -5.066,3.432 -5.119,3.378 -5.169,3.322 -5.215,3.262 -5.257,3.200 -5.296,3.135 -5.330,3.068 -5.360,2.999 -5.385,2.928 -5.406,2.855 -5.423,2.782 -5.435,2.708 -5.442,2.633"/>
<polygon class="node-35" points="-1.615,-2.681 -1.608,-2.756 -1.592,-2.829 -1.566,-2.900 -1.536,-2.969 -1.502,-3.036 -1.464,-3.101 -1.421,-3.163 -1.375,-3.223 -1.325,-3.280 -1.272,-3.333 -1.215,-3.383 -1.156,-3.429 -1.094,-3.471 -1.029,-3.510 -0.962,-3.544 -0.892,-3.574 -0.822,-3.599 -0.749,-3.620 -0.676,-3.637 -0.601,-3.648 -0.526,-3.656 -0.451,-3.658 -0.376,-3.656 -0.301,-3.648 -0.226,-3.637 -0.153,-3.620 -0.080,-3.599 -0.009,-3.574 0.060,-3.544 0.127,-3.510 0.192,-3.471 0.254,-3.429 0.314,-3.383 0.370,-3.333 0.423,-3.280 0.473,-3.223 0.519,-3.163 0.562,-3.101 0.600,-3.036 0.634,-2.969 0.664,-2.900 0.690,-2.829 0.711,-2.757 0.727,-2.683 0.739,-2.609 0.746,-2.534 0.749,-2.458 0.746,-2.383 0.734,-2.309 0.713,-2.236 0.683,-2.167 0.635,-2.106 0.586,-2.048 0.532,-1.996 0.471,-1.952 0.352,-1.875 0.223,-1.826 -0.125,-1.766 -0.224,-1.759 -0.319,-1.766 -0.535,-1.789 -0.577,-1.796 -0.619,-1.805 -0.829,-1.863 -1.008,-1.935 -1.144,-2.018 -1.194,-2.050 -1.353,-2.165 -1.446,-2.269 -1.494,-2.327 -1.535,-2.390 -1.567,-2.458 -1.590,-2.530 -1.604,-2.604"/>
<polygon class="node-36" points="0.670,-2.134 0.714,-2.412 0.747,-2.600 0.785,-2.687 0.828,-2.772 0.877,-2.855 0.931,-2.933 0.989,-3.009 1.052,-3.080 1.120,-3.148 1.191,-3.211 1.267,-3.270 1.346,-3.323 1.428,-3.372 1.513,-3.415 1.601,-3.453 1.690,-3.485 1.782,-3.512 1.875,-3.533 1.969,-3.548 2.064,-3.557 2.160,-3.560 2.255,-3.557 2.350,-3.548 2.444,-3.533 2.538,-3.512 2.629,-3.485 2.719,-3.453 2.807,-3.415 2.892,-3.372 2.974,-3.323 3.053,-3.270 3.128,-3.211 3.200,-3.148 3.267,-3.080 3.330,-3.009 3.389,-2.933 3.443,-2.855 3.491,-2.772 3.534,-2.687 3.572,-2.600 3.605,-2.510 3.631,-2.418 3.652,-2.325 3.667,-2.231 3.676,-2.136 3.679,-2.041 3.676,-1.945 3.667,-1.850 3.652,-1.756 3.631,-1.663 3.605,-1.571 3.572,-1.481 3.534,-1.394 3.491,-1.309 3.443,-1.226 3.389,-1.148 3.330,-1.072 3.267,-1.001 3.200,-0.933 3.128,-0.870 3.053,-0.811 2.974,-0.758 2.892,-0.709 2.807,-0.666 2.719,-0.628 2.629,-0.596 2.537,-0.571 2.444,-0.550 2.349,-0.539 2.255,-0.530 2.160,-0.532 2.065,-0.535 1.878,-0.566 1.698,-0.620 1.610,-0.652 1.524,-0.690 1.441,-0.732 1.360,-0.780 1.282,-0.833 1.208,-0.890 1.138,-0.952 1.071,-1.018 0.945,-1.158 0.892,-1.236 0.844,-1.317 0.801,-1.401 0.772,-1.491 0.723,-1.672 0.699,-1.856 0.676,-2.041"/>
<polygon class="node-37" points="-4.772,1.608 -4.757,1.499 -4.708,1.404 -4.654,1.312 -4.594,1.224 -4.529,1.139 -4.458,1.059 -4.382,0.984 -4.302,0.913 -4.218,0.848 -4.130,0.788 -4.038,0.733 -3.943,0.685 -3.845,0.643 -3.744,0.606 -3.642,0.577 -3.538,0.553 -3.432,0.537 -3.326,0.527 -3.219,0.523 -3.113,0.527 -3.006,0.537 -2.901,0.553 -2.797,0.577 -2.694,0.606 -2.595,0.645 -2.415,0.759 -2.244,0.880 -2.162,0.944 -2.092,1.022 -2.029,1.105 -1.974,1.192 -1.869,1.365 -1.789,1.549 -1.750,1.641 -1.716,1.734 -1.648,1.923 -1.573,2.222 -1.553,2.433 -1.557,2.540 -1.574,2.645 -1.603,2.747 -1.639,2.848 -1.682,2.946 -1.730,3.041 -1.785,3.133 -1.845,3.221 -1.910,3.305 -1.981,3.386 -2.056,3.461 -2.136,3.532 -2.221,3.597 -2.309,3.657 -2.401,3.711 -2.496,3.760 -2.594,3.802 -2.694,3.838 -2.797,3.868 -2.901,3.891 -3.006,3.908 -3.113,3.918 -3.219,3.922 -3.326,3.918 -3.432,3.908 -3.538,3.891 -3.642,3.868 -3.744,3.838 -3.845,3.802 -3.943,3.760 -4.037,3.709 -4.108,3.623 -4.170,3.530 -4.227,3.440 -4.272,3.344 -4.431,2.992 -4.492,2.821 -4.600,2.486 -4.652,2.313 -4.730,1.934 -4.750,1.829"/>
<polygon class="node-38" points="-3.645,3.710 -3.624,3.615 -3.570,3.515 -3.509,3.423 -3.454,3.346 -3.335,3.218 -3.278,3.169 -3.066,2.991 -3.017,2.956 -2.955,2.913 -2.714,2.760 -2.649,2.722 -2.596,2.693 -2.345,2.576 -2.204,2.525 -2.016,2.476 -1.908,2.459 -1.807,2.464 -1.709,2.481 -1.629,2.519 -1.587,2.581 -1.557,2.651 -1.532,2.721 -1.511,2.794 -1.494,2.867 -1.482,2.942 -1.475,3.017 -1.473,3.092 -1.475,3.167 -1.482,3.242 -1.494,3.317 -1.511,3.390 -1.532,3.463 -1.557,3.534 -1.587,3.603 -1.621,3.670 -1.660,3.735 -1.702,3.797 -1.748,3.857 -1.798,3.913 -1.851,3.966 -1.908,4.016 -1.967,4.062 -2.030,4.105 -2.095,4.143 -2.162,4.177 -2.231,4.207 -2.302,4.233 -2.374,4.254 -2.448,4.270 -2.522,4.282 -2.597,4.289 -2.672,4.292 -2.748,4.289 -2.823,4.282 -2.897,4.270 -2.971,4.254 -3.043,4.233 -3.114,4.207 -3.183,4.177 -3.250,4.143 -3.315,4.105 -3.377,4.062 -3.437,4.016 -3.493,3.966 -3.547,3.913 -3.597,3.857 -3.639,3.794"/>
<polygon class="node-39" points="-4.463,1.401 -4.455,1.326 -4.444,1.251 -4.427,1.178 -4.406,1.105 -4.381,1.035 -4.351,0.965 -4.317,0.898 -4.278,0.833 -4.236,0.771 -4.190,0.712 -4.140,0.655 -4.087,0.602 -4.030,0.552 -3.970,0.506 -3.908,0.463 -3.843,0.425 -3.776,0.391 -3.707,0.361 -3.636,0.335 -3.564,0.314 -3.490,0.298 -3.416,0.286 -3.341,0.279 -3.265,0.277 -3.190,0.279 -3.115,0.286 -3.041,0.298 -2.967,0.314 -2.895,0.335 -2.824,0.361 -2.755,0.391 -2.688,0.425 -2.623,0.463 -2.561,0.506 -2.501,0.552 -2.444,0.602 -2.391,0.655 -2.341,0.712 -2.295,0.771 -2.253,0.833 -2.214,0.898 -2.180,0.965 -2.150,1.035 -2.125,1.105 -2.104,1.178 -2.087,1.251 -2.080,1.326 -2.083,1.402 -2.087,1.476 -2.105,1.549 -2.133,1.619 -2.199,1.750 -2.288,1.863 -2.396,1.954 -2.446,1.996 -2.498,2.033 -2.553,2.065 -2.708,2.150 -2.916,2.219 -3.117,2.256 -3.166,2.263 -3.216,2.268 -3.265,2.270 -3.315,2.268 -3.519,2.257 -3.734,2.215 -3.898,2.150 -3.957,2.125 -4.014,2.095 -4.068,2.059 -4.187,1.983 -4.289,1.882 -4.371,1.760 -4.407,1.694 -4.448,1.551 -4.460,1.476"/>
<polygon class="node-40" points="-2.716,-0.485 -2.714,-0.561 -2.707,-0.636 -2.695,-0.710 -2.678,-0.783 -2.657,-0.856 -2.632,-0.927 -2.602,-0.996 -2.568,-1.063 -2.529,-1.128 -2.487,-1.190 -2.441,-1.250 -2.391,-1.306 -2.338,-1.360 -2.281,-1.409 -2.222,-1.456 -2.159,-1.498 -2.095,-1.536 -2.027,-1.570 -1.958,-1.600 -1.887,-1.626 -1.815,-1.647 -1.741,-1.663 -1.667,-1.675 -1.592,-1.682 -1.517,-1.683 -1.442,-1.680 -1.367,-1.673 -1.293,-1.659 -1.220,-1.642 -1.149,-1.617 -1.078,-1.592 -1.010,-1.562 -0.882,-1.486 -0.765,-1.393 -0.710,-1.344 -0.614,-1.232 -0.569,-1.174 -0.498,-1.045 -0.465,-0.980 -0.421,-0.841 -0.401,-0.772 -0.385,-0.701 -0.373,-0.630 -0.375,-0.485 -0.378,-0.414 -0.384,-0.342 -0.396,-0.271 -0.411,-0.201 -0.431,-0.133 -0.456,-0.065 -0.484,0.001 -0.517,0.065 -0.553,0.126 -0.593,0.186 -0.677,0.304 -0.728,0.355 -0.782,0.403 -0.839,0.447 -0.957,0.533 -1.022,0.566 -1.155,0.629 -1.225,0.649 -1.369,0.684 -1.443,0.691 -1.591,0.698 -1.740,0.684 -1.813,0.668 -1.885,0.647 -1.956,0.626 -2.025,0.596 -2.094,0.564 -2.158,0.526 -2.221,0.484 -2.281,0.439 -2.338,0.389 -2.391,0.336 -2.441,0.279 -2.487,0.220 -2.529,0.157 -2.568,0.093 -2.602,0.025 -2.632,-0.044 -2.657,-0.115 -2.678,-0.187 -2.695,-0.260 -2.707,-0.335 -2.714,-0.410"/>
</svg>