<?xml version="1.0" encoding="UTF-8"?>
<svg xmlns="http://www.w3.org/2000/svg" viewBox="-11.074 -7.365 22.707 15.783">
<defs>
<style>
.node-0{fill:#ffffff;stroke:#000000;stroke-width:0.050px;opacity:1.0;}
.node-1{fill:#ffffff;stroke:#000000;stroke-width:0.050px;opacity:1.0;}
.node-2{fill:#505050;stroke:#000000;stroke-width:0.050px;opacity:1.0;}
.node-3{fill:#ffffff;stroke:#000000;stroke-width:0.050px;opacity:1.0;}
.node-4{fill:#505050;stroke:#000000;stroke-width:0.050px;opacity:1.0;}
.node-5{fill:#ffffff;stroke:#000000;stroke-width:0.050px;opacity:1.0;}
.node-6{fill:#ffffff;stroke:#000000;stroke-width:0.050px;opacity:1.0;}
.node-7{fill:#ffffff;stroke:#000000;stroke-width:0.050px;opacity:1.0;}
.node-8{fill:#505050;stroke:#000000;stroke-width:0.050px;opacity:1.0;}
.node-9{fill:#ffffff;stroke:#000000;stroke-width:0.050px;opacity:1.0;}
.node-10{fill:#505050;stroke:#000000;stroke-width:0.050px;opacity:1.0;}
.node-11{fill:#ff0000;stroke:#000000;stroke-width:0.050px;opacity:1.0;}
.node-12{fill:#505050;stroke:#000000;stroke-width:0.050px;opacity:1.0;}
.node-13{fill:#505050;stroke:#000000;stroke-width:0.050px;opacity:1.0;}
.node-14{fill:#ff0000;stroke:#000000;stroke-width:0.050px;opacity:1.0;}
.node-15{fill:#ffffff;stroke:#000000;stroke-width:0.050px;opacity:1.0;}
.node-16{fill:#505050;stroke:#000000;stroke-width:0.050px;opacity:1.0;}
.node-17{fill:#ffffff;stroke:#000000;stroke-width:0.050px;opacity:1.0;}
.node-18{fill:#505050;stroke:#000000;stroke-width:0.050px;opacity:1.0;}
.node-19{fill:#505050;stroke:#000000;stroke-width:0.050px;opacity:1.0;}
.node-20{fill:#ff0000;stroke:#000000;stroke-width:0.050px;opacity:1.0;}
.node-21{fill:#0000ff;stroke:#000000;stroke-width:0.050px;opacity:1.0;}
.node-22{fill:#505050;stroke:#000000;stroke-width:0.050px;opacity:1.0;}
.node-23{fill:#505050;stroke:#000000;stroke-width:0.050px;opacity:1.0;}
.node-24{fill:#ffffff;stroke:#000000;stroke-width:0.050px;opacity:1.0;}
.node-25{fill:#505050;stroke:#000000;stroke-width:0.050px;opacity:1.0;}
.node-26{fill:#505050;stroke:#000000;stroke-width:0.050px;opacity:1.0;}
.node-27{fill:#505050;stroke:#000000;stroke-width:0.050px;opacity:1.0;}
.node-28{fill:#505050;stroke:#000000;stroke-width:0.050px;opacity:1.0;}
.node-29{fill:#505050;stroke:#000000;stroke-width:0.050px;opacity:1.0;}
.node-30{fill:#0000ff;stroke:#000000;stroke-width:0.050px;opacity:1.0;}
.node-31{fill:#505050;stroke:#000000;stroke-width:0.050px;opacity:1.0;}
.node-32{fill:#505050;stroke:#000000;stroke-width:0.050px;opacity:1.0;}
.node-33{fill:#505050;stroke:#000000;stroke-width:0.050px;opacity:1.0;}
.node-34{fill:#505050;stroke:#000000;stroke-width:0.050px;opacity:1.0;}
.node-35{fill:#0000ff;stroke:#000000;stroke-width:0.050px;opacity:1.0;}
.node-36{fill:#505050;stroke:#000000;stroke-width:0.050px;opacity:1.0;}
.node-37{fill:#505050;stroke:#000000;stroke-width:0.050px;opacity:1.0;}
.node-38{fill:#505050;stroke:#000000;stroke-width:0.050px;opacity:1.0;}
.node-39{fill:#505050;stroke:#000000;stroke-width:0.050px;opacity:1.0;}
.node-40{fill:#0000ff;stroke:#000000;stroke-width:0.050px;opacity:1.0;}
.node-41{fill:#0000ff;stroke:#000000;stroke-width:0.050px;opacity:1.0;}
.node-42{fill:#505050;stroke:#000000;stroke-width:0.050px;opacity:1.0;}
.node-43{fill:#505050;stroke:#000000;stroke-width:0.050px;opacity:1.0;}
.node-44{fill:#ffffff;stroke:#000000;stroke-width:0.050px;opacity:1.0;}
.node-45{fill:#505050;stroke:#000000;stroke-width:0.050px;opacity:1.0;}
.node-46{fill:#505050;stroke:#000000;stroke-width:0.050px;opacity:1.0;}
.node-47{fill:#505050;stroke:#000000;stroke-width:0.050px;opacity:1.0;}
.node-48{fill:#505050;stroke:#000000;stroke-width:0.050px;opacity:1.0;}
.node-49{fill:#505050;stroke:#000000;stroke-width:0.050px;opacity:1.0;}
.node-50{fill:#ff0000;stroke:#000000;stroke-width:0.050px;opacity:1.0;}
.node-51{fill:#ffff00;stroke:#000000;stroke-width:0.050px;opacity:1.0;}
.node-52{fill:#0000ff;stroke:#000000;stroke-width:0.050px;opacity:1.0;}
.node-53{fill:#ffffff;stroke:#000000;stroke-width:0.050px;opacity:1.0;}
.node-54{fill:#505050;stroke:#000000;stroke-width:0.050px;opacity:1.0;}
.node-55{fill:#ffff00;stroke:#000000;stroke-width:0.050px;opacity:1.0;}
.node-56{fill:#505050;stroke:#000000;stroke-width:0.050px;opacity:1.0;}
.node-57{fill:#505050;stroke:#000000;stroke-width:0.050px;opacity:1.0;}
.node-58{fill:#505050;stroke:#000000;stroke-width:0.050px;opacity:1.0;}
.node-59{fill:#ffffff;stroke:#000000;stroke-width:0.050px;opacity:1.0;}
.node-60{fill:#505050;stroke:#000000;stroke-width:0.050px;opacity:1.0;}
.node-61{fill:#ff0000;stroke:#000000;stroke-width:0.050px;opacity:1.0;}
.node-62{fill:#505050;stroke:#000000;stroke-width:0.050px;opacity:1.0;}
.node-63{fill:#ffffff;stroke:#000000;stroke-width:0.050px;opacity:1.0;}
.node-64{fill:#ffffff;stroke:#000000;stroke-width:0.050px;opacity:1.0;}
.node-65{fill:#505050;stroke:#000000;stroke-width:0.050px;opacity:1.0;}
.node-66{fill:#505050;stroke:#000000;stroke-width:0.050px;opacity:1.0;}
.node-67{fill:#505050;stroke:#000000;stroke-width:0.050px;opacity:1.0;}
.node-68{fill:#505050;stroke:#000000;stroke-width:0.050px;opacity:1.0;}
.node-69{fill:#ffffff;stroke:#000000;stroke-width:0.050px;opacity:1.0;}
.node-70{fill:#ffffff;stroke:#000000;stroke-width:0.050px;opacity:1.0;}
.node-71{fill:#ffffff;stroke:#000000;stroke-width:0.050px;opacity:1.0;}
</style>

</defs>
<polygon class="node-0" points="-2.531,2.555 -2.530,2.542 -2.529,2.530 -2.527,2.517 -2.524,2.505 -2.521,2.493 -2.517,2.481 -2.512,2.469 -2.506,2.458 -2.499,2.447 -2.492,2.437 -2.485,2.427 -2.476,2.418 -2.467,2.409 -2.458,2.401 -2.450,2.394 -2.441,2.388 -2.432,2.381 -2.329,2.307 -2.225,2.233 -2.221,2.230 -2.206,2.219 -2.197,2.213 -2.191,2.209 -2.181,2.203 -2.169,2.197 -2.158,2.192 -2.146,2.188 -2.134,2.184 -2.122,2.182 -2.109,2.180 -2.097,2.178 -2.084,2.178 -2.072,2.178 -2.059,2.180 -2.047,2.182 -2.034,2.184 -2.022,2.188 -2.011,2.192 -1.999,2.197 -1.988,2.203 -1.977,2.209 -1.967,2.216 -1.957,2.224 -1.947,2.232 -1.938,2.241 -1.930,2.250 -1.922,2.260 -1.915,2.271 -1.909,2.282 -1.903,2.293 -1.898,2.304 -1.894,2.316 -1.891,2.328 -1.888,2.340 -1.886,2.353 -1.885,2.365 -1.884,2.378 -1.885,2.390 -1.886,2.403 -1.888,2.415 -1.891,2.428 -1.894,2.440 -1.898,2.451 -1.903,2.463 -1.909,2.474 -1.915,2.485 -1.922,2.495 -1.930,2.505 -1.938,2.515 -1.947,2.524 -1.957,2.532 -1.968,2.540 -1.987,2.554 -1.992,2.558 -2.096,2.632 -2.199,2.707 -2.210,2.714 -2.220,2.721 -2.224,2.723 -2.234,2.730 -2.246,2.735 -2.257,2.740 -2.269,2.745 -2.281,2.748 -2.293,2.751 -2.306,2.753 -2.318,2.754 -2.331,2.755 -2.343,2.754 -2.356,2.753 -2.368,2.751 -2.380,2.748 -2.392,2.745 -2.404,2.740 -2.416,2.735 -2.427,2.730 -2.438,2.723 -2.448,2.716 -2.458,2.709 -2.467,2.700 -2.476,2.691 -2.485,2.682 -2.492,2.672 -2.499,2.662 -2.506,2.651 -2.512,2.640 -2.517,2.628 -2.521,2.616 -2.524,2.604 -2.527,2.592 -2.529,2.580 -2.530,2.567"/>
<polygon class="node-1" points="2.223,-0.965 2.223,-0.977 2.225,-0.990 2.227,-1.002 2.229,-1.014 2.233,-1.026 2.237,-1.038 2.242,-1.050 2.248,-1.061 2.254,-1.072 2.261,-1.082 2.269,-1.092 2.277,-1.101 2.286,-1.110 2.295,-1.119 2.305,-1.126 2.316,-1.134 2.324,-1.139 2.348,-1.154 2.400,-1.187 2.419,-1.199 2.441,-1.212 2.446,-1.215 2.461,-1.224 2.547,-1.279 2.551,-1.281 2.561,-1.287 2.566,-1.290 2.577,-1.296 2.589,-1.301 2.601,-1.305 2.613,-1.309 2.625,-1.311 2.637,-1.313 2.650,-1.315 2.662,-1.315 2.675,-1.315 2.688,-1.313 2.700,-1.311 2.712,-1.309 2.724,-1.305 2.736,-1.301 2.748,-1.296 2.759,-1.290 2.770,-1.284 2.780,-1.277 2.790,-1.269 2.799,-1.261 2.808,-1.252 2.816,-1.242 2.824,-1.233 2.831,-1.222 2.838,-1.211 2.843,-1.200 2.848,-1.189 2.853,-1.177 2.856,-1.165 2.859,-1.153 2.861,-1.140 2.862,-1.128 2.862,-1.115 2.862,-1.102 2.861,-1.090 2.859,-1.078 2.856,-1.065 2.853,-1.053 2.848,-1.041 2.843,-1.030 2.838,-1.019 2.831,-1.008 2.824,-0.998 2.816,-0.988 2.808,-0.978 2.799,-0.969 2.790,-0.961 2.780,-0.953 2.773,-0.948 2.769,-0.946 2.758,-0.939 2.673,-0.885 2.659,-0.877 2.654,-0.874 2.632,-0.860 2.613,-0.848 2.560,-0.815 2.536,-0.799 2.525,-0.793 2.519,-0.789 2.508,-0.784 2.496,-0.779 2.485,-0.774 2.473,-0.771 2.460,-0.768 2.448,-0.766 2.435,-0.765 2.423,-0.765 2.410,-0.765 2.398,-0.766 2.385,-0.768 2.373,-0.771 2.361,-0.774 2.349,-0.779 2.338,-0.784 2.327,-0.789 2.316,-0.796 2.305,-0.803 2.295,-0.811 2.286,-0.819 2.277,-0.828 2.269,-0.837 2.261,-0.847 2.254,-0.857 2.248,-0.868 2.242,-0.879 2.237,-0.891 2.233,-0.903 2.229,-0.915 2.227,-0.927 2.225,-0.940 2.223,-0.952"/>
<polygon class="node-2" points="-2.777,2.731 -2.777,2.719 -2.775,2.706 -2.773,2.694 -2.771,2.682 -2.767,2.670 -2.763,2.658 -2.758,2.646 -2.752,2.635 -2.746,2.624 -2.739,2.614 -2.731,2.604 -2.723,2.594 -2.714,2.586 -2.705,2.577 -2.702,2.575 -2.694,2.569 -2.681,2.560 -2.565,2.477 -2.472,2.410 -2.455,2.398 -2.453,2.396 -2.444,2.390 -2.435,2.385 -2.426,2.380 -2.416,2.376 -2.406,2.373 -2.395,2.370 -2.385,2.368 -2.374,2.367 -2.363,2.367 -2.352,2.367 -2.341,2.369 -2.329,2.371 -2.318,2.373 -2.307,2.377 -2.296,2.381 -2.285,2.385 -2.274,2.391 -2.264,2.397 -2.254,2.404 -2.244,2.411 -2.234,2.419 -2.225,2.427 -2.216,2.436 -2.208,2.446 -2.200,2.456 -2.193,2.466 -2.186,2.477 -2.180,2.487 -2.175,2.499 -2.170,2.510 -2.166,2.522 -2.162,2.534 -2.159,2.545 -2.157,2.557 -2.155,2.569 -2.155,2.581 -2.155,2.593 -2.155,2.604 -2.156,2.616 -2.158,2.627 -2.161,2.638 -2.164,2.648 -2.168,2.659 -2.173,2.668 -2.178,2.678 -2.184,2.687 -2.191,2.695 -2.198,2.703 -2.205,2.710 -2.214,2.717 -2.219,2.721 -2.227,2.727 -2.238,2.735 -2.333,2.802 -2.448,2.885 -2.460,2.894 -2.469,2.900 -2.470,2.900 -2.481,2.906 -2.492,2.912 -2.504,2.917 -2.515,2.921 -2.527,2.925 -2.540,2.928 -2.552,2.930 -2.565,2.931 -2.577,2.931 -2.590,2.931 -2.602,2.930 -2.615,2.928 -2.627,2.925 -2.639,2.921 -2.651,2.917 -2.662,2.912 -2.673,2.906 -2.684,2.900 -2.695,2.893 -2.705,2.885 -2.714,2.877 -2.723,2.868 -2.731,2.859 -2.739,2.849 -2.746,2.838 -2.752,2.828 -2.758,2.816 -2.763,2.805 -2.767,2.793 -2.771,2.781 -2.773,2.769 -2.775,2.756 -2.777,2.744"/>
<polygon class="node-3" points="-3.282,0.264 -3.281,0.252 -3.280,0.239 -3.278,0.227 -3.275,0.215 -3.272,0.203 -3.267,0.191 -3.262,0.179 -3.257,0.168 -3.250,0.157 -3.243,0.147 -3.239,0.142 -3.236,0.137 -3.232,0.132 -3.227,0.127 -3.223,0.123 -3.220,0.120 -3.214,0.115 -3.210,0.111 -3.188,0.093 -3.160,0.069 -3.128,0.042 -3.124,0.039 -3.120,0.036 -3.118,0.034 -3.108,0.027 -3.092,0.017 -3.081,0.012 -3.070,0.007 -3.058,0.002 -3.046,-0.001 -3.034,-0.004 -3.021,-0.006 -3.009,-0.007 -2.996,-0.007 -2.984,-0.007 -2.971,-0.006 -2.959,-0.004 -2.946,-0.001 -2.934,0.002 -2.923,0.007 -2.911,0.012 -2.900,0.017 -2.889,0.024 -2.879,0.031 -2.869,0.039 -2.859,0.047 -2.850,0.056 -2.842,0.065 -2.834,0.075 -2.827,0.085 -2.821,0.096 -2.815,0.107 -2.810,0.119 -2.806,0.131 -2.802,0.143 -2.800,0.155 -2.798,0.168 -2.797,0.180 -2.796,0.193 -2.797,0.205 -2.798,0.218 -2.800,0.230 -2.802,0.242 -2.806,0.254 -2.810,0.266 -2.815,0.278 -2.821,0.289 -2.827,0.300 -2.834,0.310 -2.842,0.320 -2.849,0.327 -2.857,0.336 -2.866,0.345 -2.871,0.349 -2.904,0.376 -2.931,0.399 -2.939,0.406 -2.951,0.416 -2.955,0.419 -2.958,0.422 -2.961,0.423 -2.964,0.426 -2.968,0.429 -2.974,0.433 -2.979,0.436 -2.985,0.439 -2.996,0.445 -3.008,0.450 -3.020,0.454 -3.032,0.458 -3.044,0.461 -3.057,0.463 -3.069,0.464 -3.082,0.464 -3.094,0.464 -3.107,0.463 -3.119,0.461 -3.131,0.458 -3.143,0.454 -3.155,0.450 -3.167,0.445 -3.178,0.439 -3.189,0.433 -3.199,0.426 -3.209,0.418 -3.218,0.410 -3.227,0.401 -3.236,0.392 -3.243,0.382 -3.250,0.371 -3.257,0.361 -3.262,0.349 -3.267,0.338 -3.272,0.326 -3.275,0.314 -3.278,0.302 -3.280,0.289 -3.281,0.277"/>
<polygon class="node-4" points="2.485,-1.141 2.485,-1.153 2.486,-1.165 2.488,-1.176 2.490,-1.188 2.493,-1.199 2.497,-1.209 2.501,-1.220 2.506,-1.230 2.512,-1.239 2.518,-1.248 2.525,-1.257 2.532,-1.265 2.540,-1.272 2.549,-1.279 2.557,-1.285 2.560,-1.287 2.573,-1.295 2.590,-1.306 2.628,-1.330 2.721,-1.388 2.752,-1.408 2.759,-1.412 2.797,-1.436 2.806,-1.441 2.817,-1.446 2.828,-1.451 2.840,-1.456 2.852,-1.459 2.865,-1.462 2.877,-1.464 2.889,-1.465 2.902,-1.465 2.915,-1.465 2.927,-1.464 2.939,-1.462 2.952,-1.459 2.964,-1.456 2.976,-1.451 2.987,-1.446 2.998,-1.441 3.009,-1.434 3.019,-1.427 3.029,-1.420 3.039,-1.411 3.048,-1.402 3.056,-1.393 3.064,-1.383 3.071,-1.373 3.077,-1.362 3.083,-1.351 3.088,-1.339 3.092,-1.327 3.096,-1.315 3.098,-1.303 3.100,-1.291 3.102,-1.278 3.102,-1.266 3.102,-1.253 3.100,-1.240 3.098,-1.228 3.096,-1.216 3.092,-1.204 3.088,-1.192 3.083,-1.180 3.077,-1.169 3.071,-1.158 3.064,-1.148 3.056,-1.138 3.048,-1.129 3.039,-1.120 3.029,-1.111 3.019,-1.104 3.016,-1.101 3.008,-1.096 3.007,-1.095 2.973,-1.074 2.965,-1.069 2.934,-1.050 2.841,-0.991 2.802,-0.967 2.785,-0.956 2.774,-0.949 2.772,-0.948 2.763,-0.942 2.753,-0.938 2.743,-0.934 2.733,-0.930 2.722,-0.928 2.712,-0.926 2.701,-0.925 2.690,-0.924 2.678,-0.925 2.667,-0.926 2.656,-0.928 2.644,-0.930 2.633,-0.934 2.622,-0.938 2.611,-0.943 2.601,-0.948 2.590,-0.954 2.580,-0.961 2.570,-0.969 2.561,-0.977 2.552,-0.985 2.543,-0.994 2.535,-1.004 2.528,-1.014 2.521,-1.024 2.514,-1.035 2.508,-1.046 2.503,-1.057 2.498,-1.069 2.494,-1.081 2.491,-1.093 2.489,-1.105 2.487,-1.117 2.485,-1.129"/>
<polygon class="node-5" points="-3.801,3.012 -3.800,2.999 -3.799,2.987 -3.797,2.974 -3.794,2.962 -3.791,2.950 -3.787,2.938 -3.782,2.927 -3.776,2.916 -3.770,2.905 -3.763,2.894 -3.755,2.884 -3.747,2.875 -3.738,2.866 -3.728,2.858 -3.718,2.850 -3.708,2.843 -3.697,2.837 -3.686,2.831 -3.674,2.826 -3.663,2.822 -3.648,2.817 -3.643,2.816 -3.618,2.809 -3.459,2.766 -3.321,2.728 -3.255,2.710 -3.193,2.693 -3.147,2.680 -3.141,2.679 -3.139,2.678 -3.126,2.675 -3.114,2.673 -3.102,2.672 -3.089,2.672 -3.076,2.672 -3.064,2.673 -3.051,2.675 -3.039,2.678 -3.027,2.681 -3.015,2.686 -3.004,2.691 -2.993,2.696 -2.982,2.703 -2.971,2.710 -2.962,2.718 -2.952,2.726 -2.943,2.735 -2.935,2.744 -2.927,2.754 -2.920,2.764 -2.914,2.775 -2.908,2.786 -2.903,2.798 -2.899,2.810 -2.895,2.822 -2.893,2.834 -2.891,2.847 -2.889,2.859 -2.889,2.872 -2.889,2.884 -2.891,2.897 -2.893,2.909 -2.895,2.921 -2.899,2.933 -2.903,2.945 -2.908,2.957 -2.914,2.968 -2.920,2.979 -2.927,2.989 -2.935,2.999 -2.943,3.008 -2.952,3.017 -2.962,3.026 -2.971,3.033 -2.982,3.040 -2.993,3.047 -3.004,3.052 -3.015,3.057 -3.027,3.062 -3.037,3.065 -3.042,3.066 -3.087,3.078 -3.149,3.095 -3.215,3.114 -3.353,3.151 -3.512,3.195 -3.538,3.202 -3.543,3.203 -3.551,3.206 -3.563,3.208 -3.576,3.210 -3.588,3.211 -3.601,3.212 -3.613,3.211 -3.626,3.210 -3.638,3.208 -3.651,3.206 -3.663,3.202 -3.674,3.198 -3.686,3.193 -3.697,3.187 -3.708,3.181 -3.718,3.174 -3.728,3.166 -3.738,3.158 -3.747,3.149 -3.755,3.139 -3.763,3.129 -3.770,3.119 -3.776,3.108 -3.782,3.097 -3.787,3.085 -3.791,3.074 -3.794,3.062 -3.797,3.049 -3.799,3.037 -3.800,3.024"/>
<polygon class="node-6" points="2.444,1.421 2.445,1.408 2.446,1.396 2.448,1.383 2.451,1.371 2.454,1.359 2.458,1.347 2.463,1.335 2.469,1.324 2.476,1.313 2.483,1.303 2.490,1.293 2.499,1.284 2.507,1.275 2.517,1.267 2.527,1.259 2.537,1.252 2.548,1.245 2.559,1.240 2.571,1.235 2.583,1.230 2.600,1.225 2.687,1.198 2.802,1.163 2.969,1.112 3.001,1.102 3.043,1.089 3.049,1.087 3.056,1.085 3.068,1.083 3.081,1.081 3.093,1.079 3.106,1.079 3.118,1.079 3.131,1.081 3.143,1.083 3.155,1.085 3.167,1.089 3.179,1.093 3.191,1.098 3.202,1.104 3.213,1.110 3.223,1.117 3.233,1.125 3.242,1.133 3.251,1.142 3.260,1.152 3.267,1.161 3.274,1.172 3.281,1.183 3.287,1.194 3.292,1.205 3.296,1.217 3.299,1.229 3.302,1.241 3.304,1.254 3.305,1.266 3.306,1.279 3.305,1.292 3.304,1.304 3.302,1.316 3.299,1.329 3.296,1.341 3.292,1.353 3.287,1.364 3.281,1.375 3.274,1.386 3.267,1.396 3.260,1.406 3.251,1.416 3.242,1.425 3.233,1.433 3.223,1.441 3.213,1.448 3.202,1.454 3.191,1.460 3.179,1.465 3.167,1.469 3.159,1.472 3.118,1.484 3.086,1.494 2.920,1.545 2.805,1.581 2.716,1.608 2.711,1.609 2.705,1.611 2.694,1.614 2.682,1.617 2.669,1.619 2.657,1.620 2.644,1.621 2.632,1.620 2.619,1.619 2.607,1.617 2.595,1.614 2.583,1.611 2.571,1.606 2.559,1.601 2.548,1.596 2.537,1.589 2.527,1.582 2.517,1.575 2.507,1.566 2.499,1.557 2.490,1.548 2.483,1.538 2.476,1.528 2.469,1.517 2.463,1.506 2.458,1.494 2.454,1.482 2.451,1.470 2.448,1.458 2.446,1.446 2.445,1.433"/>
<polygon class="node-7" points="2.974,-1.727 2.974,-1.740 2.975,-1.752 2.977,-1.765 2.980,-1.777 2.984,-1.789 2.988,-1.801 2.993,-1.812 2.998,-1.824 3.001,-1.829 3.004,-1.833 3.270,-2.286 3.277,-2.296 3.284,-2.307 3.291,-2.317 3.300,-2.326 3.308,-2.335 3.318,-2.343 3.328,-2.351 3.338,-2.358 3.349,-2.364 3.360,-2.370 3.372,-2.375 3.384,-2.379 3.396,-2.383 3.408,-2.385 3.420,-2.387 3.433,-2.389 3.445,-2.389 3.458,-2.389 3.470,-2.387 3.483,-2.385 3.495,-2.383 3.507,-2.379 3.519,-2.375 3.530,-2.370 3.542,-2.364 3.552,-2.358 3.563,-2.351 3.573,-2.343 3.582,-2.335 3.591,-2.326 3.599,-2.317 3.607,-2.307 3.614,-2.296 3.620,-2.285 3.626,-2.274 3.631,-2.263 3.635,-2.251 3.639,-2.239 3.642,-2.227 3.644,-2.214 3.645,-2.202 3.645,-2.189 3.645,-2.177 3.644,-2.164 3.642,-2.152 3.639,-2.139 3.635,-2.127 3.631,-2.116 3.626,-2.104 3.620,-2.093 3.615,-2.083 3.349,-1.631 3.346,-1.626 3.342,-1.620 3.335,-1.610 3.328,-1.600 3.319,-1.590 3.310,-1.582 3.301,-1.573 3.291,-1.566 3.281,-1.559 3.270,-1.552 3.259,-1.546 3.247,-1.541 3.235,-1.537 3.223,-1.534 3.211,-1.531 3.199,-1.529 3.186,-1.528 3.174,-1.527 3.161,-1.528 3.149,-1.529 3.136,-1.531 3.124,-1.534 3.112,-1.537 3.100,-1.541 3.089,-1.546 3.077,-1.552 3.067,-1.559 3.056,-1.566 3.046,-1.573 3.037,-1.582 3.028,-1.590 3.020,-1.600 3.012,-1.610 3.005,-1.620 2.998,-1.631 2.993,-1.642 2.988,-1.654 2.984,-1.666 2.980,-1.678 2.977,-1.690 2.975,-1.702 2.974,-1.715"/>
<polygon class="node-8" points="-3.155,2.735 -3.155,2.727 -3.154,2.719 -3.154,2.712 -3.153,2.705 -3.151,2.699 -3.150,2.694 -3.148,2.689 -3.146,2.685 -3.144,2.682 -3.141,2.680 -3.139,2.678 -3.136,2.677 -3.127,2.675 -3.106,2.669 -3.070,2.659 -2.876,2.606 -2.845,2.597 -2.707,2.559 -2.676,2.551 -2.671,2.550 -2.667,2.549 -2.662,2.547 -2.655,2.546 -2.643,2.545 -2.613,2.544 -2.601,2.545 -2.577,2.545 -2.566,2.548 -2.554,2.552 -2.544,2.556 -2.504,2.576 -2.487,2.589 -2.464,2.611 -2.457,2.618 -2.432,2.652 -2.416,2.679 -2.406,2.710 -2.400,2.754 -2.399,2.765 -2.399,2.777 -2.400,2.789 -2.402,2.801 -2.409,2.824 -2.419,2.846 -2.441,2.876 -2.450,2.885 -2.460,2.893 -2.470,2.900 -2.492,2.912 -2.515,2.921 -2.530,2.926 -2.601,2.945 -2.739,2.983 -2.770,2.992 -2.964,3.045 -3.000,3.055 -3.020,3.060 -3.032,3.063 -3.035,3.063 -3.039,3.063 -3.042,3.062 -3.046,3.059 -3.050,3.057 -3.054,3.053 -3.058,3.049 -3.062,3.044 -3.066,3.038 -3.071,3.031 -3.075,3.024 -3.079,3.017 -3.084,3.009 -3.088,3.000 -3.093,2.991 -3.097,2.981 -3.102,2.971 -3.106,2.960 -3.110,2.949 -3.114,2.938 -3.118,2.926 -3.122,2.915 -3.126,2.903 -3.129,2.891 -3.133,2.879 -3.136,2.867 -3.139,2.854 -3.141,2.842 -3.144,2.830 -3.146,2.819 -3.148,2.807 -3.150,2.796 -3.151,2.785 -3.153,2.774 -3.154,2.764 -3.154,2.754 -3.155,2.744"/>
<polygon class="node-9" points="0.236,-1.011 0.236,-1.024 0.238,-1.036 0.240,-1.049 0.242,-1.061 0.245,-1.069 0.248,-1.080 0.249,-1.082 0.253,-1.095 0.273,-1.149 0.292,-1.204 0.311,-1.256 0.313,-1.262 0.315,-1.269 0.320,-1.279 0.321,-1.281 0.327,-1.292 0.333,-1.303 0.340,-1.313 0.348,-1.323 0.356,-1.333 0.365,-1.342 0.374,-1.350 0.384,-1.358 0.395,-1.365 0.405,-1.371 0.417,-1.377 0.428,-1.382 0.440,-1.386 0.452,-1.390 0.464,-1.392 0.477,-1.394 0.489,-1.396 0.502,-1.396 0.514,-1.396 0.527,-1.394 0.539,-1.392 0.552,-1.390 0.564,-1.386 0.575,-1.382 0.587,-1.377 0.598,-1.371 0.609,-1.365 0.619,-1.358 0.629,-1.350 0.639,-1.342 0.648,-1.333 0.656,-1.323 0.664,-1.313 0.671,-1.303 0.677,-1.292 0.683,-1.281 0.688,-1.270 0.692,-1.258 0.695,-1.246 0.698,-1.233 0.700,-1.221 0.701,-1.209 0.702,-1.196 0.701,-1.183 0.700,-1.171 0.698,-1.159 0.695,-1.146 0.692,-1.134 0.689,-1.127 0.688,-1.122 0.669,-1.070 0.649,-1.014 0.630,-0.961 0.625,-0.947 0.625,-0.946 0.621,-0.936 0.617,-0.926 0.611,-0.915 0.605,-0.904 0.598,-0.894 0.590,-0.884 0.582,-0.874 0.573,-0.866 0.563,-0.857 0.553,-0.850 0.543,-0.843 0.532,-0.836 0.521,-0.830 0.509,-0.825 0.498,-0.821 0.486,-0.818 0.473,-0.815 0.461,-0.813 0.448,-0.812 0.436,-0.811 0.423,-0.812 0.411,-0.813 0.398,-0.815 0.386,-0.818 0.374,-0.821 0.362,-0.825 0.351,-0.830 0.340,-0.836 0.329,-0.843 0.318,-0.850 0.308,-0.857 0.299,-0.866 0.290,-0.874 0.282,-0.884 0.274,-0.894 0.267,-0.904 0.261,-0.915 0.255,-0.926 0.250,-0.938 0.246,-0.950 0.242,-0.962 0.240,-0.974 0.238,-0.986 0.236,-0.999"/>
<polygon class="node-10" points="2.722,-1.288 2.724,-1.311 2.725,-1.323 2.727,-1.335 2.742,-1.381 2.746,-1.393 2.747,-1.396 2.752,-1.404 2.757,-1.413 2.985,-1.801 2.990,-1.810 2.993,-1.815 2.998,-1.823 2.999,-1.825 3.002,-1.827 3.004,-1.829 3.008,-1.830 3.012,-1.831 3.016,-1.831 3.022,-1.831 3.028,-1.830 3.034,-1.829 3.041,-1.828 3.049,-1.826 3.057,-1.823 3.065,-1.821 3.074,-1.818 3.083,-1.814 3.093,-1.810 3.103,-1.806 3.113,-1.802 3.123,-1.797 3.134,-1.792 3.145,-1.787 3.155,-1.781 3.166,-1.775 3.177,-1.769 3.188,-1.763 3.199,-1.757 3.210,-1.750 3.220,-1.744 3.231,-1.737 3.241,-1.730 3.251,-1.723 3.260,-1.716 3.269,-1.710 3.278,-1.703 3.286,-1.696 3.294,-1.690 3.302,-1.683 3.309,-1.677 3.315,-1.671 3.321,-1.665 3.326,-1.660 3.331,-1.654 3.335,-1.649 3.338,-1.644 3.341,-1.640 3.343,-1.636 3.344,-1.632 3.345,-1.628 3.345,-1.625 3.344,-1.622 3.338,-1.612 3.335,-1.608 3.330,-1.598 3.102,-1.210 3.077,-1.169 3.071,-1.158 3.063,-1.148 3.056,-1.138 3.048,-1.129 3.039,-1.120 3.019,-1.104 2.998,-1.091 2.987,-1.085 2.951,-1.075 2.939,-1.074 2.914,-1.076 2.890,-1.078 2.868,-1.085 2.846,-1.093 2.808,-1.118 2.779,-1.150 2.772,-1.158 2.759,-1.175 2.754,-1.184 2.728,-1.244"/>
<polygon class="node-11" points="-2.484,-2.545 -2.484,-2.558 -2.483,-2.570 -2.481,-2.583 -2.478,-2.595 -2.474,-2.607 -2.470,-2.619 -2.465,-2.630 -2.459,-2.641 -2.453,-2.652 -2.446,-2.663 -2.438,-2.673 -2.430,-2.682 -2.421,-2.691 -2.412,-2.699 -2.402,-2.707 -2.391,-2.714 -2.381,-2.720 -2.369,-2.726 -2.358,-2.731 -2.346,-2.735 -2.334,-2.739 -2.322,-2.741 -2.309,-2.743 -2.297,-2.745 -2.284,-2.745 -2.272,-2.745 -2.259,-2.743 -2.247,-2.741 -2.234,-2.739 -2.222,-2.735 -2.211,-2.731 -2.199,-2.726 -2.188,-2.720 -2.177,-2.714 -2.167,-2.707 -2.157,-2.699 -2.147,-2.691 -2.138,-2.682 -2.130,-2.673 -2.122,-2.663 -2.115,-2.652 -2.111,-2.644 -2.106,-2.636 -1.994,-2.417 -1.950,-2.330 -1.927,-2.284 -1.920,-2.271 -1.915,-2.259 -1.911,-2.247 -1.908,-2.235 -1.905,-2.223 -1.903,-2.211 -1.902,-2.198 -1.901,-2.186 -1.902,-2.173 -1.903,-2.161 -1.905,-2.148 -1.908,-2.136 -1.911,-2.124 -1.915,-2.112 -1.920,-2.100 -1.926,-2.089 -1.932,-2.078 -1.939,-2.068 -1.947,-2.058 -1.955,-2.049 -1.964,-2.040 -1.974,-2.032 -1.984,-2.024 -1.994,-2.017 -2.005,-2.010 -2.016,-2.005 -2.028,-2.000 -2.039,-1.995 -2.051,-1.992 -2.064,-1.989 -2.076,-1.987 -2.089,-1.986 -2.101,-1.986 -2.114,-1.986 -2.126,-1.987 -2.139,-1.989 -2.151,-1.992 -2.163,-1.995 -2.175,-2.000 -2.186,-2.005 -2.197,-2.010 -2.208,-2.017 -2.219,-2.024 -2.229,-2.032 -2.238,-2.040 -2.247,-2.049 -2.255,-2.058 -2.263,-2.068 -2.270,-2.078 -2.276,-2.089 -2.279,-2.095 -2.283,-2.101 -2.307,-2.149 -2.351,-2.235 -2.462,-2.454 -2.466,-2.463 -2.470,-2.472 -2.474,-2.483 -2.478,-2.495 -2.481,-2.508 -2.483,-2.520 -2.484,-2.533"/>
<polygon class="node-12" points="-2.690,2.896 -2.689,2.877 -2.644,2.563 -2.637,2.546 -2.613,2.544 -2.601,2.545 -2.577,2.545 -2.566,2.548 -2.554,2.552 -2.544,2.556 -2.504,2.576 -2.487,2.589 -2.407,2.654 -2.394,2.665 -2.384,2.676 -2.374,2.688 -2.365,2.702 -2.362,2.706 -2.351,2.726 -2.290,2.835 -2.226,2.950 -2.193,3.009 -2.155,3.078 -2.152,3.082 -2.150,3.086 -2.147,3.093 -2.141,3.104 -2.136,3.115 -2.132,3.127 -2.128,3.139 -2.125,3.152 -2.124,3.164 -2.122,3.176 -2.122,3.189 -2.122,3.202 -2.124,3.214 -2.125,3.226 -2.128,3.239 -2.132,3.251 -2.136,3.263 -2.141,3.274 -2.147,3.285 -2.153,3.296 -2.160,3.306 -2.168,3.316 -2.176,3.326 -2.185,3.335 -2.194,3.343 -2.204,3.351 -2.215,3.358 -2.226,3.364 -2.237,3.370 -2.248,3.375 -2.260,3.379 -2.272,3.383 -2.284,3.385 -2.297,3.387 -2.309,3.389 -2.322,3.389 -2.334,3.389 -2.347,3.387 -2.359,3.385 -2.372,3.383 -2.384,3.379 -2.395,3.375 -2.407,3.370 -2.418,3.364 -2.429,3.358 -2.439,3.351 -2.449,3.343 -2.459,3.335 -2.468,3.326 -2.476,3.316 -2.484,3.306 -2.491,3.296 -2.497,3.285 -2.499,3.283 -2.502,3.277 -2.504,3.273 -2.542,3.204 -2.576,3.145 -2.639,3.030 -2.647,3.017 -2.675,2.966 -2.680,2.958 -2.684,2.951 -2.688,2.939 -2.689,2.927 -2.690,2.916"/>
<polygon class="node-13" points="3.005,1.197 3.005,1.186 3.005,1.176 3.006,1.166 3.007,1.156 3.009,1.147 3.011,1.138 3.014,1.130 3.017,1.123 3.020,1.116 3.024,1.109 3.028,1.104 3.032,1.099 3.036,1.095 3.041,1.091 3.046,1.088 3.052,1.086 3.089,1.075 3.139,1.059 3.291,1.013 3.509,0.946 3.517,0.944 3.530,0.941 3.542,0.939 3.554,0.938 3.567,0.937 3.580,0.938 3.592,0.939 3.604,0.941 3.617,0.944 3.629,0.947 3.641,0.951 3.652,0.956 3.663,0.962 3.674,0.969 3.684,0.976 3.694,0.983 3.704,0.992 3.713,1.000 3.721,1.010 3.729,1.020 3.736,1.030 3.742,1.041 3.748,1.052 3.753,1.064 3.757,1.076 3.761,1.088 3.763,1.100 3.765,1.112 3.767,1.125 3.767,1.137 3.767,1.150 3.765,1.162 3.763,1.175 3.761,1.187 3.757,1.199 3.753,1.211 3.748,1.222 3.742,1.234 3.736,1.244 3.729,1.255 3.721,1.265 3.713,1.274 3.704,1.283 3.694,1.291 3.684,1.299 3.674,1.306 3.663,1.312 3.652,1.318 3.641,1.323 3.629,1.327 3.625,1.329 3.409,1.395 3.257,1.442 3.206,1.457 3.169,1.469 3.163,1.470 3.157,1.471 3.151,1.470 3.145,1.469 3.139,1.468 3.132,1.465 3.126,1.462 3.119,1.458 3.112,1.453 3.106,1.448 3.099,1.442 3.093,1.435 3.086,1.428 3.080,1.420 3.073,1.411 3.067,1.402 3.061,1.393 3.056,1.383 3.050,1.372 3.045,1.362 3.040,1.351 3.035,1.339 3.030,1.328 3.026,1.316 3.022,1.304 3.019,1.292 3.016,1.280 3.013,1.267 3.011,1.255 3.009,1.243 3.007,1.232 3.006,1.220 3.005,1.208"/>
<polygon class="node-14" points="-6.033,1.026 -6.033,1.014 -6.032,1.001 -6.030,0.989 -6.027,0.976 -6.023,0.964 -6.019,0.953 -6.014,0.941 -6.009,0.930 -6.002,0.919 -5.995,0.909 -5.987,0.899 -5.979,0.889 -5.970,0.880 -5.961,0.872 -5.951,0.864 -5.940,0.857 -5.930,0.851 -5.918,0.845 -5.907,0.840 -5.895,0.836 -5.883,0.832 -5.871,0.830 -5.858,0.828 -5.846,0.827 -5.833,0.826 -5.821,0.827 -5.809,0.828 -5.798,0.829 -5.769,0.832 -5.389,0.871 -5.360,0.874 -5.346,0.876 -5.330,0.877 -5.327,0.878 -5.314,0.880 -5.302,0.882 -5.290,0.886 -5.278,0.890 -5.267,0.895 -5.255,0.901 -5.245,0.907 -5.234,0.914 -5.224,0.922 -5.215,0.930 -5.206,0.939 -5.198,0.949 -5.190,0.959 -5.183,0.969 -5.177,0.980 -5.171,0.991 -5.166,1.002 -5.162,1.014 -5.158,1.026 -5.155,1.039 -5.153,1.051 -5.152,1.063 -5.152,1.076 -5.152,1.089 -5.153,1.101 -5.155,1.113 -5.158,1.126 -5.162,1.138 -5.166,1.150 -5.171,1.161 -5.177,1.172 -5.183,1.183 -5.190,1.193 -5.198,1.203 -5.206,1.213 -5.215,1.222 -5.224,1.230 -5.234,1.238 -5.245,1.245 -5.255,1.251 -5.267,1.257 -5.278,1.262 -5.290,1.266 -5.302,1.270 -5.314,1.272 -5.327,1.274 -5.339,1.276 -5.352,1.276 -5.364,1.276 -5.373,1.275 -5.386,1.273 -5.401,1.272 -5.430,1.269 -5.811,1.230 -5.839,1.227 -5.849,1.226 -5.858,1.224 -5.871,1.222 -5.883,1.220 -5.895,1.216 -5.907,1.212 -5.918,1.207 -5.930,1.201 -5.940,1.195 -5.951,1.188 -5.961,1.180 -5.970,1.172 -5.979,1.163 -5.987,1.154 -5.995,1.144 -6.002,1.133 -6.009,1.122 -6.014,1.111 -6.019,1.100 -6.023,1.088 -6.027,1.076 -6.030,1.064 -6.032,1.051 -6.033,1.039"/>
<polygon class="node-15" points="-2.499,3.273 -2.490,3.252 -2.477,3.234 -2.458,3.214 -2.451,3.208 -2.435,3.194 -2.426,3.187 -2.417,3.180 -2.407,3.173 -2.387,3.160 -2.377,3.153 -2.355,3.140 -2.333,3.128 -2.322,3.123 -2.311,3.117 -2.300,3.112 -2.278,3.103 -2.267,3.099 -2.227,3.086 -2.185,3.079 -2.179,3.079 -2.162,3.081 -2.157,3.083 -2.154,3.085 -2.150,3.087 -2.148,3.090 -2.144,3.097 -2.139,3.105 -2.132,3.119 -2.109,3.160 -1.989,3.375 -1.940,3.462 -1.897,3.540 -1.895,3.544 -1.891,3.550 -1.886,3.562 -1.881,3.573 -1.876,3.585 -1.873,3.597 -1.870,3.609 -1.868,3.622 -1.867,3.634 -1.867,3.647 -1.867,3.659 -1.868,3.672 -1.870,3.684 -1.873,3.696 -1.876,3.708 -1.881,3.720 -1.886,3.732 -1.891,3.743 -1.898,3.754 -1.905,3.764 -1.913,3.774 -1.921,3.784 -1.930,3.792 -1.939,3.801 -1.949,3.808 -1.959,3.815 -1.970,3.822 -1.981,3.828 -1.993,3.833 -2.005,3.837 -2.017,3.840 -2.029,3.843 -2.042,3.845 -2.054,3.846 -2.067,3.847 -2.079,3.846 -2.092,3.845 -2.104,3.843 -2.116,3.840 -2.128,3.837 -2.140,3.833 -2.152,3.828 -2.163,3.822 -2.174,3.815 -2.184,3.808 -2.194,3.801 -2.203,3.792 -2.212,3.784 -2.221,3.774 -2.228,3.764 -2.235,3.754 -2.243,3.740 -2.246,3.735 -2.290,3.657 -2.338,3.570 -2.458,3.355 -2.481,3.314 -2.489,3.300 -2.494,3.290 -2.496,3.288 -2.498,3.281"/>
<polygon class="node-16" points="2.722,-1.288 2.724,-1.311 2.725,-1.323 2.727,-1.335 2.732,-1.346 2.741,-1.367 2.758,-1.370 3.042,-1.328 3.096,-1.319 3.128,-1.309 3.132,-1.307 3.147,-1.292 3.167,-1.271 3.311,-1.110 3.920,-0.436 3.978,-0.371 3.987,-0.362 4.008,-0.338 4.022,-0.322 4.030,-0.312 4.037,-0.302 4.043,-0.291 4.049,-0.280 4.054,-0.268 4.058,-0.257 4.062,-0.245 4.064,-0.232 4.066,-0.220 4.067,-0.207 4.068,-0.195 4.067,-0.182 4.066,-0.170 4.064,-0.157 4.062,-0.145 4.058,-0.133 4.054,-0.121 4.049,-0.110 4.043,-0.099 4.037,-0.088 4.030,-0.077 4.022,-0.067 4.014,-0.058 4.005,-0.049 3.995,-0.041 3.985,-0.033 3.975,-0.026 3.964,-0.020 3.953,-0.014 3.941,-0.009 3.930,-0.005 3.918,-0.001 3.905,0.001 3.893,0.003 3.880,0.005 3.868,0.005 3.855,0.005 3.843,0.003 3.830,0.001 3.818,-0.001 3.806,-0.005 3.794,-0.009 3.783,-0.014 3.772,-0.020 3.761,-0.026 3.750,-0.033 3.740,-0.041 3.731,-0.049 3.722,-0.058 3.709,-0.073 3.691,-0.092 3.681,-0.104 3.623,-0.168 3.014,-0.843 2.812,-1.067 2.799,-1.081 2.788,-1.096 2.778,-1.115 2.728,-1.244"/>
<polygon class="node-17" points="-6.515,0.976 -6.515,0.964 -6.513,0.951 -6.511,0.939 -6.509,0.926 -6.505,0.914 -6.501,0.903 -6.496,0.891 -6.490,0.880 -6.484,0.869 -6.477,0.859 -6.469,0.849 -6.461,0.839 -6.452,0.830 -6.442,0.822 -6.432,0.814 -6.422,0.807 -6.411,0.801 -6.400,0.795 -6.389,0.790 -6.377,0.786 -6.365,0.783 -6.352,0.780 -6.340,0.778 -6.328,0.777 -6.315,0.776 -6.302,0.777 -6.290,0.778 -6.280,0.779 -6.251,0.782 -6.246,0.782 -5.957,0.812 -5.895,0.819 -5.861,0.822 -5.827,0.826 -5.817,0.827 -5.809,0.829 -5.807,0.832 -5.805,0.835 -5.798,0.868 -5.796,0.893 -5.796,0.913 -5.796,0.923 -5.796,0.934 -5.796,0.957 -5.801,1.018 -5.802,1.030 -5.803,1.043 -5.806,1.068 -5.808,1.080 -5.810,1.092 -5.816,1.126 -5.822,1.156 -5.825,1.165 -5.827,1.174 -5.832,1.190 -5.834,1.196 -5.839,1.208 -5.843,1.217 -5.846,1.220 -5.848,1.222 -5.852,1.225 -5.859,1.224 -5.869,1.224 -5.902,1.220 -5.936,1.217 -5.998,1.210 -6.287,1.180 -6.292,1.180 -6.321,1.177 -6.330,1.176 -6.340,1.175 -6.352,1.173 -6.365,1.170 -6.377,1.166 -6.389,1.162 -6.400,1.157 -6.411,1.151 -6.422,1.145 -6.432,1.138 -6.442,1.130 -6.452,1.122 -6.461,1.113 -6.469,1.104 -6.477,1.094 -6.484,1.083 -6.490,1.073 -6.496,1.061 -6.501,1.050 -6.505,1.038 -6.509,1.026 -6.511,1.014 -6.513,1.001 -6.515,0.989"/>
<polygon class="node-18" points="-3.367,0.336 -3.367,0.323 -3.365,0.311 -3.363,0.299 -3.361,0.286 -3.357,0.274 -3.353,0.262 -3.348,0.251 -3.342,0.240 -3.336,0.229 -3.329,0.219 -3.321,0.209 -3.318,0.205 -3.313,0.199 -3.310,0.196 -3.304,0.190 -3.301,0.187 -3.299,0.186 -3.293,0.180 -3.292,0.179 -3.278,0.168 -3.215,0.115 -3.212,0.113 -3.208,0.110 -3.206,0.108 -3.202,0.105 -3.192,0.098 -3.182,0.091 -3.171,0.086 -3.159,0.081 -3.148,0.077 -3.136,0.073 -3.124,0.070 -3.112,0.068 -3.099,0.067 -3.087,0.067 -3.075,0.067 -3.062,0.068 -3.050,0.070 -3.038,0.073 -3.026,0.076 -3.014,0.080 -3.002,0.085 -2.991,0.091 -2.980,0.097 -2.970,0.104 -2.960,0.112 -2.951,0.120 -2.942,0.129 -2.933,0.138 -2.925,0.148 -2.918,0.158 -2.912,0.169 -2.906,0.180 -2.900,0.192 -2.896,0.203 -2.892,0.215 -2.889,0.227 -2.887,0.240 -2.886,0.252 -2.885,0.265 -2.885,0.277 -2.886,0.289 -2.888,0.302 -2.890,0.314 -2.893,0.326 -2.897,0.338 -2.902,0.349 -2.907,0.360 -2.913,0.371 -2.920,0.381 -2.927,0.391 -2.935,0.400 -2.944,0.409 -2.951,0.416 -2.953,0.418 -2.958,0.422 -3.022,0.475 -3.034,0.485 -3.036,0.487 -3.038,0.489 -3.043,0.493 -3.050,0.498 -3.053,0.500 -3.060,0.505 -3.063,0.507 -3.071,0.511 -3.082,0.517 -3.094,0.522 -3.105,0.526 -3.117,0.530 -3.130,0.532 -3.142,0.534 -3.155,0.536 -3.167,0.536 -3.180,0.536 -3.192,0.534 -3.205,0.532 -3.217,0.530 -3.229,0.526 -3.241,0.522 -3.252,0.517 -3.263,0.511 -3.274,0.505 -3.285,0.498 -3.295,0.490 -3.304,0.482 -3.313,0.473 -3.321,0.463 -3.329,0.453 -3.336,0.443 -3.342,0.432 -3.348,0.421 -3.353,0.410 -3.357,0.398 -3.361,0.386 -3.363,0.373 -3.365,0.361 -3.367,0.349"/>
<polygon class="node-19" points="3.394,1.005 3.396,0.987 3.411,0.920 3.504,0.507 3.628,-0.039 3.631,-0.053 3.649,-0.132 3.649,-0.134 3.653,-0.140 3.920,-0.306 3.963,-0.326 3.995,-0.330 4.013,-0.331 4.030,-0.312 4.037,-0.302 4.043,-0.291 4.049,-0.280 4.054,-0.268 4.062,-0.245 4.064,-0.232 4.067,-0.207 4.067,-0.182 4.064,-0.157 4.063,-0.152 4.060,-0.138 4.057,-0.124 4.051,-0.098 3.894,0.595 3.783,1.088 3.765,1.168 3.757,1.199 3.748,1.222 3.736,1.244 3.728,1.255 3.721,1.265 3.713,1.274 3.704,1.283 3.684,1.299 3.663,1.312 3.652,1.318 3.640,1.323 3.629,1.327 3.616,1.329 3.603,1.328 3.591,1.324 3.578,1.318 3.557,1.299 3.533,1.270 3.504,1.224 3.407,1.048 3.397,1.026"/>
<polygon class="node-20" points="-5.449,0.897 -5.448,0.890 -5.447,0.876 -5.444,0.870 -5.419,0.838 -5.364,0.769 -5.267,0.645 -5.224,0.590 -5.166,0.516 -5.156,0.503 -5.150,0.496 -5.145,0.489 -5.136,0.480 -5.127,0.471 -5.118,0.463 -5.108,0.455 -5.098,0.448 -5.087,0.442 -5.076,0.436 -5.064,0.431 -5.052,0.427 -5.040,0.423 -5.028,0.420 -5.016,0.418 -5.003,0.417 -4.991,0.417 -4.978,0.417 -4.966,0.418 -4.953,0.420 -4.941,0.423 -4.929,0.427 -4.917,0.431 -4.906,0.436 -4.894,0.442 -4.884,0.448 -4.873,0.455 -4.863,0.463 -4.854,0.471 -4.845,0.480 -4.837,0.489 -4.829,0.499 -4.822,0.510 -4.815,0.520 -4.810,0.532 -4.805,0.543 -4.801,0.555 -4.797,0.567 -4.794,0.579 -4.792,0.592 -4.791,0.604 -4.791,0.617 -4.791,0.629 -4.792,0.642 -4.794,0.654 -4.797,0.667 -4.801,0.679 -4.805,0.690 -4.810,0.702 -4.815,0.713 -4.822,0.724 -4.829,0.734 -4.840,0.749 -4.852,0.764 -4.909,0.837 -4.953,0.892 -5.050,1.016 -5.162,1.158 -5.180,1.181 -5.183,1.185 -5.192,1.197 -5.198,1.203 -5.206,1.213 -5.215,1.222 -5.234,1.237 -5.245,1.245 -5.256,1.251 -5.267,1.257 -5.290,1.266 -5.302,1.269 -5.314,1.272 -5.327,1.274 -5.339,1.275 -5.352,1.276 -5.364,1.275 -5.446,0.921 -5.448,0.913 -5.449,0.905"/>
<polygon class="node-21" points="0.304,-1.203 0.304,-1.215 0.305,-1.227 0.307,-1.238 0.309,-1.250 0.313,-1.261 0.314,-1.264 0.316,-1.270 0.320,-1.280 0.321,-1.284 0.351,-1.368 0.357,-1.385 0.373,-1.430 0.375,-1.435 0.376,-1.440 0.380,-1.450 0.382,-1.454 0.384,-1.461 0.387,-1.466 0.393,-1.477 0.399,-1.488 0.406,-1.498 0.414,-1.508 0.422,-1.518 0.431,-1.526 0.440,-1.535 0.450,-1.542 0.461,-1.549 0.471,-1.556 0.483,-1.562 0.494,-1.567 0.506,-1.571 0.518,-1.574 0.530,-1.577 0.543,-1.579 0.555,-1.580 0.568,-1.581 0.580,-1.580 0.593,-1.579 0.605,-1.577 0.617,-1.574 0.629,-1.571 0.641,-1.567 0.653,-1.562 0.664,-1.556 0.675,-1.549 0.685,-1.542 0.695,-1.535 0.705,-1.526 0.713,-1.518 0.722,-1.508 0.729,-1.498 0.736,-1.488 0.743,-1.477 0.749,-1.466 0.754,-1.454 0.758,-1.442 0.761,-1.430 0.764,-1.418 0.766,-1.406 0.767,-1.393 0.768,-1.381 0.767,-1.368 0.766,-1.356 0.764,-1.343 0.761,-1.331 0.759,-1.323 0.757,-1.315 0.755,-1.312 0.754,-1.307 0.751,-1.300 0.749,-1.295 0.734,-1.251 0.728,-1.234 0.697,-1.149 0.696,-1.145 0.692,-1.133 0.688,-1.124 0.684,-1.114 0.678,-1.103 0.672,-1.093 0.665,-1.084 0.658,-1.075 0.650,-1.066 0.641,-1.058 0.632,-1.051 0.622,-1.044 0.612,-1.038 0.602,-1.032 0.591,-1.027 0.579,-1.023 0.568,-1.019 0.556,-1.016 0.544,-1.014 0.531,-1.012 0.519,-1.012 0.507,-1.012 0.494,-1.012 0.482,-1.014 0.469,-1.016 0.457,-1.019 0.445,-1.022 0.433,-1.027 0.422,-1.032 0.411,-1.037 0.400,-1.044 0.389,-1.050 0.379,-1.058 0.370,-1.066 0.361,-1.074 0.352,-1.083 0.345,-1.093 0.337,-1.103 0.331,-1.113 0.325,-1.124 0.320,-1.134 0.315,-1.146 0.311,-1.157 0.308,-1.168 0.306,-1.180 0.305,-1.192"/>
<polygon class="node-22" points="3.465,1.226 3.470,1.196 3.476,1.168 3.483,1.159 3.491,1.150 3.524,1.135 3.644,1.105 3.728,1.086 3.784,1.080 3.787,1.082 3.912,1.221 3.930,1.241 4.118,1.450 4.360,1.717 4.521,1.896 4.574,1.955 4.592,1.975 4.602,1.986 4.616,2.002 4.624,2.012 4.631,2.022 4.637,2.033 4.643,2.044 4.648,2.055 4.652,2.067 4.656,2.079 4.658,2.092 4.660,2.104 4.661,2.116 4.662,2.129 4.661,2.142 4.660,2.154 4.658,2.166 4.656,2.179 4.652,2.191 4.648,2.203 4.643,2.214 4.637,2.225 4.631,2.236 4.624,2.246 4.616,2.256 4.608,2.266 4.599,2.275 4.589,2.283 4.579,2.291 4.569,2.298 4.558,2.304 4.547,2.310 4.535,2.315 4.524,2.319 4.512,2.323 4.499,2.325 4.487,2.327 4.474,2.329 4.462,2.329 4.449,2.329 4.437,2.327 4.424,2.325 4.412,2.323 4.400,2.319 4.388,2.315 4.377,2.310 4.366,2.304 4.355,2.298 4.344,2.291 4.334,2.283 4.325,2.275 4.316,2.266 4.304,2.252 4.296,2.244 4.278,2.224 4.224,2.164 4.063,1.985 3.821,1.717 3.633,1.509 3.615,1.490 3.490,1.351 3.488,1.348 3.476,1.328 3.469,1.303 3.466,1.276"/>
<polygon class="node-23" points="-2.292,-2.142 -2.290,-2.172 -2.287,-2.182 -2.276,-2.212 -2.259,-2.242 -2.237,-2.269 -2.228,-2.277 -2.219,-2.285 -2.209,-2.293 -2.189,-2.307 -2.155,-2.325 -2.144,-2.330 -2.132,-2.334 -2.120,-2.337 -2.084,-2.345 -2.072,-2.346 -2.060,-2.346 -2.049,-2.346 -2.037,-2.346 -2.005,-2.340 -1.995,-2.336 -1.976,-2.328 -1.967,-2.323 -1.959,-2.318 -1.951,-2.312 -1.944,-2.305 -1.938,-2.298 -1.927,-2.283 -1.922,-2.275 -1.920,-2.270 -1.870,-2.172 -1.820,-2.075 -1.749,-1.934 -1.741,-1.920 -1.737,-1.911 -1.732,-1.900 -1.728,-1.888 -1.724,-1.876 -1.722,-1.864 -1.720,-1.851 -1.719,-1.839 -1.718,-1.826 -1.719,-1.814 -1.720,-1.801 -1.722,-1.789 -1.724,-1.776 -1.728,-1.764 -1.732,-1.753 -1.737,-1.741 -1.743,-1.730 -1.749,-1.719 -1.756,-1.709 -1.764,-1.699 -1.772,-1.689 -1.781,-1.680 -1.791,-1.672 -1.801,-1.664 -1.811,-1.657 -1.822,-1.651 -1.833,-1.645 -1.845,-1.640 -1.856,-1.636 -1.868,-1.632 -1.881,-1.630 -1.893,-1.628 -1.906,-1.627 -1.918,-1.626 -1.931,-1.627 -1.943,-1.628 -1.956,-1.630 -1.968,-1.632 -1.980,-1.636 -1.992,-1.640 -2.003,-1.645 -2.014,-1.651 -2.025,-1.657 -2.036,-1.664 -2.046,-1.672 -2.055,-1.680 -2.064,-1.689 -2.072,-1.699 -2.080,-1.709 -2.087,-1.719 -2.093,-1.730 -2.098,-1.740 -2.106,-1.754 -2.136,-1.814 -2.177,-1.894 -2.226,-1.991 -2.275,-2.087 -2.280,-2.096 -2.287,-2.114 -2.289,-2.123 -2.291,-2.133"/>
<polygon class="node-24" points="4.034,3.174 4.035,3.162 4.036,3.149 4.038,3.137 4.040,3.126 4.051,3.074 4.095,2.876 4.146,2.640 4.147,2.635 4.152,2.614 4.153,2.608 4.154,2.602 4.158,2.590 4.162,2.578 4.167,2.567 4.173,2.555 4.179,2.545 4.186,2.534 4.194,2.524 4.202,2.515 4.211,2.506 4.221,2.498 4.231,2.490 4.241,2.483 4.252,2.476 4.263,2.471 4.275,2.466 4.286,2.462 4.298,2.458 4.311,2.455 4.323,2.453 4.336,2.452 4.348,2.452 4.361,2.452 4.373,2.453 4.386,2.455 4.398,2.458 4.410,2.462 4.422,2.466 4.433,2.471 4.444,2.476 4.455,2.483 4.466,2.490 4.476,2.498 4.485,2.506 4.494,2.515 4.502,2.524 4.510,2.534 4.517,2.545 4.523,2.555 4.529,2.567 4.534,2.578 4.538,2.590 4.542,2.602 4.544,2.614 4.546,2.627 4.548,2.639 4.548,2.652 4.548,2.664 4.546,2.677 4.544,2.689 4.543,2.695 4.542,2.700 4.538,2.720 4.537,2.726 4.485,2.961 4.442,3.159 4.431,3.212 4.428,3.224 4.424,3.236 4.420,3.248 4.415,3.259 4.409,3.271 4.403,3.281 4.396,3.292 4.388,3.302 4.380,3.311 4.371,3.320 4.362,3.328 4.352,3.336 4.341,3.343 4.331,3.349 4.319,3.355 4.308,3.360 4.296,3.364 4.284,3.368 4.272,3.371 4.259,3.373 4.247,3.374 4.234,3.374 4.222,3.374 4.209,3.373 4.197,3.371 4.185,3.368 4.173,3.364 4.161,3.360 4.149,3.355 4.138,3.349 4.127,3.343 4.117,3.336 4.107,3.328 4.097,3.320 4.089,3.311 4.080,3.302 4.073,3.292 4.066,3.281 4.059,3.271 4.053,3.259 4.048,3.248 4.044,3.236 4.041,3.224 4.038,3.212 4.036,3.199 4.035,3.187"/>
<polygon class="node-25" points="-2.776,2.636 -2.776,2.592 -2.775,2.474 -2.771,2.038 -2.770,1.964 -2.768,1.729 -2.767,1.689 -2.767,1.668 -2.767,1.655 -2.765,1.643 -2.763,1.630 -2.761,1.618 -2.757,1.606 -2.753,1.594 -2.748,1.583 -2.742,1.572 -2.736,1.561 -2.729,1.550 -2.721,1.540 -2.713,1.531 -2.704,1.522 -2.694,1.514 -2.685,1.506 -2.674,1.499 -2.663,1.493 -2.652,1.487 -2.641,1.482 -2.629,1.478 -2.617,1.474 -2.604,1.471 -2.592,1.469 -2.580,1.468 -2.567,1.468 -2.554,1.468 -2.542,1.469 -2.530,1.471 -2.517,1.474 -2.505,1.478 -2.493,1.482 -2.482,1.487 -2.471,1.493 -2.460,1.499 -2.449,1.506 -2.440,1.514 -2.430,1.522 -2.421,1.531 -2.413,1.540 -2.405,1.550 -2.398,1.561 -2.392,1.572 -2.386,1.583 -2.381,1.594 -2.377,1.606 -2.373,1.618 -2.371,1.630 -2.369,1.643 -2.367,1.655 -2.367,1.668 -2.368,1.734 -2.370,1.968 -2.376,2.659 -2.377,2.684 -2.379,2.691 -2.387,2.703 -2.403,2.719 -2.447,2.746 -2.457,2.752 -2.467,2.757 -2.478,2.761 -2.489,2.765 -2.501,2.769 -2.569,2.790 -2.644,2.803 -2.668,2.805 -2.679,2.801 -2.699,2.781 -2.723,2.754 -2.748,2.719 -2.766,2.681 -2.769,2.672 -2.772,2.663 -2.774,2.654 -2.776,2.645"/>
<polygon class="node-26" points="1.673,-1.611 1.673,-1.623 1.675,-1.636 1.677,-1.648 1.679,-1.660 1.683,-1.673 1.687,-1.684 1.692,-1.696 1.698,-1.707 1.704,-1.718 1.711,-1.728 1.719,-1.738 1.727,-1.748 1.736,-1.756 1.746,-1.765 1.755,-1.773 1.766,-1.780 1.777,-1.786 1.788,-1.792 1.799,-1.797 1.811,-1.801 1.823,-1.804 1.836,-1.807 1.848,-1.809 1.860,-1.810 1.873,-1.811 1.886,-1.810 1.898,-1.809 1.910,-1.807 1.923,-1.804 1.935,-1.801 1.936,-1.801 1.998,-1.780 2.112,-1.742 2.729,-1.534 2.810,-1.507 2.833,-1.500 2.844,-1.496 2.867,-1.488 2.875,-1.485 2.882,-1.481 2.890,-1.476 2.921,-1.453 2.948,-1.423 2.968,-1.395 2.997,-1.344 2.997,-1.332 2.997,-1.320 2.969,-1.267 2.944,-1.228 2.898,-1.171 2.891,-1.161 2.883,-1.153 2.875,-1.145 2.839,-1.110 2.818,-1.097 2.801,-1.092 2.793,-1.091 2.785,-1.094 2.775,-1.097 2.601,-1.155 1.984,-1.362 1.871,-1.400 1.810,-1.421 1.799,-1.425 1.788,-1.430 1.777,-1.435 1.766,-1.442 1.755,-1.449 1.746,-1.457 1.736,-1.465 1.727,-1.474 1.719,-1.483 1.711,-1.493 1.704,-1.504 1.698,-1.514 1.692,-1.526 1.687,-1.537 1.683,-1.549 1.679,-1.561 1.677,-1.573 1.675,-1.586 1.673,-1.598"/>
<polygon class="node-27" points="4.154,2.605 4.155,2.598 4.157,2.588 4.164,2.557 4.165,2.552 4.182,2.473 4.220,2.301 4.231,2.249 4.235,2.233 4.244,2.191 4.245,2.188 4.249,2.183 4.514,2.018 4.575,1.992 4.592,1.990 4.607,1.993 4.616,2.002 4.624,2.012 4.630,2.022 4.643,2.044 4.648,2.055 4.652,2.067 4.658,2.092 4.660,2.104 4.661,2.116 4.662,2.129 4.661,2.142 4.660,2.154 4.657,2.171 4.655,2.182 4.652,2.198 4.622,2.334 4.611,2.386 4.573,2.558 4.556,2.637 4.555,2.642 4.548,2.673 4.546,2.684 4.545,2.688 4.544,2.690 4.543,2.692 4.541,2.694 4.538,2.695 4.534,2.697 4.530,2.698 4.525,2.699 4.519,2.700 4.513,2.700 4.506,2.701 4.498,2.701 4.490,2.701 4.481,2.700 4.472,2.700 4.462,2.699 4.452,2.698 4.441,2.697 4.430,2.696 4.419,2.694 4.407,2.692 4.395,2.691 4.383,2.688 4.371,2.686 4.359,2.684 4.347,2.681 4.334,2.679 4.322,2.676 4.310,2.673 4.298,2.670 4.286,2.667 4.275,2.663 4.264,2.660 4.253,2.657 4.242,2.654 4.232,2.650 4.223,2.647 4.214,2.643 4.205,2.640 4.197,2.637 4.190,2.633 4.183,2.630 4.177,2.627 4.171,2.624 4.167,2.620 4.163,2.618 4.159,2.615 4.157,2.612 4.155,2.609 4.154,2.607"/>
<polygon class="node-28" points="-5.158,0.514 -5.153,0.502 -5.146,0.491 -5.145,0.489 -5.101,0.434 -4.848,0.112 -4.830,0.089 -4.801,0.052 -4.798,0.048 -4.792,0.040 -4.784,0.030 -4.775,0.021 -4.766,0.012 -4.757,0.004 -4.747,-0.004 -4.737,-0.011 -4.726,-0.018 -4.715,-0.023 -4.703,-0.028 -4.691,-0.033 -4.679,-0.036 -4.667,-0.039 -4.655,-0.041 -4.642,-0.042 -4.630,-0.042 -4.617,-0.042 -4.605,-0.041 -4.592,-0.039 -4.580,-0.036 -4.568,-0.033 -4.556,-0.028 -4.544,-0.023 -4.533,-0.018 -4.522,-0.011 -4.512,-0.004 -4.502,0.004 -4.493,0.012 -4.484,0.021 -4.476,0.030 -4.468,0.040 -4.461,0.050 -4.454,0.061 -4.449,0.072 -4.444,0.084 -4.439,0.096 -4.436,0.108 -4.433,0.120 -4.431,0.133 -4.430,0.145 -4.430,0.158 -4.430,0.170 -4.431,0.183 -4.433,0.195 -4.436,0.207 -4.439,0.219 -4.444,0.231 -4.449,0.243 -4.454,0.254 -4.461,0.265 -4.468,0.275 -4.475,0.284 -4.483,0.294 -4.487,0.300 -4.516,0.336 -4.534,0.359 -4.786,0.681 -4.829,0.735 -4.834,0.740 -4.838,0.744 -4.851,0.755 -4.864,0.760 -4.871,0.762 -4.879,0.763 -4.895,0.764 -4.904,0.763 -4.964,0.749 -4.996,0.734 -5.006,0.728 -5.017,0.722 -5.027,0.715 -5.058,0.693 -5.094,0.659 -5.102,0.651 -5.117,0.632 -5.141,0.595 -5.156,0.560 -5.158,0.552"/>
<polygon class="node-29" points="-4.798,0.078 -4.795,0.052 -4.791,0.041 -4.784,0.030 -4.775,0.021 -4.766,0.012 -4.747,-0.004 -4.737,-0.011 -4.726,-0.017 -4.715,-0.023 -4.691,-0.033 -4.679,-0.036 -4.667,-0.039 -4.630,-0.042 -4.591,-0.039 -4.547,-0.034 -4.167,0.013 -4.123,0.018 -3.786,0.059 -3.348,0.112 -3.245,0.125 -3.172,0.134 -3.155,0.136 -3.118,0.146 -3.106,0.149 -3.043,0.186 -3.026,0.203 -3.009,0.221 -2.990,0.253 -2.981,0.276 -2.974,0.299 -2.972,0.311 -2.971,0.324 -2.970,0.348 -2.971,0.361 -2.975,0.385 -2.988,0.420 -2.999,0.443 -3.006,0.453 -3.022,0.473 -3.030,0.482 -3.040,0.490 -3.050,0.498 -3.071,0.511 -3.082,0.517 -3.094,0.522 -3.106,0.525 -3.130,0.532 -3.142,0.534 -3.155,0.535 -3.167,0.536 -3.180,0.535 -3.190,0.535 -3.206,0.533 -3.835,0.456 -4.171,0.415 -4.215,0.410 -4.391,0.388 -4.537,0.370 -4.548,0.368 -4.557,0.362 -4.568,0.355 -4.724,0.209 -4.734,0.199 -4.750,0.181 -4.762,0.166 -4.778,0.139 -4.786,0.117 -4.795,0.092"/>
<polygon class="node-30" points="0.374,-1.430 0.378,-1.442 0.399,-1.488 0.406,-1.498 0.414,-1.508 0.450,-1.542 0.461,-1.549 0.494,-1.566 0.506,-1.571 0.518,-1.574 0.539,-1.579 0.598,-1.589 0.657,-1.600 0.872,-1.637 1.160,-1.688 1.167,-1.689 1.181,-1.692 1.195,-1.694 1.208,-1.695 1.220,-1.696 1.233,-1.695 1.245,-1.694 1.258,-1.692 1.270,-1.689 1.282,-1.686 1.294,-1.682 1.306,-1.677 1.317,-1.671 1.328,-1.665 1.338,-1.658 1.348,-1.650 1.357,-1.641 1.366,-1.633 1.374,-1.623 1.382,-1.613 1.389,-1.603 1.396,-1.592 1.401,-1.581 1.406,-1.569 1.411,-1.558 1.414,-1.545 1.417,-1.533 1.419,-1.521 1.420,-1.508 1.420,-1.496 1.420,-1.483 1.419,-1.471 1.417,-1.458 1.414,-1.446 1.411,-1.434 1.406,-1.422 1.401,-1.411 1.396,-1.399 1.389,-1.389 1.382,-1.378 1.374,-1.368 1.366,-1.359 1.357,-1.350 1.348,-1.342 1.338,-1.334 1.328,-1.327 1.317,-1.320 1.306,-1.315 1.294,-1.310 1.282,-1.305 1.270,-1.302 1.258,-1.299 1.229,-1.294 0.942,-1.244 0.726,-1.206 0.668,-1.195 0.648,-1.192 0.637,-1.190 0.628,-1.189 0.606,-1.190 0.568,-1.195 0.522,-1.203 0.449,-1.237 0.424,-1.262 0.407,-1.292 0.378,-1.369"/>
<polygon class="node-31" points="-3.272,0.134 -3.270,0.128 -3.269,0.124 -3.260,0.111 -3.218,0.045 -3.215,0.040 -3.177,-0.019 -3.032,-0.244 -3.015,-0.271 -3.001,-0.293 -2.990,-0.310 -2.984,-0.318 -2.977,-0.328 -2.968,-0.337 -2.960,-0.346 -2.950,-0.355 -2.940,-0.362 -2.930,-0.369 -2.919,-0.376 -2.908,-0.381 -2.896,-0.386 -2.884,-0.391 -2.872,-0.394 -2.860,-0.397 -2.848,-0.399 -2.835,-0.400 -2.823,-0.400 -2.810,-0.400 -2.798,-0.399 -2.785,-0.397 -2.773,-0.394 -2.761,-0.391 -2.749,-0.386 -2.737,-0.381 -2.726,-0.376 -2.715,-0.369 -2.705,-0.362 -2.695,-0.355 -2.686,-0.346 -2.677,-0.337 -2.668,-0.328 -2.661,-0.318 -2.654,-0.308 -2.647,-0.297 -2.642,-0.286 -2.637,-0.274 -2.632,-0.262 -2.629,-0.250 -2.626,-0.238 -2.624,-0.226 -2.623,-0.213 -2.623,-0.200 -2.623,-0.188 -2.624,-0.175 -2.626,-0.163 -2.629,-0.151 -2.632,-0.139 -2.637,-0.127 -2.642,-0.115 -2.647,-0.104 -2.654,-0.093 -2.678,-0.055 -2.696,-0.028 -2.989,0.428 -2.996,0.440 -3.006,0.453 -3.022,0.473 -3.030,0.482 -3.040,0.490 -3.050,0.497 -3.071,0.511 -3.082,0.517 -3.094,0.522 -3.106,0.525 -3.130,0.532 -3.142,0.534 -3.155,0.535 -3.167,0.536 -3.180,0.535 -3.266,0.184"/>
<polygon class="node-32" points="3.783,-0.205 3.799,-0.259 3.809,-0.285 3.837,-0.344 3.854,-0.369 3.880,-0.398 3.884,-0.403 3.910,-0.417 3.916,-0.419 4.457,-0.584 4.881,-0.714 4.939,-0.732 4.951,-0.736 4.977,-0.744 4.996,-0.749 5.008,-0.752 5.021,-0.754 5.033,-0.755 5.046,-0.756 5.058,-0.755 5.071,-0.754 5.083,-0.752 5.095,-0.749 5.108,-0.746 5.119,-0.742 5.131,-0.737 5.142,-0.731 5.153,-0.724 5.163,-0.717 5.173,-0.710 5.183,-0.701 5.191,-0.693 5.200,-0.683 5.208,-0.673 5.215,-0.663 5.221,-0.652 5.227,-0.641 5.232,-0.629 5.236,-0.617 5.239,-0.605 5.242,-0.593 5.244,-0.581 5.245,-0.568 5.246,-0.556 5.245,-0.543 5.244,-0.531 5.242,-0.518 5.239,-0.506 5.236,-0.494 5.232,-0.482 5.227,-0.470 5.221,-0.459 5.215,-0.448 5.208,-0.438 5.200,-0.428 5.191,-0.419 5.183,-0.410 5.173,-0.401 5.163,-0.394 5.153,-0.387 5.142,-0.380 5.131,-0.375 5.119,-0.370 5.108,-0.365 5.070,-0.354 5.058,-0.350 4.998,-0.332 4.574,-0.202 4.032,-0.036 4.026,-0.035 4.021,-0.034 3.990,-0.034 3.945,-0.051 3.910,-0.071 3.881,-0.092 3.857,-0.110 3.834,-0.128 3.793,-0.168 3.789,-0.180 3.786,-0.192"/>
<polygon class="node-33" points="-2.398,-1.282 -2.398,-1.294 -2.397,-1.307 -2.395,-1.319 -2.392,-1.331 -2.388,-1.343 -2.384,-1.355 -2.379,-1.367 -2.376,-1.374 -2.370,-1.384 -2.326,-1.471 -2.194,-1.727 -2.158,-1.798 -2.152,-1.809 -2.138,-1.836 -2.123,-1.864 -2.116,-1.876 -2.109,-1.886 -2.100,-1.896 -2.087,-1.907 -2.075,-1.915 -2.051,-1.929 -1.946,-1.973 -1.898,-1.983 -1.877,-1.986 -1.843,-1.985 -1.832,-1.982 -1.821,-1.979 -1.810,-1.975 -1.788,-1.965 -1.777,-1.959 -1.758,-1.942 -1.750,-1.933 -1.743,-1.922 -1.737,-1.911 -1.733,-1.900 -1.728,-1.888 -1.725,-1.876 -1.722,-1.864 -1.720,-1.851 -1.718,-1.826 -1.720,-1.801 -1.722,-1.789 -1.725,-1.776 -1.728,-1.764 -1.733,-1.753 -1.737,-1.741 -1.743,-1.729 -1.796,-1.626 -1.802,-1.615 -1.838,-1.544 -1.970,-1.288 -2.015,-1.201 -2.021,-1.189 -2.023,-1.185 -2.029,-1.174 -2.036,-1.164 -2.044,-1.154 -2.052,-1.145 -2.061,-1.136 -2.071,-1.127 -2.081,-1.120 -2.091,-1.113 -2.102,-1.106 -2.113,-1.101 -2.124,-1.096 -2.136,-1.091 -2.148,-1.088 -2.161,-1.085 -2.173,-1.083 -2.186,-1.082 -2.198,-1.082 -2.211,-1.082 -2.223,-1.083 -2.236,-1.085 -2.248,-1.088 -2.260,-1.091 -2.272,-1.096 -2.283,-1.101 -2.294,-1.106 -2.305,-1.113 -2.316,-1.120 -2.326,-1.127 -2.335,-1.136 -2.344,-1.145 -2.352,-1.154 -2.360,-1.164 -2.367,-1.174 -2.373,-1.185 -2.379,-1.196 -2.384,-1.208 -2.388,-1.220 -2.392,-1.232 -2.395,-1.244 -2.397,-1.256 -2.398,-1.269"/>
<polygon class="node-34" points="-3.303,0.518 -3.284,0.477 -3.252,0.429 -3.227,0.394 -3.204,0.364 -3.193,0.358 -2.956,0.345 -2.947,0.349 -2.941,0.352 -2.937,0.359 -2.925,0.386 -2.918,0.401 -2.865,0.520 -2.853,0.547 -2.577,1.159 -2.499,1.332 -2.396,1.560 -2.391,1.572 -2.381,1.594 -2.377,1.606 -2.373,1.618 -2.371,1.630 -2.369,1.643 -2.367,1.655 -2.367,1.668 -2.370,1.693 -2.374,1.705 -2.379,1.716 -2.392,1.737 -2.408,1.755 -2.437,1.776 -2.456,1.786 -2.484,1.798 -2.503,1.804 -2.531,1.809 -2.603,1.809 -2.631,1.804 -2.650,1.798 -2.678,1.786 -2.697,1.776 -2.715,1.762 -2.733,1.746 -2.763,1.715 -2.768,1.710 -2.773,1.697 -2.828,1.577 -2.863,1.497 -2.941,1.324 -3.217,0.711 -3.229,0.684 -3.284,0.564 -3.301,0.526 -3.302,0.522"/>
<polygon class="node-35" points="-0.223,-1.507 -0.223,-1.519 -0.222,-1.532 -0.220,-1.544 -0.217,-1.556 -0.213,-1.568 -0.209,-1.580 -0.204,-1.592 -0.199,-1.603 -0.192,-1.614 -0.185,-1.624 -0.177,-1.634 -0.169,-1.644 -0.160,-1.652 -0.151,-1.661 -0.141,-1.668 -0.130,-1.675 -0.120,-1.682 -0.108,-1.688 -0.097,-1.693 -0.085,-1.697 -0.073,-1.700 -0.061,-1.703 -0.048,-1.705 -0.036,-1.706 -0.023,-1.707 -0.011,-1.706 0.002,-1.705 0.014,-1.703 0.024,-1.701 0.054,-1.695 0.113,-1.682 0.391,-1.623 0.480,-1.604 0.560,-1.587 0.566,-1.586 0.573,-1.584 0.574,-1.583 0.578,-1.579 0.584,-1.566 0.588,-1.545 0.593,-1.520 0.597,-1.464 0.598,-1.452 0.600,-1.393 0.598,-1.333 0.594,-1.294 0.588,-1.250 0.581,-1.212 0.577,-1.198 0.570,-1.194 0.557,-1.192 0.544,-1.191 0.528,-1.190 0.517,-1.190 0.503,-1.191 0.487,-1.193 0.480,-1.195 0.396,-1.213 0.307,-1.232 0.030,-1.291 -0.029,-1.303 -0.059,-1.310 -0.073,-1.313 -0.085,-1.316 -0.097,-1.321 -0.108,-1.326 -0.120,-1.331 -0.130,-1.338 -0.141,-1.345 -0.151,-1.352 -0.160,-1.361 -0.169,-1.370 -0.177,-1.379 -0.185,-1.389 -0.192,-1.399 -0.199,-1.410 -0.204,-1.421 -0.209,-1.433 -0.213,-1.445 -0.217,-1.457 -0.220,-1.469 -0.222,-1.482 -0.223,-1.494"/>
<polygon class="node-36" points="4.378,2.122 4.384,2.090 4.393,2.060 4.404,2.035 4.433,1.979 4.450,1.955 4.478,1.924 4.482,1.920 4.506,1.908 4.511,1.906 4.619,1.874 4.654,1.864 4.951,1.776 5.070,1.741 5.260,1.685 5.402,1.643 5.556,1.597 5.569,1.594 5.582,1.590 5.599,1.585 5.611,1.582 5.624,1.580 5.636,1.579 5.649,1.579 5.661,1.579 5.674,1.580 5.686,1.582 5.698,1.585 5.710,1.588 5.722,1.593 5.734,1.598 5.745,1.603 5.756,1.610 5.766,1.617 5.776,1.625 5.785,1.633 5.794,1.642 5.803,1.651 5.810,1.661 5.817,1.671 5.824,1.682 5.829,1.693 5.834,1.705 5.839,1.717 5.842,1.729 5.845,1.741 5.847,1.754 5.848,1.766 5.849,1.779 5.848,1.791 5.847,1.804 5.845,1.816 5.842,1.828 5.839,1.840 5.834,1.852 5.829,1.864 5.824,1.875 5.817,1.886 5.810,1.896 5.803,1.906 5.794,1.915 5.785,1.924 5.776,1.933 5.766,1.940 5.756,1.947 5.745,1.954 5.734,1.959 5.722,1.964 5.710,1.969 5.681,1.978 5.670,1.981 5.515,2.027 5.373,2.068 5.183,2.125 5.064,2.160 4.768,2.247 4.732,2.258 4.636,2.286 4.627,2.289 4.621,2.290 4.615,2.291 4.609,2.291 4.580,2.290 4.537,2.274 4.503,2.252 4.448,2.210 4.406,2.174 4.387,2.158 4.384,2.146 4.380,2.134"/>
<polygon class="node-37" points="1.149,-1.587 1.150,-1.608 1.151,-1.618 1.152,-1.627 1.157,-1.653 1.159,-1.660 1.164,-1.672 1.173,-1.686 1.176,-1.689 1.180,-1.691 1.184,-1.692 1.193,-1.694 1.199,-1.695 1.251,-1.704 1.629,-1.771 1.727,-1.788 1.753,-1.793 1.786,-1.798 1.799,-1.801 1.833,-1.807 1.848,-1.809 1.860,-1.810 1.886,-1.810 1.898,-1.809 1.910,-1.807 1.923,-1.804 1.935,-1.801 1.946,-1.796 1.967,-1.782 1.977,-1.774 1.997,-1.743 2.010,-1.710 2.013,-1.699 2.015,-1.689 2.016,-1.667 2.018,-1.629 2.014,-1.602 1.992,-1.535 1.956,-1.481 1.934,-1.457 1.925,-1.450 1.861,-1.406 1.855,-1.405 1.823,-1.399 1.797,-1.394 1.699,-1.377 1.320,-1.310 1.268,-1.301 1.261,-1.300 1.253,-1.298 1.249,-1.299 1.245,-1.299 1.236,-1.304 1.227,-1.311 1.201,-1.349 1.197,-1.357 1.177,-1.408 1.174,-1.419 1.170,-1.430 1.167,-1.442 1.164,-1.454 1.162,-1.466 1.159,-1.479 1.154,-1.516 1.151,-1.540 1.150,-1.552 1.150,-1.564 1.149,-1.576"/>
<polygon class="node-38" points="-5.073,-0.270 -5.072,-0.282 -5.071,-0.295 -5.069,-0.307 -5.066,-0.319 -5.063,-0.331 -5.059,-0.343 -5.054,-0.355 -5.048,-0.366 -5.041,-0.377 -5.034,-0.387 -5.027,-0.397 -5.018,-0.407 -5.009,-0.415 -5.000,-0.424 -4.990,-0.431 -4.980,-0.438 -4.969,-0.445 -4.958,-0.451 -4.946,-0.456 -4.934,-0.460 -4.922,-0.463 -4.910,-0.466 -4.898,-0.468 -4.885,-0.469 -4.873,-0.470 -4.860,-0.469 -4.848,-0.468 -4.835,-0.466 -4.823,-0.463 -4.811,-0.460 -4.799,-0.456 -4.788,-0.451 -4.776,-0.445 -4.766,-0.438 -4.755,-0.431 -4.745,-0.424 -4.736,-0.415 -4.727,-0.407 -4.719,-0.397 -4.711,-0.387 -4.704,-0.377 -4.698,-0.368 -4.692,-0.356 -4.682,-0.338 -4.660,-0.300 -4.538,-0.087 -4.499,-0.018 -4.498,-0.016 -4.495,-0.009 -4.492,-0.002 -4.490,0.005 -4.488,0.028 -4.488,0.037 -4.493,0.069 -4.500,0.094 -4.511,0.119 -4.519,0.137 -4.526,0.151 -4.533,0.166 -4.549,0.192 -4.580,0.238 -4.595,0.257 -4.605,0.267 -4.619,0.278 -4.630,0.282 -4.682,0.276 -4.735,0.262 -4.750,0.257 -4.776,0.245 -4.800,0.229 -4.814,0.219 -4.828,0.206 -4.833,0.201 -4.839,0.192 -4.844,0.186 -4.847,0.180 -4.886,0.111 -5.008,-0.103 -5.030,-0.141 -5.039,-0.157 -5.047,-0.172 -5.054,-0.185 -5.059,-0.196 -5.063,-0.208 -5.066,-0.220 -5.069,-0.232 -5.071,-0.245 -5.072,-0.257"/>
<polygon class="node-39" points="-1.994,-1.946 -1.988,-1.954 -1.955,-1.978 -1.918,-2.001 -1.882,-2.014 -1.850,-2.016 -1.844,-2.017 -1.826,-2.015 -1.813,-2.013 -1.785,-2.008 -1.406,-1.952 -1.185,-1.919 -1.054,-1.900 -0.663,-1.842 -0.585,-1.830 -0.577,-1.829 -0.564,-1.826 -0.552,-1.823 -0.541,-1.818 -0.529,-1.813 -0.518,-1.808 -0.507,-1.801 -0.497,-1.794 -0.487,-1.787 -0.477,-1.778 -0.468,-1.769 -0.460,-1.760 -0.452,-1.750 -0.445,-1.740 -0.439,-1.729 -0.433,-1.718 -0.428,-1.706 -0.424,-1.694 -0.421,-1.682 -0.418,-1.670 -0.416,-1.658 -0.415,-1.645 -0.414,-1.633 -0.415,-1.620 -0.416,-1.607 -0.418,-1.595 -0.421,-1.583 -0.424,-1.571 -0.428,-1.559 -0.433,-1.547 -0.439,-1.536 -0.445,-1.525 -0.452,-1.515 -0.460,-1.505 -0.468,-1.496 -0.477,-1.487 -0.487,-1.478 -0.497,-1.471 -0.507,-1.464 -0.518,-1.457 -0.529,-1.452 -0.541,-1.447 -0.552,-1.442 -0.564,-1.439 -0.577,-1.436 -0.589,-1.434 -0.602,-1.433 -0.614,-1.433 -0.627,-1.433 -0.639,-1.434 -0.643,-1.435 -0.722,-1.446 -1.113,-1.504 -1.243,-1.524 -1.465,-1.557 -1.778,-1.603 -1.802,-1.607 -1.811,-1.612 -1.894,-1.754"/>
<polygon class="node-40" points="-2.995,-0.284 -2.995,-0.291 -2.994,-0.297 -2.993,-0.303 -2.990,-0.309 -2.987,-0.314 -2.795,-0.614 -2.764,-0.663 -2.743,-0.695 -2.664,-0.818 -2.649,-0.841 -2.645,-0.847 -2.640,-0.854 -2.632,-0.864 -2.624,-0.874 -2.615,-0.883 -2.606,-0.891 -2.596,-0.899 -2.585,-0.906 -2.574,-0.912 -2.563,-0.918 -2.552,-0.923 -2.540,-0.927 -2.528,-0.931 -2.516,-0.933 -2.503,-0.935 -2.491,-0.936 -2.478,-0.937 -2.466,-0.936 -2.453,-0.935 -2.441,-0.933 -2.428,-0.931 -2.416,-0.927 -2.405,-0.923 -2.393,-0.918 -2.382,-0.912 -2.371,-0.906 -2.361,-0.899 -2.351,-0.891 -2.341,-0.883 -2.332,-0.874 -2.324,-0.864 -2.316,-0.854 -2.309,-0.844 -2.303,-0.833 -2.297,-0.822 -2.292,-0.810 -2.288,-0.799 -2.284,-0.787 -2.282,-0.774 -2.280,-0.762 -2.279,-0.749 -2.278,-0.737 -2.279,-0.724 -2.280,-0.712 -2.282,-0.699 -2.284,-0.687 -2.288,-0.675 -2.292,-0.663 -2.297,-0.652 -2.303,-0.641 -2.308,-0.632 -2.309,-0.630 -2.311,-0.627 -2.314,-0.622 -2.327,-0.602 -2.406,-0.479 -2.427,-0.446 -2.458,-0.398 -2.651,-0.098 -2.654,-0.093 -2.659,-0.089 -2.664,-0.085 -2.669,-0.081 -2.675,-0.078 -2.682,-0.076 -2.689,-0.074 -2.696,-0.073 -2.705,-0.072 -2.713,-0.071 -2.722,-0.072 -2.732,-0.072 -2.741,-0.074 -2.752,-0.075 -2.762,-0.078 -2.772,-0.080 -2.783,-0.084 -2.794,-0.088 -2.805,-0.092 -2.816,-0.096 -2.827,-0.102 -2.838,-0.107 -2.849,-0.113 -2.860,-0.119 -2.871,-0.126 -2.881,-0.133 -2.891,-0.140 -2.901,-0.148 -2.911,-0.155 -2.920,-0.163 -2.929,-0.171 -2.937,-0.180 -2.945,-0.188 -2.953,-0.196 -2.960,-0.205 -2.966,-0.213 -2.972,-0.222 -2.977,-0.230 -2.982,-0.238 -2.986,-0.246 -2.989,-0.254 -2.991,-0.262 -2.993,-0.270 -2.995,-0.277"/>
<polygon class="node-41" points="-2.650,-0.838 -2.650,-0.840 -2.648,-0.845 -2.575,-0.986 -2.502,-1.128 -2.432,-1.264 -2.381,-1.362 -2.380,-1.366 -2.377,-1.371 -2.373,-1.375 -2.369,-1.379 -2.365,-1.383 -2.359,-1.386 -2.353,-1.389 -2.347,-1.392 -2.340,-1.394 -2.332,-1.395 -2.324,-1.396 -2.315,-1.396 -2.306,-1.397 -2.296,-1.396 -2.286,-1.395 -2.276,-1.394 -2.265,-1.392 -2.255,-1.390 -2.244,-1.387 -2.232,-1.384 -2.221,-1.380 -2.210,-1.376 -2.198,-1.372 -2.187,-1.367 -2.175,-1.362 -2.164,-1.356 -2.153,-1.351 -2.142,-1.344 -2.131,-1.338 -2.121,-1.331 -2.111,-1.325 -2.101,-1.318 -2.091,-1.310 -2.083,-1.303 -2.074,-1.296 -2.066,-1.288 -2.059,-1.281 -2.052,-1.273 -2.045,-1.265 -2.040,-1.258 -2.035,-1.250 -2.030,-1.243 -2.027,-1.236 -2.024,-1.229 -2.021,-1.222 -2.020,-1.215 -2.019,-1.209 -2.019,-1.203 -2.019,-1.197 -2.020,-1.191 -2.022,-1.186 -2.026,-1.179 -2.076,-1.081 -2.146,-0.945 -2.219,-0.803 -2.292,-0.662 -2.297,-0.651 -2.303,-0.641 -2.310,-0.630 -2.318,-0.620 -2.330,-0.614 -2.343,-0.610 -2.356,-0.607 -2.383,-0.606 -2.396,-0.607 -2.440,-0.620 -2.522,-0.657 -2.564,-0.682 -2.599,-0.714 -2.610,-0.729 -2.624,-0.746 -2.631,-0.756 -2.642,-0.779 -2.648,-0.792 -2.650,-0.832"/>
<polygon class="node-42" points="4.872,-0.689 4.873,-0.697 4.873,-0.700 4.874,-0.705 4.875,-0.709 4.887,-0.761 4.957,-1.069 4.963,-1.095 4.967,-1.115 4.970,-1.126 4.974,-1.139 4.978,-1.150 4.983,-1.162 4.989,-1.173 4.995,-1.184 5.002,-1.194 5.010,-1.204 5.018,-1.214 5.027,-1.222 5.036,-1.231 5.046,-1.238 5.057,-1.246 5.067,-1.252 5.079,-1.258 5.090,-1.263 5.102,-1.267 5.114,-1.270 5.126,-1.273 5.139,-1.275 5.151,-1.276 5.164,-1.277 5.176,-1.276 5.189,-1.275 5.201,-1.273 5.213,-1.270 5.226,-1.267 5.237,-1.263 5.249,-1.258 5.260,-1.252 5.271,-1.246 5.281,-1.238 5.291,-1.231 5.301,-1.222 5.309,-1.214 5.318,-1.204 5.325,-1.194 5.333,-1.184 5.339,-1.173 5.345,-1.162 5.350,-1.150 5.354,-1.139 5.357,-1.126 5.360,-1.114 5.362,-1.102 5.363,-1.089 5.364,-1.077 5.363,-1.064 5.362,-1.052 5.360,-1.039 5.358,-1.028 5.353,-1.006 5.347,-0.980 5.277,-0.673 5.253,-0.564 5.245,-0.532 5.243,-0.522 5.242,-0.516 5.236,-0.494 5.232,-0.482 5.227,-0.470 5.215,-0.448 5.208,-0.438 5.200,-0.428 5.191,-0.419 5.183,-0.410 5.173,-0.401 5.163,-0.394 5.153,-0.387 5.142,-0.380 5.131,-0.375 5.119,-0.370 5.107,-0.365 5.095,-0.363 5.069,-0.369 5.057,-0.375 5.046,-0.383 5.026,-0.403 5.018,-0.412 4.999,-0.437 4.895,-0.623 4.891,-0.631 4.876,-0.664 4.875,-0.672"/>
<polygon class="node-43" points="-2.744,1.725 -2.737,1.711 -2.716,1.687 -2.514,1.467 -2.502,1.456 -2.490,1.447 -2.476,1.440 -2.465,1.437 -2.439,1.430 -2.412,1.424 -2.306,1.397 -2.121,1.351 -1.812,1.275 -1.750,1.260 -1.742,1.257 -1.732,1.255 -1.722,1.253 -1.710,1.251 -1.697,1.250 -1.684,1.249 -1.672,1.250 -1.659,1.251 -1.647,1.253 -1.635,1.256 -1.623,1.259 -1.611,1.263 -1.599,1.268 -1.588,1.274 -1.577,1.281 -1.567,1.288 -1.557,1.295 -1.548,1.304 -1.539,1.313 -1.530,1.322 -1.523,1.332 -1.516,1.342 -1.509,1.353 -1.504,1.364 -1.499,1.376 -1.494,1.388 -1.491,1.400 -1.488,1.412 -1.486,1.424 -1.485,1.437 -1.485,1.449 -1.485,1.462 -1.486,1.474 -1.488,1.487 -1.491,1.499 -1.494,1.511 -1.499,1.523 -1.504,1.534 -1.509,1.546 -1.516,1.556 -1.523,1.567 -1.530,1.577 -1.539,1.586 -1.548,1.595 -1.557,1.603 -1.567,1.611 -1.577,1.618 -1.588,1.625 -1.599,1.630 -1.611,1.635 -1.623,1.639 -1.635,1.643 -1.637,1.644 -1.645,1.646 -1.654,1.648 -1.716,1.663 -2.025,1.740 -2.210,1.786 -2.316,1.812 -2.395,1.831 -2.405,1.834 -2.423,1.838 -2.437,1.840 -2.460,1.841 -2.473,1.840 -2.486,1.838 -2.631,1.804 -2.650,1.798 -2.678,1.786 -2.697,1.776 -2.715,1.762 -2.733,1.746"/>
<polygon class="node-44" points="4.969,-1.118 4.969,-1.122 4.970,-1.126 4.990,-1.215 5.005,-1.283 5.083,-1.626 5.086,-1.637 5.088,-1.648 5.092,-1.660 5.096,-1.671 5.101,-1.683 5.107,-1.694 5.113,-1.705 5.120,-1.715 5.128,-1.725 5.136,-1.735 5.145,-1.744 5.154,-1.752 5.164,-1.760 5.175,-1.767 5.185,-1.773 5.197,-1.779 5.208,-1.784 5.220,-1.788 5.232,-1.792 5.244,-1.794 5.257,-1.796 5.269,-1.797 5.282,-1.798 5.294,-1.797 5.307,-1.796 5.319,-1.794 5.332,-1.792 5.344,-1.788 5.355,-1.784 5.367,-1.779 5.378,-1.773 5.389,-1.767 5.399,-1.760 5.409,-1.752 5.419,-1.744 5.428,-1.735 5.436,-1.725 5.444,-1.715 5.451,-1.705 5.457,-1.694 5.463,-1.683 5.468,-1.671 5.472,-1.660 5.475,-1.648 5.478,-1.635 5.480,-1.623 5.481,-1.610 5.482,-1.598 5.481,-1.585 5.480,-1.573 5.478,-1.560 5.476,-1.549 5.473,-1.538 5.395,-1.194 5.380,-1.126 5.360,-1.038 5.358,-1.031 5.355,-1.027 5.333,-1.021 5.327,-1.021 5.286,-1.021 5.276,-1.022 5.266,-1.023 5.255,-1.024 5.244,-1.026 5.185,-1.036 5.161,-1.041 5.148,-1.043 5.124,-1.049 5.112,-1.053 5.100,-1.056 5.089,-1.059 5.067,-1.066 5.046,-1.073 5.037,-1.077 5.019,-1.084 4.997,-1.094 4.991,-1.097 4.981,-1.104"/>
<polygon class="node-45" points="-0.721,-1.582 -0.716,-1.639 -0.715,-1.645 -0.708,-1.684 -0.705,-1.699 -0.700,-1.713 -0.682,-1.756 -0.671,-1.776 -0.646,-1.802 -0.626,-1.820 -0.602,-1.827 -0.589,-1.830 -0.572,-1.828 -0.565,-1.827 -0.537,-1.821 -0.478,-1.808 -0.407,-1.793 -0.283,-1.766 -0.029,-1.712 0.011,-1.704 0.015,-1.703 0.029,-1.699 0.042,-1.692 0.048,-1.688 0.054,-1.682 0.059,-1.676 0.065,-1.670 0.070,-1.663 0.074,-1.655 0.078,-1.646 0.082,-1.637 0.085,-1.628 0.088,-1.618 0.090,-1.607 0.092,-1.596 0.094,-1.585 0.095,-1.574 0.095,-1.562 0.096,-1.550 0.095,-1.538 0.091,-1.501 0.089,-1.488 0.087,-1.476 0.084,-1.464 0.080,-1.452 0.076,-1.440 0.067,-1.417 0.062,-1.407 0.057,-1.396 0.051,-1.386 0.039,-1.368 0.032,-1.359 0.026,-1.351 0.019,-1.344 0.012,-1.337 0.005,-1.331 -0.003,-1.326 -0.025,-1.314 -0.040,-1.310 -0.047,-1.310 -0.062,-1.310 -0.070,-1.312 -0.112,-1.321 -0.366,-1.375 -0.490,-1.402 -0.561,-1.417 -0.620,-1.429 -0.642,-1.434 -0.649,-1.436 -0.674,-1.450 -0.683,-1.460 -0.697,-1.482 -0.710,-1.517 -0.716,-1.548"/>
<polygon class="node-46" points="4.944,-0.442 4.946,-0.470 4.948,-0.496 4.953,-0.523 4.960,-0.532 4.968,-0.540 4.976,-0.549 5.002,-0.557 5.158,-0.595 5.206,-0.606 5.263,-0.613 5.266,-0.610 5.328,-0.541 5.400,-0.461 5.785,-0.035 5.928,0.124 5.973,0.173 6.027,0.233 6.062,0.273 6.081,0.293 6.095,0.309 6.102,0.319 6.109,0.329 6.116,0.340 6.121,0.351 6.126,0.363 6.131,0.374 6.134,0.386 6.137,0.399 6.139,0.411 6.140,0.424 6.140,0.436 6.140,0.449 6.139,0.461 6.137,0.474 6.134,0.486 6.131,0.498 6.126,0.510 6.121,0.521 6.116,0.533 6.109,0.543 6.102,0.554 6.095,0.564 6.086,0.573 6.077,0.582 6.068,0.590 6.058,0.598 6.048,0.605 6.037,0.611 6.026,0.617 6.014,0.622 6.002,0.626 5.990,0.630 5.978,0.633 5.966,0.635 5.953,0.636 5.941,0.636 5.928,0.636 5.915,0.635 5.903,0.633 5.891,0.630 5.879,0.626 5.867,0.622 5.855,0.617 5.844,0.611 5.833,0.605 5.823,0.598 5.813,0.590 5.804,0.582 5.795,0.573 5.782,0.559 5.765,0.540 5.729,0.501 5.676,0.441 5.631,0.392 5.488,0.233 5.103,-0.194 5.031,-0.273 4.969,-0.342 4.967,-0.345 4.955,-0.364 4.947,-0.388 4.945,-0.418"/>
<polygon class="node-47" points="5.545,1.882 5.545,1.713 5.546,1.682 5.546,1.669 5.555,1.631 5.568,1.606 5.576,1.596 5.587,1.589 5.599,1.585 5.611,1.582 5.624,1.580 5.649,1.579 5.674,1.580 5.686,1.582 5.698,1.585 5.710,1.588 5.733,1.598 5.745,1.604 5.756,1.610 5.766,1.617 5.785,1.633 5.794,1.642 5.796,1.644 5.801,1.649 5.835,1.687 5.853,1.706 6.034,1.907 6.041,1.915 6.114,1.996 6.142,2.027 6.151,2.037 6.159,2.047 6.166,2.058 6.172,2.068 6.178,2.080 6.183,2.091 6.187,2.103 6.190,2.115 6.193,2.127 6.195,2.140 6.196,2.152 6.197,2.165 6.196,2.177 6.195,2.190 6.193,2.202 6.190,2.214 6.187,2.226 6.183,2.238 6.178,2.250 6.172,2.261 6.166,2.272 6.159,2.282 6.151,2.292 6.143,2.302 6.134,2.310 6.124,2.319 6.114,2.326 6.104,2.333 6.093,2.340 6.082,2.346 6.070,2.351 6.059,2.355 6.047,2.358 6.034,2.361 6.022,2.363 6.009,2.364 5.997,2.365 5.984,2.364 5.972,2.363 5.959,2.361 5.947,2.358 5.935,2.355 5.923,2.351 5.912,2.346 5.901,2.340 5.890,2.333 5.879,2.326 5.869,2.319 5.860,2.310 5.851,2.302 5.844,2.294 5.817,2.264 5.744,2.183 5.737,2.175 5.584,2.005 5.577,1.997 5.570,1.990 5.568,1.988 5.563,1.981 5.558,1.971 5.554,1.961 5.550,1.940 5.547,1.909"/>
<polygon class="node-48" points="1.704,-1.663 1.705,-1.674 1.705,-1.693 1.708,-1.704 1.712,-1.722 1.717,-1.733 1.722,-1.743 1.724,-1.748 1.728,-1.753 1.730,-1.757 1.733,-1.761 1.778,-1.829 1.849,-1.934 1.854,-1.943 1.862,-1.953 1.871,-1.962 1.880,-1.971 1.889,-1.980 1.899,-1.987 1.909,-1.994 1.920,-2.001 1.931,-2.006 1.943,-2.011 1.955,-2.016 1.967,-2.019 1.979,-2.022 1.991,-2.024 2.004,-2.025 2.016,-2.026 2.029,-2.025 2.041,-2.024 2.054,-2.022 2.066,-2.019 2.078,-2.016 2.090,-2.011 2.102,-2.006 2.113,-2.001 2.124,-1.994 2.134,-1.987 2.144,-1.980 2.153,-1.971 2.162,-1.962 2.170,-1.953 2.178,-1.943 2.185,-1.933 2.192,-1.922 2.197,-1.911 2.202,-1.899 2.207,-1.887 2.210,-1.875 2.213,-1.863 2.215,-1.851 2.216,-1.838 2.216,-1.826 2.216,-1.813 2.215,-1.801 2.213,-1.788 2.210,-1.776 2.207,-1.764 2.202,-1.752 2.197,-1.740 2.192,-1.729 2.191,-1.728 2.185,-1.718 2.181,-1.713 2.111,-1.607 2.065,-1.538 2.058,-1.528 2.048,-1.515 2.035,-1.500 2.028,-1.493 2.015,-1.482 1.999,-1.470 1.988,-1.462 1.972,-1.454 1.952,-1.444 1.938,-1.438 1.925,-1.434 1.894,-1.426 1.882,-1.426 1.861,-1.433 1.841,-1.442 1.817,-1.456 1.806,-1.464 1.777,-1.491 1.762,-1.507 1.752,-1.521 1.741,-1.537 1.724,-1.574 1.714,-1.600 1.711,-1.611 1.708,-1.623 1.705,-1.651"/>
<polygon class="node-49" points="5.475,1.648 5.476,1.630 5.482,1.602 5.500,1.522 5.514,1.454 5.532,1.374 5.701,0.595 5.707,0.568 5.719,0.515 5.722,0.500 5.726,0.494 5.993,0.325 6.054,0.299 6.071,0.298 6.085,0.300 6.095,0.309 6.102,0.319 6.109,0.329 6.121,0.351 6.137,0.399 6.139,0.411 6.140,0.424 6.140,0.436 6.140,0.449 6.139,0.461 6.137,0.474 6.133,0.491 6.130,0.505 6.098,0.653 6.092,0.680 5.923,1.459 5.905,1.539 5.891,1.606 5.873,1.686 5.868,1.713 5.867,1.715 5.863,1.722 5.824,1.740 5.764,1.760 5.571,1.781 5.560,1.777 5.550,1.774 5.539,1.771 5.526,1.751 5.496,1.710 5.487,1.690 5.480,1.670"/>
<polygon class="node-50" points="-5.316,-0.697 -5.315,-0.710 -5.314,-0.722 -5.312,-0.734 -5.309,-0.747 -5.306,-0.759 -5.302,-0.771 -5.297,-0.782 -5.291,-0.793 -5.284,-0.804 -5.277,-0.814 -5.270,-0.824 -5.261,-0.834 -5.253,-0.843 -5.243,-0.851 -5.233,-0.859 -5.223,-0.866 -5.212,-0.872 -5.201,-0.878 -5.189,-0.883 -5.177,-0.887 -5.165,-0.891 -5.153,-0.893 -5.141,-0.895 -5.128,-0.897 -5.116,-0.897 -5.103,-0.897 -5.091,-0.895 -5.078,-0.893 -5.066,-0.891 -5.054,-0.887 -5.042,-0.883 -5.031,-0.878 -5.019,-0.872 -5.009,-0.866 -4.998,-0.859 -4.988,-0.851 -4.979,-0.843 -4.970,-0.834 -4.962,-0.824 -4.954,-0.814 -4.947,-0.804 -4.944,-0.800 -4.940,-0.793 -4.933,-0.780 -4.922,-0.762 -4.920,-0.757 -4.818,-0.578 -4.784,-0.518 -4.760,-0.476 -4.743,-0.446 -4.703,-0.377 -4.700,-0.371 -4.697,-0.364 -4.695,-0.357 -4.693,-0.350 -4.692,-0.342 -4.692,-0.334 -4.692,-0.326 -4.693,-0.317 -4.695,-0.309 -4.698,-0.300 -4.701,-0.291 -4.705,-0.282 -4.709,-0.273 -4.715,-0.264 -4.721,-0.255 -4.727,-0.246 -4.734,-0.238 -4.742,-0.229 -4.750,-0.221 -4.759,-0.212 -4.768,-0.204 -4.777,-0.197 -4.787,-0.189 -4.798,-0.182 -4.808,-0.176 -4.819,-0.169 -4.830,-0.163 -4.841,-0.158 -4.853,-0.153 -4.864,-0.148 -4.876,-0.144 -4.887,-0.141 -4.899,-0.138 -4.910,-0.135 -4.921,-0.133 -4.932,-0.132 -4.943,-0.131 -4.954,-0.131 -4.964,-0.131 -4.974,-0.132 -4.984,-0.134 -4.993,-0.136 -5.001,-0.138 -5.009,-0.141 -5.017,-0.145 -5.024,-0.149 -5.030,-0.154 -5.036,-0.159 -5.041,-0.164 -5.046,-0.170 -5.050,-0.177 -5.052,-0.180 -5.090,-0.248 -5.107,-0.278 -5.132,-0.320 -5.166,-0.380 -5.268,-0.560 -5.270,-0.564 -5.279,-0.580 -5.286,-0.592 -5.291,-0.601 -5.297,-0.612 -5.302,-0.623 -5.306,-0.635 -5.309,-0.647 -5.312,-0.660 -5.314,-0.672 -5.315,-0.684"/>
<polygon class="node-51" points="-1.740,1.309 -1.739,1.301 -1.739,1.293 -1.738,1.286 -1.738,1.280 -1.737,1.274 -1.735,1.268 -1.734,1.264 -1.732,1.260 -1.730,1.257 -1.728,1.255 -1.725,1.254 -1.723,1.253 -1.697,1.246 -1.671,1.240 -1.556,1.211 -1.247,1.135 -1.212,1.126 -1.026,1.080 -0.903,1.050 -0.894,1.048 -0.867,1.041 -0.849,1.036 -0.839,1.034 -0.827,1.032 -0.814,1.031 -0.802,1.031 -0.789,1.031 -0.777,1.032 -0.764,1.034 -0.752,1.037 -0.740,1.041 -0.728,1.045 -0.717,1.050 -0.706,1.056 -0.695,1.062 -0.684,1.069 -0.674,1.077 -0.665,1.085 -0.656,1.094 -0.648,1.103 -0.640,1.113 -0.633,1.124 -0.627,1.134 -0.621,1.146 -0.616,1.157 -0.612,1.169 -0.608,1.181 -0.606,1.193 -0.604,1.206 -0.602,1.218 -0.602,1.231 -0.602,1.243 -0.604,1.256 -0.606,1.268 -0.608,1.281 -0.612,1.293 -0.616,1.304 -0.621,1.316 -0.627,1.327 -0.633,1.338 -0.640,1.348 -0.648,1.358 -0.656,1.368 -0.665,1.377 -0.674,1.385 -0.684,1.393 -0.695,1.400 -0.706,1.406 -0.717,1.412 -0.728,1.417 -0.740,1.421 -0.752,1.424 -0.755,1.425 -0.772,1.429 -0.798,1.436 -0.807,1.438 -0.930,1.469 -1.116,1.515 -1.151,1.523 -1.460,1.600 -1.574,1.628 -1.601,1.635 -1.629,1.642 -1.631,1.641 -1.634,1.641 -1.638,1.639 -1.641,1.637 -1.644,1.634 -1.648,1.630 -1.652,1.625 -1.655,1.620 -1.659,1.614 -1.663,1.608 -1.667,1.600 -1.671,1.593 -1.675,1.584 -1.679,1.575 -1.683,1.566 -1.687,1.556 -1.691,1.546 -1.695,1.535 -1.699,1.524 -1.702,1.512 -1.706,1.501 -1.709,1.489 -1.713,1.477 -1.716,1.465 -1.719,1.453 -1.722,1.440 -1.724,1.428 -1.727,1.416 -1.729,1.404 -1.731,1.392 -1.733,1.381 -1.735,1.369 -1.736,1.358 -1.737,1.348 -1.738,1.337 -1.739,1.328 -1.739,1.318"/>
<polygon class="node-52" points="-2.650,-0.832 -2.642,-0.841 -2.632,-0.849 -2.618,-0.852 -2.435,-0.893 -2.378,-0.901 -2.353,-0.902 -2.339,-0.901 -2.317,-0.899 -2.301,-0.896 -2.290,-0.893 -2.285,-0.892 -2.268,-0.887 -1.888,-0.783 -1.864,-0.777 -1.854,-0.774 -1.844,-0.771 -1.832,-0.767 -1.820,-0.763 -1.809,-0.758 -1.798,-0.752 -1.787,-0.746 -1.777,-0.739 -1.767,-0.731 -1.757,-0.723 -1.748,-0.714 -1.740,-0.705 -1.732,-0.695 -1.725,-0.684 -1.719,-0.674 -1.713,-0.662 -1.708,-0.651 -1.704,-0.639 -1.700,-0.627 -1.698,-0.615 -1.696,-0.602 -1.695,-0.590 -1.694,-0.577 -1.695,-0.565 -1.696,-0.552 -1.698,-0.540 -1.700,-0.528 -1.704,-0.516 -1.708,-0.504 -1.713,-0.492 -1.719,-0.481 -1.725,-0.470 -1.732,-0.460 -1.740,-0.450 -1.748,-0.440 -1.757,-0.432 -1.767,-0.423 -1.777,-0.416 -1.787,-0.409 -1.798,-0.402 -1.809,-0.396 -1.820,-0.391 -1.832,-0.387 -1.844,-0.384 -1.857,-0.381 -1.869,-0.379 -1.881,-0.378 -1.894,-0.377 -1.907,-0.378 -1.919,-0.379 -1.932,-0.381 -1.944,-0.384 -1.950,-0.385 -1.958,-0.387 -1.970,-0.391 -1.993,-0.397 -2.373,-0.501 -2.408,-0.510 -2.432,-0.517 -2.435,-0.518 -2.442,-0.520 -2.458,-0.526 -2.473,-0.534 -2.491,-0.548 -2.503,-0.557 -2.526,-0.582 -2.536,-0.595 -2.561,-0.632 -2.568,-0.645 -2.631,-0.756 -2.642,-0.779 -2.648,-0.792"/>
<polygon class="node-53" points="5.843,2.282 5.845,2.272 5.847,2.266 5.864,2.231 5.894,2.189 5.901,2.180 5.909,2.172 5.934,2.145 5.943,2.136 5.990,2.095 6.009,2.080 6.056,2.050 6.064,2.045 6.073,2.041 6.089,2.033 6.117,2.025 6.122,2.024 6.132,2.024 6.140,2.027 6.144,2.029 6.148,2.034 6.153,2.039 6.177,2.065 6.246,2.143 6.292,2.193 6.344,2.251 6.480,2.401 6.487,2.409 6.490,2.413 6.499,2.423 6.507,2.433 6.514,2.444 6.520,2.454 6.526,2.466 6.531,2.477 6.535,2.489 6.539,2.501 6.541,2.513 6.543,2.526 6.545,2.538 6.545,2.551 6.545,2.563 6.543,2.576 6.541,2.588 6.539,2.601 6.535,2.613 6.531,2.624 6.526,2.636 6.520,2.647 6.514,2.658 6.507,2.668 6.499,2.678 6.491,2.688 6.482,2.697 6.473,2.705 6.463,2.713 6.452,2.720 6.441,2.726 6.430,2.732 6.419,2.737 6.407,2.741 6.395,2.744 6.383,2.747 6.370,2.749 6.358,2.750 6.345,2.751 6.333,2.750 6.320,2.749 6.308,2.747 6.295,2.744 6.283,2.741 6.272,2.737 6.260,2.732 6.249,2.726 6.238,2.720 6.228,2.713 6.218,2.705 6.208,2.697 6.199,2.688 6.193,2.681 6.190,2.677 6.183,2.669 6.047,2.519 5.995,2.461 5.949,2.411 5.880,2.334 5.855,2.306 5.853,2.303 5.850,2.301 5.850,2.300 5.849,2.297"/>
<polygon class="node-54" points="5.850,0.438 5.869,0.377 5.882,0.347 5.909,0.289 5.923,0.266 5.941,0.244 5.953,0.232 5.967,0.223 5.972,0.220 5.981,0.216 5.987,0.214 5.990,0.213 5.999,0.210 6.009,0.208 6.212,0.148 6.332,0.112 6.337,0.111 6.353,0.106 6.365,0.103 6.377,0.101 6.390,0.100 6.402,0.100 6.415,0.100 6.427,0.101 6.440,0.103 6.452,0.106 6.464,0.110 6.476,0.114 6.487,0.119 6.499,0.125 6.509,0.131 6.520,0.138 6.530,0.146 6.539,0.154 6.548,0.163 6.556,0.172 6.564,0.182 6.571,0.193 6.578,0.203 6.583,0.215 6.588,0.226 6.592,0.238 6.596,0.250 6.599,0.262 6.601,0.275 6.602,0.287 6.602,0.300 6.602,0.312 6.601,0.325 6.599,0.337 6.596,0.350 6.592,0.362 6.588,0.373 6.583,0.385 6.578,0.396 6.571,0.407 6.564,0.417 6.556,0.427 6.548,0.437 6.539,0.446 6.530,0.454 6.520,0.462 6.509,0.469 6.499,0.475 6.487,0.481 6.476,0.486 6.464,0.490 6.456,0.492 6.449,0.495 6.445,0.496 6.325,0.531 6.122,0.591 6.113,0.594 6.104,0.597 6.097,0.598 6.092,0.599 6.086,0.600 6.069,0.599 6.044,0.592 6.013,0.579 5.989,0.566 5.967,0.551 5.947,0.537 5.927,0.522 5.869,0.469 5.854,0.450"/>
<polygon class="node-55" points="-1.256,0.407 -1.255,0.394 -1.254,0.381 -1.252,0.369 -1.250,0.357 -1.246,0.345 -1.242,0.333 -1.237,0.321 -1.231,0.310 -1.225,0.299 -1.218,0.289 -1.210,0.279 -1.202,0.270 -1.193,0.261 -1.183,0.253 -1.173,0.245 -1.163,0.238 -1.152,0.231 -1.141,0.226 -1.130,0.221 -1.118,0.216 -1.106,0.213 -1.093,0.210 -1.081,0.208 -1.069,0.207 -1.056,0.207 -1.043,0.207 -1.031,0.208 -1.018,0.210 -1.006,0.213 -0.994,0.216 -0.982,0.221 -0.971,0.226 -0.960,0.231 -0.949,0.238 -0.938,0.245 -0.929,0.253 -0.919,0.261 -0.910,0.270 -0.902,0.279 -0.894,0.289 -0.887,0.299 -0.881,0.310 -0.875,0.321 -0.870,0.333 -0.866,0.345 -0.862,0.357 -0.860,0.365 -0.832,0.455 -0.817,0.504 -0.735,0.768 -0.684,0.933 -0.629,1.114 -0.624,1.130 -0.619,1.147 -0.613,1.165 -0.610,1.176 -0.606,1.193 -0.602,1.231 -0.603,1.243 -0.606,1.268 -0.612,1.292 -0.616,1.304 -0.621,1.316 -0.633,1.338 -0.648,1.358 -0.665,1.377 -0.685,1.392 -0.706,1.406 -0.717,1.411 -0.728,1.416 -0.740,1.421 -0.752,1.424 -0.766,1.421 -0.990,1.191 -1.019,1.160 -1.028,1.149 -1.037,1.135 -1.045,1.119 -1.047,1.115 -1.049,1.108 -1.051,1.101 -1.067,1.051 -1.118,0.886 -1.199,0.622 -1.214,0.573 -1.242,0.482 -1.245,0.473 -1.250,0.456 -1.252,0.444 -1.254,0.432 -1.255,0.419"/>
<polygon class="node-56" points="-0.795,-1.735 -0.794,-1.747 -0.793,-1.758 -0.792,-1.766 -0.783,-1.812 -0.757,-1.940 -0.751,-1.973 -0.739,-2.034 -0.731,-2.075 -0.729,-2.083 -0.729,-2.085 -0.726,-2.095 -0.723,-2.107 -0.718,-2.119 -0.713,-2.131 -0.708,-2.142 -0.701,-2.153 -0.694,-2.163 -0.687,-2.173 -0.678,-2.182 -0.669,-2.191 -0.660,-2.200 -0.650,-2.207 -0.640,-2.214 -0.629,-2.221 -0.618,-2.226 -0.606,-2.231 -0.594,-2.236 -0.582,-2.239 -0.570,-2.242 -0.558,-2.244 -0.545,-2.245 -0.533,-2.245 -0.520,-2.245 -0.507,-2.244 -0.495,-2.242 -0.483,-2.239 -0.471,-2.236 -0.459,-2.231 -0.447,-2.226 -0.436,-2.221 -0.425,-2.214 -0.415,-2.207 -0.405,-2.200 -0.396,-2.191 -0.387,-2.182 -0.379,-2.173 -0.371,-2.163 -0.364,-2.153 -0.357,-2.142 -0.352,-2.131 -0.347,-2.119 -0.342,-2.107 -0.339,-2.095 -0.336,-2.083 -0.334,-2.071 -0.333,-2.058 -0.333,-2.046 -0.333,-2.033 -0.334,-2.020 -0.336,-2.008 -0.337,-2.006 -0.338,-1.999 -0.346,-1.958 -0.358,-1.895 -0.365,-1.862 -0.390,-1.734 -0.399,-1.689 -0.400,-1.684 -0.403,-1.671 -0.409,-1.655 -0.413,-1.645 -0.430,-1.614 -0.441,-1.597 -0.455,-1.580 -0.476,-1.558 -0.482,-1.551 -0.582,-1.463 -0.603,-1.447 -0.626,-1.438 -0.639,-1.436 -0.662,-1.445 -0.674,-1.450 -0.683,-1.460 -0.697,-1.482 -0.767,-1.617 -0.773,-1.634 -0.781,-1.654 -0.784,-1.664 -0.787,-1.675 -0.792,-1.698 -0.794,-1.719"/>
<polygon class="node-57" points="-3.419,2.222 -3.419,2.210 -3.418,2.197 -3.416,2.185 -3.413,2.173 -3.409,2.161 -3.405,2.149 -3.400,2.137 -3.394,2.126 -3.388,2.115 -3.381,2.105 -3.373,2.095 -3.365,2.086 -3.356,2.077 -3.346,2.068 -3.337,2.060 -3.290,2.020 -3.205,1.948 -2.951,1.732 -2.905,1.693 -2.794,1.598 -2.763,1.572 -2.752,1.563 -2.744,1.557 -2.735,1.551 -2.726,1.546 -2.698,1.532 -2.687,1.530 -2.677,1.528 -2.636,1.521 -2.598,1.520 -2.560,1.524 -2.542,1.542 -2.526,1.562 -2.481,1.634 -2.463,1.689 -2.460,1.700 -2.457,1.712 -2.445,1.760 -2.447,1.800 -2.449,1.815 -2.458,1.834 -2.464,1.842 -2.472,1.850 -2.480,1.857 -2.501,1.874 -2.536,1.904 -2.646,1.998 -2.692,2.037 -2.946,2.253 -3.031,2.325 -3.058,2.348 -3.076,2.363 -3.092,2.376 -3.102,2.384 -3.112,2.391 -3.123,2.398 -3.134,2.403 -3.146,2.408 -3.158,2.413 -3.170,2.416 -3.182,2.419 -3.194,2.421 -3.207,2.422 -3.219,2.422 -3.232,2.422 -3.244,2.421 -3.257,2.419 -3.269,2.416 -3.281,2.413 -3.293,2.408 -3.304,2.403 -3.316,2.398 -3.326,2.391 -3.337,2.384 -3.347,2.376 -3.356,2.368 -3.365,2.359 -3.373,2.350 -3.381,2.340 -3.388,2.330 -3.394,2.319 -3.400,2.308 -3.405,2.296 -3.409,2.284 -3.413,2.272 -3.416,2.260 -3.418,2.247 -3.419,2.235"/>
<polygon class="node-58" points="-1.510,-0.418 -1.510,-0.430 -1.508,-0.443 -1.506,-0.455 -1.504,-0.467 -1.500,-0.479 -1.496,-0.491 -1.491,-0.503 -1.485,-0.514 -1.482,-0.519 -1.477,-0.528 -1.463,-0.553 -1.428,-0.615 -1.407,-0.651 -1.400,-0.663 -1.254,-0.918 -0.983,-1.392 -0.878,-1.574 -0.871,-1.587 -0.861,-1.603 -0.847,-1.622 -0.834,-1.638 -0.806,-1.667 -0.788,-1.681 -0.485,-1.557 -0.480,-1.549 -0.476,-1.542 -0.475,-1.512 -0.478,-1.481 -0.486,-1.455 -0.488,-1.450 -0.496,-1.437 -0.504,-1.423 -0.510,-1.412 -0.531,-1.375 -0.636,-1.193 -0.907,-0.719 -1.053,-0.464 -1.060,-0.452 -1.081,-0.415 -1.115,-0.355 -1.138,-0.317 -1.141,-0.311 -1.148,-0.300 -1.156,-0.290 -1.164,-0.281 -1.173,-0.272 -1.183,-0.264 -1.193,-0.256 -1.203,-0.249 -1.214,-0.243 -1.225,-0.237 -1.236,-0.232 -1.248,-0.228 -1.260,-0.224 -1.273,-0.221 -1.285,-0.219 -1.297,-0.218 -1.310,-0.218 -1.323,-0.218 -1.335,-0.219 -1.347,-0.221 -1.360,-0.224 -1.372,-0.228 -1.384,-0.232 -1.395,-0.237 -1.406,-0.243 -1.417,-0.249 -1.427,-0.256 -1.437,-0.264 -1.447,-0.272 -1.456,-0.281 -1.464,-0.290 -1.472,-0.300 -1.479,-0.311 -1.485,-0.321 -1.491,-0.333 -1.496,-0.344 -1.500,-0.356 -1.504,-0.368 -1.506,-0.380 -1.508,-0.393 -1.510,-0.405"/>
<polygon class="node-59" points="6.297,0.229 6.297,0.207 6.302,0.167 6.305,0.159 6.310,0.143 6.326,0.120 6.336,0.112 6.346,0.108 6.360,0.104 6.410,0.089 6.457,0.075 6.563,0.044 6.720,-0.003 6.798,-0.025 6.804,-0.027 6.814,-0.030 6.827,-0.033 6.839,-0.035 6.852,-0.036 6.864,-0.037 6.877,-0.036 6.889,-0.035 6.902,-0.033 6.914,-0.030 6.926,-0.027 6.938,-0.022 6.949,-0.017 6.961,-0.012 6.971,-0.005 6.982,0.002 6.992,0.009 7.001,0.018 7.010,0.027 7.018,0.036 7.026,0.046 7.033,0.056 7.039,0.067 7.045,0.078 7.050,0.090 7.054,0.102 7.058,0.114 7.061,0.126 7.063,0.138 7.064,0.151 7.064,0.163 7.064,0.176 7.063,0.188 7.061,0.201 7.058,0.213 7.054,0.225 7.050,0.237 7.045,0.249 7.039,0.260 7.033,0.271 7.026,0.281 7.018,0.291 7.010,0.300 7.001,0.309 6.992,0.317 6.982,0.325 6.971,0.332 6.961,0.339 6.949,0.344 6.938,0.349 6.926,0.354 6.915,0.357 6.912,0.358 6.833,0.381 6.676,0.428 6.570,0.459 6.524,0.473 6.472,0.488 6.458,0.492 6.452,0.493 6.447,0.493 6.434,0.492 6.428,0.490 6.415,0.484 6.395,0.470 6.389,0.463 6.376,0.449 6.369,0.441 6.357,0.423 6.345,0.404 6.340,0.393 6.330,0.371 6.313,0.324 6.310,0.312 6.304,0.288 6.302,0.276 6.300,0.264 6.298,0.240"/>
<polygon class="node-60" points="-2.015,-0.510 -2.014,-0.545 -2.013,-0.557 -2.003,-0.606 -1.991,-0.642 -1.987,-0.653 -1.981,-0.664 -1.976,-0.675 -1.970,-0.686 -1.951,-0.714 -1.945,-0.723 -1.938,-0.731 -1.923,-0.744 -1.901,-0.760 -1.893,-0.764 -1.878,-0.770 -1.863,-0.772 -1.856,-0.772 -1.842,-0.770 -1.812,-0.762 -1.672,-0.724 -1.608,-0.706 -1.491,-0.675 -1.468,-0.668 -1.428,-0.657 -1.407,-0.651 -1.398,-0.646 -1.188,-0.425 -1.165,-0.399 -1.159,-0.389 -1.133,-0.348 -1.149,-0.300 -1.174,-0.273 -1.204,-0.250 -1.226,-0.240 -1.249,-0.230 -1.348,-0.224 -1.356,-0.224 -1.363,-0.225 -1.370,-0.227 -1.374,-0.228 -1.474,-0.255 -1.713,-0.321 -1.777,-0.338 -1.918,-0.376 -1.946,-0.384 -1.953,-0.386 -1.966,-0.393 -1.972,-0.398 -1.977,-0.403 -1.983,-0.408 -1.992,-0.422 -2.000,-0.438 -2.013,-0.487 -2.014,-0.498"/>
<polygon class="node-61" points="1.823,-1.843 1.824,-1.855 1.825,-1.866 1.827,-1.878 1.829,-1.889 1.832,-1.900 1.836,-1.911 1.841,-1.921 1.847,-1.931 1.850,-1.937 1.853,-1.941 1.856,-1.946 1.890,-1.997 1.923,-2.046 1.958,-2.098 1.976,-2.126 1.981,-2.132 1.990,-2.146 1.997,-2.156 2.004,-2.165 2.006,-2.168 2.014,-2.177 2.023,-2.186 2.032,-2.195 2.042,-2.202 2.053,-2.209 2.063,-2.216 2.075,-2.221 2.086,-2.226 2.098,-2.231 2.110,-2.234 2.122,-2.237 2.135,-2.239 2.147,-2.240 2.160,-2.240 2.172,-2.240 2.185,-2.239 2.197,-2.237 2.210,-2.234 2.222,-2.231 2.233,-2.226 2.245,-2.221 2.256,-2.216 2.267,-2.209 2.277,-2.202 2.287,-2.195 2.297,-2.186 2.306,-2.177 2.314,-2.168 2.322,-2.158 2.329,-2.148 2.335,-2.137 2.341,-2.126 2.346,-2.114 2.350,-2.102 2.353,-2.090 2.356,-2.078 2.358,-2.066 2.359,-2.053 2.360,-2.041 2.359,-2.028 2.358,-2.015 2.356,-2.003 2.353,-1.991 2.350,-1.979 2.346,-1.967 2.341,-1.955 2.335,-1.944 2.329,-1.934 2.326,-1.930 2.324,-1.926 2.313,-1.910 2.309,-1.904 2.290,-1.876 2.256,-1.824 2.223,-1.775 2.188,-1.723 2.183,-1.715 2.176,-1.706 2.169,-1.697 2.161,-1.689 2.152,-1.681 2.143,-1.674 2.133,-1.668 2.123,-1.662 2.113,-1.657 2.102,-1.652 2.091,-1.648 2.079,-1.645 2.068,-1.643 2.056,-1.641 2.044,-1.641 2.032,-1.640 2.019,-1.641 2.007,-1.642 1.995,-1.644 1.983,-1.647 1.971,-1.651 1.959,-1.655 1.948,-1.660 1.936,-1.665 1.925,-1.672 1.915,-1.678 1.905,-1.686 1.895,-1.694 1.886,-1.702 1.877,-1.711 1.869,-1.721 1.861,-1.730 1.854,-1.741 1.848,-1.751 1.843,-1.762 1.838,-1.773 1.833,-1.785 1.830,-1.796 1.827,-1.808 1.825,-1.820 1.824,-1.831"/>
<polygon class="node-62" points="-1.469,-0.257 -1.468,-0.260 -1.464,-0.275 -1.414,-0.444 -1.391,-0.516 -1.385,-0.521 -1.378,-0.525 -1.371,-0.529 -1.279,-0.484 -1.095,-0.394 -1.093,-0.393 -1.091,-0.387 -1.088,-0.377 -1.071,-0.320 -1.066,-0.304 -1.012,-0.130 -0.994,-0.073 -0.954,0.059 -0.931,0.133 -0.913,0.191 -0.865,0.347 -0.864,0.351 -0.866,0.365 -0.868,0.370 -0.874,0.380 -0.936,0.428 -0.956,0.439 -0.977,0.449 -0.988,0.453 -1.035,0.470 -1.059,0.477 -1.118,0.489 -1.141,0.492 -1.198,0.492 -1.206,0.491 -1.226,0.485 -1.236,0.480 -1.247,0.466 -1.295,0.309 -1.313,0.251 -1.336,0.177 -1.377,0.045 -1.394,-0.013 -1.448,-0.186 -1.453,-0.202 -1.466,-0.244 -1.467,-0.250 -1.469,-0.254"/>
<polygon class="node-63" points="-0.730,-2.079 -0.728,-2.089 -0.726,-2.096 -0.692,-2.270 -0.675,-2.357 -0.653,-2.469 -0.650,-2.484 -0.648,-2.495 -0.645,-2.508 -0.641,-2.520 -0.637,-2.532 -0.632,-2.544 -0.626,-2.555 -0.620,-2.566 -0.613,-2.576 -0.605,-2.586 -0.597,-2.595 -0.588,-2.604 -0.578,-2.613 -0.568,-2.620 -0.558,-2.627 -0.547,-2.634 -0.536,-2.639 -0.524,-2.644 -0.513,-2.649 -0.501,-2.652 -0.488,-2.655 -0.476,-2.657 -0.463,-2.658 -0.451,-2.658 -0.438,-2.658 -0.426,-2.657 -0.413,-2.655 -0.401,-2.652 -0.389,-2.649 -0.377,-2.644 -0.366,-2.639 -0.355,-2.634 -0.344,-2.627 -0.333,-2.620 -0.323,-2.613 -0.314,-2.604 -0.305,-2.595 -0.297,-2.586 -0.289,-2.576 -0.282,-2.566 -0.276,-2.555 -0.270,-2.544 -0.265,-2.532 -0.261,-2.520 -0.257,-2.508 -0.255,-2.496 -0.253,-2.484 -0.251,-2.471 -0.251,-2.458 -0.251,-2.446 -0.253,-2.433 -0.255,-2.421 -0.256,-2.414 -0.256,-2.413 -0.257,-2.408 -0.261,-2.390 -0.282,-2.280 -0.300,-2.193 -0.334,-2.020 -0.336,-2.010 -0.338,-2.002 -0.342,-1.989 -0.350,-1.974 -0.355,-1.967 -0.361,-1.961 -0.375,-1.949 -0.391,-1.939 -0.441,-1.920 -0.452,-1.918 -0.500,-1.914 -0.524,-1.915 -0.537,-1.916 -0.549,-1.918 -0.586,-1.927 -0.598,-1.931 -0.621,-1.939 -0.632,-1.945 -0.652,-1.956 -0.662,-1.962 -0.671,-1.969 -0.702,-1.998 -0.713,-2.014 -0.724,-2.040 -0.726,-2.048 -0.728,-2.057 -0.729,-2.065 -0.730,-2.073"/>
<polygon class="node-64" points="-4.445,2.557 -4.444,2.545 -4.443,2.532 -4.441,2.520 -4.438,2.507 -4.435,2.495 -4.430,2.484 -4.425,2.472 -4.420,2.461 -4.413,2.450 -4.406,2.440 -4.399,2.430 -4.390,2.420 -4.381,2.411 -4.372,2.403 -4.362,2.395 -4.352,2.388 -4.341,2.382 -4.330,2.376 -4.318,2.371 -4.301,2.365 -4.281,2.359 -4.266,2.354 -3.861,2.221 -3.825,2.210 -3.815,2.206 -3.800,2.202 -3.795,2.200 -3.794,2.200 -3.793,2.199 -3.782,2.196 -3.769,2.193 -3.757,2.191 -3.745,2.190 -3.732,2.190 -3.719,2.190 -3.707,2.191 -3.694,2.193 -3.682,2.196 -3.670,2.200 -3.658,2.204 -3.647,2.209 -3.636,2.215 -3.625,2.221 -3.614,2.228 -3.605,2.236 -3.595,2.244 -3.586,2.253 -3.578,2.262 -3.570,2.272 -3.563,2.283 -3.557,2.293 -3.551,2.305 -3.546,2.316 -3.542,2.328 -3.538,2.340 -3.536,2.352 -3.534,2.365 -3.532,2.377 -3.532,2.390 -3.532,2.402 -3.534,2.415 -3.536,2.427 -3.538,2.440 -3.542,2.452 -3.546,2.463 -3.551,2.475 -3.557,2.486 -3.563,2.497 -3.570,2.507 -3.578,2.517 -3.586,2.527 -3.595,2.536 -3.605,2.544 -3.614,2.552 -3.625,2.559 -3.636,2.565 -3.647,2.571 -3.658,2.576 -3.669,2.580 -3.674,2.581 -3.690,2.587 -3.701,2.590 -3.737,2.602 -4.141,2.734 -4.157,2.739 -4.178,2.746 -4.195,2.751 -4.207,2.754 -4.220,2.756 -4.232,2.757 -4.245,2.757 -4.257,2.757 -4.270,2.756 -4.282,2.754 -4.294,2.751 -4.306,2.747 -4.318,2.743 -4.330,2.738 -4.341,2.732 -4.352,2.726 -4.362,2.719 -4.372,2.711 -4.381,2.703 -4.390,2.694 -4.399,2.685 -4.406,2.675 -4.413,2.664 -4.420,2.654 -4.425,2.642 -4.430,2.631 -4.435,2.619 -4.438,2.607 -4.441,2.595 -4.443,2.582 -4.444,2.570"/>
<polygon class="node-65" points="-3.797,2.227 -3.797,2.221 -3.797,2.215 -3.796,2.211 -3.795,2.207 -3.794,2.203 -3.793,2.201 -3.791,2.199 -3.789,2.198 -3.702,2.170 -3.645,2.151 -3.568,2.126 -3.456,2.089 -3.348,2.054 -3.338,2.051 -3.333,2.049 -3.313,2.043 -3.309,2.042 -3.305,2.041 -3.296,2.040 -3.279,2.038 -3.255,2.038 -3.231,2.039 -3.208,2.042 -3.176,2.053 -3.138,2.074 -3.106,2.102 -3.099,2.109 -3.074,2.143 -3.050,2.190 -3.044,2.211 -3.040,2.245 -3.039,2.257 -3.042,2.280 -3.050,2.316 -3.067,2.348 -3.074,2.359 -3.083,2.368 -3.092,2.376 -3.102,2.384 -3.112,2.391 -3.123,2.397 -3.155,2.411 -3.162,2.414 -3.183,2.421 -3.224,2.434 -3.331,2.469 -3.444,2.506 -3.521,2.531 -3.578,2.550 -3.665,2.578 -3.667,2.579 -3.669,2.578 -3.672,2.577 -3.675,2.575 -3.678,2.572 -3.681,2.569 -3.685,2.565 -3.688,2.560 -3.692,2.555 -3.696,2.548 -3.700,2.542 -3.704,2.534 -3.709,2.526 -3.713,2.518 -3.717,2.509 -3.722,2.499 -3.726,2.490 -3.731,2.479 -3.735,2.469 -3.739,2.458 -3.744,2.446 -3.748,2.435 -3.752,2.423 -3.756,2.411 -3.760,2.399 -3.764,2.387 -3.768,2.375 -3.771,2.363 -3.775,2.352 -3.778,2.340 -3.781,2.329 -3.783,2.317 -3.786,2.306 -3.788,2.296 -3.790,2.285 -3.792,2.276 -3.794,2.266 -3.795,2.257 -3.796,2.249 -3.797,2.241 -3.797,2.234"/>
<polygon class="node-66" points="-1.613,-0.451 -1.613,-0.464 -1.612,-0.477 -1.610,-0.489 -1.607,-0.501 -1.603,-0.513 -1.599,-0.525 -1.594,-0.537 -1.589,-0.548 -1.582,-0.559 -1.575,-0.569 -1.567,-0.579 -1.559,-0.588 -1.550,-0.597 -1.541,-0.605 -1.531,-0.613 -1.520,-0.620 -1.510,-0.627 -1.498,-0.632 -1.487,-0.637 -1.475,-0.642 -1.463,-0.645 -1.451,-0.648 -1.438,-0.650 -1.426,-0.651 -1.413,-0.651 -1.401,-0.651 -1.388,-0.650 -1.376,-0.648 -1.369,-0.646 -1.364,-0.645 -1.357,-0.643 -1.350,-0.641 -1.347,-0.640 -1.338,-0.637 -1.329,-0.634 -1.295,-0.623 -1.280,-0.618 -1.271,-0.615 -1.269,-0.614 -1.260,-0.611 -1.248,-0.606 -1.237,-0.601 -1.227,-0.594 -1.217,-0.587 -1.203,-0.577 -1.194,-0.568 -1.182,-0.555 -1.167,-0.537 -1.162,-0.530 -1.153,-0.515 -1.146,-0.501 -1.141,-0.492 -1.132,-0.465 -1.130,-0.458 -1.127,-0.447 -1.124,-0.427 -1.123,-0.410 -1.124,-0.397 -1.131,-0.376 -1.136,-0.361 -1.146,-0.342 -1.158,-0.322 -1.174,-0.302 -1.181,-0.296 -1.193,-0.284 -1.205,-0.274 -1.215,-0.266 -1.233,-0.255 -1.252,-0.245 -1.263,-0.240 -1.275,-0.236 -1.287,-0.232 -1.299,-0.229 -1.311,-0.227 -1.323,-0.226 -1.336,-0.226 -1.351,-0.226 -1.363,-0.228 -1.375,-0.230 -1.379,-0.230 -1.387,-0.232 -1.391,-0.234 -1.396,-0.235 -1.404,-0.238 -1.420,-0.243 -1.453,-0.254 -1.462,-0.257 -1.471,-0.260 -1.473,-0.260 -1.479,-0.263 -1.487,-0.266 -1.491,-0.267 -1.498,-0.271 -1.510,-0.276 -1.520,-0.283 -1.531,-0.290 -1.541,-0.297 -1.550,-0.306 -1.559,-0.315 -1.567,-0.324 -1.575,-0.334 -1.582,-0.344 -1.589,-0.355 -1.594,-0.366 -1.599,-0.378 -1.603,-0.390 -1.607,-0.402 -1.610,-0.414 -1.612,-0.426 -1.613,-0.439"/>
<polygon class="node-67" points="-3.324,2.400 -3.323,2.387 -3.320,2.364 -3.286,2.054 -3.279,2.038 -3.255,2.038 -3.231,2.039 -3.197,2.046 -3.176,2.053 -3.138,2.074 -3.068,2.123 -3.055,2.132 -3.030,2.154 -3.024,2.161 -3.018,2.168 -3.010,2.179 -3.007,2.185 -2.995,2.203 -2.987,2.216 -2.861,2.416 -2.812,2.494 -2.804,2.507 -2.795,2.521 -2.790,2.530 -2.783,2.541 -2.780,2.545 -2.777,2.550 -2.771,2.561 -2.765,2.572 -2.760,2.584 -2.756,2.595 -2.752,2.608 -2.749,2.620 -2.748,2.632 -2.746,2.645 -2.746,2.657 -2.746,2.670 -2.748,2.682 -2.749,2.695 -2.752,2.707 -2.756,2.719 -2.760,2.731 -2.765,2.742 -2.771,2.754 -2.777,2.764 -2.784,2.775 -2.792,2.785 -2.800,2.794 -2.809,2.803 -2.818,2.811 -2.828,2.819 -2.839,2.826 -2.850,2.832 -2.861,2.838 -2.872,2.843 -2.884,2.847 -2.896,2.851 -2.908,2.854 -2.921,2.856 -2.933,2.857 -2.946,2.857 -2.958,2.857 -2.971,2.856 -2.983,2.854 -2.996,2.851 -3.008,2.847 -3.019,2.843 -3.031,2.838 -3.042,2.832 -3.053,2.826 -3.063,2.819 -3.073,2.811 -3.083,2.803 -3.092,2.794 -3.100,2.785 -3.108,2.775 -3.115,2.764 -3.117,2.761 -3.120,2.756 -3.129,2.741 -3.135,2.733 -3.142,2.720 -3.151,2.707 -3.200,2.629 -3.260,2.533 -3.296,2.477 -3.304,2.464 -3.312,2.450 -3.317,2.441 -3.318,2.436 -3.323,2.413"/>
<polygon class="node-68" points="-3.442,1.849 -3.442,1.837 -3.441,1.824 -3.439,1.812 -3.436,1.800 -3.433,1.787 -3.428,1.776 -3.423,1.764 -3.418,1.753 -3.411,1.742 -3.404,1.732 -3.396,1.722 -3.388,1.712 -3.379,1.704 -3.370,1.695 -3.360,1.688 -3.350,1.680 -3.339,1.674 -3.328,1.668 -3.316,1.663 -3.304,1.659 -3.292,1.656 -3.280,1.653 -3.267,1.651 -3.255,1.650 -3.242,1.649 -3.230,1.650 -3.217,1.651 -3.205,1.653 -3.193,1.656 -3.181,1.659 -3.169,1.663 -3.157,1.668 -3.146,1.674 -3.135,1.680 -3.125,1.688 -3.115,1.695 -3.106,1.704 -3.097,1.712 -3.088,1.722 -3.081,1.732 -3.074,1.742 -3.067,1.753 -3.062,1.764 -3.057,1.776 -3.052,1.787 -3.049,1.800 -3.046,1.812 -3.044,1.824 -3.043,1.837 -3.043,1.840 -3.041,1.871 -3.039,1.896 -3.039,1.904 -3.024,2.143 -3.023,2.164 -3.023,2.165 -3.024,2.171 -3.028,2.180 -3.030,2.183 -3.037,2.190 -3.048,2.200 -3.058,2.209 -3.083,2.224 -3.119,2.242 -3.130,2.247 -3.168,2.264 -3.191,2.272 -3.244,2.287 -3.274,2.295 -3.308,2.301 -3.333,2.281 -3.357,2.261 -3.389,2.221 -3.402,2.203 -3.408,2.190 -3.416,2.172 -3.419,2.163 -3.422,2.154 -3.424,2.145 -3.425,2.136 -3.426,2.127 -3.426,2.123 -3.429,2.071 -3.438,1.929 -3.438,1.922 -3.440,1.895 -3.442,1.866 -3.442,1.862"/>
<polygon class="node-69" points="-3.119,2.752 -3.117,2.736 -3.091,2.689 -3.084,2.682 -3.070,2.667 -3.062,2.659 -2.986,2.600 -2.965,2.587 -2.943,2.575 -2.932,2.570 -2.921,2.564 -2.900,2.555 -2.860,2.542 -2.833,2.537 -2.825,2.536 -2.804,2.536 -2.793,2.539 -2.780,2.548 -2.777,2.551 -2.774,2.555 -2.771,2.559 -2.766,2.568 -2.757,2.581 -2.727,2.629 -2.566,2.886 -2.519,2.960 -2.508,2.978 -2.506,2.981 -2.504,2.985 -2.497,2.996 -2.492,3.007 -2.487,3.019 -2.482,3.030 -2.479,3.042 -2.476,3.055 -2.474,3.067 -2.473,3.080 -2.472,3.092 -2.473,3.105 -2.474,3.117 -2.476,3.130 -2.479,3.142 -2.482,3.154 -2.487,3.166 -2.492,3.177 -2.497,3.188 -2.504,3.199 -2.511,3.210 -2.518,3.220 -2.527,3.229 -2.536,3.238 -2.545,3.246 -2.555,3.254 -2.565,3.261 -2.576,3.267 -2.587,3.273 -2.599,3.278 -2.611,3.282 -2.623,3.286 -2.635,3.288 -2.647,3.290 -2.660,3.292 -2.672,3.292 -2.685,3.292 -2.697,3.290 -2.710,3.288 -2.722,3.286 -2.734,3.282 -2.746,3.278 -2.758,3.273 -2.769,3.267 -2.780,3.261 -2.790,3.254 -2.800,3.246 -2.809,3.238 -2.818,3.229 -2.826,3.220 -2.834,3.210 -2.841,3.199 -2.844,3.195 -2.848,3.189 -2.858,3.172 -2.905,3.099 -3.066,2.842 -3.096,2.794 -3.104,2.781 -3.110,2.773 -3.112,2.769 -3.117,2.761 -3.118,2.757"/>
<polygon class="node-70" points="-1.717,-0.485 -1.716,-0.498 -1.715,-0.510 -1.713,-0.523 -1.710,-0.535 -1.707,-0.547 -1.703,-0.559 -1.698,-0.570 -1.692,-0.582 -1.685,-0.592 -1.678,-0.603 -1.671,-0.613 -1.662,-0.622 -1.654,-0.631 -1.644,-0.639 -1.634,-0.647 -1.624,-0.654 -1.613,-0.660 -1.602,-0.666 -1.590,-0.671 -1.578,-0.675 -1.566,-0.679 -1.554,-0.682 -1.542,-0.684 -1.529,-0.685 -1.517,-0.685 -1.504,-0.685 -1.492,-0.684 -1.479,-0.682 -1.468,-0.679 -1.467,-0.679 -1.458,-0.676 -1.456,-0.676 -1.452,-0.675 -1.432,-0.668 -1.426,-0.666 -1.408,-0.660 -1.359,-0.644 -1.359,-0.644 -1.358,-0.644 -1.355,-0.643 -1.354,-0.642 -1.348,-0.641 -1.345,-0.639 -1.333,-0.635 -1.320,-0.628 -1.311,-0.623 -1.301,-0.616 -1.290,-0.608 -1.282,-0.601 -1.273,-0.592 -1.265,-0.583 -1.256,-0.572 -1.242,-0.551 -1.236,-0.540 -1.231,-0.529 -1.227,-0.517 -1.224,-0.505 -1.221,-0.493 -1.219,-0.481 -1.217,-0.468 -1.217,-0.443 -1.218,-0.431 -1.223,-0.406 -1.231,-0.383 -1.236,-0.371 -1.241,-0.360 -1.247,-0.349 -1.254,-0.339 -1.269,-0.318 -1.296,-0.292 -1.317,-0.279 -1.328,-0.273 -1.339,-0.267 -1.363,-0.259 -1.375,-0.256 -1.387,-0.254 -1.399,-0.253 -1.412,-0.252 -1.424,-0.252 -1.436,-0.253 -1.448,-0.255 -1.461,-0.257 -1.464,-0.258 -1.473,-0.260 -1.476,-0.262 -1.481,-0.263 -1.482,-0.263 -1.531,-0.279 -1.550,-0.286 -1.554,-0.287 -1.556,-0.288 -1.575,-0.294 -1.578,-0.295 -1.583,-0.297 -1.586,-0.298 -1.590,-0.299 -1.598,-0.303 -1.602,-0.304 -1.613,-0.310 -1.624,-0.316 -1.634,-0.323 -1.644,-0.331 -1.654,-0.339 -1.662,-0.348 -1.671,-0.358 -1.678,-0.368 -1.685,-0.378 -1.692,-0.389 -1.698,-0.400 -1.703,-0.412 -1.707,-0.423 -1.710,-0.435 -1.713,-0.448 -1.715,-0.460 -1.716,-0.473"/>
<polygon class="node-71" points="-3.465,1.476 -3.465,1.464 -3.464,1.451 -3.462,1.439 -3.459,1.426 -3.456,1.414 -3.451,1.403 -3.446,1.391 -3.441,1.380 -3.434,1.369 -3.427,1.359 -3.420,1.349 -3.411,1.339 -3.402,1.330 -3.393,1.322 -3.383,1.314 -3.373,1.307 -3.362,1.301 -3.351,1.295 -3.339,1.290 -3.327,1.286 -3.315,1.282 -3.303,1.280 -3.291,1.278 -3.278,1.277 -3.265,1.276 -3.253,1.277 -3.240,1.278 -3.228,1.280 -3.216,1.282 -3.204,1.286 -3.192,1.290 -3.180,1.295 -3.169,1.301 -3.158,1.307 -3.148,1.314 -3.138,1.322 -3.129,1.330 -3.120,1.339 -3.111,1.349 -3.104,1.359 -3.097,1.369 -3.090,1.380 -3.085,1.391 -3.080,1.403 -3.075,1.414 -3.072,1.426 -3.069,1.439 -3.067,1.451 -3.066,1.464 -3.066,1.468 -3.065,1.471 -3.065,1.479 -3.053,1.676 -3.045,1.796 -3.045,1.807 -3.043,1.838 -3.043,1.847 -3.045,1.866 -3.047,1.875 -3.054,1.893 -3.059,1.901 -3.070,1.918 -3.076,1.926 -3.109,1.955 -3.129,1.967 -3.151,1.977 -3.162,1.981 -3.174,1.985 -3.186,1.988 -3.222,1.994 -3.235,1.995 -3.248,1.996 -3.273,1.995 -3.297,1.992 -3.332,1.983 -3.354,1.974 -3.364,1.969 -3.374,1.963 -3.383,1.957 -3.392,1.951 -3.400,1.944 -3.414,1.929 -3.420,1.922 -3.430,1.905 -3.434,1.896 -3.437,1.888 -3.440,1.879 -3.441,1.870 -3.442,1.860 -3.444,1.831 -3.445,1.821 -3.452,1.701 -3.464,1.504 -3.465,1.496 -3.465,1.492"/>
</svg>