<?xml version="1.0" encoding="UTF-8"?>
<svg
	id="Layer_1"
	xmlns="http://www.w3.org/2000/svg"
	viewBox="-14.0 -14.0 28.0 28.0"
>
<defs>
<style>
</style>
</defs><line
	x1="-2.714947252285886"
	x2="-2.6914031164359846"
	y1="0.25155363139999626"
	y2="0.24226615401180931"
	style="stroke:rgb(255,255,255);stroke-width:0.1"/><line
	x1="-2.6914031164359846"
	x2="-2.667858980586083"
	y1="0.24226615401180931"
	y2="0.23297867662362237"
	style="stroke:rgb(255,13,13);stroke-width:0.1"/><line
	x1="-1.000062771704308"
	x2="-1.333894704870492"
	y1="-0.044322415935864175"
	y2="0.008358413591108602"
	style="stroke:rgb(255,13,13);stroke-width:0.1"/><line
	x1="-1.333894704870492"
	x2="-1.6677266380366764"
	y1="0.008358413591108602"
	y2="0.06103924311808138"
	style="stroke:rgb(144,144,144);stroke-width:0.1"/><line
	x1="-2.667858980586083"
	x2="-2.1677928093113796"
	y1="0.23297867662362237"
	y2="0.14700895987085189"
	style="stroke:rgb(255,13,13);stroke-width:0.1"/><line
	x1="-2.1677928093113796"
	x2="-1.6677266380366764"
	y1="0.14700895987085189"
	y2="0.06103924311808138"
	style="stroke:rgb(144,144,144);stroke-width:0.1"/><line
	x1="-1.6677266380366764"
	x2="-1.596323599489362"
	y1="0.06103924311808138"
	y2="0.04010783326734765"
	style="stroke:rgb(144,144,144);stroke-width:0.1"/><line
	x1="-1.596323599489362"
	x2="-1.5249205609420478"
	y1="0.04010783326734765"
	y2="0.01917642341661393"
	style="stroke:rgb(144,144,144);stroke-width:0.1"/><line
	x1="-2.047753377489323"
	x2="-1.772282503451144"
	y1="2.1982333647430954"
	y2="2.194744091899138"
	style="stroke:rgb(255,255,255);stroke-width:0.1"/><line
	x1="-1.772282503451144"
	x2="-1.4968116294129648"
	y1="2.194744091899138"
	y2="2.191254819055181"
	style="stroke:rgb(144,144,144);stroke-width:0.1"/><line
	x1="-0.6623818717557299"
	x2="-1.0795967505843473"
	y1="2.115815419339862"
	y2="2.1535351191975214"
	style="stroke:rgb(255,255,255);stroke-width:0.1"/><line
	x1="-1.0795967505843473"
	x2="-1.4968116294129648"
	y1="2.1535351191975214"
	y2="2.191254819055181"
	style="stroke:rgb(144,144,144);stroke-width:0.1"/><line
	x1="-1.4968116294129648"
	x2="-1.6427309040927602"
	y1="2.191254819055181"
	y2="1.6859180189349083"
	style="stroke:rgb(144,144,144);stroke-width:0.1"/><line
	x1="-1.6427309040927602"
	x2="-1.7886501787725557"
	y1="1.6859180189349083"
	y2="1.1805812188146358"
	style="stroke:rgb(144,144,144);stroke-width:0.1"/><line
	x1="-1.4968116294129648"
	x2="-1.541466181953468"
	y1="2.191254819055181"
	y2="2.624935307973911"
	style="stroke:rgb(144,144,144);stroke-width:0.1"/><line
	x1="-1.541466181953468"
	x2="-1.5861207344939716"
	y1="2.624935307973911"
	y2="3.058615796892641"
	style="stroke:rgb(255,255,255);stroke-width:0.1"/><line
	x1="-1.5249205609420478"
	x2="-0.9348881134260665"
	y1="0.01917642341661393"
	y2="-0.12399638775218734"
	style="stroke:rgb(144,144,144);stroke-width:0.1"/><line
	x1="-0.9348881134260665"
	x2="-0.34485566591008515"
	y1="-0.12399638775218734"
	y2="-0.2671691989209886"
	style="stroke:rgb(48,80,248);stroke-width:0.1"/><line
	x1="-1.5249205609420478"
	x2="-1.6567853698573018"
	y1="0.01917642341661393"
	y2="0.5998788211156248"
	style="stroke:rgb(144,144,144);stroke-width:0.1"/><line
	x1="-1.6567853698573018"
	x2="-1.7886501787725557"
	y1="0.5998788211156248"
	y2="1.1805812188146358"
	style="stroke:rgb(144,144,144);stroke-width:0.1"/><line
	x1="-1.5249205609420478"
	x2="-1.789338384575812"
	y1="0.01917642341661393"
	y2="-0.33966209432249345"
	style="stroke:rgb(144,144,144);stroke-width:0.1"/><line
	x1="-1.789338384575812"
	x2="-2.053756208209576"
	y1="-0.33966209432249345"
	y2="-0.6985006120616009"
	style="stroke:rgb(255,255,255);stroke-width:0.1"/><line
	x1="-0.20675563451322007"
	x2="-0.0666881031733732"
	y1="-2.2714636451598693"
	y2="-1.7990364435505177"
	style="stroke:rgb(255,13,13);stroke-width:0.1"/><line
	x1="-0.0666881031733732"
	x2="0.07337942816647365"
	y1="-1.7990364435505177"
	y2="-1.326609241941166"
	style="stroke:rgb(144,144,144);stroke-width:0.1"/><line
	x1="-3.6804742279950577"
	x2="-3.4101965985703986"
	y1="1.2460990581924065"
	y2="1.26012167301041"
	style="stroke:rgb(255,255,255);stroke-width:0.1"/><line
	x1="-3.4101965985703986"
	x2="-3.1399189691457394"
	y1="1.26012167301041"
	y2="1.2741442878284133"
	style="stroke:rgb(144,144,144);stroke-width:0.1"/><line
	x1="-0.34485566591008515"
	x2="0.029990208453725326"
	y1="-0.2671691989209886"
	y2="0.07361185776741383"
	style="stroke:rgb(48,80,248);stroke-width:0.1"/><line
	x1="0.029990208453725326"
	x2="0.4048360828175358"
	y1="0.07361185776741383"
	y2="0.4143929144558163"
	style="stroke:rgb(144,144,144);stroke-width:0.1"/><line
	x1="-0.34485566591008515"
	x2="-0.13573811887180576"
	y1="-0.2671691989209886"
	y2="-0.7968892204310772"
	style="stroke:rgb(48,80,248);stroke-width:0.1"/><line
	x1="-0.13573811887180576"
	x2="0.07337942816647365"
	y1="-0.7968892204310772"
	y2="-1.326609241941166"
	style="stroke:rgb(144,144,144);stroke-width:0.1"/><line
	x1="0.9737436326699913"
	x2="0.6892898577437636"
	y1="0.9825891136203394"
	y2="0.6984910140380778"
	style="stroke:rgb(255,255,255);stroke-width:0.1"/><line
	x1="0.6892898577437636"
	x2="0.4048360828175358"
	y1="0.6984910140380778"
	y2="0.4143929144558163"
	style="stroke:rgb(144,144,144);stroke-width:0.1"/><line
	x1="0.07337942816647365"
	x2="0.5258077012299724"
	y1="-1.326609241941166"
	y2="-1.0623667886465578"
	style="stroke:rgb(144,144,144);stroke-width:0.1"/><line
	x1="0.5258077012299724"
	x2="0.9782359742934712"
	y1="-1.0623667886465578"
	y2="-0.7981243353519496"
	style="stroke:rgb(144,144,144);stroke-width:0.1"/><line
	x1="-1.7886501787725557"
	x2="-1.2504084576740773"
	y1="1.1805812188146358"
	y2="1.2009986294882138"
	style="stroke:rgb(144,144,144);stroke-width:0.1"/><line
	x1="-1.2504084576740773"
	x2="-0.7121667365755989"
	y1="1.2009986294882138"
	y2="1.2214160401617917"
	style="stroke:rgb(255,255,48);stroke-width:0.1"/><line
	x1="-1.7886501787725557"
	x2="-2.4642845739591475"
	y1="1.1805812188146358"
	y2="1.2273627533215246"
	style="stroke:rgb(144,144,144);stroke-width:0.1"/><line
	x1="-2.4642845739591475"
	x2="-3.1399189691457394"
	y1="1.2273627533215246"
	y2="1.2741442878284133"
	style="stroke:rgb(144,144,144);stroke-width:0.1"/><line
	x1="1.8999504442287414"
	x2="1.4390932092611064"
	y1="-0.9083841584920962"
	y2="-0.8532542469220229"
	style="stroke:rgb(255,255,255);stroke-width:0.1"/><line
	x1="1.4390932092611064"
	x2="0.9782359742934712"
	y1="-0.8532542469220229"
	y2="-0.7981243353519496"
	style="stroke:rgb(144,144,144);stroke-width:0.1"/><line
	x1="0.4048360828175358"
	x2="-0.15366532687903156"
	y1="0.4143929144558163"
	y2="0.817904477308804"
	style="stroke:rgb(144,144,144);stroke-width:0.1"/><line
	x1="-0.15366532687903156"
	x2="-0.7121667365755989"
	y1="0.817904477308804"
	y2="1.2214160401617917"
	style="stroke:rgb(255,255,48);stroke-width:0.1"/><line
	x1="0.4048360828175358"
	x2="0.6915360285555034"
	y1="0.4143929144558163"
	y2="-0.19186571044806666"
	style="stroke:rgb(144,144,144);stroke-width:0.1"/><line
	x1="0.6915360285555034"
	x2="0.9782359742934712"
	y1="-0.19186571044806666"
	y2="-0.7981243353519496"
	style="stroke:rgb(144,144,144);stroke-width:0.1"/><line
	x1="-3.1399189691457394"
	x2="-3.2652525406110575"
	y1="1.2741442878284133"
	y2="1.727894524934534"
	style="stroke:rgb(144,144,144);stroke-width:0.1"/><line
	x1="-3.2652525406110575"
	x2="-3.390586112076375"
	y1="1.727894524934534"
	y2="2.181644762040655"
	style="stroke:rgb(255,255,255);stroke-width:0.1"/><line
	x1="-3.1399189691457394"
	x2="-3.2982318624619675"
	y1="1.2741442878284133"
	y2="0.8790027361158115"
	style="stroke:rgb(144,144,144);stroke-width:0.1"/><line
	x1="-3.2982318624619675"
	x2="-3.4565447557781956"
	y1="0.8790027361158115"
	y2="0.4838611844032097"
	style="stroke:rgb(255,255,255);stroke-width:0.1"/><line
	x1="0.9782359742934712"
	x2="0.9208277136849619"
	y1="-0.7981243353519496"
	y2="-1.0361024683978175"
	style="stroke:rgb(144,144,144);stroke-width:0.1"/><line
	x1="0.9208277136849619"
	x2="0.8634194530764525"
	y1="-1.0361024683978175"
	y2="-1.2740806014436856"
	style="stroke:rgb(48,80,248);stroke-width:0.1"/><line
	x1="0.8634194530764525"
	x2="1.4380884365822992"
	y1="-1.2740806014436856"
	y2="-1.2616536830878395"
	style="stroke:rgb(48,80,248);stroke-width:0.1"/><line
	x1="1.4380884365822992"
	x2="2.0127574200881457"
	y1="-1.2616536830878395"
	y2="-1.2492267647319935"
	style="stroke:rgb(144,144,144);stroke-width:0.1"/><line
	x1="0.8634194530764525"
	x2="0.40030899011902343"
	y1="-1.2740806014436856"
	y2="-1.4719929227124848"
	style="stroke:rgb(48,80,248);stroke-width:0.1"/><line
	x1="0.40030899011902343"
	x2="-0.06280147283840568"
	y1="-1.4719929227124848"
	y2="-1.6699052439812838"
	style="stroke:rgb(255,255,255);stroke-width:0.1"/><line
	x1="3.1967408120606007"
	x2="2.604749116074373"
	y1="-0.7685671310093711"
	y2="-1.0088969478706824"
	style="stroke:rgb(255,13,13);stroke-width:0.1"/><line
	x1="2.604749116074373"
	x2="2.0127574200881457"
	y1="-1.0088969478706824"
	y2="-1.2492267647319935"
	style="stroke:rgb(144,144,144);stroke-width:0.1"/><line
	x1="2.0127574200881457"
	x2="1.8375081588549558"
	y1="-1.2492267647319935"
	y2="-1.6091561359100122"
	style="stroke:rgb(144,144,144);stroke-width:0.1"/><line
	x1="1.8375081588549558"
	x2="1.6622588976217658"
	y1="-1.6091561359100122"
	y2="-1.969085507088031"
	style="stroke:rgb(144,144,144);stroke-width:0.1"/><line
	x1="0.41544325468650406"
	x2="1.038851076154135"
	y1="-2.451503029460729"
	y2="-2.2102942682743802"
	style="stroke:rgb(255,255,255);stroke-width:0.1"/><line
	x1="1.038851076154135"
	x2="1.6622588976217658"
	y1="-2.2102942682743802"
	y2="-1.969085507088031"
	style="stroke:rgb(144,144,144);stroke-width:0.1"/><line
	x1="1.6622588976217658"
	x2="1.784118724396727"
	y1="-1.969085507088031"
	y2="-1.3460662616303827"
	style="stroke:rgb(144,144,144);stroke-width:0.1"/><line
	x1="1.784118724396727"
	x2="1.9059785511716882"
	y1="-1.3460662616303827"
	y2="-0.7230470161727344"
	style="stroke:rgb(144,144,144);stroke-width:0.1"/><line
	x1="1.6622588976217658"
	x2="2.079285467622707"
	y1="-1.969085507088031"
	y2="-2.5281515726617187"
	style="stroke:rgb(144,144,144);stroke-width:0.1"/><line
	x1="2.079285467622707"
	x2="2.496312037623648"
	y1="-2.5281515726617187"
	y2="-3.0872176382354066"
	style="stroke:rgb(255,255,255);stroke-width:0.1"/><line
	x1="-0.7577518039865828"
	x2="-0.16225787712743076"
	y1="0.22116738663124988"
	y2="0.3071833376313247"
	style="stroke:rgb(255,255,255);stroke-width:0.1"/><line
	x1="-0.16225787712743076"
	x2="0.4332360497317213"
	y1="0.3071833376313247"
	y2="0.3931992886313996"
	style="stroke:rgb(144,144,144);stroke-width:0.1"/><line
	x1="1.9059785511716882"
	x2="1.1696073004517047"
	y1="-0.7230470161727344"
	y2="-0.1649238637706674"
	style="stroke:rgb(144,144,144);stroke-width:0.1"/><line
	x1="1.1696073004517047"
	x2="0.4332360497317213"
	y1="-0.1649238637706674"
	y2="0.3931992886313996"
	style="stroke:rgb(144,144,144);stroke-width:0.1"/><line
	x1="1.9059785511716882"
	x2="2.8170933620050107"
	y1="-0.7230470161727344"
	y2="-0.6422124149984811"
	style="stroke:rgb(144,144,144);stroke-width:0.1"/><line
	x1="2.8170933620050107"
	x2="3.7282081728383334"
	y1="-0.6422124149984811"
	y2="-0.5613778138242279"
	style="stroke:rgb(144,144,144);stroke-width:0.1"/><line
	x1="4.903214979288249"
	x2="4.315711576063292"
	y1="-1.471929151214851"
	y2="-1.0166534825195395"
	style="stroke:rgb(255,255,255);stroke-width:0.1"/><line
	x1="4.315711576063292"
	x2="3.7282081728383334"
	y1="-1.0166534825195395"
	y2="-0.5613778138242279"
	style="stroke:rgb(144,144,144);stroke-width:0.1"/><line
	x1="0.4332360497317213"
	x2="0.49540448148459604"
	y1="0.3931992886313996"
	y2="1.1686065680316298"
	style="stroke:rgb(144,144,144);stroke-width:0.1"/><line
	x1="0.49540448148459604"
	x2="0.5575729132374707"
	y1="1.1686065680316298"
	y2="1.9440138474318598"
	style="stroke:rgb(144,144,144);stroke-width:0.1"/><line
	x1="3.7282081728383334"
	x2="3.9802835467080597"
	y1="-0.5613778138242279"
	y2="0.21105816020347518"
	style="stroke:rgb(144,144,144);stroke-width:0.1"/><line
	x1="3.9802835467080597"
	x2="4.232358920577786"
	y1="0.21105816020347518"
	y2="0.9834941342311783"
	style="stroke:rgb(144,144,144);stroke-width:0.1"/><line
	x1="0.5575729132374707"
	x2="1.5360281846564576"
	y1="1.9440138474318598"
	y2="2.1660500528387026"
	style="stroke:rgb(144,144,144);stroke-width:0.1"/><line
	x1="1.5360281846564576"
	x2="2.5144834560754448"
	y1="2.1660500528387026"
	y2="2.3880862582455458"
	style="stroke:rgb(144,144,144);stroke-width:0.1"/><line
	x1="0.5575729132374707"
	x2="-0.09825340651035902"
	y1="1.9440138474318598"
	y2="2.4627489487748937"
	style="stroke:rgb(144,144,144);stroke-width:0.1"/><line
	x1="-0.09825340651035902"
	x2="-0.7540797262581888"
	y1="2.4627489487748937"
	y2="2.981484050117928"
	style="stroke:rgb(255,255,255);stroke-width:0.1"/><line
	x1="4.232358920577786"
	x2="3.373421188326615"
	y1="0.9834941342311783"
	y2="1.685790196238362"
	style="stroke:rgb(144,144,144);stroke-width:0.1"/><line
	x1="3.373421188326615"
	x2="2.5144834560754448"
	y1="1.685790196238362"
	y2="2.3880862582455458"
	style="stroke:rgb(144,144,144);stroke-width:0.1"/><line
	x1="4.232358920577786"
	x2="5.168572344097246"
	y1="0.9834941342311783"
	y2="1.1293669998272495"
	style="stroke:rgb(144,144,144);stroke-width:0.1"/><line
	x1="5.168572344097246"
	x2="6.104785767616706"
	y1="1.1293669998272495"
	y2="1.2752398654233208"
	style="stroke:rgb(255,255,255);stroke-width:0.1"/><line
	x1="2.5144834560754448"
	x2="2.6754601936895797"
	y1="2.3880862582455458"
	y2="3.2108600621176633"
	style="stroke:rgb(144,144,144);stroke-width:0.1"/><line
	x1="2.6754601936895797"
	x2="2.8364369313037145"
	y1="3.2108600621176633"
	y2="4.03363386598978"
	style="stroke:rgb(255,255,255);stroke-width:0.1"/>
</svg>
