<?xml version="1.0" encoding="UTF-8"?>
<svg
	id="Layer_1"
	xmlns="http://www.w3.org/2000/svg"
	viewBox="-14.0 -14.0 28.0 28.0"
>
<defs>
<style>
</style>
</defs><line
	x1="2.778234343185109"
	x2="3.1424011478812153"
	y1="0.18286792441459954"
	y2="0.1423643479206401"
	style="stroke:rgb(0,0,131.365);stroke-width:0.1"/><line
	x1="3.1424011478812153"
	x2="3.506567952577321"
	y1="0.1423643479206401"
	y2="0.10186077142668064"
	style="stroke:rgb(0,0,136.7455);stroke-width:0.1"/><line
	x1="-2.1096213698560025"
	x2="-2.434033767265788"
	y1="0.9081820096589241"
	y2="0.9956867957017833"
	style="stroke:rgb(0,0,131.365);stroke-width:0.1"/><line
	x1="-2.434033767265788"
	x2="-2.7584461646755742"
	y1="0.9956867957017833"
	y2="1.0831915817446425"
	style="stroke:rgb(113.158,0,0);stroke-width:0.1"/><line
	x1="4.923176208306925"
	x2="4.608816641929371"
	y1="-3.6048727906664646"
	y2="-3.2307704110529016"
	style="stroke:rgb(0,0,175.99);stroke-width:0.1"/><line
	x1="4.608816641929371"
	x2="4.294457075551818"
	y1="-3.2307704110529016"
	y2="-2.8566680314393382"
	style="stroke:rgb(173.7715,0,0);stroke-width:0.1"/><line
	x1="4.290899270610964"
	x2="3.8987336115941424"
	y1="-0.38212876446069843"
	y2="-0.1401339965170089"
	style="stroke:rgb(0,0,131.365);stroke-width:0.1"/><line
	x1="3.8987336115941424"
	x2="3.506567952577321"
	y1="-0.1401339965170089"
	y2="0.10186077142668064"
	style="stroke:rgb(0,0,136.7455);stroke-width:0.1"/><line
	x1="4.294457075551818"
	x2="3.824222792676085"
	y1="-2.8566680314393382"
	y2="-2.9949111374581974"
	style="stroke:rgb(173.7715,0,0);stroke-width:0.1"/><line
	x1="3.824222792676085"
	x2="3.3539885098003523"
	y1="-2.9949111374581974"
	y2="-3.1331542434770565"
	style="stroke:rgb(170.9665,0,0);stroke-width:0.1"/><line
	x1="2.04160729911794"
	x2="2.226087735618603"
	y1="-1.7949765735874132"
	y2="-1.8715624242917048"
	style="stroke:rgb(0,0,131.365);stroke-width:0.1"/><line
	x1="2.226087735618603"
	x2="2.4105681721192664"
	y1="-1.8715624242917048"
	y2="-1.9481482749959962"
	style="stroke:rgb(152.3005,0,0);stroke-width:0.1"/><line
	x1="-3.670794179965249"
	x2="-3.2146201723204113"
	y1="0.818411528368603"
	y2="0.9508015550566227"
	style="stroke:rgb(0,0,131.365);stroke-width:0.1"/><line
	x1="-3.2146201723204113"
	x2="-2.7584461646755742"
	y1="0.9508015550566227"
	y2="1.0831915817446425"
	style="stroke:rgb(113.158,0,0);stroke-width:0.1"/><line
	x1="-0.169890521550493"
	x2="-0.053102296310417574"
	y1="-3.14469913319839"
	y2="-2.868288847798371"
	style="stroke:rgb(138.913,0,0);stroke-width:0.1"/><line
	x1="-0.053102296310417574"
	x2="0.06368592892965785"
	y1="-2.868288847798371"
	y2="-2.5918785623983522"
	style="stroke:rgb(170.9665,0,0);stroke-width:0.1"/><line
	x1="-0.793451073044816"
	x2="-1.2110425827090698"
	y1="2.6356955982115062"
	y2="2.8945002971962195"
	style="stroke:rgb(0,0,131.365);stroke-width:0.1"/><line
	x1="-1.2110425827090698"
	x2="-1.6286340923733238"
	y1="2.8945002971962195"
	y2="3.1533049961809323"
	style="stroke:rgb(0,0,140.3155);stroke-width:0.1"/><line
	x1="-0.7209627372437435"
	x2="-1.1642169886274512"
	y1="5.0389859495808835"
	y2="4.790203900796346"
	style="stroke:rgb(0,0,131.365);stroke-width:0.1"/><line
	x1="-1.1642169886274512"
	x2="-1.6074712400111586"
	y1="4.790203900796346"
	y2="4.5414218520118075"
	style="stroke:rgb(0,0,140.3155);stroke-width:0.1"/><line
	x1="3.506567952577321"
	x2="3.2627740303048656"
	y1="0.10186077142668064"
	y2="-0.2695453639153797"
	style="stroke:rgb(0,0,136.7455);stroke-width:0.1"/><line
	x1="3.2627740303048656"
	x2="3.0189801080324097"
	y1="-0.2695453639153797"
	y2="-0.64095149925744"
	style="stroke:rgb(152.3005,0,0);stroke-width:0.1"/><line
	x1="3.506567952577321"
	x2="3.6817225341005724"
	y1="0.10186077142668064"
	y2="0.5842697159709371"
	style="stroke:rgb(0,0,136.7455);stroke-width:0.1"/><line
	x1="3.6817225341005724"
	x2="3.8568771156238237"
	y1="0.5842697159709371"
	y2="1.0666786605151937"
	style="stroke:rgb(0,0,131.365);stroke-width:0.1"/><line
	x1="-0.9378345849627724"
	x2="-1.141565074634915"
	y1="-0.37287749473526755"
	y2="-0.4671112594689561"
	style="stroke:rgb(0,0,154.621);stroke-width:0.1"/><line
	x1="-1.141565074634915"
	x2="-1.3452955643070577"
	y1="-0.4671112594689561"
	y2="-0.5613450242026446"
	style="stroke:rgb(280.948,0,0);stroke-width:0.1"/><line
	x1="-2.7584461646755742"
	x2="-2.619972239587335"
	y1="1.0831915817446425"
	y2="0.6350160975699455"
	style="stroke:rgb(113.158,0,0);stroke-width:0.1"/><line
	x1="-2.619972239587335"
	x2="-2.481498314499096"
	y1="0.6350160975699455"
	y2="0.1868406133952484"
	style="stroke:rgb(170.9665,0,0);stroke-width:0.1"/><line
	x1="-2.7584461646755742"
	x2="-2.763959708068816"
	y1="1.0831915817446425"
	y2="1.7934759375481246"
	style="stroke:rgb(113.158,0,0);stroke-width:0.1"/><line
	x1="-2.763959708068816"
	x2="-2.7694732514620575"
	y1="1.7934759375481246"
	y2="2.5037602933516068"
	style="stroke:rgb(0,0,134.68);stroke-width:0.1"/><line
	x1="-1.6286340923733238"
	x2="-2.1990536719176905"
	y1="3.1533049961809323"
	y2="2.8285326447662698"
	style="stroke:rgb(0,0,140.3155);stroke-width:0.1"/><line
	x1="-2.1990536719176905"
	x2="-2.7694732514620575"
	y1="2.8285326447662698"
	y2="2.5037602933516068"
	style="stroke:rgb(0,0,134.68);stroke-width:0.1"/><line
	x1="-1.6286340923733238"
	x2="-1.6180526661922412"
	y1="3.1533049961809323"
	y2="3.84736342409637"
	style="stroke:rgb(0,0,140.3155);stroke-width:0.1"/><line
	x1="-1.6180526661922412"
	x2="-1.6074712400111586"
	y1="3.84736342409637"
	y2="4.5414218520118075"
	style="stroke:rgb(0,0,140.3155);stroke-width:0.1"/><line
	x1="-1.6074712400111586"
	x2="-2.1995958926532726"
	y1="4.5414218520118075"
	y2="4.949608307101824"
	style="stroke:rgb(0,0,140.3155);stroke-width:0.1"/><line
	x1="-2.1995958926532726"
	x2="-2.791720545295387"
	y1="4.949608307101824"
	y2="5.357794762191841"
	style="stroke:rgb(0,0,140.3155);stroke-width:0.1"/><line
	x1="-2.801040383326916"
	x2="-2.7963804643111514"
	y1="6.567159366615226"
	y2="5.962477064403534"
	style="stroke:rgb(0,0,131.365);stroke-width:0.1"/><line
	x1="-2.7963804643111514"
	x2="-2.791720545295387"
	y1="5.962477064403534"
	y2="5.357794762191841"
	style="stroke:rgb(0,0,140.3155);stroke-width:0.1"/><line
	x1="-2.7694732514620575"
	x2="-3.381799696070532"
	y1="2.5037602933516068"
	y2="2.852760756185507"
	style="stroke:rgb(0,0,134.68);stroke-width:0.1"/><line
	x1="-3.381799696070532"
	x2="-3.994126140679006"
	y1="2.852760756185507"
	y2="3.201761219019408"
	style="stroke:rgb(0,0,140.3155);stroke-width:0.1"/><line
	x1="-2.791720545295387"
	x2="-3.4168456739485062"
	y1="5.357794762191841"
	y2="5.0201971122246745"
	style="stroke:rgb(0,0,140.3155);stroke-width:0.1"/><line
	x1="-3.4168456739485062"
	x2="-4.041970802601626"
	y1="5.0201971122246745"
	y2="4.682599462257508"
	style="stroke:rgb(0,0,140.3155);stroke-width:0.1"/><line
	x1="3.3539885098003523"
	x2="3.308716541950695"
	y1="-3.1331542434770565"
	y2="-3.7130712325543316"
	style="stroke:rgb(170.9665,0,0);stroke-width:0.1"/><line
	x1="3.308716541950695"
	x2="3.2634445741010376"
	y1="-3.7130712325543316"
	y2="-4.292988221631607"
	style="stroke:rgb(138.913,0,0);stroke-width:0.1"/><line
	x1="3.3539885098003523"
	x2="2.882278340959809"
	y1="-3.1331542434770565"
	y2="-2.5406512592365265"
	style="stroke:rgb(170.9665,0,0);stroke-width:0.1"/><line
	x1="2.882278340959809"
	x2="2.4105681721192664"
	y1="-2.5406512592365265"
	y2="-1.9481482749959962"
	style="stroke:rgb(152.3005,0,0);stroke-width:0.1"/><line
	x1="-3.994126140679006"
	x2="-4.018048471640316"
	y1="3.201761219019408"
	y2="3.9421803406384575"
	style="stroke:rgb(0,0,140.3155);stroke-width:0.1"/><line
	x1="-4.018048471640316"
	x2="-4.041970802601626"
	y1="3.9421803406384575"
	y2="4.682599462257508"
	style="stroke:rgb(0,0,140.3155);stroke-width:0.1"/><line
	x1="-3.994126140679006"
	x2="-4.4848468374298776"
	y1="3.201761219019408"
	y2="2.933023800453901"
	style="stroke:rgb(0,0,140.3155);stroke-width:0.1"/><line
	x1="-4.4848468374298776"
	x2="-4.975567534180749"
	y1="2.933023800453901"
	y2="2.6642863818883935"
	style="stroke:rgb(0,0,131.365);stroke-width:0.1"/><line
	x1="-4.041970802601626"
	x2="-4.576423040518553"
	y1="4.682599462257508"
	y2="5.021366264443307"
	style="stroke:rgb(0,0,140.3155);stroke-width:0.1"/><line
	x1="-4.576423040518553"
	x2="-5.11087527843548"
	y1="5.021366264443307"
	y2="5.360133066629106"
	style="stroke:rgb(0,0,131.365);stroke-width:0.1"/><line
	x1="2.4105681721192664"
	x2="1.834454257831484"
	y1="-1.9481482749959962"
	y2="-2.135791558533889"
	style="stroke:rgb(152.3005,0,0);stroke-width:0.1"/><line
	x1="1.834454257831484"
	x2="1.2583403435437015"
	y1="-2.135791558533889"
	y2="-2.3234348420717823"
	style="stroke:rgb(181.2685,0,0);stroke-width:0.1"/><line
	x1="2.4105681721192664"
	x2="2.7147741400758383"
	y1="-1.9481482749959962"
	y2="-1.294549887126718"
	style="stroke:rgb(152.3005,0,0);stroke-width:0.1"/><line
	x1="2.7147741400758383"
	x2="3.0189801080324097"
	y1="-1.294549887126718"
	y2="-0.64095149925744"
	style="stroke:rgb(152.3005,0,0);stroke-width:0.1"/><line
	x1="0.06368592892965785"
	x2="0.6610131362366797"
	y1="-2.5918785623983522"
	y2="-2.4576567022350675"
	style="stroke:rgb(170.9665,0,0);stroke-width:0.1"/><line
	x1="0.6610131362366797"
	x2="1.2583403435437015"
	y1="-2.4576567022350675"
	y2="-2.3234348420717823"
	style="stroke:rgb(181.2685,0,0);stroke-width:0.1"/><line
	x1="0.06368592892965785"
	x2="-0.34148695538248214"
	y1="-2.5918785623983522"
	y2="-2.1196264039050834"
	style="stroke:rgb(170.9665,0,0);stroke-width:0.1"/><line
	x1="-0.34148695538248214"
	x2="-0.7466598396946221"
	y1="-2.1196264039050834"
	y2="-1.6473742454118148"
	style="stroke:rgb(152.3005,0,0);stroke-width:0.1"/><line
	x1="-1.3452955643070577"
	x2="-1.0459777020008398"
	y1="-0.5613450242026446"
	y2="-1.1043596348072298"
	style="stroke:rgb(280.948,0,0);stroke-width:0.1"/><line
	x1="-1.0459777020008398"
	x2="-0.7466598396946221"
	y1="-1.1043596348072298"
	y2="-1.6473742454118148"
	style="stroke:rgb(152.3005,0,0);stroke-width:0.1"/><line
	x1="-1.3452955643070577"
	x2="-1.9133969394030768"
	y1="-0.5613450242026446"
	y2="-0.18725220540369814"
	style="stroke:rgb(280.948,0,0);stroke-width:0.1"/><line
	x1="-1.9133969394030768"
	x2="-2.481498314499096"
	y1="-0.18725220540369814"
	y2="0.1868406133952484"
	style="stroke:rgb(170.9665,0,0);stroke-width:0.1"/><line
	x1="3.0189801080324097"
	x2="2.2557150712550316"
	y1="-0.64095149925744"
	y2="-0.16302243199547728"
	style="stroke:rgb(152.3005,0,0);stroke-width:0.1"/><line
	x1="2.2557150712550316"
	x2="1.4924500344776537"
	y1="-0.16302243199547728"
	y2="0.31490663526648544"
	style="stroke:rgb(0,0,265.291);stroke-width:0.1"/><line
	x1="3.0189801080324097"
	x2="3.645005223217875"
	y1="-0.64095149925744"
	y2="-0.7116952773226216"
	style="stroke:rgb(152.3005,0,0);stroke-width:0.1"/><line
	x1="3.645005223217875"
	x2="4.271030338403341"
	y1="-0.7116952773226216"
	y2="-0.7824390553878032"
	style="stroke:rgb(0,0,136.7455);stroke-width:0.1"/><line
	x1="-2.481498314499096"
	x2="-2.8671229754109495"
	y1="0.1868406133952484"
	y2="0.13961309522142507"
	style="stroke:rgb(170.9665,0,0);stroke-width:0.1"/><line
	x1="-2.8671229754109495"
	x2="-3.252747636322803"
	y1="0.13961309522142507"
	y2="0.09238557704760172"
	style="stroke:rgb(138.913,0,0);stroke-width:0.1"/><line
	x1="1.2583403435437015"
	x2="0.9722889513442254"
	y1="-2.3234348420717823"
	y2="-1.8260756731139782"
	style="stroke:rgb(181.2685,0,0);stroke-width:0.1"/><line
	x1="0.9722889513442254"
	x2="0.6862375591447495"
	y1="-1.8260756731139782"
	y2="-1.3287165041561744"
	style="stroke:rgb(152.3005,0,0);stroke-width:0.1"/><line
	x1="5.258197844862694"
	x2="4.7646140916330175"
	y1="-1.3044623504667363"
	y2="-1.0434507029272697"
	style="stroke:rgb(0,0,131.365);stroke-width:0.1"/><line
	x1="4.7646140916330175"
	x2="4.271030338403341"
	y1="-1.0434507029272697"
	y2="-0.7824390553878032"
	style="stroke:rgb(0,0,136.7455);stroke-width:0.1"/><line
	x1="-0.7466598396946221"
	x2="-0.03021114027493632"
	y1="-1.6473742454118148"
	y2="-1.4880453747839946"
	style="stroke:rgb(152.3005,0,0);stroke-width:0.1"/><line
	x1="-0.03021114027493632"
	x2="0.6862375591447495"
	y1="-1.4880453747839946"
	y2="-1.3287165041561744"
	style="stroke:rgb(152.3005,0,0);stroke-width:0.1"/><line
	x1="-0.7466598396946221"
	x2="-1.1498184061696994"
	y1="-1.6473742454118148"
	y2="-1.9489695176060349"
	style="stroke:rgb(152.3005,0,0);stroke-width:0.1"/><line
	x1="-1.1498184061696994"
	x2="-1.5529769726447769"
	y1="-1.9489695176060349"
	y2="-2.250564789800255"
	style="stroke:rgb(0,0,131.365);stroke-width:0.1"/><line
	x1="1.4924500344776537"
	x2="1.0893437968112016"
	y1="0.31490663526648544"
	y2="-0.5069049344448444"
	style="stroke:rgb(0,0,265.291);stroke-width:0.1"/><line
	x1="1.0893437968112016"
	x2="0.6862375591447495"
	y1="-0.5069049344448444"
	y2="-1.3287165041561744"
	style="stroke:rgb(152.3005,0,0);stroke-width:0.1"/><line
	x1="4.271030338403341"
	x2="4.122487523632663"
	y1="-0.7824390553878032"
	y2="-1.141070747175213"
	style="stroke:rgb(0,0,136.7455);stroke-width:0.1"/><line
	x1="4.122487523632663"
	x2="3.973944708861986"
	y1="-1.141070747175213"
	y2="-1.4997024389626228"
	style="stroke:rgb(0,0,131.365);stroke-width:0.1"/><line
	x1="4.271030338403341"
	x2="4.46870567222212"
	y1="-0.7824390553878032"
	y2="-0.2213463120674773"
	style="stroke:rgb(0,0,136.7455);stroke-width:0.1"/><line
	x1="4.46870567222212"
	x2="4.6663810060409"
	y1="-0.2213463120674773"
	y2="0.33974643125284865"
	style="stroke:rgb(0,0,131.365);stroke-width:0.1"/><line
	x1="0.6862375591447495"
	x2="0.7757984937148654"
	y1="-1.3287165041561744"
	y2="-1.5040895943273638"
	style="stroke:rgb(152.3005,0,0);stroke-width:0.1"/><line
	x1="0.7757984937148654"
	x2="0.8653594282849812"
	y1="-1.5040895943273638"
	y2="-1.6794626844985532"
	style="stroke:rgb(0,0,131.365);stroke-width:0.1"/>
</svg>
