<?xml version="1.0" encoding="UTF-8"?>
<svg
	id="Layer_1"
	xmlns="http://www.w3.org/2000/svg"
	viewBox="-14.0 -14.0 28.0 28.0"
>
<defs>
<style>
</style>
</defs><line
	x1="1.2997008189656947"
	x2="1.3592478234490422"
	y1="-3.6360378787511016"
	y2="-3.384232528674729"
	style="stroke:rgb(255,255,255);stroke-width:0.1"/><line
	x1="1.3592478234490422"
	x2="1.4187948279323899"
	y1="-3.384232528674729"
	y2="-3.132427178598356"
	style="stroke:rgb(255,13,13);stroke-width:0.1"/><line
	x1="1.4187948279323899"
	x2="0.9438109195553283"
	y1="-3.132427178598356"
	y2="-2.9876106056109224"
	style="stroke:rgb(255,13,13);stroke-width:0.1"/><line
	x1="0.9438109195553283"
	x2="0.46882701117826664"
	y1="-2.9876106056109224"
	y2="-2.8427940326234884"
	style="stroke:rgb(144,144,144);stroke-width:0.1"/><line
	x1="-0.4071197810424121"
	x2="0.030853615067927276"
	y1="-3.198330860216687"
	y2="-3.0205624464200875"
	style="stroke:rgb(255,13,13);stroke-width:0.1"/><line
	x1="0.030853615067927276"
	x2="0.46882701117826664"
	y1="-3.0205624464200875"
	y2="-2.8427940326234884"
	style="stroke:rgb(144,144,144);stroke-width:0.1"/><line
	x1="-0.9716321406179869"
	x2="-0.9867437317698124"
	y1="-0.15701527218733097"
	y2="-0.3669268689670607"
	style="stroke:rgb(255,13,13);stroke-width:0.1"/><line
	x1="-0.9867437317698124"
	x2="-1.001855322921638"
	y1="-0.3669268689670607"
	y2="-0.5768384657467905"
	style="stroke:rgb(144,144,144);stroke-width:0.1"/><line
	x1="0.46882701117826664"
	x2="0.558225864559397"
	y1="-2.8427940326234884"
	y2="-2.4061008900254426"
	style="stroke:rgb(144,144,144);stroke-width:0.1"/><line
	x1="0.558225864559397"
	x2="0.6476247179405275"
	y1="-2.4061008900254426"
	y2="-1.9694077474273965"
	style="stroke:rgb(144,144,144);stroke-width:0.1"/><line
	x1="1.0303684531742163"
	x2="0.8389965855573719"
	y1="-1.2383503645519947"
	y2="-1.6038790559896956"
	style="stroke:rgb(255,255,255);stroke-width:0.1"/><line
	x1="0.8389965855573719"
	x2="0.6476247179405275"
	y1="-1.6038790559896956"
	y2="-1.9694077474273965"
	style="stroke:rgb(144,144,144);stroke-width:0.1"/><line
	x1="-1.001855322921638"
	x2="-0.7568719180526376"
	y1="-0.5768384657467905"
	y2="-1.0836348071698207"
	style="stroke:rgb(144,144,144);stroke-width:0.1"/><line
	x1="-0.7568719180526376"
	x2="-0.5118885131836373"
	y1="-1.0836348071698207"
	y2="-1.5904311485928508"
	style="stroke:rgb(48,80,248);stroke-width:0.1"/><line
	x1="-1.001855322921638"
	x2="-1.238979466914208"
	y1="-0.5768384657467905"
	y2="-0.38820565050915046"
	style="stroke:rgb(144,144,144);stroke-width:0.1"/><line
	x1="-1.238979466914208"
	x2="-1.476103610906778"
	y1="-0.38820565050915046"
	y2="-0.19957283527151032"
	style="stroke:rgb(144,144,144);stroke-width:0.1"/><line
	x1="0.6476247179405275"
	x2="0.0678681023784451"
	y1="-1.9694077474273965"
	y2="-1.7799194480101237"
	style="stroke:rgb(144,144,144);stroke-width:0.1"/><line
	x1="0.0678681023784451"
	x2="-0.5118885131836373"
	y1="-1.7799194480101237"
	y2="-1.5904311485928508"
	style="stroke:rgb(48,80,248);stroke-width:0.1"/><line
	x1="0.6476247179405275"
	x2="1.0325338950202003"
	y1="-1.9694077474273965"
	y2="-2.1851677510634104"
	style="stroke:rgb(144,144,144);stroke-width:0.1"/><line
	x1="1.0325338950202003"
	x2="1.4174430720998732"
	y1="-2.1851677510634104"
	y2="-2.400927754699424"
	style="stroke:rgb(144,144,144);stroke-width:0.1"/><line
	x1="3.0955203753117018"
	x2="2.950090576369517"
	y1="-2.660032518813264"
	y2="-2.3910078571949156"
	style="stroke:rgb(255,255,255);stroke-width:0.1"/><line
	x1="2.950090576369517"
	x2="2.804660777427332"
	y1="-2.3910078571949156"
	y2="-2.121983195576567"
	style="stroke:rgb(144,144,144);stroke-width:0.1"/><line
	x1="-0.5118885131836373"
	x2="-0.6850159663191073"
	y1="-1.5904311485928508"
	y2="-1.521464589059172"
	style="stroke:rgb(48,80,248);stroke-width:0.1"/><line
	x1="-0.6850159663191073"
	x2="-0.8581434194545774"
	y1="-1.521464589059172"
	y2="-1.4524980295254932"
	style="stroke:rgb(144,144,144);stroke-width:0.1"/><line
	x1="2.912475650005993"
	x2="2.8585682137166626"
	y1="-1.1490256549155826"
	y2="-1.6355044252460749"
	style="stroke:rgb(255,255,255);stroke-width:0.1"/><line
	x1="2.8585682137166626"
	x2="2.804660777427332"
	y1="-1.6355044252460749"
	y2="-2.121983195576567"
	style="stroke:rgb(144,144,144);stroke-width:0.1"/><line
	x1="1.6404751056857145"
	x2="1.4478626602060414"
	y1="-4.440069832756376"
	y2="-4.158721789803217"
	style="stroke:rgb(255,255,255);stroke-width:0.1"/><line
	x1="1.4478626602060414"
	x2="1.2552502147263682"
	y1="-4.158721789803217"
	y2="-3.8773737468500586"
	style="stroke:rgb(144,144,144);stroke-width:0.1"/><line
	x1="2.804660777427332"
	x2="2.1110519247636024"
	y1="-2.121983195576567"
	y2="-2.2614554751379954"
	style="stroke:rgb(144,144,144);stroke-width:0.1"/><line
	x1="2.1110519247636024"
	x2="1.4174430720998732"
	y1="-2.2614554751379954"
	y2="-2.400927754699424"
	style="stroke:rgb(144,144,144);stroke-width:0.1"/><line
	x1="2.804660777427332"
	x2="3.1617673437007427"
	y1="-2.121983195576567"
	y2="-2.244728231659325"
	style="stroke:rgb(144,144,144);stroke-width:0.1"/><line
	x1="3.1617673437007427"
	x2="3.518873909974153"
	y1="-2.244728231659325"
	y2="-2.3674732677420827"
	style="stroke:rgb(255,255,255);stroke-width:0.1"/><line
	x1="1.4174430720998732"
	x2="1.1053805905166327"
	y1="-2.400927754699424"
	y2="-1.868905899736132"
	style="stroke:rgb(144,144,144);stroke-width:0.1"/><line
	x1="1.1053805905166327"
	x2="0.7933181089333922"
	y1="-1.868905899736132"
	y2="-1.3368840447728403"
	style="stroke:rgb(255,255,48);stroke-width:0.1"/><line
	x1="1.4174430720998732"
	x2="1.3363466434131208"
	y1="-2.400927754699424"
	y2="-3.1391507507747414"
	style="stroke:rgb(144,144,144);stroke-width:0.1"/><line
	x1="1.3363466434131208"
	x2="1.2552502147263682"
	y1="-3.1391507507747414"
	y2="-3.8773737468500586"
	style="stroke:rgb(144,144,144);stroke-width:0.1"/><line
	x1="-0.1218878349642408"
	x2="-0.5341754558266947"
	y1="1.301364190340901"
	y2="1.1690120441780092"
	style="stroke:rgb(255,255,255);stroke-width:0.1"/><line
	x1="-0.5341754558266947"
	x2="-0.9464630766891485"
	y1="1.1690120441780092"
	y2="1.0366598980151172"
	style="stroke:rgb(48,80,248);stroke-width:0.1"/><line
	x1="-2.5226608254236784"
	x2="-1.9993822181652283"
	y1="-0.2097725424040637"
	y2="-0.204672688837787"
	style="stroke:rgb(255,255,255);stroke-width:0.1"/><line
	x1="-1.9993822181652283"
	x2="-1.476103610906778"
	y1="-0.204672688837787"
	y2="-0.19957283527151032"
	style="stroke:rgb(144,144,144);stroke-width:0.1"/><line
	x1="-1.476103610906778"
	x2="-1.2112833437979633"
	y1="-0.19957283527151032"
	y2="0.41854353137180345"
	style="stroke:rgb(144,144,144);stroke-width:0.1"/><line
	x1="-1.2112833437979633"
	x2="-0.9464630766891485"
	y1="0.41854353137180345"
	y2="1.0366598980151172"
	style="stroke:rgb(48,80,248);stroke-width:0.1"/><line
	x1="-1.476103610906778"
	x2="-1.1671235151806778"
	y1="-0.19957283527151032"
	y2="-0.8260354323985017"
	style="stroke:rgb(144,144,144);stroke-width:0.1"/><line
	x1="-1.1671235151806778"
	x2="-0.8581434194545774"
	y1="-0.8260354323985017"
	y2="-1.4524980295254932"
	style="stroke:rgb(144,144,144);stroke-width:0.1"/><line
	x1="1.2552502147263682"
	x2="0.7327317087720773"
	y1="-3.8773737468500586"
	y2="-4.012016571302412"
	style="stroke:rgb(144,144,144);stroke-width:0.1"/><line
	x1="0.7327317087720773"
	x2="0.2102132028177864"
	y1="-4.012016571302412"
	y2="-4.146659395754765"
	style="stroke:rgb(255,255,255);stroke-width:0.1"/><line
	x1="1.2552502147263682"
	x2="1.5389035106706"
	y1="-3.8773737468500586"
	y2="-4.072795995520793"
	style="stroke:rgb(144,144,144);stroke-width:0.1"/><line
	x1="1.5389035106706"
	x2="1.8225568066148319"
	y1="-4.072795995520793"
	y2="-4.2682182441915275"
	style="stroke:rgb(255,255,255);stroke-width:0.1"/><line
	x1="-0.9464630766891485"
	x2="-1.263682644607055"
	y1="1.0366598980151172"
	y2="1.493361389851015"
	style="stroke:rgb(48,80,248);stroke-width:0.1"/><line
	x1="-1.263682644607055"
	x2="-1.5809022125249617"
	y1="1.493361389851015"
	y2="1.9500628816869128"
	style="stroke:rgb(144,144,144);stroke-width:0.1"/><line
	x1="-0.8581434194545774"
	x2="-0.032412655260592615"
	y1="-1.4524980295254932"
	y2="-1.3946910371491668"
	style="stroke:rgb(144,144,144);stroke-width:0.1"/><line
	x1="-0.032412655260592615"
	x2="0.7933181089333922"
	y1="-1.3946910371491668"
	y2="-1.3368840447728403"
	style="stroke:rgb(255,255,48);stroke-width:0.1"/><line
	x1="-0.8581434194545774"
	x2="-1.1999989185396323"
	y1="-1.4524980295254932"
	y2="-1.851757412254226"
	style="stroke:rgb(144,144,144);stroke-width:0.1"/><line
	x1="-1.1999989185396323"
	x2="-1.5418544176246871"
	y1="-1.851757412254226"
	y2="-2.251016794982959"
	style="stroke:rgb(255,255,255);stroke-width:0.1"/><line
	x1="0.10493763635038197"
	x2="-0.3255911608366517"
	y1="3.2254289897276127"
	y2="3.271769501490952"
	style="stroke:rgb(255,255,255);stroke-width:0.1"/><line
	x1="-0.3255911608366517"
	x2="-0.7561199580236854"
	y1="3.271769501490952"
	y2="3.3181100132542913"
	style="stroke:rgb(144,144,144);stroke-width:0.1"/><line
	x1="-1.4291885708061038"
	x2="-1.0926542644148947"
	y1="4.142950971616364"
	y2="3.730530492435328"
	style="stroke:rgb(255,255,255);stroke-width:0.1"/><line
	x1="-1.0926542644148947"
	x2="-0.7561199580236854"
	y1="3.730530492435328"
	y2="3.3181100132542913"
	style="stroke:rgb(144,144,144);stroke-width:0.1"/><line
	x1="-1.5809022125249617"
	x2="-2.171340578990568"
	y1="1.9500628816869128"
	y2="1.8453864972071448"
	style="stroke:rgb(144,144,144);stroke-width:0.1"/><line
	x1="-2.171340578990568"
	x2="-2.761778945456175"
	y1="1.8453864972071448"
	y2="1.7407101127273765"
	style="stroke:rgb(255,13,13);stroke-width:0.1"/><line
	x1="-1.5809022125249617"
	x2="-1.1685110852743235"
	y1="1.9500628816869128"
	y2="2.634086447470602"
	style="stroke:rgb(144,144,144);stroke-width:0.1"/><line
	x1="-1.1685110852743235"
	x2="-0.7561199580236854"
	y1="2.634086447470602"
	y2="3.3181100132542913"
	style="stroke:rgb(144,144,144);stroke-width:0.1"/><line
	x1="-0.7561199580236854"
	x2="-0.47669489125425457"
	y1="3.3181100132542913"
	y2="3.5883026767015513"
	style="stroke:rgb(144,144,144);stroke-width:0.1"/><line
	x1="-0.47669489125425457"
	x2="-0.1972698244848238"
	y1="3.5883026767015513"
	y2="3.858495340148811"
	style="stroke:rgb(144,144,144);stroke-width:0.1"/><line
	x1="1.9004142715487908"
	x2="1.606315113556927"
	y1="2.5502678301774577"
	y2="2.937349776199336"
	style="stroke:rgb(255,255,255);stroke-width:0.1"/><line
	x1="1.606315113556927"
	x2="1.3122159555650628"
	y1="2.937349776199336"
	y2="3.3244317222212145"
	style="stroke:rgb(144,144,144);stroke-width:0.1"/><line
	x1="-0.1972698244848238"
	x2="0.5574730655401194"
	y1="3.858495340148811"
	y2="3.5914635311850125"
	style="stroke:rgb(144,144,144);stroke-width:0.1"/><line
	x1="0.5574730655401194"
	x2="1.3122159555650628"
	y1="3.5914635311850125"
	y2="3.3244317222212145"
	style="stroke:rgb(144,144,144);stroke-width:0.1"/><line
	x1="-0.1972698244848238"
	x2="-0.6905352507282797"
	y1="3.858495340148811"
	y2="4.441153790985473"
	style="stroke:rgb(144,144,144);stroke-width:0.1"/><line
	x1="-0.6905352507282797"
	x2="-1.1838006769717355"
	y1="4.441153790985473"
	y2="5.023812241822134"
	style="stroke:rgb(144,144,144);stroke-width:0.1"/><line
	x1="-2.3949741092854246"
	x2="-1.78938739312858"
	y1="5.434707063371677"
	y2="5.229259652596905"
	style="stroke:rgb(255,255,255);stroke-width:0.1"/><line
	x1="-1.78938739312858"
	x2="-1.1838006769717355"
	y1="5.229259652596905"
	y2="5.023812241822134"
	style="stroke:rgb(144,144,144);stroke-width:0.1"/><line
	x1="1.3122159555650628"
	x2="1.7410699121623416"
	y1="3.3244317222212145"
	y2="3.613845610146362"
	style="stroke:rgb(144,144,144);stroke-width:0.1"/><line
	x1="1.7410699121623416"
	x2="2.1699238687596205"
	y1="3.613845610146362"
	y2="3.903259498071509"
	style="stroke:rgb(144,144,144);stroke-width:0.1"/><line
	x1="-1.1838006769717355"
	x2="-0.8925883198250271"
	y1="5.023812241822134"
	y2="5.448185305751657"
	style="stroke:rgb(144,144,144);stroke-width:0.1"/><line
	x1="-0.8925883198250271"
	x2="-0.6013759626783187"
	y1="5.448185305751657"
	y2="5.87255836968118"
	style="stroke:rgb(144,144,144);stroke-width:0.1"/><line
	x1="2.1699238687596205"
	x2="1.7215188171458413"
	y1="3.903259498071509"
	y2="4.5919026870359"
	style="stroke:rgb(144,144,144);stroke-width:0.1"/><line
	x1="1.7215188171458413"
	x2="1.2731137655320621"
	y1="4.5919026870359"
	y2="5.280545876000292"
	style="stroke:rgb(144,144,144);stroke-width:0.1"/><line
	x1="2.1699238687596205"
	x2="2.8777018435002404"
	y1="3.903259498071509"
	y2="3.6663125240912606"
	style="stroke:rgb(144,144,144);stroke-width:0.1"/><line
	x1="2.8777018435002404"
	x2="3.58547981824086"
	y1="3.6663125240912606"
	y2="3.4293655501110116"
	style="stroke:rgb(255,255,255);stroke-width:0.1"/><line
	x1="-0.6013759626783187"
	x2="0.3358689014268717"
	y1="5.87255836968118"
	y2="5.576552122840736"
	style="stroke:rgb(144,144,144);stroke-width:0.1"/><line
	x1="0.3358689014268717"
	x2="1.2731137655320621"
	y1="5.576552122840736"
	y2="5.280545876000292"
	style="stroke:rgb(144,144,144);stroke-width:0.1"/><line
	x1="-0.6013759626783187"
	x2="-1.089903892307523"
	y1="5.87255836968118"
	y2="6.522436787396642"
	style="stroke:rgb(144,144,144);stroke-width:0.1"/><line
	x1="-1.089903892307523"
	x2="-1.5784318219367275"
	y1="6.522436787396642"
	y2="7.172315205112104"
	style="stroke:rgb(255,255,255);stroke-width:0.1"/><line
	x1="1.2731137655320621"
	x2="1.684912807551544"
	y1="5.280545876000292"
	y2="5.678636798003362"
	style="stroke:rgb(144,144,144);stroke-width:0.1"/><line
	x1="1.684912807551544"
	x2="2.096711849571026"
	y1="5.678636798003362"
	y2="6.076727720006433"
	style="stroke:rgb(255,255,255);stroke-width:0.1"/>
</svg>
