<?xml version="1.0" encoding="UTF-8"?>
<svg
	id="Layer_1"
	xmlns="http://www.w3.org/2000/svg"
	viewBox="-14.0 -14.0 28.0 28.0"
>
<defs>
<style>
</style>
</defs><line
	x1="0.7978559133712323"
	x2="0.8831165224408688"
	y1="-0.1535437613772794"
	y2="-0.1430165382536817"
	style="stroke:rgb(255,255,255);stroke-width:0.1"/><line
	x1="0.8831165224408688"
	x2="0.9683771315105052"
	y1="-0.1430165382536817"
	y2="-0.13248931513008402"
	style="stroke:rgb(255,13,13);stroke-width:0.1"/><line
	x1="0.9683771315105052"
	x2="0.560522059019879"
	y1="-0.13248931513008402"
	y2="-0.07365572479152128"
	style="stroke:rgb(255,13,13);stroke-width:0.1"/><line
	x1="0.560522059019879"
	x2="0.15266698652925276"
	y1="-0.07365572479152128"
	y2="-0.014822134452958552"
	style="stroke:rgb(144,144,144);stroke-width:0.1"/><line
	x1="-0.6696609044289734"
	x2="-0.25849695894986036"
	y1="0.05225711796025107"
	y2="0.01871749175364626"
	style="stroke:rgb(255,13,13);stroke-width:0.1"/><line
	x1="-0.25849695894986036"
	x2="0.15266698652925276"
	y1="0.01871749175364626"
	y2="-0.014822134452958552"
	style="stroke:rgb(144,144,144);stroke-width:0.1"/><line
	x1="0.15266698652925276"
	x2="0.28456363283833774"
	y1="-0.014822134452958552"
	y2="0.007064279116621208"
	style="stroke:rgb(144,144,144);stroke-width:0.1"/><line
	x1="0.28456363283833774"
	x2="0.41646027914742273"
	y1="0.007064279116621208"
	y2="0.028950692686200968"
	style="stroke:rgb(144,144,144);stroke-width:0.1"/><line
	x1="0.7394533022421496"
	x2="0.6098364953783855"
	y1="-2.0356094253424444"
	y2="-2.0553665211007064"
	style="stroke:rgb(255,255,255);stroke-width:0.1"/><line
	x1="0.6098364953783855"
	x2="0.4802196885146215"
	y1="-2.0553665211007064"
	y2="-2.0751236168589684"
	style="stroke:rgb(144,144,144);stroke-width:0.1"/><line
	x1="2.4005182366058957"
	x2="2.3102952406999027"
	y1="-0.9875392623159981"
	y2="-1.0148071141858739"
	style="stroke:rgb(255,255,255);stroke-width:0.1"/><line
	x1="2.3102952406999027"
	x2="2.220072244793909"
	y1="-1.0148071141858739"
	y2="-1.0420749660557498"
	style="stroke:rgb(144,144,144);stroke-width:0.1"/><line
	x1="-0.408295692317239"
	x2="0.035961998098691245"
	y1="-2.100991434711265"
	y2="-2.088057525785117"
	style="stroke:rgb(255,255,255);stroke-width:0.1"/><line
	x1="0.035961998098691245"
	x2="0.4802196885146215"
	y1="-2.088057525785117"
	y2="-2.0751236168589684"
	style="stroke:rgb(144,144,144);stroke-width:0.1"/><line
	x1="0.4802196885146215"
	x2="0.7045501079468636"
	y1="-2.0751236168589684"
	y2="-1.5697623478575857"
	style="stroke:rgb(144,144,144);stroke-width:0.1"/><line
	x1="0.7045501079468636"
	x2="0.9288805273791056"
	y1="-1.5697623478575857"
	y2="-1.064401078856203"
	style="stroke:rgb(144,144,144);stroke-width:0.1"/><line
	x1="0.4802196885146215"
	x2="0.6323512127852365"
	y1="-2.0751236168589684"
	y2="-2.4813010437344003"
	style="stroke:rgb(144,144,144);stroke-width:0.1"/><line
	x1="0.6323512127852365"
	x2="0.7844827370558516"
	y1="-2.4813010437344003"
	y2="-2.8874784706098318"
	style="stroke:rgb(255,255,255);stroke-width:0.1"/><line
	x1="0.41646027914742273"
	x2="-0.1037780890627901"
	y1="0.028950692686200968"
	y2="0.1451732233368173"
	style="stroke:rgb(144,144,144);stroke-width:0.1"/><line
	x1="-0.1037780890627901"
	x2="-0.6240164572730029"
	y1="0.1451732233368173"
	y2="0.2613957539874336"
	style="stroke:rgb(48,80,248);stroke-width:0.1"/><line
	x1="0.41646027914742273"
	x2="0.6726704032632642"
	y1="0.028950692686200968"
	y2="-0.5177251930850011"
	style="stroke:rgb(144,144,144);stroke-width:0.1"/><line
	x1="0.6726704032632642"
	x2="0.9288805273791056"
	y1="-0.5177251930850011"
	y2="-1.064401078856203"
	style="stroke:rgb(144,144,144);stroke-width:0.1"/><line
	x1="0.41646027914742273"
	x2="0.6899802292260934"
	y1="0.028950692686200968"
	y2="0.38404548642759107"
	style="stroke:rgb(144,144,144);stroke-width:0.1"/><line
	x1="0.6899802292260934"
	x2="0.9635001793047641"
	y1="0.38404548642759107"
	y2="0.7391402801689811"
	style="stroke:rgb(255,255,255);stroke-width:0.1"/><line
	x1="2.220072244793909"
	x2="1.5744763860865074"
	y1="-1.0420749660557498"
	y2="-1.0532380224559765"
	style="stroke:rgb(144,144,144);stroke-width:0.1"/><line
	x1="1.5744763860865074"
	x2="0.9288805273791056"
	y1="-1.0532380224559765"
	y2="-1.064401078856203"
	style="stroke:rgb(144,144,144);stroke-width:0.1"/><line
	x1="2.220072244793909"
	x2="2.4381860409460723"
	y1="-1.0420749660557498"
	y2="-1.43981403217055"
	style="stroke:rgb(144,144,144);stroke-width:0.1"/><line
	x1="2.4381860409460723"
	x2="2.656299837098236"
	y1="-1.43981403217055"
	y2="-1.8375530982853499"
	style="stroke:rgb(255,255,255);stroke-width:0.1"/><line
	x1="2.220072244793909"
	x2="2.4263620429348736"
	y1="-1.0420749660557498"
	y2="-0.6682592535236473"
	style="stroke:rgb(144,144,144);stroke-width:0.1"/><line
	x1="2.4263620429348736"
	x2="2.6326518410758384"
	y1="-0.6682592535236473"
	y2="-0.294443540991545"
	style="stroke:rgb(255,255,255);stroke-width:0.1"/><line
	x1="0.9288805273791056"
	x2="0.7031345829919591"
	y1="-1.064401078856203"
	y2="-1.1166634952072285"
	style="stroke:rgb(144,144,144);stroke-width:0.1"/><line
	x1="0.7031345829919591"
	x2="0.4773886386048126"
	y1="-1.1166634952072285"
	y2="-1.1689259115582538"
	style="stroke:rgb(255,255,48);stroke-width:0.1"/><line
	x1="-0.8161330699160055"
	x2="-0.8823910780075837"
	y1="2.278305079539254"
	y2="1.8004838219738628"
	style="stroke:rgb(255,13,13);stroke-width:0.1"/><line
	x1="-0.8823910780075837"
	x2="-0.9486490860991619"
	y1="1.8004838219738628"
	y2="1.3226625644084717"
	style="stroke:rgb(144,144,144);stroke-width:0.1"/><line
	x1="-0.6240164572730029"
	x2="-0.8117031622434354"
	y1="0.2613957539874336"
	y2="-0.0989103053976447"
	style="stroke:rgb(48,80,248);stroke-width:0.1"/><line
	x1="-0.8117031622434354"
	x2="-0.999389867213868"
	y1="-0.0989103053976447"
	y2="-0.459216364782723"
	style="stroke:rgb(144,144,144);stroke-width:0.1"/><line
	x1="-0.6240164572730029"
	x2="-0.7863327716860824"
	y1="0.2613957539874336"
	y2="0.7920291591979527"
	style="stroke:rgb(48,80,248);stroke-width:0.1"/><line
	x1="-0.7863327716860824"
	x2="-0.9486490860991619"
	y1="0.7920291591979527"
	y2="1.3226625644084717"
	style="stroke:rgb(144,144,144);stroke-width:0.1"/><line
	x1="-0.9486490860991619"
	x2="-1.196251662781902"
	y1="1.3226625644084717"
	y2="1.045241685045263"
	style="stroke:rgb(144,144,144);stroke-width:0.1"/><line
	x1="-1.196251662781902"
	x2="-1.4438542394646423"
	y1="1.045241685045263"
	y2="0.7678208056820542"
	style="stroke:rgb(144,144,144);stroke-width:0.1"/><line
	x1="-1.7130660357000052"
	x2="-1.3562279514569366"
	y1="-1.0939594874264091"
	y2="-0.7765879261045661"
	style="stroke:rgb(255,255,255);stroke-width:0.1"/><line
	x1="-1.3562279514569366"
	x2="-0.999389867213868"
	y1="-0.7765879261045661"
	y2="-0.459216364782723"
	style="stroke:rgb(144,144,144);stroke-width:0.1"/><line
	x1="-0.999389867213868"
	x2="-0.2610006143045277"
	y1="-0.459216364782723"
	y2="-0.8140711381704884"
	style="stroke:rgb(144,144,144);stroke-width:0.1"/><line
	x1="-0.2610006143045277"
	x2="0.4773886386048126"
	y1="-0.8140711381704884"
	y2="-1.1689259115582538"
	style="stroke:rgb(255,255,48);stroke-width:0.1"/><line
	x1="-0.999389867213868"
	x2="-1.2216220533392552"
	y1="-0.459216364782723"
	y2="0.15430222044966563"
	style="stroke:rgb(144,144,144);stroke-width:0.1"/><line
	x1="-1.2216220533392552"
	x2="-1.4438542394646423"
	y1="0.15430222044966563"
	y2="0.7678208056820542"
	style="stroke:rgb(144,144,144);stroke-width:0.1"/><line
	x1="-1.4438542394646423"
	x2="-1.1063420770159413"
	y1="0.7678208056820542"
	y2="1.017059816034901"
	style="stroke:rgb(144,144,144);stroke-width:0.1"/><line
	x1="-1.1063420770159413"
	x2="-0.7688299145672404"
	y1="1.017059816034901"
	y2="1.2662988263877477"
	style="stroke:rgb(48,80,248);stroke-width:0.1"/><line
	x1="-1.4438542394646423"
	x2="-1.9758993018421669"
	y1="0.7678208056820542"
	y2="0.8141179604663715"
	style="stroke:rgb(144,144,144);stroke-width:0.1"/><line
	x1="-1.9758993018421669"
	x2="-2.5079443642196915"
	y1="0.8141179604663715"
	y2="0.8604151152506887"
	style="stroke:rgb(255,255,255);stroke-width:0.1"/><line
	x1="0.19333214327510986"
	x2="-0.28774888564606527"
	y1="1.6694871927176325"
	y2="1.46789300955269"
	style="stroke:rgb(255,255,255);stroke-width:0.1"/><line
	x1="-0.28774888564606527"
	x2="-0.7688299145672404"
	y1="1.46789300955269"
	y2="1.2662988263877477"
	style="stroke:rgb(48,80,248);stroke-width:0.1"/><line
	x1="-0.7688299145672404"
	x2="-1.083632664981835"
	y1="1.2662988263877477"
	y2="1.2487750028348004"
	style="stroke:rgb(48,80,248);stroke-width:0.1"/><line
	x1="-1.083632664981835"
	x2="-1.3984354153964296"
	y1="1.2487750028348004"
	y2="1.231251179281853"
	style="stroke:rgb(144,144,144);stroke-width:0.1"/><line
	x1="-1.3984354153964296"
	x2="-2.0608769917469436"
	y1="1.231251179281853"
	y2="0.9600105573728173"
	style="stroke:rgb(144,144,144);stroke-width:0.1"/><line
	x1="-2.0608769917469436"
	x2="-2.723318568097458"
	y1="0.9600105573728173"
	y2="0.6887699354637815"
	style="stroke:rgb(255,13,13);stroke-width:0.1"/><line
	x1="-1.3984354153964296"
	x2="-0.8371220270398194"
	y1="1.231251179281853"
	y2="1.6065545838230566"
	style="stroke:rgb(144,144,144);stroke-width:0.1"/><line
	x1="-0.8371220270398194"
	x2="-0.2758086386832094"
	y1="1.6065545838230566"
	y2="1.9818579883642602"
	style="stroke:rgb(144,144,144);stroke-width:0.1"/><line
	x1="0.7964335810604373"
	x2="0.26031247118861395"
	y1="2.4460759558687464"
	y2="2.2139669721165034"
	style="stroke:rgb(255,255,255);stroke-width:0.1"/><line
	x1="0.26031247118861395"
	x2="-0.2758086386832094"
	y1="2.2139669721165034"
	y2="1.9818579883642602"
	style="stroke:rgb(144,144,144);stroke-width:0.1"/><line
	x1="2.343389846757091"
	x2="2.075962002502691"
	y1="-0.1334704206915114"
	y2="-0.24161320260790647"
	style="stroke:rgb(255,255,255);stroke-width:0.1"/><line
	x1="2.075962002502691"
	x2="1.808534158248291"
	y1="-0.24161320260790647"
	y2="-0.3497559845243015"
	style="stroke:rgb(144,144,144);stroke-width:0.1"/><line
	x1="-0.2758086386832094"
	x2="0.02213529264647296"
	y1="1.9818579883642602"
	y2="1.3413915501341493"
	style="stroke:rgb(144,144,144);stroke-width:0.1"/><line
	x1="0.02213529264647296"
	x2="0.3200792239761553"
	y1="1.3413915501341493"
	y2="0.7009251119040385"
	style="stroke:rgb(144,144,144);stroke-width:0.1"/><line
	x1="-0.2758086386832094"
	x2="-0.6040990084498823"
	y1="1.9818579883642602"
	y2="2.577939509086927"
	style="stroke:rgb(144,144,144);stroke-width:0.1"/><line
	x1="-0.6040990084498823"
	x2="-0.9323893782165551"
	y1="2.577939509086927"
	y2="3.174021029809594"
	style="stroke:rgb(255,255,255);stroke-width:0.1"/><line
	x1="1.808534158248291"
	x2="1.0643066911122232"
	y1="-0.3497559845243015"
	y2="0.1755845636898685"
	style="stroke:rgb(144,144,144);stroke-width:0.1"/><line
	x1="1.0643066911122232"
	x2="0.3200792239761553"
	y1="0.1755845636898685"
	y2="0.7009251119040385"
	style="stroke:rgb(144,144,144);stroke-width:0.1"/><line
	x1="1.808534158248291"
	x2="2.199553147698507"
	y1="-0.3497559845243015"
	y2="-1.0892619302290163"
	style="stroke:rgb(144,144,144);stroke-width:0.1"/><line
	x1="2.199553147698507"
	x2="2.590572137148723"
	y1="-1.0892619302290163"
	y2="-1.828767875933731"
	style="stroke:rgb(144,144,144);stroke-width:0.1"/><line
	x1="3.780189796438379"
	x2="3.185380966793551"
	y1="-2.6553940731365056"
	y2="-2.242080974535118"
	style="stroke:rgb(255,255,255);stroke-width:0.1"/><line
	x1="3.185380966793551"
	x2="2.590572137148723"
	y1="-2.242080974535118"
	y2="-1.828767875933731"
	style="stroke:rgb(144,144,144);stroke-width:0.1"/><line
	x1="0.3200792239761553"
	x2="-0.21181471927129597"
	y1="0.7009251119040385"
	y2="0.5928520964277326"
	style="stroke:rgb(144,144,144);stroke-width:0.1"/><line
	x1="-0.21181471927129597"
	x2="-0.7437086625187472"
	y1="0.5928520964277326"
	y2="0.4847790809514268"
	style="stroke:rgb(144,144,144);stroke-width:0.1"/><line
	x1="2.590572137148723"
	x2="2.1853206096554403"
	y1="-1.828767875933731"
	y2="-2.132652021646278"
	style="stroke:rgb(144,144,144);stroke-width:0.1"/><line
	x1="2.1853206096554403"
	x2="1.7800690821621576"
	y1="-2.132652021646278"
	y2="-2.4365361673588253"
	style="stroke:rgb(144,144,144);stroke-width:0.1"/><line
	x1="-0.7437086625187472"
	x2="-0.4227060039040583"
	y1="0.4847790809514268"
	y2="-0.34425235879077565"
	style="stroke:rgb(144,144,144);stroke-width:0.1"/><line
	x1="-0.4227060039040583"
	x2="-0.10170334528936943"
	y1="-0.34425235879077565"
	y2="-1.173283798532978"
	style="stroke:rgb(144,144,144);stroke-width:0.1"/><line
	x1="-0.7437086625187472"
	x2="-1.4561978523619137"
	y1="0.4847790809514268"
	y2="0.9724534977239806"
	style="stroke:rgb(144,144,144);stroke-width:0.1"/><line
	x1="-1.4561978523619137"
	x2="-2.16868704220508"
	y1="0.9724534977239806"
	y2="1.4601279144965345"
	style="stroke:rgb(255,255,255);stroke-width:0.1"/><line
	x1="1.7800690821621576"
	x2="0.8391828684363941"
	y1="-2.4365361673588253"
	y2="-1.8049099829459017"
	style="stroke:rgb(144,144,144);stroke-width:0.1"/><line
	x1="0.8391828684363941"
	x2="-0.10170334528936943"
	y1="-1.8049099829459017"
	y2="-1.173283798532978"
	style="stroke:rgb(144,144,144);stroke-width:0.1"/><line
	x1="1.7800690821621576"
	x2="2.1578456185295023"
	y1="-2.4365361673588253"
	y2="-3.249215860054516"
	style="stroke:rgb(144,144,144);stroke-width:0.1"/><line
	x1="2.1578456185295023"
	x2="2.535622154896847"
	y1="-3.249215860054516"
	y2="-4.061895552750207"
	style="stroke:rgb(255,255,255);stroke-width:0.1"/><line
	x1="-0.10170334528936943"
	x2="-0.6456564528940698"
	y1="-1.173283798532978"
	y2="-1.408138265336061"
	style="stroke:rgb(144,144,144);stroke-width:0.1"/><line
	x1="-0.6456564528940698"
	x2="-1.1896095604987702"
	y1="-1.408138265336061"
	y2="-1.642992732139144"
	style="stroke:rgb(255,255,255);stroke-width:0.1"/>
</svg>
