<?xml version="1.0" encoding="UTF-8"?>
<svg
	id="Layer_1"
	xmlns="http://www.w3.org/2000/svg"
	viewBox="-14.0 -14.0 28.0 28.0"
>
<defs>
<style>
</style>
</defs><line
	x1="0.8513315777657874"
	x2="0.4720912664977238"
	y1="2.715218213152242"
	y2="2.8482250127365774"
	style="stroke:rgb(255,255,255);stroke-width:0.1"/><line
	x1="0.4720912664977238"
	x2="0.09285095522966022"
	y1="2.8482250127365774"
	y2="2.9812318123209125"
	style="stroke:rgb(144,144,144);stroke-width:0.1"/><line
	x1="-0.6064833741790174"
	x2="-0.2568162094746786"
	y1="2.511063704973652"
	y2="2.7461477586472824"
	style="stroke:rgb(255,255,255);stroke-width:0.1"/><line
	x1="-0.2568162094746786"
	x2="0.09285095522966022"
	y1="2.7461477586472824"
	y2="2.9812318123209125"
	style="stroke:rgb(144,144,144);stroke-width:0.1"/><line
	x1="-0.03357615346887771"
	x2="0.029637400880391254"
	y1="3.911733393885652"
	y2="3.4464826031032825"
	style="stroke:rgb(255,255,255);stroke-width:0.1"/><line
	x1="0.029637400880391254"
	x2="0.09285095522966022"
	y1="3.4464826031032825"
	y2="2.9812318123209125"
	style="stroke:rgb(144,144,144);stroke-width:0.1"/><line
	x1="0.09285095522966022"
	x2="0.1471524012236714"
	y1="2.9812318123209125"
	y2="2.875838051537518"
	style="stroke:rgb(144,144,144);stroke-width:0.1"/><line
	x1="0.1471524012236714"
	x2="0.20145384721768259"
	y1="2.875838051537518"
	y2="2.7704442907541242"
	style="stroke:rgb(144,144,144);stroke-width:0.1"/><line
	x1="4.768244045847612"
	x2="4.393967953164619"
	y1="-4.4180529257348224"
	y2="-4.313992050258474"
	style="stroke:rgb(255,255,255);stroke-width:0.1"/><line
	x1="4.393967953164619"
	x2="4.019691860481625"
	y1="-4.313992050258474"
	y2="-4.209931174782126"
	style="stroke:rgb(144,144,144);stroke-width:0.1"/><line
	x1="-1.3933746666225948"
	x2="-1.2602234053748047"
	y1="0.5655591757114273"
	y2="0.6221551995401489"
	style="stroke:rgb(255,255,255);stroke-width:0.1"/><line
	x1="-1.2602234053748047"
	x2="-1.1270721441270148"
	y1="0.6221551995401489"
	y2="0.6787512233688704"
	style="stroke:rgb(144,144,144);stroke-width:0.1"/><line
	x1="3.028205645522897"
	x2="3.018919131000546"
	y1="-6.0400862897600325"
	y2="-5.589646897868768"
	style="stroke:rgb(255,255,255);stroke-width:0.1"/><line
	x1="3.018919131000546"
	x2="3.009632616478194"
	y1="-5.589646897868768"
	y2="-5.139207505977503"
	style="stroke:rgb(144,144,144);stroke-width:0.1"/><line
	x1="-2.927659353712728"
	x2="-2.4324383316636076"
	y1="3.846002637631734"
	y2="3.9551116290009762"
	style="stroke:rgb(255,13,13);stroke-width:0.1"/><line
	x1="-2.4324383316636076"
	x2="-1.9372173096144876"
	y1="3.9551116290009762"
	y2="4.064220620370218"
	style="stroke:rgb(144,144,144);stroke-width:0.1"/><line
	x1="-1.9166056267749951"
	x2="-1.648339385157359"
	y1="6.002697144170629"
	y2="5.663176467875804"
	style="stroke:rgb(255,255,255);stroke-width:0.1"/><line
	x1="-1.648339385157359"
	x2="-1.3800731435397229"
	y1="5.663176467875804"
	y2="5.32365579158098"
	style="stroke:rgb(255,13,13);stroke-width:0.1"/><line
	x1="4.019691860481625"
	x2="4.021539502163428"
	y1="-4.209931174782126"
	y2="-3.596483759801708"
	style="stroke:rgb(144,144,144);stroke-width:0.1"/><line
	x1="4.021539502163428"
	x2="4.0233871438452296"
	y1="-3.596483759801708"
	y2="-2.9830363448212895"
	style="stroke:rgb(144,144,144);stroke-width:0.1"/><line
	x1="4.019691860481625"
	x2="3.51466223847991"
	y1="-4.209931174782126"
	y2="-4.674569340379815"
	style="stroke:rgb(144,144,144);stroke-width:0.1"/><line
	x1="3.51466223847991"
	x2="3.009632616478194"
	y1="-4.674569340379815"
	y2="-5.139207505977503"
	style="stroke:rgb(144,144,144);stroke-width:0.1"/><line
	x1="3.009632616478194"
	x2="2.462485430727769"
	y1="-5.139207505977503"
	y2="-5.013436130185383"
	style="stroke:rgb(144,144,144);stroke-width:0.1"/><line
	x1="2.462485430727769"
	x2="1.915338244977344"
	y1="-5.013436130185383"
	y2="-4.887664754393262"
	style="stroke:rgb(144,144,144);stroke-width:0.1"/><line
	x1="2.2133258566533294"
	x2="1.7821591324394506"
	y1="3.3476054530137453"
	y2="3.476664144189371"
	style="stroke:rgb(255,255,255);stroke-width:0.1"/><line
	x1="1.7821591324394506"
	x2="1.3509924082255715"
	y1="3.476664144189371"
	y2="3.6057228353649964"
	style="stroke:rgb(144,144,144);stroke-width:0.1"/><line
	x1="-1.1270721441270148"
	x2="-0.2960355217052205"
	y1="0.6787512233688704"
	y2="0.8603741487329739"
	style="stroke:rgb(144,144,144);stroke-width:0.1"/><line
	x1="-0.2960355217052205"
	x2="0.5350011007165738"
	y1="0.8603741487329739"
	y2="1.0419970740970774"
	style="stroke:rgb(255,255,48);stroke-width:0.1"/><line
	x1="-1.1270721441270148"
	x2="-1.468588321969396"
	y1="0.6787512233688704"
	y2="1.22263340767284"
	style="stroke:rgb(144,144,144);stroke-width:0.1"/><line
	x1="-1.468588321969396"
	x2="-1.8101044998117772"
	y1="1.22263340767284"
	y2="1.7665155919768099"
	style="stroke:rgb(48,80,248);stroke-width:0.1"/><line
	x1="-1.1270721441270148"
	x2="-1.4577623373634483"
	y1="0.6787512233688704"
	y2="0.21198469666941866"
	style="stroke:rgb(144,144,144);stroke-width:0.1"/><line
	x1="-1.4577623373634483"
	x2="-1.7884525305998817"
	y1="0.21198469666941866"
	y2="-0.2547818300300331"
	style="stroke:rgb(144,144,144);stroke-width:0.1"/><line
	x1="0.20145384721768259"
	x2="0.3682274739671282"
	y1="2.7704442907541242"
	y2="1.9062206824256007"
	style="stroke:rgb(144,144,144);stroke-width:0.1"/><line
	x1="0.3682274739671282"
	x2="0.5350011007165738"
	y1="1.9062206824256007"
	y2="1.0419970740970774"
	style="stroke:rgb(255,255,48);stroke-width:0.1"/><line
	x1="0.20145384721768259"
	x2="-0.44744520783189945"
	y1="2.7704442907541242"
	y2="2.8885370720576113"
	style="stroke:rgb(144,144,144);stroke-width:0.1"/><line
	x1="-0.44744520783189945"
	x2="-1.0963442628814815"
	y1="2.8885370720576113"
	y2="3.0066298533610984"
	style="stroke:rgb(144,144,144);stroke-width:0.1"/><line
	x1="0.20145384721768259"
	x2="0.776223127721627"
	y1="2.7704442907541242"
	y2="3.1880835630595605"
	style="stroke:rgb(144,144,144);stroke-width:0.1"/><line
	x1="0.776223127721627"
	x2="1.3509924082255715"
	y1="3.1880835630595605"
	y2="3.6057228353649964"
	style="stroke:rgb(144,144,144);stroke-width:0.1"/><line
	x1="-1.3800731435397229"
	x2="-1.6586452265771052"
	y1="5.32365579158098"
	y2="4.6939382059755985"
	style="stroke:rgb(255,13,13);stroke-width:0.1"/><line
	x1="-1.6586452265771052"
	x2="-1.9372173096144876"
	y1="4.6939382059755985"
	y2="4.064220620370218"
	style="stroke:rgb(144,144,144);stroke-width:0.1"/><line
	x1="-1.9372173096144876"
	x2="-1.5167807862479845"
	y1="4.064220620370218"
	y2="3.5354252368656582"
	style="stroke:rgb(144,144,144);stroke-width:0.1"/><line
	x1="-1.5167807862479845"
	x2="-1.0963442628814815"
	y1="3.5354252368656582"
	y2="3.0066298533610984"
	style="stroke:rgb(144,144,144);stroke-width:0.1"/><line
	x1="4.812369706423202"
	x2="4.417878425134216"
	y1="-2.2695058629320206"
	y2="-2.626271103876655"
	style="stroke:rgb(255,255,255);stroke-width:0.1"/><line
	x1="4.417878425134216"
	x2="4.0233871438452296"
	y1="-2.626271103876655"
	y2="-2.9830363448212895"
	style="stroke:rgb(144,144,144);stroke-width:0.1"/><line
	x1="1.182811776210736"
	x2="1.2669020922181538"
	y1="4.700985344831906"
	y2="4.153354090098452"
	style="stroke:rgb(255,255,255);stroke-width:0.1"/><line
	x1="1.2669020922181538"
	x2="1.3509924082255715"
	y1="4.153354090098452"
	y2="3.6057228353649964"
	style="stroke:rgb(144,144,144);stroke-width:0.1"/><line
	x1="-2.4990462053430207"
	x2="-2.143749367971451"
	y1="-0.8721231385458709"
	y2="-0.563452484287952"
	style="stroke:rgb(255,255,255);stroke-width:0.1"/><line
	x1="-2.143749367971451"
	x2="-1.7884525305998817"
	y1="-0.563452484287952"
	y2="-0.2547818300300331"
	style="stroke:rgb(144,144,144);stroke-width:0.1"/><line
	x1="4.0233871438452296"
	x2="3.4902814588794224"
	y1="-2.9830363448212895"
	y2="-2.8074427008497134"
	style="stroke:rgb(144,144,144);stroke-width:0.1"/><line
	x1="3.4902814588794224"
	x2="2.9571757739136153"
	y1="-2.8074427008497134"
	y2="-2.6318490568781376"
	style="stroke:rgb(144,144,144);stroke-width:0.1"/><line
	x1="-0.9883732046635214"
	x2="-0.7722824389740868"
	y1="-2.9522965677707687"
	y2="-2.6993385577577698"
	style="stroke:rgb(255,13,13);stroke-width:0.1"/><line
	x1="-0.7722824389740868"
	x2="-0.5561916732846522"
	y1="-2.6993385577577698"
	y2="-2.446380547744771"
	style="stroke:rgb(144,144,144);stroke-width:0.1"/><line
	x1="1.3509924082255715"
	x2="1.4706111331014013"
	y1="3.6057228353649964"
	y2="3.541228492067302"
	style="stroke:rgb(144,144,144);stroke-width:0.1"/><line
	x1="1.4706111331014013"
	x2="1.5902298579772314"
	y1="3.541228492067302"
	y2="3.4767341487696073"
	style="stroke:rgb(255,255,255);stroke-width:0.1"/><line
	x1="-1.8101044998117772"
	x2="-1.4532243813466295"
	y1="1.7665155919768099"
	y2="2.386572722668954"
	style="stroke:rgb(48,80,248);stroke-width:0.1"/><line
	x1="-1.4532243813466295"
	x2="-1.0963442628814815"
	y1="2.386572722668954"
	y2="3.0066298533610984"
	style="stroke:rgb(144,144,144);stroke-width:0.1"/><line
	x1="-1.8101044998117772"
	x2="-2.1585967686553817"
	y1="1.7665155919768099"
	y2="1.3994905734038139"
	style="stroke:rgb(48,80,248);stroke-width:0.1"/><line
	x1="-2.1585967686553817"
	x2="-2.5070890374989863"
	y1="1.3994905734038139"
	y2="1.032465554830818"
	style="stroke:rgb(144,144,144);stroke-width:0.1"/><line
	x1="1.066652359515751"
	x2="1.4909953022465476"
	y1="-5.66467004036579"
	y2="-5.276167397379526"
	style="stroke:rgb(255,255,255);stroke-width:0.1"/><line
	x1="1.4909953022465476"
	x2="1.915338244977344"
	y1="-5.276167397379526"
	y2="-4.887664754393262"
	style="stroke:rgb(144,144,144);stroke-width:0.1"/><line
	x1="-1.0963442628814815"
	x2="-1.03866841407122"
	y1="3.0066298533610984"
	y2="3.1451275625651043"
	style="stroke:rgb(144,144,144);stroke-width:0.1"/><line
	x1="-1.03866841407122"
	x2="-0.9809925652609586"
	y1="3.1451275625651043"
	y2="3.2836252717691097"
	style="stroke:rgb(255,255,255);stroke-width:0.1"/><line
	x1="1.915338244977344"
	x2="1.8914079812468603"
	y1="-4.887664754393262"
	y2="-4.249368845906037"
	style="stroke:rgb(144,144,144);stroke-width:0.1"/><line
	x1="1.8914079812468603"
	x2="1.8674777175163764"
	y1="-4.249368845906037"
	y2="-3.6110729374188124"
	style="stroke:rgb(144,144,144);stroke-width:0.1"/><line
	x1="-1.7884525305998817"
	x2="-1.342862564083649"
	y1="-0.2547818300300331"
	y2="-0.6608422800270781"
	style="stroke:rgb(144,144,144);stroke-width:0.1"/><line
	x1="-1.342862564083649"
	x2="-0.8972725975674161"
	y1="-0.6608422800270781"
	y2="-1.0669027300241232"
	style="stroke:rgb(48,80,248);stroke-width:0.1"/><line
	x1="-1.7884525305998817"
	x2="-2.147770784049434"
	y1="-0.2547818300300331"
	y2="0.3888418624003924"
	style="stroke:rgb(144,144,144);stroke-width:0.1"/><line
	x1="-2.147770784049434"
	x2="-2.5070890374989863"
	y1="0.3888418624003924"
	y2="1.032465554830818"
	style="stroke:rgb(144,144,144);stroke-width:0.1"/><line
	x1="2.9571757739136153"
	x2="2.4123267457149957"
	y1="-2.6318490568781376"
	y2="-3.121460997148475"
	style="stroke:rgb(144,144,144);stroke-width:0.1"/><line
	x1="2.4123267457149957"
	x2="1.8674777175163764"
	y1="-3.121460997148475"
	y2="-3.6110729374188124"
	style="stroke:rgb(144,144,144);stroke-width:0.1"/><line
	x1="2.9571757739136153"
	x2="2.9503321567817276"
	y1="-2.6318490568781376"
	y2="-2.100574179765319"
	style="stroke:rgb(144,144,144);stroke-width:0.1"/><line
	x1="2.9503321567817276"
	x2="2.94348853964984"
	y1="-2.100574179765319"
	y2="-1.5692993026525"
	style="stroke:rgb(255,255,255);stroke-width:0.1"/><line
	x1="-0.5561916732846522"
	x2="-0.7267321354260341"
	y1="-2.446380547744771"
	y2="-1.756641638884447"
	style="stroke:rgb(144,144,144);stroke-width:0.1"/><line
	x1="-0.7267321354260341"
	x2="-0.8972725975674161"
	y1="-1.756641638884447"
	y2="-1.0669027300241232"
	style="stroke:rgb(48,80,248);stroke-width:0.1"/><line
	x1="-0.5561916732846522"
	x2="-0.012780120944661688"
	y1="-2.446380547744771"
	y2="-2.8427783452855477"
	style="stroke:rgb(144,144,144);stroke-width:0.1"/><line
	x1="-0.012780120944661688"
	x2="0.5306314313953289"
	y1="-2.8427783452855477"
	y2="-3.239176142826324"
	style="stroke:rgb(144,144,144);stroke-width:0.1"/><line
	x1="1.8674777175163764"
	x2="1.1990545744558525"
	y1="-3.6110729374188124"
	y2="-3.4251245401225683"
	style="stroke:rgb(144,144,144);stroke-width:0.1"/><line
	x1="1.1990545744558525"
	x2="0.5306314313953289"
	y1="-3.4251245401225683"
	y2="-3.239176142826324"
	style="stroke:rgb(144,144,144);stroke-width:0.1"/><line
	x1="-2.5070890374989863"
	x2="-2.947316658495673"
	y1="1.032465554830818"
	y2="1.198778518825332"
	style="stroke:rgb(144,144,144);stroke-width:0.1"/><line
	x1="-2.947316658495673"
	x2="-3.3875442794923596"
	y1="1.198778518825332"
	y2="1.3650914828198462"
	style="stroke:rgb(255,13,13);stroke-width:0.1"/><line
	x1="-0.8972725975674161"
	x2="-0.6659187581135538"
	y1="-1.0669027300241232"
	y2="-0.8319008409787724"
	style="stroke:rgb(48,80,248);stroke-width:0.1"/><line
	x1="-0.6659187581135538"
	x2="-0.43456491865969166"
	y1="-0.8319008409787724"
	y2="-0.5968989519334216"
	style="stroke:rgb(255,255,255);stroke-width:0.1"/><line
	x1="0.5306314313953289"
	x2="0.25568914827334654"
	y1="-3.239176142826324"
	y2="-3.7939148470224984"
	style="stroke:rgb(144,144,144);stroke-width:0.1"/><line
	x1="0.25568914827334654"
	x2="-0.019253134848635826"
	y1="-3.7939148470224984"
	y2="-4.348653551218672"
	style="stroke:rgb(255,255,255);stroke-width:0.1"/><line
	x1="0.5306314313953289"
	x2="0.6922332435191144"
	y1="-3.239176142826324"
	y2="-2.8927942689058597"
	style="stroke:rgb(144,144,144);stroke-width:0.1"/><line
	x1="0.6922332435191144"
	x2="0.8538350556429"
	y1="-2.8927942689058597"
	y2="-2.546412394985395"
	style="stroke:rgb(255,255,255);stroke-width:0.1"/>
</svg>
