<?xml version="1.0" encoding="UTF-8"?>
<svg
	id="Layer_1"
	xmlns="http://www.w3.org/2000/svg"
	viewBox="-14.0 -14.0 28.0 28.0"
>
<defs>
<style>
</style>
</defs><line
	x1="4.294457075551818"
	x2="3.824222792676085"
	y1="-2.8566680314393382"
	y2="-2.9949111374581974"
	style="stroke:rgb(173.7715,0,0);stroke-width:0.1"/><line
	x1="3.824222792676085"
	x2="3.3539885098003523"
	y1="-2.9949111374581974"
	y2="-3.1331542434770565"
	style="stroke:rgb(170.9665,0,0);stroke-width:0.1"/><line
	x1="-0.169890521550493"
	x2="-0.053102296310417574"
	y1="-3.14469913319839"
	y2="-2.868288847798371"
	style="stroke:rgb(138.913,0,0);stroke-width:0.1"/><line
	x1="-0.053102296310417574"
	x2="0.06368592892965785"
	y1="-2.868288847798371"
	y2="-2.5918785623983522"
	style="stroke:rgb(170.9665,0,0);stroke-width:0.1"/><line
	x1="3.506567952577321"
	x2="3.2627740303048656"
	y1="0.10186077142668064"
	y2="-0.2695453639153797"
	style="stroke:rgb(0,0,136.7455);stroke-width:0.1"/><line
	x1="3.2627740303048656"
	x2="3.0189801080324097"
	y1="-0.2695453639153797"
	y2="-0.64095149925744"
	style="stroke:rgb(152.3005,0,0);stroke-width:0.1"/><line
	x1="-2.7584461646755742"
	x2="-2.619972239587335"
	y1="1.0831915817446425"
	y2="0.6350160975699455"
	style="stroke:rgb(113.158,0,0);stroke-width:0.1"/><line
	x1="-2.619972239587335"
	x2="-2.481498314499096"
	y1="0.6350160975699455"
	y2="0.1868406133952484"
	style="stroke:rgb(170.9665,0,0);stroke-width:0.1"/><line
	x1="-2.7584461646755742"
	x2="-2.763959708068816"
	y1="1.0831915817446425"
	y2="1.7934759375481246"
	style="stroke:rgb(113.158,0,0);stroke-width:0.1"/><line
	x1="-2.763959708068816"
	x2="-2.7694732514620575"
	y1="1.7934759375481246"
	y2="2.5037602933516068"
	style="stroke:rgb(0,0,134.68);stroke-width:0.1"/><line
	x1="-1.6286340923733238"
	x2="-2.1990536719176905"
	y1="3.1533049961809323"
	y2="2.8285326447662698"
	style="stroke:rgb(0,0,140.3155);stroke-width:0.1"/><line
	x1="-2.1990536719176905"
	x2="-2.7694732514620575"
	y1="2.8285326447662698"
	y2="2.5037602933516068"
	style="stroke:rgb(0,0,134.68);stroke-width:0.1"/><line
	x1="-1.6286340923733238"
	x2="-1.6180526661922412"
	y1="3.1533049961809323"
	y2="3.84736342409637"
	style="stroke:rgb(0,0,140.3155);stroke-width:0.1"/><line
	x1="-1.6180526661922412"
	x2="-1.6074712400111586"
	y1="3.84736342409637"
	y2="4.5414218520118075"
	style="stroke:rgb(0,0,140.3155);stroke-width:0.1"/><line
	x1="-1.6074712400111586"
	x2="-2.1995958926532726"
	y1="4.5414218520118075"
	y2="4.949608307101824"
	style="stroke:rgb(0,0,140.3155);stroke-width:0.1"/><line
	x1="-2.1995958926532726"
	x2="-2.791720545295387"
	y1="4.949608307101824"
	y2="5.357794762191841"
	style="stroke:rgb(0,0,140.3155);stroke-width:0.1"/><line
	x1="-2.7694732514620575"
	x2="-3.381799696070532"
	y1="2.5037602933516068"
	y2="2.852760756185507"
	style="stroke:rgb(0,0,134.68);stroke-width:0.1"/><line
	x1="-3.381799696070532"
	x2="-3.994126140679006"
	y1="2.852760756185507"
	y2="3.201761219019408"
	style="stroke:rgb(0,0,140.3155);stroke-width:0.1"/><line
	x1="-2.791720545295387"
	x2="-3.4168456739485062"
	y1="5.357794762191841"
	y2="5.0201971122246745"
	style="stroke:rgb(0,0,140.3155);stroke-width:0.1"/><line
	x1="-3.4168456739485062"
	x2="-4.041970802601626"
	y1="5.0201971122246745"
	y2="4.682599462257508"
	style="stroke:rgb(0,0,140.3155);stroke-width:0.1"/><line
	x1="3.3539885098003523"
	x2="3.308716541950695"
	y1="-3.1331542434770565"
	y2="-3.7130712325543316"
	style="stroke:rgb(170.9665,0,0);stroke-width:0.1"/><line
	x1="3.308716541950695"
	x2="3.2634445741010376"
	y1="-3.7130712325543316"
	y2="-4.292988221631607"
	style="stroke:rgb(138.913,0,0);stroke-width:0.1"/><line
	x1="3.3539885098003523"
	x2="2.882278340959809"
	y1="-3.1331542434770565"
	y2="-2.5406512592365265"
	style="stroke:rgb(170.9665,0,0);stroke-width:0.1"/><line
	x1="2.882278340959809"
	x2="2.4105681721192664"
	y1="-2.5406512592365265"
	y2="-1.9481482749959962"
	style="stroke:rgb(152.3005,0,0);stroke-width:0.1"/><line
	x1="-3.994126140679006"
	x2="-4.018048471640316"
	y1="3.201761219019408"
	y2="3.9421803406384575"
	style="stroke:rgb(0,0,140.3155);stroke-width:0.1"/><line
	x1="-4.018048471640316"
	x2="-4.041970802601626"
	y1="3.9421803406384575"
	y2="4.682599462257508"
	style="stroke:rgb(0,0,140.3155);stroke-width:0.1"/><line
	x1="2.4105681721192664"
	x2="1.834454257831484"
	y1="-1.9481482749959962"
	y2="-2.135791558533889"
	style="stroke:rgb(152.3005,0,0);stroke-width:0.1"/><line
	x1="1.834454257831484"
	x2="1.2583403435437015"
	y1="-2.135791558533889"
	y2="-2.3234348420717823"
	style="stroke:rgb(181.2685,0,0);stroke-width:0.1"/><line
	x1="2.4105681721192664"
	x2="2.7147741400758383"
	y1="-1.9481482749959962"
	y2="-1.294549887126718"
	style="stroke:rgb(152.3005,0,0);stroke-width:0.1"/><line
	x1="2.7147741400758383"
	x2="3.0189801080324097"
	y1="-1.294549887126718"
	y2="-0.64095149925744"
	style="stroke:rgb(152.3005,0,0);stroke-width:0.1"/><line
	x1="0.06368592892965785"
	x2="0.6610131362366797"
	y1="-2.5918785623983522"
	y2="-2.4576567022350675"
	style="stroke:rgb(170.9665,0,0);stroke-width:0.1"/><line
	x1="0.6610131362366797"
	x2="1.2583403435437015"
	y1="-2.4576567022350675"
	y2="-2.3234348420717823"
	style="stroke:rgb(181.2685,0,0);stroke-width:0.1"/><line
	x1="0.06368592892965785"
	x2="-0.34148695538248214"
	y1="-2.5918785623983522"
	y2="-2.1196264039050834"
	style="stroke:rgb(170.9665,0,0);stroke-width:0.1"/><line
	x1="-0.34148695538248214"
	x2="-0.7466598396946221"
	y1="-2.1196264039050834"
	y2="-1.6473742454118148"
	style="stroke:rgb(152.3005,0,0);stroke-width:0.1"/><line
	x1="-1.3452955643070577"
	x2="-1.0459777020008398"
	y1="-0.5613450242026446"
	y2="-1.1043596348072298"
	style="stroke:rgb(280.948,0,0);stroke-width:0.1"/><line
	x1="-1.0459777020008398"
	x2="-0.7466598396946221"
	y1="-1.1043596348072298"
	y2="-1.6473742454118148"
	style="stroke:rgb(152.3005,0,0);stroke-width:0.1"/><line
	x1="-1.3452955643070577"
	x2="-1.9133969394030768"
	y1="-0.5613450242026446"
	y2="-0.18725220540369814"
	style="stroke:rgb(280.948,0,0);stroke-width:0.1"/><line
	x1="-1.9133969394030768"
	x2="-2.481498314499096"
	y1="-0.18725220540369814"
	y2="0.1868406133952484"
	style="stroke:rgb(170.9665,0,0);stroke-width:0.1"/><line
	x1="3.0189801080324097"
	x2="2.2557150712550316"
	y1="-0.64095149925744"
	y2="-0.16302243199547728"
	style="stroke:rgb(152.3005,0,0);stroke-width:0.1"/><line
	x1="2.2557150712550316"
	x2="1.4924500344776537"
	y1="-0.16302243199547728"
	y2="0.31490663526648544"
	style="stroke:rgb(0,0,265.291);stroke-width:0.1"/><line
	x1="3.0189801080324097"
	x2="3.645005223217875"
	y1="-0.64095149925744"
	y2="-0.7116952773226216"
	style="stroke:rgb(152.3005,0,0);stroke-width:0.1"/><line
	x1="3.645005223217875"
	x2="4.271030338403341"
	y1="-0.7116952773226216"
	y2="-0.7824390553878032"
	style="stroke:rgb(0,0,136.7455);stroke-width:0.1"/><line
	x1="-2.481498314499096"
	x2="-2.8671229754109495"
	y1="0.1868406133952484"
	y2="0.13961309522142507"
	style="stroke:rgb(170.9665,0,0);stroke-width:0.1"/><line
	x1="-2.8671229754109495"
	x2="-3.252747636322803"
	y1="0.13961309522142507"
	y2="0.09238557704760172"
	style="stroke:rgb(138.913,0,0);stroke-width:0.1"/><line
	x1="1.2583403435437015"
	x2="0.9722889513442254"
	y1="-2.3234348420717823"
	y2="-1.8260756731139782"
	style="stroke:rgb(181.2685,0,0);stroke-width:0.1"/><line
	x1="0.9722889513442254"
	x2="0.6862375591447495"
	y1="-1.8260756731139782"
	y2="-1.3287165041561744"
	style="stroke:rgb(152.3005,0,0);stroke-width:0.1"/><line
	x1="-0.7466598396946221"
	x2="-0.03021114027493632"
	y1="-1.6473742454118148"
	y2="-1.4880453747839946"
	style="stroke:rgb(152.3005,0,0);stroke-width:0.1"/><line
	x1="-0.03021114027493632"
	x2="0.6862375591447495"
	y1="-1.4880453747839946"
	y2="-1.3287165041561744"
	style="stroke:rgb(152.3005,0,0);stroke-width:0.1"/><line
	x1="1.4924500344776537"
	x2="1.0893437968112016"
	y1="0.31490663526648544"
	y2="-0.5069049344448444"
	style="stroke:rgb(0,0,265.291);stroke-width:0.1"/><line
	x1="1.0893437968112016"
	x2="0.6862375591447495"
	y1="-0.5069049344448444"
	y2="-1.3287165041561744"
	style="stroke:rgb(152.3005,0,0);stroke-width:0.1"/>
</svg>
