<?xml version="1.0" encoding="UTF-8"?>
<svg
	id="Layer_1"
	xmlns="http://www.w3.org/2000/svg"
	viewBox="-14.0 -14.0 28.0 28.0"
>
<defs>
<style>
</style>
</defs><line
	x1="1.1482736249867194"
	x2="0.9640578828072615"
	y1="0.14572285546069672"
	y2="0.1412419149466097"
	style="stroke:rgb(255,255,255);stroke-width:0.1"/><line
	x1="0.9640578828072615"
	x2="0.7798421406278035"
	y1="0.1412419149466097"
	y2="0.13676097443252272"
	style="stroke:rgb(255,13,13);stroke-width:0.1"/><line
	x1="0.7798421406278035"
	x2="1.076031218114152"
	y1="0.13676097443252272"
	y2="0.06067989127788702"
	style="stroke:rgb(255,13,13);stroke-width:0.1"/><line
	x1="1.076031218114152"
	x2="1.3722202956005007"
	y1="0.06067989127788702"
	y2="-0.015401191876748686"
	style="stroke:rgb(144,144,144);stroke-width:0.1"/><line
	x1="-0.8550625111291017"
	x2="-0.9160410848464167"
	y1="1.0166580103956366"
	y2="1.0423566100176798"
	style="stroke:rgb(255,255,255);stroke-width:0.1"/><line
	x1="-0.9160410848464167"
	x2="-0.9770196585637316"
	y1="1.0423566100176798"
	y2="1.0680552096397231"
	style="stroke:rgb(144,144,144);stroke-width:0.1"/><line
	x1="2.3055349016130355"
	x2="1.8388775986067682"
	y1="-0.13020725376606399"
	y2="-0.07280422282140633"
	style="stroke:rgb(255,13,13);stroke-width:0.1"/><line
	x1="1.8388775986067682"
	x2="1.3722202956005007"
	y1="-0.07280422282140633"
	y2="-0.015401191876748686"
	style="stroke:rgb(144,144,144);stroke-width:0.1"/><line
	x1="0.8188319022848601"
	x2="0.8018829576204975"
	y1="2.0362036051280517"
	y2="2.0568934627732443"
	style="stroke:rgb(255,255,255);stroke-width:0.1"/><line
	x1="0.8018829576204975"
	x2="0.7849340129561349"
	y1="2.0568934627732443"
	y2="2.0775833204184364"
	style="stroke:rgb(144,144,144);stroke-width:0.1"/><line
	x1="1.3722202956005007"
	x2="1.049662877042869"
	y1="-0.015401191876748686"
	y2="-0.026115398113375432"
	style="stroke:rgb(144,144,144);stroke-width:0.1"/><line
	x1="1.049662877042869"
	x2="0.7271054584852377"
	y1="-0.026115398113375432"
	y2="-0.036829604350002175"
	style="stroke:rgb(144,144,144);stroke-width:0.1"/><line
	x1="-0.9770196585637316"
	x2="-0.4210886626409045"
	y1="1.0680552096397231"
	y2="1.069382035059248"
	style="stroke:rgb(144,144,144);stroke-width:0.1"/><line
	x1="-0.4210886626409045"
	x2="0.13484233328192258"
	y1="1.069382035059248"
	y2="1.0707088604787731"
	style="stroke:rgb(144,144,144);stroke-width:0.1"/><line
	x1="-0.9770196585637316"
	x2="-1.2119054660030746"
	y1="1.0680552096397231"
	y2="1.444317299833798"
	style="stroke:rgb(144,144,144);stroke-width:0.1"/><line
	x1="-1.2119054660030746"
	x2="-1.4467912734424175"
	y1="1.444317299833798"
	y2="1.820579390027873"
	style="stroke:rgb(255,255,255);stroke-width:0.1"/><line
	x1="-0.9770196585637316"
	x2="-1.2334929412402937"
	y1="1.0680552096397231"
	y2="0.7215527146923804"
	style="stroke:rgb(144,144,144);stroke-width:0.1"/><line
	x1="-1.2334929412402937"
	x2="-1.4899662239168558"
	y1="0.7215527146923804"
	y2="0.3750502197450377"
	style="stroke:rgb(255,255,255);stroke-width:0.1"/><line
	x1="0.7849340129561349"
	x2="0.45988817311902874"
	y1="2.0775833204184364"
	y2="1.5741460904486049"
	style="stroke:rgb(144,144,144);stroke-width:0.1"/><line
	x1="0.45988817311902874"
	x2="0.13484233328192258"
	y1="1.5741460904486049"
	y2="1.0707088604787731"
	style="stroke:rgb(144,144,144);stroke-width:0.1"/><line
	x1="0.7849340129561349"
	x2="1.21795453088298"
	y1="2.0775833204184364"
	y2="2.0981293675185264"
	style="stroke:rgb(144,144,144);stroke-width:0.1"/><line
	x1="1.21795453088298"
	x2="1.650975048809825"
	y1="2.0981293675185264"
	y2="2.1186754146186164"
	style="stroke:rgb(255,255,255);stroke-width:0.1"/><line
	x1="0.7849340129561349"
	x2="0.5842030440216797"
	y1="2.0775833204184364"
	y2="2.4783532219215014"
	style="stroke:rgb(144,144,144);stroke-width:0.1"/><line
	x1="0.5842030440216797"
	x2="0.3834720750872245"
	y1="2.4783532219215014"
	y2="2.8791231234245664"
	style="stroke:rgb(255,255,255);stroke-width:0.1"/><line
	x1="0.14461591596760054"
	x2="0.43586068722641913"
	y1="-0.7093678762575899"
	y2="-0.37309874030379603"
	style="stroke:rgb(255,255,255);stroke-width:0.1"/><line
	x1="0.43586068722641913"
	x2="0.7271054584852377"
	y1="-0.37309874030379603"
	y2="-0.036829604350002175"
	style="stroke:rgb(144,144,144);stroke-width:0.1"/><line
	x1="0.7271054584852377"
	x2="1.1127941078855104"
	y1="-0.036829604350002175"
	y2="-0.1804843484483574"
	style="stroke:rgb(144,144,144);stroke-width:0.1"/><line
	x1="1.1127941078855104"
	x2="1.4984827572857833"
	y1="-0.1804843484483574"
	y2="-0.32413909254671264"
	style="stroke:rgb(48,80,248);stroke-width:0.1"/><line
	x1="0.7271054584852377"
	x2="0.43097389588358015"
	y1="-0.036829604350002175"
	y2="0.5169396280643854"
	style="stroke:rgb(144,144,144);stroke-width:0.1"/><line
	x1="0.43097389588358015"
	x2="0.13484233328192258"
	y1="0.5169396280643854"
	y2="1.0707088604787731"
	style="stroke:rgb(144,144,144);stroke-width:0.1"/><line
	x1="0.13484233328192258"
	x2="0.04160353103414893"
	y1="1.0707088604787731"
	y2="1.1214940692638888"
	style="stroke:rgb(144,144,144);stroke-width:0.1"/><line
	x1="0.04160353103414893"
	x2="-0.05163527121362472"
	y1="1.1214940692638888"
	y2="1.1722792780490046"
	style="stroke:rgb(255,255,48);stroke-width:0.1"/><line
	x1="1.4984827572857833"
	x2="1.496021871328247"
	y1="-0.32413909254671264"
	y2="0.04506971632080001"
	style="stroke:rgb(48,80,248);stroke-width:0.1"/><line
	x1="1.496021871328247"
	x2="1.4935609853707106"
	y1="0.04506971632080001"
	y2="0.41427852518831265"
	style="stroke:rgb(144,144,144);stroke-width:0.1"/><line
	x1="1.4984827572857833"
	x2="1.5367391561836974"
	y1="-0.32413909254671264"
	y2="-0.8826543509346276"
	style="stroke:rgb(48,80,248);stroke-width:0.1"/><line
	x1="1.5367391561836974"
	x2="1.5749955550816113"
	y1="-0.8826543509346276"
	y2="-1.4411696093225426"
	style="stroke:rgb(144,144,144);stroke-width:0.1"/><line
	x1="1.5211828406834804"
	x2="1.548089197882546"
	y1="-2.4240345350852066"
	y2="-1.9326020722038746"
	style="stroke:rgb(255,13,13);stroke-width:0.1"/><line
	x1="1.548089197882546"
	x2="1.5749955550816113"
	y1="-1.9326020722038746"
	y2="-1.4411696093225426"
	style="stroke:rgb(144,144,144);stroke-width:0.1"/><line
	x1="1.5749955550816113"
	x2="1.584485792812874"
	y1="-1.4411696093225426"
	y2="-1.1625992676826788"
	style="stroke:rgb(144,144,144);stroke-width:0.1"/><line
	x1="1.584485792812874"
	x2="1.5939760305441368"
	y1="-1.1625992676826788"
	y2="-0.8840289260428154"
	style="stroke:rgb(144,144,144);stroke-width:0.1"/><line
	x1="-0.05163527121362472"
	x2="0.7209628570785429"
	y1="1.1722792780490046"
	y2="0.7932789016186585"
	style="stroke:rgb(255,255,48);stroke-width:0.1"/><line
	x1="0.7209628570785429"
	x2="1.4935609853707106"
	y1="0.7932789016186585"
	y2="0.41427852518831265"
	style="stroke:rgb(144,144,144);stroke-width:0.1"/><line
	x1="1.4935609853707106"
	x2="1.5437685079574237"
	y1="0.41427852518831265"
	y2="-0.23487520042725135"
	style="stroke:rgb(144,144,144);stroke-width:0.1"/><line
	x1="1.5437685079574237"
	x2="1.5939760305441368"
	y1="-0.23487520042725135"
	y2="-0.8840289260428154"
	style="stroke:rgb(144,144,144);stroke-width:0.1"/><line
	x1="1.4935609853707106"
	x2="1.9108755453981483"
	y1="0.41427852518831265"
	y2="0.7383656677088362"
	style="stroke:rgb(144,144,144);stroke-width:0.1"/><line
	x1="1.9108755453981483"
	x2="2.3281901054255862"
	y1="0.7383656677088362"
	y2="1.0624528102293596"
	style="stroke:rgb(255,255,255);stroke-width:0.1"/><line
	x1="1.5939760305441368"
	x2="0.9914581570655454"
	y1="-0.8840289260428154"
	y2="-1.1017412159243278"
	style="stroke:rgb(144,144,144);stroke-width:0.1"/><line
	x1="0.9914581570655454"
	x2="0.388940283586954"
	y1="-1.1017412159243278"
	y2="-1.31945350580584"
	style="stroke:rgb(48,80,248);stroke-width:0.1"/><line
	x1="1.5939760305441368"
	x2="2.1052393106085843"
	y1="-0.8840289260428154"
	y2="-0.9759299155713503"
	style="stroke:rgb(144,144,144);stroke-width:0.1"/><line
	x1="2.1052393106085843"
	x2="2.6165025906730315"
	y1="-0.9759299155713503"
	y2="-1.0678309050998853"
	style="stroke:rgb(255,255,255);stroke-width:0.1"/><line
	x1="-0.44163687372700294"
	x2="-0.02634829507002448"
	y1="-1.6367000129228657"
	y2="-1.478076759364353"
	style="stroke:rgb(255,255,255);stroke-width:0.1"/><line
	x1="-0.02634829507002448"
	x2="0.388940283586954"
	y1="-1.478076759364353"
	y2="-1.31945350580584"
	style="stroke:rgb(48,80,248);stroke-width:0.1"/><line
	x1="0.388940283586954"
	x2="0.33967911211260426"
	y1="-1.31945350580584"
	y2="-1.3140375620646965"
	style="stroke:rgb(48,80,248);stroke-width:0.1"/><line
	x1="0.33967911211260426"
	x2="0.29041794063825455"
	y1="-1.3140375620646965"
	y2="-1.3086216183235526"
	style="stroke:rgb(144,144,144);stroke-width:0.1"/><line
	x1="-3.2009940093707305"
	x2="-3.282212574540286"
	y1="0.2561120408139899"
	y2="0.351913098239662"
	style="stroke:rgb(255,255,255);stroke-width:0.1"/><line
	x1="-3.282212574540286"
	x2="-3.3634311397098413"
	y1="0.351913098239662"
	y2="0.447714155665334"
	style="stroke:rgb(144,144,144);stroke-width:0.1"/><line
	x1="-1.9934186389577369"
	x2="-1.6873092827104887"
	y1="-2.269167382416688"
	y2="-2.0939870653635637"
	style="stroke:rgb(255,255,255);stroke-width:0.1"/><line
	x1="-1.6873092827104887"
	x2="-1.3811999264632406"
	y1="-2.0939870653635637"
	y2="-1.918806748310439"
	style="stroke:rgb(144,144,144);stroke-width:0.1"/><line
	x1="-5.089511018866328"
	x2="-4.792574198047788"
	y1="2.5098663320357675"
	y2="2.1551143204971224"
	style="stroke:rgb(255,255,255);stroke-width:0.1"/><line
	x1="-4.792574198047788"
	x2="-4.495637377229249"
	y1="2.1551143204971224"
	y2="1.8003623089584777"
	style="stroke:rgb(144,144,144);stroke-width:0.1"/><line
	x1="0.29041794063825455"
	x2="0.8609123666395031"
	y1="-1.3086216183235526"
	y2="-1.077119936608903"
	style="stroke:rgb(144,144,144);stroke-width:0.1"/><line
	x1="0.8609123666395031"
	x2="1.4314067926407517"
	y1="-1.077119936608903"
	y2="-0.8456182548942535"
	style="stroke:rgb(255,13,13);stroke-width:0.1"/><line
	x1="0.29041794063825455"
	x2="-0.545390992912493"
	y1="-1.3086216183235526"
	y2="-1.6137141833169957"
	style="stroke:rgb(144,144,144);stroke-width:0.1"/><line
	x1="-0.545390992912493"
	x2="-1.3811999264632406"
	y1="-1.6137141833169957"
	y2="-1.918806748310439"
	style="stroke:rgb(144,144,144);stroke-width:0.1"/><line
	x1="-3.3634311397098413"
	x2="-2.9241756718661014"
	y1="0.447714155665334"
	y2="-0.07595907083057563"
	style="stroke:rgb(144,144,144);stroke-width:0.1"/><line
	x1="-2.9241756718661014"
	x2="-2.484920204022362"
	y1="-0.07595907083057563"
	y2="-0.5996322973264853"
	style="stroke:rgb(144,144,144);stroke-width:0.1"/><line
	x1="-3.3634311397098413"
	x2="-3.929534258469545"
	y1="0.447714155665334"
	y2="1.1240382323119058"
	style="stroke:rgb(144,144,144);stroke-width:0.1"/><line
	x1="-3.929534258469545"
	x2="-4.495637377229249"
	y1="1.1240382323119058"
	y2="1.8003623089584777"
	style="stroke:rgb(144,144,144);stroke-width:0.1"/><line
	x1="-1.3811999264632406"
	x2="-1.9330600652428012"
	y1="-1.918806748310439"
	y2="-1.2592195228184622"
	style="stroke:rgb(144,144,144);stroke-width:0.1"/><line
	x1="-1.9330600652428012"
	x2="-2.484920204022362"
	y1="-1.2592195228184622"
	y2="-0.5996322973264853"
	style="stroke:rgb(144,144,144);stroke-width:0.1"/><line
	x1="-1.3811999264632406"
	x2="-1.3161288161479716"
	y1="-1.918806748310439"
	y2="-2.5341463523402545"
	style="stroke:rgb(144,144,144);stroke-width:0.1"/><line
	x1="-1.3161288161479716"
	x2="-1.2510577058327026"
	y1="-2.5341463523402545"
	y2="-3.14948595637007"
	style="stroke:rgb(255,255,255);stroke-width:0.1"/><line
	x1="-4.495637377229249"
	x2="-4.722684194972112"
	y1="1.8003623089584777"
	y2="2.0729743351953998"
	style="stroke:rgb(144,144,144);stroke-width:0.1"/><line
	x1="-4.722684194972112"
	x2="-4.949731012714976"
	y1="2.0729743351953998"
	y2="2.3455863614323222"
	style="stroke:rgb(144,144,144);stroke-width:0.1"/><line
	x1="-2.484920204022362"
	x2="-2.5582525411888275"
	y1="-0.5996322973264853"
	y2="-0.5108393108426149"
	style="stroke:rgb(144,144,144);stroke-width:0.1"/><line
	x1="-2.5582525411888275"
	x2="-2.6315848783552935"
	y1="-0.5108393108426149"
	y2="-0.4220463243587446"
	style="stroke:rgb(144,144,144);stroke-width:0.1"/><line
	x1="-4.949731012714976"
	x2="-4.4682124837291886"
	y1="2.3455863614323222"
	y2="1.7717107019120535"
	style="stroke:rgb(144,144,144);stroke-width:0.1"/><line
	x1="-4.4682124837291886"
	x2="-3.9866939547434015"
	y1="1.7717107019120535"
	y2="1.197835042391785"
	style="stroke:rgb(144,144,144);stroke-width:0.1"/><line
	x1="-4.949731012714976"
	x2="-5.528710578869813"
	y1="2.3455863614323222"
	y2="3.0380145126498452"
	style="stroke:rgb(144,144,144);stroke-width:0.1"/><line
	x1="-5.528710578869813"
	x2="-6.107690145024651"
	y1="3.0380145126498452"
	y2="3.7304426638673682"
	style="stroke:rgb(255,255,255);stroke-width:0.1"/><line
	x1="-2.6315848783552935"
	x2="-3.3091394165493475"
	y1="-0.4220463243587446"
	y2="0.38789435901652014"
	style="stroke:rgb(144,144,144);stroke-width:0.1"/><line
	x1="-3.3091394165493475"
	x2="-3.9866939547434015"
	y1="0.38789435901652014"
	y2="1.197835042391785"
	style="stroke:rgb(144,144,144);stroke-width:0.1"/><line
	x1="-2.6315848783552935"
	x2="-2.1852665741525"
	y1="-0.4220463243587446"
	y2="-0.9518794885568898"
	style="stroke:rgb(144,144,144);stroke-width:0.1"/><line
	x1="-2.1852665741525"
	x2="-1.7389482699497065"
	y1="-0.9518794885568898"
	y2="-1.4817126527550348"
	style="stroke:rgb(255,255,255);stroke-width:0.1"/><line
	x1="-3.9866939547434015"
	x2="-4.169181844710378"
	y1="1.197835042391785"
	y2="1.4184658624659257"
	style="stroke:rgb(144,144,144);stroke-width:0.1"/><line
	x1="-4.169181844710378"
	x2="-4.351669734677355"
	y1="1.4184658624659257"
	y2="1.6390966825400664"
	style="stroke:rgb(255,255,255);stroke-width:0.1"/>
</svg>
