<?xml version="1.0" encoding="UTF-8"?>
<svg
	id="Layer_1"
	xmlns="http://www.w3.org/2000/svg"
	viewBox="-14.0 -14.0 28.0 28.0"
>
<defs>
<style>
</style>
</defs><line
	x1="0.5180953179282065"
	x2="0.6267187454984557"
	y1="3.6953822970588375"
	y2="3.4998731555270357"
	style="stroke:rgb(255,255,255);stroke-width:0.1"/><line
	x1="0.6267187454984557"
	x2="0.735342173068705"
	y1="3.4998731555270357"
	y2="3.3043640139952335"
	style="stroke:rgb(255,13,13);stroke-width:0.1"/><line
	x1="0.7992864264531766"
	x2="0.6975783887144253"
	y1="1.2505181735270847"
	y2="0.9751169420741714"
	style="stroke:rgb(255,255,255);stroke-width:0.1"/><line
	x1="0.6975783887144253"
	x2="0.5958703509756741"
	y1="0.9751169420741714"
	y2="0.699715710621258"
	style="stroke:rgb(144,144,144);stroke-width:0.1"/><line
	x1="0.9959845311371947"
	x2="0.7959274410564343"
	y1="-0.013200984634375957"
	y2="0.34325736299344106"
	style="stroke:rgb(255,255,255);stroke-width:0.1"/><line
	x1="0.7959274410564343"
	x2="0.5958703509756741"
	y1="0.34325736299344106"
	y2="0.699715710621258"
	style="stroke:rgb(144,144,144);stroke-width:0.1"/><line
	x1="-0.23632417560235047"
	x2="0.1797730876866618"
	y1="0.555863797571057"
	y2="0.6277897540961574"
	style="stroke:rgb(255,255,255);stroke-width:0.1"/><line
	x1="0.1797730876866618"
	x2="0.5958703509756741"
	y1="0.6277897540961574"
	y2="0.699715710621258"
	style="stroke:rgb(144,144,144);stroke-width:0.1"/><line
	x1="0.735342173068705"
	x2="0.2999961168193283"
	y1="3.3043640139952335"
	y2="3.092329716848356"
	style="stroke:rgb(255,13,13);stroke-width:0.1"/><line
	x1="0.2999961168193283"
	x2="-0.13534993943004836"
	y1="3.092329716848356"
	y2="2.8802954197014787"
	style="stroke:rgb(144,144,144);stroke-width:0.1"/><line
	x1="0.5958703509756741"
	x2="0.760502203039433"
	y1="0.699715710621258"
	y2="0.9078813767597897"
	style="stroke:rgb(144,144,144);stroke-width:0.1"/><line
	x1="0.760502203039433"
	x2="0.9251340551031918"
	y1="0.9078813767597897"
	y2="1.1160470428983214"
	style="stroke:rgb(144,144,144);stroke-width:0.1"/><line
	x1="-1.0609161229563073"
	x2="-0.5981330311931778"
	y1="3.0098972750289907"
	y2="2.9450963473652347"
	style="stroke:rgb(255,13,13);stroke-width:0.1"/><line
	x1="-0.5981330311931778"
	x2="-0.13534993943004836"
	y1="2.9450963473652347"
	y2="2.8802954197014787"
	style="stroke:rgb(144,144,144);stroke-width:0.1"/><line
	x1="2.3741907863174188"
	x2="2.291929786281401"
	y1="2.002403805592117"
	y2="1.686732963834305"
	style="stroke:rgb(255,255,255);stroke-width:0.1"/><line
	x1="2.291929786281401"
	x2="2.209668786245383"
	y1="1.686732963834305"
	y2="1.3710621220764925"
	style="stroke:rgb(144,144,144);stroke-width:0.1"/><line
	x1="-0.13534993943004836"
	x2="0.03896301444678747"
	y1="2.8802954197014787"
	y2="2.5300428866082534"
	style="stroke:rgb(144,144,144);stroke-width:0.1"/><line
	x1="0.03896301444678747"
	x2="0.2132759683236233"
	y1="2.5300428866082534"
	y2="2.179790353515028"
	style="stroke:rgb(144,144,144);stroke-width:0.1"/><line
	x1="2.6774262558901216"
	x2="2.443547521067752"
	y1="0.6193754490544319"
	y2="0.9952187855654622"
	style="stroke:rgb(255,255,255);stroke-width:0.1"/><line
	x1="2.443547521067752"
	x2="2.209668786245383"
	y1="0.9952187855654622"
	y2="1.3710621220764925"
	style="stroke:rgb(144,144,144);stroke-width:0.1"/><line
	x1="2.209668786245383"
	x2="1.5674014206742874"
	y1="1.3710621220764925"
	y2="1.2435545824874068"
	style="stroke:rgb(144,144,144);stroke-width:0.1"/><line
	x1="1.5674014206742874"
	x2="0.9251340551031918"
	y1="1.2435545824874068"
	y2="1.1160470428983214"
	style="stroke:rgb(144,144,144);stroke-width:0.1"/><line
	x1="2.209668786245383"
	x2="2.4077612964691513"
	y1="1.3710621220764925"
	y2="1.5386862767628466"
	style="stroke:rgb(144,144,144);stroke-width:0.1"/><line
	x1="2.4077612964691513"
	x2="2.6058538066929193"
	y1="1.5386862767628466"
	y2="1.7063104314492006"
	style="stroke:rgb(255,255,255);stroke-width:0.1"/><line
	x1="0.9251340551031918"
	x2="0.7556494502879297"
	y1="1.1160470428983214"
	y2="0.5143204370809624"
	style="stroke:rgb(144,144,144);stroke-width:0.1"/><line
	x1="0.7556494502879297"
	x2="0.5861648454726677"
	y1="0.5143204370809624"
	y2="-0.08740616873639644"
	style="stroke:rgb(255,255,48);stroke-width:0.1"/><line
	x1="0.9251340551031918"
	x2="0.5692050117134075"
	y1="1.1160470428983214"
	y2="1.6479186982066747"
	style="stroke:rgb(144,144,144);stroke-width:0.1"/><line
	x1="0.5692050117134075"
	x2="0.2132759683236233"
	y1="1.6479186982066747"
	y2="2.179790353515028"
	style="stroke:rgb(144,144,144);stroke-width:0.1"/><line
	x1="0.2132759683236233"
	x2="-0.3332966493162297"
	y1="2.179790353515028"
	y2="1.9653444375571096"
	style="stroke:rgb(144,144,144);stroke-width:0.1"/><line
	x1="-0.3332966493162297"
	x2="-0.8798692669560827"
	y1="1.9653444375571096"
	y2="1.7508985215991912"
	style="stroke:rgb(48,80,248);stroke-width:0.1"/><line
	x1="0.2132759683236233"
	x2="0.45473061920504904"
	y1="2.179790353515028"
	y2="2.4839082955384812"
	style="stroke:rgb(144,144,144);stroke-width:0.1"/><line
	x1="0.45473061920504904"
	x2="0.6961852700864748"
	y1="2.4839082955384812"
	y2="2.788026237561934"
	style="stroke:rgb(255,255,255);stroke-width:0.1"/><line
	x1="-1.5477733297619636"
	x2="-1.2719663086682138"
	y1="0.03568657972330531"
	y2="0.23560321200989096"
	style="stroke:rgb(255,255,255);stroke-width:0.1"/><line
	x1="-1.2719663086682138"
	x2="-0.9961592875744641"
	y1="0.23560321200989096"
	y2="0.4355198442964766"
	style="stroke:rgb(144,144,144);stroke-width:0.1"/><line
	x1="-0.8798692669560827"
	x2="-0.9380142772652734"
	y1="1.7508985215991912"
	y2="1.0932091829478339"
	style="stroke:rgb(48,80,248);stroke-width:0.1"/><line
	x1="-0.9380142772652734"
	x2="-0.9961592875744641"
	y1="1.0932091829478339"
	y2="0.4355198442964766"
	style="stroke:rgb(144,144,144);stroke-width:0.1"/><line
	x1="-0.8798692669560827"
	x2="-1.1645458198220933"
	y1="1.7508985215991912"
	y2="1.9654355186891743"
	style="stroke:rgb(48,80,248);stroke-width:0.1"/><line
	x1="-1.1645458198220933"
	x2="-1.4492223726881037"
	y1="1.9654355186891743"
	y2="2.1799725157791574"
	style="stroke:rgb(144,144,144);stroke-width:0.1"/><line
	x1="0.5861648454726677"
	x2="-0.20499722105089824"
	y1="-0.08740616873639644"
	y2="0.17405683778004008"
	style="stroke:rgb(255,255,48);stroke-width:0.1"/><line
	x1="-0.20499722105089824"
	x2="-0.9961592875744641"
	y1="0.17405683778004008"
	y2="0.4355198442964766"
	style="stroke:rgb(144,144,144);stroke-width:0.1"/><line
	x1="-0.9961592875744641"
	x2="-1.336390367649973"
	y1="0.4355198442964766"
	y2="0.5755374002109092"
	style="stroke:rgb(144,144,144);stroke-width:0.1"/><line
	x1="-1.336390367649973"
	x2="-1.676621447725482"
	y1="0.5755374002109092"
	y2="0.7155549561253417"
	style="stroke:rgb(144,144,144);stroke-width:0.1"/><line
	x1="-1.4492223726881037"
	x2="-1.5345687783539623"
	y1="2.1799725157791574"
	y2="2.760134377858317"
	style="stroke:rgb(144,144,144);stroke-width:0.1"/><line
	x1="-1.5345687783539623"
	x2="-1.6199151840198207"
	y1="2.760134377858317"
	y2="3.340296239937477"
	style="stroke:rgb(255,13,13);stroke-width:0.1"/><line
	x1="-1.4492223726881037"
	x2="-1.5629219102067928"
	y1="2.1799725157791574"
	y2="1.4477637359522495"
	style="stroke:rgb(144,144,144);stroke-width:0.1"/><line
	x1="-1.5629219102067928"
	x2="-1.676621447725482"
	y1="1.4477637359522495"
	y2="0.7155549561253417"
	style="stroke:rgb(144,144,144);stroke-width:0.1"/><line
	x1="-2.7637164182862777"
	x2="-2.22016893300588"
	y1="0.4624413438761853"
	y2="0.5889981500007635"
	style="stroke:rgb(255,255,255);stroke-width:0.1"/><line
	x1="-2.22016893300588"
	x2="-1.676621447725482"
	y1="0.5889981500007635"
	y2="0.7155549561253417"
	style="stroke:rgb(144,144,144);stroke-width:0.1"/><line
	x1="-1.676621447725482"
	x2="-1.3255000869005293"
	y1="0.7155549561253417"
	y2="0.47766577850266023"
	style="stroke:rgb(144,144,144);stroke-width:0.1"/><line
	x1="-1.3255000869005293"
	x2="-0.9743787260755766"
	y1="0.47766577850266023"
	y2="0.2397766008799787"
	style="stroke:rgb(48,80,248);stroke-width:0.1"/><line
	x1="3.66001714524938"
	x2="3.186915198466048"
	y1="-4.4065384547784285"
	y2="-4.46816000379445"
	style="stroke:rgb(255,255,255);stroke-width:0.1"/><line
	x1="3.186915198466048"
	x2="2.7138132516827165"
	y1="-4.46816000379445"
	y2="-4.529781552810471"
	style="stroke:rgb(144,144,144);stroke-width:0.1"/><line
	x1="2.759591832781504"
	x2="2.4577836936538713"
	y1="-7.295667948380664"
	y2="-6.734864266865816"
	style="stroke:rgb(255,255,255);stroke-width:0.1"/><line
	x1="2.4577836936538713"
	x2="2.1559755545262385"
	y1="-6.734864266865816"
	y2="-6.174060585350968"
	style="stroke:rgb(144,144,144);stroke-width:0.1"/><line
	x1="-0.9743787260755766"
	x2="-1.197618731988766"
	y1="0.2397766008799787"
	y2="-0.4247118584254339"
	style="stroke:rgb(48,80,248);stroke-width:0.1"/><line
	x1="-1.197618731988766"
	x2="-1.420858737901955"
	y1="-0.4247118584254339"
	y2="-1.0892003177308465"
	style="stroke:rgb(144,144,144);stroke-width:0.1"/><line
	x1="-0.9743787260755766"
	x2="-0.5213492966589375"
	y1="0.2397766008799787"
	y2="0.531346200343366"
	style="stroke:rgb(48,80,248);stroke-width:0.1"/><line
	x1="-0.5213492966589375"
	x2="-0.06831986724229827"
	y1="0.531346200343366"
	y2="0.8229157998067532"
	style="stroke:rgb(255,255,255);stroke-width:0.1"/><line
	x1="2.7138132516827165"
	x2="2.3403134453572294"
	y1="-4.529781552810471"
	y2="-3.8221644815068614"
	style="stroke:rgb(144,144,144);stroke-width:0.1"/><line
	x1="2.3403134453572294"
	x2="1.9668136390317428"
	y1="-3.8221644815068614"
	y2="-3.1145474102032518"
	style="stroke:rgb(144,144,144);stroke-width:0.1"/><line
	x1="2.7138132516827165"
	x2="2.4348944031044777"
	y1="-4.529781552810471"
	y2="-5.351921069080719"
	style="stroke:rgb(144,144,144);stroke-width:0.1"/><line
	x1="2.4348944031044777"
	x2="2.1559755545262385"
	y1="-5.351921069080719"
	y2="-6.174060585350968"
	style="stroke:rgb(144,144,144);stroke-width:0.1"/><line
	x1="-2.4867901729745383"
	x2="-1.9538244554382467"
	y1="-1.8745772353384298"
	y2="-1.481888776534638"
	style="stroke:rgb(255,13,13);stroke-width:0.1"/><line
	x1="-1.9538244554382467"
	x2="-1.420858737901955"
	y1="-1.481888776534638"
	y2="-1.0892003177308465"
	style="stroke:rgb(144,144,144);stroke-width:0.1"/><line
	x1="2.403802600763361"
	x2="2.185308119897552"
	y1="-1.983807929149713"
	y2="-2.5491776696764825"
	style="stroke:rgb(255,255,255);stroke-width:0.1"/><line
	x1="2.185308119897552"
	x2="1.9668136390317428"
	y1="-2.5491776696764825"
	y2="-3.1145474102032518"
	style="stroke:rgb(144,144,144);stroke-width:0.1"/><line
	x1="2.1559755545262385"
	x2="1.4276719624268466"
	y1="-6.174060585350968"
	y2="-6.319665500432841"
	style="stroke:rgb(144,144,144);stroke-width:0.1"/><line
	x1="1.4276719624268466"
	x2="0.6993683703274547"
	y1="-6.319665500432841"
	y2="-6.465270415514713"
	style="stroke:rgb(144,144,144);stroke-width:0.1"/><line
	x1="-1.420858737901955"
	x2="-0.8740812409468529"
	y1="-1.0892003177308465"
	y2="-1.3255202974414755"
	style="stroke:rgb(144,144,144);stroke-width:0.1"/><line
	x1="-0.8740812409468529"
	x2="-0.3273037439917507"
	y1="-1.3255202974414755"
	y2="-1.5618402771521047"
	style="stroke:rgb(144,144,144);stroke-width:0.1"/><line
	x1="1.9668136390317428"
	x2="1.265982698500412"
	y1="-3.1145474102032518"
	y2="-3.167031415003411"
	style="stroke:rgb(144,144,144);stroke-width:0.1"/><line
	x1="1.265982698500412"
	x2="0.5651517579690808"
	y1="-3.167031415003411"
	y2="-3.2195154198035705"
	style="stroke:rgb(144,144,144);stroke-width:0.1"/><line
	x1="0.12953845418991472"
	x2="0.4144534122586847"
	y1="-7.970514557140226"
	y2="-7.21789248632747"
	style="stroke:rgb(255,255,255);stroke-width:0.1"/><line
	x1="0.4144534122586847"
	x2="0.6993683703274547"
	y1="-7.21789248632747"
	y2="-6.465270415514713"
	style="stroke:rgb(144,144,144);stroke-width:0.1"/><line
	x1="0.6993683703274547"
	x2="0.269672452829708"
	y1="-6.465270415514713"
	y2="-5.684546369284202"
	style="stroke:rgb(144,144,144);stroke-width:0.1"/><line
	x1="0.269672452829708"
	x2="-0.1600234646680387"
	y1="-5.684546369284202"
	y2="-4.903822323053691"
	style="stroke:rgb(144,144,144);stroke-width:0.1"/><line
	x1="0.5651517579690808"
	x2="0.11892400698866504"
	y1="-3.2195154198035705"
	y2="-2.3906778484778375"
	style="stroke:rgb(144,144,144);stroke-width:0.1"/><line
	x1="0.11892400698866504"
	x2="-0.3273037439917507"
	y1="-2.3906778484778375"
	y2="-1.5618402771521047"
	style="stroke:rgb(144,144,144);stroke-width:0.1"/><line
	x1="0.5651517579690808"
	x2="0.20256414665052103"
	y1="-3.2195154198035705"
	y2="-4.061668871428631"
	style="stroke:rgb(144,144,144);stroke-width:0.1"/><line
	x1="0.20256414665052103"
	x2="-0.1600234646680387"
	y1="-4.061668871428631"
	y2="-4.903822323053691"
	style="stroke:rgb(144,144,144);stroke-width:0.1"/><line
	x1="-0.1600234646680387"
	x2="-0.8270920530165973"
	y1="-4.903822323053691"
	y2="-4.998637819956441"
	style="stroke:rgb(144,144,144);stroke-width:0.1"/><line
	x1="-0.8270920530165973"
	x2="-1.4941606413651558"
	y1="-4.998637819956441"
	y2="-5.093453316859192"
	style="stroke:rgb(255,255,255);stroke-width:0.1"/><line
	x1="-0.3273037439917507"
	x2="-0.7445580247288787"
	y1="-1.5618402771521047"
	y2="-1.6133116756579866"
	style="stroke:rgb(144,144,144);stroke-width:0.1"/><line
	x1="-0.7445580247288787"
	x2="-1.1618123054660066"
	y1="-1.6133116756579866"
	y2="-1.6647830741638685"
	style="stroke:rgb(255,255,255);stroke-width:0.1"/><line
	x1="-0.3273037439917507"
	x2="0.15240929428743363"
	y1="-1.5618402771521047"
	y2="-1.0527160227945378"
	style="stroke:rgb(144,144,144);stroke-width:0.1"/><line
	x1="0.15240929428743363"
	x2="0.632122332566618"
	y1="-1.0527160227945378"
	y2="-0.5435917684369709"
	style="stroke:rgb(255,255,255);stroke-width:0.1"/>
</svg>
