<?xml version="1.0" encoding="UTF-8"?>
<svg
	id="Layer_1"
	xmlns="http://www.w3.org/2000/svg"
	viewBox="-14.0 -14.0 28.0 28.0"
>
<defs>
<style>
</style>
</defs><line
	x1="4.4876615743286115"
	x2="4.124114104209669"
	y1="-0.7385855602465003"
	y2="-0.6392175806030038"
	style="stroke:rgb(255,255,255);stroke-width:0.1"/><line
	x1="4.124114104209669"
	x2="3.7605666340907273"
	y1="-0.6392175806030038"
	y2="-0.5398496009595074"
	style="stroke:rgb(255,13,13);stroke-width:0.1"/><line
	x1="2.2873826116046163"
	x2="1.9924625796714899"
	y1="1.008569049342685"
	y2="1.0736212456338388"
	style="stroke:rgb(255,255,255);stroke-width:0.1"/><line
	x1="1.9924625796714899"
	x2="1.6975425477383634"
	y1="1.0736212456338388"
	y2="1.1386734419249926"
	style="stroke:rgb(144,144,144);stroke-width:0.1"/><line
	x1="3.7605666340907273"
	x2="3.7251302998254987"
	y1="-0.5398496009595074"
	y2="-0.7167272822974029"
	style="stroke:rgb(255,13,13);stroke-width:0.1"/><line
	x1="3.7251302998254987"
	x2="3.6896939655602705"
	y1="-0.7167272822974029"
	y2="-0.8936049636352985"
	style="stroke:rgb(144,144,144);stroke-width:0.1"/><line
	x1="0.9789363579265252"
	x2="1.3382394528324444"
	y1="0.650474936503747"
	y2="0.8945741892143698"
	style="stroke:rgb(255,255,255);stroke-width:0.1"/><line
	x1="1.3382394528324444"
	x2="1.6975425477383634"
	y1="0.8945741892143698"
	y2="1.1386734419249926"
	style="stroke:rgb(144,144,144);stroke-width:0.1"/><line
	x1="1.4613754465771693"
	x2="1.5794589971577664"
	y1="2.0110461759290637"
	y2="1.574859808927028"
	style="stroke:rgb(255,255,255);stroke-width:0.1"/><line
	x1="1.5794589971577664"
	x2="1.6975425477383634"
	y1="1.574859808927028"
	y2="1.1386734419249926"
	style="stroke:rgb(144,144,144);stroke-width:0.1"/><line
	x1="1.6975425477383634"
	x2="1.9523067146670874"
	y1="1.1386734419249926"
	y2="0.9766053341857375"
	style="stroke:rgb(144,144,144);stroke-width:0.1"/><line
	x1="1.9523067146670874"
	x2="2.2070708815958113"
	y1="0.9766053341857375"
	y2="0.8145372264464822"
	style="stroke:rgb(144,144,144);stroke-width:0.1"/><line
	x1="1.822406593198676"
	x2="2.1397663998255805"
	y1="-0.9827178405090231"
	y2="-0.7666566420942771"
	style="stroke:rgb(255,255,255);stroke-width:0.1"/><line
	x1="2.1397663998255805"
	x2="2.4571262064524846"
	y1="-0.7666566420942771"
	y2="-0.550595443679531"
	style="stroke:rgb(144,144,144);stroke-width:0.1"/><line
	x1="3.984096141581427"
	x2="3.6693715843712686"
	y1="1.5516234506922348"
	y2="1.59905276485292"
	style="stroke:rgb(255,255,255);stroke-width:0.1"/><line
	x1="3.6693715843712686"
	x2="3.35464702716111"
	y1="1.59905276485292"
	y2="1.646482079013605"
	style="stroke:rgb(144,144,144);stroke-width:0.1"/><line
	x1="3.6896939655602705"
	x2="4.1205733247876575"
	y1="-0.8936049636352985"
	y2="-1.1821370190089282"
	style="stroke:rgb(144,144,144);stroke-width:0.1"/><line
	x1="4.1205733247876575"
	x2="4.551452684015045"
	y1="-1.1821370190089282"
	y2="-1.470669074382558"
	style="stroke:rgb(255,13,13);stroke-width:0.1"/><line
	x1="3.6896939655602705"
	x2="3.0734100860063776"
	y1="-0.8936049636352985"
	y2="-0.7221002036574147"
	style="stroke:rgb(144,144,144);stroke-width:0.1"/><line
	x1="3.0734100860063776"
	x2="2.4571262064524846"
	y1="-0.7221002036574147"
	y2="-0.550595443679531"
	style="stroke:rgb(144,144,144);stroke-width:0.1"/><line
	x1="2.4571262064524846"
	x2="2.3778655424922057"
	y1="-0.550595443679531"
	y2="-0.8182762758127191"
	style="stroke:rgb(144,144,144);stroke-width:0.1"/><line
	x1="2.3778655424922057"
	x2="2.298604878531927"
	y1="-0.8182762758127191"
	y2="-1.0859571079459072"
	style="stroke:rgb(48,80,248);stroke-width:0.1"/><line
	x1="2.4571262064524846"
	x2="2.3320985440241477"
	y1="-0.550595443679531"
	y2="0.13197089138347562"
	style="stroke:rgb(144,144,144);stroke-width:0.1"/><line
	x1="2.3320985440241477"
	x2="2.2070708815958113"
	y1="0.13197089138347562"
	y2="0.8145372264464822"
	style="stroke:rgb(144,144,144);stroke-width:0.1"/><line
	x1="2.2070708815958113"
	x2="1.5888047291170606"
	y1="0.8145372264464822"
	y2="0.9437318962736991"
	style="stroke:rgb(144,144,144);stroke-width:0.1"/><line
	x1="1.5888047291170606"
	x2="0.9705385766383099"
	y1="0.9437318962736991"
	y2="1.0729265661009162"
	style="stroke:rgb(255,255,48);stroke-width:0.1"/><line
	x1="2.2070708815958113"
	x2="2.780858954378461"
	y1="0.8145372264464822"
	y2="1.2305096527300436"
	style="stroke:rgb(144,144,144);stroke-width:0.1"/><line
	x1="2.780858954378461"
	x2="3.35464702716111"
	y1="1.2305096527300436"
	y2="1.646482079013605"
	style="stroke:rgb(144,144,144);stroke-width:0.1"/><line
	x1="3.096725855407063"
	x2="3.2256864412840867"
	y1="2.640789328249114"
	y2="2.1436357036313596"
	style="stroke:rgb(255,255,255);stroke-width:0.1"/><line
	x1="3.2256864412840867"
	x2="3.35464702716111"
	y1="2.1436357036313596"
	y2="1.646482079013605"
	style="stroke:rgb(144,144,144);stroke-width:0.1"/><line
	x1="3.35464702716111"
	x2="3.641531501017972"
	y1="1.646482079013605"
	y2="1.5382287549284577"
	style="stroke:rgb(144,144,144);stroke-width:0.1"/><line
	x1="3.641531501017972"
	x2="3.928415974874834"
	y1="1.5382287549284577"
	y2="1.4299754308433104"
	style="stroke:rgb(255,255,255);stroke-width:0.1"/><line
	x1="-3.792679737778109"
	x2="-3.983401206891977"
	y1="3.4347834332794176"
	y2="3.125663984422834"
	style="stroke:rgb(255,255,255);stroke-width:0.1"/><line
	x1="-3.983401206891977"
	x2="-4.174122676005845"
	y1="3.125663984422834"
	y2="2.816544535566251"
	style="stroke:rgb(144,144,144);stroke-width:0.1"/><line
	x1="-2.709256039420952"
	x2="-3.1162826246781616"
	y1="1.2730569885260419"
	y2="1.400677082877516"
	style="stroke:rgb(255,255,255);stroke-width:0.1"/><line
	x1="-3.1162826246781616"
	x2="-3.523309209935371"
	y1="1.400677082877516"
	y2="1.52829717722899"
	style="stroke:rgb(144,144,144);stroke-width:0.1"/><line
	x1="1.3996806659155285"
	x2="1.463337576886973"
	y1="-3.150014968622179"
	y2="-2.6627857223749265"
	style="stroke:rgb(255,13,13);stroke-width:0.1"/><line
	x1="1.463337576886973"
	x2="1.5269944878584172"
	y1="-2.6627857223749265"
	y2="-2.175556476127674"
	style="stroke:rgb(144,144,144);stroke-width:0.1"/><line
	x1="-4.174122676005845"
	x2="-3.8487159429706077"
	y1="2.816544535566251"
	y2="2.17242085639762"
	style="stroke:rgb(144,144,144);stroke-width:0.1"/><line
	x1="-3.8487159429706077"
	x2="-3.523309209935371"
	y1="2.17242085639762"
	y2="1.52829717722899"
	style="stroke:rgb(144,144,144);stroke-width:0.1"/><line
	x1="-4.174122676005845"
	x2="-4.811701689055393"
	y1="2.816544535566251"
	y2="3.070939306711865"
	style="stroke:rgb(144,144,144);stroke-width:0.1"/><line
	x1="-4.811701689055393"
	x2="-5.449280702104941"
	y1="3.070939306711865"
	y2="3.3253340778574785"
	style="stroke:rgb(144,144,144);stroke-width:0.1"/><line
	x1="-2.983540909072841"
	x2="-3.135872592838396"
	y1="-1.0462228306850958"
	y2="-0.9615243511655538"
	style="stroke:rgb(255,255,255);stroke-width:0.1"/><line
	x1="-3.135872592838396"
	x2="-3.2882042766039508"
	y1="-0.9615243511655538"
	y2="-0.8768258716460119"
	style="stroke:rgb(144,144,144);stroke-width:0.1"/><line
	x1="0.9705385766383099"
	x2="1.3452009371553137"
	y1="1.0729265661009162"
	y2="0.4278278615247349"
	style="stroke:rgb(255,255,48);stroke-width:0.1"/><line
	x1="1.3452009371553137"
	x2="1.7198632976723176"
	y1="0.4278278615247349"
	y2="-0.21727084305144642"
	style="stroke:rgb(144,144,144);stroke-width:0.1"/><line
	x1="2.298604878531927"
	x2="2.0092340881021222"
	y1="-1.0859571079459072"
	y2="-0.6516139754986768"
	style="stroke:rgb(48,80,248);stroke-width:0.1"/><line
	x1="2.0092340881021222"
	x2="1.7198632976723176"
	y1="-0.6516139754986768"
	y2="-0.21727084305144642"
	style="stroke:rgb(144,144,144);stroke-width:0.1"/><line
	x1="2.298604878531927"
	x2="1.9127996831951721"
	y1="-1.0859571079459072"
	y2="-1.6307567920367907"
	style="stroke:rgb(48,80,248);stroke-width:0.1"/><line
	x1="1.9127996831951721"
	x2="1.5269944878584172"
	y1="-1.6307567920367907"
	y2="-2.175556476127674"
	style="stroke:rgb(144,144,144);stroke-width:0.1"/><line
	x1="-0.9469482185521492"
	x2="-0.8495783006774528"
	y1="-1.2793515219084715"
	y2="-1.275636127743418"
	style="stroke:rgb(255,255,255);stroke-width:0.1"/><line
	x1="-0.8495783006774528"
	x2="-0.7522083828027564"
	y1="-1.275636127743418"
	y2="-1.2719207335783649"
	style="stroke:rgb(48,80,248);stroke-width:0.1"/><line
	x1="-3.523309209935371"
	x2="-3.7762693591174123"
	y1="1.52829717722899"
	y2="1.0462909300120673"
	style="stroke:rgb(144,144,144);stroke-width:0.1"/><line
	x1="-3.7762693591174123"
	x2="-4.029229508299453"
	y1="1.0462909300120673"
	y2="0.5642846827951445"
	style="stroke:rgb(144,144,144);stroke-width:0.1"/><line
	x1="1.5269944878584172"
	x2="1.1331830968034937"
	y1="-2.175556476127674"
	y2="-1.8244442584773146"
	style="stroke:rgb(144,144,144);stroke-width:0.1"/><line
	x1="1.1331830968034937"
	x2="0.7393717057485703"
	y1="-1.8244442584773146"
	y2="-1.4733320408269552"
	style="stroke:rgb(144,144,144);stroke-width:0.1"/><line
	x1="-6.024523656484709"
	x2="-5.736902179294825"
	y1="4.444658708243693"
	y2="3.8849963930505855"
	style="stroke:rgb(255,255,255);stroke-width:0.1"/><line
	x1="-5.736902179294825"
	x2="-5.449280702104941"
	y1="3.8849963930505855"
	y2="3.3253340778574785"
	style="stroke:rgb(144,144,144);stroke-width:0.1"/><line
	x1="-5.449280702104941"
	x2="-5.802291574855751"
	y1="3.3253340778574785"
	y2="2.8554989062630174"
	style="stroke:rgb(144,144,144);stroke-width:0.1"/><line
	x1="-5.802291574855751"
	x2="-6.1553024476065605"
	y1="2.8554989062630174"
	y2="2.3856637346685563"
	style="stroke:rgb(144,144,144);stroke-width:0.1"/><line
	x1="-3.2882042766039508"
	x2="-2.615213734012802"
	y1="-0.8768258716460119"
	y2="-0.9594105040382854"
	style="stroke:rgb(144,144,144);stroke-width:0.1"/><line
	x1="-2.615213734012802"
	x2="-1.9422231914216528"
	y1="-0.9594105040382854"
	y2="-1.041995136430559"
	style="stroke:rgb(144,144,144);stroke-width:0.1"/><line
	x1="-3.2882042766039508"
	x2="-3.658716892451702"
	y1="-0.8768258716460119"
	y2="-0.15627059442543367"
	style="stroke:rgb(144,144,144);stroke-width:0.1"/><line
	x1="-3.658716892451702"
	x2="-4.029229508299453"
	y1="-0.15627059442543367"
	y2="0.5642846827951445"
	style="stroke:rgb(144,144,144);stroke-width:0.1"/><line
	x1="-3.2882042766039508"
	x2="-3.693928718828415"
	y1="-0.8768258716460119"
	y2="-1.3218104021462582"
	style="stroke:rgb(144,144,144);stroke-width:0.1"/><line
	x1="-3.693928718828415"
	x2="-4.0996531610528795"
	y1="-1.3218104021462582"
	y2="-1.7667949326465044"
	style="stroke:rgb(255,255,255);stroke-width:0.1"/><line
	x1="-4.029229508299453"
	x2="-4.6978175805016145"
	y1="0.5642846827951445"
	y2="0.7236628966092659"
	style="stroke:rgb(144,144,144);stroke-width:0.1"/><line
	x1="-4.6978175805016145"
	x2="-5.366405652703776"
	y1="0.7236628966092659"
	y2="0.8830411104233872"
	style="stroke:rgb(144,144,144);stroke-width:0.1"/><line
	x1="-0.7522083828027564"
	x2="-0.006418338527093059"
	y1="-1.2719207335783649"
	y2="-1.37262638720266"
	style="stroke:rgb(48,80,248);stroke-width:0.1"/><line
	x1="-0.006418338527093059"
	x2="0.7393717057485703"
	y1="-1.37262638720266"
	y2="-1.4733320408269552"
	style="stroke:rgb(144,144,144);stroke-width:0.1"/><line
	x1="-0.7522083828027564"
	x2="-1.3472157871122046"
	y1="-1.2719207335783649"
	y2="-1.156957935004462"
	style="stroke:rgb(48,80,248);stroke-width:0.1"/><line
	x1="-1.3472157871122046"
	x2="-1.9422231914216528"
	y1="-1.156957935004462"
	y2="-1.041995136430559"
	style="stroke:rgb(144,144,144);stroke-width:0.1"/><line
	x1="1.7198632976723176"
	x2="1.229617501710444"
	y1="-0.21727084305144642"
	y2="-0.8453014419392009"
	style="stroke:rgb(144,144,144);stroke-width:0.1"/><line
	x1="1.229617501710444"
	x2="0.7393717057485703"
	y1="-0.8453014419392009"
	y2="-1.4733320408269552"
	style="stroke:rgb(144,144,144);stroke-width:0.1"/><line
	x1="1.7198632976723176"
	x2="2.129243441643464"
	y1="-0.21727084305144642"
	y2="-0.03565477801530008"
	style="stroke:rgb(144,144,144);stroke-width:0.1"/><line
	x1="2.129243441643464"
	x2="2.5386235856146095"
	y1="-0.03565477801530008"
	y2="0.14596128702084626"
	style="stroke:rgb(255,255,255);stroke-width:0.1"/><line
	x1="0.7393717057485703"
	x2="0.8319428629158727"
	y1="-1.4733320408269552"
	y2="-1.7657432081167739"
	style="stroke:rgb(144,144,144);stroke-width:0.1"/><line
	x1="0.8319428629158727"
	x2="0.9245140200831752"
	y1="-1.7657432081167739"
	y2="-2.0581543754065925"
	style="stroke:rgb(255,255,255);stroke-width:0.1"/><line
	x1="-6.1553024476065605"
	x2="-5.760854050155168"
	y1="2.3856637346685563"
	y2="1.6343524225459718"
	style="stroke:rgb(144,144,144);stroke-width:0.1"/><line
	x1="-5.760854050155168"
	x2="-5.366405652703776"
	y1="1.6343524225459718"
	y2="0.8830411104233872"
	style="stroke:rgb(144,144,144);stroke-width:0.1"/><line
	x1="-6.1553024476065605"
	x2="-6.810986309728387"
	y1="2.3856637346685563"
	y2="2.5995602825597324"
	style="stroke:rgb(144,144,144);stroke-width:0.1"/><line
	x1="-6.810986309728387"
	x2="-7.466670171850212"
	y1="2.5995602825597324"
	y2="2.813456830450908"
	style="stroke:rgb(255,255,255);stroke-width:0.1"/><line
	x1="-5.366405652703776"
	x2="-5.657567579340797"
	y1="0.8830411104233872"
	y2="0.4236709105793545"
	style="stroke:rgb(144,144,144);stroke-width:0.1"/><line
	x1="-5.657567579340797"
	x2="-5.948729505977818"
	y1="0.4236709105793545"
	y2="-0.035699289264678184"
	style="stroke:rgb(255,255,255);stroke-width:0.1"/><line
	x1="-1.9422231914216528"
	x2="-1.932814303340901"
	y1="-1.041995136430559"
	y2="-1.0026380117500493"
	style="stroke:rgb(144,144,144);stroke-width:0.1"/><line
	x1="-1.932814303340901"
	x2="-1.9234054152601494"
	y1="-1.0026380117500493"
	y2="-0.9632808870695394"
	style="stroke:rgb(255,13,13);stroke-width:0.1"/>
</svg>
