<?xml version="1.0" encoding="utf-8" ?>
<svg baseProfile="full" height="512" version="1.1" viewBox="-0.5 -0.5 1.0 1.0" width="1024" xmlns="http://www.w3.org/2000/svg" xmlns:ev="http://www.w3.org/2001/xml-events" xmlns:xlink="http://www.w3.org/1999/xlink"><defs><clipPath id="id2"><rect height="1.0" width="2" x="-1.0" y="-0.5" /></clipPath></defs><g clip-path="url(#id2)"><polygon fill="#7f7fff" fill-opacity="1.0" points="-0.50463,0.38298 -0.74293,-0.08488 -0.20609,-0.08488" stroke="black" stroke-dasharray="0.01" stroke-linejoin="round" stroke-width="0.002" /><polygon fill="#7f7fff" fill-opacity="1.0" points="-0.56905,-0.43188 -0.20609,-0.08488 -0.74293,-0.08488" stroke="black" stroke-dasharray="0.01" stroke-linejoin="round" stroke-width="0.002" /><polygon fill="#7f7fff" fill-opacity="1.0" points="-0.50463,0.38298 -0.20609,-0.08488 -0.2662,0.10964" stroke="black" stroke-dasharray="0.01" stroke-linejoin="round" stroke-width="0.002" /><polygon fill="#7f7fff" fill-opacity="1.0" points="-0.50463,0.38298 -0.95963,0.10964 -0.74293,-0.08488" stroke="black" stroke-dasharray="0.01" stroke-linejoin="round" stroke-width="0.002" /><polygon fill="#7f7fff" fill-opacity="1.0" points="-0.56905,-0.43188 -0.74293,-0.08488 -0.95963,0.10964" stroke="black" stroke-dasharray="0.01" stroke-linejoin="round" stroke-width="0.002" /></g><g clip-path="url(#id2)"><polygon fill="#7fff7f" fill-opacity="0.4" points="-0.56905,-0.43188 -0.2662,0.10964 -0.20609,-0.08488" stroke="black" stroke-linejoin="round" stroke-width="0.003" /><polygon fill="#7fff7f" fill-opacity="0.4" points="-0.50463,0.38298 -0.2662,0.10964 -0.95963,0.10964" stroke="black" stroke-linejoin="round" stroke-width="0.003" /><polygon fill="#7fff7f" fill-opacity="0.4" points="-0.56905,-0.43188 -0.95963,0.10964 -0.2662,0.10964" stroke="black" stroke-linejoin="round" stroke-width="0.003" /></g><g clip-path="url(#id2)"><polygon fill="#7f7fff" fill-opacity="1.0" points="0.35374,0.11826 0.37879,-0.3525 0.86601,-0.28192 0.7994,0.26023" stroke="black" stroke-dasharray="0.01" stroke-linejoin="round" stroke-width="0.002" /><polygon fill="#7f7fff" fill-opacity="1.0" points="0.02549,-0.28192 0.37879,-0.3525 0.35374,0.11826 0.02353,0.26023" stroke="black" stroke-dasharray="0.01" stroke-linejoin="round" stroke-width="0.002" /><polygon fill="#7f7fff" fill-opacity="1.0" points="0.02353,0.26023 0.35374,0.11826 0.7994,0.26023 0.4917,0.45757" stroke="black" stroke-dasharray="0.01" stroke-linejoin="round" stroke-width="0.002" /></g><g clip-path="url(#id2)"><polygon fill="#7fff7f" fill-opacity="0.4" points="0.54147,-0.18102 0.86601,-0.28192 0.37879,-0.3525 0.02549,-0.28192" stroke="black" stroke-linejoin="round" stroke-width="0.003" /><polygon fill="#7fff7f" fill-opacity="0.4" points="0.4917,0.45757 0.7994,0.26023 0.86601,-0.28192 0.54147,-0.18102" stroke="black" stroke-linejoin="round" stroke-width="0.003" /><polygon fill="#7fff7f" fill-opacity="0.4" points="0.4917,0.45757 0.54147,-0.18102 0.02549,-0.28192 0.02353,0.26023" stroke="black" stroke-linejoin="round" stroke-width="0.003" /></g></svg>