<?xml version="1.0" encoding="UTF-8"?><svg id="model" xmlns="http://www.w3.org/2000/svg" viewBox="-11.890 -11.890 23.780 23.780">
<circle class="item-2" cx="-2.344" cy="1.162" r="1.520" fill="rgb(255,0,0)" style="stroke:black;stroke-width:0.1"/>
<circle class="item-26" cx="-0.511" cy="-1.243" r="1.200" fill="rgb(255,255,255)" style="stroke:black;stroke-width:0.1"/>
<circle class="item-35" cx="3.385" cy="1.155" r="1.200" fill="rgb(255,255,255)" style="stroke:black;stroke-width:0.1"/>
<polygon class="item-5" points="0.584,-1.162 0.584,-1.352 0.592,-1.448 0.607,-1.542 0.628,-1.635 0.654,-1.727 0.687,-1.817 0.725,-1.904 0.768,-1.989 0.817,-2.071 0.870,-2.150 0.929,-2.226 0.992,-2.297 1.059,-2.365 1.131,-2.428 1.206,-2.487 1.285,-2.540 1.368,-2.589 1.453,-2.632 1.540,-2.670 1.630,-2.702 1.722,-2.729 1.815,-2.750 1.909,-2.765 2.004,-2.774 2.100,-2.777 2.195,-2.774 2.290,-2.765 2.385,-2.750 2.478,-2.729 2.569,-2.702 2.659,-2.670 2.747,-2.632 2.832,-2.589 2.914,-2.540 2.993,-2.487 3.069,-2.428 3.140,-2.365 3.208,-2.297 3.271,-2.226 3.329,-2.150 3.383,-2.071 3.432,-1.989 3.475,-1.904 3.513,-1.817 3.545,-1.727 3.572,-1.635 3.593,-1.542 3.608,-1.448 3.617,-1.352 3.620,-1.257 3.620,-1.257 3.617,-1.162 3.608,-1.067 3.593,-0.972 3.572,-0.879 3.545,-0.787 3.513,-0.698 3.475,-0.610 3.432,-0.525 3.383,-0.443 3.329,-0.364 3.271,-0.288 3.208,-0.217 3.140,-0.149 3.069,-0.086 2.993,-0.027 2.914,0.026 2.832,0.075 2.747,0.118 2.659,0.156 2.569,0.188 2.478,0.215 2.385,0.236 2.290,0.251 2.195,0.260 2.100,0.263 2.004,0.260 1.909,0.251 1.815,0.236 1.722,0.215 1.630,0.188 1.540,0.156 1.453,0.118 1.368,0.075 1.285,0.026 1.206,-0.027 1.131,-0.086 1.059,-0.149 0.992,-0.217 0.929,-0.288 0.870,-0.364 0.817,-0.443 0.768,-0.525 0.725,-0.610 0.687,-0.698 0.654,-0.787 0.628,-0.879 0.607,-0.972 0.592,-1.067" fill="rgb(255,0,0)" style="stroke:black;stroke-width:0.1"/>
<polygon class="item-12" points="-3.678,0.260 -3.675,0.154 -3.665,0.047 -3.648,-0.058 -3.625,-0.162 -3.595,-0.265 -3.559,-0.365 -3.516,-0.463 -3.468,-0.559 -3.413,-0.650 -3.353,-0.739 -3.288,-0.823 -3.217,-0.903 -3.142,-0.979 -3.062,-1.049 -2.977,-1.115 -2.889,-1.175 -2.797,-1.229 -2.702,-1.278 -2.604,-1.320 -2.503,-1.356 -2.401,-1.386 -2.297,-1.409 -2.191,-1.426 -2.085,-1.436 -1.978,-1.439 -1.871,-1.436 -1.765,-1.426 -1.660,-1.409 -1.555,-1.386 -1.454,-1.351 -1.359,-1.304 -1.270,-1.245 -1.182,-1.187 -1.015,-1.065 -0.867,-0.923 -0.795,-0.851 -0.653,-0.703 -0.583,-0.625 -0.520,-0.541 -0.463,-0.452 -0.407,-0.362 -0.363,-0.264 -0.332,-0.162 -0.308,-0.058 -0.292,0.047 -0.282,0.154 -0.278,0.260 -0.278,0.260 -0.282,0.367 -0.292,0.473 -0.308,0.579 -0.332,0.683 -0.362,0.786 -0.398,0.886 -0.440,0.984 -0.489,1.079 -0.543,1.171 -0.603,1.259 -0.668,1.344 -0.739,1.424 -0.815,1.499 -0.895,1.570 -0.979,1.636 -1.067,1.696 -1.160,1.748 -1.257,1.794 -1.359,1.825 -1.464,1.843 -1.567,1.861 -1.671,1.870 -1.775,1.871 -1.877,1.864 -1.978,1.848 -2.175,1.816 -2.456,1.731 -2.547,1.698 -2.637,1.660 -2.900,1.529 -3.065,1.418 -3.149,1.360 -3.373,1.146 -3.436,1.062 -3.493,0.973 -3.549,0.882 -3.593,0.785 -3.625,0.683 -3.648,0.579 -3.665,0.473 -3.675,0.367" fill="rgb(48,48,48)" style="stroke:black;stroke-width:0.1"/>
<polygon class="item-11" points="-2.122,-1.335 -2.109,-1.450 -2.049,-1.538 -1.984,-1.623 -1.913,-1.703 -1.838,-1.778 -1.758,-1.849 -1.673,-1.914 -1.585,-1.975 -1.493,-2.029 -1.398,-2.077 -1.300,-2.120 -1.199,-2.156 -1.097,-2.186 -0.993,-2.209 -0.887,-2.226 -0.781,-2.236 -0.674,-2.239 -0.567,-2.236 -0.461,-2.226 -0.356,-2.209 -0.252,-2.186 -0.149,-2.156 -0.048,-2.120 0.050,-2.077 0.145,-2.029 0.237,-1.975 0.325,-1.914 0.409,-1.849 0.489,-1.778 0.565,-1.703 0.635,-1.623 0.697,-1.535 0.739,-1.436 0.849,-1.143 0.951,-0.745 0.990,-0.539 1.007,-0.327 0.995,-0.221 0.972,-0.117 0.942,-0.014 0.906,0.086 0.864,0.184 0.815,0.280 0.761,0.371 0.701,0.460 0.635,0.544 0.565,0.624 0.489,0.700 0.409,0.770 0.325,0.836 0.237,0.896 0.145,0.950 0.050,0.999 -0.048,1.041 -0.149,1.077 -0.252,1.107 -0.356,1.130 -0.461,1.147 -0.568,1.152 -0.674,1.067 -0.852,0.865 -1.049,0.613 -1.237,0.348 -1.571,-0.184 -1.664,-0.350 -1.767,-0.539 -1.805,-0.611 -1.991,-0.967 -2.043,-1.081" fill="rgb(48,48,48)" style="stroke:black;stroke-width:0.1"/>
<polygon class="item-16" points="0.392,0.759 0.444,0.399 0.528,-0.143 0.619,-0.705 0.703,-1.185 0.746,-1.433 0.842,-1.479 0.952,-1.499 1.058,-1.517 1.164,-1.521 1.367,-1.517 1.461,-1.514 1.728,-1.493 1.896,-1.460 2.375,-1.337 2.538,-1.285 2.782,-1.174 2.866,-1.132 3.045,-1.038 3.137,-0.983 3.221,-0.917 3.308,-0.846 3.378,-0.762 3.430,-0.668 3.459,-0.565 3.483,-0.461 3.499,-0.356 3.509,-0.249 3.513,-0.143 3.513,-0.143 3.509,-0.036 3.499,0.070 3.478,0.175 3.443,0.276 3.395,0.371 3.236,0.639 3.113,0.802 3.051,0.881 2.984,0.957 2.848,1.108 2.698,1.252 2.615,1.315 2.529,1.380 2.437,1.433 2.338,1.474 2.236,1.504 2.131,1.527 2.026,1.544 1.920,1.554 1.813,1.557 1.706,1.554 1.600,1.544 1.494,1.527 1.390,1.504 1.288,1.474 1.187,1.438 1.089,1.395 0.994,1.347 0.902,1.292 0.814,1.232 0.729,1.167 0.649,1.096 0.574,1.021 0.503,0.941 0.438,0.856" fill="rgb(48,48,48)" style="stroke:black;stroke-width:0.1"/>
<circle class="item-38" cx="5.222" cy="-0.352" r="1.200" fill="rgb(255,255,255)" style="stroke:black;stroke-width:0.1"/>
<polygon class="item-7" points="-0.776,1.003 -0.749,0.888 -0.717,0.782 -0.665,0.678 -0.577,0.504 -0.450,0.297 -0.289,0.038 0.015,-0.381 0.084,-0.473 0.307,-0.754 0.508,-0.965 0.592,-1.043 0.687,-1.121 0.759,-1.021 0.870,-0.817 0.948,-0.638 1.081,-0.314 1.121,-0.210 1.208,0.020 1.224,0.064 1.382,0.581 1.399,0.650 1.481,1.102 1.504,1.232 1.510,1.365 1.490,1.484 1.419,1.551 1.338,1.606 1.254,1.655 1.168,1.699 1.078,1.738 0.987,1.771 0.893,1.798 0.798,1.820 0.702,1.835 0.605,1.844 0.508,1.847 0.410,1.844 0.313,1.835 0.217,1.820 0.122,1.798 0.029,1.771 -0.063,1.738 -0.152,1.699 -0.239,1.655 -0.323,1.606 -0.403,1.551 -0.480,1.491 -0.553,1.427 -0.622,1.358 -0.686,1.285 -0.727,1.194 -0.754,1.098" fill="rgb(0,0,255)" style="stroke:black;stroke-width:0.1"/>
<polygon class="item-17" points="1.304,1.640 1.306,1.524 1.332,1.407 1.429,1.005 1.457,0.916 1.492,0.831 1.816,0.433 1.958,0.274 2.200,0.032 2.359,-0.110 2.541,-0.258 2.608,-0.311 2.842,-0.469 3.033,-0.595 3.140,-0.644 3.253,-0.684 3.367,-0.699 3.468,-0.664 3.566,-0.622 3.661,-0.574 3.753,-0.519 3.841,-0.459 3.925,-0.394 4.006,-0.323 4.081,-0.248 4.144,-0.161 4.203,-0.073 4.309,0.109 4.357,0.203 4.442,0.396 4.483,0.495 4.512,0.597 4.528,0.703 4.538,0.809 4.542,0.916 4.542,0.916 4.538,1.023 4.528,1.129 4.512,1.234 4.488,1.339 4.459,1.441 4.422,1.542 4.380,1.640 4.332,1.735 4.277,1.827 4.217,1.915 4.152,1.999 4.081,2.080 4.006,2.155 3.925,2.226 3.841,2.291 3.753,2.351 3.661,2.406 3.566,2.454 3.468,2.496 3.367,2.533 3.265,2.562 3.160,2.586 3.055,2.602 2.949,2.612 2.842,2.616 2.735,2.612 2.629,2.602 2.523,2.586 2.419,2.562 2.317,2.533 2.216,2.496 2.118,2.454 2.023,2.406 1.931,2.351 1.843,2.291 1.758,2.226 1.678,2.155 1.603,2.080 1.532,1.999 1.467,1.915 1.407,1.827 1.352,1.735" fill="rgb(48,48,48)" style="stroke:black;stroke-width:0.1"/>
<polygon class="item-33" points="-0.824,1.236 -0.820,1.161 -0.807,1.086 -0.791,1.013 -0.762,0.944 -0.690,0.889 -0.608,0.846 -0.528,0.810 -0.440,0.787 -0.143,0.749 0.063,0.743 0.316,0.759 0.581,0.801 0.679,0.819 0.752,0.835 0.924,0.888 1.093,0.952 1.163,0.980 1.314,1.057 1.388,1.108 1.413,1.301 1.433,1.507 1.439,1.736 1.426,1.813 1.389,1.879 1.347,1.941 1.300,2.001 1.251,2.057 1.197,2.111 1.141,2.160 1.081,2.207 1.019,2.249 0.954,2.287 0.887,2.322 0.818,2.351 0.747,2.377 0.674,2.398 0.601,2.414 0.526,2.426 0.451,2.433 0.376,2.436 0.301,2.433 0.225,2.426 0.151,2.414 0.077,2.398 0.005,2.377 -0.066,2.351 -0.135,2.322 -0.202,2.287 -0.267,2.249 -0.329,2.207 -0.389,2.160 -0.445,2.111 -0.499,2.057 -0.549,2.001 -0.595,1.941 -0.637,1.879 -0.676,1.814 -0.710,1.747 -0.740,1.678 -0.765,1.607 -0.786,1.534 -0.803,1.461 -0.815,1.386 -0.822,1.311" fill="rgb(255,255,255)" style="stroke:black;stroke-width:0.1"/>
<polygon class="item-36" points="1.201,2.154 1.202,2.077 1.244,1.926 1.324,1.657 1.406,1.405 1.436,1.346 1.557,1.344 1.693,1.369 1.815,1.402 1.986,1.455 2.270,1.569 2.405,1.633 2.518,1.690 2.650,1.763 2.908,1.925 3.052,2.033 3.150,2.112 3.251,2.207 3.336,2.313 3.385,2.417 3.376,2.499 3.334,2.561 3.287,2.620 3.238,2.677 3.184,2.730 3.128,2.780 3.068,2.826 3.006,2.869 2.941,2.907 2.874,2.941 2.805,2.971 2.734,2.997 2.661,3.018 2.588,3.034 2.513,3.046 2.438,3.053 2.363,3.056 2.288,3.053 2.212,3.046 2.138,3.034 2.064,3.018 1.992,2.997 1.921,2.971 1.852,2.941 1.785,2.907 1.720,2.869 1.658,2.826 1.598,2.780 1.542,2.730 1.488,2.677 1.438,2.620 1.392,2.561 1.350,2.499 1.311,2.434 1.277,2.367 1.247,2.297 1.222,2.226" fill="rgb(255,255,255)" style="stroke:black;stroke-width:0.1"/>
<polygon class="item-6" points="-4.088,-0.342 -4.085,-0.439 -4.076,-0.536 -4.060,-0.633 -4.039,-0.728 -4.012,-0.821 -3.979,-0.913 -3.940,-1.002 -3.896,-1.089 -3.847,-1.173 -3.792,-1.253 -3.732,-1.330 -3.668,-1.403 -3.599,-1.472 -3.526,-1.536 -3.449,-1.596 -3.369,-1.651 -3.285,-1.700 -3.198,-1.744 -3.109,-1.783 -3.017,-1.816 -2.924,-1.843 -2.829,-1.864 -2.732,-1.880 -2.635,-1.889 -2.538,-1.892 -2.441,-1.889 -2.344,-1.880 -2.248,-1.864 -2.153,-1.843 -2.059,-1.816 -1.968,-1.783 -1.878,-1.744 -1.792,-1.700 -1.708,-1.651 -1.628,-1.595 -1.556,-1.529 -1.500,-1.448 -1.398,-1.286 -1.331,-1.108 -1.247,-0.853 -1.196,-0.598 -1.183,-0.513 -1.175,-0.428 -1.172,-0.342 -1.172,-0.342 -1.172,0.009 -1.178,0.100 -1.192,0.191 -1.213,0.282 -1.241,0.371 -1.288,0.451 -1.410,0.592 -1.470,0.661 -1.535,0.726 -1.604,0.786 -1.677,0.843 -1.825,0.955 -1.908,0.997 -2.076,1.079 -2.256,1.138 -2.348,1.163 -2.442,1.181 -2.538,1.192 -2.635,1.195 -2.732,1.191 -2.828,1.179 -2.924,1.159 -3.017,1.132 -3.109,1.099 -3.198,1.060 -3.285,1.016 -3.369,0.966 -3.449,0.912 -3.526,0.852 -3.599,0.788 -3.668,0.719 -3.732,0.646 -3.792,0.569 -3.847,0.488 -3.896,0.404 -3.940,0.318 -3.979,0.228 -4.012,0.137 -4.039,0.043 -4.060,-0.052 -4.076,-0.148 -4.085,-0.245" fill="rgb(0,0,255)" style="stroke:black;stroke-width:0.1"/>
<polygon class="item-4" points="-6.696,-0.636 -6.693,-0.732 -6.684,-0.827 -6.669,-0.921 -6.648,-1.014 -6.621,-1.106 -6.589,-1.196 -6.551,-1.284 -6.508,-1.369 -6.459,-1.451 -6.405,-1.530 -6.347,-1.605 -6.284,-1.677 -6.216,-1.744 -6.144,-1.807 -6.069,-1.866 -5.990,-1.920 -5.908,-1.968 -5.823,-2.012 -5.735,-2.050 -5.645,-2.082 -5.554,-2.108 -5.461,-2.129 -5.366,-2.144 -5.271,-2.153 -5.176,-2.156 -5.080,-2.153 -4.985,-2.144 -4.891,-2.129 -4.798,-2.108 -4.706,-2.082 -4.616,-2.050 -4.529,-2.012 -4.444,-1.968 -4.361,-1.920 -4.282,-1.866 -4.207,-1.807 -4.135,-1.744 -4.068,-1.677 -4.005,-1.605 -3.946,-1.530 -3.893,-1.451 -3.844,-1.369 -3.801,-1.284 -3.792,-1.184 -3.839,-0.721 -3.931,0.048 -3.959,0.248 -4.005,0.332 -4.068,0.404 -4.135,0.471 -4.207,0.535 -4.282,0.593 -4.361,0.647 -4.444,0.695 -4.529,0.739 -4.616,0.777 -4.706,0.809 -4.798,0.836 -4.891,0.856 -4.985,0.871 -5.080,0.880 -5.176,0.883 -5.271,0.880 -5.366,0.871 -5.461,0.856 -5.554,0.836 -5.645,0.809 -5.735,0.777 -5.823,0.739 -5.908,0.695 -5.990,0.647 -6.069,0.593 -6.144,0.535 -6.216,0.471 -6.284,0.404 -6.347,0.332 -6.405,0.257 -6.459,0.178 -6.508,0.096 -6.551,0.011 -6.589,-0.077 -6.621,-0.167 -6.648,-0.258 -6.669,-0.352 -6.684,-0.446 -6.693,-0.541" fill="rgb(255,0,0)" style="stroke:black;stroke-width:0.1"/>
<polygon class="item-20" points="3.326,-0.474 3.339,-0.580 3.369,-0.683 3.405,-0.783 3.448,-0.881 3.496,-0.976 3.550,-1.068 3.611,-1.157 3.676,-1.241 3.747,-1.321 3.822,-1.397 3.902,-1.467 3.987,-1.533 4.075,-1.593 4.167,-1.647 4.262,-1.695 4.360,-1.738 4.460,-1.774 4.563,-1.804 4.667,-1.827 4.773,-1.844 4.879,-1.854 4.986,-1.857 5.092,-1.854 5.199,-1.844 5.304,-1.827 5.408,-1.804 5.511,-1.774 5.611,-1.738 5.709,-1.695 5.805,-1.647 5.896,-1.593 5.985,-1.533 6.069,-1.467 6.149,-1.397 6.225,-1.321 6.295,-1.241 6.361,-1.157 6.421,-1.068 6.475,-0.976 6.524,-0.881 6.566,-0.783 6.602,-0.683 6.632,-0.580 6.655,-0.476 6.672,-0.370 6.682,-0.264 6.685,-0.157 6.685,-0.157 6.682,-0.051 6.672,0.056 6.655,0.161 6.632,0.265 6.602,0.368 6.566,0.468 6.524,0.566 6.475,0.661 6.421,0.753 6.361,0.842 6.295,0.926 6.225,1.006 6.149,1.082 6.069,1.152 5.985,1.218 5.896,1.278 5.805,1.332 5.709,1.381 5.611,1.423 5.511,1.459 5.408,1.489 5.304,1.512 5.199,1.529 5.092,1.539 4.986,1.542 4.879,1.539 4.773,1.529 4.667,1.512 4.563,1.489 4.460,1.459 4.360,1.423 4.264,1.376 4.179,1.310 4.100,1.237 4.032,1.156 3.794,0.828 3.651,0.576 3.607,0.491 3.488,0.227 3.362,-0.157 3.335,-0.366" fill="rgb(48,48,48)" style="stroke:black;stroke-width:0.1"/>
<polygon class="item-24" points="-2.777,-2.240 -2.774,-2.316 -2.767,-2.391 -2.755,-2.465 -2.739,-2.539 -2.718,-2.611 -2.692,-2.682 -2.662,-2.751 -2.628,-2.818 -2.590,-2.883 -2.547,-2.945 -2.501,-3.005 -2.451,-3.062 -2.398,-3.115 -2.342,-3.165 -2.282,-3.211 -2.220,-3.253 -2.155,-3.292 -2.088,-3.326 -2.018,-3.356 -1.948,-3.381 -1.875,-3.402 -1.802,-3.419 -1.727,-3.431 -1.652,-3.438 -1.577,-3.440 -1.501,-3.438 -1.426,-3.431 -1.352,-3.419 -1.278,-3.402 -1.206,-3.381 -1.135,-3.356 -1.066,-3.326 -0.999,-3.292 -0.934,-3.253 -0.871,-3.211 -0.812,-3.165 -0.755,-3.115 -0.702,-3.062 -0.652,-3.005 -0.606,-2.945 -0.564,-2.883 -0.525,-2.818 -0.491,-2.751 -0.461,-2.682 -0.436,-2.611 -0.415,-2.539 -0.398,-2.465 -0.386,-2.391 -0.379,-2.316 -0.377,-2.240 -0.377,-2.240 -0.379,-2.165 -0.386,-2.090 -0.398,-2.015 -0.415,-1.942 -0.436,-1.869 -0.461,-1.799 -0.492,-1.730 -0.532,-1.666 -0.579,-1.607 -0.626,-1.550 -0.678,-1.497 -0.785,-1.397 -0.903,-1.313 -1.155,-1.175 -1.223,-1.150 -1.292,-1.130 -1.364,-1.126 -1.510,-1.185 -1.814,-1.315 -2.185,-1.504 -2.470,-1.673 -2.603,-1.757 -2.669,-1.808 -2.718,-1.869 -2.739,-1.942 -2.755,-2.015 -2.767,-2.090 -2.774,-2.165" fill="rgb(255,255,255)" style="stroke:black;stroke-width:0.1"/>
<polygon class="item-8" points="-2.953,-1.682 -2.949,-1.793 -2.908,-1.892 -2.860,-1.987 -2.805,-2.079 -2.724,-2.152 -2.608,-2.192 -2.497,-2.227 -2.291,-2.281 -1.767,-2.390 -1.287,-2.485 -0.924,-2.542 -0.712,-2.567 -0.468,-2.589 -0.371,-2.543 -0.287,-2.478 -0.206,-2.407 -0.131,-2.332 -0.060,-2.252 0.005,-2.167 0.065,-2.079 0.120,-1.987 0.168,-1.892 0.210,-1.794 0.247,-1.693 0.276,-1.591 0.300,-1.487 0.316,-1.381 0.326,-1.275 0.330,-1.168 0.330,-1.168 0.325,-1.062 0.311,-0.956 0.290,-0.852 0.266,-0.748 0.230,-0.648 0.187,-0.552 0.136,-0.460 0.025,-0.283 -0.166,-0.037 -0.309,0.114 -0.473,0.245 -0.654,0.354 -0.848,0.439 -0.949,0.473 -1.052,0.500 -1.157,0.516 -1.264,0.523 -1.370,0.514 -1.472,0.452 -1.567,0.387 -1.729,0.231 -1.932,0.026 -2.199,-0.285 -2.497,-0.722 -2.632,-0.927 -2.755,-1.168 -2.889,-1.458 -2.926,-1.568" fill="rgb(48,48,48)" style="stroke:black;stroke-width:0.1"/>
<polygon class="item-18" points="2.157,0.274 2.186,0.066 2.208,-0.038 2.243,-0.137 2.285,-0.234 2.381,-0.423 2.437,-0.514 2.499,-0.600 2.569,-0.681 2.644,-0.757 2.724,-0.828 2.809,-0.893 2.897,-0.953 2.989,-1.007 3.084,-1.056 3.182,-1.098 3.283,-1.134 3.385,-1.164 3.489,-1.188 3.595,-1.204 3.701,-1.214 3.808,-1.182 3.909,-1.121 4.002,-1.052 4.160,-0.889 4.226,-0.804 4.530,-0.391 4.604,-0.266 4.866,0.210 4.932,0.340 5.118,0.819 5.177,1.024 5.216,1.256 5.213,1.374 5.182,1.480 5.118,1.566 5.047,1.646 4.971,1.721 4.891,1.792 4.807,1.857 4.719,1.917 4.627,1.972 4.532,2.020 4.434,2.063 4.333,2.099 4.231,2.129 4.126,2.152 4.021,2.169 3.915,2.179 3.808,2.182 3.701,2.179 3.595,2.169 3.489,2.152 3.385,2.129 3.283,2.097 3.186,2.053 3.091,2.005 3.001,1.949 2.916,1.887 2.837,1.819 2.686,1.677 2.557,1.517 2.451,1.343 2.400,1.256 2.354,1.166 2.314,1.074 2.280,0.979 2.213,0.786 2.197,0.686 2.169,0.482 2.159,0.378" fill="rgb(48,48,48)" style="stroke:black;stroke-width:0.1"/>
<polygon class="item-15" points="-6.389,0.089 -6.386,-0.017 -6.376,-0.124 -6.359,-0.229 -6.331,-0.332 -6.296,-0.433 -6.254,-0.530 -6.204,-0.623 -6.095,-0.802 -6.026,-0.882 -5.884,-1.032 -5.811,-1.105 -5.644,-1.224 -5.559,-1.281 -5.387,-1.393 -5.293,-1.434 -5.100,-1.511 -4.898,-1.561 -4.795,-1.581 -4.690,-1.593 -4.584,-1.597 -4.477,-1.592 -4.371,-1.580 -4.267,-1.557 -4.164,-1.527 -4.064,-1.491 -3.966,-1.449 -3.871,-1.400 -3.779,-1.346 -3.691,-1.286 -3.606,-1.220 -3.526,-1.150 -3.454,-1.071 -3.393,-0.983 -3.343,-0.889 -3.295,-0.796 -3.254,-0.700 -3.221,-0.602 -3.162,-0.407 -3.134,-0.310 -3.112,-0.212 -3.096,-0.112 -3.066,0.089 -3.064,0.295 -3.068,0.506 -3.089,0.609 -3.114,0.713 -3.152,0.813 -3.200,0.908 -3.254,1.000 -3.314,1.088 -3.380,1.173 -3.451,1.253 -3.526,1.328 -3.606,1.399 -3.691,1.465 -3.779,1.525 -3.871,1.579 -3.966,1.627 -4.064,1.670 -4.164,1.706 -4.267,1.736 -4.371,1.759 -4.477,1.776 -4.583,1.786 -4.690,1.789 -4.796,1.786 -4.903,1.776 -5.008,1.759 -5.112,1.736 -5.215,1.706 -5.315,1.670 -5.413,1.627 -5.509,1.579 -5.600,1.525 -5.689,1.465 -5.773,1.399 -5.853,1.328 -5.929,1.253 -5.999,1.173 -6.065,1.088 -6.125,1.000 -6.179,0.908 -6.228,0.813 -6.270,0.715 -6.306,0.615 -6.336,0.512 -6.359,0.408 -6.376,0.302 -6.386,0.196" fill="rgb(48,48,48)" style="stroke:black;stroke-width:0.1"/>
<polygon class="item-40" points="5.675,-1.351 5.680,-1.426 5.690,-1.502 5.719,-1.572 5.753,-1.639 5.791,-1.704 5.833,-1.766 5.880,-1.826 5.930,-1.883 5.983,-1.936 6.039,-1.986 6.099,-2.032 6.161,-2.074 6.226,-2.113 6.293,-2.147 6.362,-2.177 6.433,-2.202 6.506,-2.223 6.579,-2.240 6.654,-2.252 6.729,-2.259 6.804,-2.261 6.880,-2.259 6.955,-2.252 7.029,-2.240 7.103,-2.223 7.175,-2.202 7.246,-2.177 7.315,-2.147 7.382,-2.113 7.447,-2.074 7.509,-2.032 7.569,-1.986 7.626,-1.936 7.679,-1.883 7.729,-1.826 7.775,-1.766 7.817,-1.704 7.856,-1.639 7.890,-1.572 7.920,-1.503 7.945,-1.432 7.966,-1.360 7.983,-1.286 7.995,-1.212 8.002,-1.137 8.004,-1.061 8.004,-1.061 8.002,-0.986 7.995,-0.911 7.983,-0.836 7.966,-0.763 7.945,-0.690 7.920,-0.620 7.890,-0.550 7.856,-0.483 7.817,-0.418 7.775,-0.356 7.729,-0.296 7.679,-0.240 7.626,-0.187 7.569,-0.137 7.509,-0.091 7.447,-0.048 7.382,-0.010 7.315,0.024 7.246,0.054 7.175,0.080 7.103,0.101 7.029,0.117 6.955,0.129 6.880,0.136 6.804,0.139 6.729,0.136 6.654,0.129 6.579,0.117 6.506,0.101 6.437,0.068 6.375,0.023 6.316,-0.024 6.211,-0.127 6.047,-0.350 5.979,-0.462 5.834,-0.746 5.749,-0.995 5.729,-1.061 5.692,-1.202" fill="rgb(255,255,255)" style="stroke:black;stroke-width:0.1"/>
<polygon class="item-25" points="-4.215,1.719 -4.087,1.552 -3.988,1.421 -3.361,0.651 -3.123,0.366 -3.056,0.287 -2.916,0.309 -2.579,0.407 -2.448,0.464 -2.326,0.538 -2.200,0.617 -2.146,0.668 -2.091,0.720 -2.044,0.779 -2.005,0.843 -1.970,0.910 -1.941,0.980 -1.915,1.050 -1.894,1.123 -1.878,1.196 -1.866,1.271 -1.859,1.346 -1.856,1.421 -1.856,1.421 -1.859,1.497 -1.866,1.572 -1.878,1.646 -1.894,1.720 -1.915,1.792 -1.941,1.863 -1.970,1.932 -2.005,1.999 -2.043,2.064 -2.085,2.127 -2.132,2.186 -2.181,2.243 -2.235,2.296 -2.291,2.346 -2.351,2.392 -2.413,2.434 -2.478,2.473 -2.545,2.507 -2.614,2.537 -2.685,2.562 -2.758,2.583 -2.831,2.600 -2.906,2.612 -2.981,2.619 -3.056,2.621 -3.131,2.619 -3.207,2.612 -3.281,2.600 -3.355,2.583 -3.427,2.562 -3.498,2.537 -3.567,2.507 -3.634,2.473 -3.699,2.434 -3.761,2.392 -3.821,2.346 -3.877,2.296 -3.931,2.243 -3.981,2.186 -4.027,2.127 -4.069,2.064 -4.108,1.999 -4.142,1.932 -4.172,1.863 -4.197,1.792" fill="rgb(255,255,255)" style="stroke:black;stroke-width:0.1"/>
<polygon class="item-10" points="-4.270,1.456 -4.250,0.995 -4.184,0.467 -4.130,0.174 -4.037,-0.324 -3.894,-0.868 -3.854,-0.986 -3.804,-1.112 -3.744,-1.246 -3.650,-1.301 -3.546,-1.324 -3.440,-1.341 -3.334,-1.351 -3.227,-1.354 -3.120,-1.351 -3.014,-1.341 -2.909,-1.322 -2.807,-1.291 -2.710,-1.246 -2.619,-1.190 -2.453,-1.062 -2.376,-0.995 -2.305,-0.923 -2.169,-0.781 -1.921,-0.483 -1.808,-0.322 -1.655,-0.058 -1.576,0.137 -1.541,0.240 -1.527,0.346 -1.527,0.346 -1.531,0.453 -1.541,0.559 -1.557,0.664 -1.581,0.769 -1.611,0.871 -1.647,0.972 -1.689,1.070 -1.738,1.165 -1.792,1.257 -1.852,1.345 -1.937,1.413 -2.044,1.457 -2.256,1.520 -2.453,1.566 -2.545,1.586 -2.974,1.675 -3.058,1.688 -3.492,1.736 -3.586,1.745 -3.788,1.762 -4.009,1.768 -4.124,1.759 -4.226,1.721 -4.262,1.597" fill="rgb(48,48,48)" style="stroke:black;stroke-width:0.1"/>
<polygon class="item-22" points="4.255,-0.765 4.258,-0.869 4.269,-0.973 4.288,-1.077 4.310,-1.181 4.347,-1.281 4.392,-1.377 4.445,-1.470 4.505,-1.558 4.571,-1.643 4.641,-1.723 4.717,-1.798 4.797,-1.869 4.881,-1.934 4.970,-1.995 5.062,-2.049 5.157,-2.097 5.255,-2.140 5.355,-2.176 5.458,-2.206 5.562,-2.229 5.667,-2.246 5.774,-2.256 5.880,-2.259 5.987,-2.256 6.094,-2.246 6.199,-2.229 6.303,-2.206 6.406,-2.176 6.502,-2.130 6.663,-1.982 6.802,-1.828 6.923,-1.670 7.124,-1.348 7.213,-1.186 7.332,-0.932 7.469,-0.559 7.501,-0.457 7.520,-0.352 7.533,-0.244 7.527,-0.137 7.497,-0.034 7.461,0.066 7.418,0.164 7.370,0.260 7.316,0.351 7.256,0.440 7.190,0.524 7.120,0.604 7.044,0.680 6.964,0.750 6.880,0.816 6.791,0.876 6.699,0.930 6.604,0.979 6.506,1.021 6.406,1.057 6.303,1.087 6.199,1.110 6.094,1.127 5.987,1.137 5.880,1.140 5.774,1.137 5.667,1.127 5.562,1.110 5.458,1.085 5.358,1.048 5.261,1.005 5.168,0.956 5.091,0.877 5.020,0.797 4.895,0.632 4.726,0.396 4.590,0.150 4.548,0.068 4.512,-0.017 4.369,-0.368 4.337,-0.462 4.277,-0.660" fill="rgb(48,48,48)" style="stroke:black;stroke-width:0.1"/>
<polygon class="item-34" points="-7.575,0.621 -7.573,0.545 -7.565,0.470 -7.554,0.396 -7.537,0.322 -7.516,0.250 -7.491,0.179 -7.461,0.110 -7.426,0.043 -7.388,-0.022 -7.346,-0.084 -7.300,-0.144 -7.250,-0.201 -7.196,-0.254 -7.140,-0.304 -7.080,-0.350 -7.018,-0.392 -6.953,-0.431 -6.886,-0.465 -6.817,-0.495 -6.746,-0.520 -6.673,-0.541 -6.600,-0.558 -6.525,-0.570 -6.450,-0.577 -6.375,-0.579 -6.300,-0.577 -6.225,-0.570 -6.150,-0.558 -6.077,-0.541 -6.005,-0.517 -5.940,-0.478 -5.878,-0.434 -5.774,-0.326 -5.690,-0.208 -5.651,-0.150 -5.617,-0.091 -5.531,0.085 -5.466,0.261 -5.445,0.319 -5.428,0.378 -5.378,0.558 -5.357,0.685 -5.337,0.958 -5.349,1.104 -5.361,1.178 -5.383,1.250 -5.410,1.322 -5.451,1.386 -5.500,1.442 -5.554,1.495 -5.610,1.545 -5.670,1.591 -5.732,1.634 -5.797,1.672 -5.864,1.706 -5.933,1.736 -6.004,1.762 -6.077,1.783 -6.150,1.799 -6.225,1.811 -6.300,1.818 -6.375,1.821 -6.450,1.818 -6.525,1.811 -6.600,1.799 -6.673,1.783 -6.746,1.762 -6.817,1.736 -6.886,1.706 -6.953,1.672 -7.018,1.634 -7.080,1.591 -7.140,1.545 -7.196,1.495 -7.250,1.442 -7.300,1.386 -7.346,1.326 -7.388,1.264 -7.426,1.199 -7.461,1.132 -7.491,1.062 -7.516,0.992 -7.537,0.919 -7.554,0.846 -7.565,0.771 -7.573,0.696" fill="rgb(255,255,255)" style="stroke:black;stroke-width:0.1"/>
<polygon class="item-3" points="-6.550,1.718 -6.544,1.399 -6.486,0.912 -6.452,0.645 -6.442,0.580 -6.392,0.315 -6.314,-0.071 -6.266,-0.256 -6.236,-0.358 -6.197,-0.460 -6.144,-0.555 -6.059,-0.598 -5.971,-0.636 -5.881,-0.667 -5.789,-0.691 -5.694,-0.701 -5.598,-0.699 -5.504,-0.698 -5.322,-0.657 -5.234,-0.632 -5.149,-0.600 -4.910,-0.490 -4.766,-0.397 -4.573,-0.238 -4.511,-0.183 -4.452,-0.124 -4.397,-0.062 -4.347,0.003 -4.199,0.206 -4.166,0.283 -4.137,0.363 -4.114,0.443 -4.096,0.526 -4.082,0.609 -4.040,0.950 -4.035,1.039 -4.036,1.130 -4.050,1.316 -4.066,1.410 -4.088,1.504 -4.129,1.591 -4.182,1.670 -4.241,1.745 -4.304,1.817 -4.371,1.885 -4.443,1.948 -4.518,2.006 -4.597,2.060 -4.680,2.108 -4.765,2.152 -4.852,2.190 -4.942,2.222 -5.034,2.249 -5.127,2.270 -5.221,2.284 -5.316,2.293 -5.412,2.296 -5.507,2.293 -5.602,2.284 -5.697,2.270 -5.790,2.249 -5.881,2.222 -5.971,2.190 -6.059,2.152 -6.144,2.108 -6.226,2.060 -6.305,2.006 -6.380,1.948 -6.452,1.885 -6.520,1.817" fill="rgb(255,0,0)" style="stroke:black;stroke-width:0.1"/>
<polygon class="item-19" points="1.807,0.728 1.811,0.622 1.821,0.515 1.837,0.410 1.861,0.306 1.890,0.203 1.927,0.103 1.969,0.005 2.017,-0.091 2.072,-0.182 2.132,-0.271 2.197,-0.355 2.268,-0.435 2.343,-0.511 2.423,-0.581 2.508,-0.647 2.596,-0.707 2.688,-0.761 2.783,-0.810 2.881,-0.852 2.982,-0.888 3.084,-0.918 3.188,-0.941 3.294,-0.958 3.400,-0.968 3.507,-0.971 3.614,-0.968 3.720,-0.958 3.825,-0.941 3.930,-0.918 4.032,-0.888 4.133,-0.852 4.231,-0.810 4.326,-0.761 4.412,-0.698 4.491,-0.626 4.629,-0.466 4.690,-0.383 4.745,-0.296 4.848,-0.123 4.899,-0.037 4.944,0.052 5.035,0.232 5.146,0.521 5.196,0.728 5.203,0.835 5.193,0.941 5.177,1.047 5.153,1.151 5.124,1.254 5.087,1.354 5.045,1.452 4.997,1.547 4.942,1.639 4.882,1.727 4.817,1.812 4.746,1.892 4.671,1.967 4.590,2.038 4.506,2.104 4.418,2.164 4.326,2.218 4.231,2.266 4.133,2.309 4.032,2.345 3.930,2.375 3.825,2.398 3.720,2.415 3.614,2.425 3.507,2.428 3.400,2.425 3.294,2.415 3.188,2.398 3.084,2.375 2.982,2.345 2.881,2.309 2.783,2.266 2.688,2.218 2.596,2.164 2.508,2.104 2.423,2.038 2.343,1.967 2.268,1.892 2.197,1.812 2.132,1.727 2.072,1.639 2.017,1.547 1.969,1.452 1.927,1.354 1.890,1.254 1.861,1.151 1.837,1.047 1.821,0.941 1.811,0.835" fill="rgb(48,48,48)" style="stroke:black;stroke-width:0.1"/>
<polygon class="item-1" points="-2.630,-0.781 -2.624,-0.894 -2.605,-1.005 -2.574,-1.113 -2.535,-1.220 -2.490,-1.324 -2.439,-1.424 -2.382,-1.522 -2.318,-1.615 -2.249,-1.705 -2.174,-1.789 -2.094,-1.869 -2.009,-1.944 -1.920,-2.013 -1.826,-2.077 -1.729,-2.134 -1.628,-2.186 -1.524,-2.231 -1.418,-2.269 -1.310,-2.301 -1.199,-2.325 -1.087,-2.343 -0.975,-2.354 -0.862,-2.357 -0.749,-2.354 -0.636,-2.343 -0.525,-2.325 -0.414,-2.301 -0.306,-2.269 -0.199,-2.231 -0.096,-2.186 0.005,-2.134 0.102,-2.077 0.196,-2.013 0.285,-1.944 0.370,-1.869 0.450,-1.789 0.525,-1.705 0.594,-1.615 0.658,-1.522 0.715,-1.424 0.767,-1.324 0.811,-1.220 0.850,-1.113 0.881,-1.005 0.906,-0.895 0.924,-0.783 0.934,-0.670 0.938,-0.557 0.938,-0.557 0.934,-0.444 0.924,-0.332 0.906,-0.220 0.881,-0.110 0.850,-0.001 0.811,0.105 0.767,0.209 0.715,0.310 0.658,0.407 0.594,0.501 0.525,0.590 0.450,0.675 0.370,0.755 0.285,0.829 0.196,0.899 0.102,0.962 0.005,1.020 -0.096,1.071 -0.199,1.116 -0.306,1.154 -0.414,1.186 -0.525,1.211 -0.636,1.228 -0.749,1.239 -0.862,1.242 -0.975,1.239 -1.087,1.228 -1.199,1.211 -1.310,1.186 -1.418,1.154 -1.524,1.116 -1.628,1.071 -1.729,1.020 -1.826,0.962 -1.919,0.897 -2.002,0.821 -2.075,0.735 -2.199,0.549 -2.252,0.453 -2.353,0.262 -2.401,0.167 -2.443,0.069 -2.480,-0.032 -2.509,-0.134 -2.567,-0.342 -2.593,-0.448 -2.611,-0.557 -2.620,-0.668" fill="rgb(255,255,0)" style="stroke:black;stroke-width:0.1"/>
<polygon class="item-37" points="1.384,1.227 1.387,1.152 1.394,1.077 1.406,1.002 1.422,0.929 1.443,0.856 1.469,0.785 1.499,0.716 1.533,0.649 1.571,0.584 1.614,0.522 1.660,0.462 1.710,0.406 1.763,0.353 1.819,0.303 1.879,0.256 1.948,0.224 2.051,0.257 2.168,0.343 2.279,0.457 2.364,0.551 2.431,0.630 2.584,0.853 2.750,1.136 2.756,1.146 2.810,1.256 2.836,1.309 2.960,1.580 3.018,1.751 3.055,1.874 3.096,2.033 3.102,2.169 3.084,2.290 3.026,2.343 2.955,2.368 2.883,2.389 2.809,2.406 2.735,2.418 2.660,2.425 2.584,2.427 2.509,2.425 2.434,2.418 2.359,2.406 2.286,2.389 2.213,2.368 2.143,2.343 2.073,2.313 2.006,2.279 1.941,2.240 1.879,2.198 1.819,2.152 1.763,2.102 1.710,2.049 1.660,1.992 1.614,1.932 1.571,1.870 1.533,1.805 1.499,1.738 1.469,1.669 1.443,1.598 1.422,1.526 1.406,1.452 1.394,1.378 1.387,1.303" fill="rgb(255,255,255)" style="stroke:black;stroke-width:0.1"/>
<polygon class="item-27" points="-4.525,-2.229 -4.523,-2.304 -4.516,-2.379 -4.504,-2.453 -4.488,-2.527 -4.467,-2.599 -4.441,-2.670 -4.411,-2.739 -4.377,-2.807 -4.339,-2.871 -4.296,-2.934 -4.250,-2.993 -4.200,-3.050 -4.147,-3.103 -4.090,-3.153 -4.031,-3.199 -3.968,-3.242 -3.904,-3.280 -3.836,-3.314 -3.767,-3.344 -3.696,-3.370 -3.624,-3.391 -3.550,-3.407 -3.476,-3.419 -3.401,-3.426 -3.326,-3.428 -3.250,-3.426 -3.175,-3.419 -3.101,-3.407 -3.027,-3.391 -2.955,-3.370 -2.884,-3.344 -2.815,-3.314 -2.747,-3.280 -2.683,-3.242 -2.620,-3.199 -2.561,-3.153 -2.504,-3.103 -2.451,-3.050 -2.401,-2.993 -2.355,-2.934 -2.312,-2.871 -2.274,-2.807 -2.240,-2.739 -2.210,-2.670 -2.184,-2.599 -2.163,-2.527 -2.147,-2.453 -2.135,-2.379 -2.128,-2.304 -2.126,-2.229 -2.126,-2.229 -2.128,-2.153 -2.135,-2.078 -2.147,-2.004 -2.163,-1.930 -2.184,-1.858 -2.210,-1.787 -2.240,-1.718 -2.274,-1.650 -2.313,-1.586 -2.356,-1.524 -2.401,-1.464 -2.451,-1.407 -2.504,-1.354 -2.561,-1.304 -2.620,-1.258 -2.683,-1.215 -2.747,-1.177 -2.815,-1.143 -2.884,-1.113 -2.955,-1.087 -3.027,-1.066 -3.101,-1.050 -3.175,-1.038 -3.250,-1.031 -3.326,-1.029 -3.401,-1.031 -3.476,-1.038 -3.550,-1.050 -3.624,-1.066 -3.696,-1.087 -3.767,-1.113 -3.836,-1.143 -3.904,-1.177 -3.968,-1.215 -4.031,-1.258 -4.090,-1.304 -4.147,-1.354 -4.200,-1.407 -4.250,-1.464 -4.296,-1.523 -4.339,-1.586 -4.377,-1.650 -4.411,-1.718 -4.441,-1.787 -4.467,-1.858 -4.488,-1.930 -4.504,-2.004 -4.516,-2.078 -4.523,-2.153" fill="rgb(255,255,255)" style="stroke:black;stroke-width:0.1"/>
<polygon class="item-9" points="-4.322,-0.154 -4.318,-0.260 -4.308,-0.366 -4.295,-0.472 -4.273,-0.576 -4.244,-0.679 -4.207,-0.779 -4.165,-0.877 -4.117,-0.973 -4.062,-1.065 -4.002,-1.153 -3.933,-1.234 -3.738,-1.337 -3.639,-1.377 -3.361,-1.489 -3.090,-1.579 -2.724,-1.697 -2.627,-1.722 -2.313,-1.798 -2.204,-1.800 -2.102,-1.769 -2.014,-1.701 -1.943,-1.607 -1.882,-1.509 -1.744,-1.221 -1.604,-0.803 -1.566,-0.653 -1.456,-0.227 -1.425,-0.002 -1.374,0.436 -1.362,0.649 -1.389,0.870 -1.414,0.985 -1.463,1.085 -1.544,1.156 -1.628,1.221 -1.716,1.281 -1.808,1.336 -1.903,1.384 -2.001,1.427 -2.102,1.463 -2.204,1.493 -2.309,1.516 -2.414,1.533 -2.520,1.543 -2.627,1.546 -2.734,1.543 -2.840,1.533 -2.946,1.516 -3.050,1.493 -3.152,1.463 -3.253,1.427 -3.351,1.384 -3.445,1.334 -3.537,1.280 -3.625,1.220 -3.707,1.152 -3.787,1.082 -3.862,1.006 -3.933,0.926 -3.998,0.842 -4.058,0.754 -4.108,0.660 -4.150,0.563 -4.219,0.364 -4.280,0.162 -4.303,0.058 -4.313,-0.048" fill="rgb(48,48,48)" style="stroke:black;stroke-width:0.1"/>
<polygon class="item-23" points="3.944,-0.631 3.947,-0.739 3.972,-0.842 4.008,-0.943 4.051,-1.041 4.099,-1.136 4.153,-1.228 4.213,-1.316 4.279,-1.401 4.349,-1.481 4.425,-1.556 4.505,-1.627 4.589,-1.692 4.678,-1.752 4.770,-1.807 4.865,-1.855 4.963,-1.898 5.063,-1.934 5.166,-1.964 5.270,-1.987 5.376,-2.004 5.482,-2.014 5.589,-2.017 5.695,-2.014 5.802,-2.004 5.907,-1.987 6.011,-1.964 6.114,-1.934 6.214,-1.898 6.312,-1.855 6.407,-1.807 6.499,-1.752 6.588,-1.692 6.672,-1.627 6.752,-1.556 6.828,-1.481 6.898,-1.401 6.964,-1.316 7.024,-1.228 7.078,-1.136 7.127,-1.041 7.169,-0.943 7.205,-0.842 7.235,-0.740 7.258,-0.636 7.275,-0.530 7.285,-0.424 7.288,-0.317 7.288,-0.317 7.285,-0.210 7.275,-0.104 7.258,0.001 7.235,0.105 7.205,0.208 7.169,0.309 7.127,0.407 7.078,0.502 7.024,0.594 6.964,0.682 6.898,0.766 6.828,0.846 6.752,0.922 6.672,0.992 6.588,1.058 6.499,1.118 6.407,1.172 6.312,1.221 6.214,1.263 6.114,1.299 6.011,1.329 5.907,1.352 5.802,1.369 5.695,1.379 5.589,1.383 5.482,1.379 5.376,1.369 5.270,1.352 5.166,1.329 5.063,1.299 4.963,1.262 4.876,1.198 4.793,1.131 4.655,0.968 4.478,0.725 4.298,0.392 4.256,0.310 4.137,0.055 4.001,-0.317 3.963,-0.523" fill="rgb(48,48,48)" style="stroke:black;stroke-width:0.1"/>
<polygon class="item-21" points="2.776,0.121 2.779,0.017 2.790,-0.087 2.810,-0.191 2.831,-0.295 2.869,-0.395 2.914,-0.491 2.967,-0.584 3.027,-0.672 3.092,-0.757 3.163,-0.837 3.238,-0.912 3.318,-0.983 3.403,-1.048 3.491,-1.109 3.583,-1.163 3.678,-1.211 3.776,-1.254 3.877,-1.290 3.979,-1.320 4.083,-1.343 4.189,-1.360 4.295,-1.370 4.402,-1.337 4.503,-1.277 4.596,-1.208 4.754,-1.044 4.820,-0.960 4.986,-0.735 5.198,-0.421 5.323,-0.180 5.353,-0.121 5.475,0.122 5.575,0.327 5.611,0.403 5.641,0.483 5.719,0.755 5.780,0.975 5.793,1.092 5.807,1.218 5.776,1.325 5.712,1.410 5.641,1.490 5.565,1.566 5.485,1.636 5.401,1.702 5.313,1.762 5.221,1.816 5.126,1.865 5.028,1.907 4.927,1.943 4.825,1.973 4.720,1.996 4.615,2.013 4.509,2.023 4.402,2.026 4.295,2.023 4.189,2.013 4.083,1.996 3.980,1.971 3.880,1.934 3.782,1.891 3.689,1.842 3.600,1.785 3.517,1.722 3.439,1.652 3.291,1.510 3.164,1.351 3.061,1.178 3.010,1.092 2.965,1.003 2.925,0.911 2.892,0.817 2.864,0.722 2.808,0.528 2.779,0.327" fill="rgb(48,48,48)" style="stroke:black;stroke-width:0.1"/>
<polygon class="item-13" points="-4.979,-1.427 -4.976,-1.534 -4.966,-1.640 -4.949,-1.746 -4.926,-1.850 -4.896,-1.953 -4.860,-2.053 -4.817,-2.151 -4.769,-2.246 -4.715,-2.338 -4.654,-2.427 -4.589,-2.511 -4.518,-2.591 -4.443,-2.667 -4.363,-2.737 -4.278,-2.803 -4.190,-2.863 -4.098,-2.917 -4.003,-2.965 -3.905,-3.008 -3.805,-3.044 -3.702,-3.074 -3.598,-3.095 -3.492,-3.112 -3.386,-3.122 -3.279,-3.126 -3.173,-3.122 -3.066,-3.114 -2.961,-3.097 -2.857,-3.074 -2.754,-3.044 -2.654,-3.008 -2.556,-2.965 -2.460,-2.917 -2.369,-2.863 -2.280,-2.803 -2.196,-2.737 -2.116,-2.667 -2.040,-2.591 -1.970,-2.511 -1.904,-2.427 -1.844,-2.338 -1.790,-2.246 -1.741,-2.151 -1.699,-2.053 -1.663,-1.953 -1.633,-1.850 -1.615,-1.745 -1.610,-1.638 -1.619,-1.532 -1.627,-1.427 -1.644,-1.325 -1.669,-1.224 -1.701,-1.126 -1.741,-1.032 -1.809,-0.950 -1.886,-0.876 -2.039,-0.746 -2.110,-0.685 -2.185,-0.632 -2.400,-0.491 -2.678,-0.333 -2.960,-0.183 -3.279,-0.075 -3.366,-0.045 -3.457,-0.023 -3.652,0.024 -3.757,0.043 -3.864,0.049 -3.971,0.041 -4.081,0.031 -4.187,0.003 -4.278,-0.052 -4.363,-0.118 -4.443,-0.188 -4.518,-0.264 -4.589,-0.344 -4.654,-0.428 -4.715,-0.517 -4.769,-0.609 -4.817,-0.704 -4.860,-0.802 -4.896,-0.902 -4.926,-1.005 -4.949,-1.109 -4.966,-1.214 -4.976,-1.321" fill="rgb(48,48,48)" style="stroke:black;stroke-width:0.1"/>
<polygon class="item-31" points="-3.344,1.859 -3.342,1.784 -3.335,1.709 -3.323,1.634 -3.306,1.561 -3.285,1.488 -3.260,1.417 -3.230,1.348 -3.196,1.281 -3.147,1.223 -3.088,1.174 -3.027,1.129 -2.902,1.052 -2.711,0.966 -2.459,0.889 -2.398,0.872 -2.335,0.858 -2.144,0.820 -1.943,0.803 -1.873,0.802 -1.727,0.805 -1.652,0.813 -1.575,0.824 -1.503,0.849 -1.439,0.888 -1.379,0.935 -1.323,0.985 -1.270,1.038 -1.220,1.094 -1.174,1.154 -1.131,1.216 -1.093,1.281 -1.059,1.348 -1.029,1.417 -1.003,1.488 -0.982,1.561 -0.966,1.634 -0.954,1.709 -0.947,1.784 -0.944,1.859 -0.944,1.859 -0.947,1.935 -0.954,2.010 -0.966,2.084 -0.982,2.158 -1.003,2.230 -1.029,2.301 -1.059,2.370 -1.093,2.437 -1.131,2.502 -1.174,2.564 -1.220,2.624 -1.270,2.681 -1.323,2.734 -1.379,2.784 -1.439,2.830 -1.501,2.872 -1.566,2.911 -1.633,2.945 -1.703,2.975 -1.773,3.000 -1.846,3.021 -1.919,3.038 -1.994,3.050 -2.069,3.057 -2.144,3.059 -2.220,3.057 -2.295,3.050 -2.369,3.038 -2.443,3.021 -2.515,3.000 -2.586,2.975 -2.655,2.945 -2.722,2.911 -2.787,2.872 -2.849,2.830 -2.909,2.784 -2.966,2.734 -3.019,2.681 -3.069,2.624 -3.115,2.564 -3.157,2.502 -3.196,2.437 -3.230,2.370 -3.260,2.301 -3.285,2.230 -3.306,2.158 -3.323,2.084 -3.335,2.010 -3.342,1.935" fill="rgb(255,255,255)" style="stroke:black;stroke-width:0.1"/>
<polygon class="item-41" points="5.457,-0.843 5.464,-1.017 5.469,-1.079 5.499,-1.280 5.549,-1.414 5.626,-1.537 5.671,-1.598 5.723,-1.652 5.782,-1.700 5.846,-1.739 5.915,-1.770 5.987,-1.793 6.060,-1.809 6.135,-1.821 6.210,-1.828 6.285,-1.830 6.360,-1.828 6.435,-1.821 6.510,-1.809 6.583,-1.793 6.656,-1.772 6.727,-1.746 6.796,-1.716 6.863,-1.682 6.928,-1.643 6.990,-1.601 7.050,-1.555 7.106,-1.505 7.160,-1.452 7.210,-1.395 7.256,-1.336 7.298,-1.273 7.337,-1.208 7.371,-1.141 7.401,-1.072 7.426,-1.001 7.447,-0.929 7.464,-0.855 7.475,-0.781 7.483,-0.706 7.485,-0.630 7.485,-0.630 7.483,-0.555 7.475,-0.480 7.464,-0.406 7.447,-0.332 7.426,-0.260 7.401,-0.189 7.371,-0.120 7.337,-0.052 7.298,0.012 7.256,0.075 7.210,0.134 7.160,0.191 7.106,0.244 7.050,0.294 6.990,0.340 6.928,0.383 6.861,0.418 6.791,0.444 6.717,0.462 6.642,0.470 6.567,0.468 6.422,0.453 6.285,0.409 6.106,0.308 6.053,0.272 6.005,0.232 5.961,0.189 5.841,0.069 5.775,-0.014 5.691,-0.139 5.527,-0.486 5.487,-0.681" fill="rgb(255,255,255)" style="stroke:black;stroke-width:0.1"/>
<polygon class="item-29" points="-5.504,-1.235 -5.502,-1.310 -5.495,-1.385 -5.483,-1.460 -5.467,-1.533 -5.446,-1.606 -5.420,-1.676 -5.390,-1.746 -5.356,-1.813 -5.318,-1.878 -5.275,-1.940 -5.229,-2.000 -5.179,-2.056 -5.126,-2.109 -5.069,-2.159 -5.010,-2.205 -4.948,-2.248 -4.883,-2.286 -4.815,-2.320 -4.746,-2.350 -4.675,-2.376 -4.601,-2.390 -4.517,-2.349 -4.435,-2.266 -4.363,-2.164 -4.305,-2.063 -4.258,-1.975 -4.195,-1.808 -4.156,-1.692 -4.130,-1.606 -4.065,-1.347 -4.042,-1.202 -4.019,-1.054 -4.005,-0.954 -3.998,-0.864 -3.992,-0.742 -3.992,-0.666 -4.000,-0.465 -4.017,-0.349 -4.046,-0.228 -4.092,-0.121 -4.156,-0.056 -4.229,-0.037 -4.305,-0.035 -4.380,-0.037 -4.455,-0.044 -4.529,-0.056 -4.603,-0.073 -4.675,-0.094 -4.746,-0.119 -4.815,-0.149 -4.883,-0.183 -4.948,-0.222 -5.010,-0.264 -5.069,-0.310 -5.126,-0.360 -5.179,-0.413 -5.229,-0.470 -5.275,-0.529 -5.318,-0.592 -5.356,-0.657 -5.390,-0.724 -5.420,-0.793 -5.446,-0.864 -5.467,-0.936 -5.483,-1.010 -5.495,-1.084 -5.502,-1.159" fill="rgb(255,255,255)" style="stroke:black;stroke-width:0.1"/>
<polygon class="item-14" points="-4.337,0.946 -4.334,0.839 -4.324,0.733 -4.307,0.627 -4.284,0.523 -4.254,0.421 -4.218,0.320 -4.175,0.222 -4.127,0.127 -4.072,0.035 -4.004,-0.047 -3.820,-0.165 -3.724,-0.212 -3.532,-0.286 -3.264,-0.386 -2.637,-0.552 -2.343,-0.594 -2.135,-0.598 -1.939,-0.537 -1.752,-0.449 -1.659,-0.400 -1.570,-0.344 -1.481,-0.286 -1.406,-0.211 -1.335,-0.131 -1.270,-0.047 -1.211,0.041 -1.157,0.132 -1.104,0.224 -1.058,0.321 -1.021,0.421 -0.991,0.523 -0.967,0.627 -0.951,0.733 -0.941,0.839 -0.937,0.946 -0.937,0.946 -0.941,1.053 -0.951,1.159 -0.967,1.264 -0.991,1.369 -1.021,1.471 -1.058,1.571 -1.115,1.662 -1.254,1.824 -1.414,1.958 -1.494,2.019 -1.651,2.137 -1.903,2.281 -1.989,2.324 -2.343,2.486 -2.438,2.522 -2.536,2.549 -2.741,2.595 -2.847,2.607 -2.955,2.611 -3.060,2.592 -3.162,2.563 -3.263,2.526 -3.361,2.484 -3.456,2.436 -3.548,2.381 -3.636,2.321 -3.721,2.256 -3.801,2.185 -3.876,2.110 -3.947,2.029 -4.012,1.945 -4.072,1.857 -4.127,1.765 -4.175,1.670 -4.218,1.572 -4.254,1.471 -4.284,1.369 -4.307,1.264 -4.324,1.159 -4.334,1.053" fill="rgb(48,48,48)" style="stroke:black;stroke-width:0.1"/>
<polygon class="item-32" points="-4.861,1.216 -4.858,1.140 -4.851,1.065 -4.839,0.991 -4.823,0.917 -4.802,0.845 -4.776,0.774 -4.746,0.705 -4.712,0.638 -4.674,0.573 -4.632,0.511 -4.585,0.451 -4.535,0.394 -4.482,0.341 -4.426,0.291 -4.366,0.245 -4.304,0.203 -4.239,0.164 -4.172,0.130 -4.103,0.100 -4.026,0.092 -3.932,0.159 -3.840,0.278 -3.765,0.394 -3.706,0.506 -3.568,0.853 -3.505,1.050 -3.429,1.343 -3.405,1.489 -3.364,1.756 -3.346,2.011 -3.352,2.166 -3.382,2.302 -3.438,2.383 -3.510,2.406 -3.585,2.413 -3.661,2.416 -3.736,2.413 -3.811,2.406 -3.886,2.394 -3.959,2.378 -4.032,2.357 -4.103,2.331 -4.172,2.301 -4.239,2.267 -4.304,2.229 -4.366,2.186 -4.426,2.140 -4.482,2.090 -4.535,2.037 -4.585,1.981 -4.632,1.921 -4.674,1.859 -4.712,1.794 -4.746,1.727 -4.776,1.657 -4.802,1.587 -4.823,1.514 -4.839,1.441 -4.851,1.366 -4.858,1.291" fill="rgb(255,255,255)" style="stroke:black;stroke-width:0.1"/>
<polygon class="item-28" points="-3.702,-2.126 -3.699,-2.194 -3.690,-2.262 -3.675,-2.329 -3.639,-2.470 -3.606,-2.534 -3.531,-2.661 -3.481,-2.716 -3.431,-2.772 -3.371,-2.818 -3.310,-2.862 -3.243,-2.897 -3.174,-2.927 -3.103,-2.952 -3.031,-2.973 -2.957,-2.990 -2.883,-3.002 -2.808,-3.009 -2.732,-3.011 -2.657,-3.009 -2.582,-3.002 -2.508,-2.990 -2.434,-2.973 -2.362,-2.952 -2.291,-2.927 -2.222,-2.897 -2.154,-2.863 -2.090,-2.824 -2.027,-2.782 -1.968,-2.736 -1.911,-2.686 -1.858,-2.633 -1.808,-2.576 -1.762,-2.516 -1.719,-2.454 -1.681,-2.389 -1.647,-2.322 -1.617,-2.253 -1.591,-2.182 -1.570,-2.110 -1.554,-2.036 -1.542,-1.962 -1.535,-1.887 -1.533,-1.811 -1.533,-1.811 -1.535,-1.736 -1.542,-1.661 -1.554,-1.586 -1.570,-1.513 -1.591,-1.440 -1.617,-1.370 -1.647,-1.300 -1.681,-1.233 -1.719,-1.168 -1.762,-1.106 -1.808,-1.046 -1.858,-0.990 -1.911,-0.937 -1.970,-0.890 -2.031,-0.846 -2.099,-0.813 -2.167,-0.782 -2.311,-0.746 -2.457,-0.739 -2.528,-0.739 -2.598,-0.745 -2.666,-0.756 -2.796,-0.794 -2.858,-0.820 -2.916,-0.851 -3.075,-0.945 -3.218,-1.046 -3.375,-1.208 -3.530,-1.436 -3.623,-1.641 -3.662,-1.753 -3.685,-1.871 -3.700,-2.060" fill="rgb(255,255,255)" style="stroke:black;stroke-width:0.1"/>
<polygon class="item-39" points="2.974,0.514 2.977,0.439 2.984,0.364 2.996,0.290 3.012,0.216 3.033,0.144 3.059,0.073 3.089,0.004 3.123,-0.064 3.162,-0.128 3.205,-0.190 3.253,-0.248 3.302,-0.304 3.358,-0.355 3.414,-0.404 3.476,-0.446 3.605,-0.521 3.742,-0.578 3.884,-0.615 4.029,-0.633 4.174,-0.631 4.246,-0.629 4.387,-0.599 4.456,-0.584 4.587,-0.528 4.652,-0.500 4.714,-0.468 4.880,-0.338 4.932,-0.292 4.981,-0.243 5.027,-0.191 5.070,-0.136 5.109,-0.079 5.144,-0.019 5.240,0.168 5.260,0.236 5.275,0.304 5.306,0.443 5.308,0.514 5.311,0.658 5.300,0.729 5.274,0.872 5.229,1.011 5.166,1.144 5.085,1.268 4.987,1.380 4.934,1.433 4.875,1.479 4.815,1.524 4.751,1.563 4.685,1.599 4.616,1.629 4.545,1.656 4.473,1.677 4.399,1.693 4.325,1.705 4.250,1.712 4.174,1.714 4.099,1.712 4.024,1.705 3.949,1.693 3.876,1.677 3.803,1.656 3.733,1.630 3.663,1.600 3.596,1.566 3.531,1.528 3.469,1.485 3.409,1.439 3.353,1.389 3.300,1.336 3.250,1.279 3.204,1.220 3.161,1.157 3.123,1.093 3.089,1.025 3.059,0.956 3.033,0.885 3.012,0.813 2.996,0.739 2.984,0.665 2.977,0.590" fill="rgb(255,255,255)" style="stroke:black;stroke-width:0.1"/>
<polygon class="item-30" points="-3.128,0.433 -3.110,0.235 -3.099,0.166 -3.083,0.098 -3.061,0.031 -3.034,-0.035 -3.000,-0.099 -2.925,-0.226 -2.875,-0.281 -2.821,-0.332 -2.763,-0.379 -2.703,-0.424 -2.637,-0.460 -2.568,-0.492 -2.497,-0.517 -2.425,-0.538 -2.351,-0.555 -2.277,-0.566 -2.202,-0.573 -2.127,-0.576 -2.051,-0.573 -1.976,-0.566 -1.902,-0.555 -1.828,-0.538 -1.756,-0.517 -1.685,-0.492 -1.616,-0.462 -1.549,-0.427 -1.484,-0.389 -1.421,-0.347 -1.362,-0.300 -1.305,-0.251 -1.252,-0.197 -1.202,-0.141 -1.156,-0.081 -1.114,-0.019 -1.075,0.046 -1.041,0.113 -1.011,0.182 -0.986,0.253 -0.964,0.326 -0.948,0.399 -0.936,0.474 -0.929,0.549 -0.927,0.624 -0.927,0.624 -0.929,0.699 -0.936,0.774 -0.948,0.849 -0.964,0.922 -0.986,0.995 -1.011,1.066 -1.041,1.135 -1.075,1.202 -1.114,1.267 -1.156,1.329 -1.202,1.389 -1.252,1.445 -1.305,1.499 -1.363,1.548 -1.424,1.592 -1.490,1.627 -1.557,1.660 -1.627,1.687 -1.697,1.708 -1.845,1.722 -1.917,1.725 -1.988,1.722 -2.058,1.713 -2.127,1.699 -2.193,1.680 -2.380,1.612 -2.543,1.509 -2.688,1.397 -2.844,1.218 -2.880,1.172 -2.913,1.123 -2.943,1.073 -2.969,1.021 -3.065,0.803 -3.104,0.624" fill="rgb(255,255,255)" style="stroke:black;stroke-width:0.1"/>
</svg>