<?xml version="1.0" encoding="UTF-8"?><svg id="model" xmlns="http://www.w3.org/2000/svg" viewBox="-11.890 -11.890 23.780 23.780">
<circle class="item-2" cx="-2.344" cy="-2.934" r="1.520" fill="rgb(238,130,238)" style="stroke:black;stroke-width:0.1"/>
<circle class="item-14" cx="-2.637" cy="2.343" r="1.700" fill="rgb(128,128,128)" style="stroke:black;stroke-width:0.1"/>
<circle class="item-17" cx="2.842" cy="-1.654" r="1.700" fill="rgb(128,128,128)" style="stroke:black;stroke-width:0.1"/>
<circle class="item-3" cx="-5.412" cy="0.687" r="1.520" fill="rgb(128,128,128)" style="stroke:black;stroke-width:0.1"/>
<polygon class="item-19" points="1.807,0.749 1.811,0.642 1.821,0.536 1.837,0.430 1.861,0.326 1.890,0.223 1.927,0.123 1.969,0.025 2.017,-0.070 2.073,-0.161 2.181,-0.214 2.586,-0.364 2.765,-0.421 3.422,-0.601 3.880,-0.703 4.098,-0.745 4.220,-0.766 4.326,-0.741 4.418,-0.686 4.506,-0.626 4.590,-0.561 4.671,-0.490 4.746,-0.415 4.817,-0.335 4.882,-0.250 4.942,-0.162 4.997,-0.070 5.045,0.025 5.087,0.123 5.124,0.223 5.153,0.326 5.177,0.430 5.193,0.536 5.203,0.642 5.207,0.749 5.207,0.749 5.203,0.855 5.193,0.962 5.177,1.067 5.153,1.171 5.124,1.274 5.087,1.374 5.045,1.472 4.997,1.568 4.942,1.659 4.882,1.748 4.817,1.832 4.746,1.912 4.671,1.988 4.590,2.058 4.506,2.124 4.418,2.184 4.326,2.238 4.231,2.287 4.133,2.329 4.032,2.365 3.930,2.395 3.825,2.418 3.720,2.435 3.614,2.445 3.507,2.448 3.400,2.445 3.294,2.435 3.188,2.418 3.084,2.395 2.982,2.365 2.881,2.329 2.783,2.287 2.688,2.238 2.596,2.184 2.508,2.124 2.423,2.058 2.343,1.988 2.268,1.912 2.197,1.832 2.132,1.748 2.072,1.659 2.017,1.568 1.969,1.472 1.927,1.374 1.890,1.274 1.861,1.171 1.837,1.067 1.821,0.962 1.811,0.855" fill="rgb(128,128,128)" style="stroke:black;stroke-width:0.1"/>
<polygon class="item-18" points="2.163,-0.270 2.197,-0.380 2.243,-0.485 2.366,-0.674 2.530,-0.912 2.586,-0.981 2.746,-1.167 2.859,-1.273 3.243,-1.612 3.362,-1.710 3.567,-1.846 3.808,-1.999 3.900,-2.053 4.105,-2.143 4.215,-2.171 4.328,-2.184 4.434,-2.164 4.532,-2.122 4.627,-2.073 4.719,-2.019 4.807,-1.959 4.891,-1.893 4.971,-1.823 5.047,-1.747 5.118,-1.667 5.183,-1.583 5.243,-1.494 5.297,-1.402 5.346,-1.307 5.388,-1.209 5.424,-1.109 5.454,-1.006 5.478,-0.902 5.494,-0.797 5.504,-0.690 5.508,-0.584 5.508,-0.584 5.504,-0.477 5.494,-0.370 5.478,-0.265 5.454,-0.161 5.424,-0.058 5.388,0.042 5.346,0.140 5.297,0.235 5.243,0.327 5.183,0.416 5.098,0.484 4.966,0.504 4.834,0.509 4.710,0.507 4.307,0.478 4.146,0.456 3.934,0.416 3.747,0.379 3.453,0.313 3.268,0.268 2.828,0.129 2.527,0.019 2.415,-0.032 2.298,-0.093 2.196,-0.170" fill="rgb(128,128,128)" style="stroke:black;stroke-width:0.1"/>
<polygon class="item-10" points="-4.827,-0.573 -4.808,-0.678 -4.765,-0.776 -4.717,-0.871 -4.662,-0.963 -4.602,-1.052 -4.537,-1.136 -4.466,-1.216 -4.391,-1.292 -4.311,-1.362 -4.226,-1.428 -4.138,-1.488 -4.046,-1.542 -3.951,-1.591 -3.853,-1.633 -3.752,-1.669 -3.650,-1.699 -3.546,-1.722 -3.440,-1.739 -3.334,-1.749 -3.227,-1.752 -3.120,-1.749 -3.014,-1.739 -2.909,-1.722 -2.804,-1.699 -2.702,-1.669 -2.601,-1.633 -2.503,-1.591 -2.408,-1.542 -2.316,-1.488 -2.228,-1.428 -2.144,-1.362 -2.064,-1.292 -1.988,-1.216 -1.917,-1.136 -1.852,-1.052 -1.792,-0.963 -1.738,-0.871 -1.689,-0.776 -1.647,-0.678 -1.611,-0.578 -1.581,-0.475 -1.557,-0.371 -1.541,-0.266 -1.531,-0.159 -1.527,-0.053 -1.527,-0.053 -1.531,0.054 -1.541,0.160 -1.557,0.266 -1.581,0.370 -1.611,0.473 -1.647,0.573 -1.689,0.671 -1.738,0.766 -1.792,0.858 -1.852,0.946 -1.931,1.020 -2.023,1.078 -2.116,1.131 -2.305,1.216 -2.399,1.253 -2.764,1.373 -2.854,1.399 -2.946,1.419 -3.324,1.491 -3.424,1.503 -3.738,1.519 -3.843,1.504 -3.950,1.484 -4.046,1.437 -4.138,1.383 -4.211,1.302 -4.272,1.210 -4.327,1.118 -4.419,0.933 -4.459,0.843 -4.596,0.489 -4.627,0.402 -4.714,0.135 -4.803,-0.252 -4.822,-0.357 -4.827,-0.463" fill="rgb(128,128,128)" style="stroke:black;stroke-width:0.1"/>
<polygon class="item-21" points="2.765,2.161 2.792,2.047 2.826,1.939 2.882,1.836 3.060,1.571 3.275,1.294 3.485,1.074 3.856,0.747 4.168,0.514 4.241,0.466 5.086,0.287 5.208,0.273 5.313,0.305 5.401,0.365 5.485,0.431 5.565,0.501 5.641,0.577 5.712,0.657 5.777,0.741 5.837,0.830 5.891,0.922 5.940,1.017 5.982,1.115 6.018,1.215 6.048,1.318 6.072,1.422 6.088,1.527 6.098,1.634 6.102,1.740 6.102,1.740 6.098,1.847 6.088,1.953 6.072,2.059 6.048,2.163 6.018,2.266 5.982,2.366 5.940,2.464 5.891,2.559 5.837,2.651 5.777,2.739 5.712,2.824 5.641,2.904 5.565,2.979 5.485,3.050 5.401,3.116 5.313,3.176 5.221,3.230 5.126,3.278 5.028,3.321 4.927,3.357 4.825,3.387 4.720,3.410 4.615,3.427 4.509,3.437 4.402,3.440 4.295,3.437 4.189,3.427 4.083,3.410 3.979,3.387 3.877,3.357 3.776,3.321 3.678,3.278 3.583,3.230 3.491,3.176 3.403,3.116 3.318,3.050 3.238,2.979 3.163,2.904 3.092,2.824 3.027,2.739 2.967,2.651 2.912,2.559 2.864,2.464 2.821,2.366 2.785,2.266" fill="rgb(128,128,128)" style="stroke:black;stroke-width:0.1"/>
<polygon class="item-7" points="-1.042,-1.769 -1.039,-1.867 -1.030,-1.964 -1.015,-2.060 -0.993,-2.155 -0.966,-2.248 -0.933,-2.340 -0.895,-2.429 -0.850,-2.516 -0.801,-2.600 -0.746,-2.680 -0.686,-2.757 -0.622,-2.830 -0.553,-2.899 -0.480,-2.963 -0.403,-3.023 -0.323,-3.078 -0.239,-3.127 -0.152,-3.172 -0.063,-3.210 0.029,-3.243 0.122,-3.270 0.217,-3.292 0.313,-3.307 0.410,-3.316 0.508,-3.319 0.605,-3.316 0.702,-3.307 0.798,-3.292 0.893,-3.270 0.987,-3.243 1.078,-3.210 1.168,-3.172 1.254,-3.127 1.338,-3.078 1.419,-3.023 1.496,-2.963 1.569,-2.899 1.637,-2.830 1.702,-2.757 1.749,-2.671 1.779,-2.576 1.805,-2.482 1.837,-2.296 1.853,-2.115 1.850,-1.769 1.847,-1.685 1.831,-1.430 1.783,-1.169 1.744,-0.984 1.716,-0.891 1.677,-0.802 1.634,-0.712 1.569,-0.640 1.496,-0.575 1.419,-0.515 1.338,-0.461 1.254,-0.411 1.168,-0.367 1.078,-0.328 0.987,-0.295 0.893,-0.268 0.798,-0.247 0.702,-0.232 0.605,-0.223 0.508,-0.220 0.410,-0.223 0.313,-0.232 0.217,-0.247 0.122,-0.268 0.029,-0.295 -0.063,-0.328 -0.152,-0.367 -0.239,-0.411 -0.323,-0.461 -0.403,-0.515 -0.480,-0.575 -0.553,-0.640 -0.622,-0.708 -0.686,-0.781 -0.746,-0.858 -0.801,-0.939 -0.850,-1.023 -0.895,-1.109 -0.933,-1.199 -0.966,-1.290 -0.993,-1.384 -1.015,-1.479 -1.030,-1.575 -1.039,-1.672" fill="rgb(128,128,128)" style="stroke:black;stroke-width:0.1"/>
<polygon class="item-12" points="-3.678,-2.215 -3.675,-2.321 -3.665,-2.428 -3.648,-2.533 -3.625,-2.637 -3.595,-2.740 -3.559,-2.840 -3.515,-2.938 -3.463,-3.031 -3.405,-3.120 -3.339,-3.204 -3.199,-3.361 -3.039,-3.497 -2.956,-3.561 -2.774,-3.662 -2.682,-3.710 -2.492,-3.797 -2.392,-3.826 -2.188,-3.876 -1.978,-3.897 -1.872,-3.901 -1.766,-3.896 -1.660,-3.883 -1.555,-3.861 -1.453,-3.831 -1.352,-3.795 -1.254,-3.753 -1.159,-3.704 -1.067,-3.650 -0.979,-3.590 -0.895,-3.524 -0.815,-3.454 -0.739,-3.378 -0.668,-3.298 -0.603,-3.214 -0.543,-3.126 -0.489,-3.034 -0.473,-2.923 -0.484,-2.806 -0.661,-1.787 -0.770,-1.215 -0.818,-0.979 -0.895,-0.905 -0.979,-0.840 -1.067,-0.780 -1.159,-0.725 -1.254,-0.677 -1.352,-0.634 -1.453,-0.598 -1.555,-0.568 -1.666,-0.580 -1.978,-0.742 -2.597,-1.089 -2.881,-1.253 -3.198,-1.441 -3.377,-1.556 -3.585,-1.693 -3.625,-1.792 -3.648,-1.896 -3.665,-2.002 -3.675,-2.108" fill="rgb(238,130,238)" style="stroke:black;stroke-width:0.1"/>
<polygon class="item-15" points="-6.388,-0.231 -6.386,-0.338 -6.376,-0.444 -6.359,-0.550 -6.336,-0.654 -6.306,-0.756 -6.270,-0.857 -6.228,-0.955 -6.179,-1.050 -6.125,-1.142 -6.065,-1.230 -5.999,-1.314 -5.929,-1.395 -5.853,-1.470 -5.773,-1.541 -5.689,-1.606 -5.600,-1.666 -5.509,-1.721 -5.413,-1.769 -5.315,-1.811 -5.215,-1.848 -5.112,-1.877 -5.008,-1.901 -4.903,-1.917 -4.796,-1.927 -4.690,-1.931 -4.583,-1.927 -4.477,-1.917 -4.371,-1.901 -4.267,-1.877 -4.164,-1.848 -4.064,-1.811 -3.966,-1.769 -3.871,-1.721 -3.779,-1.666 -3.712,-1.577 -3.677,-1.455 -3.664,-1.323 -3.647,-1.093 -3.650,-0.986 -3.672,-0.492 -3.684,-0.294 -3.731,0.080 -3.835,0.679 -3.956,1.104 -4.006,1.223 -4.073,1.326 -4.164,1.386 -4.267,1.415 -4.372,1.434 -4.480,1.430 -4.690,1.408 -4.889,1.345 -4.983,1.309 -5.250,1.185 -5.493,1.034 -5.570,0.981 -5.645,0.924 -5.715,0.861 -5.922,0.664 -6.108,0.437 -6.166,0.354 -6.218,0.265 -6.312,0.079 -6.351,-0.021 -6.376,-0.125" fill="rgb(128,128,128)" style="stroke:black;stroke-width:0.1"/>
<polygon class="item-16" points="0.496,-2.427 0.497,-2.520 0.500,-2.721 0.507,-2.828 0.528,-2.933 0.550,-3.044 0.593,-3.145 0.651,-3.237 0.729,-3.309 0.814,-3.374 0.902,-3.434 0.994,-3.489 1.089,-3.537 1.187,-3.580 1.288,-3.616 1.390,-3.646 1.494,-3.669 1.600,-3.686 1.706,-3.696 1.813,-3.699 1.920,-3.696 2.026,-3.686 2.131,-3.669 2.236,-3.646 2.338,-3.616 2.439,-3.580 2.537,-3.537 2.632,-3.489 2.724,-3.434 2.812,-3.374 2.896,-3.309 2.977,-3.238 3.052,-3.163 3.123,-3.083 3.188,-2.998 3.248,-2.910 3.298,-2.816 3.342,-2.719 3.378,-2.619 3.405,-2.517 3.425,-2.413 3.436,-2.309 3.439,-2.205 3.436,-1.999 3.407,-1.798 3.373,-1.702 3.332,-1.609 3.284,-1.521 3.078,-1.196 3.025,-1.119 2.856,-0.889 2.653,-0.675 2.504,-0.530 2.421,-0.463 2.333,-0.399 2.236,-0.353 2.131,-0.330 2.026,-0.313 1.920,-0.303 1.813,-0.300 1.706,-0.303 1.600,-0.313 1.494,-0.330 1.390,-0.353 1.288,-0.383 1.187,-0.419 1.094,-0.471 1.017,-0.552 0.952,-0.643 0.891,-0.731 0.842,-0.826 0.760,-1.010 0.722,-1.097 0.693,-1.185 0.619,-1.438 0.551,-1.759 0.538,-1.838 0.504,-2.165" fill="rgb(128,128,128)" style="stroke:black;stroke-width:0.1"/>
<polygon class="item-9" points="-4.318,1.386 -4.266,1.279 -4.212,1.180 -4.161,1.085 -4.053,0.913 -4.001,0.833 -3.841,0.612 -3.769,0.554 -3.564,0.400 -3.423,0.317 -3.143,0.183 -3.073,0.153 -2.784,0.040 -2.544,-0.038 -2.457,-0.063 -2.172,-0.121 -2.066,-0.137 -1.845,-0.143 -1.735,-0.126 -1.629,-0.094 -1.544,-0.030 -1.463,0.040 -1.388,0.116 -1.317,0.196 -1.252,0.280 -1.192,0.368 -1.137,0.460 -1.089,0.556 -1.047,0.654 -1.010,0.754 -0.981,0.857 -0.957,0.961 -0.941,1.066 -0.931,1.173 -0.927,1.279 -0.927,1.279 -0.931,1.386 -0.941,1.492 -0.957,1.598 -0.981,1.702 -1.010,1.805 -1.047,1.905 -1.089,2.003 -1.137,2.098 -1.192,2.190 -1.252,2.278 -1.317,2.363 -1.389,2.442 -1.467,2.515 -1.550,2.581 -1.730,2.693 -1.825,2.737 -1.924,2.774 -2.121,2.838 -2.323,2.874 -2.424,2.890 -2.525,2.899 -2.729,2.899 -2.830,2.890 -2.931,2.874 -3.133,2.838 -3.330,2.774 -3.519,2.684 -3.611,2.634 -3.700,2.576 -3.784,2.511 -3.865,2.442 -3.937,2.363 -4.002,2.278 -4.062,2.190 -4.117,2.098 -4.165,2.003 -4.207,1.905 -4.244,1.805 -4.273,1.702 -4.297,1.598 -4.313,1.492" fill="rgb(128,128,128)" style="stroke:black;stroke-width:0.1"/>
<polygon class="item-20" points="3.585,-1.399 3.586,-1.603 3.629,-1.805 3.660,-1.907 3.765,-2.090 3.834,-2.171 3.905,-2.250 3.987,-2.319 4.075,-2.379 4.167,-2.434 4.262,-2.482 4.360,-2.525 4.460,-2.561 4.563,-2.591 4.667,-2.614 4.773,-2.631 4.879,-2.641 4.986,-2.644 5.092,-2.641 5.199,-2.631 5.304,-2.614 5.408,-2.591 5.511,-2.561 5.611,-2.525 5.709,-2.482 5.805,-2.434 5.896,-2.379 5.985,-2.319 6.069,-2.254 6.149,-2.183 6.225,-2.108 6.295,-2.028 6.361,-1.943 6.421,-1.855 6.475,-1.763 6.524,-1.668 6.566,-1.570 6.602,-1.469 6.632,-1.367 6.655,-1.263 6.672,-1.157 6.682,-1.051 6.685,-0.944 6.685,-0.944 6.682,-0.837 6.672,-0.731 6.655,-0.626 6.632,-0.521 6.602,-0.419 6.566,-0.318 6.524,-0.220 6.475,-0.125 6.421,-0.033 6.361,0.055 6.295,0.139 6.225,0.219 6.149,0.295 6.069,0.365 5.985,0.431 5.896,0.491 5.805,0.545 5.709,0.594 5.611,0.636 5.506,0.656 5.397,0.656 5.290,0.650 4.792,0.590 4.508,0.526 4.318,0.475 4.241,0.411 4.170,0.342 4.105,0.268 3.954,0.025 3.843,-0.219 3.731,-0.536 3.636,-0.859 3.595,-1.209 3.587,-1.303" fill="rgb(128,128,128)" style="stroke:black;stroke-width:0.1"/>
<polygon class="item-23" points="4.188,0.935 4.195,0.838 4.215,0.635 4.232,0.529 4.289,0.446 4.397,0.404 4.600,0.337 4.953,0.234 5.192,0.168 5.348,0.128 5.589,0.071 5.948,-0.009 6.158,-0.048 6.399,-0.085 6.499,-0.045 6.588,0.015 6.672,0.080 6.752,0.151 6.828,0.226 6.898,0.307 6.964,0.391 7.024,0.479 7.078,0.571 7.127,0.666 7.169,0.764 7.205,0.865 7.235,0.967 7.258,1.071 7.275,1.177 7.285,1.283 7.288,1.390 7.288,1.390 7.285,1.497 7.275,1.603 7.258,1.708 7.235,1.813 7.205,1.915 7.169,2.016 7.127,2.114 7.078,2.209 7.024,2.301 6.964,2.389 6.898,2.473 6.828,2.554 6.752,2.629 6.672,2.700 6.588,2.765 6.499,2.825 6.407,2.880 6.312,2.928 6.214,2.970 6.114,3.007 6.011,3.036 5.907,3.060 5.802,3.076 5.695,3.086 5.589,3.090 5.482,3.086 5.376,3.076 5.270,3.060 5.168,3.026 5.074,2.973 4.985,2.913 4.905,2.844 4.833,2.764 4.708,2.602 4.650,2.524 4.600,2.443 4.557,2.359 4.403,2.042 4.238,1.475 4.198,1.125 4.189,1.031" fill="rgb(128,128,128)" style="stroke:black;stroke-width:0.1"/>
<polygon class="item-6" points="-3.981,-1.594 -3.978,-1.695 -3.940,-1.785 -3.896,-1.872 -3.847,-1.956 -3.792,-2.036 -3.732,-2.113 -3.668,-2.186 -3.599,-2.255 -3.523,-2.316 -3.435,-2.360 -3.339,-2.387 -3.236,-2.394 -3.138,-2.401 -3.041,-2.396 -2.859,-2.375 -2.775,-2.366 -2.693,-2.349 -2.614,-2.326 -2.395,-2.255 -2.197,-2.176 -1.889,-2.019 -1.708,-1.905 -1.522,-1.770 -1.457,-1.720 -1.396,-1.663 -1.338,-1.601 -1.215,-1.465 -1.153,-1.390 -1.102,-1.307 -1.061,-1.218 -1.021,-1.126 -0.996,-1.028 -1.001,-0.931 -1.016,-0.835 -1.037,-0.740 -1.064,-0.647 -1.097,-0.555 -1.136,-0.466 -1.180,-0.379 -1.230,-0.295 -1.284,-0.215 -1.344,-0.138 -1.408,-0.065 -1.477,0.004 -1.571,0.043 -1.977,0.066 -2.231,0.069 -2.837,0.040 -3.102,-0.099 -3.166,-0.136 -3.227,-0.178 -3.465,-0.359 -3.645,-0.517 -3.681,-0.588 -3.712,-0.661 -3.853,-1.043 -3.880,-1.126 -3.972,-1.494" fill="rgb(238,130,238)" style="stroke:black;stroke-width:0.1"/>
<polygon class="item-11" points="-2.107,-2.202 -2.093,-2.292 -2.073,-2.380 -2.006,-2.648 -1.907,-2.916 -1.866,-3.007 -1.817,-3.094 -1.709,-3.272 -1.566,-3.426 -1.485,-3.496 -1.397,-3.558 -1.300,-3.602 -1.199,-3.638 -1.097,-3.667 -0.993,-3.691 -0.887,-3.707 -0.781,-3.718 -0.674,-3.721 -0.567,-3.718 -0.461,-3.707 -0.356,-3.691 -0.252,-3.667 -0.149,-3.638 -0.048,-3.602 0.050,-3.559 0.145,-3.511 0.237,-3.456 0.325,-3.396 0.409,-3.331 0.489,-3.260 0.565,-3.185 0.632,-3.101 0.662,-2.992 0.682,-2.882 0.700,-2.777 0.719,-2.573 0.745,-2.292 0.741,-2.021 0.738,-1.932 0.726,-1.566 0.719,-1.469 0.704,-1.373 0.667,-1.170 0.625,-1.077 0.577,-0.986 0.520,-0.899 0.457,-0.817 0.386,-0.739 0.315,-0.660 0.234,-0.590 0.145,-0.532 0.050,-0.483 -0.048,-0.441 -0.149,-0.405 -0.252,-0.375 -0.356,-0.351 -0.461,-0.335 -0.567,-0.325 -0.674,-0.321 -0.781,-0.325 -0.887,-0.335 -0.993,-0.351 -1.097,-0.375 -1.198,-0.409 -1.277,-0.498 -1.342,-0.602 -1.506,-0.876 -1.636,-1.118 -1.714,-1.266 -1.919,-1.702 -2.024,-1.936 -2.059,-2.021 -2.087,-2.110" fill="rgb(238,130,238)" style="stroke:black;stroke-width:0.1"/>
<polygon class="item-1" points="-2.298,0.167 -2.275,0.065 -2.063,-0.151 -1.537,-0.593 -1.456,-0.657 -1.360,-0.692 -1.054,-0.675 0.050,-0.594 0.174,-0.583 0.284,-0.543 0.370,-0.470 0.450,-0.390 0.525,-0.305 0.594,-0.216 0.658,-0.122 0.715,-0.025 0.767,0.076 0.811,0.180 0.850,0.286 0.881,0.395 0.906,0.505 0.924,0.617 0.934,0.729 0.938,0.842 0.938,0.842 0.934,0.955 0.924,1.068 0.906,1.179 0.881,1.290 0.850,1.398 0.811,1.505 0.767,1.608 0.715,1.709 0.658,1.807 0.594,1.900 0.525,1.989 0.450,2.074 0.370,2.154 0.285,2.229 0.196,2.298 0.102,2.362 0.005,2.419 -0.096,2.471 -0.199,2.516 -0.306,2.554 -0.414,2.585 -0.525,2.610 -0.636,2.628 -0.749,2.638 -0.862,2.642 -0.975,2.638 -1.087,2.628 -1.199,2.610 -1.310,2.585 -1.418,2.554 -1.524,2.516 -1.617,2.446 -1.690,2.348 -1.752,2.244 -1.931,1.846 -1.966,1.755 -2.119,1.251 -2.161,1.090 -2.220,0.757 -2.284,0.279" fill="rgb(128,128,128)" style="stroke:black;stroke-width:0.1"/>
<polygon class="item-22" points="4.259,0.464 4.271,0.355 4.305,0.247 4.360,0.143 4.538,-0.122 4.754,-0.398 4.963,-0.619 5.334,-0.946 5.646,-1.179 5.719,-1.227 5.969,-1.365 6.170,-1.471 6.280,-1.508 6.395,-1.535 6.504,-1.528 6.604,-1.490 6.699,-1.442 6.791,-1.388 6.880,-1.328 6.964,-1.262 7.044,-1.192 7.120,-1.116 7.190,-1.036 7.256,-0.952 7.316,-0.863 7.370,-0.771 7.418,-0.676 7.461,-0.578 7.497,-0.478 7.527,-0.375 7.550,-0.271 7.567,-0.165 7.577,-0.059 7.580,0.048 7.580,0.048 7.577,0.154 7.567,0.261 7.550,0.366 7.527,0.470 7.497,0.573 7.461,0.673 7.418,0.771 7.370,0.866 7.316,0.958 7.256,1.047 7.163,1.108 6.906,1.140 6.783,1.138 6.464,1.109 6.142,1.065 5.820,1.010 5.526,0.944 5.340,0.899 5.132,0.844 4.977,0.795 4.796,0.736 4.695,0.699 4.487,0.599 4.370,0.538" fill="rgb(128,128,128)" style="stroke:black;stroke-width:0.1"/>
<polygon class="item-4" points="-6.696,-1.086 -6.693,-1.181 -6.684,-1.276 -6.669,-1.370 -6.648,-1.464 -6.621,-1.555 -6.589,-1.645 -6.551,-1.733 -6.508,-1.818 -6.459,-1.900 -6.405,-1.979 -6.347,-2.054 -6.284,-2.126 -6.216,-2.194 -6.144,-2.257 -6.069,-2.315 -5.990,-2.369 -5.908,-2.417 -5.823,-2.461 -5.735,-2.499 -5.645,-2.531 -5.554,-2.558 -5.461,-2.579 -5.366,-2.593 -5.271,-2.602 -5.176,-2.605 -5.080,-2.602 -4.985,-2.593 -4.891,-2.579 -4.798,-2.558 -4.706,-2.531 -4.616,-2.499 -4.529,-2.461 -4.444,-2.417 -4.361,-2.369 -4.282,-2.315 -4.207,-2.257 -4.135,-2.194 -4.068,-2.126 -4.005,-2.054 -3.946,-1.979 -3.893,-1.900 -3.852,-1.813 -3.810,-1.529 -3.799,-1.348 -3.793,-1.086 -3.793,-1.086 -3.796,-0.999 -3.804,-0.912 -3.818,-0.827 -3.857,-0.747 -3.901,-0.672 -4.007,-0.536 -4.067,-0.476 -4.244,-0.315 -4.424,-0.177 -4.741,0.011 -5.098,0.150 -5.338,0.196 -5.422,0.207 -5.509,0.212 -5.692,0.218 -5.787,0.214 -5.967,0.162 -6.060,0.132 -6.142,0.082 -6.216,0.022 -6.284,-0.045 -6.347,-0.117 -6.405,-0.192 -6.459,-0.271 -6.508,-0.353 -6.551,-0.439 -6.589,-0.526 -6.621,-0.616 -6.648,-0.708 -6.669,-0.801 -6.684,-0.895 -6.693,-0.990" fill="rgb(128,128,128)" style="stroke:black;stroke-width:0.1"/>
<polygon class="item-8" points="-2.948,-0.505 -2.946,-0.607 -2.935,-0.905 -2.868,-1.191 -2.841,-1.284 -2.744,-1.562 -2.655,-1.740 -2.608,-1.830 -2.492,-2.001 -2.423,-2.079 -2.348,-2.152 -2.267,-2.220 -2.177,-2.273 -2.083,-2.321 -1.973,-2.330 -1.866,-2.334 -1.760,-2.325 -1.558,-2.293 -1.196,-2.180 -0.808,-2.000 -0.734,-1.963 -0.663,-1.920 -0.384,-1.732 -0.175,-1.565 -0.104,-1.502 -0.038,-1.433 0.101,-1.284 0.168,-1.201 0.225,-1.110 0.269,-1.013 0.309,-0.912 0.330,-0.806 0.330,-0.806 0.326,-0.700 0.316,-0.593 0.300,-0.488 0.275,-0.384 0.222,-0.289 0.153,-0.203 0.067,-0.130 -0.015,-0.061 -0.105,-0.003 -0.279,0.096 -0.361,0.142 -0.594,0.261 -0.751,0.320 -1.289,0.476 -1.540,0.536 -1.816,0.568 -2.019,0.572 -2.125,0.568 -2.231,0.550 -2.324,0.507 -2.492,0.388 -2.574,0.325 -2.652,0.254 -2.724,0.178 -2.791,0.095 -2.851,0.008 -2.885,-0.093 -2.928,-0.300 -2.942,-0.403" fill="rgb(238,130,238)" style="stroke:black;stroke-width:0.1"/>
<polygon class="item-5" points="0.615,-2.617 0.616,-2.712 0.629,-2.807 0.654,-2.899 0.687,-2.989 0.725,-3.076 0.768,-3.161 0.817,-3.243 0.870,-3.322 0.929,-3.398 0.992,-3.469 1.059,-3.537 1.131,-3.600 1.206,-3.659 1.285,-3.712 1.368,-3.761 1.453,-3.804 1.540,-3.842 1.630,-3.875 1.722,-3.901 1.815,-3.922 1.909,-3.937 2.004,-3.946 2.100,-3.949 2.195,-3.946 2.290,-3.937 2.385,-3.922 2.478,-3.901 2.569,-3.875 2.659,-3.842 2.747,-3.804 2.832,-3.761 2.914,-3.712 2.993,-3.659 3.069,-3.600 3.140,-3.537 3.208,-3.469 3.271,-3.398 3.329,-3.322 3.383,-3.243 3.432,-3.161 3.475,-3.076 3.513,-2.989 3.545,-2.899 3.572,-2.807 3.593,-2.714 3.608,-2.620 3.617,-2.525 3.620,-2.429 3.620,-2.429 3.617,-2.334 3.608,-2.239 3.593,-2.144 3.572,-2.051 3.545,-1.959 3.513,-1.870 3.475,-1.782 3.432,-1.697 3.383,-1.615 3.329,-1.536 3.271,-1.460 3.208,-1.389 3.140,-1.321 3.069,-1.258 2.993,-1.200 2.914,-1.146 2.832,-1.097 2.747,-1.054 2.659,-1.016 2.569,-0.984 2.477,-0.959 2.384,-0.941 2.290,-0.926 2.195,-0.921 2.100,-0.918 1.911,-0.936 1.728,-0.979 1.637,-1.005 1.549,-1.037 1.383,-1.125 1.303,-1.173 1.225,-1.225 1.151,-1.283 1.009,-1.404 0.946,-1.475 0.889,-1.549 0.781,-1.704 0.738,-1.789 0.708,-1.878 0.685,-1.969 0.649,-2.152 0.634,-2.244 0.626,-2.336 0.615,-2.523" fill="rgb(128,128,128)" style="stroke:black;stroke-width:0.1"/>
<polygon class="item-13" points="-4.979,1.834 -4.976,1.727 -4.966,1.621 -4.949,1.515 -4.926,1.411 -4.896,1.309 -4.860,1.208 -4.817,1.110 -4.769,1.015 -4.715,0.923 -4.654,0.835 -4.589,0.750 -4.518,0.670 -4.443,0.595 -4.363,0.524 -4.278,0.459 -4.190,0.399 -4.098,0.344 -4.003,0.296 -3.905,0.253 -3.805,0.217 -3.702,0.187 -3.598,0.164 -3.492,0.147 -3.386,0.137 -3.279,0.134 -3.173,0.137 -3.066,0.147 -2.961,0.164 -2.857,0.187 -2.755,0.219 -2.655,0.258 -2.563,0.311 -2.473,0.367 -2.301,0.488 -2.219,0.552 -2.148,0.629 -2.085,0.712 -2.029,0.799 -1.980,0.890 -1.888,1.069 -1.842,1.158 -1.769,1.343 -1.741,1.439 -1.685,1.632 -1.659,1.732 -1.619,1.938 -1.610,2.045 -1.615,2.151 -1.633,2.257 -1.663,2.359 -1.699,2.460 -1.741,2.558 -1.790,2.653 -1.844,2.745 -1.904,2.833 -1.970,2.917 -2.040,2.997 -2.116,3.073 -2.196,3.143 -2.280,3.209 -2.369,3.269 -2.460,3.323 -2.556,3.372 -2.654,3.414 -2.754,3.450 -2.857,3.480 -2.961,3.503 -3.066,3.520 -3.173,3.530 -3.279,3.534 -3.386,3.530 -3.492,3.520 -3.598,3.503 -3.702,3.480 -3.805,3.450 -3.905,3.414 -4.003,3.372 -4.098,3.323 -4.190,3.269 -4.278,3.209 -4.363,3.143 -4.443,3.073 -4.518,2.997 -4.589,2.917 -4.654,2.833 -4.715,2.745 -4.769,2.653 -4.817,2.558 -4.860,2.460 -4.896,2.359 -4.926,2.257 -4.949,2.152 -4.966,2.047 -4.976,1.941" fill="rgb(128,128,128)" style="stroke:black;stroke-width:0.1"/>
</svg>