<?xml version="1.0" encoding="UTF-8"?><svg id="model" xmlns="http://www.w3.org/2000/svg" viewBox="-11.890 -11.890 23.780 23.780">
<circle class="item-31" cx="-2.144" cy="1.989" r="1.200" fill="rgb(255,255,255)" style="stroke:black;stroke-width:0.1"/>
<circle class="item-36" cx="2.363" cy="-1.353" r="1.200" fill="rgb(255,255,255)" style="stroke:black;stroke-width:0.1"/>
<circle class="item-25" cx="-3.056" cy="-0.196" r="1.200" fill="rgb(255,255,255)" style="stroke:black;stroke-width:0.1"/>
<polygon class="item-33" points="-0.824,-1.400 -0.822,-1.475 -0.815,-1.550 -0.803,-1.625 -0.786,-1.698 -0.765,-1.771 -0.740,-1.842 -0.710,-1.911 -0.676,-1.978 -0.637,-2.043 -0.595,-2.105 -0.549,-2.165 -0.499,-2.221 -0.445,-2.275 -0.389,-2.324 -0.329,-2.371 -0.267,-2.413 -0.202,-2.451 -0.135,-2.486 -0.066,-2.516 0.005,-2.541 0.077,-2.562 0.151,-2.579 0.225,-2.590 0.301,-2.597 0.376,-2.600 0.451,-2.597 0.526,-2.590 0.601,-2.579 0.674,-2.562 0.747,-2.541 0.818,-2.516 0.887,-2.486 0.954,-2.451 1.019,-2.413 1.081,-2.371 1.141,-2.324 1.197,-2.275 1.251,-2.221 1.300,-2.165 1.347,-2.105 1.389,-2.043 1.427,-1.978 1.462,-1.911 1.490,-1.841 1.510,-1.768 1.526,-1.695 1.537,-1.621 1.541,-1.547 1.542,-1.400 1.542,-1.400 1.540,-1.327 1.530,-1.180 1.521,-1.106 1.506,-1.033 1.485,-0.961 1.460,-0.890 1.427,-0.822 1.389,-0.757 1.347,-0.695 1.300,-0.635 1.251,-0.579 1.197,-0.525 1.141,-0.475 1.081,-0.429 1.019,-0.387 0.954,-0.348 0.887,-0.314 0.818,-0.284 0.747,-0.259 0.674,-0.238 0.601,-0.221 0.526,-0.210 0.451,-0.202 0.376,-0.200 0.301,-0.202 0.225,-0.210 0.151,-0.221 0.077,-0.238 0.005,-0.259 -0.066,-0.284 -0.135,-0.314 -0.202,-0.348 -0.267,-0.387 -0.329,-0.429 -0.389,-0.475 -0.445,-0.525 -0.499,-0.579 -0.549,-0.635 -0.595,-0.695 -0.637,-0.757 -0.676,-0.822 -0.710,-0.889 -0.740,-0.958 -0.765,-1.029 -0.786,-1.102 -0.803,-1.175 -0.815,-1.250 -0.822,-1.325" fill="rgb(255,255,255)" style="stroke:black;stroke-width:0.1"/>
<circle class="item-37" cx="2.584" cy="1.032" r="1.200" fill="rgb(255,255,255)" style="stroke:black;stroke-width:0.1"/>
<polygon class="item-32" points="-4.861,2.623 -4.858,2.548 -4.851,2.473 -4.839,2.398 -4.823,2.325 -4.802,2.253 -4.776,2.182 -4.746,2.112 -4.712,2.045 -4.674,1.980 -4.632,1.918 -4.585,1.858 -4.535,1.802 -4.482,1.749 -4.426,1.699 -4.366,1.653 -4.304,1.610 -4.239,1.572 -4.172,1.538 -4.103,1.508 -4.032,1.482 -3.959,1.461 -3.886,1.445 -3.811,1.433 -3.736,1.426 -3.661,1.423 -3.585,1.426 -3.510,1.433 -3.436,1.445 -3.362,1.461 -3.290,1.482 -3.219,1.508 -3.150,1.538 -3.083,1.572 -3.020,1.613 -2.912,1.718 -2.826,1.839 -2.787,1.900 -2.714,2.023 -2.679,2.083 -2.575,2.345 -2.536,2.481 -2.517,2.551 -2.504,2.623 -2.488,2.771 -2.489,2.847 -2.500,2.921 -2.520,2.994 -2.545,3.065 -2.575,3.134 -2.609,3.201 -2.648,3.266 -2.690,3.329 -2.736,3.388 -2.786,3.445 -2.839,3.498 -2.896,3.548 -2.956,3.594 -3.018,3.636 -3.083,3.675 -3.150,3.709 -3.219,3.739 -3.290,3.764 -3.362,3.785 -3.436,3.802 -3.510,3.814 -3.585,3.821 -3.661,3.823 -3.736,3.821 -3.811,3.814 -3.886,3.802 -3.959,3.785 -4.032,3.764 -4.103,3.739 -4.172,3.709 -4.239,3.675 -4.304,3.636 -4.366,3.594 -4.426,3.548 -4.482,3.498 -4.535,3.445 -4.585,3.388 -4.632,3.329 -4.674,3.266 -4.712,3.201 -4.746,3.134 -4.776,3.065 -4.802,2.994 -4.823,2.922 -4.839,2.848 -4.851,2.774 -4.858,2.699" fill="rgb(255,255,255)" style="stroke:black;stroke-width:0.1"/>
<circle class="item-2" cx="-2.344" cy="-2.934" r="1.520" fill="rgb(255,0,0)" style="stroke:black;stroke-width:0.1"/>
<polygon class="item-35" points="2.185,-2.578 2.188,-2.653 2.195,-2.728 2.207,-2.803 2.223,-2.876 2.244,-2.948 2.270,-3.019 2.300,-3.089 2.334,-3.156 2.372,-3.221 2.415,-3.283 2.461,-3.343 2.511,-3.399 2.564,-3.452 2.620,-3.502 2.680,-3.548 2.742,-3.591 2.807,-3.629 2.874,-3.663 2.944,-3.693 3.014,-3.719 3.087,-3.740 3.160,-3.756 3.235,-3.768 3.310,-3.775 3.385,-3.778 3.461,-3.775 3.536,-3.768 3.610,-3.756 3.684,-3.740 3.756,-3.719 3.827,-3.693 3.896,-3.663 3.963,-3.629 4.028,-3.591 4.091,-3.548 4.150,-3.502 4.207,-3.452 4.260,-3.399 4.310,-3.343 4.356,-3.283 4.398,-3.221 4.437,-3.156 4.471,-3.089 4.501,-3.019 4.526,-2.948 4.547,-2.876 4.564,-2.803 4.576,-2.728 4.583,-2.653 4.585,-2.578 4.585,-2.578 4.583,-2.502 4.576,-2.427 4.564,-2.353 4.547,-2.279 4.526,-2.207 4.501,-2.136 4.471,-2.067 4.437,-2.000 4.398,-1.935 4.356,-1.872 4.310,-1.813 4.260,-1.756 4.207,-1.703 4.150,-1.653 4.091,-1.607 4.028,-1.565 3.963,-1.526 3.896,-1.492 3.827,-1.462 3.756,-1.437 3.684,-1.416 3.610,-1.399 3.536,-1.387 3.461,-1.380 3.385,-1.378 3.310,-1.381 3.236,-1.395 3.164,-1.417 3.028,-1.478 2.963,-1.512 2.839,-1.584 2.726,-1.671 2.671,-1.714 2.618,-1.761 2.512,-1.855 2.418,-1.964 2.372,-2.021 2.286,-2.143 2.251,-2.209 2.224,-2.280 2.207,-2.353 2.195,-2.427 2.188,-2.502" fill="rgb(255,255,255)" style="stroke:black;stroke-width:0.1"/>
<polygon class="item-14" points="-4.184,1.730 -4.166,1.623 -4.127,1.524 -4.072,1.432 -4.012,1.344 -3.947,1.259 -3.876,1.179 -3.801,1.104 -3.721,1.033 -3.636,0.968 -3.548,0.908 -3.456,0.853 -3.359,0.809 -3.257,0.778 -3.154,0.750 -2.949,0.708 -2.742,0.672 -2.531,0.656 -2.425,0.661 -2.319,0.673 -2.214,0.696 -2.112,0.726 -2.011,0.762 -1.913,0.805 -1.818,0.853 -1.726,0.908 -1.638,0.968 -1.554,1.033 -1.474,1.104 -1.398,1.179 -1.327,1.259 -1.262,1.344 -1.202,1.432 -1.148,1.524 -1.099,1.619 -1.057,1.717 -1.021,1.817 -0.991,1.920 -0.967,2.024 -0.951,2.130 -0.941,2.236 -0.937,2.343 -0.937,2.343 -0.941,2.449 -0.951,2.556 -0.967,2.661 -0.991,2.765 -1.021,2.868 -1.057,2.968 -1.099,3.066 -1.148,3.162 -1.202,3.253 -1.262,3.342 -1.327,3.426 -1.398,3.506 -1.474,3.582 -1.554,3.652 -1.638,3.718 -1.726,3.778 -1.818,3.832 -1.913,3.881 -2.011,3.923 -2.112,3.959 -2.214,3.989 -2.319,4.012 -2.424,4.029 -2.530,4.039 -2.637,4.042 -2.744,4.039 -2.850,4.029 -2.956,4.012 -3.060,3.989 -3.162,3.959 -3.263,3.923 -3.361,3.881 -3.456,3.832 -3.547,3.776 -3.621,3.697 -3.682,3.605 -3.737,3.514 -3.829,3.328 -3.869,3.238 -4.006,2.885 -4.098,2.527 -4.136,2.343 -4.177,2.049" fill="rgb(48,48,48)" style="stroke:black;stroke-width:0.1"/>
<polygon class="item-17" points="1.207,-1.966 1.212,-2.073 1.225,-2.179 1.262,-2.280 1.304,-2.378 1.352,-2.473 1.407,-2.565 1.467,-2.653 1.532,-2.738 1.603,-2.818 1.678,-2.893 1.758,-2.964 1.843,-3.029 1.931,-3.089 2.023,-3.144 2.118,-3.192 2.216,-3.235 2.317,-3.271 2.419,-3.300 2.525,-3.314 2.740,-3.274 2.842,-3.242 3.033,-3.165 3.123,-3.126 3.457,-2.961 3.691,-2.823 3.997,-2.609 4.074,-2.549 4.234,-2.419 4.311,-2.345 4.389,-2.267 4.454,-2.178 4.488,-2.077 4.512,-1.973 4.528,-1.867 4.538,-1.761 4.542,-1.654 4.542,-1.654 4.538,-1.547 4.528,-1.441 4.512,-1.336 4.488,-1.231 4.459,-1.129 4.422,-1.028 4.380,-0.930 4.332,-0.835 4.277,-0.743 4.217,-0.655 4.152,-0.571 4.081,-0.491 4.006,-0.415 3.925,-0.344 3.841,-0.279 3.753,-0.219 3.661,-0.165 3.566,-0.116 3.468,-0.074 3.367,-0.038 3.265,-0.008 3.160,0.016 3.054,0.022 2.948,0.025 2.842,0.020 2.528,-0.010 2.424,-0.024 2.320,-0.047 2.216,-0.074 2.118,-0.116 2.023,-0.165 1.931,-0.219 1.843,-0.279 1.758,-0.344 1.678,-0.415 1.603,-0.491 1.532,-0.571 1.467,-0.655 1.407,-0.743 1.357,-0.838 1.327,-0.941 1.284,-1.148 1.247,-1.350 1.219,-1.654" fill="rgb(48,48,48)" style="stroke:black;stroke-width:0.1"/>
<polygon class="item-3" points="-6.932,0.687 -6.929,0.592 -6.920,0.497 -6.905,0.403 -6.884,0.309 -6.857,0.218 -6.825,0.128 -6.787,0.040 -6.744,-0.045 -6.695,-0.127 -6.641,-0.206 -6.583,-0.281 -6.520,-0.353 -6.452,-0.421 -6.380,-0.484 -6.305,-0.542 -6.226,-0.596 -6.144,-0.644 -6.059,-0.688 -5.971,-0.726 -5.881,-0.758 -5.790,-0.785 -5.697,-0.806 -5.602,-0.820 -5.507,-0.829 -5.412,-0.832 -5.316,-0.829 -5.221,-0.820 -5.127,-0.806 -5.034,-0.785 -4.942,-0.758 -4.852,-0.726 -4.765,-0.688 -4.680,-0.644 -4.597,-0.596 -4.518,-0.542 -4.443,-0.484 -4.371,-0.421 -4.304,-0.353 -4.241,-0.281 -4.182,-0.206 -4.129,-0.127 -4.080,-0.045 -4.037,0.040 -3.999,0.128 -3.966,0.218 -3.940,0.309 -3.919,0.403 -3.904,0.497 -3.895,0.592 -3.892,0.687 -3.892,0.687 -3.895,0.783 -3.904,0.878 -3.919,0.972 -3.940,1.065 -3.966,1.157 -3.999,1.247 -4.037,1.334 -4.080,1.420 -4.129,1.502 -4.182,1.581 -4.241,1.656 -4.305,1.727 -4.372,1.794 -4.444,1.857 -4.518,1.917 -4.597,1.971 -4.680,2.019 -4.765,2.063 -4.852,2.100 -4.942,2.133 -5.034,2.159 -5.127,2.180 -5.221,2.195 -5.316,2.204 -5.412,2.207 -5.507,2.204 -5.602,2.195 -5.697,2.180 -5.790,2.159 -5.881,2.133 -5.971,2.100 -6.059,2.063 -6.144,2.019 -6.226,1.971 -6.305,1.917 -6.380,1.858 -6.452,1.795 -6.520,1.728 -6.583,1.656 -6.641,1.581 -6.695,1.502 -6.744,1.420 -6.787,1.334 -6.825,1.247 -6.857,1.157 -6.884,1.065 -6.905,0.972 -6.920,0.878 -6.929,0.783" fill="rgb(255,0,0)" style="stroke:black;stroke-width:0.1"/>
<polygon class="item-19" points="1.854,0.433 1.871,0.329 1.892,0.224 1.927,0.123 1.969,0.025 2.017,-0.070 2.073,-0.161 2.181,-0.214 2.586,-0.364 2.765,-0.421 3.422,-0.601 3.880,-0.703 4.098,-0.745 4.220,-0.766 4.326,-0.741 4.418,-0.686 4.506,-0.626 4.590,-0.561 4.671,-0.490 4.746,-0.415 4.817,-0.335 4.882,-0.250 4.942,-0.162 4.997,-0.070 5.045,0.025 5.087,0.123 5.124,0.223 5.153,0.326 5.177,0.430 5.193,0.536 5.203,0.642 5.207,0.749 5.207,0.749 5.203,0.855 5.193,0.962 5.177,1.067 5.153,1.171 5.124,1.274 5.087,1.374 5.045,1.472 4.997,1.568 4.942,1.659 4.882,1.748 4.817,1.832 4.746,1.912 4.671,1.988 4.590,2.058 4.506,2.124 4.418,2.184 4.326,2.238 4.231,2.287 4.133,2.329 4.032,2.365 3.930,2.395 3.825,2.418 3.720,2.435 3.614,2.445 3.507,2.448 3.400,2.445 3.294,2.435 3.188,2.418 3.084,2.395 2.982,2.365 2.881,2.329 2.783,2.287 2.688,2.238 2.596,2.184 2.508,2.124 2.427,2.054 2.355,1.975 2.287,1.895 2.225,1.809 2.170,1.720 2.124,1.627 2.038,1.440 1.998,1.346 1.963,1.250 1.935,1.152 1.912,1.053 1.872,0.852 1.858,0.645 1.856,0.540" fill="rgb(48,48,48)" style="stroke:black;stroke-width:0.1"/>
<polygon class="item-30" points="-3.130,3.895 -3.109,3.798 -3.049,3.692 -2.970,3.592 -2.888,3.505 -2.732,3.374 -2.672,3.327 -2.454,3.174 -2.341,3.103 -2.143,2.994 -2.022,2.937 -1.776,2.834 -1.608,2.771 -1.373,2.711 -1.249,2.701 -1.133,2.712 -1.048,2.750 -1.011,2.816 -0.986,2.887 -0.964,2.960 -0.948,3.033 -0.936,3.108 -0.929,3.183 -0.927,3.258 -0.927,3.258 -0.929,3.333 -0.936,3.408 -0.948,3.483 -0.964,3.556 -0.986,3.629 -1.011,3.700 -1.041,3.769 -1.075,3.836 -1.114,3.901 -1.156,3.963 -1.202,4.023 -1.252,4.079 -1.305,4.133 -1.362,4.183 -1.421,4.229 -1.484,4.271 -1.549,4.310 -1.616,4.344 -1.685,4.374 -1.756,4.399 -1.828,4.420 -1.902,4.437 -1.976,4.448 -2.051,4.456 -2.127,4.458 -2.202,4.456 -2.277,4.448 -2.351,4.437 -2.425,4.420 -2.497,4.399 -2.568,4.374 -2.637,4.344 -2.705,4.310 -2.770,4.271 -2.832,4.229 -2.891,4.183 -2.948,4.133 -3.001,4.079 -3.051,4.023 -3.097,3.963" fill="rgb(255,255,255)" style="stroke:black;stroke-width:0.1"/>
<polygon class="item-34" points="-7.575,0.588 -7.573,0.512 -7.565,0.437 -7.554,0.363 -7.537,0.289 -7.516,0.217 -7.491,0.146 -7.461,0.077 -7.426,0.010 -7.388,-0.055 -7.346,-0.118 -7.300,-0.177 -7.250,-0.234 -7.196,-0.287 -7.140,-0.337 -7.080,-0.383 -7.018,-0.425 -6.953,-0.464 -6.886,-0.498 -6.817,-0.528 -6.746,-0.554 -6.673,-0.575 -6.600,-0.591 -6.525,-0.603 -6.450,-0.610 -6.375,-0.612 -6.300,-0.610 -6.225,-0.603 -6.158,-0.549 -6.127,-0.380 -6.111,-0.226 -6.110,0.106 -6.113,0.271 -6.129,0.490 -6.169,0.807 -6.198,1.035 -6.275,1.381 -6.315,1.541 -6.375,1.709 -6.450,1.785 -6.525,1.778 -6.600,1.766 -6.673,1.750 -6.746,1.729 -6.817,1.703 -6.886,1.673 -6.953,1.639 -7.018,1.601 -7.080,1.558 -7.140,1.512 -7.196,1.462 -7.250,1.409 -7.300,1.352 -7.346,1.293 -7.388,1.230 -7.426,1.166 -7.461,1.098 -7.491,1.029 -7.516,0.958 -7.537,0.886 -7.554,0.812 -7.565,0.738 -7.573,0.663" fill="rgb(255,255,255)" style="stroke:black;stroke-width:0.1"/>
<polygon class="item-39" points="2.974,2.786 2.977,2.710 2.984,2.635 2.996,2.561 3.012,2.487 3.033,2.415 3.070,2.348 3.148,2.303 3.297,2.229 3.366,2.198 3.553,2.125 3.918,1.998 4.121,1.932 4.288,1.886 4.483,1.836 4.639,1.798 4.811,1.783 4.880,1.815 4.939,1.861 4.996,1.911 5.049,1.964 5.099,2.021 5.145,2.080 5.187,2.143 5.226,2.208 5.260,2.275 5.290,2.344 5.315,2.415 5.336,2.487 5.353,2.561 5.365,2.635 5.372,2.710 5.374,2.786 5.374,2.786 5.372,2.861 5.365,2.936 5.353,3.011 5.336,3.084 5.315,3.156 5.290,3.227 5.260,3.297 5.226,3.364 5.187,3.429 5.145,3.491 5.099,3.551 5.049,3.607 4.996,3.660 4.939,3.710 4.880,3.756 4.817,3.799 4.752,3.837 4.685,3.871 4.616,3.901 4.545,3.927 4.473,3.948 4.399,3.964 4.325,3.976 4.250,3.983 4.174,3.986 4.099,3.983 4.024,3.976 3.949,3.964 3.876,3.948 3.803,3.927 3.733,3.901 3.663,3.871 3.596,3.837 3.531,3.799 3.469,3.756 3.409,3.710 3.353,3.660 3.300,3.607 3.250,3.551 3.204,3.491 3.161,3.429 3.123,3.364 3.089,3.297 3.059,3.227 3.033,3.156 3.012,3.084 2.996,3.011 2.984,2.936 2.977,2.861" fill="rgb(255,255,255)" style="stroke:black;stroke-width:0.1"/>
<polygon class="item-18" points="2.163,-0.270 2.197,-0.380 2.243,-0.485 2.366,-0.674 2.530,-0.912 2.586,-0.981 2.746,-1.167 2.859,-1.273 3.243,-1.612 3.362,-1.710 3.567,-1.846 3.808,-1.999 3.900,-2.053 4.105,-2.143 4.215,-2.171 4.328,-2.184 4.434,-2.164 4.532,-2.122 4.627,-2.073 4.719,-2.019 4.807,-1.959 4.891,-1.893 4.971,-1.823 5.047,-1.747 5.118,-1.667 5.183,-1.583 5.243,-1.494 5.297,-1.402 5.346,-1.307 5.388,-1.209 5.424,-1.109 5.454,-1.006 5.478,-0.902 5.494,-0.797 5.504,-0.690 5.508,-0.584 5.508,-0.584 5.504,-0.477 5.494,-0.370 5.478,-0.265 5.454,-0.161 5.424,-0.058 5.388,0.042 5.346,0.140 5.297,0.235 5.243,0.327 5.183,0.416 5.098,0.484 4.966,0.504 4.834,0.509 4.710,0.507 4.307,0.478 4.146,0.456 3.934,0.416 3.747,0.379 3.453,0.313 3.268,0.268 2.828,0.129 2.527,0.019 2.415,-0.032 2.298,-0.093 2.196,-0.170" fill="rgb(48,48,48)" style="stroke:black;stroke-width:0.1"/>
<polygon class="item-10" points="-4.827,-0.573 -4.808,-0.678 -4.765,-0.776 -4.717,-0.871 -4.662,-0.963 -4.602,-1.052 -4.537,-1.136 -4.466,-1.216 -4.391,-1.292 -4.311,-1.362 -4.226,-1.428 -4.138,-1.488 -4.046,-1.542 -3.951,-1.591 -3.853,-1.633 -3.752,-1.669 -3.650,-1.699 -3.546,-1.722 -3.440,-1.739 -3.334,-1.749 -3.227,-1.752 -3.120,-1.749 -3.014,-1.739 -2.909,-1.722 -2.804,-1.699 -2.702,-1.669 -2.601,-1.633 -2.503,-1.591 -2.408,-1.542 -2.316,-1.488 -2.228,-1.428 -2.144,-1.362 -2.064,-1.292 -1.988,-1.216 -1.917,-1.136 -1.852,-1.052 -1.792,-0.963 -1.738,-0.871 -1.689,-0.776 -1.647,-0.678 -1.611,-0.578 -1.581,-0.475 -1.557,-0.371 -1.541,-0.266 -1.531,-0.159 -1.527,-0.053 -1.527,-0.053 -1.531,0.054 -1.541,0.160 -1.557,0.266 -1.581,0.370 -1.611,0.473 -1.647,0.573 -1.689,0.671 -1.738,0.766 -1.792,0.858 -1.852,0.946 -1.931,1.020 -2.023,1.078 -2.116,1.131 -2.305,1.216 -2.399,1.253 -2.764,1.373 -2.854,1.399 -2.946,1.419 -3.324,1.491 -3.424,1.503 -3.738,1.519 -3.843,1.504 -3.950,1.484 -4.046,1.437 -4.138,1.383 -4.211,1.302 -4.272,1.210 -4.327,1.118 -4.419,0.933 -4.459,0.843 -4.596,0.489 -4.627,0.402 -4.714,0.135 -4.803,-0.252 -4.822,-0.357 -4.827,-0.463" fill="rgb(48,48,48)" style="stroke:black;stroke-width:0.1"/>
<polygon class="item-21" points="2.765,2.161 2.792,2.047 2.826,1.939 2.882,1.836 3.060,1.571 3.275,1.294 3.485,1.074 3.856,0.747 4.168,0.514 4.241,0.466 5.086,0.287 5.208,0.273 5.313,0.305 5.401,0.365 5.485,0.431 5.565,0.501 5.641,0.577 5.712,0.657 5.777,0.741 5.837,0.830 5.891,0.922 5.940,1.017 5.982,1.115 6.018,1.215 6.048,1.318 6.072,1.422 6.088,1.527 6.098,1.634 6.102,1.740 6.102,1.740 6.098,1.847 6.088,1.953 6.072,2.059 6.048,2.163 6.018,2.266 5.982,2.366 5.940,2.464 5.891,2.559 5.837,2.651 5.777,2.739 5.712,2.824 5.641,2.904 5.565,2.979 5.485,3.050 5.401,3.116 5.313,3.176 5.213,3.215 5.100,3.223 4.781,3.216 4.402,3.156 4.142,3.101 3.706,3.006 3.431,2.914 3.231,2.840 3.035,2.733 2.967,2.651 2.912,2.559 2.864,2.464 2.821,2.366 2.785,2.266" fill="rgb(48,48,48)" style="stroke:black;stroke-width:0.1"/>
<polygon class="item-7" points="-1.042,-1.769 -1.039,-1.867 -1.030,-1.964 -1.015,-2.060 -0.993,-2.155 -0.966,-2.248 -0.933,-2.340 -0.895,-2.429 -0.850,-2.516 -0.801,-2.600 -0.746,-2.680 -0.686,-2.757 -0.622,-2.830 -0.553,-2.899 -0.480,-2.963 -0.403,-3.023 -0.323,-3.078 -0.239,-3.127 -0.152,-3.172 -0.063,-3.210 0.029,-3.243 0.122,-3.270 0.217,-3.292 0.313,-3.307 0.410,-3.316 0.508,-3.319 0.605,-3.316 0.702,-3.307 0.798,-3.292 0.893,-3.270 0.987,-3.243 1.078,-3.210 1.168,-3.172 1.254,-3.127 1.338,-3.078 1.419,-3.023 1.496,-2.963 1.569,-2.899 1.637,-2.830 1.702,-2.757 1.749,-2.671 1.779,-2.576 1.805,-2.482 1.837,-2.296 1.853,-2.115 1.850,-1.769 1.847,-1.685 1.831,-1.430 1.783,-1.169 1.744,-0.984 1.716,-0.891 1.677,-0.802 1.634,-0.712 1.569,-0.640 1.496,-0.575 1.419,-0.515 1.338,-0.461 1.254,-0.411 1.168,-0.367 1.078,-0.328 0.987,-0.295 0.893,-0.268 0.798,-0.247 0.702,-0.232 0.605,-0.223 0.508,-0.220 0.410,-0.223 0.313,-0.232 0.217,-0.247 0.122,-0.268 0.029,-0.295 -0.063,-0.328 -0.152,-0.367 -0.239,-0.411 -0.323,-0.461 -0.403,-0.515 -0.480,-0.575 -0.553,-0.640 -0.622,-0.708 -0.686,-0.781 -0.746,-0.858 -0.801,-0.939 -0.850,-1.023 -0.895,-1.109 -0.933,-1.199 -0.966,-1.290 -0.993,-1.384 -1.015,-1.479 -1.030,-1.575 -1.039,-1.672" fill="rgb(0,0,255)" style="stroke:black;stroke-width:0.1"/>
<polygon class="item-12" points="-3.678,-2.215 -3.675,-2.321 -3.665,-2.428 -3.648,-2.533 -3.625,-2.637 -3.595,-2.740 -3.559,-2.840 -3.515,-2.938 -3.463,-3.031 -3.405,-3.120 -3.339,-3.204 -3.199,-3.361 -3.039,-3.497 -2.956,-3.561 -2.774,-3.662 -2.682,-3.710 -2.492,-3.797 -2.392,-3.826 -2.188,-3.876 -1.978,-3.897 -1.872,-3.901 -1.766,-3.896 -1.660,-3.883 -1.555,-3.861 -1.453,-3.831 -1.352,-3.795 -1.254,-3.753 -1.159,-3.704 -1.067,-3.650 -0.979,-3.590 -0.895,-3.524 -0.815,-3.454 -0.739,-3.378 -0.668,-3.298 -0.603,-3.214 -0.543,-3.126 -0.489,-3.034 -0.473,-2.923 -0.484,-2.806 -0.661,-1.787 -0.770,-1.215 -0.818,-0.979 -0.895,-0.905 -0.979,-0.840 -1.067,-0.780 -1.159,-0.725 -1.254,-0.677 -1.352,-0.634 -1.453,-0.598 -1.555,-0.568 -1.666,-0.580 -1.978,-0.742 -2.597,-1.089 -2.881,-1.253 -3.198,-1.441 -3.377,-1.556 -3.585,-1.693 -3.625,-1.792 -3.648,-1.896 -3.665,-2.002 -3.675,-2.108" fill="rgb(48,48,48)" style="stroke:black;stroke-width:0.1"/>
<polygon class="item-15" points="-6.371,-0.443 -6.359,-0.550 -6.336,-0.654 -6.306,-0.756 -6.270,-0.857 -6.228,-0.955 -6.179,-1.050 -6.125,-1.142 -6.065,-1.230 -5.999,-1.314 -5.929,-1.395 -5.853,-1.470 -5.773,-1.541 -5.689,-1.606 -5.600,-1.666 -5.509,-1.721 -5.413,-1.769 -5.315,-1.811 -5.215,-1.848 -5.112,-1.877 -5.008,-1.901 -4.903,-1.917 -4.796,-1.927 -4.690,-1.931 -4.583,-1.927 -4.477,-1.917 -4.371,-1.901 -4.267,-1.877 -4.164,-1.848 -4.064,-1.811 -3.966,-1.769 -3.871,-1.721 -3.779,-1.666 -3.712,-1.577 -3.677,-1.455 -3.664,-1.323 -3.647,-1.093 -3.650,-0.986 -3.672,-0.492 -3.684,-0.294 -3.731,0.080 -3.835,0.679 -3.956,1.104 -4.006,1.223 -4.073,1.326 -4.164,1.386 -4.267,1.415 -4.372,1.434 -4.480,1.430 -4.690,1.408 -4.889,1.345 -4.983,1.309 -5.250,1.185 -5.493,1.034 -5.570,0.981 -5.645,0.924 -5.715,0.861 -5.922,0.664 -6.108,0.437 -6.228,0.164 -6.268,0.070 -6.300,-0.028 -6.354,-0.231 -6.369,-0.337" fill="rgb(48,48,48)" style="stroke:black;stroke-width:0.1"/>
<polygon class="item-16" points="0.496,-2.427 0.497,-2.520 0.500,-2.721 0.507,-2.828 0.528,-2.933 0.550,-3.044 0.593,-3.145 0.651,-3.237 0.729,-3.309 0.814,-3.374 0.902,-3.434 0.994,-3.489 1.089,-3.537 1.187,-3.580 1.288,-3.616 1.390,-3.646 1.494,-3.669 1.600,-3.686 1.706,-3.696 1.813,-3.699 1.920,-3.696 2.026,-3.686 2.131,-3.669 2.236,-3.646 2.338,-3.616 2.439,-3.580 2.537,-3.537 2.632,-3.489 2.724,-3.434 2.812,-3.374 2.896,-3.309 2.977,-3.238 3.052,-3.163 3.123,-3.083 3.188,-2.998 3.248,-2.910 3.298,-2.816 3.342,-2.719 3.378,-2.619 3.405,-2.517 3.425,-2.413 3.436,-2.309 3.439,-2.205 3.436,-1.999 3.407,-1.798 3.373,-1.702 3.332,-1.609 3.284,-1.521 3.078,-1.196 3.025,-1.119 2.856,-0.889 2.653,-0.675 2.504,-0.530 2.421,-0.463 2.333,-0.399 2.236,-0.353 2.131,-0.330 2.026,-0.313 1.920,-0.303 1.813,-0.300 1.706,-0.303 1.600,-0.313 1.494,-0.330 1.390,-0.353 1.288,-0.383 1.187,-0.419 1.094,-0.471 1.017,-0.552 0.952,-0.643 0.891,-0.731 0.842,-0.826 0.760,-1.010 0.722,-1.097 0.693,-1.185 0.619,-1.438 0.551,-1.759 0.538,-1.838 0.504,-2.165" fill="rgb(48,48,48)" style="stroke:black;stroke-width:0.1"/>
<polygon class="item-9" points="-4.318,1.386 -4.266,1.279 -4.212,1.180 -4.161,1.085 -4.053,0.913 -4.001,0.833 -3.841,0.612 -3.769,0.554 -3.564,0.400 -3.423,0.317 -3.143,0.183 -3.073,0.153 -2.784,0.040 -2.544,-0.038 -2.457,-0.063 -2.172,-0.121 -2.066,-0.137 -1.845,-0.143 -1.735,-0.126 -1.629,-0.094 -1.544,-0.030 -1.463,0.040 -1.388,0.116 -1.317,0.196 -1.252,0.280 -1.192,0.368 -1.137,0.460 -1.089,0.556 -1.047,0.654 -1.010,0.754 -0.981,0.857 -0.957,0.961 -0.941,1.066 -0.931,1.173 -0.927,1.279 -0.927,1.279 -0.931,1.386 -0.941,1.492 -0.957,1.598 -0.981,1.702 -1.010,1.805 -1.047,1.905 -1.089,2.003 -1.137,2.098 -1.192,2.190 -1.252,2.278 -1.317,2.363 -1.389,2.442 -1.467,2.515 -1.550,2.581 -1.730,2.693 -1.825,2.737 -1.924,2.774 -2.121,2.838 -2.323,2.874 -2.424,2.890 -2.525,2.899 -2.729,2.899 -2.830,2.890 -2.931,2.874 -3.133,2.838 -3.330,2.774 -3.519,2.684 -3.611,2.634 -3.700,2.576 -3.784,2.511 -3.865,2.442 -3.937,2.363 -4.002,2.278 -4.062,2.190 -4.117,2.098 -4.165,2.003 -4.207,1.905 -4.244,1.805 -4.273,1.702 -4.297,1.598 -4.313,1.492" fill="rgb(48,48,48)" style="stroke:black;stroke-width:0.1"/>
<polygon class="item-20" points="3.585,-1.399 3.586,-1.603 3.629,-1.805 3.660,-1.907 3.765,-2.090 3.834,-2.171 3.905,-2.250 3.987,-2.319 4.075,-2.379 4.167,-2.434 4.262,-2.482 4.360,-2.525 4.460,-2.561 4.563,-2.591 4.667,-2.614 4.773,-2.631 4.879,-2.641 4.986,-2.644 5.092,-2.641 5.199,-2.631 5.304,-2.614 5.408,-2.591 5.511,-2.561 5.611,-2.525 5.709,-2.482 5.805,-2.434 5.896,-2.379 5.985,-2.319 6.069,-2.254 6.149,-2.183 6.225,-2.108 6.295,-2.028 6.361,-1.943 6.421,-1.855 6.475,-1.763 6.524,-1.668 6.566,-1.570 6.602,-1.469 6.632,-1.367 6.655,-1.263 6.672,-1.157 6.682,-1.051 6.685,-0.944 6.685,-0.944 6.682,-0.837 6.672,-0.731 6.655,-0.626 6.632,-0.521 6.602,-0.419 6.566,-0.318 6.524,-0.220 6.475,-0.125 6.421,-0.033 6.361,0.055 6.295,0.139 6.225,0.219 6.149,0.295 6.069,0.365 5.985,0.431 5.896,0.491 5.805,0.545 5.709,0.594 5.611,0.636 5.506,0.656 5.397,0.656 5.290,0.650 4.792,0.590 4.508,0.526 4.318,0.475 4.241,0.411 4.170,0.342 4.105,0.268 3.954,0.025 3.843,-0.219 3.731,-0.536 3.636,-0.859 3.595,-1.209 3.587,-1.303" fill="rgb(48,48,48)" style="stroke:black;stroke-width:0.1"/>
<polygon class="item-23" points="4.188,0.935 4.195,0.838 4.215,0.635 4.232,0.529 4.289,0.446 4.397,0.404 4.600,0.337 4.953,0.234 5.192,0.168 5.348,0.128 5.589,0.071 5.948,-0.009 6.158,-0.048 6.399,-0.085 6.499,-0.045 6.588,0.015 6.672,0.080 6.752,0.151 6.828,0.226 6.898,0.307 6.964,0.391 7.024,0.479 7.078,0.571 7.127,0.666 7.169,0.764 7.205,0.865 7.235,0.967 7.258,1.071 7.275,1.177 7.285,1.283 7.288,1.390 7.288,1.390 7.285,1.497 7.275,1.603 7.258,1.708 7.235,1.813 7.205,1.915 7.169,2.016 7.127,2.114 7.078,2.209 7.024,2.301 6.964,2.389 6.898,2.473 6.828,2.554 6.752,2.629 6.672,2.700 6.588,2.765 6.499,2.825 6.407,2.880 6.312,2.928 6.214,2.970 6.114,3.007 6.011,3.036 5.907,3.060 5.802,3.076 5.695,3.086 5.589,3.090 5.482,3.086 5.376,3.076 5.270,3.060 5.168,3.026 5.074,2.973 4.985,2.913 4.905,2.844 4.833,2.764 4.708,2.602 4.650,2.524 4.600,2.443 4.557,2.359 4.403,2.042 4.238,1.475 4.198,1.125 4.189,1.031" fill="rgb(48,48,48)" style="stroke:black;stroke-width:0.1"/>
<polygon class="item-6" points="-3.981,-1.594 -3.978,-1.695 -3.940,-1.785 -3.896,-1.872 -3.847,-1.956 -3.792,-2.036 -3.732,-2.113 -3.668,-2.186 -3.599,-2.255 -3.523,-2.316 -3.435,-2.360 -3.339,-2.387 -3.236,-2.394 -3.138,-2.401 -3.041,-2.396 -2.859,-2.375 -2.775,-2.366 -2.693,-2.349 -2.614,-2.326 -2.395,-2.255 -2.197,-2.176 -1.889,-2.019 -1.708,-1.905 -1.522,-1.770 -1.457,-1.720 -1.396,-1.663 -1.338,-1.601 -1.215,-1.465 -1.153,-1.390 -1.102,-1.307 -1.061,-1.218 -1.021,-1.126 -0.996,-1.028 -1.001,-0.931 -1.016,-0.835 -1.037,-0.740 -1.064,-0.647 -1.097,-0.555 -1.136,-0.466 -1.180,-0.379 -1.230,-0.295 -1.284,-0.215 -1.344,-0.138 -1.408,-0.065 -1.477,0.004 -1.571,0.043 -1.977,0.066 -2.231,0.069 -2.837,0.040 -3.102,-0.099 -3.166,-0.136 -3.227,-0.178 -3.465,-0.359 -3.645,-0.517 -3.681,-0.588 -3.712,-0.661 -3.853,-1.043 -3.880,-1.126 -3.972,-1.494" fill="rgb(0,0,255)" style="stroke:black;stroke-width:0.1"/>
<polygon class="item-38" points="4.084,-2.356 4.106,-2.428 4.136,-2.497 4.170,-2.565 4.209,-2.629 4.251,-2.692 4.297,-2.751 4.347,-2.808 4.400,-2.861 4.457,-2.911 4.517,-2.957 4.579,-3.000 4.644,-3.038 4.711,-3.072 4.780,-3.102 4.851,-3.128 4.923,-3.149 4.997,-3.165 5.071,-3.177 5.146,-3.184 5.222,-3.186 5.297,-3.184 5.372,-3.177 5.447,-3.165 5.520,-3.149 5.593,-3.128 5.663,-3.102 5.733,-3.072 5.800,-3.038 5.865,-3.000 5.927,-2.957 5.987,-2.911 6.043,-2.861 6.096,-2.808 6.146,-2.751 6.192,-2.692 6.235,-2.629 6.273,-2.565 6.307,-2.497 6.337,-2.428 6.363,-2.357 6.384,-2.285 6.400,-2.211 6.412,-2.137 6.419,-2.062 6.422,-1.987 6.422,-1.987 6.419,-1.911 6.411,-1.836 6.294,-1.782 6.050,-1.774 5.808,-1.796 5.669,-1.809 5.561,-1.827 5.486,-1.841 5.270,-1.883 5.134,-1.914 4.921,-1.968 4.610,-2.064 4.408,-2.142 4.180,-2.254" fill="rgb(255,255,255)" style="stroke:black;stroke-width:0.1"/>
<polygon class="item-11" points="-2.107,-2.202 -2.093,-2.292 -2.073,-2.380 -2.006,-2.648 -1.907,-2.916 -1.866,-3.007 -1.817,-3.094 -1.709,-3.272 -1.566,-3.426 -1.485,-3.496 -1.397,-3.558 -1.300,-3.602 -1.199,-3.638 -1.097,-3.667 -0.993,-3.691 -0.887,-3.707 -0.781,-3.718 -0.674,-3.721 -0.567,-3.718 -0.461,-3.707 -0.356,-3.691 -0.252,-3.667 -0.149,-3.638 -0.048,-3.602 0.050,-3.559 0.145,-3.511 0.237,-3.456 0.325,-3.396 0.409,-3.331 0.489,-3.260 0.565,-3.185 0.632,-3.101 0.662,-2.992 0.682,-2.882 0.700,-2.777 0.719,-2.573 0.745,-2.292 0.741,-2.021 0.738,-1.932 0.726,-1.566 0.719,-1.469 0.704,-1.373 0.667,-1.170 0.625,-1.077 0.577,-0.986 0.520,-0.899 0.457,-0.817 0.386,-0.739 0.315,-0.660 0.234,-0.590 0.145,-0.532 0.050,-0.483 -0.048,-0.441 -0.149,-0.405 -0.252,-0.375 -0.356,-0.351 -0.461,-0.335 -0.567,-0.325 -0.674,-0.321 -0.781,-0.325 -0.887,-0.335 -0.993,-0.351 -1.097,-0.375 -1.198,-0.409 -1.277,-0.498 -1.342,-0.602 -1.506,-0.876 -1.636,-1.118 -1.714,-1.266 -1.919,-1.702 -2.024,-1.936 -2.059,-2.021 -2.087,-2.110" fill="rgb(48,48,48)" style="stroke:black;stroke-width:0.1"/>
<polygon class="item-1" points="-2.298,0.167 -2.275,0.065 -2.063,-0.151 -1.537,-0.593 -1.456,-0.657 -1.360,-0.692 -1.054,-0.675 0.050,-0.594 0.174,-0.583 0.284,-0.543 0.370,-0.470 0.450,-0.390 0.525,-0.305 0.594,-0.216 0.658,-0.122 0.715,-0.025 0.767,0.076 0.811,0.180 0.850,0.286 0.881,0.395 0.906,0.505 0.924,0.617 0.934,0.729 0.938,0.842 0.938,0.842 0.934,0.955 0.924,1.068 0.906,1.179 0.881,1.290 0.850,1.398 0.811,1.505 0.767,1.608 0.715,1.709 0.658,1.807 0.594,1.900 0.525,1.989 0.450,2.074 0.370,2.154 0.285,2.229 0.196,2.298 0.102,2.362 0.005,2.419 -0.096,2.471 -0.199,2.516 -0.306,2.554 -0.414,2.585 -0.525,2.610 -0.636,2.628 -0.749,2.638 -0.862,2.642 -0.975,2.638 -1.087,2.628 -1.199,2.610 -1.310,2.585 -1.418,2.554 -1.524,2.516 -1.617,2.446 -1.690,2.348 -1.752,2.244 -1.931,1.846 -1.966,1.755 -2.119,1.251 -2.161,1.090 -2.220,0.757 -2.284,0.279" fill="rgb(255,255,0)" style="stroke:black;stroke-width:0.1"/>
<polygon class="item-22" points="4.259,0.464 4.271,0.355 4.305,0.247 4.360,0.143 4.538,-0.122 4.754,-0.398 4.963,-0.619 5.334,-0.946 5.646,-1.179 5.719,-1.227 5.969,-1.365 6.170,-1.471 6.280,-1.508 6.395,-1.535 6.504,-1.528 6.604,-1.490 6.699,-1.442 6.791,-1.388 6.880,-1.328 6.964,-1.262 7.044,-1.192 7.120,-1.116 7.190,-1.036 7.256,-0.952 7.316,-0.863 7.370,-0.771 7.418,-0.676 7.461,-0.578 7.497,-0.478 7.527,-0.375 7.550,-0.271 7.567,-0.165 7.577,-0.059 7.580,0.048 7.580,0.048 7.577,0.154 7.567,0.261 7.550,0.366 7.527,0.470 7.497,0.573 7.461,0.673 7.418,0.771 7.370,0.866 7.316,0.958 7.256,1.047 7.163,1.108 6.906,1.140 6.783,1.138 6.464,1.109 6.142,1.065 5.820,1.010 5.526,0.944 5.340,0.899 5.132,0.844 4.977,0.795 4.796,0.736 4.695,0.699 4.487,0.599 4.370,0.538" fill="rgb(48,48,48)" style="stroke:black;stroke-width:0.1"/>
<polygon class="item-41" points="5.450,2.947 5.484,2.825 5.551,2.695 5.610,2.591 5.727,2.425 5.828,2.311 5.984,2.143 6.029,2.096 6.110,2.017 6.163,1.970 6.412,1.772 6.633,1.614 6.721,1.562 6.939,1.466 7.069,1.426 7.184,1.419 7.256,1.457 7.298,1.519 7.337,1.584 7.371,1.651 7.401,1.720 7.426,1.791 7.447,1.864 7.464,1.937 7.475,2.012 7.483,2.087 7.485,2.162 7.485,2.162 7.483,2.238 7.475,2.313 7.464,2.387 7.447,2.461 7.426,2.533 7.401,2.604 7.371,2.673 7.337,2.740 7.298,2.805 7.256,2.867 7.210,2.927 7.160,2.984 7.106,3.037 7.050,3.087 6.990,3.133 6.928,3.175 6.863,3.214 6.796,3.248 6.727,3.278 6.656,3.303 6.583,3.324 6.510,3.341 6.435,3.353 6.360,3.360 6.285,3.362 6.210,3.360 6.135,3.353 6.060,3.341 5.987,3.324 5.914,3.303 5.843,3.278 5.774,3.248 5.707,3.214 5.642,3.175 5.580,3.133 5.520,3.087 5.469,3.032" fill="rgb(255,255,255)" style="stroke:black;stroke-width:0.1"/>
<polygon class="item-4" points="-6.696,-1.086 -6.693,-1.181 -6.684,-1.276 -6.669,-1.370 -6.648,-1.464 -6.621,-1.555 -6.589,-1.645 -6.551,-1.733 -6.508,-1.818 -6.459,-1.900 -6.405,-1.979 -6.347,-2.054 -6.284,-2.126 -6.216,-2.194 -6.144,-2.257 -6.069,-2.315 -5.990,-2.369 -5.908,-2.417 -5.823,-2.461 -5.735,-2.499 -5.645,-2.531 -5.554,-2.558 -5.461,-2.579 -5.366,-2.593 -5.271,-2.602 -5.176,-2.605 -5.080,-2.602 -4.985,-2.593 -4.891,-2.579 -4.798,-2.558 -4.706,-2.531 -4.616,-2.499 -4.529,-2.461 -4.444,-2.417 -4.361,-2.369 -4.282,-2.315 -4.207,-2.257 -4.135,-2.194 -4.068,-2.126 -4.005,-2.054 -3.946,-1.979 -3.893,-1.900 -3.852,-1.813 -3.810,-1.529 -3.799,-1.348 -3.793,-1.086 -3.793,-1.086 -3.796,-0.999 -3.804,-0.912 -3.818,-0.827 -3.857,-0.747 -3.901,-0.672 -4.007,-0.536 -4.067,-0.476 -4.244,-0.315 -4.424,-0.177 -4.741,0.011 -5.098,0.150 -5.338,0.196 -5.422,0.207 -5.509,0.212 -5.692,0.218 -5.787,0.214 -5.967,0.162 -6.060,0.132 -6.142,0.082 -6.216,0.022 -6.284,-0.045 -6.347,-0.117 -6.405,-0.192 -6.459,-0.271 -6.508,-0.353 -6.551,-0.439 -6.589,-0.526 -6.621,-0.616 -6.648,-0.708 -6.669,-0.801 -6.684,-0.895 -6.693,-0.990" fill="rgb(255,0,0)" style="stroke:black;stroke-width:0.1"/>
<polygon class="item-40" points="6.286,-0.712 6.294,-0.842 6.301,-0.917 6.333,-1.082 6.362,-1.166 6.397,-1.254 6.450,-1.315 6.510,-1.370 6.580,-1.403 6.654,-1.416 6.729,-1.423 6.804,-1.425 6.880,-1.423 6.955,-1.416 7.029,-1.404 7.103,-1.387 7.175,-1.366 7.246,-1.341 7.315,-1.311 7.382,-1.277 7.447,-1.238 7.509,-1.196 7.569,-1.150 7.626,-1.100 7.679,-1.047 7.729,-0.990 7.775,-0.930 7.817,-0.868 7.856,-0.803 7.890,-0.736 7.920,-0.667 7.945,-0.596 7.966,-0.524 7.983,-0.450 7.995,-0.376 8.002,-0.301 8.004,-0.225 8.004,-0.225 8.002,-0.150 7.995,-0.075 7.983,-0.000 7.966,0.073 7.945,0.146 7.920,0.216 7.890,0.286 7.856,0.353 7.817,0.418 7.775,0.480 7.729,0.540 7.679,0.596 7.626,0.649 7.569,0.699 7.509,0.745 7.447,0.788 7.382,0.826 7.315,0.860 7.245,0.887 7.169,0.899 7.089,0.885 7.009,0.847 6.934,0.806 6.866,0.750 6.750,0.628 6.704,0.569 6.665,0.503 6.510,0.239 6.453,0.104 6.413,-0.010 6.359,-0.197 6.332,-0.315 6.307,-0.459" fill="rgb(255,255,255)" style="stroke:black;stroke-width:0.1"/>
<polygon class="item-8" points="-2.948,-0.505 -2.946,-0.607 -2.935,-0.905 -2.868,-1.191 -2.841,-1.284 -2.744,-1.562 -2.655,-1.740 -2.608,-1.830 -2.492,-2.001 -2.423,-2.079 -2.348,-2.152 -2.267,-2.220 -2.177,-2.273 -2.083,-2.321 -1.973,-2.330 -1.866,-2.334 -1.760,-2.325 -1.558,-2.293 -1.196,-2.180 -0.808,-2.000 -0.734,-1.963 -0.663,-1.920 -0.384,-1.732 -0.175,-1.565 -0.104,-1.502 -0.038,-1.433 0.101,-1.284 0.168,-1.201 0.225,-1.110 0.269,-1.013 0.309,-0.912 0.330,-0.806 0.330,-0.806 0.326,-0.700 0.316,-0.593 0.300,-0.488 0.275,-0.384 0.222,-0.289 0.153,-0.203 0.067,-0.130 -0.015,-0.061 -0.105,-0.003 -0.279,0.096 -0.361,0.142 -0.594,0.261 -0.751,0.320 -1.289,0.476 -1.540,0.536 -1.816,0.568 -2.019,0.572 -2.125,0.568 -2.231,0.550 -2.324,0.507 -2.492,0.388 -2.574,0.325 -2.652,0.254 -2.724,0.178 -2.791,0.095 -2.851,0.008 -2.885,-0.093 -2.928,-0.300 -2.942,-0.403" fill="rgb(48,48,48)" style="stroke:black;stroke-width:0.1"/>
<polygon class="item-29" points="-5.504,2.169 -5.502,2.093 -5.495,2.018 -5.483,1.944 -5.467,1.870 -5.446,1.798 -5.420,1.727 -5.390,1.658 -5.356,1.591 -5.318,1.526 -5.275,1.463 -5.229,1.404 -5.179,1.347 -5.126,1.294 -5.069,1.244 -5.010,1.198 -4.948,1.156 -4.883,1.117 -4.815,1.083 -4.746,1.053 -4.675,1.027 -4.603,1.006 -4.529,0.990 -4.455,0.978 -4.380,0.971 -4.305,0.969 -4.229,0.971 -4.154,0.978 -4.080,0.990 -4.006,1.006 -3.934,1.027 -3.864,1.056 -3.799,1.094 -3.735,1.133 -3.625,1.233 -3.574,1.286 -3.478,1.392 -3.398,1.510 -3.358,1.568 -3.262,1.756 -3.239,1.822 -3.191,1.956 -3.168,2.025 -3.150,2.096 -3.138,2.169 -3.132,2.242 -3.126,2.317 -3.133,2.392 -3.144,2.467 -3.164,2.539 -3.189,2.610 -3.219,2.679 -3.253,2.747 -3.292,2.811 -3.334,2.874 -3.380,2.933 -3.430,2.990 -3.483,3.043 -3.540,3.093 -3.599,3.139 -3.662,3.182 -3.727,3.220 -3.794,3.254 -3.863,3.284 -3.934,3.310 -4.006,3.331 -4.080,3.347 -4.154,3.359 -4.229,3.366 -4.305,3.368 -4.380,3.366 -4.455,3.359 -4.529,3.347 -4.603,3.331 -4.675,3.310 -4.746,3.284 -4.815,3.254 -4.883,3.220 -4.948,3.182 -5.010,3.139 -5.069,3.093 -5.126,3.043 -5.179,2.990 -5.229,2.933 -5.275,2.874 -5.318,2.811 -5.356,2.747 -5.390,2.679 -5.420,2.610 -5.446,2.539 -5.467,2.467 -5.483,2.393 -5.495,2.319 -5.502,2.244" fill="rgb(255,255,255)" style="stroke:black;stroke-width:0.1"/>
<polygon class="item-26" points="-1.672,-3.069 -1.670,-3.145 -1.652,-3.218 -1.627,-3.289 -1.597,-3.358 -1.562,-3.425 -1.524,-3.490 -1.482,-3.552 -1.435,-3.612 -1.386,-3.668 -1.332,-3.722 -1.276,-3.772 -1.216,-3.818 -1.154,-3.860 -1.089,-3.899 -1.022,-3.933 -0.953,-3.963 -0.882,-3.988 -0.809,-4.009 -0.736,-4.026 -0.661,-4.037 -0.586,-4.045 -0.511,-4.047 -0.436,-4.045 -0.361,-4.037 -0.286,-4.026 -0.213,-4.009 -0.140,-3.988 -0.069,-3.963 -0.000,-3.933 0.067,-3.899 0.132,-3.860 0.194,-3.818 0.254,-3.772 0.310,-3.722 0.364,-3.668 0.414,-3.612 0.460,-3.552 0.502,-3.490 0.541,-3.425 0.575,-3.358 0.605,-3.289 0.630,-3.218 0.651,-3.146 0.668,-3.072 0.679,-2.997 0.687,-2.922 0.689,-2.847 0.689,-2.847 0.687,-2.772 0.676,-2.697 0.656,-2.625 0.619,-2.557 0.579,-2.493 0.531,-2.434 0.477,-2.382 0.416,-2.338 0.350,-2.301 0.225,-2.238 0.034,-2.188 -0.024,-2.177 -0.183,-2.149 -0.378,-2.148 -0.596,-2.172 -0.680,-2.188 -0.721,-2.200 -0.929,-2.272 -1.019,-2.306 -1.158,-2.377 -1.210,-2.403 -1.260,-2.435 -1.309,-2.472 -1.458,-2.604 -1.513,-2.656 -1.584,-2.780 -1.655,-2.919 -1.668,-2.993" fill="rgb(255,255,255)" style="stroke:black;stroke-width:0.1"/>
<polygon class="item-5" points="0.615,-2.523 0.624,-2.616 0.638,-2.708 0.669,-2.894 0.687,-2.989 0.725,-3.076 0.768,-3.161 0.817,-3.243 0.870,-3.322 0.929,-3.398 0.992,-3.469 1.059,-3.537 1.131,-3.600 1.206,-3.659 1.285,-3.712 1.368,-3.761 1.453,-3.804 1.540,-3.842 1.630,-3.875 1.722,-3.901 1.815,-3.922 1.909,-3.937 2.004,-3.946 2.100,-3.949 2.195,-3.946 2.290,-3.937 2.385,-3.922 2.478,-3.901 2.569,-3.875 2.659,-3.842 2.747,-3.804 2.832,-3.761 2.914,-3.712 2.993,-3.659 3.069,-3.600 3.140,-3.537 3.208,-3.469 3.271,-3.398 3.329,-3.322 3.383,-3.243 3.432,-3.161 3.475,-3.076 3.513,-2.989 3.545,-2.899 3.572,-2.807 3.593,-2.714 3.608,-2.620 3.617,-2.525 3.620,-2.429 3.620,-2.429 3.617,-2.334 3.608,-2.239 3.593,-2.144 3.572,-2.051 3.545,-1.959 3.513,-1.870 3.475,-1.782 3.432,-1.697 3.383,-1.615 3.329,-1.536 3.271,-1.460 3.208,-1.389 3.140,-1.321 3.069,-1.258 2.993,-1.200 2.914,-1.146 2.832,-1.097 2.747,-1.054 2.659,-1.016 2.569,-0.984 2.477,-0.959 2.384,-0.941 2.290,-0.926 2.195,-0.921 2.100,-0.918 1.911,-0.936 1.728,-0.979 1.637,-1.005 1.549,-1.037 1.383,-1.125 1.303,-1.173 1.225,-1.225 1.151,-1.283 1.009,-1.404 0.946,-1.475 0.889,-1.549 0.781,-1.704 0.738,-1.789 0.708,-1.878 0.685,-1.969 0.649,-2.152 0.634,-2.244 0.626,-2.336" fill="rgb(255,0,0)" style="stroke:black;stroke-width:0.1"/>
<polygon class="item-13" points="-4.826,1.221 -4.816,1.111 -4.769,1.015 -4.715,0.923 -4.654,0.835 -4.589,0.750 -4.518,0.670 -4.443,0.595 -4.363,0.524 -4.278,0.459 -4.190,0.399 -4.098,0.344 -4.003,0.296 -3.905,0.253 -3.805,0.217 -3.702,0.187 -3.598,0.164 -3.492,0.147 -3.386,0.137 -3.279,0.134 -3.173,0.137 -3.066,0.147 -2.961,0.164 -2.857,0.187 -2.755,0.219 -2.655,0.258 -2.563,0.311 -2.473,0.367 -2.301,0.488 -2.219,0.552 -2.148,0.629 -2.085,0.712 -2.029,0.799 -1.980,0.890 -1.888,1.069 -1.842,1.158 -1.769,1.343 -1.741,1.439 -1.685,1.632 -1.659,1.732 -1.619,1.938 -1.610,2.045 -1.615,2.151 -1.633,2.257 -1.663,2.359 -1.699,2.460 -1.741,2.558 -1.790,2.653 -1.844,2.745 -1.904,2.833 -1.970,2.917 -2.040,2.997 -2.116,3.073 -2.196,3.143 -2.280,3.209 -2.369,3.269 -2.460,3.323 -2.556,3.372 -2.654,3.414 -2.754,3.450 -2.857,3.480 -2.961,3.503 -3.066,3.520 -3.173,3.530 -3.279,3.534 -3.386,3.530 -3.492,3.520 -3.598,3.503 -3.702,3.480 -3.805,3.450 -3.905,3.414 -4.003,3.372 -4.097,3.322 -4.171,3.239 -4.233,3.147 -4.414,2.772 -4.520,2.516 -4.684,2.011 -4.798,1.544 -4.823,1.332" fill="rgb(48,48,48)" style="stroke:black;stroke-width:0.1"/>
<polygon class="item-28" points="-3.709,3.323 -3.689,3.229 -3.636,3.129 -3.576,3.037 -3.520,2.959 -3.401,2.831 -3.344,2.781 -3.130,2.601 -3.081,2.566 -3.018,2.522 -2.775,2.368 -2.709,2.330 -2.656,2.300 -2.513,2.237 -2.351,2.179 -2.185,2.120 -2.090,2.100 -1.979,2.080 -1.863,2.072 -1.765,2.089 -1.692,2.131 -1.647,2.193 -1.617,2.262 -1.591,2.333 -1.570,2.405 -1.554,2.479 -1.542,2.553 -1.535,2.628 -1.533,2.703 -1.533,2.703 -1.535,2.779 -1.542,2.854 -1.554,2.928 -1.570,3.002 -1.591,3.074 -1.617,3.145 -1.647,3.214 -1.681,3.282 -1.719,3.346 -1.762,3.409 -1.808,3.468 -1.858,3.525 -1.911,3.578 -1.968,3.628 -2.027,3.674 -2.090,3.717 -2.154,3.755 -2.222,3.789 -2.291,3.819 -2.362,3.845 -2.434,3.866 -2.508,3.882 -2.582,3.894 -2.657,3.901 -2.732,3.903 -2.808,3.901 -2.883,3.894 -2.957,3.882 -3.031,3.866 -3.103,3.845 -3.174,3.819 -3.243,3.789 -3.310,3.755 -3.375,3.717 -3.438,3.674 -3.497,3.628 -3.554,3.578 -3.607,3.525 -3.657,3.468 -3.697,3.404" fill="rgb(255,255,255)" style="stroke:black;stroke-width:0.1"/>
<polygon class="item-27" points="-4.523,1.012 -4.516,0.937 -4.504,0.863 -4.488,0.789 -4.467,0.717 -4.441,0.646 -4.411,0.577 -4.377,0.509 -4.339,0.445 -4.296,0.382 -4.250,0.323 -4.200,0.266 -4.147,0.213 -4.090,0.163 -4.031,0.117 -3.968,0.074 -3.904,0.036 -3.836,0.002 -3.767,-0.028 -3.696,-0.054 -3.624,-0.075 -3.550,-0.091 -3.476,-0.103 -3.401,-0.110 -3.326,-0.112 -3.250,-0.110 -3.175,-0.103 -3.101,-0.091 -3.027,-0.075 -2.955,-0.054 -2.884,-0.028 -2.815,0.002 -2.747,0.036 -2.683,0.074 -2.620,0.117 -2.561,0.163 -2.504,0.213 -2.451,0.266 -2.401,0.323 -2.355,0.382 -2.312,0.445 -2.274,0.509 -2.240,0.577 -2.210,0.646 -2.184,0.717 -2.163,0.789 -2.147,0.863 -2.139,0.938 -2.140,1.013 -2.151,1.087 -2.189,1.231 -2.224,1.298 -2.303,1.420 -2.403,1.522 -2.450,1.569 -2.500,1.611 -2.553,1.649 -2.608,1.681 -2.664,1.708 -2.823,1.779 -2.927,1.813 -3.127,1.862 -3.426,1.881 -3.630,1.857 -3.738,1.837 -3.904,1.786 -3.963,1.766 -4.022,1.741 -4.079,1.711 -4.134,1.675 -4.186,1.634 -4.298,1.545 -4.392,1.434 -4.462,1.304 -4.491,1.235 -4.511,1.162 -4.522,1.087" fill="rgb(255,255,255)" style="stroke:black;stroke-width:0.1"/>
<polygon class="item-24" points="-2.777,-0.874 -2.774,-0.949 -2.767,-1.024 -2.755,-1.099 -2.739,-1.172 -2.718,-1.245 -2.692,-1.316 -2.662,-1.385 -2.628,-1.452 -2.590,-1.517 -2.547,-1.579 -2.501,-1.639 -2.451,-1.695 -2.398,-1.748 -2.342,-1.798 -2.282,-1.845 -2.220,-1.887 -2.155,-1.925 -2.088,-1.959 -2.018,-1.989 -1.948,-2.015 -1.875,-2.036 -1.802,-2.052 -1.727,-2.064 -1.652,-2.070 -1.577,-2.072 -1.502,-2.068 -1.427,-2.061 -1.353,-2.049 -1.280,-2.029 -1.208,-2.008 -1.071,-1.949 -1.005,-1.915 -0.882,-1.830 -0.823,-1.784 -0.721,-1.678 -0.672,-1.623 -0.592,-1.499 -0.555,-1.436 -0.501,-1.300 -0.477,-1.231 -0.456,-1.161 -0.440,-1.017 -0.433,-0.946 -0.431,-0.874 -0.431,-0.874 -0.433,-0.802 -0.440,-0.730 -0.451,-0.659 -0.467,-0.589 -0.487,-0.520 -0.511,-0.452 -0.540,-0.386 -0.573,-0.322 -0.609,-0.260 -0.650,-0.200 -0.694,-0.143 -0.741,-0.089 -0.839,0.017 -0.897,0.062 -0.957,0.103 -1.080,0.181 -1.147,0.210 -1.216,0.235 -1.357,0.280 -1.503,0.306 -1.577,0.308 -1.726,0.305 -1.799,0.293 -1.945,0.260 -2.016,0.235 -2.086,0.209 -2.153,0.174 -2.218,0.136 -2.281,0.096 -2.341,0.050 -2.398,0.001 -2.451,-0.052 -2.501,-0.109 -2.547,-0.169 -2.590,-0.231 -2.628,-0.296 -2.662,-0.363 -2.692,-0.432 -2.718,-0.503 -2.739,-0.575 -2.755,-0.649 -2.767,-0.723 -2.774,-0.798" fill="rgb(255,255,255)" style="stroke:black;stroke-width:0.1"/>
</svg>