<?xml version="1.0" encoding="UTF-8"?>
<svg xmlns="http://www.w3.org/2000/svg" viewBox="-6520.000 -2749.705 13589.200 6601.011">
<defs>
<style>
.node-0{fill:#ffffff;stroke:#000000;stroke-width:50.000px;opacity:1.0;}
.node-1{fill:#ffffff;stroke:#000000;stroke-width:50.000px;opacity:1.0;}
.node-2{fill:#505050;stroke:#000000;stroke-width:50.000px;opacity:1.0;}
.node-3{fill:#ffffff;stroke:#000000;stroke-width:50.000px;opacity:1.0;}
.node-4{fill:#505050;stroke:#000000;stroke-width:50.000px;opacity:1.0;}
.node-5{fill:#ffffff;stroke:#000000;stroke-width:50.000px;opacity:1.0;}
.node-6{fill:#ffffff;stroke:#000000;stroke-width:50.000px;opacity:1.0;}
.node-7{fill:#ffffff;stroke:#000000;stroke-width:50.000px;opacity:1.0;}
.node-8{fill:#505050;stroke:#000000;stroke-width:50.000px;opacity:1.0;}
.node-9{fill:#ffffff;stroke:#000000;stroke-width:50.000px;opacity:1.0;}
.node-10{fill:#505050;stroke:#000000;stroke-width:50.000px;opacity:1.0;}
.node-11{fill:#ff0000;stroke:#000000;stroke-width:50.000px;opacity:1.0;}
.node-12{fill:#505050;stroke:#000000;stroke-width:50.000px;opacity:1.0;}
.node-13{fill:#505050;stroke:#000000;stroke-width:50.000px;opacity:1.0;}
.node-14{fill:#ff0000;stroke:#000000;stroke-width:50.000px;opacity:1.0;}
.node-15{fill:#ffffff;stroke:#000000;stroke-width:50.000px;opacity:1.0;}
.node-16{fill:#505050;stroke:#000000;stroke-width:50.000px;opacity:1.0;}
.node-17{fill:#ffffff;stroke:#000000;stroke-width:50.000px;opacity:1.0;}
.node-18{fill:#505050;stroke:#000000;stroke-width:50.000px;opacity:1.0;}
.node-19{fill:#505050;stroke:#000000;stroke-width:50.000px;opacity:1.0;}
.node-20{fill:#ff0000;stroke:#000000;stroke-width:50.000px;opacity:1.0;}
.node-21{fill:#0000ff;stroke:#000000;stroke-width:50.000px;opacity:1.0;}
.node-22{fill:#505050;stroke:#000000;stroke-width:50.000px;opacity:1.0;}
.node-23{fill:#505050;stroke:#000000;stroke-width:50.000px;opacity:1.0;}
.node-24{fill:#ffffff;stroke:#000000;stroke-width:50.000px;opacity:1.0;}
.node-25{fill:#505050;stroke:#000000;stroke-width:50.000px;opacity:1.0;}
.node-26{fill:#505050;stroke:#000000;stroke-width:50.000px;opacity:1.0;}
.node-27{fill:#505050;stroke:#000000;stroke-width:50.000px;opacity:1.0;}
.node-28{fill:#505050;stroke:#000000;stroke-width:50.000px;opacity:1.0;}
.node-29{fill:#505050;stroke:#000000;stroke-width:50.000px;opacity:1.0;}
.node-30{fill:#0000ff;stroke:#000000;stroke-width:50.000px;opacity:1.0;}
.node-31{fill:#505050;stroke:#000000;stroke-width:50.000px;opacity:1.0;}
.node-32{fill:#505050;stroke:#000000;stroke-width:50.000px;opacity:1.0;}
.node-33{fill:#505050;stroke:#000000;stroke-width:50.000px;opacity:1.0;}
.node-34{fill:#505050;stroke:#000000;stroke-width:50.000px;opacity:1.0;}
.node-35{fill:#0000ff;stroke:#000000;stroke-width:50.000px;opacity:1.0;}
.node-36{fill:#505050;stroke:#000000;stroke-width:50.000px;opacity:1.0;}
.node-37{fill:#505050;stroke:#000000;stroke-width:50.000px;opacity:1.0;}
.node-38{fill:#505050;stroke:#000000;stroke-width:50.000px;opacity:1.0;}
.node-39{fill:#505050;stroke:#000000;stroke-width:50.000px;opacity:1.0;}
.node-40{fill:#0000ff;stroke:#000000;stroke-width:50.000px;opacity:1.0;}
.node-41{fill:#0000ff;stroke:#000000;stroke-width:50.000px;opacity:1.0;}
.node-42{fill:#505050;stroke:#000000;stroke-width:50.000px;opacity:1.0;}
.node-43{fill:#505050;stroke:#000000;stroke-width:50.000px;opacity:1.0;}
.node-44{fill:#ffffff;stroke:#000000;stroke-width:50.000px;opacity:1.0;}
.node-45{fill:#505050;stroke:#000000;stroke-width:50.000px;opacity:1.0;}
.node-46{fill:#505050;stroke:#000000;stroke-width:50.000px;opacity:1.0;}
.node-47{fill:#505050;stroke:#000000;stroke-width:50.000px;opacity:1.0;}
.node-48{fill:#505050;stroke:#000000;stroke-width:50.000px;opacity:1.0;}
.node-49{fill:#505050;stroke:#000000;stroke-width:50.000px;opacity:1.0;}
.node-50{fill:#ff0000;stroke:#000000;stroke-width:50.000px;opacity:1.0;}
.node-51{fill:#ffff00;stroke:#000000;stroke-width:50.000px;opacity:1.0;}
.node-52{fill:#0000ff;stroke:#000000;stroke-width:50.000px;opacity:1.0;}
.node-53{fill:#ffffff;stroke:#000000;stroke-width:50.000px;opacity:1.0;}
.node-54{fill:#505050;stroke:#000000;stroke-width:50.000px;opacity:1.0;}
.node-55{fill:#ffff00;stroke:#000000;stroke-width:50.000px;opacity:1.0;}
.node-56{fill:#505050;stroke:#000000;stroke-width:50.000px;opacity:1.0;}
.node-57{fill:#505050;stroke:#000000;stroke-width:50.000px;opacity:1.0;}
.node-58{fill:#505050;stroke:#000000;stroke-width:50.000px;opacity:1.0;}
.node-59{fill:#ffffff;stroke:#000000;stroke-width:50.000px;opacity:1.0;}
.node-60{fill:#505050;stroke:#000000;stroke-width:50.000px;opacity:1.0;}
.node-61{fill:#ff0000;stroke:#000000;stroke-width:50.000px;opacity:1.0;}
.node-62{fill:#505050;stroke:#000000;stroke-width:50.000px;opacity:1.0;}
.node-63{fill:#ffffff;stroke:#000000;stroke-width:50.000px;opacity:1.0;}
.node-64{fill:#ffffff;stroke:#000000;stroke-width:50.000px;opacity:1.0;}
.node-65{fill:#505050;stroke:#000000;stroke-width:50.000px;opacity:1.0;}
.node-66{fill:#505050;stroke:#000000;stroke-width:50.000px;opacity:1.0;}
.node-67{fill:#505050;stroke:#000000;stroke-width:50.000px;opacity:1.0;}
.node-68{fill:#505050;stroke:#000000;stroke-width:50.000px;opacity:1.0;}
.node-69{fill:#ffffff;stroke:#000000;stroke-width:50.000px;opacity:1.0;}
.node-70{fill:#ffffff;stroke:#000000;stroke-width:50.000px;opacity:1.0;}
.node-71{fill:#ffffff;stroke:#000000;stroke-width:50.000px;opacity:1.0;}
</style>

</defs>
<polygon class="node-0" points="-2530.650,2554.600 -2529.073,2529.533 -2524.367,2504.862 -2516.605,2480.975 -2505.911,2458.249 -2492.453,2437.043 -2476.444,2417.691 -2458.135,2400.497 -2443.547,2389.537 -2412.835,2367.431 -2259.674,2257.618 -2209.427,2221.600 -2201.585,2216.078 -2191.365,2209.034 -2169.356,2196.935 -2146.003,2187.689 -2121.676,2181.443 -2096.758,2178.295 -2071.642,2178.295 -2046.724,2181.443 -2022.397,2187.689 -1999.044,2196.935 -1977.035,2209.034 -1956.715,2223.797 -1938.406,2240.991 -1922.397,2260.343 -1908.939,2281.549 -1898.245,2304.275 -1890.483,2328.162 -1885.777,2352.833 -1884.200,2377.900 -1885.777,2402.967 -1890.483,2427.638 -1898.245,2451.525 -1908.939,2474.251 -1922.397,2495.457 -1938.406,2514.809 -1956.715,2532.003 -1963.431,2537.282 -1978.689,2548.336 -2027.022,2582.998 -2179.459,2692.293 -2217.753,2719.663 -2223.485,2723.466 -2245.494,2735.565 -2268.847,2744.811 -2293.174,2751.057 -2318.092,2754.205 -2343.208,2754.205 -2368.126,2751.057 -2392.453,2744.811 -2415.806,2735.565 -2437.815,2723.466 -2458.135,2708.703 -2476.444,2691.509 -2492.453,2672.157 -2505.911,2650.951 -2516.605,2628.225 -2524.367,2604.338 -2529.073,2579.667"/>
<polygon class="node-1" points="2222.900,-964.600 2224.477,-989.667 2229.183,-1014.338 2236.945,-1038.225 2247.639,-1060.951 2261.097,-1082.157 2277.106,-1101.509 2295.415,-1118.703 2312.075,-1131.056 2315.735,-1133.466 2412.348,-1194.147 2527.399,-1266.405 2544.377,-1277.028 2555.668,-1284.054 2568.268,-1291.285 2577.294,-1296.015 2600.647,-1305.261 2624.974,-1311.507 2649.892,-1314.655 2675.008,-1314.655 2699.926,-1311.507 2724.253,-1305.261 2747.606,-1296.015 2769.615,-1283.916 2789.935,-1269.153 2808.244,-1251.959 2824.253,-1232.607 2837.711,-1211.401 2848.405,-1188.675 2856.167,-1164.788 2860.873,-1140.117 2862.450,-1115.050 2860.873,-1089.983 2856.167,-1065.312 2848.405,-1041.425 2837.711,-1018.699 2824.253,-997.493 2808.244,-978.141 2789.935,-960.947 2775.102,-949.856 2769.615,-946.184 2740.009,-927.587 2625.092,-855.413 2592.585,-835.004 2537.992,-800.799 2533.725,-798.144 2515.088,-787.381 2508.056,-783.635 2484.703,-774.389 2460.376,-768.143 2435.458,-764.995 2410.342,-764.995 2385.424,-768.143 2361.097,-774.389 2337.744,-783.635 2315.735,-795.734 2295.415,-810.497 2277.106,-827.691 2261.097,-847.043 2247.639,-868.249 2236.945,-890.975 2229.183,-914.862 2224.477,-939.533"/>
<polygon class="node-2" points="-2777.100,2731.300 -2775.523,2706.233 -2770.817,2681.562 -2763.055,2657.675 -2752.361,2634.949 -2738.903,2613.743 -2722.894,2594.391 -2704.585,2577.197 -2695.488,2570.111 -2683.156,2561.248 -2669.417,2551.396 -2555.832,2469.957 -2511.326,2438.047 -2468.068,2407.041 -2450.934,2394.988 -2440.245,2387.965 -2421.275,2378.907 -2395.825,2369.096 -2374.464,2365.817 -2335.161,2371.690 -2312.774,2377.283 -2290.747,2385.727 -2244.034,2407.206 -2225.135,2423.260 -2168.740,2505.196 -2160.555,2528.492 -2152.320,2575.945 -2155.290,2622.056 -2180.156,2682.440 -2198.198,2702.321 -2213.594,2716.561 -2232.664,2730.431 -2278.128,2763.037 -2322.344,2794.739 -2435.493,2875.864 -2451.328,2887.216 -2458.712,2892.489 -2469.935,2900.166 -2491.944,2912.265 -2515.297,2921.511 -2539.624,2927.757 -2564.542,2930.905 -2589.658,2930.905 -2614.576,2927.757 -2638.903,2921.511 -2662.256,2912.265 -2684.265,2900.166 -2704.585,2885.403 -2722.894,2868.209 -2738.903,2848.857 -2752.361,2827.651 -2763.055,2804.925 -2770.817,2781.038 -2775.523,2756.367"/>
<polygon class="node-3" points="-3281.600,264.300 -3280.023,239.233 -3275.317,214.562 -3267.555,190.675 -3256.861,167.949 -3243.403,146.743 -3227.394,127.391 -3226.231,126.239 -3216.120,116.637 -3208.223,109.489 -3204.245,106.138 -3160.928,69.809 -3124.497,39.257 -3123.585,38.497 -3121.903,37.191 -3104.666,24.710 -3103.265,23.734 -3081.256,11.635 -3057.903,2.389 -3033.576,-3.857 -3008.658,-7.005 -2983.542,-7.005 -2958.624,-3.857 -2934.297,2.389 -2910.944,11.635 -2888.935,23.734 -2868.615,38.497 -2850.306,55.691 -2834.297,75.043 -2820.839,96.249 -2810.145,118.975 -2802.383,142.862 -2797.677,167.533 -2796.100,192.600 -2796.100,192.600 -2797.677,217.667 -2802.383,242.338 -2810.145,266.225 -2820.839,288.951 -2834.297,310.157 -2850.306,329.509 -2855.429,334.434 -2860.159,338.888 -2867.703,345.943 -2903.092,375.619 -2954.115,418.403 -2954.977,419.111 -2959.054,422.065 -2974.435,433.166 -2996.444,445.265 -3019.797,454.511 -3044.124,460.757 -3069.042,463.905 -3094.158,463.905 -3119.076,460.757 -3143.403,454.511 -3166.756,445.265 -3188.765,433.166 -3209.085,418.403 -3227.394,401.209 -3243.403,381.857 -3256.861,360.651 -3267.555,337.925 -3275.317,314.038 -3280.023,289.367"/>
<polygon class="node-4" points="2486.370,-1180.227 2492.387,-1202.392 2501.087,-1223.179 2525.944,-1259.337 2549.420,-1279.453 2560.679,-1287.163 2572.250,-1294.555 2593.858,-1308.142 2633.081,-1332.778 2742.625,-1401.577 2796.365,-1435.326 2816.844,-1446.465 2840.197,-1455.711 2864.524,-1461.957 2889.442,-1465.105 2914.558,-1465.105 2939.476,-1461.957 2963.803,-1455.711 2987.156,-1446.465 3009.165,-1434.366 3029.485,-1419.603 3047.794,-1402.409 3063.803,-1383.057 3077.261,-1361.851 3087.955,-1339.125 3095.717,-1315.238 3100.423,-1290.567 3102.000,-1265.500 3100.423,-1240.433 3095.717,-1215.762 3087.955,-1191.875 3077.261,-1169.149 3063.803,-1147.943 3047.794,-1128.591 3029.485,-1111.397 3009.165,-1096.634 2955.973,-1063.225 2845.131,-993.610 2807.698,-970.102 2781.396,-953.599 2767.091,-944.828 2747.546,-935.722 2725.612,-927.348 2704.000,-923.573 2681.733,-922.819 2636.643,-930.368 2614.530,-938.553 2572.910,-963.100 2536.915,-997.195 2521.752,-1017.174 2508.808,-1038.696 2498.287,-1061.422 2490.355,-1084.994 2487.375,-1140.337"/>
<polygon class="node-5" points="-3800.800,3011.900 -3799.223,2986.833 -3794.517,2962.162 -3786.755,2938.275 -3776.061,2915.549 -3762.603,2894.343 -3746.594,2874.991 -3728.285,2857.797 -3707.965,2843.034 -3685.956,2830.935 -3662.603,2821.689 -3643.998,2816.378 -3612.765,2807.802 -3223.701,2701.158 -3182.708,2689.922 -3141.427,2678.614 -3126.426,2675.143 -3101.508,2671.995 -3076.392,2671.995 -3051.474,2675.143 -3027.147,2681.389 -3003.794,2690.635 -2981.785,2702.734 -2961.465,2717.497 -2943.156,2734.691 -2927.147,2754.043 -2913.689,2775.249 -2902.995,2797.975 -2895.233,2821.862 -2890.527,2846.533 -2888.950,2871.600 -2890.527,2896.667 -2895.233,2921.338 -2902.995,2945.225 -2913.689,2967.951 -2927.147,2989.157 -2943.156,3008.509 -2961.465,3025.703 -2981.785,3040.466 -3003.794,3052.565 -3027.147,3061.811 -3036.473,3064.586 -3077.088,3075.726 -3117.991,3086.938 -3506.939,3193.550 -3537.128,3201.810 -3550.502,3205.203 -3563.324,3208.357 -3588.242,3211.505 -3613.358,3211.505 -3638.276,3208.357 -3662.603,3202.111 -3685.956,3192.865 -3707.965,3180.766 -3728.285,3166.003 -3746.594,3148.809 -3762.603,3129.457 -3776.061,3108.251 -3786.755,3085.525 -3794.517,3061.638 -3799.223,3036.967"/>
<polygon class="node-6" points="2444.300,1420.600 2445.877,1395.533 2450.583,1370.862 2458.345,1346.975 2469.039,1324.249 2482.497,1303.043 2498.506,1283.691 2516.815,1266.497 2537.135,1251.734 2559.144,1239.635 2582.497,1230.389 2632.270,1215.083 2641.033,1212.389 2668.686,1203.898 3028.858,1093.315 3052.074,1086.529 3068.174,1082.493 3093.092,1079.345 3118.208,1079.345 3143.126,1082.493 3167.453,1088.739 3190.806,1097.985 3212.815,1110.084 3233.135,1124.847 3251.444,1142.041 3267.453,1161.393 3280.911,1182.599 3291.605,1205.325 3299.367,1229.212 3304.073,1253.883 3305.650,1278.950 3304.073,1304.017 3299.367,1328.688 3291.605,1352.575 3280.911,1375.301 3267.453,1396.507 3251.444,1415.859 3233.135,1433.053 3212.815,1447.816 3190.806,1459.915 3167.453,1469.161 3145.534,1475.917 2786.000,1586.308 2758.291,1594.815 2748.600,1597.787 2713.527,1608.536 2706.278,1610.636 2681.776,1617.057 2656.858,1620.205 2631.742,1620.205 2606.824,1617.057 2582.497,1610.811 2559.144,1601.565 2537.135,1589.466 2516.815,1574.703 2498.506,1557.509 2482.497,1538.157 2469.039,1516.951 2458.345,1494.225 2450.583,1470.338 2445.877,1445.667"/>
<polygon class="node-7" points="2973.650,-1727.300 2975.227,-1752.367 2979.933,-1777.038 2987.695,-1800.925 2998.389,-1823.651 3001.141,-1828.490 3272.904,-2290.488 3283.497,-2306.657 3299.506,-2326.009 3317.815,-2343.203 3338.135,-2357.966 3360.144,-2370.065 3383.497,-2379.311 3407.824,-2385.557 3432.742,-2388.705 3457.858,-2388.705 3482.776,-2385.557 3507.103,-2379.311 3530.456,-2370.065 3552.465,-2357.966 3572.785,-2343.203 3591.094,-2326.009 3607.103,-2306.657 3620.561,-2285.451 3631.255,-2262.725 3639.017,-2238.838 3643.723,-2214.167 3645.300,-2189.100 3643.723,-2164.033 3639.017,-2139.362 3631.255,-2115.475 3620.561,-2092.749 3617.696,-2087.712 3346.159,-1626.110 3335.453,-1609.743 3319.444,-1590.391 3301.135,-1573.197 3280.815,-1558.434 3258.806,-1546.335 3235.453,-1537.089 3211.126,-1530.843 3186.208,-1527.695 3161.092,-1527.695 3136.174,-1530.843 3111.847,-1537.089 3088.494,-1546.335 3066.485,-1558.434 3046.165,-1573.197 3027.856,-1590.391 3011.847,-1609.743 2998.389,-1630.949 2987.695,-1653.675 2979.933,-1677.562 2975.227,-1702.233"/>
<polygon class="node-8" points="-3160.035,2736.512 -3159.453,2720.244 -3154.980,2695.088 -3151.160,2686.597 -3146.358,2681.023 -3134.757,2677.280 -3120.945,2673.000 -2926.913,2619.808 -2762.919,2574.857 -2743.014,2569.409 -2682.029,2552.720 -2668.913,2549.266 -2653.432,2545.288 -2588.776,2545.712 -2544.259,2559.143 -2486.617,2588.722 -2459.150,2620.538 -2413.540,2689.305 -2408.234,2731.300 -2407.345,2774.886 -2410.417,2822.935 -2420.380,2845.164 -2433.889,2865.784 -2449.867,2885.099 -2469.935,2900.166 -2492.616,2910.838 -2534.707,2927.054 -2657.443,2960.699 -2821.033,3005.540 -3016.007,3058.976 -3028.591,3062.106 -3031.542,3062.177 -3051.005,3060.750 -3058.838,3054.251 -3075.798,3032.758 -3084.657,3018.104 -3093.584,3001.140 -3111.079,2961.381 -3119.371,2939.215 -3134.393,2892.049 -3146.560,2843.599 -3155.106,2796.908"/>
<polygon class="node-9" points="235.900,-1011.300 237.477,-1036.367 242.183,-1061.038 243.085,-1064.049 247.836,-1079.282 261.748,-1118.350 264.565,-1126.251 293.567,-1207.535 307.831,-1247.505 311.291,-1257.193 315.845,-1269.625 316.027,-1270.021 326.539,-1292.351 339.997,-1313.557 356.006,-1332.909 374.315,-1350.103 394.635,-1364.866 416.644,-1376.965 439.997,-1386.211 464.324,-1392.457 489.242,-1395.605 514.358,-1395.605 539.276,-1392.457 563.603,-1386.211 586.956,-1376.965 608.965,-1364.866 629.285,-1350.103 647.594,-1332.909 663.603,-1313.557 677.061,-1292.351 687.755,-1269.625 695.517,-1245.738 700.223,-1221.067 701.800,-1196.000 700.223,-1170.933 695.517,-1146.262 689.947,-1128.265 687.037,-1120.031 685.225,-1114.943 670.493,-1073.645 641.503,-992.393 639.048,-985.518 626.600,-950.706 621.855,-937.675 621.382,-936.566 611.161,-914.949 597.703,-893.743 581.694,-874.391 563.385,-857.197 543.065,-842.434 521.056,-830.335 497.703,-821.089 473.376,-814.843 448.458,-811.695 423.342,-811.695 398.424,-814.843 374.097,-821.089 350.744,-830.335 328.735,-842.434 308.415,-857.197 290.106,-874.391 274.097,-893.743 260.639,-914.949 249.945,-937.675 242.183,-961.562 237.477,-986.233"/>
<polygon class="node-10" points="2726.720,-1310.504 2735.317,-1357.135 2744.608,-1389.278 2751.444,-1404.012 2811.192,-1505.584 2990.304,-1810.070 2996.379,-1820.298 3002.628,-1830.501 3015.685,-1835.269 3026.012,-1835.111 3038.667,-1833.253 3053.451,-1829.724 3070.131,-1824.580 3108.099,-1809.794 3193.747,-1765.927 3236.046,-1739.602 3274.424,-1712.504 3291.375,-1699.199 3306.470,-1686.336 3330.171,-1662.742 3338.403,-1652.382 3344.036,-1643.204 3347.196,-1628.950 3344.672,-1624.099 3340.055,-1615.830 3335.264,-1607.586 3085.250,-1182.563 3080.189,-1174.023 3062.528,-1148.870 3047.794,-1128.591 3029.485,-1111.397 2986.484,-1085.962 2962.709,-1078.658 2913.943,-1075.664 2890.324,-1079.912 2846.079,-1093.392 2808.090,-1117.522 2794.361,-1135.387 2738.440,-1223.505"/>
<polygon class="node-11" points="-2484.200,-2545.100 -2482.623,-2570.167 -2477.917,-2594.838 -2470.155,-2618.725 -2459.461,-2641.451 -2446.003,-2662.657 -2429.994,-2682.009 -2411.685,-2699.203 -2391.365,-2713.966 -2369.356,-2726.065 -2346.003,-2735.311 -2321.676,-2741.557 -2296.758,-2744.705 -2271.642,-2744.705 -2246.724,-2741.557 -2222.397,-2735.311 -2199.044,-2726.065 -2177.035,-2713.966 -2156.715,-2699.203 -2138.406,-2682.009 -2122.397,-2662.657 -2108.939,-2641.451 -2107.576,-2638.879 -2091.204,-2606.842 -1963.264,-2355.574 -1922.648,-2275.804 -1915.195,-2259.225 -1907.433,-2235.338 -1902.727,-2210.667 -1901.150,-2185.600 -1902.727,-2160.533 -1907.433,-2135.862 -1915.195,-2111.975 -1925.889,-2089.249 -1939.347,-2068.043 -1955.356,-2048.691 -1973.665,-2031.497 -1993.985,-2016.734 -2015.994,-2004.635 -2039.347,-1995.389 -2063.674,-1989.143 -2088.592,-1985.995 -2113.708,-1985.995 -2138.626,-1989.143 -2162.953,-1995.389 -2186.306,-2004.635 -2208.315,-2016.734 -2228.635,-2031.497 -2246.944,-2048.691 -2262.953,-2068.043 -2276.411,-2089.249 -2279.652,-2095.396 -2319.578,-2173.806 -2447.908,-2425.838 -2460.824,-2451.321 -2470.155,-2471.475 -2477.917,-2495.362 -2482.623,-2520.033"/>
<polygon class="node-12" points="-2690.950,2918.387 -2688.549,2877.190 -2645.993,2584.896 -2636.962,2547.065 -2588.776,2545.712 -2544.259,2559.143 -2486.617,2588.722 -2402.138,2658.871 -2382.721,2679.767 -2371.974,2692.065 -2361.907,2706.569 -2346.277,2734.571 -2193.218,3009.032 -2147.068,3091.785 -2146.589,3092.649 -2135.895,3115.375 -2128.133,3139.262 -2123.427,3163.933 -2121.850,3189.000 -2123.427,3214.067 -2128.133,3238.738 -2135.895,3262.625 -2146.589,3285.351 -2160.047,3306.557 -2176.056,3325.909 -2194.365,3343.103 -2214.685,3357.866 -2236.694,3369.965 -2260.047,3379.211 -2284.374,3385.457 -2309.292,3388.605 -2334.408,3388.605 -2359.326,3385.457 -2383.653,3379.211 -2407.006,3369.965 -2429.015,3357.866 -2449.335,3343.103 -2467.644,3325.909 -2483.653,3306.557 -2496.632,3286.215 -2542.372,3204.196 -2598.472,3103.598 -2680.559,2956.394 -2687.734,2938.007"/>
<polygon class="node-13" points="3000.057,1196.420 3015.646,1137.824 3020.954,1122.027 3027.743,1108.660 3035.906,1097.934 3045.315,1090.018 3055.821,1085.036 3222.567,1033.839 3323.459,1002.862 3435.251,968.545 3472.695,957.063 3496.208,949.935 3513.336,944.894 3529.524,940.843 3554.442,937.695 3579.558,937.695 3604.476,940.843 3628.803,947.089 3652.156,956.335 3674.165,968.434 3694.485,983.197 3712.794,1000.391 3728.803,1019.743 3742.261,1040.949 3752.955,1063.675 3760.717,1087.562 3765.423,1112.233 3767.000,1137.300 3765.423,1162.367 3760.717,1187.038 3752.955,1210.925 3742.261,1233.651 3728.803,1254.857 3712.794,1274.209 3694.485,1291.403 3674.165,1306.166 3652.156,1318.265 3628.803,1327.511 3551.117,1351.383 3441.461,1385.058 3339.359,1416.407 3173.933,1467.198 3162.496,1469.166 3150.308,1468.089 3113.099,1458.342 3099.839,1447.978 3073.801,1419.458 3038.975,1360.840 3020.706,1314.783 3007.775,1266.474 3000.993,1218.949"/>
<polygon class="node-14" points="-6033.350,1026.100 -6031.773,1001.033 -6027.067,976.362 -6019.305,952.475 -6008.611,929.749 -5995.153,908.543 -5979.144,889.191 -5960.835,871.997 -5940.515,857.234 -5918.506,845.135 -5895.153,835.889 -5870.826,829.643 -5845.908,826.495 -5820.792,826.495 -5774.127,831.166 -5504.488,859.100 -5379.387,872.063 -5350.009,875.117 -5330.550,877.150 -5314.224,879.543 -5289.897,885.789 -5266.544,895.035 -5244.535,907.134 -5224.215,921.897 -5205.906,939.091 -5189.897,958.443 -5176.439,979.649 -5165.745,1002.375 -5157.983,1026.262 -5153.277,1050.933 -5151.700,1076.000 -5153.277,1101.067 -5157.983,1125.738 -5165.745,1149.625 -5176.439,1172.351 -5189.897,1193.557 -5205.906,1212.909 -5224.215,1230.103 -5244.535,1244.866 -5266.544,1256.965 -5289.897,1266.211 -5314.224,1272.457 -5339.142,1275.605 -5364.258,1275.605 -5372.850,1274.850 -5391.923,1272.891 -5420.343,1269.957 -5545.700,1256.972 -5815.509,1229.018 -5845.495,1225.771 -5855.420,1224.663 -5870.826,1222.557 -5895.153,1216.311 -5918.506,1207.065 -5940.515,1194.966 -5960.835,1180.203 -5979.144,1163.009 -5995.153,1143.657 -6008.611,1122.451 -6019.305,1099.725 -6027.067,1075.838 -6031.773,1051.167"/>
<polygon class="node-15" points="-2493.744,3285.818 -2492.287,3276.782 -2483.121,3241.698 -2444.944,3202.417 -2428.032,3188.616 -2368.445,3148.118 -2280.419,3103.933 -2259.178,3095.846 -2187.184,3079.108 -2162.849,3080.937 -2145.187,3096.684 -2141.081,3102.835 -2132.193,3118.481 -2080.805,3210.600 -1891.339,3550.349 -1880.645,3573.075 -1872.883,3596.962 -1868.177,3621.633 -1866.600,3646.700 -1868.177,3671.767 -1872.883,3696.438 -1880.645,3720.325 -1891.339,3743.051 -1904.797,3764.257 -1920.806,3783.609 -1939.115,3800.803 -1959.435,3815.566 -1981.444,3827.665 -2004.797,3836.911 -2029.124,3843.157 -2054.042,3846.305 -2079.158,3846.305 -2104.076,3843.157 -2128.403,3836.911 -2151.756,3827.665 -2173.765,3815.566 -2194.085,3800.803 -2212.394,3783.609 -2228.403,3764.257 -2239.184,3747.081 -2246.911,3733.923 -2256.264,3717.207 -2261.901,3707.113 -2430.165,3405.404 -2480.877,3314.443 -2492.409,3293.473"/>
<polygon class="node-16" points="2726.720,-1310.504 2735.317,-1357.135 2755.596,-1371.869 3039.376,-1327.075 3089.585,-1317.543 3142.023,-1296.264 3147.720,-1291.668 3166.687,-1270.680 3707.367,-671.399 3900.740,-457.060 3958.798,-392.702 4018.047,-326.713 4029.703,-312.457 4043.161,-291.251 4053.855,-268.525 4061.617,-244.638 4066.323,-219.967 4067.900,-194.900 4066.323,-169.833 4061.617,-145.162 4053.855,-121.275 4043.161,-98.549 4029.703,-77.343 4013.694,-57.991 3995.385,-40.797 3975.065,-26.034 3953.056,-13.935 3929.703,-4.689 3905.376,1.557 3880.458,4.705 3855.342,4.705 3830.424,1.557 3806.097,-4.689 3782.744,-13.935 3760.735,-26.034 3740.415,-40.797 3722.106,-57.991 3661.094,-125.570 3603.244,-189.684 3410.257,-403.585 2869.129,-1003.376 2831.230,-1045.394 2812.194,-1066.525 2787.820,-1097.534 2769.101,-1135.550 2738.440,-1223.505"/>
<polygon class="node-17" points="-6515.000,976.200 -6513.423,951.133 -6508.717,926.462 -6500.955,902.575 -6490.261,879.849 -6476.803,858.643 -6460.794,839.291 -6442.485,822.097 -6422.165,807.334 -6400.156,795.235 -6376.803,785.989 -6352.476,779.743 -6327.558,776.595 -6302.442,776.595 -6295.503,777.271 -6255.624,781.287 -6207.614,786.256 -5822.459,826.159 -5810.368,828.007 -5806.797,831.897 -5800.961,848.755 -5795.759,935.640 -5796.477,958.563 -5799.637,1007.227 -5802.029,1032.200 -5804.915,1057.077 -5820.387,1147.927 -5829.610,1183.219 -5834.346,1197.279 -5843.698,1217.120 -5848.165,1222.589 -5863.507,1224.045 -6248.992,1184.108 -6297.312,1179.097 -6334.497,1175.129 -6352.476,1172.657 -6376.803,1166.411 -6400.156,1157.165 -6422.165,1145.066 -6442.485,1130.303 -6460.794,1113.109 -6476.803,1093.757 -6490.261,1072.551 -6500.955,1049.825 -6508.717,1025.938 -6513.423,1001.267"/>
<polygon class="node-18" points="-3367.100,336.000 -3365.523,310.933 -3360.817,286.262 -3353.055,262.375 -3342.361,239.649 -3328.903,218.443 -3314.270,200.677 -3312.894,199.091 -3296.590,183.579 -3290.748,178.675 -3246.545,141.607 -3238.584,134.931 -3227.931,125.999 -3215.533,115.611 -3205.101,106.992 -3203.132,105.617 -3182.500,92.220 -3160.304,81.560 -3139.663,73.600 -3115.538,68.295 -3087.921,67.447 -3066.070,66.992 -3041.508,71.015 -3014.890,81.183 -2992.200,91.727 -2973.110,100.881 -2953.272,116.246 -2935.458,133.945 -2919.949,153.700 -2906.563,180.844 -2896.894,203.973 -2889.491,222.051 -2884.064,271.559 -2888.437,302.386 -2891.049,320.610 -2902.637,349.697 -2914.079,371.549 -2928.189,391.733 -2944.746,409.929 -2949.546,414.284 -2955.218,419.280 -2959.903,423.245 -2961.347,424.461 -2969.469,431.281 -2988.475,447.221 -3033.192,484.721 -3039.615,490.103 -3057.332,503.115 -3059.935,504.866 -3081.944,516.965 -3105.297,526.211 -3129.624,532.457 -3154.542,535.605 -3179.658,535.605 -3204.576,532.457 -3228.903,526.211 -3252.256,516.965 -3274.265,504.866 -3294.585,490.103 -3312.894,472.909 -3328.903,453.557 -3342.361,432.351 -3353.055,409.625 -3360.817,385.738 -3365.523,361.067"/>
<polygon class="node-19" points="3395.847,988.572 3407.911,934.023 3414.140,906.343 3462.234,693.372 3540.398,347.298 3612.631,27.489 3618.629,0.939 3649.221,-133.758 3917.953,-301.269 3946.020,-317.998 3975.539,-325.013 4012.544,-330.730 4029.703,-312.457 4043.161,-291.251 4053.488,-268.380 4061.617,-244.638 4066.323,-219.967 4067.900,-194.900 4067.900,-194.900 4066.323,-169.833 4063.142,-152.349 4045.036,-71.495 4008.847,88.853 4002.809,115.591 3930.610,435.238 3852.306,781.908 3804.112,995.241 3768.228,1153.947 3760.334,1186.940 3739.157,1231.944 3727.528,1253.930 3712.506,1273.939 3694.485,1291.403 3673.954,1305.832 3652.156,1318.265 3627.709,1324.142 3602.642,1324.142 3578.363,1317.908 3541.346,1271.784 3445.872,1110.469 3423.727,1072.117 3397.301,1026.331"/>
<polygon class="node-20" points="-5448.563,904.523 -5448.217,889.651 -5445.210,876.269 -5442.466,867.945 -5415.716,833.858 -5379.186,787.381 -5328.744,723.230 -5278.342,659.130 -5183.244,538.192 -5146.959,492.055 -5136.444,479.891 -5118.135,462.697 -5097.815,447.934 -5075.806,435.835 -5052.453,426.589 -5028.126,420.343 -5003.208,417.195 -4978.092,417.195 -4953.174,420.343 -4928.847,426.589 -4905.494,435.835 -4883.485,447.934 -4863.165,462.697 -4844.856,479.891 -4828.847,499.243 -4815.389,520.449 -4804.695,543.175 -4796.933,567.062 -4792.227,591.733 -4790.650,616.800 -4792.227,641.867 -4796.933,666.538 -4804.695,690.425 -4815.389,713.151 -4828.847,734.357 -4834.341,741.545 -4870.266,787.248 -4962.914,905.094 -5013.606,969.570 -5064.258,1033.995 -5186.955,1190.045 -5196.367,1201.883 -5205.906,1212.909 -5224.215,1230.103 -5244.535,1244.866 -5266.544,1256.965 -5339.142,1275.605 -5364.258,1275.605 -5380.576,1227.373 -5446.243,920.651"/>
<polygon class="node-21" points="304.793,-1184.086 304.812,-1207.480 306.148,-1230.754 310.591,-1253.538 314.897,-1266.770 319.701,-1280.708 323.771,-1292.185 327.949,-1303.899 371.297,-1425.390 377.703,-1443.340 381.745,-1454.325 386.874,-1465.767 392.439,-1477.051 405.897,-1498.257 421.906,-1517.609 440.215,-1534.803 460.535,-1549.566 482.544,-1561.665 505.897,-1570.911 530.224,-1577.157 555.142,-1580.305 580.258,-1580.305 605.176,-1577.157 629.503,-1570.911 652.856,-1561.665 674.865,-1549.566 695.185,-1534.803 713.494,-1517.609 729.503,-1498.257 742.961,-1477.051 753.655,-1454.325 761.417,-1430.438 766.123,-1405.767 767.700,-1380.700 766.123,-1355.633 763.096,-1339.538 761.417,-1330.962 757.306,-1317.084 755.061,-1310.672 748.287,-1291.682 704.647,-1169.369 700.917,-1158.919 694.443,-1140.844 690.028,-1128.923 688.166,-1123.915 674.547,-1096.329 664.617,-1083.957 648.919,-1066.565 626.560,-1045.365 584.304,-1022.815 542.058,-1015.346 517.380,-1013.385 487.221,-1011.093 443.563,-1025.025 420.324,-1034.542 373.754,-1060.011 343.751,-1096.555 330.215,-1116.820 319.405,-1138.393 311.493,-1160.932"/>
<polygon class="node-22" points="3466.799,1247.644 3472.173,1193.587 3486.104,1176.274 3501.594,1158.659 3518.397,1141.021 3716.784,1091.420 3785.946,1081.512 3877.085,1182.422 3912.385,1221.513 4162.795,1499.011 4449.584,1816.828 4521.257,1896.259 4609.143,1993.775 4623.703,2011.443 4637.161,2032.649 4647.855,2055.375 4655.617,2079.262 4660.323,2103.933 4661.900,2129.000 4660.323,2154.067 4655.617,2178.738 4647.855,2202.625 4637.161,2225.351 4623.703,2246.557 4607.694,2265.909 4589.385,2283.103 4569.065,2297.866 4547.056,2309.965 4523.703,2319.211 4499.376,2325.457 4474.458,2328.605 4449.342,2328.605 4424.424,2325.457 4400.097,2319.211 4376.744,2309.965 4354.735,2297.866 4334.415,2283.103 4316.106,2265.909 4223.563,2163.401 4152.052,2084.160 3866.105,1767.289 3615.371,1489.435 3579.079,1449.190 3491.238,1351.760 3487.049,1345.803 3471.837,1294.031"/>
<polygon class="node-23" points="-2290.319,-2167.482 -2278.522,-2207.804 -2268.370,-2227.598 -2255.580,-2246.730 -2222.935,-2281.815 -2182.638,-2310.855 -2137.220,-2332.025 -2065.780,-2346.269 -1999.307,-2337.948 -1962.432,-2320.313 -1947.138,-2308.230 -1924.599,-2278.494 -1918.428,-2267.172 -1913.999,-2258.632 -1899.873,-2231.020 -1894.085,-2219.701 -1878.728,-2189.548 -1846.208,-2125.683 -1765.720,-1967.607 -1756.757,-1949.903 -1742.408,-1921.544 -1740.527,-1917.636 -1732.145,-1899.725 -1724.383,-1875.838 -1719.677,-1851.167 -1718.100,-1826.100 -1719.677,-1801.033 -1724.383,-1776.362 -1732.145,-1752.475 -1742.839,-1729.749 -1756.297,-1708.543 -1772.306,-1689.191 -1790.615,-1671.997 -1810.935,-1657.234 -1832.944,-1645.135 -1856.297,-1635.889 -1880.624,-1629.643 -1905.542,-1626.495 -1930.658,-1626.495 -1955.576,-1629.643 -1979.903,-1635.889 -2003.256,-1645.135 -2025.265,-1657.234 -2045.585,-1671.997 -2063.894,-1689.191 -2079.903,-1708.543 -2093.361,-1729.749 -2121.734,-1785.253 -2202.330,-1943.537 -2235.708,-2009.092 -2249.639,-2036.459 -2258.495,-2053.900 -2266.335,-2069.428 -2279.080,-2094.901 -2285.700,-2109.911 -2287.798,-2131.719"/>
<polygon class="node-24" points="4034.300,3174.300 4035.877,3149.233 4039.032,3131.181 4059.346,3037.755 4143.566,2650.954 4152.790,2608.666 4154.383,2601.912 4162.145,2578.025 4172.839,2555.299 4186.297,2534.093 4202.306,2514.741 4220.615,2497.547 4240.935,2482.784 4262.944,2470.685 4286.297,2461.439 4310.624,2455.193 4335.542,2452.045 4360.658,2452.045 4385.576,2455.193 4409.903,2461.439 4433.256,2470.685 4455.265,2482.784 4475.585,2497.547 4493.894,2514.741 4509.903,2534.093 4523.361,2555.299 4534.055,2578.025 4541.817,2601.912 4546.523,2626.583 4548.100,2651.650 4546.523,2676.717 4543.410,2694.634 4534.426,2735.970 4450.222,3122.691 4429.568,3217.419 4428.017,3224.038 4420.255,3247.925 4409.561,3270.651 4396.103,3291.857 4380.094,3311.209 4361.785,3328.403 4341.465,3343.166 4319.456,3355.265 4296.103,3364.511 4271.776,3370.757 4246.858,3373.905 4221.742,3373.905 4196.824,3370.757 4172.497,3364.511 4149.144,3355.265 4127.135,3343.166 4106.815,3328.403 4088.506,3311.209 4072.497,3291.857 4059.039,3270.651 4048.345,3247.925 4040.583,3224.038 4035.877,3199.367"/>
<polygon class="node-25" points="-2776.083,2623.263 -2773.256,2325.643 -2771.223,2111.886 -2767.196,1688.857 -2766.639,1658.406 -2765.423,1642.833 -2760.717,1618.162 -2752.955,1594.275 -2742.261,1571.549 -2728.803,1550.343 -2712.794,1530.991 -2694.485,1513.797 -2674.165,1499.034 -2652.156,1486.935 -2628.803,1477.689 -2604.476,1471.443 -2579.558,1468.295 -2554.442,1468.295 -2529.524,1471.443 -2505.197,1477.689 -2481.844,1486.935 -2459.835,1499.034 -2439.515,1513.797 -2421.206,1530.991 -2405.197,1550.343 -2391.739,1571.549 -2381.045,1594.275 -2373.283,1618.162 -2368.577,1642.833 -2367.439,1659.339 -2367.000,1667.900 -2371.261,2117.170 -2373.268,2328.773 -2376.097,2626.657 -2376.306,2648.592 -2376.554,2665.029 -2377.540,2683.066 -2402.013,2717.556 -2565.743,2789.851 -2657.364,2798.621 -2679.652,2790.195 -2700.313,2779.834 -2752.510,2713.412 -2770.069,2659.070 -2774.642,2641.295"/>
<polygon class="node-26" points="1673.000,-1610.700 1674.577,-1635.767 1679.283,-1660.438 1687.045,-1684.325 1697.739,-1707.051 1711.197,-1728.257 1727.206,-1747.609 1745.515,-1764.803 1765.835,-1779.566 1787.844,-1791.665 1811.197,-1800.911 1835.524,-1807.157 1860.442,-1810.305 1885.558,-1810.305 1910.476,-1807.157 1934.803,-1800.911 1936.802,-1800.250 1957.242,-1793.393 2389.390,-1648.420 2595.840,-1579.159 2866.206,-1488.388 2882.053,-1480.706 2896.592,-1470.175 2909.594,-1456.960 2953.279,-1410.419 2984.929,-1360.585 2986.976,-1337.440 2986.710,-1313.488 2942.814,-1224.715 2836.460,-1109.020 2801.682,-1091.689 2784.222,-1094.393 2731.994,-1111.652 2656.105,-1137.088 2467.280,-1200.385 2262.130,-1269.204 1829.918,-1414.199 1809.198,-1421.150 1787.844,-1429.735 1765.835,-1441.834 1745.515,-1456.597 1727.206,-1473.791 1711.197,-1493.143 1697.739,-1514.349 1687.045,-1537.075 1679.283,-1560.962 1674.577,-1585.633"/>
<polygon class="node-27" points="4152.565,2609.848 4159.505,2577.749 4214.091,2327.066 4241.558,2200.986 4244.140,2189.726 4246.514,2184.866 4511.953,2022.631 4540.020,2005.902 4573.616,1993.959 4606.544,1993.170 4623.384,2011.675 4636.815,2032.839 4647.488,2055.520 4655.617,2079.262 4659.931,2103.983 4661.900,2129.000 4659.931,2154.017 4657.421,2169.542 4650.465,2203.032 4645.950,2223.773 4550.351,2662.833 4543.635,2693.452 4541.707,2697.473 4536.724,2700.771 4517.962,2705.003 4450.267,2703.356 4405.588,2697.579 4381.707,2693.579 4284.740,2671.744 4188.094,2638.234 4175.264,2631.740 4157.940,2619.793 4153.720,2614.528"/>
<polygon class="node-28" points="-5159.680,525.415 -5152.194,499.622 -5144.589,489.402 -5133.911,475.435 -5032.091,345.930 -4837.330,98.221 -4815.442,70.385 -4786.054,33.029 -4775.394,20.691 -4757.085,3.497 -4736.765,-11.266 -4714.756,-23.365 -4691.403,-32.611 -4667.076,-38.857 -4642.158,-42.005 -4617.042,-42.005 -4592.124,-38.857 -4567.797,-32.611 -4544.444,-23.365 -4522.435,-11.266 -4502.115,3.497 -4483.806,20.691 -4467.797,40.043 -4454.339,61.249 -4443.645,83.975 -4435.883,107.862 -4431.177,132.533 -4429.600,157.600 -4429.600,157.600 -4431.177,182.667 -4435.883,207.338 -4443.645,231.225 -4454.339,253.951 -4467.797,275.157 -4473.146,282.171 -4501.526,318.287 -4522.964,345.555 -4718.137,593.782 -4818.505,721.429 -4836.711,744.198 -4846.743,752.409 -4889.648,763.862 -4926.597,760.003 -4946.738,754.661 -5030.917,712.897 -5051.204,698.182 -5070.536,682.183 -5105.135,647.361 -5119.857,629.086 -5151.031,574.264"/>
<polygon class="node-29" points="-4792.554,93.082 -4792.554,68.015 -4788.537,42.125 -4775.394,20.691 -4757.085,3.497 -4736.765,-11.266 -4714.756,-23.365 -4667.002,-38.470 -4642.133,-41.611 -4617.067,-41.611 -4574.894,-37.072 -4489.037,-26.700 -4459.637,-23.128 -4371.125,-12.347 -4137.358,16.163 -3172.150,133.902 -3106.391,149.158 -3084.619,160.720 -3063.301,172.440 -3025.887,203.392 -3010.380,222.136 -3000.417,244.365 -2982.865,288.696 -2970.643,336.000 -2970.643,336.000 -2976.815,384.857 -2994.943,430.644 -3006.572,452.630 -3022.456,471.830 -3039.615,490.103 -3060.780,503.534 -3082.112,516.608 -3129.624,532.457 -3154.641,534.031 -3179.559,534.031 -3194.312,533.329 -3220.550,530.962 -4185.842,413.213 -4420.075,384.635 -4507.063,374.008 -4536.163,370.444 -4558.562,363.458 -4723.510,209.227 -4757.085,157.600 -4778.861,119.276"/>
<polygon class="node-30" points="370.842,-1405.569 375.511,-1430.046 392.785,-1476.861 405.897,-1498.257 421.906,-1517.609 441.220,-1533.588 460.746,-1549.232 482.544,-1561.665 530.298,-1576.770 545.278,-1579.815 676.913,-1603.022 794.032,-1623.662 1172.839,-1690.408 1185.111,-1692.564 1207.792,-1695.305 1232.908,-1695.305 1257.826,-1692.157 1282.153,-1685.911 1305.506,-1676.665 1327.515,-1664.566 1347.835,-1649.803 1366.144,-1632.609 1382.153,-1613.257 1395.611,-1592.051 1406.305,-1569.325 1414.067,-1545.438 1418.773,-1520.767 1420.350,-1495.700 1418.773,-1470.633 1414.067,-1445.962 1406.305,-1422.075 1395.611,-1399.349 1382.153,-1378.143 1366.144,-1358.791 1347.835,-1341.597 1327.515,-1326.834 1305.506,-1314.735 1282.153,-1305.489 1257.826,-1299.243 1255.589,-1298.836 1241.755,-1296.392 863.488,-1229.738 745.653,-1208.978 668.566,-1195.413 635.778,-1190.456 613.456,-1191.027 556.337,-1200.092 511.779,-1208.592 490.649,-1216.958 449.168,-1237.419 435.782,-1256.821 425.911,-1277.684"/>
<polygon class="node-31" points="-3273.135,137.594 -3269.405,125.928 -3261.271,112.737 -3245.244,87.581 -3239.076,77.956 -3128.644,-94.008 -2997.923,-297.564 -2990.116,-309.683 -2984.403,-318.007 -2968.394,-337.359 -2950.085,-354.553 -2929.765,-369.316 -2907.756,-381.415 -2884.403,-390.661 -2860.076,-396.907 -2835.158,-400.055 -2810.042,-400.055 -2785.124,-396.907 -2760.797,-390.661 -2737.444,-381.415 -2715.435,-369.316 -2695.115,-354.553 -2676.806,-337.359 -2660.797,-318.007 -2647.339,-296.801 -2636.645,-274.075 -2628.883,-250.188 -2624.177,-225.517 -2622.600,-200.450 -2622.600,-200.450 -2624.177,-175.383 -2628.883,-150.712 -2636.645,-126.825 -2647.339,-104.099 -2655.084,-91.217 -2661.057,-81.878 -2792.156,122.268 -2957.368,379.534 -2990.692,431.310 -2997.931,440.825 -3011.523,457.212 -3039.615,490.103 -3060.780,503.534 -3082.112,516.608 -3129.624,532.457 -3154.641,534.031 -3179.559,534.031 -3260.533,196.466"/>
<polygon class="node-32" points="3790.174,-231.497 3809.288,-285.597 3836.557,-343.179 3878.622,-396.543 3923.262,-420.817 3949.386,-429.001 3974.524,-436.721 4869.379,-710.770 4963.954,-739.732 4992.735,-748.142 5008.224,-752.057 5033.142,-755.205 5058.258,-755.205 5083.176,-752.057 5107.503,-745.811 5130.856,-736.565 5152.865,-724.466 5173.185,-709.703 5191.494,-692.509 5207.503,-673.157 5220.961,-651.951 5231.655,-629.225 5239.417,-605.338 5244.123,-580.667 5245.700,-555.600 5244.123,-530.533 5239.417,-505.862 5231.655,-481.975 5220.961,-459.249 5207.503,-438.043 5191.494,-418.691 5173.185,-401.497 5152.865,-386.734 5130.856,-374.635 5107.503,-365.389 5080.334,-357.040 4986.461,-328.290 4091.060,-54.075 4069.086,-47.367 4048.098,-41.123 4036.898,-38.177 3991.480,-33.258 3978.507,-38.741 3904.120,-78.968 3850.912,-121.231 3808.559,-159.166 3800.971,-183.104 3794.811,-207.341"/>
<polygon class="node-33" points="-2398.100,-1281.500 -2396.523,-1306.567 -2391.817,-1331.238 -2384.055,-1355.125 -2376.882,-1371.047 -2371.046,-1382.455 -2308.315,-1504.508 -2168.712,-1776.063 -2152.100,-1808.370 -2135.489,-1840.667 -2125.802,-1858.948 -2120.474,-1868.674 -2102.887,-1890.540 -2084.515,-1907.693 -2064.106,-1922.595 -2032.577,-1935.738 -1870.480,-1972.660 -1776.887,-1958.708 -1761.380,-1939.964 -1737.987,-1897.412 -1725.911,-1875.446 -1718.495,-1826.100 -1720.069,-1801.083 -1725.911,-1776.754 -1732.512,-1752.620 -1739.469,-1736.220 -1757.390,-1701.295 -1762.561,-1691.221 -1813.088,-1592.945 -1953.485,-1319.900 -2013.954,-1202.329 -2019.318,-1191.953 -2022.839,-1185.149 -2036.297,-1163.943 -2052.306,-1144.591 -2070.615,-1127.397 -2090.935,-1112.634 -2112.944,-1100.535 -2136.297,-1091.289 -2160.624,-1085.043 -2185.542,-1081.895 -2210.658,-1081.895 -2235.576,-1085.043 -2259.903,-1091.289 -2283.256,-1100.535 -2305.265,-1112.634 -2325.585,-1127.397 -2343.894,-1144.591 -2359.903,-1163.943 -2373.361,-1185.149 -2384.055,-1207.875 -2391.817,-1231.762 -2396.523,-1256.433"/>
<polygon class="node-34" points="-3302.318,522.405 -3278.862,470.659 -3222.661,391.126 -3201.897,379.030 -3180.015,367.516 -2939.771,355.547 -2935.866,362.699 -2913.502,412.151 -2876.852,493.331 -2864.709,520.277 -2432.581,1479.372 -2383.874,1587.738 -2381.412,1594.420 -2373.283,1618.162 -2368.577,1642.833 -2367.395,1667.900 -2370.142,1692.769 -2382.765,1715.204 -2408.419,1755.081 -2449.050,1778.662 -2484.428,1798.013 -2558.403,1804.539 -2612.053,1806.558 -2649.572,1798.013 -2684.950,1778.662 -2720.583,1752.333 -2763.133,1711.229 -2771.354,1700.278 -2797.435,1643.324 -3229.451,684.483 -3241.312,658.153 -3276.674,579.505"/>
<polygon class="node-35" points="-223.250,-1506.600 -221.673,-1531.667 -216.967,-1556.338 -209.205,-1580.225 -198.511,-1602.951 -185.053,-1624.157 -169.044,-1643.509 -150.735,-1660.703 -130.415,-1675.466 -108.406,-1687.565 -85.053,-1696.811 -60.726,-1703.057 -35.808,-1706.205 -10.692,-1706.205 14.226,-1703.057 40.456,-1697.495 76.910,-1689.747 278.056,-1646.895 550.425,-1588.869 560.859,-1586.633 568.419,-1584.790 574.551,-1582.389 576.785,-1576.762 580.968,-1563.858 590.588,-1527.404 599.307,-1390.505 595.010,-1326.236 591.487,-1288.323 581.054,-1205.866 566.294,-1196.503 529.217,-1189.934 510.545,-1191.498 479.989,-1194.911 466.785,-1197.711 195.480,-1255.513 -5.220,-1298.273 -39.680,-1305.633 -68.942,-1311.981 -85.053,-1316.389 -108.406,-1325.635 -130.415,-1337.734 -150.735,-1352.497 -169.044,-1369.691 -185.053,-1389.043 -198.511,-1410.249 -209.205,-1432.975 -216.967,-1456.862 -221.673,-1481.533"/>
<polygon class="node-36" points="4386.685,2104.686 4404.262,2035.167 4431.410,1984.859 4476.726,1925.252 4516.048,1905.355 4526.957,1901.373 4548.187,1894.989 4714.245,1845.956 5426.590,1635.625 5474.399,1621.517 5570.670,1593.152 5595.819,1585.841 5611.124,1582.143 5636.042,1578.995 5661.158,1578.995 5686.076,1582.143 5710.403,1588.389 5733.756,1597.635 5755.765,1609.734 5776.085,1624.497 5794.394,1641.691 5810.403,1661.043 5823.861,1682.249 5834.555,1704.975 5842.317,1728.862 5847.023,1753.533 5848.600,1778.600 5847.023,1803.667 5842.317,1828.338 5834.555,1852.225 5823.861,1874.951 5810.403,1896.157 5794.394,1915.509 5776.085,1932.703 5755.765,1947.466 5733.756,1959.565 5710.403,1968.811 5585.461,2005.763 5538.334,2019.687 4826.639,2229.836 4660.421,2278.915 4634.183,2286.547 4622.429,2287.491 4568.653,2284.671 4500.186,2249.342 4406.686,2176.880 4398.611,2153.180 4391.909,2128.988"/>
<polygon class="node-37" points="1162.330,-1580.543 1162.687,-1602.348 1164.159,-1622.507 1166.723,-1640.703 1175.717,-1688.032 1190.880,-1692.896 1201.672,-1695.262 1238.836,-1702.013 1263.484,-1706.376 1289.796,-1711.016 1368.337,-1724.857 1629.741,-1770.915 1642.104,-1773.092 1719.930,-1786.788 1787.409,-1798.654 1800.574,-1800.965 1827.594,-1805.637 1835.598,-1806.770 1860.467,-1809.911 1885.533,-1809.911 1910.402,-1806.770 1969.966,-1763.494 1984.716,-1745.741 2009.615,-1709.957 2014.213,-1646.957 2005.608,-1576.652 1951.120,-1487.602 1869.460,-1410.536 1854.167,-1404.346 1791.116,-1393.212 1712.306,-1379.308 1698.563,-1376.885 1437.847,-1330.943 1359.752,-1317.184 1333.852,-1312.624 1306.288,-1307.787 1265.134,-1300.738 1249.820,-1298.504 1223.934,-1314.322 1215.007,-1325.474 1206.164,-1339.311 1189.286,-1374.127 1181.516,-1394.556 1164.967,-1533.392 1163.094,-1557.436"/>
<polygon class="node-38" points="-5072.650,-269.700 -5071.073,-294.767 -5066.367,-319.438 -5058.605,-343.325 -5047.911,-366.051 -5034.453,-387.257 -5018.444,-406.609 -5000.135,-423.803 -4979.815,-438.566 -4957.806,-450.665 -4934.453,-459.911 -4910.126,-466.157 -4885.208,-469.305 -4860.092,-469.305 -4835.174,-466.157 -4810.847,-459.911 -4787.494,-450.665 -4765.485,-438.566 -4745.165,-423.803 -4726.856,-406.609 -4710.847,-387.257 -4698.980,-368.889 -4645.231,-274.395 -4601.434,-197.396 -4523.590,-60.539 -4508.083,-33.199 -4502.944,-24.118 -4496.024,-11.206 -4491.508,3.245 -4489.859,18.917 -4491.105,35.563 -4499.271,83.387 -4522.063,147.514 -4557.411,205.304 -4592.425,250.178 -4617.172,272.231 -4640.205,280.355 -4691.532,272.691 -4749.697,256.950 -4772.348,245.541 -4797.972,230.360 -4819.081,212.971 -4831.034,203.021 -4843.362,185.580 -4853.476,168.398 -4858.059,160.387 -4871.718,136.451 -4949.426,-0.164 -4993.127,-76.993 -5046.320,-170.511 -5047.911,-173.349 -5058.605,-196.075 -5066.367,-219.962 -5071.073,-244.633"/>
<polygon class="node-39" points="-1971.381,-1922.622 -1961.810,-1943.280 -1951.139,-1962.029 -1939.535,-1978.574 -1927.182,-1992.653 -1868.434,-2011.759 -1855.041,-2015.789 -1841.820,-2016.706 -1806.675,-2011.607 -1781.834,-2007.996 -1759.272,-2004.702 -1523.703,-1969.733 -1106.048,-1907.720 -662.477,-1841.857 -581.137,-1829.651 -576.724,-1828.957 -552.397,-1822.711 -529.044,-1813.465 -507.035,-1801.366 -486.715,-1786.603 -468.406,-1769.409 -452.397,-1750.057 -438.939,-1728.851 -428.245,-1706.125 -420.483,-1682.238 -415.777,-1657.567 -414.200,-1632.500 -415.777,-1607.433 -420.483,-1582.762 -428.245,-1558.875 -438.939,-1536.149 -452.397,-1514.943 -468.406,-1495.591 -486.715,-1478.397 -507.035,-1463.634 -529.044,-1451.535 -552.397,-1442.289 -576.724,-1436.043 -601.642,-1432.895 -626.758,-1432.895 -647.263,-1435.349 -722.391,-1446.375 -1165.472,-1512.160 -1582.313,-1574.051 -1737.272,-1597.082 -1768.585,-1601.838 -1797.579,-1606.436 -1803.030,-1608.656 -1809.891,-1611.494 -1861.980,-1699.229 -1894.337,-1758.342 -1957.371,-1884.564"/>
<polygon class="node-40" points="-2997.433,-267.929 -2996.836,-294.717 -2992.403,-305.982 -2985.426,-316.866 -2907.848,-437.820 -2859.788,-512.665 -2687.866,-780.380 -2645.917,-845.689 -2639.903,-854.457 -2623.894,-873.809 -2605.585,-891.003 -2585.265,-905.766 -2563.256,-917.865 -2539.903,-927.111 -2515.576,-933.357 -2490.658,-936.505 -2465.542,-936.505 -2440.624,-933.357 -2416.297,-927.111 -2392.944,-917.865 -2370.935,-905.766 -2350.615,-891.003 -2332.306,-873.809 -2316.297,-854.457 -2302.839,-833.251 -2292.145,-810.525 -2284.383,-786.638 -2279.677,-761.967 -2278.100,-736.900 -2279.677,-711.833 -2284.383,-687.162 -2292.145,-663.275 -2302.839,-640.549 -2310.283,-628.111 -2351.014,-564.672 -2523.592,-295.937 -2571.992,-220.576 -2645.994,-105.492 -2652.797,-94.918 -2669.586,-77.533 -2681.676,-71.687 -2730.347,-66.541 -2749.850,-69.046 -2791.974,-80.201 -2836.022,-98.912 -2857.903,-110.751 -2879.227,-124.003 -2899.658,-138.462 -2977.909,-220.400 -2987.044,-236.902 -2993.587,-252.829"/>
<polygon class="node-41" points="-2650.997,-805.355 -2650.257,-831.544 -2646.507,-846.242 -2628.931,-880.797 -2572.063,-991.544 -2387.341,-1350.824 -2381.361,-1362.455 -2373.940,-1376.438 -2356.368,-1391.922 -2343.758,-1397.107 -2328.851,-1400.469 -2311.882,-1401.954 -2293.119,-1401.540 -2272.857,-1399.233 -2251.416,-1395.069 -2229.135,-1389.114 -2206.364,-1381.462 -2160.792,-1361.573 -2138.710,-1349.651 -2117.564,-1336.654 -2097.689,-1322.787 -2062.977,-1293.329 -2048.688,-1278.202 -2036.755,-1263.127 -2027.367,-1248.342 -2021.357,-1201.056 -2022.268,-1189.267 -2026.039,-1178.761 -2031.259,-1168.608 -2216.137,-809.016 -2271.269,-701.923 -2279.185,-686.602 -2293.067,-659.789 -2298.582,-650.160 -2317.572,-620.270 -2370.461,-606.787 -2395.528,-606.787 -2419.807,-613.021 -2471.371,-629.946 -2507.874,-645.265 -2562.533,-690.483 -2615.009,-736.900 -2641.660,-778.895"/>
<polygon class="node-42" points="4872.353,-689.062 4874.166,-703.563 4879.081,-725.270 4895.446,-797.553 4926.190,-933.304 4949.818,-1037.611 4961.585,-1089.556 4968.901,-1121.659 4970.033,-1126.488 4977.795,-1150.375 4988.489,-1173.101 5001.947,-1194.307 5017.956,-1213.659 5036.265,-1230.853 5056.585,-1245.616 5078.594,-1257.715 5101.947,-1266.961 5126.274,-1273.207 5151.192,-1276.355 5176.308,-1276.355 5201.226,-1273.207 5225.553,-1266.961 5248.906,-1257.715 5270.915,-1245.616 5291.235,-1230.853 5309.544,-1213.659 5325.553,-1194.307 5339.011,-1173.101 5349.705,-1150.375 5357.467,-1126.488 5362.173,-1101.817 5363.750,-1076.750 5362.173,-1051.683 5358.599,-1031.841 5351.749,-1001.406 5339.906,-949.121 5316.314,-844.968 5247.843,-542.694 5245.542,-532.570 5239.417,-505.862 5231.288,-482.120 5220.615,-459.439 5207.184,-438.275 5191.494,-418.691 5173.185,-401.497 5152.865,-386.734 5130.856,-374.635 5107.503,-365.389 5081.999,-365.315 5057.063,-374.992 5035.540,-394.116 5006.305,-434.355 4995.647,-449.231 4886.297,-639.300 4874.121,-672.609"/>
<polygon class="node-43" points="-2736.755,1711.486 -2542.479,1497.942 -2503.553,1460.357 -2476.227,1439.728 -2455.807,1434.333 -2438.420,1430.019 -1997.282,1320.777 -1909.098,1298.940 -1767.482,1263.877 -1730.579,1254.942 -1721.926,1252.893 -1697.008,1249.745 -1671.892,1249.745 -1646.974,1252.893 -1622.647,1259.139 -1599.294,1268.385 -1577.285,1280.484 -1556.965,1295.247 -1538.656,1312.441 -1522.647,1331.793 -1509.189,1352.999 -1498.495,1375.725 -1490.733,1399.612 -1486.027,1424.283 -1484.450,1449.350 -1486.027,1474.417 -1490.733,1499.088 -1498.495,1522.975 -1509.189,1545.701 -1522.647,1566.907 -1538.656,1586.259 -1556.965,1603.453 -1577.285,1618.216 -1599.294,1630.315 -1622.647,1639.561 -1638.321,1643.758 -1672.022,1652.307 -1812.822,1687.180 -1901.148,1709.053 -2395.513,1831.474 -2411.593,1835.334 -2435.243,1840.225 -2460.177,1841.127 -2486.591,1837.142 -2649.572,1798.013 -2684.950,1778.662"/>
<polygon class="node-44" points="4968.899,-1121.654 4971.000,-1131.098 5001.762,-1266.925 5082.018,-1621.232 5086.849,-1642.495 5088.083,-1647.638 5095.845,-1671.525 5106.539,-1694.251 5119.997,-1715.457 5136.006,-1734.809 5154.315,-1752.003 5174.635,-1766.766 5196.644,-1778.865 5219.997,-1788.111 5244.324,-1794.357 5269.242,-1797.505 5294.358,-1797.505 5319.276,-1794.357 5343.603,-1788.111 5366.956,-1778.865 5388.965,-1766.766 5409.285,-1752.003 5427.594,-1734.809 5443.603,-1715.457 5457.061,-1694.251 5467.755,-1671.525 5475.517,-1647.638 5480.223,-1622.967 5481.800,-1597.900 5480.223,-1572.833 5476.751,-1553.305 5472.138,-1532.876 5391.846,-1178.419 5361.222,-1043.248 5358.567,-1036.470 5340.503,-1022.458 5314.339,-1020.398 5258.032,-1023.925 5212.558,-1030.474 5164.017,-1039.931 5115.460,-1051.701 5069.937,-1065.044 5030.308,-1079.124 5013.501,-1086.163 4999.064,-1093.054 4987.224,-1099.688 4978.168,-1105.960 4972.039,-1111.771 4968.933,-1117.030"/>
<polygon class="node-45" points="-717.999,-1605.849 -699.895,-1712.973 -676.276,-1764.418 -647.041,-1804.657 -625.876,-1818.088 -578.968,-1826.873 -564.545,-1826.290 -551.951,-1823.650 -500.624,-1812.783 -348.747,-1780.430 -41.235,-1714.918 17.794,-1702.341 55.983,-1680.271 66.465,-1667.235 75.533,-1651.666 83.043,-1633.809 88.877,-1613.946 95.175,-1569.481 95.541,-1545.581 90.675,-1496.322 85.520,-1471.741 78.651,-1447.709 70.174,-1424.606 60.224,-1402.796 48.957,-1382.624 36.552,-1364.406 23.203,-1348.431 -5.469,-1324.177 -20.341,-1316.280 -35.259,-1311.385 -49.987,-1309.568 -64.294,-1310.859 -123.455,-1323.462 -430.531,-1388.886 -585.948,-1422.001 -629.173,-1431.278 -640.217,-1433.674 -644.004,-1435.482 -671.663,-1455.646 -688.823,-1473.919 -700.899,-1495.885 -717.337,-1557.566"/>
<polygon class="node-46" points="4943.950,-442.628 4944.863,-491.326 4957.979,-508.400 4972.761,-525.906 4988.975,-543.567 5046.211,-561.686 5204.588,-605.679 5262.076,-613.311 5267.296,-608.276 5354.989,-511.342 5605.930,-233.205 5874.190,64.135 5981.610,183.199 6070.685,281.947 6086.743,300.148 6091.407,305.686 6102.303,318.643 6115.761,339.849 6126.455,362.575 6134.217,386.462 6138.923,411.133 6140.500,436.200 6138.923,461.267 6134.217,485.938 6126.455,509.825 6115.761,532.551 6102.303,553.757 6086.294,573.109 6067.985,590.303 6047.665,605.066 6025.656,617.165 6002.303,626.411 5977.976,632.657 5953.058,635.805 5927.942,635.805 5903.024,632.657 5878.697,626.411 5855.344,617.165 5833.335,605.066 5813.015,590.303 5794.706,573.109 5774.523,550.781 5684.638,451.169 5577.306,332.201 5308.686,34.461 5058.539,-242.810 4967.272,-344.236 4947.211,-387.746"/>
<polygon class="node-47" points="5548.797,1684.879 5550.371,1659.862 5554.690,1630.622 5567.612,1606.492 5636.042,1578.995 5661.133,1579.389 5733.756,1597.635 5755.765,1609.734 5776.085,1624.497 5803.726,1651.988 5811.295,1660.376 5901.593,1760.481 6082.738,1961.314 6103.158,1983.970 6132.556,2016.688 6147.412,2033.554 6158.653,2047.143 6172.111,2068.349 6182.805,2091.075 6190.567,2114.962 6195.273,2139.633 6196.850,2164.700 6195.273,2189.767 6190.567,2214.438 6182.805,2238.325 6172.111,2261.051 6158.653,2282.257 6142.644,2301.609 6124.335,2318.803 6104.015,2333.566 6082.006,2345.665 6058.653,2354.911 6034.326,2361.157 6009.408,2364.305 5984.292,2364.305 5959.374,2361.157 5935.047,2354.911 5911.694,2345.665 5889.685,2333.566 5869.365,2318.803 5851.056,2301.609 5806.962,2252.766 5785.592,2229.090 5604.557,2028.379 5590.439,2012.723 5570.269,1990.338 5558.162,1971.646 5551.700,1950.753 5549.954,1925.917 5549.286,1884.596 5549.053,1866.272"/>
<polygon class="node-48" points="1704.514,-1674.045 1707.074,-1697.128 1713.660,-1725.855 1723.590,-1746.406 1732.499,-1760.468 1850.257,-1936.939 1854.597,-1943.157 1864.235,-1954.947 1870.606,-1962.509 1888.915,-1979.703 1909.235,-1994.466 1931.244,-2006.565 1954.597,-2015.811 1978.924,-2022.057 2003.842,-2025.205 2028.958,-2025.205 2053.876,-2022.057 2078.203,-2015.811 2101.556,-2006.565 2123.565,-1994.466 2143.885,-1979.703 2162.194,-1962.509 2178.203,-1943.157 2191.661,-1921.951 2202.355,-1899.225 2210.117,-1875.338 2214.823,-1850.667 2216.400,-1825.600 2214.823,-1800.533 2210.117,-1775.862 2202.355,-1751.975 2191.661,-1729.249 2182.543,-1714.261 2065.125,-1538.296 2055.650,-1524.809 2050.755,-1517.940 2035.245,-1501.179 2013.043,-1481.208 2000.473,-1470.638 1976.130,-1455.396 1927.946,-1434.516 1883.369,-1427.888 1855.231,-1436.095 1810.741,-1461.595 1792.387,-1477.550 1765.129,-1504.414 1751.719,-1524.851 1727.541,-1566.313 1715.138,-1603.943 1708.578,-1627.082 1705.018,-1650.573"/>
<polygon class="node-49" points="5476.386,1630.296 5482.394,1601.703 5628.303,930.683 5686.673,662.251 5715.896,527.860 5721.881,500.488 5724.789,496.674 5990.553,329.831 6052.216,301.159 6085.144,300.370 6101.984,318.875 6115.415,340.039 6126.088,362.720 6134.217,386.462 6138.531,411.183 6138.531,461.217 6136.065,477.682 6124.336,531.954 6106.724,613.020 6077.567,747.109 6019.177,1015.637 5873.186,1687.017 5867.518,1712.120 5866.165,1716.286 5853.874,1727.665 5822.113,1739.056 5782.008,1751.712 5590.396,1771.805 5567.741,1765.312 5546.453,1758.606 5526.868,1751.792 5498.439,1710.752 5478.354,1668.447"/>
<polygon class="node-50" points="-5315.700,-697.000 -5314.123,-722.067 -5309.417,-746.738 -5301.655,-770.625 -5290.961,-793.351 -5277.503,-814.557 -5261.494,-833.909 -5243.185,-851.103 -5222.865,-865.866 -5200.856,-877.965 -5177.503,-887.211 -5153.176,-893.457 -5128.258,-896.605 -5103.142,-896.605 -5078.224,-893.457 -5053.897,-887.211 -5030.544,-877.965 -5008.535,-865.866 -4988.215,-851.103 -4969.906,-833.909 -4953.897,-814.557 -4941.456,-795.173 -4932.427,-779.304 -4888.490,-702.062 -4878.605,-684.684 -4732.376,-427.592 -4705.493,-380.161 -4693.566,-357.102 -4694.056,-336.097 -4695.995,-319.256 -4700.797,-301.767 -4714.721,-255.967 -4727.676,-238.240 -4742.918,-221.010 -4760.206,-204.547 -4866.914,-142.192 -4912.706,-130.119 -4934.834,-127.345 -4994.020,-132.492 -5028.238,-154.599 -5040.166,-164.569 -5049.529,-176.331 -5080.978,-231.452 -5226.409,-487.120 -5235.968,-503.926 -5279.529,-580.512 -5289.944,-598.827 -5290.961,-600.649 -5301.655,-623.375 -5309.417,-647.262 -5314.123,-671.933"/>
<polygon class="node-51" points="-1748.297,1305.796 -1747.535,1290.496 -1745.778,1277.701 -1739.405,1260.391 -1716.621,1251.462 -1626.227,1228.900 -1344.346,1159.089 -1132.440,1106.612 -902.674,1049.718 -867.122,1040.925 -839.376,1034.343 -814.458,1031.195 -789.342,1031.195 -764.424,1034.343 -740.097,1040.589 -716.744,1049.835 -694.735,1061.934 -674.415,1076.697 -656.106,1093.891 -640.097,1113.243 -626.639,1134.449 -615.945,1157.175 -608.183,1181.062 -603.477,1205.733 -601.900,1230.800 -603.477,1255.867 -608.183,1280.538 -615.945,1304.425 -626.639,1327.151 -640.097,1348.357 -656.106,1367.709 -674.415,1384.903 -694.735,1399.666 -716.744,1411.765 -740.097,1421.011 -755.798,1425.209 -771.980,1429.417 -807.032,1438.108 -1036.192,1494.860 -1247.910,1547.287 -1530.861,1617.348 -1616.977,1638.496 -1622.381,1639.310 -1651.982,1636.969 -1666.683,1618.403 -1706.142,1529.682 -1720.403,1483.129 -1726.737,1458.867 -1732.405,1434.454 -1737.316,1410.277 -1744.573,1364.142 -1748.052,1323.361"/>
<polygon class="node-52" points="-2650.997,-805.355 -2650.257,-831.544 -2628.541,-846.202 -2447.868,-888.963 -2386.695,-896.924 -2358.681,-900.214 -2328.111,-900.140 -2301.623,-895.816 -2284.019,-891.185 -2261.479,-885.037 -2039.413,-824.353 -1865.664,-776.868 -1851.799,-773.074 -1844.144,-770.927 -1832.247,-767.511 -1808.894,-758.265 -1786.885,-746.166 -1766.565,-731.403 -1748.256,-714.209 -1732.247,-694.857 -1718.789,-673.651 -1708.095,-650.925 -1700.333,-627.038 -1695.627,-602.367 -1694.050,-577.300 -1695.627,-552.233 -1700.333,-527.562 -1708.095,-503.675 -1718.789,-480.949 -1732.247,-459.743 -1748.256,-440.391 -1766.565,-423.197 -1786.885,-408.434 -1808.894,-396.335 -1832.247,-387.089 -1856.574,-380.843 -1881.492,-377.695 -1906.608,-377.695 -1931.526,-380.843 -1943.956,-383.673 -1959.663,-387.910 -1969.160,-390.500 -2145.841,-438.775 -2367.653,-499.387 -2391.837,-506.007 -2441.065,-519.568 -2454.012,-525.630 -2479.049,-539.240 -2505.259,-560.788 -2529.837,-591.860 -2546.678,-613.528 -2641.660,-778.895"/>
<polygon class="node-53" points="5844.360,2291.229 5844.877,2271.987 5863.383,2230.980 5886.409,2198.051 5900.633,2180.665 5916.375,2163.027 5933.385,2145.415 5951.397,2128.108 5970.125,2111.377 6065.725,2055.688 6122.200,2024.248 6145.984,2031.475 6228.740,2123.189 6291.720,2193.010 6347.301,2254.631 6409.976,2324.118 6493.033,2416.234 6506.903,2433.243 6520.361,2454.449 6531.055,2477.175 6538.817,2501.062 6543.523,2525.733 6545.100,2550.800 6543.523,2575.867 6538.817,2600.538 6531.055,2624.425 6520.361,2647.151 6506.903,2668.357 6490.894,2687.709 6472.585,2704.903 6452.265,2719.666 6430.256,2731.765 6406.903,2741.011 6382.576,2747.257 6357.658,2750.405 6332.542,2750.405 6307.624,2747.257 6283.297,2741.011 6259.944,2731.765 6237.935,2719.666 6217.615,2704.903 6199.306,2687.709 6197.167,2685.366 6113.064,2592.154 6050.369,2522.645 5994.510,2460.714 5932.120,2391.539 5847.716,2297.925"/>
<polygon class="node-54" points="5854.988,436.650 5873.619,373.346 5891.208,322.187 5927.383,266.416 5951.144,235.173 5976.271,218.301 5987.073,213.940 5994.203,211.803 6253.136,135.328 6300.765,121.282 6328.846,113.003 6334.736,111.269 6347.816,107.424 6364.874,103.343 6389.792,100.195 6414.908,100.195 6439.826,103.343 6464.153,109.589 6487.506,118.835 6509.515,130.934 6529.835,145.697 6548.144,162.891 6564.153,182.243 6577.611,203.449 6588.305,226.175 6596.067,250.062 6600.773,274.733 6602.350,299.800 6602.350,299.800 6600.773,324.867 6596.067,349.538 6588.305,373.425 6577.611,396.151 6564.153,417.357 6548.144,436.709 6529.835,453.903 6509.515,468.666 6487.506,480.765 6464.153,490.011 6451.490,493.787 6411.565,505.598 6366.824,518.832 6108.485,595.125 6097.141,598.444 6085.471,599.774 6073.117,598.050 6047.105,594.017 6013.004,578.262 5927.479,522.089 5876.349,475.702 5861.463,460.884"/>
<polygon class="node-55" points="-1255.950,406.550 -1254.373,381.483 -1249.667,356.812 -1241.905,332.925 -1231.211,310.199 -1217.753,288.993 -1201.744,269.641 -1183.435,252.447 -1163.115,237.684 -1141.106,225.585 -1117.753,216.339 -1093.426,210.093 -1068.508,206.945 -1043.392,206.945 -1018.474,210.093 -994.147,216.339 -970.794,225.585 -948.785,237.684 -928.465,252.447 -910.156,269.641 -894.147,288.993 -880.689,310.199 -869.995,332.925 -864.652,348.223 -803.969,545.087 -758.058,694.036 -702.198,875.266 -676.754,957.823 -646.218,1056.905 -625.859,1122.965 -615.268,1157.750 -610.029,1175.154 -608.566,1181.160 -603.477,1205.733 -603.477,1230.800 -603.477,1255.867 -608.566,1280.440 -615.945,1304.425 -626.639,1327.151 -656.394,1367.439 -674.415,1384.903 -694.735,1399.666 -716.744,1411.765 -740.097,1421.011 -792.746,1376.306 -996.518,1182.219 -1035.154,1137.187 -1048.405,1109.853 -1059.152,1075.167 -1084.518,992.874 -1140.440,811.434 -1185.987,663.653 -1247.248,464.877 -1249.667,456.288 -1254.373,431.617"/>
<polygon class="node-56" points="-794.000,-1720.897 -793.915,-1750.024 -791.138,-1768.630 -751.649,-1968.475 -729.532,-2079.654 -726.267,-2095.238 -718.505,-2119.125 -707.811,-2141.851 -694.353,-2163.057 -678.344,-2182.409 -660.035,-2199.603 -639.715,-2214.366 -617.706,-2226.465 -594.353,-2235.711 -570.026,-2241.957 -545.108,-2245.105 -519.992,-2245.105 -495.074,-2241.957 -470.747,-2235.711 -447.394,-2226.465 -425.385,-2214.366 -405.065,-2199.603 -386.756,-2182.409 -370.747,-2163.057 -357.289,-2141.851 -346.595,-2119.125 -338.833,-2095.238 -334.127,-2070.567 -332.550,-2045.500 -334.127,-2020.433 -335.568,-2011.346 -359.175,-1891.245 -398.070,-1694.610 -400.885,-1680.749 -406.292,-1665.474 -413.748,-1646.661 -429.449,-1614.537 -444.159,-1594.682 -490.654,-1547.586 -513.475,-1525.012 -602.524,-1446.912 -625.876,-1446.912 -671.663,-1455.646 -688.823,-1473.919 -700.899,-1495.885 -747.193,-1580.119 -772.280,-1632.742 -786.215,-1674.078 -789.843,-1693.434"/>
<polygon class="node-57" points="-3419.300,2222.400 -3417.723,2197.333 -3413.017,2172.662 -3405.255,2148.775 -3394.561,2126.049 -3381.103,2104.843 -3365.094,2085.491 -3354.664,2075.264 -3309.541,2036.614 -3074.386,1836.718 -2760.579,1569.970 -2743.565,1557.884 -2690.927,1530.451 -2669.529,1526.681 -2592.634,1520.836 -2570.114,1528.213 -2548.162,1538.318 -2517.288,1579.788 -2471.144,1669.860 -2462.060,1692.673 -2455.660,1715.970 -2452.044,1739.383 -2445.384,1796.160 -2460.947,1837.917 -2475.644,1852.731 -2816.282,2142.302 -3050.783,2341.646 -3091.815,2376.503 -3100.070,2382.736 -3112.135,2391.266 -3134.144,2403.365 -3157.497,2412.611 -3181.824,2418.857 -3206.742,2422.005 -3231.858,2422.005 -3256.776,2418.857 -3281.103,2412.611 -3304.456,2403.365 -3326.465,2391.266 -3346.785,2376.503 -3365.094,2359.309 -3381.103,2339.957 -3394.561,2318.751 -3405.255,2296.025 -3413.017,2272.138 -3417.723,2247.467"/>
<polygon class="node-58" points="-1510.000,-417.700 -1508.423,-442.767 -1503.717,-467.438 -1495.955,-491.325 -1485.261,-514.051 -1483.992,-516.303 -1372.225,-711.462 -1052.171,-1270.246 -982.923,-1391.132 -941.363,-1463.668 -872.725,-1583.226 -849.199,-1620.013 -787.566,-1681.078 -481.532,-1551.423 -473.075,-1536.911 -477.700,-1480.363 -494.063,-1440.672 -511.338,-1409.819 -593.189,-1266.820 -635.125,-1193.580 -705.037,-1071.506 -1025.119,-512.674 -1136.008,-319.097 -1148.197,-300.143 -1164.206,-280.791 -1182.515,-263.597 -1202.835,-248.834 -1224.844,-236.735 -1248.197,-227.489 -1272.524,-221.243 -1297.442,-218.095 -1322.558,-218.095 -1347.476,-221.243 -1371.803,-227.489 -1395.156,-236.735 -1417.165,-248.834 -1437.485,-263.597 -1455.794,-280.791 -1471.803,-300.143 -1485.261,-321.349 -1495.955,-344.075 -1503.717,-367.962 -1508.423,-392.633"/>
<polygon class="node-59" points="6297.275,227.066 6297.473,205.154 6299.325,184.735 6302.802,166.130 6307.848,149.634 6329.813,123.387 6338.751,114.041 6348.839,107.581 6363.511,102.736 6419.364,86.236 6779.878,-20.237 6798.265,-25.667 6813.149,-29.663 6826.724,-33.057 6851.642,-36.205 6876.758,-36.205 6901.676,-33.057 6926.003,-26.811 6949.356,-17.565 6971.365,-5.466 6991.685,9.297 7009.994,26.491 7026.003,45.843 7039.461,67.049 7050.155,89.775 7057.917,113.662 7062.623,138.333 7064.200,163.400 7064.200,163.400 7062.623,188.467 7057.917,213.138 7050.155,237.025 7039.461,259.751 7026.003,280.957 7009.994,300.309 6991.685,317.503 6971.365,332.266 6949.356,344.365 6926.003,353.611 6911.661,357.923 6893.100,363.405 6533.128,469.716 6478.137,485.952 6463.258,490.034 6451.367,490.462 6438.847,487.840 6425.898,482.210 6412.724,473.660 6399.531,462.325 6386.528,448.384 6339.249,391.671 6320.300,346.408 6312.696,322.491 6306.506,298.217"/>
<polygon class="node-60" points="-2009.189,-465.977 -2003.073,-605.912 -1951.627,-713.945 -1937.859,-730.338 -1923.400,-744.318 -1863.301,-772.334 -1835.207,-768.215 -1829.205,-766.911 -1607.843,-706.423 -1573.219,-696.959 -1441.946,-661.045 -1404.147,-650.537 -1165.356,-399.427 -1141.743,-351.082 -1135.085,-321.539 -1164.494,-281.061 -1182.767,-263.901 -1202.835,-248.834 -1225.516,-238.162 -1346.812,-224.722 -1359.972,-225.746 -1374.033,-227.866 -1713.017,-320.497 -1935.533,-381.305 -1952.893,-386.385 -1965.656,-392.989 -1987.612,-414.767 -1996.457,-429.598 -2003.688,-446.758"/>
<polygon class="node-61" points="1824.842,-1842.647 1825.846,-1865.974 1829.900,-1888.732 1837.437,-1914.086 1846.857,-1931.120 1853.176,-1941.189 1865.334,-1959.518 1952.869,-2090.712 1968.135,-2113.588 1992.133,-2149.513 1997.997,-2158.057 2014.006,-2177.409 2032.315,-2194.603 2052.635,-2209.366 2074.644,-2221.465 2097.997,-2230.711 2122.324,-2236.957 2147.242,-2240.105 2172.358,-2240.105 2197.276,-2236.957 2221.603,-2230.711 2244.956,-2221.465 2266.965,-2209.366 2287.285,-2194.603 2305.594,-2177.409 2321.603,-2158.057 2335.061,-2136.851 2345.755,-2114.125 2353.517,-2090.238 2358.223,-2065.567 2359.800,-2040.500 2358.223,-2015.433 2353.517,-1990.762 2345.755,-1966.875 2335.061,-1944.149 2324.007,-1926.501 2321.731,-1922.891 2299.841,-1890.048 2286.427,-1869.944 2196.146,-1734.662 2184.414,-1717.114 2179.044,-1709.714 2163.890,-1692.648 2146.454,-1677.746 2116.454,-1656.944 2094.765,-1648.048 2071.839,-1641.952 2035.692,-1642.545 2011.275,-1644.146 1986.985,-1648.676 1929.213,-1666.338 1908.113,-1679.962 1871.344,-1713.849 1843.688,-1754.758 1833.847,-1777.055 1826.885,-1800.118"/>
<polygon class="node-62" points="-1469.621,-257.195 -1468.864,-265.654 -1399.585,-453.169 -1394.433,-464.117 -1371.416,-491.940 -1361.627,-499.052 -1351.024,-504.881 -1339.774,-509.335 -1294.043,-501.348 -1092.582,-389.801 -1089.407,-380.385 -1068.112,-311.917 -1032.524,-196.457 -920.735,166.238 -910.612,199.083 -905.387,216.038 -889.910,266.353 -875.565,313.021 -870.887,328.553 -866.797,343.090 -883.098,390.053 -909.393,411.774 -944.897,433.167 -987.378,452.888 -1010.414,461.727 -1034.168,469.696 -1082.327,482.538 -1128.828,490.604 -1150.535,492.676 -1170.750,493.389 -1189.155,492.733 -1205.459,490.718 -1219.405,487.375 -1230.774,482.758 -1245.103,470.010 -1251.175,451.577 -1256.659,434.139 -1272.800,381.897 -1287.809,333.302 -1292.746,317.287 -1302.947,284.192 -1414.722,-78.453 -1450.268,-193.783"/>
<polygon class="node-63" points="-730.136,-2073.772 -725.831,-2098.061 -722.464,-2116.045 -710.721,-2175.490 -707.586,-2191.352 -666.686,-2398.231 -660.302,-2430.508 -648.283,-2491.168 -646.205,-2501.300 -644.617,-2508.238 -636.855,-2532.125 -626.161,-2554.851 -612.703,-2576.057 -596.694,-2595.409 -578.385,-2612.603 -558.065,-2627.366 -536.056,-2639.465 -512.703,-2648.711 -488.376,-2654.957 -463.458,-2658.105 -438.342,-2658.105 -413.424,-2654.957 -389.097,-2648.711 -365.744,-2639.465 -343.735,-2627.366 -323.415,-2612.603 -305.106,-2595.409 -289.097,-2576.057 -275.639,-2554.851 -264.945,-2532.125 -257.183,-2508.238 -252.477,-2483.567 -250.900,-2458.500 -252.477,-2433.433 -255.595,-2415.700 -256.783,-2409.312 -267.626,-2354.332 -274.306,-2320.529 -315.056,-2114.408 -318.453,-2097.230 -329.572,-2041.035 -337.599,-2001.336 -341.739,-1994.271 -350.458,-1980.022 -363.542,-1958.784 -377.749,-1947.054 -456.194,-1917.126 -479.662,-1914.483 -528.716,-1915.406 -645.674,-1952.091 -682.464,-1978.095 -709.834,-2008.335 -719.423,-2024.456 -729.654,-2057.435"/>
<polygon class="node-64" points="-4444.600,2557.200 -4443.023,2532.133 -4438.317,2507.462 -4430.555,2483.575 -4419.861,2460.849 -4406.403,2439.643 -4390.394,2420.291 -4372.085,2403.097 -4351.765,2388.334 -4329.756,2376.235 -4308.485,2368.010 -4297.132,2364.010 -4276.190,2357.129 -4245.374,2347.064 -4142.804,2313.570 -3927.250,2243.181 -3793.753,2199.589 -3769.426,2193.343 -3744.508,2190.195 -3719.392,2190.195 -3694.474,2193.343 -3670.147,2199.589 -3646.794,2208.835 -3624.785,2220.934 -3604.465,2235.697 -3586.156,2252.891 -3570.147,2272.243 -3556.689,2293.449 -3545.995,2316.175 -3538.233,2340.062 -3533.527,2364.733 -3531.950,2389.800 -3533.527,2414.867 -3538.233,2439.538 -3545.995,2463.425 -3556.689,2486.151 -3570.147,2507.357 -3586.156,2526.709 -3604.465,2543.903 -3624.785,2558.666 -3646.794,2570.765 -3669.984,2579.957 -3803.228,2623.467 -4182.797,2747.411 -4207.124,2753.657 -4232.042,2756.805 -4257.158,2756.805 -4282.076,2753.657 -4306.403,2747.411 -4329.756,2738.165 -4351.765,2726.066 -4372.085,2711.303 -4390.394,2694.109 -4406.403,2674.757 -4419.861,2653.551 -4430.555,2630.825 -4438.317,2606.938 -4443.023,2582.267"/>
<polygon class="node-65" points="-3802.464,2227.374 -3788.906,2199.961 -3784.803,2196.771 -3773.598,2193.007 -3547.962,2119.328 -3455.760,2089.221 -3373.795,2062.458 -3343.087,2052.432 -3322.626,2045.752 -3313.714,2043.093 -3296.563,2040.541 -3186.459,2050.243 -3167.118,2061.799 -3101.350,2111.638 -3055.740,2180.405 -3039.762,2245.081 -3049.545,2315.724 -3060.363,2337.875 -3091.815,2376.503 -3112.135,2391.266 -3134.816,2401.938 -3157.619,2412.236 -3177.255,2419.042 -3197.998,2425.832 -3218.549,2432.544 -3249.359,2442.606 -3331.442,2469.411 -3423.794,2499.568 -3649.290,2573.201 -3658.591,2576.133 -3674.994,2579.639 -3694.297,2560.769 -3762.113,2410.593 -3783.458,2339.449 -3789.088,2316.827"/>
<polygon class="node-66" points="-1613.350,-451.450 -1611.773,-476.517 -1607.067,-501.188 -1599.305,-525.075 -1588.611,-547.801 -1575.153,-569.007 -1559.144,-588.359 -1540.835,-605.553 -1520.515,-620.316 -1498.506,-632.415 -1475.153,-641.661 -1450.826,-647.907 -1425.908,-651.055 -1400.792,-651.055 -1375.874,-647.907 -1359.239,-643.738 -1353.022,-642.134 -1351.547,-641.661 -1339.043,-637.578 -1283.162,-619.330 -1276.964,-617.306 -1265.938,-613.464 -1257.094,-610.055 -1243.544,-603.232 -1235.101,-598.976 -1214.680,-585.167 -1188.566,-562.412 -1166.973,-536.715 -1154.664,-515.142 -1140.399,-489.021 -1130.947,-458.791 -1126.428,-437.207 -1123.148,-400.040 -1128.318,-381.481 -1135.450,-362.858 -1147.963,-342.172 -1172.077,-305.108 -1193.406,-283.352 -1208.687,-271.877 -1228.749,-257.053 -1245.362,-249.178 -1267.981,-238.912 -1291.654,-231.594 -1316.008,-227.339 -1346.538,-225.847 -1370.984,-228.879 -1389.295,-233.373 -1394.826,-235.007 -1462.853,-257.222 -1474.773,-261.120 -1482.603,-264.067 -1496.628,-269.671 -1498.506,-270.485 -1520.515,-282.584 -1540.835,-297.347 -1559.144,-314.541 -1575.153,-333.893 -1588.611,-355.099 -1599.305,-377.825 -1607.067,-401.712 -1611.773,-426.383"/>
<polygon class="node-67" points="-3321.355,2394.529 -3318.936,2370.862 -3288.193,2075.996 -3276.763,2045.546 -3186.459,2050.243 -3167.118,2061.799 -3080.085,2117.962 -3052.070,2136.679 -3041.023,2146.722 -3013.708,2174.073 -3007.409,2183.814 -3000.508,2194.635 -2874.823,2394.499 -2852.952,2429.278 -2775.994,2551.700 -2770.589,2560.899 -2759.895,2583.625 -2752.133,2607.512 -2747.427,2632.183 -2745.850,2657.250 -2747.427,2682.317 -2752.133,2706.988 -2759.895,2730.875 -2770.589,2753.601 -2784.047,2774.807 -2800.056,2794.159 -2818.365,2811.353 -2838.685,2826.116 -2860.694,2838.215 -2884.047,2847.461 -2908.374,2853.707 -2933.292,2856.855 -2958.408,2856.855 -2983.326,2853.707 -3007.653,2847.461 -3031.006,2838.215 -3053.015,2826.116 -3073.335,2811.353 -3091.644,2794.159 -3107.653,2774.807 -3115.706,2762.800 -3191.880,2641.706 -3213.761,2606.909 -3306.817,2458.924 -3313.266,2448.436 -3315.829,2439.715 -3320.396,2416.747"/>
<polygon class="node-68" points="-3442.400,1849.250 -3440.823,1824.183 -3436.117,1799.512 -3428.355,1775.625 -3417.661,1752.899 -3404.203,1731.693 -3388.194,1712.341 -3369.885,1695.147 -3349.565,1680.384 -3327.556,1668.285 -3304.203,1659.039 -3279.876,1652.793 -3254.958,1649.645 -3229.842,1649.645 -3204.924,1652.793 -3180.597,1659.039 -3157.244,1668.285 -3135.235,1680.384 -3114.915,1695.147 -3096.606,1712.341 -3080.597,1731.693 -3067.139,1752.899 -3056.445,1775.625 -3048.683,1799.512 -3043.977,1824.183 -3043.411,1830.180 -3041.845,1852.042 -3038.160,1911.556 -3023.809,2143.398 -3023.030,2156.169 -3023.180,2158.110 -3024.341,2161.787 -3033.692,2187.098 -3088.168,2227.871 -3175.147,2265.591 -3210.984,2278.431 -3238.236,2286.691 -3309.509,2297.096 -3370.940,2243.996 -3385.726,2224.265 -3405.905,2193.202 -3414.547,2171.322 -3421.269,2153.810 -3424.908,2135.731 -3426.887,2105.646 -3427.272,2099.784 -3437.400,1936.204 -3441.107,1876.310 -3441.738,1864.623"/>
<polygon class="node-69" points="-3119.115,2751.099 -3118.462,2740.620 -3100.427,2702.055 -3089.372,2687.501 -3076.054,2672.470 -3060.682,2657.198 -3043.500,2641.928 -2897.726,2554.347 -2857.820,2541.355 -2839.796,2537.556 -2823.445,2535.644 -2796.762,2537.575 -2775.056,2554.635 -2769.822,2561.723 -2754.984,2585.081 -2710.884,2655.196 -2519.601,2959.383 -2502.578,2986.491 -2497.139,2995.749 -2486.445,3018.475 -2478.683,3042.362 -2473.977,3067.033 -2472.400,3092.100 -2473.977,3117.167 -2478.683,3141.838 -2486.445,3165.725 -2497.139,3188.451 -2510.597,3209.657 -2526.606,3229.009 -2544.915,3246.203 -2565.235,3260.966 -2587.244,3273.065 -2610.597,3282.311 -2634.924,3288.557 -2659.842,3291.705 -2684.958,3291.705 -2709.876,3288.557 -2734.203,3282.311 -2757.556,3273.065 -2779.565,3260.966 -2799.885,3246.203 -2818.194,3229.009 -2834.203,3209.657 -2842.222,3197.709 -2858.013,3172.635 -3049.560,2868.032 -3092.964,2798.995 -3110.940,2770.171"/>
<polygon class="node-70" points="-1716.700,-485.200 -1715.123,-510.267 -1710.417,-534.938 -1702.655,-558.825 -1691.961,-581.551 -1678.503,-602.757 -1662.494,-622.109 -1644.185,-639.303 -1623.865,-654.066 -1601.856,-666.165 -1578.503,-675.411 -1554.176,-681.657 -1529.258,-684.805 -1504.142,-684.805 -1479.224,-681.657 -1477.749,-681.311 -1466.547,-678.636 -1454.897,-675.411 -1388.350,-653.680 -1359.441,-644.228 -1343.007,-638.543 -1333.169,-634.632 -1320.697,-628.127 -1299.881,-614.934 -1291.102,-609.150 -1272.801,-592.567 -1256.716,-573.759 -1232.172,-530.683 -1219.013,-482.629 -1218.064,-432.615 -1222.218,-407.857 -1239.455,-360.781 -1267.619,-319.403 -1285.269,-301.681 -1304.939,-286.322 -1326.319,-273.566 -1349.072,-263.616 -1372.838,-256.628 -1397.243,-252.712 -1421.902,-251.931 -1440.151,-253.810 -1464.375,-258.230 -1479.661,-262.722 -1512.762,-273.520 -1579.470,-295.306 -1586.205,-297.781 -1601.856,-304.235 -1623.865,-316.334 -1644.185,-331.097 -1662.494,-348.291 -1678.503,-367.643 -1691.961,-388.849 -1702.655,-411.575 -1710.417,-435.462 -1715.123,-460.133"/>
<polygon class="node-71" points="-3465.500,1476.100 -3463.923,1451.033 -3459.217,1426.362 -3451.455,1402.475 -3440.761,1379.749 -3427.303,1358.543 -3411.294,1339.191 -3392.985,1321.997 -3372.665,1307.234 -3350.656,1295.135 -3327.303,1285.889 -3302.976,1279.643 -3278.058,1276.495 -3252.942,1276.495 -3228.024,1279.643 -3203.697,1285.889 -3180.344,1295.135 -3158.335,1307.234 -3138.015,1321.997 -3119.706,1339.191 -3103.697,1358.543 -3090.239,1379.749 -3079.545,1402.475 -3071.783,1426.362 -3067.077,1451.033 -3066.412,1457.838 -3065.629,1468.420 -3063.935,1495.449 -3061.653,1532.183 -3059.812,1561.896 -3051.594,1694.564 -3045.590,1791.566 -3043.848,1819.970 -3043.061,1838.175 -3043.562,1858.035 -3047.612,1876.288 -3064.816,1911.233 -3130.916,1967.489 -3175.659,1985.264 -3224.596,1994.494 -3274.651,1994.597 -3299.113,1991.202 -3322.680,1985.567 -3344.982,1977.784 -3365.665,1967.973 -3400.904,1942.918 -3414.905,1928.069 -3434.566,1894.897 -3441.453,1863.720 -3442.800,1848.678 -3444.754,1817.378 -3450.762,1720.342 -3459.176,1584.342 -3461.031,1554.351 -3463.369,1516.455 -3464.447,1498.706"/>
</svg>