<?xml version="1.0" encoding="UTF-8"?>
<svg xmlns="http://www.w3.org/2000/svg" viewBox="-78.177 -46.327 174.441 102.731">
<defs>
<style>
.node-0{fill:#ffffff;stroke:#000000;stroke-width:0.500px;opacity:1.0;}
.node-1{fill:#ffffff;stroke:#000000;stroke-width:0.500px;opacity:1.0;}
.node-2{fill:#ffffff;stroke:#000000;stroke-width:0.500px;opacity:1.0;}
.node-3{fill:#ffffff;stroke:#000000;stroke-width:0.500px;opacity:1.0;}
.node-4{fill:#ffffff;stroke:#000000;stroke-width:0.500px;opacity:1.0;}
.node-5{fill:#ffffff;stroke:#000000;stroke-width:0.500px;opacity:1.0;}
.node-6{fill:#ff0000;stroke:#000000;stroke-width:0.500px;opacity:1.0;}
.node-7{fill:#ffffff;stroke:#000000;stroke-width:0.500px;opacity:1.0;}
.node-8{fill:#505050;stroke:#000000;stroke-width:0.500px;opacity:1.0;}
.node-9{fill:#505050;stroke:#000000;stroke-width:0.500px;opacity:1.0;}
.node-10{fill:#ff0000;stroke:#000000;stroke-width:0.500px;opacity:1.0;}
.node-11{fill:#505050;stroke:#000000;stroke-width:0.500px;opacity:1.0;}
.node-12{fill:#ffffff;stroke:#000000;stroke-width:0.500px;opacity:1.0;}
.node-13{fill:#ffffff;stroke:#000000;stroke-width:0.500px;opacity:1.0;}
.node-14{fill:#ffffff;stroke:#000000;stroke-width:0.500px;opacity:1.0;}
.node-15{fill:#505050;stroke:#000000;stroke-width:0.500px;opacity:1.0;}
.node-16{fill:#505050;stroke:#000000;stroke-width:0.500px;opacity:1.0;}
.node-17{fill:#505050;stroke:#000000;stroke-width:0.500px;opacity:1.0;}
.node-18{fill:#0000ff;stroke:#000000;stroke-width:0.500px;opacity:1.0;}
.node-19{fill:#505050;stroke:#000000;stroke-width:0.500px;opacity:1.0;}
.node-20{fill:#505050;stroke:#000000;stroke-width:0.500px;opacity:1.0;}
.node-21{fill:#505050;stroke:#000000;stroke-width:0.500px;opacity:1.0;}
.node-22{fill:#505050;stroke:#000000;stroke-width:0.500px;opacity:1.0;}
.node-23{fill:#505050;stroke:#000000;stroke-width:0.500px;opacity:1.0;}
.node-24{fill:#505050;stroke:#000000;stroke-width:0.500px;opacity:1.0;}
.node-25{fill:#0000ff;stroke:#000000;stroke-width:0.500px;opacity:1.0;}
.node-26{fill:#ffffff;stroke:#000000;stroke-width:0.500px;opacity:1.0;}
.node-27{fill:#505050;stroke:#000000;stroke-width:0.500px;opacity:1.0;}
.node-28{fill:#ffff00;stroke:#000000;stroke-width:0.500px;opacity:1.0;}
.node-29{fill:#505050;stroke:#000000;stroke-width:0.500px;opacity:1.0;}
.node-30{fill:#ffffff;stroke:#000000;stroke-width:0.500px;opacity:1.0;}
.node-31{fill:#ff0000;stroke:#000000;stroke-width:0.500px;opacity:1.0;}
.node-32{fill:#ffffff;stroke:#000000;stroke-width:0.500px;opacity:1.0;}
.node-33{fill:#505050;stroke:#000000;stroke-width:0.500px;opacity:1.0;}
.node-34{fill:#ffffff;stroke:#000000;stroke-width:0.500px;opacity:1.0;}
.node-35{fill:#ffffff;stroke:#000000;stroke-width:0.500px;opacity:1.0;}
.node-36{fill:#ff0000;stroke:#000000;stroke-width:0.500px;opacity:1.0;}
.node-37{fill:#505050;stroke:#000000;stroke-width:0.500px;opacity:1.0;}
.node-38{fill:#ffffff;stroke:#000000;stroke-width:0.500px;opacity:1.0;}
.node-39{fill:#ffffff;stroke:#000000;stroke-width:0.500px;opacity:1.0;}
.node-40{fill:#ffffff;stroke:#000000;stroke-width:0.500px;opacity:1.0;}
</style>

</defs>
<polygon class="node-0" points="-28.700,20.965 -28.680,20.316 -28.619,19.671 -28.609,19.610 -28.508,18.967 -28.365,18.331 -28.184,17.706 -28.163,17.641 -27.941,17.027 -27.682,16.428 -27.650,16.364 -27.353,15.781 -27.020,15.218 -26.652,14.677 -26.610,14.616 -26.209,14.099 -25.776,13.608 -25.726,13.554 -25.263,13.091 -24.772,12.658 -24.716,12.613 -24.199,12.212 -23.658,11.844 -23.598,11.809 -23.036,11.476 -22.455,11.180 -21.856,10.921 -21.243,10.700 -20.616,10.518 -19.980,10.376 -19.336,10.274 -18.686,10.213 -18.034,10.192 -17.382,10.213 -16.733,10.274 -16.088,10.376 -15.452,10.518 -14.825,10.700 -14.212,10.921 -13.613,11.180 -13.032,11.476 -12.470,11.809 -11.931,12.175 -11.416,12.575 -10.926,13.006 -10.465,13.468 -10.034,13.957 -9.634,14.472 -9.267,15.012 -8.935,15.573 -8.639,16.154 -8.380,16.753 -8.159,17.367 -7.977,17.993 -7.835,18.630 -7.733,19.274 -7.671,19.923 -7.651,20.575 -7.651,20.575 -7.671,21.227 -7.733,21.877 -7.835,22.521 -7.977,23.158 -8.159,23.784 -8.380,24.398 -8.407,24.461 -8.667,25.061 -8.964,25.644 -9.296,26.206 -9.334,26.269 -9.702,26.810 -10.103,27.327 -10.150,27.384 -10.583,27.875 -11.046,28.338 -11.101,28.388 -11.591,28.820 -12.108,29.221 -12.168,29.262 -12.708,29.629 -13.270,29.961 -13.852,30.258 -13.913,30.287 -14.511,30.546 -15.124,30.766 -15.185,30.784 -15.808,30.965 -16.441,31.107 -17.081,31.208 -17.136,31.214 -17.779,31.275 -18.424,31.295 -19.069,31.275 -19.712,31.214 -19.753,31.209 -20.387,31.109 -21.013,30.969 -21.629,30.790 -22.233,30.572 -22.821,30.317 -23.393,30.026 -23.407,30.019 -23.956,29.694 -24.482,29.336 -24.986,28.946 -25.464,28.524 -25.914,28.074 -26.336,27.596 -26.726,27.092 -26.736,27.079 -27.096,26.549 -27.423,25.996 -27.714,25.425 -27.969,24.836 -28.186,24.232 -28.365,23.616 -28.376,23.576 -28.517,22.946 -28.618,22.308 -28.678,21.666 -28.699,21.020"/>
<polygon class="node-1" points="10.584,-8.349 10.605,-9.001 10.666,-9.650 10.768,-10.295 10.910,-10.931 11.092,-11.558 11.313,-12.172 11.573,-12.771 11.869,-13.352 12.201,-13.914 12.568,-14.453 12.968,-14.969 13.399,-15.458 13.860,-15.920 13.901,-15.958 14.392,-16.391 14.908,-16.792 15.449,-17.159 15.499,-17.192 16.062,-17.526 16.646,-17.823 16.701,-17.847 17.302,-18.107 17.918,-18.329 18.547,-18.512 18.606,-18.527 19.245,-18.669 19.891,-18.772 20.542,-18.833 20.600,-18.837 21.253,-18.858 21.906,-18.837 22.556,-18.776 22.609,-18.769 23.253,-18.668 23.888,-18.525 24.514,-18.344 24.558,-18.329 25.169,-18.109 25.764,-17.851 26.342,-17.557 26.901,-17.226 26.930,-17.206 27.464,-16.844 27.975,-16.448 28.459,-16.021 28.915,-15.564 29.342,-15.080 29.738,-14.570 30.101,-14.036 30.430,-13.480 30.723,-12.905 30.979,-12.312 31.198,-11.705 31.378,-11.085 31.519,-10.455 31.620,-9.817 31.681,-9.174 31.701,-8.529 31.701,-8.529 31.681,-7.884 31.620,-7.241 31.519,-6.603 31.378,-5.973 31.370,-5.938 31.189,-5.315 30.969,-4.705 30.711,-4.109 30.417,-3.531 30.395,-3.489 30.063,-2.929 29.697,-2.390 29.298,-1.875 29.264,-1.834 28.832,-1.344 28.370,-0.883 27.880,-0.451 27.835,-0.414 27.318,-0.013 26.777,0.355 26.214,0.688 26.161,0.718 25.577,1.015 24.976,1.275 24.360,1.497 24.303,1.518 23.674,1.700 23.035,1.843 22.977,1.853 22.331,1.956 21.680,2.017 21.026,2.038 20.970,2.037 20.318,2.017 19.668,1.955 19.024,1.853 18.387,1.711 17.761,1.529 17.147,1.308 16.548,1.049 15.967,0.753 15.405,0.421 14.865,0.054 14.350,-0.346 13.860,-0.778 13.399,-1.239 12.968,-1.728 12.568,-2.244 12.201,-2.783 11.869,-3.345 11.573,-3.926 11.313,-4.525 11.092,-5.139 10.910,-5.766 10.768,-6.402 10.666,-7.047 10.605,-7.696"/>
<polygon class="node-2" points="-37.978,1.768 -37.957,1.110 -37.895,0.455 -37.894,0.441 -37.790,-0.214 -37.645,-0.860 -37.461,-1.497 -37.236,-2.120 -36.973,-2.728 -36.672,-3.319 -36.652,-3.354 -36.312,-3.927 -35.938,-4.479 -35.529,-5.006 -35.088,-5.506 -35.051,-5.545 -34.577,-6.019 -34.075,-6.462 -33.545,-6.873 -33.494,-6.910 -32.938,-7.288 -32.359,-7.630 -31.760,-7.935 -31.698,-7.966 -31.079,-8.234 -30.445,-8.463 -30.375,-8.485 -29.727,-8.673 -29.068,-8.821 -28.994,-8.833 -28.327,-8.938 -27.654,-9.002 -26.979,-9.023 -26.904,-9.025 -26.229,-9.004 -25.556,-8.940 -25.483,-8.931 -24.817,-8.826 -24.159,-8.678 -24.091,-8.660 -23.444,-8.472 -22.811,-8.244 -22.193,-7.976 -21.593,-7.671 -21.014,-7.328 -20.457,-6.950 -19.925,-6.537 -19.420,-6.092 -18.944,-5.616 -18.499,-5.111 -18.086,-4.579 -17.708,-4.022 -17.365,-3.443 -17.059,-2.843 -16.792,-2.225 -16.564,-1.592 -16.376,-0.945 -16.229,-0.288 -16.124,0.377 -16.061,1.047 -16.039,1.720 -16.039,1.720 -16.061,2.393 -16.124,3.063 -16.229,3.728 -16.376,4.385 -16.564,5.031 -16.792,5.665 -17.059,6.283 -17.365,6.882 -17.708,7.462 -18.086,8.019 -18.499,8.551 -18.944,9.056 -19.420,9.532 -19.925,9.977 -20.457,10.389 -21.014,10.768 -21.593,11.111 -22.193,11.416 -22.811,11.684 -22.876,11.711 -23.511,11.940 -24.159,12.128 -24.229,12.146 -24.889,12.293 -25.556,12.399 -25.630,12.407 -26.303,12.471 -26.979,12.492 -27.654,12.471 -27.728,12.468 -28.401,12.404 -29.068,12.299 -29.139,12.286 -29.797,12.138 -30.445,11.950 -30.511,11.927 -31.143,11.700 -31.760,11.433 -32.359,11.127 -32.415,11.097 -32.991,10.756 -33.545,10.380 -34.075,9.969 -34.117,9.934 -34.617,9.494 -35.088,9.022 -35.529,8.522 -35.938,7.996 -35.962,7.964 -36.335,7.416 -36.672,6.845 -36.973,6.255 -37.236,5.647 -37.461,5.023 -37.645,4.387 -37.649,4.373 -37.793,3.731 -37.895,3.081 -37.957,2.426"/>
<polygon class="node-3" points="-6.935,-9.207 -6.913,-9.891 -6.849,-10.573 -6.742,-11.250 -6.592,-11.918 -6.585,-11.945 -6.393,-12.603 -6.161,-13.248 -5.889,-13.877 -5.578,-14.487 -5.229,-15.077 -4.844,-15.643 -4.424,-16.185 -4.408,-16.206 -3.955,-16.720 -3.471,-17.204 -2.957,-17.657 -2.416,-18.077 -1.850,-18.461 -1.260,-18.810 -0.650,-19.121 -0.631,-19.130 -0.004,-19.402 0.639,-19.633 1.296,-19.824 1.963,-19.973 2.638,-20.080 3.319,-20.145 4.002,-20.166 4.685,-20.145 5.366,-20.080 6.041,-19.973 6.708,-19.824 7.364,-19.633 8.008,-19.402 8.635,-19.130 9.244,-18.820 9.833,-18.472 10.398,-18.088 10.938,-17.669 11.451,-17.217 11.934,-16.733 12.386,-16.221 12.805,-15.681 13.189,-15.115 13.537,-14.527 13.848,-13.918 14.119,-13.290 14.351,-12.647 14.357,-12.627 14.542,-11.991 14.673,-11.344 14.751,-10.692 14.815,-10.016 14.836,-9.337 14.836,-9.337 14.815,-8.658 14.751,-7.982 14.645,-7.311 14.524,-6.612 14.351,-5.922 14.120,-5.218 13.848,-4.589 13.537,-3.978 13.188,-3.389 13.174,-3.365 12.789,-2.798 12.369,-2.257 11.916,-1.743 11.432,-1.259 10.918,-0.806 10.377,-0.386 10.357,-0.372 9.792,0.013 9.203,0.361 8.593,0.671 7.966,0.943 7.322,1.175 6.665,1.366 5.998,1.515 5.322,1.622 4.641,1.686 4.628,1.687 3.946,1.708 3.264,1.687 2.585,1.623 1.911,1.516 1.245,1.367 0.589,1.177 -0.053,0.945 -0.679,0.674 -1.287,0.365 -1.875,0.017 -2.439,-0.366 -2.979,-0.785 -3.490,-1.236 -3.973,-1.719 -4.424,-2.231 -4.433,-2.240 -4.852,-2.781 -5.236,-3.347 -5.585,-3.935 -5.895,-4.545 -6.167,-5.173 -6.398,-5.816 -6.589,-6.473 -6.739,-7.141 -6.846,-7.816 -6.849,-7.840 -6.913,-8.522"/>
<polygon class="node-4" points="13.084,12.869 13.105,12.186 13.169,11.507 13.276,10.832 13.425,10.166 13.616,9.510 13.847,8.867 14.118,8.241 14.428,7.632 14.776,7.044 15.160,6.479 15.578,5.940 16.030,5.428 16.513,4.945 17.025,4.493 17.565,4.074 18.130,3.691 18.717,3.343 19.326,3.033 19.953,2.762 20.595,2.530 21.251,2.340 21.917,2.191 22.592,2.084 23.272,2.020 23.954,1.998 24.637,2.020 25.317,2.084 25.991,2.191 26.063,2.202 26.731,2.352 27.388,2.543 27.460,2.565 28.105,2.797 28.734,3.070 28.804,3.103 29.415,3.414 30.005,3.763 30.069,3.806 30.636,4.191 31.177,4.611 31.691,5.064 31.747,5.113 32.230,5.597 32.683,6.110 32.728,6.165 33.146,6.705 33.530,7.269 33.877,7.856 33.910,7.912 34.219,8.518 34.488,9.141 34.509,9.197 34.738,9.833 34.927,10.483 35.074,11.143 35.180,11.811 35.186,11.855 35.249,12.525 35.270,13.197 35.270,13.197 35.249,13.869 35.186,14.539 35.080,15.203 35.076,15.225 34.930,15.877 34.743,16.519 34.517,17.147 34.252,17.760 33.949,18.355 33.609,18.930 33.233,19.482 32.824,20.010 32.382,20.511 32.369,20.525 31.893,21.001 31.389,21.445 30.857,21.858 30.301,22.236 29.722,22.578 29.123,22.883 29.082,22.904 28.461,23.172 27.825,23.401 27.175,23.590 27.120,23.603 26.456,23.752 25.785,23.858 25.108,23.922 25.043,23.925 24.361,23.947 23.679,23.925 23.000,23.861 22.928,23.854 22.253,23.747 21.585,23.597 21.512,23.578 20.854,23.387 20.210,23.155 20.139,23.125 19.510,22.853 18.899,22.542 18.309,22.193 18.243,22.153 17.676,21.768 17.135,21.348 17.076,21.300 16.563,20.848 16.079,20.364 16.030,20.310 15.578,19.798 15.160,19.259 14.776,18.694 14.428,18.106 14.118,17.497 13.847,16.871 13.616,16.228 13.425,15.572 13.276,14.906 13.169,14.231 13.105,13.552"/>
<polygon class="node-5" points="-44.219,28.158 -44.198,27.495 -44.191,27.413 -44.129,26.748 -44.024,26.087 -44.004,25.997 -43.857,25.340 -43.670,24.693 -43.637,24.597 -43.407,23.960 -43.139,23.338 -43.092,23.239 -42.783,22.633 -42.437,22.047 -42.378,21.948 -41.995,21.383 -41.925,21.288 -41.506,20.747 -41.053,20.234 -40.973,20.144 -40.488,19.659 -40.400,19.576 -39.886,19.122 -39.791,19.048 -39.249,18.627 -38.681,18.242 -38.582,18.177 -37.992,17.828 -37.888,17.773 -37.279,17.463 -36.652,17.192 -36.009,16.960 -35.352,16.769 -34.685,16.620 -34.010,16.513 -33.330,16.449 -32.647,16.428 -31.964,16.449 -31.283,16.513 -30.608,16.620 -29.941,16.769 -29.285,16.960 -28.642,17.192 -28.014,17.463 -27.405,17.773 -26.703,18.877 -26.010,20.071 -25.373,21.299 -24.291,23.781 -24.030,24.384 -23.295,26.180 -22.487,28.529 -22.176,30.096 -22.299,30.669 -22.531,31.313 -22.802,31.940 -23.113,32.549 -23.461,33.137 -23.845,33.702 -24.264,34.242 -24.336,34.335 -24.789,34.849 -24.871,34.936 -25.356,35.421 -25.446,35.501 -25.960,35.955 -26.503,36.376 -26.599,36.447 -27.167,36.833 -27.269,36.895 -27.858,37.244 -28.468,37.554 -28.574,37.606 -29.200,37.877 -29.308,37.917 -29.948,38.148 -30.601,38.337 -30.707,38.365 -31.368,38.513 -32.036,38.619 -32.137,38.634 -32.807,38.697 -32.904,38.701 -33.572,38.722 -34.240,38.701 -34.326,38.693 -34.987,38.630 -35.642,38.527 -36.289,38.382 -36.356,38.365 -36.987,38.182 -37.605,37.959 -38.208,37.698 -38.253,37.677 -38.832,37.381 -39.392,37.050 -39.930,36.685 -40.444,36.286 -40.932,35.856 -41.391,35.396 -41.821,34.908 -42.220,34.395 -42.586,33.857 -42.917,33.297 -43.212,32.718 -43.470,32.121 -43.690,31.509 -43.872,30.884 -43.885,30.835 -44.029,30.194 -44.132,29.545 -44.193,28.891 -44.198,28.821"/>
<polygon class="node-6" points="-35.193,-23.924 -35.166,-24.786 -35.084,-25.644 -35.077,-25.718 -34.943,-26.564 -34.756,-27.400 -34.517,-28.223 -34.499,-28.276 -34.211,-29.077 -33.873,-29.857 -33.487,-30.615 -33.054,-31.347 -32.576,-32.050 -32.054,-32.722 -31.492,-33.360 -30.891,-33.962 -30.253,-34.524 -29.581,-35.046 -28.877,-35.524 -28.145,-35.957 -27.387,-36.343 -26.607,-36.680 -25.807,-36.968 -24.990,-37.206 -24.160,-37.391 -24.103,-37.404 -23.257,-37.538 -22.404,-37.619 -21.548,-37.646 -21.472,-37.645 -20.610,-37.618 -19.752,-37.537 -18.901,-37.402 -18.812,-37.386 -17.966,-37.197 -17.134,-36.955 -17.041,-36.923 -16.223,-36.628 -15.425,-36.283 -14.650,-35.888 -14.554,-35.839 -13.803,-35.395 -13.082,-34.904 -12.990,-34.841 -12.300,-34.306 -11.644,-33.728 -11.560,-33.652 -10.941,-33.034 -10.363,-32.377 -10.289,-32.292 -9.753,-31.601 -9.261,-30.878 -9.199,-30.786 -8.754,-30.034 -8.357,-29.255 -8.309,-29.159 -7.963,-28.359 -7.667,-27.539 -7.633,-27.443 -7.391,-26.608 -7.201,-25.760 -7.065,-24.901 -6.984,-24.036 -6.956,-23.167 -6.956,-23.167 -6.984,-22.299 -7.065,-21.433 -7.201,-20.575 -7.391,-19.726 -7.633,-18.892 -7.928,-18.074 -8.273,-17.276 -8.668,-16.502 -9.110,-15.754 -9.599,-15.035 -10.131,-14.348 -10.706,-13.696 -11.321,-13.081 -11.973,-12.506 -12.660,-11.974 -13.379,-11.485 -14.127,-11.043 -14.901,-10.648 -15.699,-10.303 -16.517,-10.008 -17.351,-9.766 -18.200,-9.576 -19.058,-9.440 -19.924,-9.358 -20.792,-9.331 -21.661,-9.358 -22.527,-9.440 -23.385,-9.576 -24.233,-9.766 -25.068,-10.008 -25.886,-10.303 -26.684,-10.648 -26.776,-10.692 -27.553,-11.088 -28.303,-11.532 -28.394,-11.591 -29.116,-12.082 -29.807,-12.617 -29.892,-12.689 -30.548,-13.268 -31.166,-13.886 -31.243,-13.969 -31.822,-14.625 -32.358,-15.316 -32.423,-15.408 -32.915,-16.131 -33.360,-16.883 -33.412,-16.981 -33.808,-17.758 -34.155,-18.558 -34.193,-18.658 -34.488,-19.477 -34.730,-20.312 -34.753,-20.410 -34.942,-21.256 -35.077,-22.111 -35.159,-22.974 -35.166,-23.063"/>
<polygon class="node-7" points="20.450,-19.938 20.471,-20.624 20.536,-21.308 20.643,-21.986 20.793,-22.656 20.985,-23.315 21.217,-23.961 21.490,-24.592 21.802,-25.203 22.151,-25.794 22.537,-26.362 22.958,-26.905 23.412,-27.420 23.482,-27.493 23.969,-27.980 24.485,-28.435 24.565,-28.503 25.109,-28.925 25.196,-28.985 25.766,-29.373 26.360,-29.724 26.453,-29.774 27.066,-30.087 27.699,-30.361 27.795,-30.401 28.442,-30.634 28.541,-30.663 29.200,-30.855 29.869,-31.004 29.966,-31.022 30.641,-31.128 31.322,-31.193 31.415,-31.198 32.094,-31.220 32.774,-31.198 32.860,-31.192 33.533,-31.129 34.201,-31.023 34.276,-31.007 34.931,-30.860 35.576,-30.673 36.208,-30.445 36.265,-30.422 36.877,-30.158 37.470,-29.855 38.044,-29.516 38.595,-29.142 38.626,-29.120 39.148,-28.715 39.643,-28.278 40.110,-27.812 40.546,-27.316 40.951,-26.795 41.322,-26.249 41.658,-25.681 41.958,-25.092 42.220,-24.486 42.444,-23.865 42.628,-23.231 42.772,-22.587 42.779,-22.549 42.883,-21.891 42.946,-21.228 42.967,-20.562 42.967,-20.562 42.946,-19.896 42.942,-19.834 42.879,-19.166 42.774,-18.503 42.627,-17.847 42.610,-17.772 42.421,-17.123 42.192,-16.486 42.161,-16.407 41.891,-15.782 41.582,-15.176 41.538,-15.095 41.190,-14.506 40.806,-13.941 40.749,-13.860 40.328,-13.318 39.875,-12.804 39.806,-12.727 39.320,-12.240 39.243,-12.170 38.726,-11.715 38.182,-11.292 38.096,-11.230 37.526,-10.842 36.933,-10.491 36.841,-10.438 36.227,-10.125 36.132,-10.082 35.501,-9.809 34.853,-9.576 34.757,-9.544 34.097,-9.352 33.427,-9.202 32.749,-9.095 32.066,-9.030 31.379,-9.009 30.780,-9.061 29.299,-9.798 28.749,-10.095 28.221,-10.441 26.128,-11.982 25.601,-12.391 25.102,-12.831 23.095,-14.681 22.606,-15.176 22.161,-15.703 21.306,-16.776 20.932,-17.323 20.643,-17.890 20.536,-18.568 20.471,-19.252"/>
<polygon class="node-8" points="-40.182,25.906 -40.168,24.850 -40.074,23.783 -39.920,22.576 -39.634,21.371 -39.267,20.313 -39.218,20.187 -38.824,19.277 -38.374,18.393 -38.308,18.268 -37.801,17.412 -37.242,16.590 -37.161,16.471 -36.550,15.684 -36.456,15.575 -35.797,14.828 -35.092,14.123 -34.987,14.026 -34.240,13.367 -33.453,12.757 -33.340,12.673 -32.518,12.114 -31.662,11.608 -31.545,11.541 -30.885,11.238 -30.074,10.938 -29.233,10.712 -27.400,10.344 -26.418,10.188 -24.334,9.936 -23.239,9.856 -22.055,9.776 -20.896,9.820 -19.932,10.036 -18.983,10.311 -18.053,10.646 -17.147,11.039 -16.266,11.487 -15.416,11.990 -14.598,12.545 -13.818,13.151 -13.077,13.805 -12.378,14.503 -11.724,15.244 -11.119,16.025 -10.563,16.842 -10.060,17.693 -9.612,18.573 -9.219,19.480 -8.885,20.410 -8.609,21.359 -8.394,22.323 -8.239,23.299 -8.146,24.282 -8.115,25.270 -8.115,25.270 -8.146,26.258 -8.239,27.241 -8.394,28.217 -8.609,29.182 -8.885,30.130 -9.219,31.060 -9.264,31.183 -9.658,32.094 -9.719,32.214 -10.170,33.100 -10.676,33.956 -10.753,34.074 -11.313,34.897 -11.923,35.684 -12.014,35.795 -12.673,36.542 -13.378,37.247 -13.481,37.348 -14.228,38.006 -14.342,38.095 -15.128,38.704 -15.950,39.263 -16.071,39.336 -16.925,39.842 -17.809,40.292 -17.932,40.348 -18.839,40.741 -19.770,41.076 -19.891,41.114 -20.837,41.388 -21.797,41.603 -21.913,41.622 -22.880,41.775 -23.854,41.867 -24.833,41.898 -24.932,41.898 -25.904,41.868 -26.872,41.776 -27.832,41.624 -27.908,41.610 -28.849,41.399 -29.776,41.130 -30.683,40.804 -31.568,40.421 -32.428,39.983 -32.459,39.966 -33.282,39.479 -34.073,38.942 -34.828,38.356 -35.545,37.724 -36.220,37.048 -36.831,36.336 -37.368,35.590 -37.830,34.818 -38.300,34.023 -38.990,32.379 -39.298,31.522 -39.552,30.648 -39.750,29.760 -39.893,28.861 -40.118,26.943"/>
<polygon class="node-9" points="11.974,-16.672 12.253,-17.538 12.647,-18.447 13.096,-19.330 13.600,-20.182 14.157,-21.001 14.764,-21.784 14.830,-21.867 15.487,-22.613 16.190,-23.316 16.273,-23.394 17.020,-24.053 17.807,-24.664 17.903,-24.733 18.729,-25.294 19.588,-25.802 19.695,-25.859 20.585,-26.313 21.501,-26.709 21.616,-26.753 22.555,-27.091 23.514,-27.369 23.632,-27.397 24.605,-27.615 25.707,-27.782 27.049,-27.809 28.255,-27.711 29.425,-27.483 30.458,-27.270 31.457,-26.985 33.294,-26.375 35.001,-25.547 35.802,-25.140 36.575,-24.682 37.318,-24.177 38.748,-23.149 40.048,-21.904 40.659,-21.237 41.243,-20.541 41.740,-19.735 42.179,-18.874 42.563,-17.986 42.891,-17.077 42.894,-17.066 43.166,-16.130 43.379,-15.179 43.531,-14.216 43.623,-13.246 43.654,-12.272 43.654,-12.272 43.623,-11.298 43.531,-10.328 43.523,-10.266 43.370,-9.297 43.156,-8.340 42.882,-7.398 42.549,-6.474 42.519,-6.393 42.127,-5.487 41.679,-4.608 41.177,-3.759 41.124,-3.672 40.567,-2.852 39.960,-2.069 39.889,-1.985 39.231,-1.239 38.528,-0.535 38.442,-0.458 37.694,0.201 36.906,0.812 36.082,1.373 35.981,1.440 35.122,1.949 34.232,2.402 34.122,2.456 33.206,2.853 32.266,3.191 32.151,3.230 31.193,3.509 30.219,3.727 30.103,3.750 29.233,3.883 28.464,3.883 26.582,3.812 25.589,3.718 23.514,3.415 22.332,3.230 21.107,2.922 20.198,2.529 19.316,2.079 18.464,1.575 17.645,1.018 16.862,0.411 16.119,-0.243 15.419,-0.944 14.764,-1.687 14.157,-2.469 13.600,-3.288 13.231,-4.190 13.087,-5.211 12.972,-6.248 12.537,-10.266 12.243,-13.160 12.152,-14.102"/>
<polygon class="node-10" points="-66.376,10.686 -66.350,9.855 -66.272,9.028 -66.264,8.969 -66.132,8.138 -65.949,7.316 -65.714,6.507 -65.683,6.421 -65.394,5.619 -65.056,4.837 -64.669,4.078 -64.612,3.970 -64.173,3.229 -63.689,2.516 -63.608,2.402 -63.075,1.715 -62.500,1.063 -62.397,0.947 -61.777,0.327 -61.658,0.216 -60.995,-0.368 -60.298,-0.909 -60.159,-1.016 -59.424,-1.515 -59.273,-1.613 -58.504,-2.067 -58.342,-2.153 -57.543,-2.560 -57.372,-2.635 -56.547,-2.992 -55.701,-3.296 -55.520,-3.359 -54.656,-3.610 -54.470,-3.659 -53.591,-3.855 -53.402,-3.890 -52.513,-4.031 -52.324,-4.051 -51.428,-4.135 -51.240,-4.141 -50.343,-4.170 -49.445,-4.141 -49.264,-4.133 -48.373,-4.049 -47.489,-3.909 -46.615,-3.714 -45.756,-3.464 -44.914,-3.161 -44.092,-2.805 -43.295,-2.399 -42.525,-1.944 -41.784,-1.441 -41.077,-0.892 -40.406,-0.300 -39.773,0.333 -39.181,1.004 -38.633,1.711 -38.130,2.451 -37.674,3.222 -36.360,6.542 -36.164,7.415 -36.024,8.299 -35.940,9.190 -35.912,10.085 -35.912,10.085 -35.940,10.979 -36.024,11.870 -36.164,12.754 -36.360,13.627 -36.609,14.487 -36.912,15.329 -37.268,16.150 -37.674,16.948 -38.130,17.718 -38.633,18.458 -39.181,19.165 -39.925,19.905 -41.942,21.684 -42.525,22.113 -43.295,22.568 -44.092,22.975 -44.258,23.053 -45.082,23.410 -45.256,23.476 -46.102,23.781 -46.284,23.835 -47.149,24.087 -48.028,24.283 -48.215,24.324 -49.105,24.465 -49.295,24.492 -50.191,24.576 -50.382,24.589 -51.280,24.617 -51.469,24.615 -52.365,24.586 -52.550,24.569 -53.439,24.485 -54.321,24.346 -54.497,24.315 -55.364,24.121 -55.531,24.077 -56.379,23.830 -57.210,23.531 -57.361,23.476 -58.166,23.128 -58.304,23.061 -59.079,22.666 -59.827,22.224 -59.944,22.151 -60.656,21.667 -61.336,21.139 -61.429,21.064 -62.068,20.500 -62.670,19.898 -62.737,19.825 -63.294,19.193 -63.810,18.528 -64.283,17.831 -64.712,17.107 -64.740,17.058 -65.117,16.318 -65.447,15.555 -65.728,14.773 -65.960,13.975 -66.142,13.164 -66.272,12.344 -66.350,11.516"/>
<polygon class="node-11" points="18.361,6.824 18.686,4.812 19.085,3.890 19.542,2.995 20.246,2.164 23.219,1.283 34.765,-1.998 36.357,-2.426 40.183,-3.439 41.124,-3.669 41.258,-3.604 42.159,-3.144 43.030,-2.629 43.152,-2.552 43.987,-1.984 44.785,-1.366 44.893,-1.278 45.647,-0.613 46.359,0.099 46.449,0.193 47.112,0.944 47.725,1.736 47.797,1.833 48.356,2.657 48.863,3.514 48.913,3.610 49.362,4.492 49.755,5.400 50.090,6.330 50.116,6.413 50.389,7.356 50.604,8.314 50.757,9.283 50.849,10.260 50.880,11.241 50.882,11.286 50.882,11.286 50.851,12.259 50.760,13.227 50.607,14.188 50.395,15.137 50.124,16.071 49.794,16.986 49.408,17.879 48.967,18.745 48.471,19.583 47.925,20.387 47.897,20.424 47.295,21.200 46.646,21.936 45.952,22.630 45.216,23.279 44.440,23.881 44.370,23.935 43.552,24.491 42.701,24.994 42.609,25.042 41.722,25.494 40.808,25.889 39.871,26.226 39.755,26.265 38.794,26.545 37.816,26.763 37.687,26.788 36.693,26.945 35.692,27.040 35.552,27.049 34.543,27.080 33.535,27.049 33.389,27.041 32.382,26.946 31.383,26.788 31.236,26.763 30.248,26.542 30.105,26.502 29.131,26.219 28.178,25.876 28.041,25.821 27.111,25.419 26.209,24.959 26.081,24.890 25.211,24.376 24.375,23.807 24.260,23.728 23.576,23.188 23.074,22.637 22.164,21.255 21.733,20.471 20.861,18.784 19.896,16.049 19.619,15.093 18.675,11.059 18.509,10.005 18.423,8.950"/>
<polygon class="node-12" points="-29.898,41.092 -29.781,40.710 -29.346,40.206 -28.769,39.686 -28.206,39.206 -24.905,37.119 -23.771,36.442 -21.733,35.321 -18.295,33.490 -14.588,31.779 -13.295,31.290 -10.414,30.241 -9.494,30.129 -9.018,30.394 -8.775,31.067 -8.576,31.753 -8.420,32.451 -8.308,33.157 -8.241,33.869 -8.218,34.584 -8.241,35.298 -8.308,36.010 -8.420,36.716 -8.576,37.414 -8.607,37.522 -8.807,38.211 -9.049,38.885 -9.092,38.993 -9.377,39.652 -9.430,39.757 -9.756,40.396 -10.122,41.014 -10.185,41.114 -10.588,41.708 -11.028,42.275 -11.100,42.367 -11.574,42.904 -11.653,42.987 -12.159,43.493 -12.695,43.965 -12.779,44.037 -13.342,44.474 -13.431,44.534 -14.018,44.933 -14.628,45.294 -14.717,45.340 -15.345,45.660 -15.992,45.940 -16.078,45.972 -16.737,46.209 -17.409,46.404 -18.092,46.557 -18.166,46.573 -18.852,46.682 -19.544,46.747 -19.608,46.749 -20.296,46.771 -20.984,46.749 -21.669,46.684 -22.349,46.577 -23.021,46.426 -23.050,46.419 -23.704,46.229 -24.345,45.999 -24.971,45.728 -25.578,45.419 -26.164,45.072 -26.728,44.689 -27.266,44.271 -27.777,43.821 -28.259,43.339 -28.283,43.314 -28.738,42.798 -29.160,42.254 -29.547,41.685"/>
<polygon class="node-13" points="-73.177,9.722 -73.157,9.076 -73.096,8.433 -72.995,7.794 -72.983,7.739 -72.840,7.099 -72.657,6.468 -72.434,5.851 -72.401,5.771 -72.137,5.160 -71.835,4.568 -71.781,4.476 -71.438,3.896 -71.060,3.339 -70.986,3.240 -70.568,2.701 -70.118,2.190 -70.024,2.087 -69.537,1.600 -69.430,1.500 -68.909,1.041 -68.788,0.946 -68.235,0.517 -67.655,0.123 -67.519,0.032 -66.912,-0.327 -66.765,-0.411 -66.133,-0.733 -65.977,-0.808 -65.323,-1.091 -65.159,-1.156 -64.487,-1.399 -64.317,-1.454 -63.629,-1.654 -63.454,-1.698 -62.754,-1.855 -62.577,-1.888 -61.867,-2.001 -61.689,-2.023 -60.974,-2.090 -60.796,-2.101 -60.080,-2.124 -59.904,-2.123 -59.189,-2.100 -58.477,-2.033 -60.796,20.676 -60.974,20.720 -61.152,20.753 -61.330,20.774 -61.508,20.784 -61.684,20.783 -61.861,20.770 -62.570,20.703 -62.742,20.679 -63.442,20.568 -63.608,20.532 -64.296,20.378 -64.973,20.182 -65.127,20.137 -65.786,19.900 -65.930,19.846 -66.568,19.570 -66.701,19.507 -67.315,19.194 -67.436,19.124 -68.022,18.777 -68.586,18.394 -68.687,18.321 -69.219,17.908 -69.725,17.462 -69.804,17.390 -70.274,16.920 -70.714,16.421 -70.771,16.354 -71.173,15.835 -71.542,15.293 -71.876,14.728 -71.905,14.678 -72.198,14.102 -72.455,13.509 -72.674,12.901 -72.854,12.280 -72.995,11.649 -73.096,11.011 -73.157,10.368"/>
<polygon class="node-14" points="29.023,30.362 29.046,29.642 29.114,28.924 29.226,28.211 29.384,27.508 29.585,26.815 47.159,20.995 47.515,21.220 47.640,21.306 48.212,21.750 48.330,21.846 48.873,22.324 48.983,22.428 49.494,22.939 49.594,23.051 50.071,23.591 50.513,24.161 50.602,24.276 51.006,24.871 51.083,24.990 51.447,25.605 51.512,25.728 51.835,26.361 52.117,27.014 52.168,27.133 52.407,27.797 52.443,27.915 52.639,28.588 52.792,29.272 52.813,29.380 52.922,30.066 52.987,30.757 52.995,30.854 53.016,31.541 53.016,31.541 52.995,32.228 52.989,32.309 52.925,32.985 52.819,33.657 52.670,34.320 52.656,34.374 52.469,35.018 52.241,35.650 51.975,36.266 51.670,36.864 51.328,37.441 50.951,37.996 50.540,38.527 50.096,39.030 49.622,39.505 49.118,39.949 48.588,40.360 48.033,40.737 47.988,40.764 47.403,41.110 46.798,41.419 46.174,41.689 46.102,41.715 45.455,41.948 44.795,42.140 44.124,42.290 44.026,42.311 43.340,42.419 42.648,42.485 42.535,42.495 41.834,42.517 41.714,42.515 41.008,42.492 40.305,42.426 40.174,42.411 39.472,42.300 39.338,42.272 38.640,42.116 37.954,41.916 37.816,41.875 37.140,41.632 37.003,41.578 36.341,41.292 36.207,41.227 35.563,40.899 35.433,40.823 34.810,40.454 34.211,40.047 34.086,39.961 33.514,39.517 33.397,39.422 32.854,38.943 32.745,38.840 32.233,38.329 32.134,38.220 31.657,37.679 31.215,37.109 30.810,36.512 30.443,35.892 30.116,35.249 29.829,34.588 29.585,33.909 29.384,33.217 29.226,32.513 29.114,31.801 29.046,31.083"/>
<polygon class="node-15" points="21.910,1.161 24.023,-1.990 24.771,-2.951 29.805,-8.197 31.567,-9.952 33.826,-12.073 36.783,-14.497 39.353,-16.313 41.288,-17.499 42.427,-17.752 43.268,-17.510 43.412,-17.466 44.378,-17.119 45.319,-16.711 45.450,-16.654 46.360,-16.191 46.479,-16.121 47.353,-15.604 48.193,-15.033 48.996,-14.410 49.089,-14.336 49.846,-13.669 50.560,-12.955 50.630,-12.878 51.292,-12.127 51.906,-11.336 52.469,-10.507 52.509,-10.440 53.014,-9.585 53.465,-8.701 53.859,-7.790 54.195,-6.856 54.472,-5.903 54.689,-4.934 54.844,-3.954 54.937,-2.966 54.969,-1.974 54.969,-1.974 54.937,-0.982 54.844,0.007 54.689,0.987 54.472,1.955 54.195,2.909 53.859,3.842 53.465,4.753 53.433,4.822 52.979,5.714 52.469,6.576 51.906,7.404 51.846,7.485 51.227,8.283 50.630,8.947 50.094,9.133 48.646,9.315 47.873,9.275 45.633,9.063 39.769,8.018 39.137,7.877 32.488,6.125 29.360,5.137 28.105,4.723 25.446,3.623 23.848,2.960 22.135,2.168"/>
<polygon class="node-16" points="-48.388,2.438 -48.301,1.407 -48.143,0.406 -47.922,-0.582 -47.639,-1.555 -47.623,-1.608 -47.278,-2.568 -46.872,-3.505 -46.409,-4.414 -45.889,-5.293 -45.845,-5.364 -45.267,-6.214 -44.638,-7.026 -43.958,-7.797 -43.888,-7.872 -43.158,-8.603 -42.383,-9.286 -42.294,-9.355 -41.474,-9.991 -40.616,-10.574 -39.723,-11.102 -39.614,-11.164 -38.686,-11.637 -37.731,-12.050 -37.610,-12.099 -36.628,-12.453 -35.626,-12.744 -35.497,-12.777 -34.477,-13.005 -33.446,-13.168 -33.312,-13.186 -32.272,-13.284 -31.228,-13.317 -31.094,-13.318 -30.051,-13.285 -29.012,-13.187 -28.883,-13.171 -27.854,-13.008 -26.837,-12.781 -26.717,-12.750 -25.719,-12.460 -24.741,-12.108 -24.633,-12.064 -23.683,-11.653 -22.761,-11.183 -21.870,-10.656 -21.013,-10.074 -20.195,-9.440 -19.419,-8.755 -18.687,-8.023 -18.002,-7.247 -17.368,-6.429 -16.786,-5.573 -16.259,-4.682 -15.789,-3.759 -15.378,-2.809 -15.027,-1.835 -14.739,-0.841 -14.513,0.169 -14.351,1.192 -14.253,2.222 -14.221,3.257 -14.221,3.257 -14.253,4.292 -14.351,5.322 -14.513,6.345 -14.739,7.355 -15.027,8.349 -15.378,9.323 -15.789,10.273 -16.259,11.195 -16.786,12.086 -17.368,12.943 -18.414,13.913 -19.552,14.699 -21.815,15.932 -26.045,17.622 -28.995,18.443 -31.723,19.080 -33.566,19.244 -34.442,19.296 -36.104,19.239 -36.870,19.077 -37.846,18.726 -38.798,18.314 -38.903,18.263 -39.823,17.794 -40.712,17.268 -41.567,16.688 -41.649,16.630 -42.461,16.000 -43.293,15.257 -44.088,14.381 -44.762,13.540 -45.359,12.663 -46.370,10.924 -47.127,9.104 -47.451,8.204 -47.718,7.285 -48.159,5.419 -48.315,4.452"/>
<polygon class="node-17" points="27.620,25.768 27.931,25.167 28.575,24.487 41.699,12.747 45.868,9.210 52.159,6.734 52.455,6.630 53.175,7.055 53.355,7.162 54.219,7.750 54.388,7.870 55.212,8.509 55.368,8.642 56.147,9.330 56.882,10.064 57.021,10.205 57.705,10.981 57.827,11.129 58.458,11.942 59.036,12.793 59.136,12.941 59.657,13.821 59.737,13.972 60.198,14.876 60.601,15.807 60.657,15.949 60.998,16.896 61.278,17.861 61.311,17.991 61.528,18.962 61.684,19.945 61.778,20.937 61.786,21.037 61.817,22.021 61.817,22.021 61.786,23.004 61.694,23.984 61.684,24.048 61.532,25.008 61.320,25.956 61.049,26.890 60.720,27.804 60.334,28.696 59.892,29.562 59.398,30.399 58.851,31.202 58.256,31.970 57.613,32.699 57.571,32.745 56.875,33.441 56.137,34.092 55.359,34.695 54.545,35.249 54.454,35.310 53.597,35.817 52.710,36.269 52.590,36.324 51.667,36.724 50.721,37.064 50.046,37.195 49.234,37.305 48.431,37.332 47.644,37.277 45.953,37.113 41.442,36.105 38.345,35.078 37.242,34.625 34.818,33.510 33.533,32.801 32.078,31.932 30.588,30.815 29.382,29.511 28.854,28.619 28.383,27.695 27.971,26.744"/>
<polygon class="node-18" points="-9.603,-13.593 -9.573,-14.547 -9.484,-15.498 -9.334,-16.440 -9.126,-17.372 -9.111,-17.427 -8.844,-18.344 -8.521,-19.242 -8.142,-20.118 -7.708,-20.969 -7.222,-21.791 -7.193,-21.840 -6.657,-22.629 -6.072,-23.383 -5.441,-24.099 -4.766,-24.774 -4.727,-24.810 -4.013,-25.440 -3.260,-26.024 -2.472,-26.560 -1.652,-27.045 -0.803,-27.477 -0.764,-27.495 0.108,-27.873 1.003,-28.195 1.915,-28.460 2.843,-28.667 3.781,-28.816 4.727,-28.905 5.677,-28.935 6.627,-28.905 6.646,-28.904 7.588,-28.815 8.524,-28.667 9.448,-28.460 10.357,-28.196 11.248,-27.875 12.117,-27.499 12.961,-27.069 13.776,-26.587 14.559,-26.055 15.307,-25.475 15.320,-25.464 16.033,-24.835 16.705,-24.163 17.333,-23.450 17.916,-22.699 18.450,-21.913 18.813,-21.154 19.082,-20.332 19.344,-19.488 19.532,-18.633 19.643,-17.775 19.817,-16.048 19.722,-13.468 19.487,-10.791 18.662,-6.998 17.858,-5.098 17.342,-4.086 16.664,-3.193 15.952,-2.481 15.238,-1.851 14.485,-1.267 13.696,-0.731 12.876,-0.246 12.837,-0.226 11.989,0.206 11.117,0.584 10.222,0.906 9.309,1.171 8.382,1.378 7.443,1.527 6.496,1.617 6.471,1.618 5.524,1.647 4.577,1.618 3.634,1.528 2.698,1.380 1.773,1.174 0.863,0.909 -0.028,0.588 -0.898,0.212 -1.742,-0.218 -2.558,-0.701 -3.341,-1.233 -4.090,-1.814 -4.801,-2.440 -5.471,-3.110 -5.487,-3.128 -6.115,-3.841 -6.698,-4.592 -7.232,-5.378 -7.716,-6.197 -8.148,-7.044 -8.526,-7.916 -8.848,-8.811 -8.861,-8.852 -9.127,-9.768 -9.335,-10.698 -9.484,-11.639 -9.573,-12.588 -9.603,-13.540"/>
<polygon class="node-19" points="-36.018,-18.525 -35.986,-19.564 -35.980,-19.638 -35.882,-20.668 -35.720,-21.690 -35.495,-22.700 -35.206,-23.693 -34.855,-24.667 -34.838,-24.706 -34.430,-25.650 -33.964,-26.566 -33.440,-27.451 -32.862,-28.301 -32.232,-29.113 -31.552,-29.884 -30.826,-30.611 -30.054,-31.291 -29.242,-31.921 -28.392,-32.499 -27.507,-33.022 -26.591,-33.489 -26.554,-33.507 -25.604,-33.918 -24.631,-34.269 -23.637,-34.557 -22.627,-34.783 -21.605,-34.945 -21.533,-34.955 -20.498,-35.053 -19.458,-35.085 -18.418,-35.053 -18.331,-35.045 -17.290,-34.947 -16.258,-34.783 -15.239,-34.555 -15.142,-34.529 -14.135,-34.236 -13.149,-33.881 -12.187,-33.465 -12.089,-33.419 -11.153,-32.943 -10.248,-32.408 -10.155,-32.346 -9.285,-31.754 -8.454,-31.110 -7.665,-30.414 -7.581,-30.338 -6.837,-29.594 -6.141,-28.805 -6.070,-28.718 -5.426,-27.887 -4.835,-27.018 -4.780,-26.924 -4.246,-26.021 -4.206,-25.921 -4.077,-25.408 -7.509,-5.856 -8.144,-5.038 -8.968,-4.399 -9.830,-3.813 -10.727,-3.283 -11.655,-2.810 -12.612,-2.396 -13.593,-2.043 -14.594,-1.752 -16.165,-1.976 -17.671,-2.650 -20.112,-3.804 -24.822,-6.201 -30.078,-9.310 -33.666,-11.576 -34.855,-12.540 -35.162,-13.210 -35.193,-13.306 -35.485,-14.309 -35.713,-15.329 -35.876,-16.361 -35.888,-16.449 -35.986,-17.485"/>
<polygon class="node-20" points="-64.858,1.670 -64.826,0.679 -64.825,0.660 -64.730,-0.340 -64.573,-1.332 -64.354,-2.313 -64.074,-3.277 -63.734,-4.222 -63.335,-5.144 -63.297,-5.228 -62.835,-6.133 -62.318,-7.007 -61.747,-7.848 -61.676,-7.950 -61.047,-8.761 -60.368,-9.530 -60.269,-9.636 -59.537,-10.368 -58.761,-11.052 -58.636,-11.156 -57.812,-11.796 -56.949,-12.382 -56.801,-12.480 -55.898,-13.014 -55.735,-13.100 -54.795,-13.579 -53.826,-13.998 -53.646,-14.072 -52.649,-14.431 -52.460,-14.489 -51.439,-14.786 -50.401,-15.018 -50.202,-15.060 -49.150,-15.227 -48.947,-15.253 -47.885,-15.353 -47.681,-15.362 -46.615,-15.395 -45.548,-15.362 -45.346,-15.353 -44.285,-15.253 -44.087,-15.228 -43.036,-15.062 -42.844,-15.021 -41.809,-14.789 -40.790,-14.493 -40.611,-14.438 -39.617,-14.081 -38.647,-13.661 -37.705,-13.181 -36.796,-12.643 -40.568,17.382 -40.611,17.557 -40.790,17.626 -41.809,17.922 -41.998,17.976 -43.232,18.246 -44.691,18.440 -46.167,18.500 -47.642,18.421 -48.897,18.306 -50.134,18.107 -52.524,17.469 -53.663,17.035 -55.676,16.130 -57.529,15.002 -58.349,14.444 -59.133,13.836 -59.877,13.180 -60.578,12.479 -61.187,11.855 -61.803,11.061 -62.318,10.321 -62.835,9.446 -62.879,9.366 -63.335,8.471 -63.734,7.549 -64.074,6.604 -64.354,5.640 -64.573,4.660 -64.730,3.667 -64.733,3.649 -64.826,2.662"/>
<polygon class="node-21" points="5.963,-24.262 6.160,-26.118 6.457,-27.828 6.692,-28.460 7.375,-29.156 8.191,-29.875 8.277,-29.949 9.137,-30.615 10.036,-31.227 10.132,-31.286 11.067,-31.839 12.035,-32.332 13.032,-32.764 13.132,-32.805 14.152,-33.172 15.193,-33.475 15.293,-33.498 16.348,-33.733 17.416,-33.902 18.492,-34.004 18.583,-34.007 19.659,-34.041 20.735,-34.007 21.807,-33.906 22.870,-33.738 22.940,-33.724 23.985,-33.490 25.013,-33.191 26.021,-32.829 27.003,-32.403 27.957,-31.917 28.879,-31.372 28.908,-31.355 29.788,-30.757 30.628,-30.105 31.426,-29.401 32.179,-28.649 32.882,-27.851 33.535,-27.010 34.133,-26.130 34.674,-25.214 35.157,-24.266 35.580,-23.290 35.594,-23.255 35.957,-22.248 36.255,-21.220 36.489,-20.175 36.657,-19.117 36.757,-18.051 36.760,-17.982 36.791,-16.981 36.791,-16.981 36.757,-15.910 36.636,-14.932 36.431,-13.980 36.145,-13.059 35.783,-12.178 34.939,-10.403 33.866,-8.788 33.297,-7.951 32.676,-7.151 31.345,-5.456 30.608,-4.564 27.992,-2.214 26.955,-1.402 25.840,-0.709 24.577,-0.068 23.350,0.332 23.253,0.355 22.197,0.591 21.129,0.760 20.053,0.862 19.965,0.867 18.889,0.901 17.812,0.867 16.740,0.765 15.676,0.597 14.625,0.362 13.591,0.061 12.577,-0.303 11.855,-0.869 11.171,-1.632 10.613,-2.589 9.775,-4.778 8.646,-7.823 8.358,-8.819 7.619,-11.664 6.897,-15.251 6.266,-18.753 6.108,-20.552"/>
<polygon class="node-22" points="-44.160,17.678 -44.118,16.698 -43.947,15.838 -43.318,14.177 -42.925,13.366 -42.079,11.719 -41.024,10.244 -40.359,9.702 -39.653,9.236 -36.807,7.431 -31.265,5.033 -29.459,4.398 -24.126,3.031 -20.162,2.530 -17.336,2.674 -15.986,3.007 -14.973,3.614 -14.164,4.327 -13.402,5.089 -12.689,5.898 -12.029,6.749 -11.423,7.641 -10.874,8.569 -10.384,9.529 -9.956,10.519 -9.591,11.533 -9.290,12.568 -9.055,13.620 -8.887,14.685 -8.785,15.758 -8.751,16.835 -8.751,16.835 -8.785,17.913 -8.887,18.986 -9.055,20.051 -9.290,21.103 -9.591,22.138 -9.956,23.152 -10.384,24.142 -10.874,25.102 -10.930,25.209 -11.480,26.141 -12.089,27.036 -12.163,27.141 -12.829,27.999 -13.546,28.813 -13.638,28.913 -14.407,29.682 -15.329,30.490 -16.308,31.234 -17.336,31.908 -18.408,32.508 -19.517,33.029 -20.510,33.459 -21.669,33.835 -22.704,34.135 -23.891,34.359 -24.950,34.527 -26.017,34.628 -27.088,34.662 -28.159,34.628 -29.227,34.527 -30.285,34.359 -31.331,34.126 -32.360,33.827 -32.446,33.801 -33.448,33.440 -34.425,33.017 -35.374,32.534 -36.291,31.991 -36.341,31.961 -37.216,31.367 -38.051,30.719 -38.844,30.020 -39.591,29.273 -40.290,28.480 -40.938,27.645 -41.532,26.770 -42.070,25.861 -42.550,24.919 -42.970,23.949 -43.328,22.954 -43.623,21.939 -43.853,20.908 -44.019,19.864 -44.026,19.802 -44.126,18.742"/>
<polygon class="node-23" points="38.852,-15.010 38.855,-15.940 39.243,-16.803 39.994,-18.347 40.857,-19.496 41.749,-20.103 42.677,-20.651 43.638,-21.141 43.835,-21.227 44.828,-21.657 45.847,-22.024 46.059,-22.098 47.102,-22.400 47.323,-22.459 48.385,-22.696 48.612,-22.739 49.688,-22.909 49.920,-22.934 51.004,-23.037 51.238,-23.045 52.325,-23.079 53.413,-23.045 53.644,-23.035 54.725,-22.933 54.952,-22.906 56.021,-22.736 56.242,-22.692 57.294,-22.457 57.506,-22.395 58.536,-22.096 59.544,-21.733 59.738,-21.658 60.716,-21.235 60.895,-21.146 61.837,-20.666 62.747,-20.127 62.902,-20.030 63.769,-19.441 64.597,-18.798 64.723,-18.697 65.502,-18.010 66.236,-17.277 66.332,-17.176 67.010,-16.407 67.639,-15.596 67.704,-15.502 68.274,-14.663 68.790,-13.791 69.250,-12.888 69.652,-11.958 69.673,-11.901 70.012,-10.960 70.290,-10.000 70.509,-9.025 70.665,-8.037 70.759,-7.042 70.790,-6.043 70.790,-6.043 70.759,-5.043 70.665,-4.048 70.658,-3.995 70.500,-2.994 70.279,-2.005 69.996,-1.032 69.652,-0.078 69.612,0.022 69.205,0.964 68.739,1.878 68.216,2.761 68.141,2.885 67.558,3.743 66.922,4.563 66.817,4.694 66.124,5.480 65.383,6.221 65.251,6.353 64.457,7.052 64.305,7.176 63.463,7.829 62.582,8.428 62.406,8.545 61.484,9.091 61.293,9.195 60.332,9.685 60.129,9.775 59.135,10.205 58.117,10.572 57.900,10.648 57.078,10.874 56.460,10.900 55.621,10.934 54.786,10.882 53.961,10.744 51.097,10.261 50.084,10.034 46.857,9.156 45.923,8.680 44.732,6.219 44.370,5.359 43.292,2.783 42.747,1.011 40.940,-5.207 40.430,-7.066 38.980,-14.025"/>
<polygon class="node-24" points="46.211,9.908 46.818,9.014 67.582,3.215 67.842,3.314 68.094,3.430 68.338,3.561 69.282,4.120 69.514,4.265 70.417,4.879 70.634,5.037 71.493,5.703 71.693,5.872 72.503,6.587 72.684,6.764 73.442,7.523 74.152,8.327 74.306,8.505 74.958,9.345 75.090,9.526 75.681,10.397 75.790,10.579 76.320,11.475 76.792,12.403 76.870,12.572 77.279,13.516 77.627,14.484 77.675,14.634 77.958,15.608 78.179,16.598 78.338,17.600 78.355,17.711 78.449,18.706 78.481,19.704 78.481,19.704 78.449,20.703 78.355,21.697 78.351,21.745 78.197,22.715 77.982,23.674 77.708,24.618 77.376,25.542 76.985,26.444 76.539,27.319 76.514,27.365 76.005,28.225 75.444,29.051 74.831,29.841 74.171,30.590 74.090,30.675 73.373,31.392 72.612,32.063 71.810,32.684 71.681,32.783 70.831,33.361 69.946,33.884 69.781,33.980 68.854,34.453 68.668,34.537 67.702,34.955 66.711,35.312 66.496,35.386 65.476,35.682 65.245,35.740 64.198,35.974 63.953,36.015 62.886,36.184 61.811,36.286 61.548,36.310 60.462,36.344 60.192,36.349 59.100,36.315 58.826,36.301 57.733,36.198 57.457,36.166 56.370,35.994 56.095,35.943 55.018,35.703 54.746,35.635 53.959,35.395 53.409,34.683 52.555,33.523 50.658,28.892 49.705,26.354 48.390,21.829 47.755,18.899 46.372,12.241"/>
<polygon class="node-25" points="-42.007,-9.908 -41.936,-10.845 -41.735,-11.795 -41.461,-12.739 -41.128,-13.664 -40.738,-14.566 -40.291,-15.441 -39.791,-16.287 -39.239,-17.100 -39.217,-17.130 -38.610,-17.912 -37.956,-18.654 -37.257,-19.354 -36.514,-20.008 -35.733,-20.614 -35.677,-20.654 -34.854,-21.213 -34.119,-21.614 -33.384,-21.776 -31.742,-22.027 -30.126,-21.860 -29.325,-21.752 -26.986,-21.288 -23.431,-19.832 -22.717,-19.523 -22.024,-19.170 -21.355,-18.774 -18.625,-17.003 -16.435,-15.396 -15.655,-14.786 -13.280,-12.620 -11.946,-10.853 -10.561,-8.835 -10.043,-7.745 -9.738,-6.644 -9.642,-5.564 -9.798,-4.578 -10.016,-3.603 -10.294,-2.645 -10.632,-1.705 -11.029,-0.789 -11.482,0.101 -11.991,0.960 -12.552,1.786 -13.164,2.575 -13.824,3.324 -14.530,4.030 -15.977,4.524 -17.387,4.751 -19.952,4.960 -22.196,5.035 -23.214,5.060 -26.037,5.009 -30.213,4.878 -31.032,4.695 -31.838,4.461 -34.090,3.164 -34.795,2.746 -35.473,2.286 -37.446,0.902 -38.656,-0.190 -39.718,-1.475 -40.115,-2.254 -40.463,-3.057 -41.349,-5.495 -41.714,-7.217 -41.866,-8.093 -41.942,-8.995"/>
<polygon class="node-26" points="42.754,-20.932 43.061,-21.642 43.413,-22.331 43.806,-22.997 44.241,-23.637 44.715,-24.248 45.227,-24.829 45.774,-25.376 46.354,-25.887 46.966,-26.361 47.606,-26.796 48.271,-27.190 48.428,-27.271 49.119,-27.623 49.283,-27.695 49.997,-28.003 50.728,-28.267 50.899,-28.328 51.646,-28.545 51.821,-28.594 52.580,-28.764 52.758,-28.801 53.525,-28.922 53.704,-28.947 54.475,-29.020 54.653,-29.032 55.425,-29.057 55.600,-29.056 56.368,-29.032 56.539,-29.018 57.300,-28.946 57.465,-28.920 58.215,-28.802 58.956,-28.636 59.107,-28.599 59.831,-28.389 59.971,-28.341 60.674,-28.088 61.360,-27.791 61.481,-27.737 62.140,-27.401 62.248,-27.338 62.877,-26.966 63.482,-26.554 63.567,-26.489 64.138,-26.047 64.680,-25.569 65.190,-25.058 65.244,-25.002 65.715,-24.467 66.152,-23.904 66.552,-23.315 66.915,-22.701 66.932,-22.670 67.251,-22.044 67.530,-21.400 67.768,-20.740 67.963,-20.066 68.117,-19.380 68.226,-18.687 68.292,-17.988 68.296,-17.949 68.318,-17.237 68.296,-16.524 68.229,-15.815 68.117,-15.111 68.104,-15.031 68.076,-14.953 66.821,-14.953 42.952,-20.381"/>
<polygon class="node-27" points="-23.046,-20.492 -22.886,-21.499 -22.234,-24.445 -21.522,-26.348 -20.535,-28.162 -19.999,-29.041 -19.380,-29.881 -18.685,-30.675 -17.955,-31.421 -17.102,-32.092 -16.180,-32.719 -15.221,-33.286 -14.228,-33.792 -13.205,-34.235 -12.157,-34.612 -11.086,-34.923 -9.999,-35.166 -8.898,-35.341 -7.788,-35.446 -6.674,-35.481 -5.561,-35.446 -4.451,-35.341 -3.350,-35.166 -2.263,-34.923 -2.214,-34.911 -1.140,-34.599 -0.087,-34.220 0.940,-33.776 1.937,-33.268 2.900,-32.698 2.959,-32.662 3.887,-32.031 4.774,-31.343 5.615,-30.601 6.409,-29.807 6.464,-29.750 7.208,-28.906 7.839,-28.079 8.197,-27.279 8.642,-25.423 8.997,-21.499 8.997,-15.417 8.643,-12.154 8.332,-9.747 7.935,-8.653 7.455,-7.592 6.895,-6.571 6.258,-5.596 4.826,-3.707 3.977,-2.924 3.094,-2.151 2.141,-1.503 1.143,-0.983 0.121,-0.541 -0.927,-0.164 -1.996,0.147 -3.083,0.390 -4.182,0.564 -5.291,0.669 -6.404,0.704 -7.517,0.669 -8.625,0.564 -9.725,0.390 -9.768,0.383 -10.859,0.139 -12.021,-0.242 -13.205,-1.246 -15.002,-3.406 -15.743,-4.470 -16.996,-6.530 -17.555,-7.477 -19.504,-10.949 -21.074,-14.285 -22.374,-17.720 -22.681,-18.611 -22.906,-19.537"/>
<polygon class="node-28" points="-25.403,9.974 -25.355,8.812 -25.144,6.308 -24.912,4.986 -23.439,3.425 -18.493,-0.876 -15.633,-2.924 -14.568,-3.307 -13.470,-3.350 -12.376,-3.298 -0.067,-2.412 2.552,-2.147 3.619,-1.617 4.509,-0.847 5.347,-0.008 6.132,0.881 6.859,1.819 7.525,2.799 8.129,3.820 8.667,4.877 8.684,4.913 9.157,6.005 9.560,7.125 9.892,8.267 10.152,9.429 10.338,10.604 10.450,11.789 10.454,11.849 10.491,13.042 10.491,13.042 10.454,14.234 10.342,15.422 10.155,16.600 10.140,16.669 9.879,17.835 9.546,18.982 9.141,20.106 8.667,21.202 8.125,22.267 8.090,22.335 7.482,23.363 6.810,24.352 6.077,25.296 6.027,25.354 5.237,26.250 4.392,27.094 3.496,27.884 2.552,28.616 1.565,29.288 1.506,29.327 0.479,29.934 -0.583,30.475 -1.677,30.949 -2.799,31.352 -2.857,31.370 -3.999,31.701 -5.160,31.961 -6.335,32.147 -7.519,32.259 -8.707,32.296 -9.896,32.259 -11.080,32.147 -11.114,32.142 -12.284,31.957 -13.441,31.698 -14.578,31.368 -15.693,30.966 -16.781,30.496 -17.835,29.944 -18.765,29.205 -19.588,28.388 -20.277,27.473 -21.397,25.579 -21.884,24.647 -23.081,21.874 -23.929,19.101 -24.198,18.177 -24.407,17.238 -25.023,14.311 -25.358,11.120"/>
<polygon class="node-29" points="46.108,9.125 46.847,8.070 68.820,-11.701 69.200,-12.030 69.609,-12.315 69.888,-12.243 70.162,-12.153 71.213,-11.775 71.475,-11.670 72.495,-11.228 72.744,-11.108 73.727,-10.606 73.960,-10.472 74.903,-9.914 75.809,-9.298 76.016,-9.156 76.875,-8.490 77.060,-8.340 77.867,-7.628 78.030,-7.470 78.782,-6.718 79.486,-5.919 79.615,-5.766 80.259,-4.936 80.850,-4.066 80.945,-3.924 81.473,-3.031 81.943,-2.107 82.004,-1.982 82.410,-1.044 82.756,-0.083 83.041,0.898 83.063,0.984 83.282,1.965 83.439,2.957 83.534,3.957 83.566,4.962 83.566,4.962 83.534,5.966 83.439,6.966 83.282,7.959 83.063,8.939 82.783,9.904 82.442,10.849 82.410,10.927 82.004,11.864 81.540,12.774 81.020,13.653 80.945,13.764 80.362,14.622 79.727,15.441 79.041,16.219 78.920,16.353 78.177,17.097 77.767,17.285 75.197,17.399 73.820,17.254 68.409,16.324 67.713,16.168 60.039,14.137 56.209,12.937 54.623,12.423 50.684,11.114 48.550,10.222"/>
<polygon class="node-30" points="58.638,36.521 58.653,36.309 77.123,19.459 78.094,19.521 78.263,19.653 78.421,19.792 78.569,19.940 78.705,20.096 79.174,20.701 79.294,20.858 79.720,21.485 79.823,21.643 80.204,22.289 80.289,22.445 80.626,23.105 80.693,23.258 80.983,23.928 81.230,24.616 81.275,24.753 81.476,25.444 81.633,26.146 81.657,26.264 81.768,26.963 81.834,27.668 81.840,27.763 81.861,28.458 81.861,28.458 81.840,29.153 81.774,29.846 81.665,30.533 81.658,30.574 81.509,31.239 81.319,31.895 81.088,32.537 80.817,33.163 80.507,33.771 80.160,34.358 80.138,34.391 79.747,34.966 79.320,35.516 78.860,36.038 78.369,36.530 78.301,36.592 77.770,37.061 77.210,37.495 77.113,37.562 76.518,37.966 75.898,38.333 75.773,38.400 75.122,38.732 74.451,39.022 74.299,39.085 73.602,39.336 73.434,39.389 72.714,39.599 72.532,39.641 71.792,39.806 71.043,39.925 70.841,39.957 70.079,40.029 69.867,40.048 69.095,40.072 68.876,40.077 68.098,40.053 67.873,40.045 67.093,39.971 66.864,39.949 66.636,39.914 65.855,39.790 65.626,39.741 64.852,39.568 64.624,39.507 63.860,39.285 63.634,39.211 62.885,38.941 62.664,38.855 61.933,38.539 61.718,38.441 61.009,38.080 60.802,37.973 60.601,37.855 59.919,37.451 59.264,37.006"/>
<polygon class="node-31" points="-72.366,-7.852 -72.337,-8.777 -72.250,-9.699 -72.105,-10.613 -71.903,-11.517 -71.644,-12.406 -71.331,-13.277 -70.963,-14.127 -70.543,-14.952 -70.506,-15.023 -70.028,-15.831 -69.500,-16.607 -68.925,-17.349 -68.851,-17.442 -68.222,-18.155 -67.549,-18.828 -67.445,-18.924 -66.723,-19.561 -65.963,-20.150 -65.830,-20.247 -65.027,-20.793 -64.190,-21.288 -64.031,-21.380 -63.157,-21.825 -62.982,-21.905 -62.074,-22.298 -61.144,-22.632 -60.949,-22.702 -59.993,-22.979 -59.786,-23.034 -58.810,-23.252 -58.594,-23.291 -57.601,-23.449 -57.379,-23.472 -56.375,-23.567 -55.367,-23.598 -55.138,-23.605 -54.128,-23.573 -53.898,-23.564 -52.891,-23.469 -52.662,-23.443 -51.662,-23.284 -51.438,-23.243 -50.450,-23.022 -50.232,-22.965 -49.262,-22.683 -49.051,-22.612 -48.103,-22.271 -47.902,-22.187 -46.981,-21.788 -46.086,-21.332 -45.222,-20.821 -44.392,-20.257 -43.598,-19.642 -42.845,-18.978 -42.135,-18.268 -41.472,-17.515 -40.856,-16.721 -40.292,-15.891 -41.387,-5.791 -41.539,-4.831 -43.924,-2.426 -44.715,-1.702 -46.939,0.294 -48.472,1.431 -51.486,3.348 -52.213,3.778 -52.965,4.161 -55.907,5.519 -58.060,6.357 -60.951,6.872 -61.694,6.804 -62.982,6.568 -63.499,6.352 -63.685,6.243 -64.541,5.737 -65.364,5.178 -65.531,5.061 -66.312,4.455 -66.461,4.329 -67.197,3.681 -67.890,2.987 -68.015,2.861 -68.657,2.132 -68.762,2.001 -69.351,1.240 -69.892,0.445 -69.968,0.321 -70.452,-0.498 -70.884,-1.345 -71.262,-2.218 -71.305,-2.319 -71.624,-3.203 -71.886,-4.104 -72.090,-5.021 -72.105,-5.090 -72.250,-6.004 -72.337,-6.926"/>
<polygon class="node-32" points="72.953,-11.130 73.269,-11.209 73.518,-11.241 74.339,-11.319 74.593,-11.337 75.419,-11.363 75.675,-11.369 75.932,-11.362 76.759,-11.336 77.016,-11.316 77.839,-11.238 78.094,-11.205 78.908,-11.076 79.159,-11.029 79.961,-10.850 80.206,-10.791 80.992,-10.562 81.229,-10.491 81.996,-10.215 82.223,-10.133 82.444,-10.038 83.182,-9.719 83.390,-9.614 84.100,-9.253 84.294,-9.139 84.973,-8.737 85.625,-8.294 85.797,-8.177 86.413,-7.699 86.567,-7.577 87.145,-7.067 87.280,-6.941 87.818,-6.404 87.933,-6.276 88.428,-5.714 88.887,-5.122 88.974,-5.004 89.388,-4.394 89.763,-3.760 89.822,-3.655 90.150,-3.010 90.438,-2.346 90.470,-2.260 90.710,-1.591 90.908,-0.909 91.063,-0.216 91.175,0.486 91.241,1.193 91.264,1.903 91.264,1.903 91.241,2.613 91.175,3.321 91.063,4.022 90.908,4.716 90.710,5.398 90.470,6.066 90.438,6.141 90.150,6.806 89.822,7.451 89.453,8.074 89.388,8.178 88.974,8.788 88.522,9.370 88.428,9.487 87.933,10.049 87.818,10.165 87.280,10.702 86.710,11.205 86.567,11.326 85.958,11.798 85.797,11.914 85.152,12.353 84.973,12.462 84.294,12.864 84.100,12.966 83.390,13.327 83.182,13.420 82.444,13.739 82.223,13.822 81.462,14.096 81.229,14.168 80.684,14.322 80.505,14.305 80.263,14.030"/>
<polygon class="node-33" points="-33.723,-3.719 -33.643,-6.051 -33.535,-7.196 -33.009,-9.434 -32.691,-10.528 -31.937,-12.696 -30.885,-14.769 -30.233,-15.729 -29.551,-16.706 -28.787,-17.634 -27.945,-18.508 -27.032,-19.320 -26.095,-20.046 -25.115,-20.712 -24.095,-21.316 -23.039,-21.854 -22.988,-21.876 -21.952,-22.324 -20.971,-22.536 -19.925,-22.634 -17.809,-22.556 -16.757,-22.448 -15.728,-22.249 -14.733,-21.960 -11.871,-20.906 -9.188,-19.578 -8.293,-19.122 -7.428,-18.610 -4.749,-16.991 -3.031,-15.677 -0.627,-13.317 1.165,-11.552 2.581,-9.469 3.218,-8.336 3.830,-7.133 4.194,-5.883 4.309,-4.625 4.309,-4.625 4.272,-3.444 4.160,-2.267 3.976,-1.100 3.709,0.047 3.156,1.115 2.393,2.110 1.404,2.982 0.447,3.812 -1.508,5.288 -6.597,7.842 -9.407,9.028 -14.106,10.393 -16.000,10.897 -18.988,11.304 -20.015,11.386 -21.054,11.375 -23.155,11.286 -24.192,11.142 -25.175,10.959 -26.146,10.299 -27.060,9.672 -27.945,8.891 -28.758,8.128 -29.508,7.294 -30.237,6.355 -30.904,5.373 -30.935,5.322 -31.538,4.302 -32.076,3.246 -32.546,2.159 -32.948,1.044 -33.268,-0.181 -33.488,-1.371 -33.671,-2.525"/>
<polygon class="node-34" points="-61.973,29.824 -61.948,29.041 -61.941,28.935 -61.866,28.145 -61.742,27.362 -61.717,27.239 -61.542,26.457 -61.319,25.687 -61.275,25.551 -61.001,24.789 -60.679,24.046 -60.616,23.901 -60.245,23.174 -60.166,23.028 -59.748,22.320 -59.653,22.177 -59.188,21.493 -58.680,20.839 -58.568,20.696 -58.018,20.072 -57.893,19.935 -57.302,19.344 -57.165,19.215 -56.537,18.660 -56.389,18.540 -55.726,18.025 -55.569,17.915 -54.874,17.443 -54.710,17.344 -53.987,16.916 -53.817,16.829 -53.069,16.447 -52.298,16.114 -52.126,16.040 -51.337,15.756 -51.163,15.696 -50.361,15.463 -49.545,15.281 -48.720,15.150 -47.888,15.071 -47.053,15.045 -46.217,15.071 -45.385,15.150 -44.560,15.281 -43.744,15.463 -42.942,15.696 -42.456,16.114 -42.007,16.633 -40.580,18.423 -40.131,19.085 -38.844,21.151 -37.729,23.325 -37.361,24.046 -36.269,26.202 -35.380,28.409 -34.608,30.514 -34.397,31.148 -34.292,31.763 -34.401,32.458 -34.684,33.244 -35.016,34.011 -35.396,34.756 -35.821,35.475 -36.291,36.166 -36.803,36.826 -37.356,37.453 -37.946,38.044 -38.081,38.170 -38.710,38.724 -38.856,38.843 -39.520,39.357 -39.675,39.466 -40.371,39.939 -40.535,40.037 -41.258,40.465 -42.007,40.847 -42.178,40.934 -42.949,41.267 -43.123,41.341 -43.912,41.625 -44.090,41.685 -44.892,41.918 -45.070,41.965 -45.882,42.146 -46.060,42.178 -46.878,42.308 -47.052,42.325 -47.871,42.402 -48.693,42.428 -48.857,42.430 -49.673,42.405 -49.829,42.393 -50.635,42.316 -51.435,42.190 -51.573,42.165 -52.356,41.990 -53.126,41.767 -53.244,41.732 -53.990,41.463 -54.718,41.148 -54.812,41.107 -55.510,40.751 -56.185,40.352 -56.254,40.307 -56.893,39.872 -57.504,39.399 -58.083,38.888 -58.630,38.341 -59.141,37.761 -59.158,37.740 -59.625,37.139 -60.053,36.509 -60.441,35.853 -60.787,35.175 -61.089,34.476 -61.100,34.448 -61.362,33.721 -61.578,32.979 -61.746,32.224 -61.867,31.461 -61.874,31.386 -61.948,30.607"/>
<polygon class="node-35" points="-18.291,-29.695 -18.219,-30.344 -18.036,-31.162 -18.014,-31.248 -17.781,-32.051 -17.498,-32.837 -17.166,-33.605 -17.134,-33.677 -16.756,-34.419 -16.332,-35.136 -15.864,-35.824 -15.826,-35.879 -15.318,-36.534 -14.770,-37.155 -14.185,-37.741 -14.146,-37.776 -13.528,-38.320 -12.878,-38.825 -12.197,-39.288 -11.489,-39.707 -10.755,-40.080 -10.000,-40.407 -9.225,-40.686 -8.435,-40.916 -8.428,-40.917 -7.631,-41.095 -6.824,-41.223 -6.819,-41.224 -5.999,-41.301 -5.177,-41.327 -4.354,-41.301 -3.534,-41.224 -2.721,-41.095 -1.918,-40.916 -1.128,-40.686 -0.353,-40.407 -0.305,-40.389 0.455,-40.060 1.193,-39.684 1.906,-39.262 2.591,-38.796 2.649,-38.756 3.307,-38.246 3.931,-37.695 4.520,-37.107 4.577,-37.048 5.130,-36.421 5.643,-35.761 5.693,-35.689 6.165,-34.995 6.592,-34.274 6.972,-33.526 7.015,-33.442 7.348,-32.671 7.633,-31.880 7.664,-31.789 7.898,-30.981 8.082,-30.160 8.099,-30.065 8.231,-29.234 8.310,-28.397 8.315,-28.301 8.341,-27.461 8.341,-27.461 8.315,-26.621 8.306,-26.529 8.231,-25.878 8.051,-25.240 7.766,-24.629 6.778,-23.668 6.184,-23.224 5.510,-22.855 4.161,-22.161 2.660,-21.766 -1.517,-21.394 -2.715,-21.355 -3.878,-21.484 -6.529,-21.819 -7.039,-21.900 -7.544,-22.012 -10.085,-22.668 -12.215,-23.435 -14.359,-24.640 -16.081,-25.745 -17.039,-26.730 -17.495,-27.243 -17.853,-27.809 -18.107,-28.415 -18.253,-29.048"/>
<polygon class="node-36" points="7.637,-24.338 8.292,-28.881 8.336,-29.004 8.759,-29.981 8.820,-30.102 9.305,-31.053 9.849,-31.972 9.928,-32.090 10.529,-32.975 11.185,-33.820 11.280,-33.931 11.988,-34.735 12.745,-35.492 12.853,-35.592 13.657,-36.300 14.503,-36.957 14.621,-37.043 15.506,-37.645 16.427,-38.189 16.552,-38.260 17.503,-38.744 18.483,-39.168 18.611,-39.220 19.612,-39.581 20.634,-39.878 20.760,-39.910 21.794,-40.142 22.840,-40.307 22.960,-40.321 24.009,-40.420 25.062,-40.453 26.116,-40.420 26.217,-40.414 27.259,-40.316 28.294,-40.152 29.315,-39.924 29.392,-39.903 30.390,-39.613 31.368,-39.261 32.321,-38.849 33.247,-38.377 34.141,-37.848 35.001,-37.264 35.023,-37.249 35.837,-36.617 36.610,-35.936 37.338,-35.208 38.020,-34.435 38.651,-33.621 39.230,-32.769 39.244,-32.745 39.773,-31.851 40.245,-30.925 40.658,-29.971 41.010,-28.994 41.300,-27.996 41.526,-26.982 41.542,-26.903 41.706,-25.869 41.805,-24.827 41.838,-23.780 41.838,-23.780 41.837,-23.678 41.804,-22.625 41.705,-21.576 41.540,-20.535 41.520,-20.416 41.289,-19.382 40.993,-18.364 40.953,-18.240 40.593,-17.239 40.170,-16.262 40.111,-16.137 39.626,-15.186 39.083,-14.267 39.005,-14.146 38.404,-13.261 37.748,-12.416 37.655,-12.302 36.947,-11.499 36.190,-10.742 36.083,-10.639 35.280,-9.931 34.434,-9.275 34.318,-9.186 33.433,-8.585 32.512,-8.040 32.390,-7.968 31.438,-7.484 31.312,-7.428 30.335,-7.005 29.333,-6.645 28.428,-6.400 27.386,-6.167 26.442,-6.068 25.377,-5.967 23.344,-6.053 21.328,-6.424 19.368,-7.076 18.361,-7.438 17.380,-7.863 16.427,-8.349 15.506,-8.893 14.621,-9.494 13.776,-10.150 12.974,-10.857 12.218,-11.614 10.732,-13.148 10.130,-14.034 9.585,-14.956 9.099,-15.910 8.799,-17.001 8.281,-19.146 7.747,-23.371"/>
<polygon class="node-37" points="-57.393,26.130 -57.342,24.851 -57.200,23.389 -56.928,22.076 -56.889,21.908 -56.557,20.766 -56.154,19.647 -56.090,19.468 -55.614,18.369 -55.526,18.192 -54.980,17.118 -54.366,16.082 -54.254,15.903 -53.574,14.902 -53.442,14.731 -52.698,13.771 -51.895,12.860 -51.743,12.696 -50.882,11.835 -50.714,11.685 -49.800,10.878 -48.836,10.131 -48.655,9.994 -47.646,9.308 -47.454,9.189 -46.405,8.568 -46.206,8.467 -45.121,7.914 -44.003,7.430 -43.802,7.349 -42.659,6.937 -42.457,6.876 -41.294,6.538 -40.113,6.274 -39.917,6.234 -38.727,6.045 -37.527,5.932 -36.323,5.894 -35.118,5.932 -33.919,6.045 -32.729,6.234 -30.549,6.876 -29.568,7.349 -25.257,11.030 -24.566,12.001 -23.946,13.038 -22.271,16.272 -19.642,22.914 -18.467,26.095 -17.969,28.141 -17.829,29.083 -17.745,29.845 -18.081,31.002 -18.489,32.136 -18.968,33.242 -19.515,34.315 -20.128,35.353 -20.236,35.523 -20.916,36.524 -21.044,36.689 -21.788,37.649 -22.591,38.560 -22.739,38.720 -23.600,39.581 -23.764,39.730 -24.679,40.536 -25.643,41.284 -25.823,41.420 -26.832,42.106 -27.023,42.227 -28.073,42.848 -28.275,42.952 -29.360,43.504 -30.477,43.988 -30.683,44.072 -31.826,44.483 -32.036,44.547 -33.198,44.884 -34.379,45.148 -34.585,45.189 -35.775,45.378 -35.977,45.397 -37.169,45.510 -38.366,45.548 -38.554,45.545 -39.743,45.507 -40.927,45.396 -41.095,45.372 -42.260,45.188 -43.411,44.931 -43.555,44.890 -44.677,44.564 -45.776,44.168 -46.848,43.704 -46.951,43.655 -47.981,43.130 -48.976,42.541 -49.932,41.891 -50.846,41.183 -51.713,40.418 -51.748,40.387 -52.556,39.579 -53.310,38.696 -53.972,37.777 -54.596,36.858 -55.093,35.889 -55.590,34.915 -56.282,32.912 -56.938,30.766 -57.314,28.492"/>
<polygon class="node-38" points="-44.655,43.958 -44.433,43.346 -44.100,42.725 -43.116,41.610 -42.567,41.142 -40.222,39.237 -39.632,38.823 -38.863,38.306 -35.697,36.297 -34.797,35.755 -34.058,35.325 -30.449,33.451 -28.356,32.497 -25.529,31.349 -23.859,30.760 -22.308,30.408 -20.727,30.088 -19.336,29.893 -18.560,30.195 -18.210,31.004 -17.911,31.834 -17.665,32.681 -17.473,33.541 -17.335,34.412 -17.252,35.290 -17.224,36.172 -17.224,36.172 -17.252,37.053 -17.335,37.931 -17.473,38.802 -17.665,39.663 -17.911,40.509 -18.210,41.339 -18.560,42.148 -18.634,42.298 -19.035,43.087 -19.486,43.848 -19.574,43.996 -20.073,44.730 -20.174,44.872 -20.718,45.573 -20.831,45.708 -21.418,46.374 -21.543,46.500 -22.170,47.127 -22.835,47.713 -22.968,47.827 -23.667,48.370 -23.807,48.471 -24.537,48.968 -24.683,49.055 -25.440,49.503 -26.223,49.902 -26.369,49.973 -27.172,50.321 -27.319,50.376 -28.137,50.670 -28.972,50.913 -29.112,50.950 -29.955,51.139 -30.807,51.274 -30.936,51.293 -31.789,51.374 -32.645,51.401 -32.759,51.404 -33.607,51.377 -34.451,51.297 -34.546,51.286 -35.375,51.154 -36.194,50.971 -37.000,50.737 -37.063,50.716 -37.843,50.436 -38.604,50.106 -39.343,49.730 -40.056,49.308 -40.742,48.842 -41.397,48.334 -42.019,47.785 -42.605,47.199 -43.153,46.577 -43.662,45.922 -44.128,45.237 -44.550,44.523 -44.576,44.469"/>
<polygon class="node-39" points="-55.875,18.955 -55.847,18.079 -55.844,18.001 -55.761,17.120 -55.622,16.246 -55.429,15.382 -55.406,15.280 -55.156,14.422 -54.854,13.582 -54.810,13.469 -54.452,12.643 -54.043,11.840 -53.978,11.722 -53.517,10.941 -53.007,10.190 -52.922,10.070 -52.363,9.349 -52.263,9.234 -51.657,8.546 -51.008,7.898 -50.892,7.788 -50.201,7.179 -50.073,7.079 -49.343,6.513 -48.580,5.994 -48.439,5.904 -47.643,5.433 -47.495,5.355 -46.670,4.935 -45.821,4.567 -45.666,4.502 -44.796,4.189 -44.638,4.139 -43.751,3.881 -42.849,3.680 -42.692,3.644 -41.781,3.500 -41.625,3.480 -40.710,3.393 -39.792,3.364 -38.874,3.393 -37.959,3.480 -37.052,3.623 -36.156,3.824 -35.274,4.080 -34.409,4.391 -33.566,4.756 -32.748,5.173 -31.957,5.641 -31.197,6.157 -30.471,6.720 -29.782,7.328 -29.133,7.977 -28.525,8.666 -27.962,9.392 -27.446,10.152 -26.978,10.943 -26.561,11.761 -26.196,12.604 -25.885,13.469 -25.629,14.351 -25.532,15.306 -25.638,16.347 -26.013,18.400 -26.445,19.457 -26.995,20.489 -28.133,22.391 -29.586,24.096 -31.303,25.534 -32.063,26.170 -32.859,26.743 -33.684,27.251 -35.947,28.542 -38.932,29.634 -41.732,30.202 -42.392,30.306 -43.056,30.369 -43.723,30.390 -44.390,30.369 -46.991,30.141 -49.571,29.400 -50.811,28.715 -51.435,28.368 -52.038,27.950 -52.614,27.463 -53.158,26.909 -53.663,26.291 -54.148,25.641 -54.550,24.889 -54.893,24.095 -55.187,23.280 -55.192,23.263 -55.437,22.422 -55.628,21.567 -55.765,20.702 -55.847,19.830"/>
<polygon class="node-40" points="-33.690,-6.124 -33.661,-7.038 -33.575,-7.947 -33.432,-8.850 -33.233,-9.742 -32.978,-10.619 -32.669,-11.479 -32.306,-12.318 -31.891,-13.132 -31.426,-13.918 -30.912,-14.674 -30.352,-15.396 -30.335,-15.418 -29.727,-16.107 -29.078,-16.756 -28.389,-17.363 -27.664,-17.926 -26.904,-18.442 -26.114,-18.910 -26.069,-18.935 -25.248,-19.354 -24.402,-19.720 -23.535,-20.032 -22.650,-20.289 -22.588,-20.305 -21.686,-20.506 -20.773,-20.651 -19.853,-20.738 -18.929,-20.767 -18.858,-20.769 -17.932,-20.740 -17.011,-20.653 -16.096,-20.508 -16.023,-20.495 -15.119,-20.293 -14.229,-20.034 -13.358,-19.720 -12.507,-19.353 -11.758,-18.946 -10.961,-18.475 -10.282,-17.957 -9.552,-17.391 -8.859,-16.780 -7.697,-15.430 -7.132,-14.702 -6.265,-13.143 -5.848,-12.325 -5.311,-10.619 -5.056,-9.742 -4.857,-8.850 -4.714,-7.947 -4.757,-6.147 -4.785,-5.239 -4.871,-4.335 -5.013,-3.438 -5.211,-2.551 -5.464,-1.679 -5.772,-0.824 -6.133,0.009 -6.545,0.819 -7.008,1.600 -7.518,2.352 -8.541,3.833 -9.187,4.479 -9.873,5.083 -10.595,5.643 -12.031,6.707 -12.850,7.124 -14.467,7.875 -15.352,8.132 -17.085,8.540 -18.005,8.627 -18.929,8.656 -19.783,8.675 -20.705,8.587 -21.549,8.475 -22.453,8.273 -23.343,8.015 -24.215,7.701 -25.065,7.333 -25.132,7.301 -25.957,6.881 -26.754,6.410 -27.519,5.889 -27.576,5.846 -28.307,5.280 -29.000,4.669 -29.653,4.015 -30.265,3.322 -30.305,3.273 -30.870,2.545 -31.388,1.783 -31.858,0.989 -32.276,0.168 -32.298,0.122 -32.663,-0.721 -32.974,-1.585 -33.230,-2.467 -33.430,-3.363 -33.574,-4.270 -33.660,-5.184 -33.661,-5.211"/>
</svg>