<?xml version="1.0" encoding="UTF-8"?>
<svg xmlns="http://www.w3.org/2000/svg" viewBox="-70.150 -32.447 145.792 75.910">
<defs>
<style>
.node-0{fill:#ffffff;stroke:#000000;stroke-width:0.500px;opacity:1.0;}
.node-1{fill:#ffffff;stroke:#000000;stroke-width:0.500px;opacity:1.0;}
.node-2{fill:#505050;stroke:#000000;stroke-width:0.500px;opacity:1.0;}
.node-3{fill:#ffffff;stroke:#000000;stroke-width:0.500px;opacity:1.0;}
.node-4{fill:#505050;stroke:#000000;stroke-width:0.500px;opacity:1.0;}
.node-5{fill:#ffffff;stroke:#000000;stroke-width:0.500px;opacity:1.0;}
.node-6{fill:#ffffff;stroke:#000000;stroke-width:0.500px;opacity:1.0;}
.node-7{fill:#ffffff;stroke:#000000;stroke-width:0.500px;opacity:1.0;}
.node-8{fill:#505050;stroke:#000000;stroke-width:0.500px;opacity:1.0;}
.node-9{fill:#ffffff;stroke:#000000;stroke-width:0.500px;opacity:1.0;}
.node-10{fill:#505050;stroke:#000000;stroke-width:0.500px;opacity:1.0;}
.node-11{fill:#ff0000;stroke:#000000;stroke-width:0.500px;opacity:1.0;}
.node-12{fill:#505050;stroke:#000000;stroke-width:0.500px;opacity:1.0;}
.node-13{fill:#505050;stroke:#000000;stroke-width:0.500px;opacity:1.0;}
.node-14{fill:#ff0000;stroke:#000000;stroke-width:0.500px;opacity:1.0;}
.node-15{fill:#ffffff;stroke:#000000;stroke-width:0.500px;opacity:1.0;}
.node-16{fill:#505050;stroke:#000000;stroke-width:0.500px;opacity:1.0;}
.node-17{fill:#ffffff;stroke:#000000;stroke-width:0.500px;opacity:1.0;}
.node-18{fill:#505050;stroke:#000000;stroke-width:0.500px;opacity:1.0;}
.node-19{fill:#505050;stroke:#000000;stroke-width:0.500px;opacity:1.0;}
.node-20{fill:#ff0000;stroke:#000000;stroke-width:0.500px;opacity:1.0;}
.node-21{fill:#0000ff;stroke:#000000;stroke-width:0.500px;opacity:1.0;}
.node-22{fill:#505050;stroke:#000000;stroke-width:0.500px;opacity:1.0;}
.node-23{fill:#505050;stroke:#000000;stroke-width:0.500px;opacity:1.0;}
.node-24{fill:#ffffff;stroke:#000000;stroke-width:0.500px;opacity:1.0;}
.node-25{fill:#505050;stroke:#000000;stroke-width:0.500px;opacity:1.0;}
.node-26{fill:#505050;stroke:#000000;stroke-width:0.500px;opacity:1.0;}
.node-27{fill:#505050;stroke:#000000;stroke-width:0.500px;opacity:1.0;}
.node-28{fill:#505050;stroke:#000000;stroke-width:0.500px;opacity:1.0;}
.node-29{fill:#505050;stroke:#000000;stroke-width:0.500px;opacity:1.0;}
.node-30{fill:#0000ff;stroke:#000000;stroke-width:0.500px;opacity:1.0;}
.node-31{fill:#505050;stroke:#000000;stroke-width:0.500px;opacity:1.0;}
.node-32{fill:#505050;stroke:#000000;stroke-width:0.500px;opacity:1.0;}
.node-33{fill:#505050;stroke:#000000;stroke-width:0.500px;opacity:1.0;}
.node-34{fill:#505050;stroke:#000000;stroke-width:0.500px;opacity:1.0;}
.node-35{fill:#0000ff;stroke:#000000;stroke-width:0.500px;opacity:1.0;}
.node-36{fill:#505050;stroke:#000000;stroke-width:0.500px;opacity:1.0;}
.node-37{fill:#505050;stroke:#000000;stroke-width:0.500px;opacity:1.0;}
.node-38{fill:#505050;stroke:#000000;stroke-width:0.500px;opacity:1.0;}
.node-39{fill:#505050;stroke:#000000;stroke-width:0.500px;opacity:1.0;}
.node-40{fill:#0000ff;stroke:#000000;stroke-width:0.500px;opacity:1.0;}
.node-41{fill:#0000ff;stroke:#000000;stroke-width:0.500px;opacity:1.0;}
.node-42{fill:#505050;stroke:#000000;stroke-width:0.500px;opacity:1.0;}
.node-43{fill:#505050;stroke:#000000;stroke-width:0.500px;opacity:1.0;}
.node-44{fill:#ffffff;stroke:#000000;stroke-width:0.500px;opacity:1.0;}
.node-45{fill:#505050;stroke:#000000;stroke-width:0.500px;opacity:1.0;}
.node-46{fill:#505050;stroke:#000000;stroke-width:0.500px;opacity:1.0;}
.node-47{fill:#505050;stroke:#000000;stroke-width:0.500px;opacity:1.0;}
.node-48{fill:#505050;stroke:#000000;stroke-width:0.500px;opacity:1.0;}
.node-49{fill:#505050;stroke:#000000;stroke-width:0.500px;opacity:1.0;}
.node-50{fill:#ff0000;stroke:#000000;stroke-width:0.500px;opacity:1.0;}
.node-51{fill:#ffff00;stroke:#000000;stroke-width:0.500px;opacity:1.0;}
.node-52{fill:#0000ff;stroke:#000000;stroke-width:0.500px;opacity:1.0;}
.node-53{fill:#ffffff;stroke:#000000;stroke-width:0.500px;opacity:1.0;}
.node-54{fill:#505050;stroke:#000000;stroke-width:0.500px;opacity:1.0;}
.node-55{fill:#ffff00;stroke:#000000;stroke-width:0.500px;opacity:1.0;}
.node-56{fill:#505050;stroke:#000000;stroke-width:0.500px;opacity:1.0;}
.node-57{fill:#505050;stroke:#000000;stroke-width:0.500px;opacity:1.0;}
.node-58{fill:#505050;stroke:#000000;stroke-width:0.500px;opacity:1.0;}
.node-59{fill:#ffffff;stroke:#000000;stroke-width:0.500px;opacity:1.0;}
.node-60{fill:#505050;stroke:#000000;stroke-width:0.500px;opacity:1.0;}
.node-61{fill:#ff0000;stroke:#000000;stroke-width:0.500px;opacity:1.0;}
.node-62{fill:#505050;stroke:#000000;stroke-width:0.500px;opacity:1.0;}
.node-63{fill:#ffffff;stroke:#000000;stroke-width:0.500px;opacity:1.0;}
.node-64{fill:#ffffff;stroke:#000000;stroke-width:0.500px;opacity:1.0;}
.node-65{fill:#505050;stroke:#000000;stroke-width:0.500px;opacity:1.0;}
.node-66{fill:#505050;stroke:#000000;stroke-width:0.500px;opacity:1.0;}
.node-67{fill:#505050;stroke:#000000;stroke-width:0.500px;opacity:1.0;}
.node-68{fill:#505050;stroke:#000000;stroke-width:0.500px;opacity:1.0;}
.node-69{fill:#ffffff;stroke:#000000;stroke-width:0.500px;opacity:1.0;}
.node-70{fill:#ffffff;stroke:#000000;stroke-width:0.500px;opacity:1.0;}
.node-71{fill:#ffffff;stroke:#000000;stroke-width:0.500px;opacity:1.0;}
</style>

</defs>
<polygon class="node-0" points="-25.307,25.546 -25.291,25.295 -25.244,25.049 -25.166,24.810 -25.059,24.582 -24.925,24.370 -24.764,24.177 -24.581,24.005 -24.483,23.928 -24.269,23.775 -23.783,23.427 -23.087,22.928 -22.851,22.758 -22.705,22.654 -22.093,22.215 -21.914,22.090 -21.694,21.969 -21.460,21.877 -21.217,21.814 -20.968,21.783 -20.716,21.783 -20.467,21.814 -20.224,21.877 -19.990,21.969 -19.770,22.090 -19.567,22.238 -19.384,22.410 -19.224,22.603 -19.089,22.815 -18.982,23.043 -18.905,23.282 -18.858,23.528 -18.842,23.779 -18.858,24.030 -18.905,24.276 -18.982,24.515 -19.089,24.743 -19.224,24.955 -19.384,25.148 -19.567,25.320 -19.627,25.367 -19.788,25.484 -20.359,25.894 -20.509,26.001 -20.765,26.185 -21.450,26.676 -21.949,27.034 -22.130,27.164 -22.235,27.235 -22.455,27.356 -22.688,27.448 -22.932,27.511 -23.181,27.542 -23.432,27.542 -23.681,27.511 -23.925,27.448 -24.158,27.356 -24.378,27.235 -24.581,27.087 -24.764,26.915 -24.925,26.722 -25.059,26.510 -25.166,26.282 -25.244,26.043 -25.291,25.797"/>
<polygon class="node-1" points="22.229,-9.646 22.245,-9.897 22.292,-10.143 22.369,-10.382 22.476,-10.610 22.611,-10.822 22.771,-11.015 22.954,-11.187 23.045,-11.256 23.157,-11.335 23.217,-11.372 24.364,-12.093 24.985,-12.482 25.458,-12.780 25.601,-12.869 25.773,-12.960 26.006,-13.053 26.250,-13.115 26.499,-13.147 26.750,-13.147 26.999,-13.115 27.243,-13.053 27.476,-12.960 27.696,-12.839 27.899,-12.692 28.082,-12.520 28.243,-12.326 28.377,-12.114 28.484,-11.887 28.562,-11.648 28.609,-11.401 28.624,-11.151 28.609,-10.900 28.562,-10.653 28.484,-10.414 28.377,-10.187 28.243,-9.975 28.082,-9.781 27.899,-9.609 27.825,-9.554 27.696,-9.462 27.114,-9.096 26.490,-8.704 25.337,-7.980 25.233,-7.917 25.081,-7.836 24.847,-7.744 24.604,-7.681 24.355,-7.650 24.103,-7.650 23.854,-7.681 23.611,-7.744 23.377,-7.836 23.157,-7.957 22.954,-8.105 22.771,-8.277 22.611,-8.470 22.476,-8.682 22.369,-8.910 22.292,-9.149 22.245,-9.395"/>
<polygon class="node-2" points="-27.771,27.313 -27.755,27.062 -27.708,26.816 -27.631,26.577 -27.524,26.349 -27.389,26.137 -27.229,25.944 -27.046,25.772 -26.909,25.668 -26.581,25.433 -26.453,25.341 -24.668,24.061 -24.611,24.021 -24.486,23.932 -24.304,23.828 -24.107,23.753 -23.898,23.706 -23.680,23.688 -23.187,23.707 -22.965,23.777 -22.748,23.876 -22.343,24.150 -21.857,24.719 -21.738,24.939 -21.533,25.642 -21.535,26.109 -21.648,26.541 -21.744,26.735 -21.865,26.910 -22.061,27.101 -22.225,27.231 -22.297,27.283 -22.340,27.314 -24.103,28.578 -24.271,28.698 -24.633,28.958 -24.699,29.002 -24.919,29.123 -25.153,29.215 -25.396,29.278 -25.645,29.309 -25.897,29.309 -26.146,29.278 -26.389,29.215 -26.623,29.123 -26.843,29.002 -27.046,28.854 -27.229,28.682 -27.389,28.489 -27.524,28.277 -27.631,28.049 -27.708,27.810 -27.755,27.564"/>
<polygon class="node-3" points="-32.816,2.643 -32.800,2.392 -32.753,2.146 -32.676,1.907 -32.569,1.679 -32.480,1.540 -32.434,1.467 -32.334,1.342 -32.274,1.274 -32.163,1.165 -32.097,1.108 -32.007,1.032 -31.828,0.882 -31.640,0.724 -31.285,0.426 -31.236,0.385 -31.202,0.357 -31.033,0.237 -30.999,0.218 -30.813,0.116 -30.579,0.024 -30.336,-0.039 -30.087,-0.070 -29.835,-0.070 -29.586,-0.039 -29.343,0.024 -29.109,0.116 -28.889,0.237 -28.686,0.385 -28.503,0.557 -28.343,0.750 -28.208,0.962 -28.101,1.190 -28.024,1.429 -27.977,1.675 -27.961,1.926 -27.961,1.926 -27.977,2.177 -28.024,2.423 -28.101,2.662 -28.208,2.890 -28.343,3.102 -28.377,3.144 -28.503,3.295 -28.538,3.330 -28.581,3.371 -28.706,3.483 -29.069,3.788 -29.541,4.184 -29.612,4.238 -29.660,4.275 -29.744,4.332 -29.870,4.403 -29.964,4.453 -30.198,4.545 -30.441,4.608 -30.690,4.639 -30.942,4.639 -31.191,4.608 -31.434,4.545 -31.668,4.453 -31.888,4.332 -32.091,4.184 -32.274,4.012 -32.434,3.819 -32.569,3.607 -32.676,3.379 -32.753,3.140 -32.800,2.894"/>
<polygon class="node-4" points="24.830,-11.555 24.861,-11.787 24.919,-12.010 25.004,-12.219 25.115,-12.411 25.280,-12.593 25.406,-12.732 25.582,-12.857 25.607,-12.873 26.659,-13.534 27.749,-14.219 27.830,-14.269 27.930,-14.332 27.937,-14.336 28.168,-14.465 28.402,-14.557 28.645,-14.620 28.894,-14.651 29.146,-14.651 29.395,-14.620 29.638,-14.557 29.872,-14.465 30.092,-14.344 30.295,-14.196 30.478,-14.024 30.638,-13.831 30.773,-13.619 30.880,-13.391 30.957,-13.152 31.004,-12.906 31.020,-12.655 31.004,-12.404 30.957,-12.158 30.880,-11.919 30.773,-11.691 30.638,-11.479 30.478,-11.286 30.295,-11.114 30.110,-10.978 30.092,-10.966 28.794,-10.152 27.738,-9.488 27.667,-9.444 27.475,-9.346 27.054,-9.237 26.606,-9.249 26.381,-9.299 26.160,-9.379 25.945,-9.487 25.742,-9.621 25.552,-9.780 25.380,-9.960 25.227,-10.158 24.908,-10.834 24.854,-11.075"/>
<polygon class="node-5" points="-38.008,30.119 -37.992,29.868 -37.945,29.622 -37.868,29.383 -37.761,29.155 -37.626,28.943 -37.466,28.750 -37.283,28.578 -37.080,28.430 -36.860,28.309 -36.626,28.217 -36.526,28.188 -36.438,28.163 -36.334,28.135 -31.725,26.871 -31.523,26.816 -31.412,26.786 -31.264,26.751 -31.015,26.720 -30.764,26.720 -30.515,26.751 -30.271,26.814 -30.038,26.906 -29.818,27.027 -29.615,27.175 -29.432,27.347 -29.271,27.540 -29.137,27.752 -29.030,27.980 -28.952,28.219 -28.905,28.465 -28.890,28.716 -28.905,28.967 -28.952,29.213 -29.030,29.452 -29.137,29.680 -29.271,29.892 -29.432,30.085 -29.615,30.257 -29.818,30.405 -30.038,30.526 -30.271,30.618 -30.367,30.646 -30.461,30.672 -30.669,30.729 -35.272,31.991 -35.374,32.019 -35.490,32.050 -35.633,32.084 -35.882,32.115 -36.134,32.115 -36.383,32.084 -36.626,32.021 -36.860,31.929 -37.080,31.808 -37.283,31.660 -37.466,31.488 -37.626,31.295 -37.761,31.083 -37.868,30.855 -37.945,30.616 -37.992,30.370"/>
<polygon class="node-6" points="24.443,14.206 24.459,13.955 24.506,13.709 24.583,13.470 24.690,13.242 24.825,13.030 24.985,12.837 25.168,12.665 25.371,12.517 25.591,12.396 25.825,12.304 26.324,12.151 26.596,12.067 28.532,11.472 30.199,10.961 30.361,10.911 30.494,10.871 30.682,10.825 30.931,10.793 31.182,10.793 31.431,10.825 31.675,10.887 31.908,10.980 32.128,11.101 32.331,11.248 32.514,11.420 32.675,11.614 32.809,11.826 32.916,12.053 32.994,12.292 33.041,12.539 33.056,12.790 33.041,13.040 32.994,13.287 32.916,13.526 32.809,13.753 32.675,13.965 32.514,14.159 32.331,14.331 32.128,14.478 31.908,14.599 31.675,14.692 31.361,14.788 29.705,15.297 27.767,15.892 27.485,15.978 27.139,16.084 26.974,16.131 26.818,16.171 26.569,16.202 26.317,16.202 26.068,16.171 25.825,16.108 25.591,16.016 25.371,15.895 25.168,15.747 24.985,15.575 24.825,15.382 24.690,15.170 24.583,14.942 24.506,14.703 24.459,14.457"/>
<polygon class="node-7" points="29.737,-17.273 29.752,-17.524 29.799,-17.770 29.877,-18.009 29.984,-18.237 30.009,-18.280 30.176,-18.565 32.241,-22.074 32.351,-22.262 32.723,-22.894 32.835,-23.067 32.995,-23.260 33.178,-23.432 33.381,-23.580 33.601,-23.701 33.835,-23.793 34.078,-23.856 34.327,-23.887 34.579,-23.887 34.828,-23.856 35.071,-23.793 35.305,-23.701 35.525,-23.580 35.728,-23.432 35.911,-23.260 36.071,-23.067 36.206,-22.855 36.313,-22.627 36.390,-22.388 36.437,-22.142 36.453,-21.891 36.437,-21.640 36.390,-21.394 36.313,-21.155 36.206,-20.927 35.795,-20.227 35.688,-20.045 33.623,-16.536 33.464,-16.266 33.355,-16.097 33.194,-15.904 33.011,-15.732 32.808,-15.584 32.588,-15.463 32.355,-15.371 32.111,-15.308 31.862,-15.277 31.611,-15.277 31.362,-15.308 31.118,-15.371 30.885,-15.463 30.665,-15.584 30.462,-15.732 30.279,-15.904 30.118,-16.097 29.984,-16.309 29.877,-16.537 29.799,-16.776 29.752,-17.022"/>
<polygon class="node-8" points="-31.590,27.619 -31.459,26.961 -31.424,26.865 -31.380,26.799 -31.326,26.762 -31.105,26.702 -30.498,26.535 -28.449,25.973 -27.428,25.693 -27.025,25.583 -26.696,25.494 -26.548,25.462 -26.467,25.453 -26.127,25.445 -25.657,25.507 -25.229,25.646 -25.052,25.785 -24.592,26.205 -24.267,26.717 -24.096,27.101 -24.018,27.313 -24.042,27.998 -24.104,28.229 -24.204,28.452 -24.499,28.851 -24.708,28.988 -24.919,29.123 -25.218,29.232 -25.333,29.266 -26.366,29.550 -27.393,29.831 -29.438,30.392 -30.059,30.562 -30.248,30.614 -30.311,30.620 -30.381,30.596 -30.457,30.541 -30.538,30.458 -30.904,30.074 -31.165,29.472 -31.319,29.006 -31.387,28.764"/>
<polygon class="node-9" points="2.359,-10.113 2.375,-10.364 2.410,-10.548 2.422,-10.610 2.471,-10.772 2.555,-11.008 2.842,-11.812 3.073,-12.460 3.158,-12.696 3.198,-12.786 3.265,-12.924 3.400,-13.136 3.560,-13.329 3.743,-13.501 3.946,-13.649 4.166,-13.770 4.400,-13.862 4.643,-13.925 4.892,-13.956 5.144,-13.956 5.393,-13.925 5.636,-13.862 5.870,-13.770 6.090,-13.649 6.293,-13.501 6.476,-13.329 6.636,-13.136 6.771,-12.924 6.878,-12.696 6.955,-12.457 7.002,-12.211 7.018,-11.960 7.002,-11.709 6.977,-11.575 6.955,-11.463 6.922,-11.350 6.831,-11.090 6.614,-10.483 6.321,-9.661 6.247,-9.454 6.219,-9.377 6.156,-9.241 6.112,-9.149 5.977,-8.937 5.817,-8.744 5.634,-8.572 5.431,-8.424 5.211,-8.303 4.977,-8.211 4.734,-8.148 4.485,-8.117 4.233,-8.117 3.984,-8.148 3.741,-8.211 3.507,-8.303 3.287,-8.424 3.084,-8.572 2.901,-8.744 2.741,-8.937 2.606,-9.149 2.499,-9.377 2.422,-9.616 2.375,-9.862"/>
<polygon class="node-10" points="27.267,-12.655 27.291,-13.340 27.420,-13.813 27.469,-13.960 27.515,-14.042 28.816,-16.253 29.688,-17.734 29.956,-18.190 29.994,-18.230 30.166,-18.353 30.272,-18.350 30.401,-18.330 30.551,-18.293 31.102,-18.089 31.524,-17.887 31.742,-17.770 32.174,-17.516 32.579,-17.246 33.207,-16.729 33.445,-16.423 33.471,-16.346 33.471,-16.284 33.409,-16.171 33.300,-15.986 33.134,-15.703 32.266,-14.229 30.851,-11.823 30.782,-11.713 30.635,-11.482 30.475,-11.289 30.295,-11.114 30.092,-10.966 29.627,-10.787 29.376,-10.787 28.903,-10.799 28.461,-10.934 28.274,-11.069 27.944,-11.354 27.450,-12.033"/>
<polygon class="node-11" points="-24.842,-25.451 -24.826,-25.702 -24.779,-25.948 -24.702,-26.187 -24.595,-26.415 -24.460,-26.627 -24.300,-26.820 -24.117,-26.992 -23.914,-27.140 -23.694,-27.261 -23.460,-27.353 -23.217,-27.416 -22.968,-27.447 -22.716,-27.447 -22.467,-27.416 -22.224,-27.353 -21.990,-27.261 -21.770,-27.140 -21.567,-26.992 -21.384,-26.820 -21.224,-26.627 -21.089,-26.415 -21.011,-26.261 -20.760,-25.770 -20.442,-25.145 -20.142,-24.555 -19.595,-23.481 -19.291,-22.883 -19.250,-22.802 -19.195,-22.689 -19.152,-22.592 -19.074,-22.353 -19.027,-22.107 -19.011,-21.856 -19.027,-21.605 -19.074,-21.359 -19.152,-21.120 -19.259,-20.892 -19.393,-20.680 -19.554,-20.487 -19.737,-20.315 -19.940,-20.167 -20.160,-20.046 -20.393,-19.954 -20.637,-19.891 -20.886,-19.860 -21.137,-19.860 -21.386,-19.891 -21.630,-19.954 -21.863,-20.046 -22.083,-20.167 -22.286,-20.315 -22.469,-20.487 -22.630,-20.680 -22.764,-20.892 -22.879,-21.116 -23.160,-21.669 -23.712,-22.752 -23.998,-23.313 -24.338,-23.981 -24.600,-24.497 -24.652,-24.601 -24.702,-24.715 -24.779,-24.954 -24.826,-25.200"/>
<polygon class="node-12" points="-26.906,29.173 -26.870,28.751 -26.427,25.919 -26.330,25.592 -26.127,25.445 -25.657,25.507 -25.229,25.646 -24.131,26.490 -23.707,26.931 -23.620,27.065 -23.565,27.163 -22.339,29.360 -21.727,30.459 -21.466,30.926 -21.359,31.154 -21.281,31.393 -21.234,31.639 -21.219,31.890 -21.234,32.141 -21.281,32.387 -21.359,32.626 -21.466,32.854 -21.600,33.066 -21.761,33.259 -21.944,33.431 -22.147,33.579 -22.367,33.700 -22.600,33.792 -22.844,33.855 -23.093,33.886 -23.344,33.886 -23.593,33.855 -23.837,33.792 -24.070,33.700 -24.290,33.579 -24.493,33.431 -24.676,33.259 -24.837,33.066 -24.955,32.880 -25.060,32.693 -25.221,32.406 -25.833,31.308 -25.936,31.123 -26.141,30.755 -26.551,30.019 -26.645,29.851 -26.817,29.536 -26.876,29.357"/>
<polygon class="node-13" points="30.001,11.934 30.079,11.357 30.391,10.910 30.527,10.861 30.640,10.826 30.845,10.762 30.931,10.736 32.132,10.367 34.817,9.543 35.104,9.455 35.295,9.408 35.544,9.377 35.796,9.377 36.045,9.408 36.288,9.471 36.522,9.563 36.742,9.684 36.945,9.832 37.128,10.004 37.288,10.197 37.423,10.409 37.530,10.637 37.607,10.876 37.654,11.122 37.670,11.373 37.654,11.624 37.607,11.870 37.530,12.109 37.423,12.337 37.288,12.549 37.128,12.742 36.945,12.914 36.742,13.062 36.522,13.183 36.288,13.275 35.970,13.373 33.302,14.192 32.104,14.560 32.006,14.590 31.842,14.640 31.770,14.661 31.658,14.689 31.497,14.720 31.373,14.700 30.980,14.463 30.482,13.792 30.376,13.578 30.196,13.115 30.126,12.873 30.008,12.157"/>
<polygon class="node-14" points="-60.334,10.261 -60.318,10.010 -60.271,9.764 -60.193,9.525 -60.086,9.297 -59.952,9.085 -59.791,8.892 -59.608,8.720 -59.405,8.572 -59.185,8.451 -58.952,8.359 -58.708,8.296 -58.459,8.265 -58.208,8.265 -57.936,8.291 -55.333,8.561 -54.759,8.621 -53.702,8.730 -53.319,8.770 -53.142,8.795 -52.899,8.858 -52.665,8.950 -52.445,9.071 -52.242,9.219 -52.059,9.391 -51.899,9.584 -51.764,9.796 -51.657,10.024 -51.580,10.263 -51.533,10.509 -51.517,10.760 -51.533,11.011 -51.580,11.257 -51.657,11.496 -51.764,11.724 -51.899,11.936 -52.059,12.129 -52.242,12.301 -52.445,12.449 -52.665,12.570 -52.899,12.662 -53.142,12.725 -53.391,12.756 -53.643,12.756 -53.715,12.750 -54.103,12.710 -55.165,12.600 -55.746,12.540 -58.345,12.270 -58.451,12.259 -58.528,12.250 -58.708,12.226 -58.952,12.163 -59.185,12.071 -59.405,11.950 -59.608,11.802 -59.791,11.630 -59.952,11.437 -60.086,11.225 -60.193,10.997 -60.271,10.758 -60.318,10.512"/>
<polygon class="node-15" points="-24.987,32.795 -24.982,32.709 -24.604,32.307 -24.463,32.173 -24.302,32.035 -23.401,31.321 -23.179,31.207 -22.740,31.014 -22.530,30.937 -22.331,30.876 -21.523,30.858 -21.473,30.914 -20.247,33.112 -19.276,34.853 -19.022,35.308 -18.913,35.503 -18.806,35.731 -18.729,35.970 -18.682,36.216 -18.666,36.467 -18.682,36.718 -18.729,36.964 -18.806,37.203 -18.913,37.431 -19.048,37.643 -19.208,37.836 -19.391,38.008 -19.594,38.156 -19.814,38.277 -20.048,38.369 -20.291,38.432 -20.540,38.463 -20.792,38.463 -21.041,38.432 -21.284,38.369 -21.518,38.277 -21.738,38.156 -21.941,38.008 -22.124,37.836 -22.284,37.643 -22.419,37.429 -22.514,37.259 -22.771,36.799 -23.740,35.062 -24.964,32.866"/>
<polygon class="node-16" points="27.267,-12.655 27.291,-13.340 27.390,-13.551 27.602,-13.685 30.437,-13.291 30.998,-13.197 31.438,-12.953 31.488,-12.901 32.046,-12.286 33.015,-11.212 37.846,-5.858 39.774,-3.721 39.980,-3.492 40.177,-3.273 40.297,-3.125 40.432,-2.913 40.539,-2.685 40.616,-2.446 40.663,-2.200 40.679,-1.949 40.663,-1.698 40.616,-1.452 40.539,-1.213 40.432,-0.985 40.297,-0.773 40.137,-0.580 39.954,-0.408 39.751,-0.260 39.531,-0.139 39.297,-0.047 39.054,0.016 38.805,0.047 38.553,0.047 38.304,0.016 38.061,-0.047 37.827,-0.139 37.607,-0.260 37.404,-0.408 37.221,-0.580 36.812,-1.033 34.876,-3.179 30.047,-8.531 28.109,-10.679 27.872,-11.024 27.688,-11.341 27.450,-12.033"/>
<polygon class="node-17" points="-65.150,9.762 -65.134,9.511 -65.087,9.265 -65.010,9.026 -64.903,8.798 -64.768,8.586 -64.608,8.393 -64.425,8.221 -64.222,8.073 -64.002,7.952 -63.768,7.860 -63.525,7.797 -63.276,7.766 -63.024,7.766 -62.953,7.773 -62.854,7.782 -62.555,7.813 -62.460,7.823 -61.017,7.972 -58.417,8.242 -58.221,8.262 -58.074,8.310 -57.991,8.591 -57.962,8.912 -57.963,9.545 -58.383,12.069 -58.597,12.230 -58.638,12.240 -58.828,12.220 -61.430,11.951 -62.876,11.801 -62.974,11.791 -63.253,11.762 -63.347,11.751 -63.525,11.727 -63.768,11.664 -64.002,11.572 -64.222,11.451 -64.425,11.303 -64.608,11.131 -64.768,10.938 -64.903,10.726 -65.010,10.498 -65.087,10.259 -65.134,10.013"/>
<polygon class="node-18" points="-33.671,3.360 -33.655,3.109 -33.608,2.863 -33.531,2.624 -33.424,2.396 -33.355,2.288 -33.289,2.184 -33.212,2.087 -33.129,1.991 -33.045,1.907 -32.945,1.818 -32.738,1.645 -32.374,1.339 -32.124,1.130 -32.027,1.052 -31.822,0.916 -31.601,0.808 -31.368,0.728 -31.129,0.691 -30.882,0.674 -30.634,0.689 -30.390,0.735 -30.152,0.811 -29.925,0.916 -29.712,1.048 -29.517,1.206 -29.343,1.387 -29.192,1.588 -29.067,1.806 -28.970,2.037 -28.888,2.250 -28.849,2.497 -28.841,2.746 -28.865,2.993 -28.919,3.235 -29.003,3.467 -29.115,3.687 -29.254,3.890 -29.418,4.073 -29.445,4.097 -29.576,4.214 -29.805,4.405 -30.159,4.702 -30.363,4.873 -30.396,4.901 -30.486,4.971 -30.599,5.049 -30.693,5.103 -30.819,5.170 -31.053,5.262 -31.296,5.325 -31.545,5.356 -31.797,5.356 -32.046,5.325 -32.289,5.262 -32.523,5.170 -32.743,5.049 -32.946,4.901 -33.129,4.729 -33.289,4.536 -33.424,4.324 -33.531,4.096 -33.608,3.857 -33.655,3.611"/>
<polygon class="node-19" points="33.959,9.871 34.200,8.804 34.682,6.671 34.983,5.338 35.163,4.538 36.246,-0.255 36.306,-0.519 36.492,-1.338 39.180,-3.013 39.796,-3.299 40.125,-3.307 40.294,-3.122 40.432,-2.913 40.524,-2.679 40.612,-2.445 40.659,-2.199 40.679,-1.949 40.659,-1.699 40.631,-1.518 40.571,-1.247 40.149,0.620 39.065,5.419 37.801,11.016 37.742,11.274 37.674,11.565 37.592,11.866 37.515,12.103 37.423,12.337 37.285,12.546 37.128,12.742 36.945,12.914 36.520,13.179 36.283,13.260 36.033,13.276 35.568,12.988 35.096,12.278 34.189,10.698 34.006,10.290"/>
<polygon class="node-20" points="-54.486,8.934 -54.462,8.796 -54.413,8.674 -54.338,8.571 -54.277,8.492 -54.236,8.439 -53.287,7.232 -52.851,6.677 -52.127,5.757 -51.986,5.577 -51.620,5.112 -51.537,5.007 -51.453,4.902 -51.364,4.799 -51.181,4.627 -50.978,4.479 -50.758,4.358 -50.525,4.266 -50.281,4.203 -50.032,4.172 -49.781,4.172 -49.532,4.203 -49.288,4.266 -49.055,4.358 -48.835,4.479 -48.632,4.627 -48.449,4.799 -48.288,4.992 -48.154,5.204 -48.047,5.432 -47.969,5.671 -47.922,5.917 -47.907,6.168 -47.907,6.168 -47.922,6.419 -47.969,6.665 -48.047,6.904 -48.154,7.132 -48.288,7.344 -48.420,7.513 -48.482,7.592 -48.838,8.045 -48.985,8.232 -49.706,9.148 -50.137,9.696 -51.956,12.010 -52.059,12.129 -52.242,12.301 -52.445,12.449 -52.667,12.566 -52.904,12.647 -53.142,12.725 -53.391,12.756 -53.643,12.756 -53.833,12.419 -54.452,9.250 -54.482,9.086"/>
<polygon class="node-21" points="3.048,-12.057 3.059,-12.290 3.101,-12.518 3.147,-12.666 3.225,-12.887 3.345,-13.222 3.385,-13.335 3.651,-14.080 3.786,-14.459 3.817,-14.543 3.876,-14.673 3.924,-14.771 4.059,-14.983 4.219,-15.176 4.402,-15.348 4.605,-15.496 4.825,-15.617 5.059,-15.709 5.302,-15.772 5.551,-15.803 5.803,-15.803 6.052,-15.772 6.295,-15.709 6.529,-15.617 6.749,-15.496 6.952,-15.348 7.135,-15.176 7.295,-14.983 7.430,-14.771 7.537,-14.543 7.614,-14.304 7.661,-14.058 7.677,-13.807 7.661,-13.556 7.628,-13.379 7.614,-13.310 7.568,-13.155 7.413,-12.722 7.152,-11.989 7.113,-11.880 6.995,-11.550 6.974,-11.492 6.882,-11.237 6.783,-11.027 6.657,-10.854 6.502,-10.678 6.326,-10.499 6.125,-10.392 5.909,-10.286 5.680,-10.207 5.200,-10.098 4.461,-10.201 4.005,-10.409 3.448,-10.898 3.309,-11.098 3.201,-11.367 3.120,-11.591 3.059,-11.767"/>
<polygon class="node-22" points="34.654,12.501 34.674,12.000 34.807,11.828 34.956,11.653 35.119,11.476 35.678,11.310 37.268,10.868 37.837,10.798 37.888,10.849 38.033,11.009 38.942,12.014 39.123,12.214 43.241,16.777 44.136,17.770 45.213,18.964 46.112,19.960 46.237,20.114 46.372,20.326 46.479,20.554 46.556,20.793 46.603,21.039 46.619,21.290 46.603,21.541 46.556,21.787 46.479,22.026 46.372,22.254 46.237,22.466 46.077,22.659 45.894,22.831 45.691,22.979 45.471,23.100 45.237,23.192 44.994,23.255 44.745,23.286 44.493,23.286 44.244,23.255 44.001,23.192 43.767,23.100 43.547,22.979 43.344,22.831 43.161,22.659 42.235,21.633 41.164,20.447 40.270,19.456 36.155,14.896 35.978,14.699 35.097,13.721 34.884,13.483 34.857,13.411 34.712,12.958"/>
<polygon class="node-23" points="-22.915,-21.400 -22.817,-22.000 -22.726,-22.200 -21.910,-23.058 -21.227,-23.367 -20.750,-23.457 -20.073,-23.403 -19.872,-23.335 -19.390,-22.999 -19.277,-22.848 -19.189,-22.683 -18.900,-22.117 -18.717,-21.758 -17.835,-20.026 -17.626,-19.615 -17.388,-19.147 -17.321,-18.997 -17.244,-18.758 -17.197,-18.512 -17.181,-18.261 -17.197,-18.010 -17.244,-17.764 -17.321,-17.525 -17.428,-17.297 -17.563,-17.085 -17.723,-16.892 -17.906,-16.720 -18.109,-16.572 -18.329,-16.451 -18.563,-16.359 -18.806,-16.296 -19.055,-16.265 -19.307,-16.265 -19.556,-16.296 -19.799,-16.359 -20.033,-16.451 -20.253,-16.572 -20.456,-16.720 -20.639,-16.892 -20.799,-17.085 -20.934,-17.297 -20.974,-17.375 -21.175,-17.770 -21.405,-18.221 -22.281,-19.941 -22.464,-20.300 -22.761,-20.885 -22.831,-21.059 -22.888,-21.210"/>
<polygon class="node-24" points="40.343,31.743 40.359,31.492 40.388,31.338 40.412,31.210 40.616,30.275 41.368,26.822 41.504,26.198 41.544,26.019 41.621,25.780 41.728,25.553 41.863,25.341 42.023,25.147 42.206,24.975 42.409,24.828 42.629,24.707 42.863,24.614 43.106,24.552 43.355,24.520 43.607,24.520 43.856,24.552 44.099,24.614 44.333,24.707 44.553,24.828 44.756,24.975 44.939,25.147 45.099,25.341 45.234,25.553 45.341,25.780 45.418,26.019 45.465,26.266 45.481,26.517 45.465,26.767 45.413,27.044 45.276,27.674 44.525,31.121 44.319,32.067 44.280,32.240 44.203,32.479 44.096,32.707 43.961,32.919 43.801,33.112 43.618,33.284 43.415,33.432 43.195,33.553 42.961,33.645 42.718,33.708 42.469,33.739 42.217,33.739 41.968,33.708 41.725,33.645 41.491,33.553 41.271,33.432 41.068,33.284 40.885,33.112 40.725,32.919 40.590,32.707 40.483,32.479 40.406,32.240 40.359,31.994"/>
<polygon class="node-25" points="-27.760,26.290 -27.750,25.131 -27.743,24.341 -27.718,21.773 -27.706,20.482 -27.688,18.590 -27.674,17.065 -27.671,16.831 -27.668,16.603 -27.654,16.428 -27.607,16.182 -27.530,15.943 -27.423,15.715 -27.288,15.503 -27.128,15.310 -26.945,15.138 -26.742,14.990 -26.522,14.869 -26.288,14.777 -26.045,14.714 -25.796,14.683 -25.544,14.683 -25.295,14.714 -25.052,14.777 -24.818,14.869 -24.598,14.990 -24.395,15.138 -24.212,15.310 -24.052,15.503 -23.917,15.715 -23.810,15.943 -23.733,16.182 -23.686,16.428 -23.676,16.574 -23.670,16.679 -23.707,20.532 -23.719,21.793 -23.763,26.498 -23.766,26.720 -23.788,26.900 -24.028,27.186 -25.674,27.899 -26.431,28.028 -26.662,27.956 -26.879,27.864 -27.078,27.753 -27.533,27.124 -27.735,26.470"/>
<polygon class="node-26" points="16.730,-16.107 16.746,-16.358 16.793,-16.604 16.870,-16.843 16.977,-17.071 17.112,-17.283 17.272,-17.476 17.455,-17.648 17.658,-17.796 17.878,-17.917 18.112,-18.009 18.355,-18.072 18.604,-18.103 18.856,-18.103 19.105,-18.072 19.314,-18.019 19.348,-18.009 20.179,-17.730 25.747,-15.863 28.218,-15.034 28.388,-14.976 28.684,-14.875 28.841,-14.795 28.984,-14.686 29.518,-14.140 29.843,-13.645 29.868,-13.415 29.869,-13.177 29.447,-12.290 28.399,-11.106 28.048,-10.915 27.872,-10.937 27.704,-10.989 27.183,-11.163 26.941,-11.243 24.473,-12.071 18.927,-13.931 18.276,-14.150 18.146,-14.195 17.982,-14.256 17.878,-14.297 17.658,-14.418 17.455,-14.566 17.272,-14.738 17.112,-14.931 16.977,-15.143 16.870,-15.371 16.793,-15.610 16.746,-15.856"/>
<polygon class="node-27" points="41.535,26.142 41.555,25.972 41.576,25.871 41.664,25.461 41.686,25.359 41.959,24.105 42.074,23.580 42.439,21.904 42.544,21.816 44.917,20.374 45.736,19.940 46.065,19.932 46.224,20.124 46.372,20.326 46.556,20.793 46.588,21.041 46.588,21.539 46.563,21.739 46.552,21.813 46.483,22.131 46.437,22.343 45.868,24.956 45.594,26.210 45.436,26.937 45.415,26.977 45.035,27.059 44.874,27.059 44.040,26.973 43.557,26.886 43.311,26.833 42.024,26.445 41.872,26.378"/>
<polygon class="node-28" points="-51.599,5.291 -51.581,5.150 -51.467,4.918 -51.190,4.564 -50.973,4.289 -49.457,2.360 -48.302,0.892 -47.890,0.370 -47.754,0.207 -47.571,0.035 -47.368,-0.113 -47.148,-0.234 -46.914,-0.326 -46.671,-0.389 -46.422,-0.420 -46.170,-0.420 -45.921,-0.389 -45.678,-0.326 -45.444,-0.234 -45.224,-0.113 -45.021,0.035 -44.838,0.207 -44.678,0.400 -44.543,0.612 -44.436,0.840 -44.359,1.079 -44.312,1.325 -44.296,1.576 -44.312,1.827 -44.359,2.073 -44.436,2.312 -44.543,2.540 -44.678,2.752 -45.157,3.363 -46.312,4.833 -47.829,6.761 -48.046,7.037 -48.346,7.418 -48.558,7.572 -48.696,7.616 -48.854,7.637 -49.416,7.562 -49.623,7.492 -50.047,7.291 -50.658,6.863 -51.012,6.519 -51.163,6.337 -51.492,5.787 -51.590,5.446"/>
<polygon class="node-29" points="-47.926,0.680 -47.901,0.410 -47.754,0.207 -47.571,0.035 -47.359,-0.099 -47.146,-0.230 -46.909,-0.311 -46.421,-0.404 -46.171,-0.404 -45.747,-0.370 -45.457,-0.335 -43.712,-0.124 -35.817,0.839 -32.604,1.232 -31.738,1.339 -31.696,1.348 -31.356,1.439 -30.835,1.582 -30.284,2.058 -30.132,2.242 -29.795,2.878 -29.722,3.114 -29.706,3.360 -29.706,3.360 -29.722,3.606 -29.826,4.090 -30.056,4.533 -30.396,4.901 -30.819,5.170 -31.054,5.258 -31.796,5.340 -32.189,5.309 -33.078,5.203 -36.300,4.810 -44.200,3.846 -45.353,3.704 -45.395,3.694 -45.774,3.439 -47.435,1.868 -47.665,1.576 -47.863,1.174"/>
<polygon class="node-30" points="3.801,-13.325 3.832,-14.537 4.110,-14.946 4.405,-15.345 4.605,-15.496 4.825,-15.617 5.064,-15.694 5.302,-15.772 5.980,-15.891 8.724,-16.375 9.640,-16.536 10.826,-16.745 11.485,-16.860 11.820,-16.917 11.898,-16.930 12.078,-16.953 12.329,-16.953 12.578,-16.922 12.822,-16.859 13.055,-16.767 13.275,-16.646 13.478,-16.498 13.661,-16.326 13.822,-16.133 13.956,-15.921 14.063,-15.693 14.141,-15.454 14.188,-15.208 14.204,-14.957 14.188,-14.706 14.141,-14.460 14.063,-14.221 13.956,-13.993 13.822,-13.781 13.661,-13.588 13.478,-13.416 13.275,-13.268 13.055,-13.147 12.822,-13.055 12.578,-12.992 10.329,-12.596 9.417,-12.435 6.680,-11.953 6.534,-11.928 6.348,-11.906 6.128,-11.914 5.939,-11.928 5.338,-12.029 5.118,-12.086 4.906,-12.170 4.492,-12.374 4.321,-12.534 4.173,-12.714 4.047,-12.911"/>
<polygon class="node-31" points="-32.709,1.295 -32.653,1.189 -32.458,0.884 -30.459,-2.229 -30.120,-2.756 -29.920,-3.067 -29.844,-3.180 -29.684,-3.374 -29.501,-3.546 -29.298,-3.693 -29.078,-3.814 -28.844,-3.907 -28.601,-3.969 -28.352,-4.001 -28.100,-4.001 -27.851,-3.969 -27.608,-3.907 -27.374,-3.814 -27.154,-3.693 -26.951,-3.546 -26.768,-3.374 -26.608,-3.180 -26.473,-2.968 -26.366,-2.741 -26.289,-2.502 -26.242,-2.255 -26.226,-2.004 -26.242,-1.754 -26.289,-1.507 -26.366,-1.268 -26.473,-1.041 -26.532,-0.942 -26.745,-0.610 -27.095,-0.064 -29.781,4.118 -29.839,4.208 -30.056,4.533 -30.396,4.901 -30.821,5.166 -31.054,5.258 -31.569,4.975 -32.280,2.959 -32.657,1.855"/>
<polygon class="node-32" points="37.895,-2.357 38.347,-3.313 38.756,-3.921 38.839,-4.027 39.240,-4.211 39.484,-4.287 39.752,-4.369 40.926,-4.729 41.859,-5.014 47.984,-6.890 48.940,-7.183 49.416,-7.329 49.920,-7.480 50.082,-7.521 50.331,-7.552 50.583,-7.552 50.832,-7.521 51.075,-7.458 51.309,-7.366 51.529,-7.245 51.732,-7.097 51.915,-6.925 52.075,-6.732 52.210,-6.520 52.317,-6.292 52.394,-6.053 52.441,-5.807 52.457,-5.556 52.457,-5.556 52.441,-5.305 52.394,-5.059 52.317,-4.820 52.210,-4.592 52.075,-4.380 51.915,-4.187 51.732,-4.015 51.529,-3.867 51.309,-3.746 51.075,-3.654 49.161,-3.067 43.037,-1.192 42.086,-0.901 40.903,-0.539 40.700,-0.477 40.474,-0.408 40.361,-0.381 40.308,-0.371 39.836,-0.363 39.121,-0.687 38.549,-1.133 38.071,-1.634 37.998,-1.874 37.939,-2.116"/>
<polygon class="node-33" points="-23.981,-12.815 -23.965,-13.066 -23.918,-13.312 -23.841,-13.551 -23.778,-13.687 -23.537,-14.162 -23.424,-14.382 -22.192,-16.779 -21.463,-18.196 -21.215,-18.672 -21.082,-18.866 -20.807,-19.090 -20.268,-19.357 -19.802,-19.580 -18.892,-19.775 -18.462,-19.789 -18.211,-19.789 -17.769,-19.587 -17.614,-19.400 -17.248,-18.757 -17.201,-18.511 -17.232,-18.015 -17.432,-17.299 -17.455,-17.243 -17.515,-17.127 -17.907,-16.366 -18.634,-14.950 -19.866,-12.555 -19.977,-12.339 -20.228,-11.851 -20.363,-11.639 -20.523,-11.446 -20.706,-11.274 -20.909,-11.126 -21.129,-11.005 -21.363,-10.913 -21.606,-10.850 -21.855,-10.819 -22.107,-10.819 -22.356,-10.850 -22.599,-10.913 -22.833,-11.005 -23.053,-11.126 -23.256,-11.274 -23.439,-11.446 -23.599,-11.639 -23.734,-11.851 -23.841,-12.079 -23.918,-12.318 -23.965,-12.564"/>
<polygon class="node-34" points="-33.020,5.233 -32.802,4.721 -32.192,3.890 -31.982,3.770 -31.762,3.656 -29.472,3.480 -29.404,3.548 -29.362,3.618 -29.124,4.144 -25.765,11.599 -25.049,13.188 -24.450,14.518 -24.331,14.783 -23.958,15.614 -23.825,15.949 -23.733,16.182 -23.690,16.429 -23.674,16.679 -23.941,17.364 -24.084,17.551 -24.491,17.787 -25.413,18.024 -25.584,18.045 -25.756,18.045 -25.927,18.024 -26.849,17.787 -27.206,17.523 -27.399,17.364 -27.632,17.127 -27.723,16.988 -27.969,16.444 -28.090,16.176 -28.691,14.842 -29.415,13.235 -32.777,5.773"/>
<polygon class="node-35" points="-2.232,-15.066 -2.217,-15.317 -2.170,-15.563 -2.092,-15.802 -1.985,-16.030 -1.851,-16.242 -1.690,-16.435 -1.507,-16.607 -1.304,-16.755 -1.084,-16.876 -0.851,-16.968 -0.607,-17.031 -0.358,-17.062 -0.107,-17.062 0.142,-17.031 1.020,-16.844 1.479,-16.746 1.843,-16.669 5.269,-15.939 5.607,-15.867 5.696,-15.846 5.744,-15.825 5.808,-15.736 5.917,-15.244 5.986,-13.865 5.954,-13.274 5.823,-12.340 5.693,-11.982 5.544,-11.911 5.295,-11.900 5.093,-11.914 4.802,-11.949 4.431,-12.028 1.002,-12.758 0.656,-12.832 0.170,-12.935 -0.159,-13.006 -0.388,-13.055 -0.703,-13.124 -0.851,-13.164 -1.084,-13.256 -1.304,-13.377 -1.507,-13.525 -1.690,-13.697 -1.851,-13.890 -1.985,-14.102 -2.092,-14.330 -2.170,-14.569 -2.217,-14.815"/>
<polygon class="node-36" points="43.847,20.931 44.043,20.331 44.313,19.854 44.757,19.265 44.847,19.174 45.204,19.034 45.480,18.951 55.918,15.868 56.111,15.821 56.360,15.790 56.612,15.790 56.861,15.821 57.104,15.884 57.338,15.976 57.558,16.097 57.761,16.245 57.944,16.417 58.104,16.610 58.239,16.822 58.346,17.050 58.423,17.289 58.470,17.535 58.486,17.786 58.470,18.037 58.423,18.283 58.346,18.522 58.239,18.750 58.104,18.962 57.944,19.155 57.761,19.327 57.558,19.475 57.338,19.596 57.104,19.688 57.054,19.704 46.606,22.789 46.407,22.846 46.295,22.873 46.174,22.870 45.703,22.856 45.005,22.498 44.026,21.656 43.952,21.416 43.892,21.173"/>
<polygon class="node-37" points="11.508,-15.438 11.554,-16.470 11.707,-16.830 11.774,-16.893 12.003,-16.952 12.508,-17.042 16.425,-17.732 17.604,-17.939 17.986,-18.007 18.245,-18.052 18.604,-18.103 18.856,-18.103 19.105,-18.072 19.337,-17.975 19.749,-17.713 19.884,-17.501 20.080,-16.849 20.086,-16.644 20.003,-15.603 19.838,-15.302 19.659,-14.984 19.556,-14.806 19.058,-14.385 18.611,-14.069 18.582,-14.052 18.289,-13.999 17.119,-13.792 13.204,-13.102 12.558,-12.989 12.040,-13.431 11.797,-13.998 11.665,-14.457 11.611,-14.700 11.566,-14.947 11.532,-15.194"/>
<polygon class="node-38" points="-50.727,-2.697 -50.711,-2.948 -50.664,-3.194 -50.586,-3.433 -50.479,-3.661 -50.345,-3.873 -50.184,-4.066 -50.001,-4.238 -49.798,-4.386 -49.578,-4.507 -49.345,-4.599 -49.101,-4.662 -48.852,-4.693 -48.601,-4.693 -48.352,-4.662 -48.108,-4.599 -47.875,-4.507 -47.655,-4.386 -47.452,-4.238 -47.269,-4.066 -47.108,-3.873 -46.979,-3.670 -46.888,-3.509 -46.844,-3.433 -45.532,-1.126 -45.430,-0.947 -45.008,-0.203 -44.943,-0.069 -44.907,0.080 -44.899,0.240 -44.921,0.409 -44.983,0.814 -45.167,1.267 -45.383,1.772 -45.896,2.487 -46.210,2.737 -46.440,2.815 -47.224,2.663 -47.639,2.472 -47.991,2.299 -48.298,2.042 -48.459,1.817 -48.912,1.022 -49.005,0.859 -50.317,-1.448 -50.371,-1.543 -50.479,-1.733 -50.586,-1.961 -50.664,-2.200 -50.711,-2.446"/>
<polygon class="node-39" points="-19.807,-19.602 -19.214,-19.981 -18.657,-20.128 -18.523,-20.162 -18.152,-20.128 -17.878,-20.088 -17.567,-20.043 -17.331,-20.008 -16.804,-19.930 -5.851,-18.304 -5.767,-18.290 -5.524,-18.227 -5.290,-18.135 -5.070,-18.014 -4.867,-17.866 -4.684,-17.694 -4.524,-17.501 -4.389,-17.289 -4.282,-17.061 -4.205,-16.822 -4.158,-16.576 -4.142,-16.325 -4.158,-16.074 -4.205,-15.828 -4.282,-15.589 -4.389,-15.361 -4.524,-15.149 -4.684,-14.956 -4.867,-14.784 -5.070,-14.636 -5.290,-14.515 -5.524,-14.423 -5.767,-14.360 -6.016,-14.329 -6.268,-14.329 -6.433,-14.346 -17.386,-15.973 -17.902,-16.049 -18.028,-16.082 -18.638,-17.083 -18.944,-17.632 -19.187,-18.070 -19.559,-18.894"/>
<polygon class="node-40" points="-29.937,-2.532 -29.913,-2.981 -29.885,-3.102 -29.829,-3.209 -29.698,-3.414 -29.428,-3.834 -28.600,-5.123 -28.186,-5.769 -27.289,-7.165 -26.805,-7.919 -26.528,-8.350 -26.399,-8.545 -26.239,-8.738 -26.056,-8.910 -25.853,-9.058 -25.633,-9.179 -25.399,-9.271 -25.156,-9.334 -24.907,-9.365 -24.655,-9.365 -24.406,-9.334 -24.163,-9.271 -23.929,-9.179 -23.709,-9.058 -23.506,-8.910 -23.323,-8.738 -23.163,-8.545 -23.028,-8.333 -22.921,-8.105 -22.844,-7.866 -22.797,-7.620 -22.781,-7.369 -22.781,-7.369 -22.797,-7.118 -22.844,-6.872 -22.921,-6.633 -23.028,-6.405 -23.172,-6.174 -23.446,-5.746 -23.926,-4.999 -24.821,-3.605 -25.234,-2.963 -26.060,-1.677 -26.341,-1.239 -26.485,-1.015 -26.698,-0.774 -27.126,-0.768 -27.313,-0.780 -27.513,-0.814 -27.723,-0.868 -27.940,-0.942 -28.161,-1.034 -29.193,-1.543 -29.666,-2.040 -29.872,-2.373"/>
<polygon class="node-41" points="-26.513,-8.372 -26.453,-8.490 -25.885,-9.596 -25.778,-9.803 -25.102,-11.118 -23.983,-13.294 -23.875,-13.505 -23.781,-13.676 -23.700,-13.758 -23.593,-13.824 -23.462,-13.871 -23.002,-14.019 -21.918,-13.758 -21.467,-13.541 -21.048,-13.279 -20.859,-13.136 -20.408,-12.686 -20.228,-12.392 -20.179,-12.254 -20.166,-12.006 -20.240,-11.833 -20.311,-11.689 -20.427,-11.464 -21.548,-9.284 -22.216,-7.985 -22.333,-7.756 -22.885,-6.684 -23.028,-6.405 -23.192,-6.214 -23.425,-6.096 -23.705,-6.068 -24.198,-6.130 -24.561,-6.214 -24.962,-6.423 -25.483,-6.709 -25.920,-7.077 -26.310,-7.562 -26.417,-7.789 -26.510,-8.054"/>
<polygon class="node-42" points="48.720,-6.903 48.748,-7.056 48.908,-7.769 49.144,-8.811 49.546,-10.586 49.662,-11.099 49.700,-11.265 49.778,-11.504 49.885,-11.731 50.019,-11.943 50.180,-12.137 50.363,-12.309 50.566,-12.456 50.786,-12.577 51.019,-12.670 51.263,-12.732 51.512,-12.764 51.763,-12.764 52.012,-12.732 52.256,-12.670 52.489,-12.577 52.709,-12.456 52.912,-12.309 53.095,-12.137 53.256,-11.943 53.390,-11.731 53.497,-11.504 53.575,-11.265 53.622,-11.018 53.638,-10.768 53.622,-10.517 53.582,-10.309 53.566,-10.228 53.446,-9.698 53.045,-7.929 52.809,-6.887 52.452,-5.314 52.390,-5.060 52.302,-4.826 52.210,-4.592 52.072,-4.383 51.915,-4.187 51.732,-4.015 51.529,-3.867 51.307,-3.750 51.064,-3.688 50.554,-4.018 49.155,-5.908 48.799,-6.553"/>
<polygon class="node-43" points="-27.399,17.364 -27.368,17.115 -25.243,14.843 -25.045,14.645 -24.769,14.402 -24.558,14.343 -24.210,14.257 -19.620,13.120 -18.032,12.727 -17.684,12.641 -17.335,12.555 -17.219,12.529 -16.970,12.497 -16.719,12.497 -16.470,12.529 -16.226,12.591 -15.993,12.684 -15.773,12.805 -15.570,12.952 -15.387,13.124 -15.226,13.318 -15.092,13.530 -14.985,13.757 -14.907,13.996 -14.860,14.243 -14.845,14.493 -14.860,14.744 -14.907,14.991 -14.985,15.230 -15.092,15.457 -15.226,15.669 -15.387,15.863 -15.570,16.035 -15.773,16.182 -15.993,16.303 -16.226,16.396 -16.354,16.432 -16.711,16.521 -17.069,16.610 -18.658,17.003 -23.247,18.139 -23.605,18.228 -24.154,18.361 -24.389,18.390 -24.859,18.379 -26.849,17.787 -27.206,17.523"/>
<polygon class="node-44" points="49.687,-11.209 50.159,-13.294 50.773,-16.004 50.844,-16.316 50.881,-16.476 50.958,-16.715 51.065,-16.943 51.200,-17.155 51.360,-17.348 51.543,-17.520 51.746,-17.668 51.966,-17.789 52.200,-17.881 52.443,-17.944 52.692,-17.975 52.944,-17.975 53.193,-17.944 53.436,-17.881 53.670,-17.789 53.890,-17.668 54.093,-17.520 54.276,-17.348 54.436,-17.155 54.571,-16.943 54.678,-16.715 54.755,-16.476 54.802,-16.230 54.818,-15.979 54.802,-15.728 54.770,-15.550 54.745,-15.433 54.674,-15.121 54.060,-12.410 53.588,-10.326 53.563,-10.285 53.507,-10.253 53.309,-10.212 53.006,-10.206 51.195,-10.506 50.736,-10.639 50.162,-10.850 50.014,-10.919 49.692,-11.162"/>
<polygon class="node-45" points="-7.180,-16.058 -7.081,-16.841 -6.763,-17.644 -6.458,-17.984 -6.252,-18.074 -5.784,-18.269 -5.640,-18.262 -5.489,-18.231 -2.062,-17.501 -1.021,-17.278 -0.611,-17.191 -0.330,-17.130 -0.120,-17.085 0.012,-17.055 0.141,-17.027 0.423,-16.919 0.649,-16.695 0.820,-16.368 0.881,-16.172 0.956,-15.494 0.913,-15.003 0.716,-14.282 0.508,-13.857 0.386,-13.672 -0.329,-13.120 -0.477,-13.096 -0.621,-13.104 -2.894,-13.588 -6.322,-14.318 -6.407,-14.338 -6.458,-14.364 -6.701,-14.604"/>
<polygon class="node-46" points="49.424,-4.399 49.552,-5.049 49.696,-5.223 49.856,-5.400 50.427,-5.586 51.103,-5.794 52.015,-6.043 52.665,-6.094 53.197,-5.504 54.091,-4.514 56.952,-1.343 59.459,1.436 60.884,3.016 61.023,3.186 61.158,3.398 61.265,3.626 61.342,3.865 61.389,4.111 61.405,4.362 61.405,4.362 61.389,4.613 61.342,4.859 61.265,5.098 61.158,5.326 61.023,5.538 60.863,5.731 60.680,5.903 60.477,6.051 60.257,6.172 60.023,6.264 59.780,6.327 59.531,6.358 59.279,6.358 59.030,6.327 58.787,6.264 58.553,6.172 58.333,6.051 58.130,5.903 57.947,5.731 57.926,5.708 56.488,4.114 53.984,1.339 51.118,-1.838 50.222,-2.831 49.681,-3.431 49.648,-3.498 49.473,-3.883"/>
<polygon class="node-47" points="55.451,19.133 55.454,18.719 55.581,16.360 55.676,16.065 55.879,15.918 56.360,15.790 56.612,15.790 57.099,15.899 57.336,15.980 57.558,16.097 57.761,16.245 57.944,16.417 58.040,16.523 59.087,17.684 59.989,18.684 61.172,19.996 61.241,20.071 61.395,20.243 61.437,20.292 61.587,20.471 61.721,20.683 61.828,20.911 61.906,21.150 61.953,21.396 61.969,21.647 61.953,21.898 61.906,22.144 61.828,22.383 61.721,22.611 61.587,22.823 61.426,23.016 61.243,23.188 61.040,23.336 60.820,23.457 60.587,23.549 60.343,23.612 60.094,23.643 59.843,23.643 59.594,23.612 59.350,23.549 59.117,23.457 58.897,23.336 58.694,23.188 58.511,23.016 58.279,22.759 58.208,22.681 57.023,21.367 56.114,20.360 55.823,20.035 55.748,19.950 55.672,19.861 55.579,19.689 55.515,19.521"/>
<polygon class="node-48" points="17.045,-16.581 17.050,-16.815 17.085,-17.043 17.137,-17.260 17.237,-17.466 17.334,-17.618 17.389,-17.700 17.405,-17.725 18.472,-19.323 18.546,-19.432 18.567,-19.459 18.706,-19.625 18.889,-19.797 19.092,-19.945 19.312,-20.066 19.546,-20.158 19.789,-20.221 20.038,-20.252 20.290,-20.252 20.539,-20.221 20.782,-20.158 21.016,-20.066 21.236,-19.945 21.439,-19.797 21.622,-19.625 21.782,-19.432 21.917,-19.220 22.024,-18.992 22.101,-18.753 22.148,-18.507 22.164,-18.256 22.148,-18.005 22.101,-17.759 22.024,-17.520 21.917,-17.292 21.888,-17.243 21.799,-17.103 20.743,-15.520 20.702,-15.460 20.610,-15.323 20.513,-15.186 20.359,-15.018 20.249,-14.903 19.935,-14.667 19.799,-14.571 19.519,-14.435 19.187,-14.332 18.942,-14.276 18.697,-14.290 18.458,-14.382 18.319,-14.475 18.148,-14.597 17.851,-14.823 17.524,-15.241 17.274,-15.665 17.127,-16.113 17.071,-16.345"/>
<polygon class="node-49" points="54.764,16.298 54.881,15.754 55.057,14.946 55.582,12.528 57.100,5.549 57.223,4.995 57.260,4.959 60.851,3.004 61.010,3.196 61.158,3.398 61.327,3.869 61.374,4.113 61.401,4.362 61.361,4.773 61.009,6.397 59.491,13.378 58.966,15.794 58.791,16.596 58.675,17.126 58.658,17.167 58.155,17.360 57.756,17.494 55.983,17.739 55.752,17.675 55.534,17.609 55.332,17.541 55.050,17.138 54.842,16.728"/>
<polygon class="node-50" points="-53.157,-6.970 -53.141,-7.221 -53.094,-7.467 -53.017,-7.706 -52.910,-7.934 -52.775,-8.146 -52.615,-8.339 -52.432,-8.511 -52.229,-8.659 -52.009,-8.780 -51.775,-8.872 -51.532,-8.935 -51.283,-8.966 -51.031,-8.966 -50.782,-8.935 -50.539,-8.872 -50.305,-8.780 -50.085,-8.659 -49.882,-8.511 -49.699,-8.339 -49.539,-8.146 -49.452,-8.012 -49.333,-7.808 -49.081,-7.365 -48.543,-6.420 -47.815,-5.139 -47.475,-4.541 -47.030,-3.760 -46.913,-3.492 -46.901,-3.172 -46.938,-2.999 -47.003,-2.822 -47.096,-2.642 -47.356,-2.288 -47.703,-1.961 -48.336,-1.561 -49.248,-1.283 -49.669,-1.275 -50.311,-1.520 -50.435,-1.682 -50.520,-1.805 -50.951,-2.562 -51.291,-3.160 -52.021,-4.443 -52.552,-5.378 -52.910,-6.006 -53.017,-6.234 -53.094,-6.473 -53.141,-6.719"/>
<polygon class="node-51" points="-17.464,12.810 -17.439,12.701 -17.362,12.570 -17.311,12.550 -17.156,12.511 -14.852,11.940 -11.854,11.197 -8.502,10.367 -8.394,10.343 -8.145,10.312 -7.893,10.312 -7.644,10.343 -7.401,10.406 -7.167,10.498 -6.947,10.619 -6.744,10.767 -6.561,10.939 -6.401,11.132 -6.266,11.344 -6.159,11.572 -6.082,11.811 -6.035,12.057 -6.019,12.308 -6.035,12.559 -6.082,12.805 -6.159,13.044 -6.266,13.272 -6.401,13.484 -6.561,13.677 -6.744,13.849 -6.947,13.997 -7.167,14.118 -7.401,14.210 -7.536,14.249 -10.891,15.080 -13.895,15.824 -16.180,16.389 -16.436,16.427 -16.571,16.316 -16.723,16.090 -17.115,15.133 -17.185,14.898"/>
<polygon class="node-52" points="-26.510,-8.054 -26.479,-8.302 -26.285,-8.462 -24.050,-8.965 -23.585,-9.003 -23.247,-9.002 -23.061,-8.965 -22.858,-8.917 -22.618,-8.851 -20.635,-8.309 -19.468,-7.990 -18.893,-7.833 -18.393,-7.696 -18.322,-7.675 -18.089,-7.583 -17.869,-7.462 -17.666,-7.314 -17.483,-7.142 -17.322,-6.949 -17.188,-6.737 -17.081,-6.509 -17.003,-6.270 -16.956,-6.024 -16.941,-5.773 -16.941,-5.773 -16.956,-5.522 -17.003,-5.276 -17.081,-5.037 -17.188,-4.809 -17.322,-4.597 -17.483,-4.404 -17.666,-4.232 -17.869,-4.084 -18.089,-3.963 -18.322,-3.871 -18.566,-3.808 -18.815,-3.777 -19.066,-3.777 -19.315,-3.808 -19.488,-3.850 -19.923,-3.968 -20.516,-4.130 -21.684,-4.449 -23.673,-4.993 -23.900,-5.055 -24.389,-5.189 -24.520,-5.245 -24.725,-5.335 -25.051,-5.605 -25.271,-5.844 -25.467,-6.137 -25.752,-6.579 -26.417,-7.789"/>
<polygon class="node-53" points="58.488,22.991 58.507,22.864 58.614,22.343 58.715,22.185 58.836,22.018 59.128,21.669 59.296,21.492 59.660,21.149 60.044,20.838 60.235,20.700 60.773,20.384 60.930,20.316 61.073,20.270 61.197,20.245 61.387,20.262 61.449,20.303 62.081,21.003 64.240,23.397 64.651,23.853 64.720,23.929 64.952,24.189 65.069,24.332 65.204,24.544 65.311,24.772 65.388,25.011 65.435,25.257 65.451,25.508 65.435,25.759 65.388,26.005 65.311,26.244 65.204,26.472 65.069,26.684 64.909,26.877 64.726,27.049 64.523,27.197 64.303,27.318 64.069,27.410 63.826,27.473 63.577,27.504 63.325,27.504 63.076,27.473 62.833,27.410 62.599,27.318 62.379,27.197 62.176,27.049 61.993,26.877 61.269,26.075 59.110,23.681"/>
<polygon class="node-54" points="58.541,4.328 58.595,4.112 58.815,3.466 59.019,3.035 59.141,2.837 59.311,2.567 59.544,2.313 59.790,2.169 59.957,2.114 60.508,1.951 63.459,1.079 63.649,1.033 63.898,1.002 64.149,1.002 64.398,1.033 64.642,1.096 64.875,1.188 65.095,1.309 65.298,1.457 65.481,1.629 65.642,1.822 65.776,2.034 65.883,2.262 65.961,2.501 66.008,2.747 66.023,2.998 66.023,2.998 66.008,3.249 65.961,3.495 65.883,3.734 65.776,3.962 65.642,4.174 65.481,4.367 65.298,4.539 65.095,4.687 64.875,4.808 64.642,4.900 64.588,4.917 61.627,5.791 61.070,5.955 60.941,5.991 60.823,5.996 60.698,5.971 60.422,5.911 59.889,5.651 59.659,5.498 59.457,5.355 58.603,4.570"/>
<polygon class="node-55" points="-12.559,4.066 -12.544,3.815 -12.497,3.568 -12.419,3.329 -12.312,3.102 -12.178,2.890 -12.017,2.696 -11.834,2.524 -11.631,2.377 -11.411,2.256 -11.178,2.163 -10.934,2.101 -10.685,2.069 -10.434,2.069 -10.185,2.101 -9.941,2.163 -9.708,2.256 -9.488,2.377 -9.285,2.524 -9.102,2.696 -8.941,2.890 -8.807,3.102 -8.700,3.329 -8.650,3.472 -8.394,4.300 -6.260,11.225 -6.207,11.399 -6.164,11.537 -6.086,11.812 -6.039,12.058 -6.023,12.308 -6.035,12.559 -6.163,13.043 -6.280,13.264 -6.401,13.484 -6.564,13.674 -6.754,13.837 -6.947,13.997 -7.167,14.118 -7.406,14.195 -7.663,14.176 -9.971,11.821 -10.159,11.616 -10.383,11.342 -10.478,11.113 -10.537,10.928 -10.945,9.603 -11.607,7.456 -12.217,5.479 -12.469,4.659 -12.497,4.563 -12.544,4.316"/>
<polygon class="node-56" points="-7.940,-17.459 -7.907,-17.708 -7.793,-18.284 -7.303,-20.763 -7.275,-20.897 -7.263,-20.952 -7.185,-21.191 -7.078,-21.419 -6.944,-21.631 -6.783,-21.824 -6.600,-21.996 -6.397,-22.144 -6.177,-22.265 -5.944,-22.357 -5.700,-22.420 -5.451,-22.451 -5.200,-22.451 -4.951,-22.420 -4.707,-22.357 -4.474,-22.265 -4.254,-22.144 -4.051,-21.996 -3.868,-21.824 -3.707,-21.631 -3.573,-21.419 -3.466,-21.191 -3.388,-20.952 -3.341,-20.706 -3.325,-20.455 -3.341,-20.204 -3.380,-19.982 -4.000,-16.847 -4.078,-16.576 -4.212,-16.303 -4.310,-16.130 -4.567,-15.789 -4.983,-15.372 -5.521,-15.006 -6.256,-14.519 -6.505,-14.422 -6.701,-14.604 -7.370,-15.636 -7.638,-16.137 -7.872,-16.760 -7.907,-17.084"/>
<polygon class="node-57" points="-34.193,22.224 -34.177,21.973 -34.130,21.727 -34.053,21.488 -33.946,21.260 -33.811,21.048 -33.651,20.855 -33.519,20.727 -33.218,20.470 -31.925,19.371 -27.733,15.808 -27.659,15.746 -27.495,15.617 -27.313,15.513 -26.983,15.325 -26.773,15.277 -26.553,15.258 -25.852,15.229 -25.628,15.312 -25.055,15.908 -24.648,16.849 -24.575,17.081 -24.530,17.315 -24.512,17.548 -24.500,18.093 -24.655,18.430 -24.809,18.571 -25.173,18.881 -29.330,22.416 -30.647,23.534 -30.918,23.765 -31.032,23.849 -31.121,23.913 -31.341,24.034 -31.575,24.126 -31.818,24.189 -32.067,24.220 -32.319,24.220 -32.568,24.189 -32.811,24.126 -33.045,24.034 -33.265,23.913 -33.468,23.765 -33.651,23.593 -33.811,23.400 -33.946,23.188 -34.053,22.960 -34.130,22.721 -34.177,22.475"/>
<polygon class="node-58" points="-15.100,-4.177 -15.084,-4.428 -15.037,-4.674 -14.960,-4.913 -14.853,-5.141 -14.136,-6.392 -11.913,-10.273 -8.991,-15.375 -8.720,-15.848 -8.505,-16.189 -8.186,-16.532 -7.877,-16.811 -4.794,-15.480 -4.777,-14.805 -4.954,-14.376 -5.105,-14.112 -5.519,-13.388 -8.442,-8.285 -10.672,-4.392 -11.214,-3.448 -11.391,-3.144 -11.482,-3.001 -11.642,-2.808 -11.825,-2.636 -12.028,-2.488 -12.248,-2.367 -12.482,-2.275 -12.725,-2.212 -12.974,-2.181 -13.226,-2.181 -13.475,-2.212 -13.718,-2.275 -13.952,-2.367 -14.172,-2.488 -14.375,-2.636 -14.558,-2.808 -14.718,-3.001 -14.853,-3.213 -14.960,-3.441 -15.037,-3.680 -15.084,-3.926"/>
<polygon class="node-59" points="62.983,2.459 62.998,1.812 63.089,1.469 63.333,1.139 63.438,1.086 63.561,1.049 64.749,0.698 66.782,0.098 67.887,-0.229 68.071,-0.283 68.267,-0.331 68.516,-0.362 68.768,-0.362 69.017,-0.331 69.260,-0.268 69.494,-0.176 69.714,-0.055 69.917,0.093 70.100,0.265 70.260,0.458 70.395,0.670 70.502,0.898 70.579,1.137 70.626,1.383 70.642,1.634 70.642,1.634 70.626,1.885 70.579,2.131 70.502,2.370 70.395,2.598 70.260,2.810 70.100,3.003 69.917,3.175 69.714,3.323 69.494,3.444 69.260,3.536 69.213,3.551 69.027,3.606 67.915,3.934 65.884,4.534 64.671,4.892 64.609,4.910 64.495,4.933 64.116,4.820 63.984,4.723 63.852,4.600 63.724,4.451 63.600,4.279 63.482,4.087 63.188,3.421 63.115,3.181 63.055,2.938"/>
<polygon class="node-60" points="-20.144,-5.032 -19.792,-6.692 -19.552,-7.091 -19.417,-7.261 -18.974,-7.622 -18.673,-7.719 -18.390,-7.689 -18.252,-7.657 -18.211,-7.646 -18.061,-7.606 -15.610,-6.936 -14.078,-6.517 -13.915,-6.383 -12.062,-4.444 -11.607,-3.794 -11.361,-3.221 -11.642,-2.808 -11.825,-2.636 -12.255,-2.382 -12.975,-2.197 -13.571,-2.257 -13.713,-2.272 -14.323,-2.438 -16.664,-3.078 -19.120,-3.749 -19.493,-3.851 -19.743,-3.996 -19.850,-4.112 -19.942,-4.253 -20.121,-4.811"/>
<polygon class="node-61" points="18.223,-18.537 18.291,-18.855 18.357,-19.075 18.452,-19.282 18.595,-19.508 18.676,-19.629 19.615,-21.036 19.711,-21.180 19.809,-21.327 19.910,-21.478 19.980,-21.581 20.045,-21.662 20.140,-21.774 20.323,-21.946 20.526,-22.094 20.746,-22.215 20.980,-22.307 21.223,-22.370 21.472,-22.401 21.724,-22.401 21.973,-22.370 22.216,-22.307 22.450,-22.215 22.670,-22.094 22.873,-21.946 23.056,-21.774 23.216,-21.581 23.351,-21.369 23.458,-21.141 23.535,-20.902 23.582,-20.656 23.598,-20.405 23.582,-20.154 23.535,-19.908 23.458,-19.669 23.351,-19.441 23.286,-19.332 23.158,-19.139 23.026,-18.942 22.950,-18.828 21.996,-17.399 21.905,-17.262 21.810,-17.124 21.662,-16.950 21.498,-16.783 21.104,-16.541 20.867,-16.490 20.633,-16.443 20.168,-16.390 19.452,-16.581 19.014,-16.917 18.829,-17.086 18.666,-17.275 18.527,-17.479 18.415,-17.697 18.330,-17.924 18.275,-18.157"/>
<polygon class="node-62" points="-14.665,-2.525 -14.630,-2.748 -14.138,-4.444 -13.967,-4.807 -13.783,-5.003 -13.674,-5.082 -13.047,-5.027 -12.940,-5.013 -10.925,-3.884 -10.889,-3.791 -10.831,-3.607 -10.222,-1.630 -9.258,1.498 -8.647,3.480 -8.713,3.757 -8.902,3.968 -9.576,4.396 -9.791,4.494 -10.017,4.585 -10.253,4.668 -10.493,4.742 -11.204,4.895 -11.426,4.921 -11.997,4.916 -12.433,4.727 -12.472,4.651 -13.081,2.676 -14.047,-0.459 -14.657,-2.440"/>
<polygon class="node-63" points="-7.283,-20.685 -7.283,-20.848 -7.228,-21.136 -7.172,-21.427 -7.010,-22.246 -6.487,-24.891 -6.446,-25.082 -6.369,-25.321 -6.262,-25.549 -6.127,-25.761 -5.967,-25.954 -5.784,-26.126 -5.581,-26.274 -5.361,-26.395 -5.127,-26.487 -4.884,-26.550 -4.635,-26.581 -4.383,-26.581 -4.134,-26.550 -3.891,-26.487 -3.657,-26.395 -3.437,-26.274 -3.234,-26.126 -3.051,-25.954 -2.891,-25.761 -2.756,-25.549 -2.649,-25.321 -2.572,-25.082 -2.525,-24.836 -2.509,-24.585 -2.525,-24.334 -2.537,-24.263 -2.563,-24.114 -3.086,-21.472 -3.250,-20.640 -3.325,-20.270 -3.382,-19.992 -3.653,-19.571 -3.968,-19.356 -4.159,-19.274 -5.073,-19.140 -5.321,-19.158 -5.813,-19.254 -6.274,-19.426 -6.484,-19.537 -6.676,-19.662 -6.993,-19.949 -7.191,-20.355 -7.253,-20.520"/>
<polygon class="node-64" points="-44.446,25.572 -44.430,25.321 -44.383,25.075 -44.306,24.836 -44.199,24.608 -44.064,24.396 -43.904,24.203 -43.721,24.031 -43.518,23.883 -43.298,23.762 -43.062,23.669 -42.960,23.636 -42.654,23.536 -41.631,23.202 -40.196,22.733 -37.938,21.996 -37.694,21.933 -37.445,21.902 -37.194,21.902 -36.945,21.933 -36.701,21.996 -36.468,22.088 -36.248,22.209 -36.045,22.357 -35.862,22.529 -35.701,22.722 -35.567,22.934 -35.460,23.162 -35.382,23.401 -35.335,23.647 -35.320,23.898 -35.335,24.149 -35.382,24.395 -35.460,24.634 -35.567,24.862 -35.701,25.074 -35.862,25.267 -36.045,25.439 -36.248,25.587 -36.468,25.708 -36.715,25.802 -37.015,25.902 -37.315,26.000 -38.954,26.536 -41.828,27.474 -42.071,27.537 -42.320,27.568 -42.572,27.568 -42.821,27.537 -43.064,27.474 -43.298,27.382 -43.518,27.261 -43.721,27.113 -43.904,26.941 -44.064,26.748 -44.199,26.536 -44.306,26.308 -44.383,26.069 -44.430,25.823"/>
<polygon class="node-65" points="-38.024,22.296 -37.898,21.997 -37.838,21.963 -36.198,21.428 -34.968,21.026 -33.632,20.590 -33.331,20.492 -33.134,20.429 -33.048,20.409 -32.083,20.475 -31.070,21.169 -30.689,21.628 -30.518,22.012 -30.440,22.224 -30.464,22.909 -30.495,23.157 -30.626,23.363 -30.918,23.765 -31.341,24.034 -31.692,24.162 -31.788,24.195 -32.081,24.291 -32.394,24.394 -33.724,24.828 -34.955,25.230 -36.596,25.766 -36.741,25.799 -36.930,25.626 -37.088,25.373 -37.174,25.210 -37.261,25.027 -37.607,24.148 -37.824,23.435 -37.882,23.208 -37.999,22.603"/>
<polygon class="node-66" points="-16.133,-4.514 -16.118,-4.765 -16.071,-5.012 -15.993,-5.251 -15.886,-5.478 -15.752,-5.690 -15.591,-5.884 -15.408,-6.056 -15.205,-6.203 -14.985,-6.324 -14.752,-6.417 -14.508,-6.479 -14.259,-6.511 -14.008,-6.511 -13.910,-6.500 -13.759,-6.479 -13.667,-6.459 -13.515,-6.417 -13.137,-6.293 -13.024,-6.256 -12.679,-6.143 -12.639,-6.127 -12.453,-6.046 -12.241,-5.920 -12.008,-5.745 -11.836,-5.568 -11.695,-5.404 -11.507,-5.105 -11.320,-4.642 -11.260,-4.265 -11.245,-4.085 -11.279,-3.836 -11.459,-3.415 -11.567,-3.248 -11.903,-2.866 -12.146,-2.671 -12.352,-2.531 -12.571,-2.434 -12.804,-2.347 -13.044,-2.290 -13.290,-2.264 -13.540,-2.264 -13.783,-2.304 -13.951,-2.351 -14.251,-2.449 -14.386,-2.493 -14.730,-2.605 -14.836,-2.642 -14.985,-2.705 -15.060,-2.743 -15.205,-2.826 -15.270,-2.873 -15.408,-2.973 -15.591,-3.145 -15.752,-3.339 -15.886,-3.551 -15.993,-3.778 -16.071,-4.017 -16.118,-4.264"/>
<polygon class="node-67" points="-33.214,24.236 -33.208,23.933 -33.201,23.729 -32.814,20.905 -32.735,20.557 -32.303,20.475 -32.083,20.475 -30.910,21.095 -30.503,21.370 -30.258,21.597 -30.139,21.739 -30.016,21.930 -29.788,22.292 -29.462,22.810 -28.311,24.640 -27.873,25.337 -27.749,25.538 -27.706,25.609 -27.599,25.836 -27.521,26.075 -27.474,26.322 -27.459,26.572 -27.474,26.823 -27.521,27.070 -27.599,27.309 -27.706,27.536 -27.840,27.748 -28.001,27.942 -28.184,28.114 -28.387,28.261 -28.607,28.382 -28.840,28.475 -29.084,28.537 -29.333,28.569 -29.584,28.569 -29.833,28.537 -30.077,28.475 -30.310,28.382 -30.530,28.261 -30.733,28.114 -30.916,27.942 -31.077,27.748 -31.263,27.460 -31.699,26.766 -32.846,24.943 -33.103,24.530 -33.146,24.453"/>
<polygon class="node-68" points="-34.424,18.492 -34.408,18.242 -34.361,17.995 -34.284,17.756 -34.177,17.529 -34.042,17.317 -33.882,17.123 -33.699,16.951 -33.496,16.804 -33.276,16.683 -33.042,16.590 -32.799,16.528 -32.550,16.496 -32.298,16.496 -32.049,16.528 -31.806,16.590 -31.572,16.683 -31.352,16.804 -31.149,16.951 -30.966,17.123 -30.806,17.317 -30.671,17.529 -30.564,17.756 -30.487,17.995 -30.440,18.242 -30.426,18.427 -30.418,18.537 -30.410,18.663 -30.345,19.709 -30.298,20.462 -30.233,21.512 -30.227,21.658 -30.239,21.695 -30.399,21.912 -30.539,22.037 -30.827,22.238 -31.677,22.639 -32.404,22.866 -32.840,22.964 -33.008,22.997 -33.233,22.921 -33.724,22.429 -33.913,22.186 -34.025,21.981 -34.134,21.736 -34.205,21.562 -34.246,21.382 -34.260,21.186 -34.287,20.769 -34.291,20.702 -34.337,19.962 -34.401,18.919 -34.412,18.746 -34.422,18.558"/>
<polygon class="node-69" points="-31.167,27.334 -30.938,26.930 -30.813,26.781 -30.501,26.476 -29.488,25.780 -29.056,25.575 -28.463,25.388 -27.969,25.451 -27.858,25.480 -27.772,25.528 -27.712,25.593 -27.437,26.030 -25.250,29.508 -25.140,29.683 -24.971,29.957 -24.864,30.185 -24.787,30.424 -24.740,30.670 -24.724,30.921 -24.740,31.172 -24.787,31.418 -24.864,31.657 -24.971,31.885 -25.106,32.097 -25.266,32.290 -25.449,32.462 -25.652,32.610 -25.872,32.731 -26.106,32.823 -26.349,32.886 -26.598,32.917 -26.850,32.917 -27.099,32.886 -27.342,32.823 -27.576,32.731 -27.796,32.610 -27.999,32.462 -28.182,32.290 -28.342,32.097 -28.396,32.014 -28.527,31.811 -28.636,31.638 -30.823,28.159 -31.096,27.725 -31.130,27.643"/>
<polygon class="node-70" points="-17.167,-4.852 -17.151,-5.103 -17.104,-5.349 -17.027,-5.588 -16.920,-5.816 -16.785,-6.028 -16.625,-6.221 -16.442,-6.393 -16.239,-6.541 -16.019,-6.662 -15.785,-6.754 -15.542,-6.817 -15.293,-6.848 -15.041,-6.848 -14.975,-6.841 -14.792,-6.817 -14.731,-6.804 -14.585,-6.765 -14.549,-6.754 -14.403,-6.706 -13.899,-6.542 -13.649,-6.460 -13.563,-6.432 -13.395,-6.371 -13.174,-6.263 -12.905,-6.086 -12.781,-5.965 -12.616,-5.781 -12.475,-5.577 -12.361,-5.356 -12.275,-5.123 -12.218,-4.879 -12.170,-4.568 -12.182,-4.318 -12.224,-4.070 -12.398,-3.600 -12.527,-3.385 -12.666,-3.236 -12.839,-3.055 -13.032,-2.897 -13.271,-2.732 -13.498,-2.633 -13.704,-2.584 -13.981,-2.526 -14.227,-2.520 -14.472,-2.544 -14.681,-2.592 -14.722,-2.604 -14.828,-2.637 -14.907,-2.663 -15.153,-2.744 -15.642,-2.903 -15.712,-2.926 -15.769,-2.945 -15.839,-2.968 -15.939,-3.009 -16.019,-3.042 -16.065,-3.066 -16.239,-3.163 -16.442,-3.311 -16.625,-3.483 -16.785,-3.676 -16.920,-3.888 -17.027,-4.116 -17.104,-4.355 -17.151,-4.601"/>
<polygon class="node-71" points="-34.655,14.761 -34.639,14.510 -34.592,14.264 -34.515,14.025 -34.408,13.797 -34.273,13.585 -34.113,13.392 -33.930,13.220 -33.727,13.072 -33.507,12.951 -33.273,12.859 -33.030,12.796 -32.781,12.765 -32.529,12.765 -32.280,12.796 -32.037,12.859 -31.803,12.951 -31.583,13.072 -31.380,13.220 -31.197,13.392 -31.037,13.585 -30.902,13.797 -30.795,14.025 -30.718,14.264 -30.671,14.510 -30.662,14.595 -30.652,14.755 -30.622,15.240 -30.594,15.681 -30.465,17.776 -30.434,18.277 -30.435,18.460 -30.484,18.788 -30.559,18.965 -30.747,19.160 -30.896,19.313 -31.338,19.690 -31.557,19.786 -31.789,19.862 -32.781,19.943 -33.258,19.846 -33.479,19.766 -33.684,19.665 -33.868,19.545 -34.166,19.259 -34.275,19.097 -34.355,18.925 -34.404,18.746 -34.424,18.559 -34.457,18.015 -34.586,15.930 -34.615,15.476 -34.639,15.066 -34.648,14.927"/>
</svg>