<?xml version="1.0" encoding="UTF-8"?>
<svg xmlns="http://www.w3.org/2000/svg" viewBox="-6520.000 -2749.705 13589.200 6601.011">
<defs>
<style>
.node-0{fill:url(#node-0);}
.node-1{fill:url(#node-1);}
.node-2{fill:url(#node-2);}
.node-3{fill:url(#node-3);}
.node-4{fill:url(#node-4);}
.node-5{fill:url(#node-5);}
.node-6{fill:url(#node-6);}
.node-7{fill:url(#node-7);}
.node-8{fill:url(#node-8);}
.node-9{fill:url(#node-9);}
.node-10{fill:url(#node-10);}
.node-11{fill:url(#node-11);}
.node-12{fill:url(#node-12);}
.node-13{fill:url(#node-13);}
.node-14{fill:url(#node-14);}
.node-15{fill:url(#node-15);}
.node-16{fill:url(#node-16);}
.node-17{fill:url(#node-17);}
.node-18{fill:url(#node-18);}
.node-19{fill:url(#node-19);}
.node-20{fill:url(#node-20);}
.node-21{fill:url(#node-21);}
.node-22{fill:url(#node-22);}
.node-23{fill:url(#node-23);}
.node-24{fill:url(#node-24);}
.node-25{fill:url(#node-25);}
.node-26{fill:url(#node-26);}
.node-27{fill:url(#node-27);}
.node-28{fill:url(#node-28);}
.node-29{fill:url(#node-29);}
.node-30{fill:url(#node-30);}
.node-31{fill:url(#node-31);}
.node-32{fill:url(#node-32);}
.node-33{fill:url(#node-33);}
.node-34{fill:url(#node-34);}
.node-35{fill:url(#node-35);}
.node-36{fill:url(#node-36);}
.node-37{fill:url(#node-37);}
.node-38{fill:url(#node-38);}
.node-39{fill:url(#node-39);}
.node-40{fill:url(#node-40);}
.node-41{fill:url(#node-41);}
.node-42{fill:url(#node-42);}
.node-43{fill:url(#node-43);}
.node-44{fill:url(#node-44);}
.node-45{fill:url(#node-45);}
.node-46{fill:url(#node-46);}
.node-47{fill:url(#node-47);}
.node-48{fill:url(#node-48);}
.node-49{fill:url(#node-49);}
.node-50{fill:url(#node-50);}
.node-51{fill:url(#node-51);}
.node-52{fill:url(#node-52);}
.node-53{fill:url(#node-53);}
.node-54{fill:url(#node-54);}
.node-55{fill:url(#node-55);}
.node-56{fill:url(#node-56);}
.node-57{fill:url(#node-57);}
.node-58{fill:url(#node-58);}
.node-59{fill:url(#node-59);}
.node-60{fill:url(#node-60);}
.node-61{fill:url(#node-61);}
.node-62{fill:url(#node-62);}
.node-63{fill:url(#node-63);}
.node-64{fill:url(#node-64);}
.node-65{fill:url(#node-65);}
.node-66{fill:url(#node-66);}
.node-67{fill:url(#node-67);}
.node-68{fill:url(#node-68);}
.node-69{fill:url(#node-69);}
.node-70{fill:url(#node-70);}
.node-71{fill:url(#node-71);}
</style>
<linearGradient id="node-0" x1="-6991.950" y1="7663.800" x2="-6252.600" y2="7133.700" gradientUnits="userSpaceOnUse" spreadMethod="reflect" gradientTransform="rotate(90)" opacity="1.0"><stop offset="0.00" stop-color="#ffffff"/><stop offset="1.00" stop-color="#bfbfbf"/></linearGradient>
<linearGradient id="node-1" x1="7987.350" y1="-3345.150" x2="7268.700" y2="-2893.800" gradientUnits="userSpaceOnUse" spreadMethod="reflect" gradientTransform="rotate(90)" opacity="1.0"><stop offset="0.00" stop-color="#ffffff"/><stop offset="1.00" stop-color="#bfbfbf"/></linearGradient>
<linearGradient id="node-2" x1="-7731.300" y1="8193.900" x2="-6991.950" y2="7663.800" gradientUnits="userSpaceOnUse" spreadMethod="reflect" gradientTransform="rotate(90)" opacity="1.0"><stop offset="0.00" stop-color="#505050"/><stop offset="1.00" stop-color="#3c3c3c"/></linearGradient>
<linearGradient id="node-3" x1="-9244.800" y1="792.900" x2="-8988.300" y2="577.800" gradientUnits="userSpaceOnUse" spreadMethod="reflect" gradientTransform="rotate(90)" opacity="1.0"><stop offset="0.00" stop-color="#ffffff"/><stop offset="1.00" stop-color="#bfbfbf"/></linearGradient>
<linearGradient id="node-4" x1="8706.000" y1="-3796.500" x2="7987.350" y2="-3345.150" gradientUnits="userSpaceOnUse" spreadMethod="reflect" gradientTransform="rotate(90)" opacity="1.0"><stop offset="0.00" stop-color="#505050"/><stop offset="1.00" stop-color="#3c3c3c"/></linearGradient>
<linearGradient id="node-5" x1="-9266.850" y1="8614.800" x2="-10802.400" y2="9035.700" gradientUnits="userSpaceOnUse" spreadMethod="reflect" gradientTransform="rotate(90)" opacity="1.0"><stop offset="0.00" stop-color="#ffffff"/><stop offset="1.00" stop-color="#bfbfbf"/></linearGradient>
<linearGradient id="node-6" x1="9316.950" y1="3836.850" x2="7932.900" y2="4261.800" gradientUnits="userSpaceOnUse" spreadMethod="reflect" gradientTransform="rotate(90)" opacity="1.0"><stop offset="0.00" stop-color="#ffffff"/><stop offset="1.00" stop-color="#bfbfbf"/></linearGradient>
<linearGradient id="node-7" x1="9520.950" y1="-5181.900" x2="10335.900" y2="-6567.300" gradientUnits="userSpaceOnUse" spreadMethod="reflect" gradientTransform="rotate(90)" opacity="1.0"><stop offset="0.00" stop-color="#ffffff"/><stop offset="1.00" stop-color="#bfbfbf"/></linearGradient>
<linearGradient id="node-8" x1="-7731.300" y1="8193.900" x2="-9266.850" y2="8614.800" gradientUnits="userSpaceOnUse" spreadMethod="reflect" gradientTransform="rotate(90)" opacity="1.0"><stop offset="0.00" stop-color="#505050"/><stop offset="1.00" stop-color="#3c3c3c"/></linearGradient>
<linearGradient id="node-9" x1="1505.400" y1="-3588.000" x2="1307.700" y2="-3033.900" gradientUnits="userSpaceOnUse" spreadMethod="reflect" gradientTransform="rotate(90)" opacity="1.0"><stop offset="0.00" stop-color="#ffffff"/><stop offset="1.00" stop-color="#bfbfbf"/></linearGradient>
<linearGradient id="node-10" x1="8706.000" y1="-3796.500" x2="9520.950" y2="-5181.900" gradientUnits="userSpaceOnUse" spreadMethod="reflect" gradientTransform="rotate(90)" opacity="1.0"><stop offset="0.00" stop-color="#505050"/><stop offset="1.00" stop-color="#3c3c3c"/></linearGradient>
<linearGradient id="node-11" x1="-6852.600" y1="-7635.300" x2="-6303.450" y2="-6556.800" gradientUnits="userSpaceOnUse" spreadMethod="reflect" gradientTransform="rotate(90)" opacity="1.0"><stop offset="0.00" stop-color="#ff0000"/><stop offset="1.00" stop-color="#bf0000"/></linearGradient>
<linearGradient id="node-12" x1="-7731.300" y1="8193.900" x2="-6965.550" y2="9567.000" gradientUnits="userSpaceOnUse" spreadMethod="reflect" gradientTransform="rotate(90)" opacity="1.0"><stop offset="0.00" stop-color="#505050"/><stop offset="1.00" stop-color="#3c3c3c"/></linearGradient>
<linearGradient id="node-13" x1="10701.000" y1="3411.900" x2="9316.950" y2="3836.850" gradientUnits="userSpaceOnUse" spreadMethod="reflect" gradientTransform="rotate(90)" opacity="1.0"><stop offset="0.00" stop-color="#505050"/><stop offset="1.00" stop-color="#3c3c3c"/></linearGradient>
<linearGradient id="node-14" x1="-16055.100" y1="3228.000" x2="-17500.050" y2="3078.300" gradientUnits="userSpaceOnUse" spreadMethod="reflect" gradientTransform="rotate(90)" opacity="1.0"><stop offset="0.00" stop-color="#ff0000"/><stop offset="1.00" stop-color="#bf0000"/></linearGradient>
<linearGradient id="node-15" x1="-6965.550" y1="9567.000" x2="-6199.800" y2="10940.100" gradientUnits="userSpaceOnUse" spreadMethod="reflect" gradientTransform="rotate(90)" opacity="1.0"><stop offset="0.00" stop-color="#ffffff"/><stop offset="1.00" stop-color="#bfbfbf"/></linearGradient>
<linearGradient id="node-16" x1="8706.000" y1="-3796.500" x2="11603.700" y2="-584.700" gradientUnits="userSpaceOnUse" spreadMethod="reflect" gradientTransform="rotate(90)" opacity="1.0"><stop offset="0.00" stop-color="#505050"/><stop offset="1.00" stop-color="#3c3c3c"/></linearGradient>
<linearGradient id="node-17" x1="-17500.050" y1="3078.300" x2="-18945.000" y2="2928.600" gradientUnits="userSpaceOnUse" spreadMethod="reflect" gradientTransform="rotate(90)" opacity="1.0"><stop offset="0.00" stop-color="#ffffff"/><stop offset="1.00" stop-color="#bfbfbf"/></linearGradient>
<linearGradient id="node-18" x1="-9501.300" y1="1008.000" x2="-9244.800" y2="792.900" gradientUnits="userSpaceOnUse" spreadMethod="reflect" gradientTransform="rotate(90)" opacity="1.0"><stop offset="0.00" stop-color="#505050"/><stop offset="1.00" stop-color="#3c3c3c"/></linearGradient>
<linearGradient id="node-19" x1="11603.700" y1="-584.700" x2="10701.000" y2="3411.900" gradientUnits="userSpaceOnUse" spreadMethod="reflect" gradientTransform="rotate(90)" opacity="1.0"><stop offset="0.00" stop-color="#505050"/><stop offset="1.00" stop-color="#3c3c3c"/></linearGradient>
<linearGradient id="node-20" x1="-16055.100" y1="3228.000" x2="-14971.950" y2="1850.400" gradientUnits="userSpaceOnUse" spreadMethod="reflect" gradientTransform="rotate(90)" opacity="1.0"><stop offset="0.00" stop-color="#ff0000"/><stop offset="1.00" stop-color="#bf0000"/></linearGradient>
<linearGradient id="node-21" x1="1703.100" y1="-4142.100" x2="1505.400" y2="-3588.000" gradientUnits="userSpaceOnUse" spreadMethod="reflect" gradientTransform="rotate(90)" opacity="1.0"><stop offset="0.00" stop-color="#0000ff"/><stop offset="1.00" stop-color="#0000bf"/></linearGradient>
<linearGradient id="node-22" x1="10701.000" y1="3411.900" x2="13385.700" y2="6387.000" gradientUnits="userSpaceOnUse" spreadMethod="reflect" gradientTransform="rotate(90)" opacity="1.0"><stop offset="0.00" stop-color="#505050"/><stop offset="1.00" stop-color="#3c3c3c"/></linearGradient>
<linearGradient id="node-23" x1="-6303.450" y1="-6556.800" x2="-5754.300" y2="-5478.300" gradientUnits="userSpaceOnUse" spreadMethod="reflect" gradientTransform="rotate(90)" opacity="1.0"><stop offset="0.00" stop-color="#505050"/><stop offset="1.00" stop-color="#3c3c3c"/></linearGradient>
<linearGradient id="node-24" x1="13044.300" y1="7954.950" x2="12702.900" y2="9522.900" gradientUnits="userSpaceOnUse" spreadMethod="reflect" gradientTransform="rotate(90)" opacity="1.0"><stop offset="0.00" stop-color="#ffffff"/><stop offset="1.00" stop-color="#bfbfbf"/></linearGradient>
<linearGradient id="node-25" x1="-7701.000" y1="5003.700" x2="-7731.300" y2="8193.900" gradientUnits="userSpaceOnUse" spreadMethod="reflect" gradientTransform="rotate(90)" opacity="1.0"><stop offset="0.00" stop-color="#505050"/><stop offset="1.00" stop-color="#3c3c3c"/></linearGradient>
<linearGradient id="node-26" x1="5619.000" y1="-4832.100" x2="8706.000" y2="-3796.500" gradientUnits="userSpaceOnUse" spreadMethod="reflect" gradientTransform="rotate(90)" opacity="1.0"><stop offset="0.00" stop-color="#505050"/><stop offset="1.00" stop-color="#3c3c3c"/></linearGradient>
<linearGradient id="node-27" x1="13385.700" y1="6387.000" x2="13044.300" y2="7954.950" gradientUnits="userSpaceOnUse" spreadMethod="reflect" gradientTransform="rotate(90)" opacity="1.0"><stop offset="0.00" stop-color="#505050"/><stop offset="1.00" stop-color="#3c3c3c"/></linearGradient>
<linearGradient id="node-28" x1="-14971.950" y1="1850.400" x2="-13888.800" y2="472.800" gradientUnits="userSpaceOnUse" spreadMethod="reflect" gradientTransform="rotate(90)" opacity="1.0"><stop offset="0.00" stop-color="#505050"/><stop offset="1.00" stop-color="#3c3c3c"/></linearGradient>
<linearGradient id="node-29" x1="-9501.300" y1="1008.000" x2="-13888.800" y2="472.800" gradientUnits="userSpaceOnUse" spreadMethod="reflect" gradientTransform="rotate(90)" opacity="1.0"><stop offset="0.00" stop-color="#505050"/><stop offset="1.00" stop-color="#3c3c3c"/></linearGradient>
<linearGradient id="node-30" x1="1703.100" y1="-4142.100" x2="3661.050" y2="-4487.100" gradientUnits="userSpaceOnUse" spreadMethod="reflect" gradientTransform="rotate(90)" opacity="1.0"><stop offset="0.00" stop-color="#0000ff"/><stop offset="1.00" stop-color="#0000bf"/></linearGradient>
<linearGradient id="node-31" x1="-8467.800" y1="-601.350" x2="-9501.300" y2="1008.000" gradientUnits="userSpaceOnUse" spreadMethod="reflect" gradientTransform="rotate(90)" opacity="1.0"><stop offset="0.00" stop-color="#505050"/><stop offset="1.00" stop-color="#3c3c3c"/></linearGradient>
<linearGradient id="node-32" x1="11603.700" y1="-584.700" x2="15137.100" y2="-1666.800" gradientUnits="userSpaceOnUse" spreadMethod="reflect" gradientTransform="rotate(90)" opacity="1.0"><stop offset="0.00" stop-color="#505050"/><stop offset="1.00" stop-color="#3c3c3c"/></linearGradient>
<linearGradient id="node-33" x1="-6594.300" y1="-3844.500" x2="-5754.300" y2="-5478.300" gradientUnits="userSpaceOnUse" spreadMethod="reflect" gradientTransform="rotate(90)" opacity="1.0"><stop offset="0.00" stop-color="#505050"/><stop offset="1.00" stop-color="#3c3c3c"/></linearGradient>
<linearGradient id="node-34" x1="-7701.000" y1="5003.700" x2="-9501.300" y2="1008.000" gradientUnits="userSpaceOnUse" spreadMethod="reflect" gradientTransform="rotate(90)" opacity="1.0"><stop offset="0.00" stop-color="#505050"/><stop offset="1.00" stop-color="#3c3c3c"/></linearGradient>
<linearGradient id="node-35" x1="1703.100" y1="-4142.100" x2="-69.750" y2="-4519.800" gradientUnits="userSpaceOnUse" spreadMethod="reflect" gradientTransform="rotate(90)" opacity="1.0"><stop offset="0.00" stop-color="#0000ff"/><stop offset="1.00" stop-color="#0000bf"/></linearGradient>
<linearGradient id="node-36" x1="13385.700" y1="6387.000" x2="16945.800" y2="5335.800" gradientUnits="userSpaceOnUse" spreadMethod="reflect" gradientTransform="rotate(90)" opacity="1.0"><stop offset="0.00" stop-color="#505050"/><stop offset="1.00" stop-color="#3c3c3c"/></linearGradient>
<linearGradient id="node-37" x1="3661.050" y1="-4487.100" x2="5619.000" y2="-4832.100" gradientUnits="userSpaceOnUse" spreadMethod="reflect" gradientTransform="rotate(90)" opacity="1.0"><stop offset="0.00" stop-color="#505050"/><stop offset="1.00" stop-color="#3c3c3c"/></linearGradient>
<linearGradient id="node-38" x1="-14617.950" y1="-809.100" x2="-13888.800" y2="472.800" gradientUnits="userSpaceOnUse" spreadMethod="reflect" gradientTransform="rotate(90)" opacity="1.0"><stop offset="0.00" stop-color="#505050"/><stop offset="1.00" stop-color="#3c3c3c"/></linearGradient>
<linearGradient id="node-39" x1="-1842.600" y1="-4897.500" x2="-5754.300" y2="-5478.300" gradientUnits="userSpaceOnUse" spreadMethod="reflect" gradientTransform="rotate(90)" opacity="1.0"><stop offset="0.00" stop-color="#505050"/><stop offset="1.00" stop-color="#3c3c3c"/></linearGradient>
<linearGradient id="node-40" x1="-7434.300" y1="-2210.700" x2="-8467.800" y2="-601.350" gradientUnits="userSpaceOnUse" spreadMethod="reflect" gradientTransform="rotate(90)" opacity="1.0"><stop offset="0.00" stop-color="#0000ff"/><stop offset="1.00" stop-color="#0000bf"/></linearGradient>
<linearGradient id="node-41" x1="-7434.300" y1="-2210.700" x2="-6594.300" y2="-3844.500" gradientUnits="userSpaceOnUse" spreadMethod="reflect" gradientTransform="rotate(90)" opacity="1.0"><stop offset="0.00" stop-color="#0000ff"/><stop offset="1.00" stop-color="#0000bf"/></linearGradient>
<linearGradient id="node-42" x1="15137.100" y1="-1666.800" x2="15491.250" y2="-3230.250" gradientUnits="userSpaceOnUse" spreadMethod="reflect" gradientTransform="rotate(90)" opacity="1.0"><stop offset="0.00" stop-color="#505050"/><stop offset="1.00" stop-color="#3c3c3c"/></linearGradient>
<linearGradient id="node-43" x1="-5053.350" y1="4348.050" x2="-7701.000" y2="5003.700" gradientUnits="userSpaceOnUse" spreadMethod="reflect" gradientTransform="rotate(90)" opacity="1.0"><stop offset="0.00" stop-color="#505050"/><stop offset="1.00" stop-color="#3c3c3c"/></linearGradient>
<linearGradient id="node-44" x1="15491.250" y1="-3230.250" x2="15845.400" y2="-4793.700" gradientUnits="userSpaceOnUse" spreadMethod="reflect" gradientTransform="rotate(90)" opacity="1.0"><stop offset="0.00" stop-color="#ffffff"/><stop offset="1.00" stop-color="#bfbfbf"/></linearGradient>
<linearGradient id="node-45" x1="-69.750" y1="-4519.800" x2="-1842.600" y2="-4897.500" gradientUnits="userSpaceOnUse" spreadMethod="reflect" gradientTransform="rotate(90)" opacity="1.0"><stop offset="0.00" stop-color="#505050"/><stop offset="1.00" stop-color="#3c3c3c"/></linearGradient>
<linearGradient id="node-46" x1="15137.100" y1="-1666.800" x2="17821.500" y2="1308.600" gradientUnits="userSpaceOnUse" spreadMethod="reflect" gradientTransform="rotate(90)" opacity="1.0"><stop offset="0.00" stop-color="#505050"/><stop offset="1.00" stop-color="#3c3c3c"/></linearGradient>
<linearGradient id="node-47" x1="16945.800" y1="5335.800" x2="17990.550" y2="6494.100" gradientUnits="userSpaceOnUse" spreadMethod="reflect" gradientTransform="rotate(90)" opacity="1.0"><stop offset="0.00" stop-color="#505050"/><stop offset="1.00" stop-color="#3c3c3c"/></linearGradient>
<linearGradient id="node-48" x1="6049.200" y1="-5476.800" x2="5619.000" y2="-4832.100" gradientUnits="userSpaceOnUse" spreadMethod="reflect" gradientTransform="rotate(90)" opacity="1.0"><stop offset="0.00" stop-color="#505050"/><stop offset="1.00" stop-color="#3c3c3c"/></linearGradient>
<linearGradient id="node-49" x1="17821.500" y1="1308.600" x2="16945.800" y2="5335.800" gradientUnits="userSpaceOnUse" spreadMethod="reflect" gradientTransform="rotate(90)" opacity="1.0"><stop offset="0.00" stop-color="#505050"/><stop offset="1.00" stop-color="#3c3c3c"/></linearGradient>
<linearGradient id="node-50" x1="-15347.100" y1="-2091.000" x2="-14617.950" y2="-809.100" gradientUnits="userSpaceOnUse" spreadMethod="reflect" gradientTransform="rotate(90)" opacity="1.0"><stop offset="0.00" stop-color="#ff0000"/><stop offset="1.00" stop-color="#bf0000"/></linearGradient>
<linearGradient id="node-51" x1="-2405.700" y1="3692.400" x2="-5053.350" y2="4348.050" gradientUnits="userSpaceOnUse" spreadMethod="reflect" gradientTransform="rotate(90)" opacity="1.0"><stop offset="0.00" stop-color="#ffff00"/><stop offset="1.00" stop-color="#bfbf00"/></linearGradient>
<linearGradient id="node-52" x1="-7434.300" y1="-2210.700" x2="-5682.150" y2="-1731.900" gradientUnits="userSpaceOnUse" spreadMethod="reflect" gradientTransform="rotate(90)" opacity="1.0"><stop offset="0.00" stop-color="#0000ff"/><stop offset="1.00" stop-color="#0000bf"/></linearGradient>
<linearGradient id="node-53" x1="17990.550" y1="6494.100" x2="19035.300" y2="7652.400" gradientUnits="userSpaceOnUse" spreadMethod="reflect" gradientTransform="rotate(90)" opacity="1.0"><stop offset="0.00" stop-color="#ffffff"/><stop offset="1.00" stop-color="#bfbfbf"/></linearGradient>
<linearGradient id="node-54" x1="17821.500" y1="1308.600" x2="19207.050" y2="899.400" gradientUnits="userSpaceOnUse" spreadMethod="reflect" gradientTransform="rotate(90)" opacity="1.0"><stop offset="0.00" stop-color="#505050"/><stop offset="1.00" stop-color="#3c3c3c"/></linearGradient>
<linearGradient id="node-55" x1="-2405.700" y1="3692.400" x2="-3167.850" y2="1219.650" gradientUnits="userSpaceOnUse" spreadMethod="reflect" gradientTransform="rotate(90)" opacity="1.0"><stop offset="0.00" stop-color="#ffff00"/><stop offset="1.00" stop-color="#bfbf00"/></linearGradient>
<linearGradient id="node-56" x1="-1842.600" y1="-4897.500" x2="-1597.650" y2="-6136.500" gradientUnits="userSpaceOnUse" spreadMethod="reflect" gradientTransform="rotate(90)" opacity="1.0"><stop offset="0.00" stop-color="#505050"/><stop offset="1.00" stop-color="#3c3c3c"/></linearGradient>
<linearGradient id="node-57" x1="-7701.000" y1="5003.700" x2="-9657.900" y2="6667.200" gradientUnits="userSpaceOnUse" spreadMethod="reflect" gradientTransform="rotate(90)" opacity="1.0"><stop offset="0.00" stop-color="#505050"/><stop offset="1.00" stop-color="#3c3c3c"/></linearGradient>
<linearGradient id="node-58" x1="-3930.000" y1="-1253.100" x2="-1842.600" y2="-4897.500" gradientUnits="userSpaceOnUse" spreadMethod="reflect" gradientTransform="rotate(90)" opacity="1.0"><stop offset="0.00" stop-color="#505050"/><stop offset="1.00" stop-color="#3c3c3c"/></linearGradient>
<linearGradient id="node-59" x1="19207.050" y1="899.400" x2="20592.600" y2="490.200" gradientUnits="userSpaceOnUse" spreadMethod="reflect" gradientTransform="rotate(90)" opacity="1.0"><stop offset="0.00" stop-color="#ffffff"/><stop offset="1.00" stop-color="#bfbfbf"/></linearGradient>
<linearGradient id="node-60" x1="-5682.150" y1="-1731.900" x2="-3930.000" y2="-1253.100" gradientUnits="userSpaceOnUse" spreadMethod="reflect" gradientTransform="rotate(90)" opacity="1.0"><stop offset="0.00" stop-color="#505050"/><stop offset="1.00" stop-color="#3c3c3c"/></linearGradient>
<linearGradient id="node-61" x1="6479.400" y1="-6121.500" x2="6049.200" y2="-5476.800" gradientUnits="userSpaceOnUse" spreadMethod="reflect" gradientTransform="rotate(90)" opacity="1.0"><stop offset="0.00" stop-color="#ff0000"/><stop offset="1.00" stop-color="#bf0000"/></linearGradient>
<linearGradient id="node-62" x1="-3167.850" y1="1219.650" x2="-3930.000" y2="-1253.100" gradientUnits="userSpaceOnUse" spreadMethod="reflect" gradientTransform="rotate(90)" opacity="1.0"><stop offset="0.00" stop-color="#505050"/><stop offset="1.00" stop-color="#3c3c3c"/></linearGradient>
<linearGradient id="node-63" x1="-1597.650" y1="-6136.500" x2="-1352.700" y2="-7375.500" gradientUnits="userSpaceOnUse" spreadMethod="reflect" gradientTransform="rotate(90)" opacity="1.0"><stop offset="0.00" stop-color="#ffffff"/><stop offset="1.00" stop-color="#bfbfbf"/></linearGradient>
<linearGradient id="node-64" x1="-11195.850" y1="7169.400" x2="-12733.800" y2="7671.600" gradientUnits="userSpaceOnUse" spreadMethod="reflect" gradientTransform="rotate(90)" opacity="1.0"><stop offset="0.00" stop-color="#ffffff"/><stop offset="1.00" stop-color="#bfbfbf"/></linearGradient>
<linearGradient id="node-65" x1="-9657.900" y1="6667.200" x2="-11195.850" y2="7169.400" gradientUnits="userSpaceOnUse" spreadMethod="reflect" gradientTransform="rotate(90)" opacity="1.0"><stop offset="0.00" stop-color="#505050"/><stop offset="1.00" stop-color="#3c3c3c"/></linearGradient>
<linearGradient id="node-66" x1="-3930.000" y1="-1253.100" x2="-4240.050" y2="-1354.350" gradientUnits="userSpaceOnUse" spreadMethod="reflect" gradientTransform="rotate(90)" opacity="1.0"><stop offset="0.00" stop-color="#505050"/><stop offset="1.00" stop-color="#3c3c3c"/></linearGradient>
<linearGradient id="node-67" x1="-9657.900" y1="6667.200" x2="-8837.550" y2="7971.750" gradientUnits="userSpaceOnUse" spreadMethod="reflect" gradientTransform="rotate(90)" opacity="1.0"><stop offset="0.00" stop-color="#505050"/><stop offset="1.00" stop-color="#3c3c3c"/></linearGradient>
<linearGradient id="node-68" x1="-9657.900" y1="6667.200" x2="-9727.200" y2="5547.750" gradientUnits="userSpaceOnUse" spreadMethod="reflect" gradientTransform="rotate(90)" opacity="1.0"><stop offset="0.00" stop-color="#505050"/><stop offset="1.00" stop-color="#3c3c3c"/></linearGradient>
<linearGradient id="node-69" x1="-8837.550" y1="7971.750" x2="-8017.200" y2="9276.300" gradientUnits="userSpaceOnUse" spreadMethod="reflect" gradientTransform="rotate(90)" opacity="1.0"><stop offset="0.00" stop-color="#ffffff"/><stop offset="1.00" stop-color="#bfbfbf"/></linearGradient>
<linearGradient id="node-70" x1="-4240.050" y1="-1354.350" x2="-4550.100" y2="-1455.600" gradientUnits="userSpaceOnUse" spreadMethod="reflect" gradientTransform="rotate(90)" opacity="1.0"><stop offset="0.00" stop-color="#ffffff"/><stop offset="1.00" stop-color="#bfbfbf"/></linearGradient>
<linearGradient id="node-71" x1="-9727.200" y1="5547.750" x2="-9796.500" y2="4428.300" gradientUnits="userSpaceOnUse" spreadMethod="reflect" gradientTransform="rotate(90)" opacity="1.0"><stop offset="0.00" stop-color="#ffffff"/><stop offset="1.00" stop-color="#bfbfbf"/></linearGradient>
</defs>
<polygon class="node-0" points="-2530.650,2554.600 -2529.073,2529.533 -2524.367,2504.862 -2516.605,2480.975 -2505.911,2458.249 -2492.453,2437.043 -2476.444,2417.691 -2458.135,2400.497 -2443.560,2389.472 -2407.597,2363.675 -2348.479,2321.289 -2308.911,2292.920 -2298.888,2285.734 -2239.154,2242.912 -2208.879,2221.218 -2204.433,2218.104 -2191.365,2209.034 -2169.356,2196.935 -2146.003,2187.689 -2121.676,2181.443 -2096.758,2178.295 -2071.642,2178.295 -2046.724,2181.443 -2022.397,2187.689 -1999.044,2196.935 -1977.035,2209.034 -1956.715,2223.797 -1938.406,2240.991 -1922.397,2260.343 -1908.939,2281.549 -1898.245,2304.275 -1890.483,2328.162 -1885.777,2352.833 -1884.200,2377.900 -1885.777,2402.967 -1890.483,2427.638 -1898.245,2451.525 -1908.939,2474.251 -1922.397,2495.457 -1938.406,2514.809 -1956.715,2532.003 -1963.967,2537.696 -1979.237,2548.718 -2008.110,2569.432 -2066.672,2611.426 -2076.365,2618.376 -2115.661,2646.551 -2174.839,2688.981 -2207.882,2712.660 -2219.418,2720.760 -2223.485,2723.466 -2245.494,2735.565 -2268.847,2744.811 -2293.174,2751.057 -2318.092,2754.205 -2343.208,2754.205 -2368.126,2751.057 -2392.453,2744.811 -2415.806,2735.565 -2437.815,2723.466 -2458.135,2708.703 -2476.444,2691.509 -2492.453,2672.157 -2505.911,2650.951 -2516.605,2628.225 -2524.367,2604.338 -2529.073,2579.667"/>
<polygon class="node-1" points="2222.900,-964.600 2224.477,-989.667 2229.183,-1014.338 2236.945,-1038.225 2247.639,-1060.951 2261.097,-1082.157 2277.106,-1101.509 2295.415,-1118.703 2306.285,-1126.912 2315.735,-1133.466 2384.036,-1176.364 2459.210,-1223.572 2482.409,-1238.130 2530.276,-1268.164 2555.442,-1283.922 2566.220,-1290.237 2577.294,-1296.015 2600.647,-1305.261 2624.974,-1311.507 2649.892,-1314.655 2675.008,-1314.655 2699.926,-1311.507 2724.253,-1305.261 2747.606,-1296.015 2769.615,-1283.916 2789.935,-1269.153 2808.244,-1251.959 2824.253,-1232.607 2837.711,-1211.401 2848.405,-1188.675 2856.167,-1164.788 2860.873,-1140.117 2862.450,-1115.050 2860.873,-1089.983 2856.167,-1065.312 2848.405,-1041.425 2837.711,-1018.699 2824.253,-997.493 2808.244,-978.141 2789.935,-960.947 2776.973,-951.192 2769.615,-946.184 2595.912,-837.088 2540.011,-801.986 2521.424,-790.637 2508.056,-783.635 2484.703,-774.389 2460.376,-768.143 2435.458,-764.995 2410.342,-764.995 2385.424,-768.143 2361.097,-774.389 2337.744,-783.635 2315.735,-795.734 2295.415,-810.497 2277.106,-827.691 2261.097,-847.043 2247.639,-868.249 2236.945,-890.975 2229.183,-914.862 2224.477,-939.533"/>
<polygon class="node-2" points="-2777.100,2731.300 -2775.523,2706.233 -2770.817,2681.562 -2763.055,2657.675 -2752.361,2634.949 -2738.903,2613.743 -2722.894,2594.391 -2704.585,2577.197 -2697.798,2571.863 -2680.734,2559.570 -2659.483,2544.273 -2594.827,2497.916 -2468.123,2407.081 -2459.928,2401.223 -2454.712,2397.501 -2437.088,2386.209 -2417.863,2377.629 -2384.048,2366.906 -2339.975,2366.640 -2308.946,2378.537 -2252.876,2400.813 -2199.134,2452.260 -2185.018,2473.030 -2173.199,2495.087 -2157.157,2541.652 -2153.187,2565.427 -2153.662,2612.093 -2165.258,2655.146 -2187.246,2691.881 -2201.729,2707.138 -2216.446,2718.767 -2232.609,2730.391 -2362.213,2823.324 -2425.711,2868.851 -2453.750,2888.894 -2469.935,2900.166 -2491.944,2912.265 -2515.297,2921.511 -2539.624,2927.757 -2564.542,2930.905 -2589.658,2930.905 -2614.576,2927.757 -2638.903,2921.511 -2662.256,2912.265 -2684.265,2900.166 -2704.585,2885.403 -2722.894,2868.209 -2738.903,2848.857 -2752.361,2827.651 -2763.055,2804.925 -2770.817,2781.038 -2775.523,2756.367"/>
<polygon class="node-3" points="-3281.600,264.300 -3280.023,239.233 -3275.317,214.562 -3267.555,190.675 -3256.861,167.949 -3247.753,153.587 -3243.403,146.743 -3233.047,133.843 -3227.394,127.391 -3215.953,116.156 -3205.872,107.502 -3193.263,96.924 -3191.378,95.343 -3130.143,43.992 -3123.585,38.497 -3118.125,34.148 -3103.265,23.734 -3097.689,20.456 -3081.256,11.635 -3057.903,2.389 -3033.576,-3.857 -3008.658,-7.005 -2983.542,-7.005 -2958.624,-3.857 -2934.297,2.389 -2910.944,11.635 -2888.935,23.734 -2868.615,38.497 -2850.306,55.691 -2834.297,75.043 -2820.839,96.249 -2810.145,118.975 -2802.383,142.862 -2797.677,167.533 -2796.100,192.600 -2796.100,192.600 -2797.677,217.667 -2802.383,242.338 -2810.145,266.225 -2820.839,288.951 -2834.297,310.157 -2839.270,316.427 -2850.306,329.509 -2855.564,334.861 -2866.784,345.136 -2869.837,347.725 -2872.317,349.812 -2934.202,401.709 -2935.737,402.996 -2954.115,418.403 -2960.794,423.521 -2966.460,427.795 -2974.435,433.166 -2987.489,440.567 -2996.444,445.265 -3019.797,454.511 -3044.124,460.757 -3069.042,463.905 -3094.158,463.905 -3119.076,460.757 -3143.403,454.511 -3166.756,445.265 -3188.765,433.166 -3209.085,418.403 -3227.394,401.209 -3243.403,381.857 -3256.861,360.651 -3267.555,337.925 -3275.317,314.038 -3280.023,289.367"/>
<polygon class="node-4" points="2483.431,-1122.593 2488.732,-1168.235 2496.945,-1214.243 2507.091,-1234.112 2519.688,-1252.104 2534.536,-1267.935 2552.466,-1281.734 2559.435,-1286.300 2573.734,-1295.492 2738.985,-1399.288 2767.940,-1417.471 2799.561,-1437.252 2816.844,-1446.465 2840.197,-1455.711 2864.524,-1461.957 2889.442,-1465.105 2914.558,-1465.105 2939.476,-1461.957 2963.803,-1455.711 2987.156,-1446.465 3009.165,-1434.366 3029.485,-1419.603 3047.794,-1402.409 3063.803,-1383.057 3077.261,-1361.851 3087.955,-1339.125 3095.717,-1315.238 3100.423,-1290.567 3102.000,-1265.500 3100.423,-1240.433 3095.717,-1215.762 3087.955,-1191.875 3077.261,-1169.149 3063.803,-1147.943 3047.794,-1128.591 3029.485,-1111.397 3022.168,-1105.950 3009.165,-1096.634 2950.031,-1059.496 2789.494,-958.680 2763.746,-943.017 2754.881,-937.949 2734.807,-929.946 2691.569,-922.776 2669.088,-923.723 2646.502,-927.688 2602.437,-944.372 2581.652,-956.829 2562.142,-971.781 2528.150,-1008.192 2502.597,-1051.317"/>
<polygon class="node-5" points="-3800.800,3011.900 -3799.223,2986.833 -3794.517,2962.162 -3786.755,2938.275 -3776.061,2915.549 -3762.603,2894.343 -3746.594,2874.991 -3728.285,2857.797 -3707.965,2843.034 -3685.956,2830.935 -3662.603,2821.689 -3653.966,2819.100 -3469.561,2768.551 -3295.394,2720.810 -3233.749,2703.915 -3172.241,2687.057 -3150.014,2681.144 -3139.200,2678.294 -3126.426,2675.143 -3101.508,2671.995 -3076.392,2671.995 -3051.474,2675.143 -3027.147,2681.389 -3003.794,2690.635 -2981.785,2702.734 -2961.465,2717.497 -2943.156,2734.691 -2927.147,2754.043 -2913.689,2775.249 -2902.995,2797.975 -2895.233,2821.862 -2890.527,2846.533 -2888.950,2871.600 -2890.527,2896.667 -2895.233,2921.338 -2902.995,2945.225 -2913.689,2967.951 -2927.147,2989.157 -2943.156,3008.509 -2961.465,3025.703 -2981.785,3040.466 -3003.794,3052.565 -3027.147,3061.811 -3067.081,3072.979 -3128.417,3089.793 -3189.616,3106.570 -3363.507,3154.233 -3547.634,3204.700 -3563.324,3208.357 -3588.242,3211.505 -3613.358,3211.505 -3638.276,3208.357 -3662.603,3202.111 -3685.956,3192.865 -3707.965,3180.766 -3728.285,3166.003 -3746.594,3148.809 -3762.603,3129.457 -3776.061,3108.251 -3786.755,3085.525 -3794.517,3061.638 -3799.223,3036.967"/>
<polygon class="node-6" points="2444.300,1420.600 2445.877,1395.533 2450.583,1370.862 2458.345,1346.975 2469.039,1324.249 2482.497,1303.043 2498.506,1283.691 2516.815,1266.497 2537.135,1251.734 2559.144,1239.635 2582.497,1230.389 2641.664,1212.201 2714.710,1189.767 3009.681,1099.203 3048.163,1087.406 3068.174,1082.493 3093.092,1079.345 3118.208,1079.345 3143.126,1082.493 3167.453,1088.739 3190.806,1097.985 3212.815,1110.084 3233.135,1124.847 3251.444,1142.041 3267.453,1161.393 3280.911,1182.599 3291.605,1205.325 3299.367,1229.212 3304.073,1253.883 3305.650,1278.950 3304.073,1304.017 3299.367,1328.688 3291.605,1352.575 3280.911,1375.301 3267.453,1396.507 3251.444,1415.859 3233.135,1433.053 3212.815,1447.816 3190.806,1459.915 3167.453,1469.161 3163.137,1470.494 3127.803,1481.361 2832.246,1572.109 2757.660,1595.003 2700.479,1612.481 2681.776,1617.057 2656.858,1620.205 2631.742,1620.205 2606.824,1617.057 2582.497,1610.811 2559.144,1601.565 2537.135,1589.466 2516.815,1574.703 2498.506,1557.509 2482.497,1538.157 2469.039,1516.951 2458.345,1494.225 2450.583,1470.338 2445.877,1445.667"/>
<polygon class="node-7" points="2973.650,-1727.300 2975.227,-1752.367 2979.933,-1777.038 2987.695,-1800.925 2998.389,-1823.651 3006.925,-1838.309 3017.663,-1856.580 3055.620,-1921.109 3158.844,-2096.588 3262.095,-2272.112 3272.003,-2288.426 3283.497,-2306.657 3299.506,-2326.009 3317.815,-2343.203 3338.135,-2357.966 3360.144,-2370.065 3383.497,-2379.311 3407.824,-2385.557 3432.742,-2388.705 3457.858,-2388.705 3482.776,-2385.557 3507.103,-2379.311 3530.456,-2370.065 3552.465,-2357.966 3572.785,-2343.203 3591.094,-2326.009 3607.103,-2306.657 3620.561,-2285.451 3631.255,-2262.725 3639.017,-2238.838 3643.723,-2214.167 3645.300,-2189.100 3643.723,-2164.033 3639.017,-2139.362 3631.255,-2115.475 3620.561,-2092.749 3606.773,-2069.144 3503.570,-1893.700 3400.340,-1718.211 3362.235,-1653.436 3351.241,-1634.763 3344.381,-1623.808 3335.453,-1609.743 3319.444,-1590.391 3301.135,-1573.197 3280.815,-1558.434 3258.806,-1546.335 3235.453,-1537.089 3211.126,-1530.843 3186.208,-1527.695 3161.092,-1527.695 3136.174,-1530.843 3111.847,-1537.089 3088.494,-1546.335 3066.485,-1558.434 3046.165,-1573.197 3027.856,-1590.391 3011.847,-1609.743 2998.389,-1630.949 2987.695,-1653.675 2979.933,-1677.562 2975.227,-1702.233"/>
<polygon class="node-8" points="-3159.946,2743.965 -3158.602,2711.865 -3156.272,2699.476 -3152.881,2689.801 -3148.482,2682.994 -3143.144,2679.160 -3120.952,2673.002 -2967.925,2631.050 -2916.635,2616.991 -2783.578,2580.519 -2742.433,2569.242 -2701.895,2558.133 -2692.837,2555.746 -2667.918,2549.203 -2664.026,2548.308 -2648.547,2547.587 -2636.962,2547.065 -2588.776,2545.712 -2544.259,2559.143 -2486.617,2588.722 -2459.150,2620.538 -2413.540,2689.305 -2408.234,2731.300 -2407.345,2774.886 -2410.417,2822.935 -2420.380,2845.164 -2433.889,2865.784 -2449.867,2885.099 -2469.935,2900.166 -2492.616,2910.838 -2523.549,2923.977 -2595.623,2943.751 -2636.981,2955.090 -2677.732,2966.261 -2810.837,3002.745 -2861.917,3016.746 -3016.000,3058.974 -3034.756,3064.040 -3040.949,3064.838 -3055.496,3057.327 -3063.621,3049.137 -3072.145,3038.147 -3080.935,3024.530 -3089.850,3008.502 -3098.752,2990.314 -3107.499,2970.254 -3115.953,2948.639 -3131.458,2902.123 -3144.292,2853.689 -3149.447,2829.705 -3153.648,2806.381 -3156.829,2784.086 -3158.939,2763.171"/>
<polygon class="node-9" points="235.900,-1011.300 237.477,-1036.367 242.183,-1061.038 249.055,-1082.778 250.161,-1085.881 286.032,-1186.411 301.150,-1228.775 310.277,-1254.348 315.845,-1269.625 320.050,-1279.156 326.539,-1292.351 339.997,-1313.557 356.006,-1332.909 374.315,-1350.103 394.635,-1364.866 416.644,-1376.965 439.997,-1386.211 464.324,-1392.457 489.242,-1395.605 514.358,-1395.605 539.276,-1392.457 563.603,-1386.211 586.956,-1376.965 608.965,-1364.866 629.285,-1350.103 647.594,-1332.909 663.603,-1313.557 677.061,-1292.351 687.755,-1269.625 695.517,-1245.738 700.223,-1221.067 701.800,-1196.000 700.223,-1170.933 697.572,-1156.930 695.517,-1146.262 692.062,-1134.401 688.051,-1122.876 678.726,-1096.733 662.212,-1050.441 626.911,-951.495 625.381,-947.210 622.404,-939.110 621.855,-937.675 611.161,-914.949 597.703,-893.743 581.694,-874.391 563.385,-857.197 543.065,-842.434 521.056,-830.335 497.703,-821.089 473.376,-814.843 448.458,-811.695 423.342,-811.695 398.424,-814.843 374.097,-821.089 350.744,-830.335 328.735,-842.434 308.415,-857.197 290.106,-874.391 274.097,-893.743 260.639,-914.949 249.945,-937.675 242.183,-961.562 237.477,-986.233"/>
<polygon class="node-10" points="2726.720,-1310.504 2735.317,-1357.135 2746.355,-1390.120 2752.264,-1405.147 2761.898,-1421.742 2805.760,-1496.350 2816.598,-1514.776 2887.133,-1634.684 2957.881,-1754.953 2974.291,-1782.838 2984.523,-1800.151 2995.057,-1817.806 2998.276,-1822.247 3006.799,-1833.304 3014.208,-1835.130 3024.132,-1835.255 3050.859,-1830.423 3085.302,-1819.112 3104.756,-1811.233 3125.297,-1802.031 3168.329,-1780.255 3232.650,-1741.840 3304.104,-1688.432 3328.561,-1664.565 3337.213,-1654.024 3343.285,-1644.639 3341.866,-1624.336 3341.377,-1618.322 3330.179,-1599.033 3318.679,-1579.402 3302.491,-1551.871 3231.981,-1432.004 3161.258,-1311.776 3074.512,-1164.316 3047.794,-1128.591 3029.485,-1111.397 2986.484,-1085.962 2962.709,-1078.658 2913.943,-1075.664 2890.324,-1079.912 2846.079,-1093.392 2808.090,-1117.522 2794.361,-1135.387 2738.440,-1223.505"/>
<polygon class="node-11" points="-2484.200,-2545.100 -2482.623,-2570.167 -2477.917,-2594.838 -2470.155,-2618.725 -2459.461,-2641.451 -2446.003,-2662.657 -2429.994,-2682.009 -2411.685,-2699.203 -2391.365,-2713.966 -2369.356,-2726.065 -2346.003,-2735.311 -2321.676,-2741.557 -2296.758,-2744.705 -2271.642,-2744.705 -2246.724,-2741.557 -2222.397,-2735.311 -2199.044,-2726.065 -2177.035,-2713.966 -2156.715,-2699.203 -2138.406,-2682.009 -2122.397,-2662.657 -2108.939,-2641.451 -2104.298,-2632.412 -2100.045,-2624.116 -2065.559,-2556.476 -1944.927,-2319.563 -1923.704,-2277.852 -1915.195,-2259.225 -1907.433,-2235.338 -1902.727,-2210.667 -1901.150,-2185.600 -1902.727,-2160.533 -1907.433,-2135.862 -1915.195,-2111.975 -1925.889,-2089.249 -1939.347,-2068.043 -1955.356,-2048.691 -1973.665,-2031.497 -1993.985,-2016.734 -2015.994,-2004.635 -2039.347,-1995.389 -2063.674,-1989.143 -2088.592,-1985.995 -2113.708,-1985.995 -2138.626,-1989.143 -2162.953,-1995.389 -2186.306,-2004.635 -2208.315,-2016.734 -2228.635,-2031.497 -2246.944,-2048.691 -2262.953,-2068.043 -2276.411,-2089.249 -2278.596,-2093.348 -2301.305,-2137.917 -2422.299,-2375.544 -2453.711,-2437.324 -2464.102,-2457.788 -2470.155,-2471.475 -2477.917,-2495.362 -2482.623,-2520.033"/>
<polygon class="node-12" points="-2688.708,2912.691 -2688.027,2876.481 -2645.993,2584.896 -2636.962,2547.065 -2588.776,2545.712 -2544.259,2559.143 -2486.617,2588.722 -2411.552,2649.119 -2389.869,2669.836 -2361.248,2707.758 -2341.115,2743.828 -2285.011,2844.430 -2146.589,3092.649 -2135.895,3115.375 -2128.133,3139.262 -2123.427,3163.933 -2121.850,3189.000 -2123.427,3214.067 -2128.133,3238.738 -2135.895,3262.625 -2146.589,3285.351 -2160.047,3306.557 -2176.056,3325.909 -2194.365,3343.103 -2214.685,3357.866 -2236.694,3369.965 -2260.047,3379.211 -2284.374,3385.457 -2309.292,3388.605 -2334.408,3388.605 -2359.326,3385.457 -2383.653,3379.211 -2407.006,3369.965 -2429.015,3357.866 -2449.335,3343.103 -2467.644,3325.909 -2483.653,3306.557 -2494.616,3289.169 -2517.445,3248.827 -2537.061,3213.701 -2634.359,3039.254 -2649.857,3011.455 -2664.699,2984.829 -2670.489,2974.425 -2676.110,2964.125 -2678.872,2959.035 -2682.053,2952.367 -2687.523,2934.799"/>
<polygon class="node-13" points="3001.261,1222.242 3002.731,1158.281 3018.657,1111.267 3046.800,1087.805 3462.378,960.208 3507.338,946.416 3529.524,940.843 3554.442,937.695 3579.558,937.695 3604.476,940.843 3628.803,947.089 3652.156,956.335 3674.165,968.434 3694.485,983.197 3712.794,1000.391 3728.803,1019.743 3742.261,1040.949 3752.955,1063.675 3760.717,1087.562 3765.423,1112.233 3767.000,1137.300 3765.423,1162.367 3760.717,1187.038 3752.955,1210.925 3742.261,1233.651 3728.803,1254.857 3712.794,1274.209 3694.485,1291.403 3674.165,1306.166 3652.156,1318.265 3628.803,1327.511 3626.662,1328.184 3579.352,1342.722 3164.500,1470.095 3128.092,1466.712 3114.983,1459.591 3101.726,1449.621 3075.607,1421.805 3063.156,1404.398 3051.376,1385.013 3030.554,1341.557 3014.452,1294.167 3004.079,1245.821"/>
<polygon class="node-14" points="-6033.350,1026.100 -6031.773,1001.033 -6027.067,976.362 -6019.305,952.475 -6008.611,929.749 -5995.153,908.543 -5979.144,889.191 -5960.835,871.997 -5940.515,857.234 -5918.506,845.135 -5895.153,835.889 -5870.826,829.643 -5845.908,826.495 -5820.792,826.495 -5793.009,829.231 -5783.847,830.158 -5350.376,875.067 -5329.276,877.597 -5314.224,879.543 -5289.897,885.789 -5266.544,895.035 -5244.535,907.134 -5224.215,921.897 -5205.906,939.091 -5189.897,958.443 -5176.439,979.649 -5165.745,1002.375 -5157.983,1026.262 -5153.277,1050.933 -5151.700,1076.000 -5153.277,1101.067 -5157.983,1125.738 -5165.745,1149.625 -5176.439,1172.351 -5189.897,1193.557 -5205.906,1212.909 -5224.215,1230.103 -5244.535,1244.866 -5266.544,1256.965 -5289.897,1266.211 -5314.224,1272.457 -5339.142,1275.605 -5364.258,1275.605 -5391.556,1272.941 -5825.055,1228.030 -5835.159,1226.961 -5852.160,1224.907 -5870.826,1222.557 -5895.153,1216.311 -5918.506,1207.065 -5940.515,1194.966 -5960.835,1180.203 -5979.144,1163.009 -5995.153,1143.657 -6008.611,1122.451 -6019.305,1099.725 -6027.067,1075.838 -6031.773,1051.167"/>
<polygon class="node-15" points="-2498.720,3274.247 -2491.481,3254.246 -2460.965,3217.024 -2429.380,3189.668 -2370.073,3149.096 -2348.348,3136.552 -2303.994,3114.129 -2282.064,3104.605 -2203.897,3080.991 -2163.599,3080.741 -2154.910,3084.098 -2148.855,3089.109 -2132.685,3117.718 -2121.093,3138.448 -2101.160,3174.104 -1932.865,3475.881 -1891.339,3550.349 -1880.645,3573.075 -1872.883,3596.962 -1868.177,3621.633 -1866.600,3646.700 -1868.177,3671.767 -1872.883,3696.438 -1880.645,3720.325 -1891.339,3743.051 -1904.797,3764.257 -1920.806,3783.609 -1939.115,3800.803 -1959.435,3815.566 -1981.444,3827.665 -2004.797,3836.911 -2029.124,3843.157 -2054.042,3846.305 -2079.158,3846.305 -2104.076,3843.157 -2128.403,3836.911 -2151.756,3827.665 -2173.765,3815.566 -2194.085,3800.803 -2212.394,3783.609 -2228.403,3764.257 -2241.852,3742.978 -2271.665,3689.602 -2282.015,3671.055 -2450.650,3368.668 -2471.557,3331.092 -2480.385,3315.206 -2494.845,3288.891 -2498.173,3282.305"/>
<polygon class="node-16" points="2726.720,-1310.504 2735.317,-1357.135 2755.596,-1371.869 3100.922,-1319.897 3141.997,-1296.277 3147.702,-1291.690 3243.776,-1185.242 3881.227,-478.694 3958.363,-393.197 3996.579,-350.815 4014.377,-330.769 4029.703,-312.457 4043.161,-291.251 4053.855,-268.525 4061.617,-244.638 4066.323,-219.967 4067.900,-194.900 4066.323,-169.833 4061.617,-145.162 4053.855,-121.275 4043.161,-98.549 4029.703,-77.343 4013.694,-57.991 3995.385,-40.797 3975.065,-26.034 3953.056,-13.935 3929.703,-4.689 3905.376,1.557 3880.458,4.705 3855.342,4.705 3830.424,1.557 3806.097,-4.689 3782.744,-13.935 3760.735,-26.034 3740.415,-40.797 3722.106,-57.991 3700.585,-81.809 3661.529,-125.075 3584.121,-210.874 2946.584,-917.518 2849.478,-1025.190 2831.746,-1044.890 2809.414,-1070.092 2787.285,-1101.428 2769.697,-1138.086 2738.440,-1223.505"/>
<polygon class="node-17" points="-6515.000,976.200 -6513.423,951.133 -6508.717,926.462 -6500.955,902.575 -6490.261,879.849 -6476.803,858.643 -6460.794,839.291 -6442.485,822.097 -6422.165,807.334 -6400.156,795.235 -6376.803,785.989 -6352.476,779.743 -6327.558,776.595 -6302.442,776.595 -6295.268,777.250 -6256.129,781.236 -6130.743,794.220 -5928.379,815.185 -5851.186,823.182 -5821.844,826.250 -5811.389,827.494 -5807.715,830.551 -5804.445,836.692 -5801.632,845.820 -5799.318,857.791 -5797.541,872.417 -5795.701,908.670 -5796.227,952.301 -5797.372,976.041 -5801.338,1025.502 -5807.315,1075.000 -5819.202,1142.563 -5828.348,1179.021 -5846.988,1221.425 -5851.291,1224.631 -5864.122,1223.954 -5892.578,1221.034 -5969.513,1213.063 -6171.735,1192.112 -6296.807,1179.148 -6334.732,1175.150 -6352.476,1172.657 -6376.803,1166.411 -6400.156,1157.165 -6422.165,1145.066 -6442.485,1130.303 -6460.794,1113.109 -6476.803,1093.757 -6490.261,1072.551 -6500.955,1049.825 -6508.717,1025.938 -6513.423,1001.267"/>
<polygon class="node-18" points="-3367.100,336.000 -3365.523,310.933 -3360.817,286.262 -3353.055,262.375 -3342.361,239.649 -3328.903,218.443 -3312.894,199.091 -3294.888,182.149 -3265.217,157.265 -3233.595,130.747 -3231.573,129.054 -3219.983,119.385 -3218.589,118.228 -3202.055,104.821 -3180.909,90.853 -3159.059,81.062 -3135.317,72.404 -3111.065,67.658 -3086.348,66.013 -3061.557,67.495 -3037.082,72.081 -3013.309,79.698 -2990.613,90.227 -2949.861,119.310 -2932.447,137.406 -2904.915,179.285 -2896.451,205.262 -2889.886,229.408 -2884.784,251.200 -2885.961,279.026 -2888.664,303.718 -2894.436,327.810 -2903.188,350.923 -2914.779,372.693 -2926.394,390.192 -2945.712,410.856 -2954.871,418.976 -2956.897,420.687 -2976.087,436.830 -2977.485,438.005 -3007.423,463.111 -3039.312,489.851 -3039.615,490.103 -3059.935,504.866 -3081.944,516.965 -3105.297,526.211 -3129.624,532.457 -3154.542,535.605 -3179.658,535.605 -3204.576,532.457 -3228.903,526.211 -3252.256,516.965 -3274.265,504.866 -3294.585,490.103 -3312.894,472.909 -3328.903,453.557 -3342.361,432.351 -3353.055,409.625 -3360.817,385.738 -3365.523,361.067"/>
<polygon class="node-19" points="3395.951,989.387 3396.628,984.972 3401.960,960.232 3408.027,933.353 3492.246,560.488 3582.501,160.907 3600.672,80.473 3624.871,-26.511 3648.586,-130.999 3650.147,-135.213 3662.345,-145.787 3917.953,-301.269 3946.020,-317.998 3975.539,-325.013 4012.544,-330.730 4029.703,-312.457 4043.161,-291.251 4053.488,-268.380 4061.617,-244.638 4066.323,-219.967 4067.900,-194.900 4067.900,-194.900 4066.323,-169.833 4063.142,-152.168 4056.926,-124.021 3798.189,1021.519 3780.130,1101.475 3762.015,1181.645 3760.334,1186.940 3739.157,1231.944 3727.528,1253.930 3712.506,1273.939 3694.485,1291.403 3673.954,1305.832 3652.156,1318.265 3627.709,1324.142 3602.642,1324.142 3578.363,1317.908 3541.346,1271.784 3420.040,1070.380 3400.708,1029.078"/>
<polygon class="node-20" points="-5448.651,894.889 -5446.607,880.941 -5441.927,868.620 -5440.841,866.146 -5434.685,858.121 -5428.577,850.229 -5393.399,805.455 -5147.801,493.092 -5136.444,479.891 -5118.135,462.697 -5097.815,447.934 -5075.806,435.835 -5052.453,426.589 -5028.126,420.343 -5003.208,417.195 -4978.092,417.195 -4953.174,420.343 -4928.847,426.589 -4905.494,435.835 -4883.485,447.934 -4863.165,462.697 -4844.856,479.891 -4828.847,499.243 -4815.389,520.449 -4804.695,543.175 -4796.933,567.062 -4792.227,591.733 -4790.650,616.800 -4792.227,641.867 -4796.933,666.538 -4804.695,690.425 -4815.389,713.151 -4828.847,734.357 -4833.499,740.508 -5078.929,1052.657 -5186.819,1189.868 -5205.906,1212.909 -5224.215,1230.103 -5244.535,1244.866 -5266.544,1256.965 -5339.142,1275.605 -5364.258,1275.605 -5380.576,1227.373 -5444.747,926.767 -5448.028,910.245"/>
<polygon class="node-21" points="304.907,-1203.158 305.666,-1226.483 309.587,-1251.006 316.465,-1271.503 317.860,-1275.605 319.143,-1279.205 327.908,-1303.784 364.779,-1407.125 369.467,-1420.232 373.671,-1431.983 375.253,-1436.375 381.745,-1454.325 385.356,-1462.595 392.439,-1477.051 405.897,-1498.257 421.906,-1517.609 440.215,-1534.803 460.535,-1549.566 482.544,-1561.665 505.897,-1570.911 530.224,-1577.157 555.142,-1580.305 580.258,-1580.305 605.176,-1577.157 629.503,-1570.911 652.856,-1561.665 674.865,-1549.566 695.185,-1534.803 713.494,-1517.609 729.503,-1498.257 742.961,-1477.051 753.655,-1454.325 761.417,-1430.438 766.123,-1405.767 767.700,-1380.700 766.123,-1355.633 761.417,-1330.962 758.378,-1320.430 756.288,-1314.303 747.481,-1289.452 741.625,-1273.007 704.688,-1169.484 695.001,-1142.347 693.648,-1138.559 689.771,-1127.885 679.901,-1106.899 667.244,-1087.377 651.998,-1069.626 634.404,-1053.926 608.502,-1034.021 570.468,-1021.425 539.472,-1011.478 514.772,-1009.670 472.277,-1017.326 447.968,-1023.566 417.834,-1031.414 375.791,-1058.319 328.267,-1114.216 317.604,-1135.847 307.274,-1179.779"/>
<polygon class="node-22" points="3468.690,1244.459 3471.776,1194.106 3485.656,1176.807 3501.101,1159.197 3517.868,1141.555 3574.724,1124.911 3723.939,1088.080 3788.075,1083.868 3823.133,1122.613 3983.780,1300.633 4431.469,1796.745 4574.284,1955.017 4593.974,1977.091 4612.470,1997.887 4623.703,2011.443 4637.161,2032.649 4647.855,2055.375 4655.617,2079.262 4660.323,2103.933 4661.900,2129.000 4660.323,2154.067 4655.617,2178.738 4647.855,2202.625 4637.161,2225.351 4623.703,2246.557 4607.694,2265.909 4589.385,2283.103 4569.065,2297.866 4547.056,2309.965 4523.703,2319.211 4499.376,2325.457 4474.458,2328.605 4449.342,2328.605 4424.424,2325.457 4400.097,2319.211 4376.744,2309.965 4354.735,2297.866 4334.415,2283.103 4316.106,2265.909 4277.924,2223.647 4134.371,2064.575 3687.160,1568.987 3525.643,1389.995 3489.109,1349.404 3485.963,1342.540 3471.066,1296.215"/>
<polygon class="node-23" points="-2288.933,-2121.530 -2287.824,-2180.350 -2281.512,-2200.543 -2272.355,-2220.501 -2246.128,-2258.458 -2168.565,-2318.542 -2098.191,-2342.553 -2050.883,-2346.397 -2028.232,-2344.521 -1986.721,-2333.318 -1955.682,-2310.980 -1940.833,-2298.513 -1928.455,-2284.152 -1918.742,-2268.124 -1896.874,-2225.180 -1831.669,-2097.126 -1791.242,-2017.733 -1772.683,-1981.283 -1739.471,-1916.050 -1732.145,-1899.725 -1724.383,-1875.838 -1719.677,-1851.167 -1718.100,-1826.100 -1719.677,-1801.033 -1724.383,-1776.362 -1732.145,-1752.475 -1742.839,-1729.749 -1756.297,-1708.543 -1772.306,-1689.191 -1790.615,-1671.997 -1810.935,-1657.234 -1832.944,-1645.135 -1856.297,-1635.889 -1880.624,-1629.643 -1905.542,-1626.495 -1930.658,-1626.495 -1955.576,-1629.643 -1979.903,-1635.889 -2003.256,-1645.135 -2025.265,-1657.234 -2045.585,-1671.997 -2063.894,-1689.191 -2079.903,-1708.543 -2093.361,-1729.749 -2096.729,-1736.150 -2129.415,-1800.337 -2147.466,-1835.787 -2187.581,-1914.574 -2254.172,-2045.360 -2276.236,-2088.696 -2283.341,-2103.541"/>
<polygon class="node-24" points="4034.300,3174.300 4035.877,3149.233 4038.741,3132.930 4048.058,3089.632 4054.779,3058.732 4084.376,2922.800 4120.818,2755.428 4143.527,2651.157 4148.245,2629.550 4152.993,2608.091 4154.383,2601.912 4162.145,2578.025 4172.839,2555.299 4186.297,2534.093 4202.306,2514.741 4220.615,2497.547 4240.935,2482.784 4262.944,2470.685 4286.297,2461.439 4310.624,2455.193 4335.542,2452.045 4360.658,2452.045 4385.576,2455.193 4409.903,2461.439 4433.256,2470.685 4455.265,2482.784 4475.585,2497.547 4493.894,2514.741 4509.903,2534.093 4523.361,2555.299 4534.055,2578.025 4541.817,2601.912 4546.523,2626.583 4548.100,2651.650 4546.523,2676.717 4543.207,2695.209 4538.851,2715.562 4534.465,2735.767 4511.654,2840.556 4475.264,3007.680 4445.685,3143.526 4438.750,3175.344 4428.017,3224.038 4420.255,3247.925 4409.561,3270.651 4396.103,3291.857 4380.094,3311.209 4361.785,3328.403 4341.465,3343.166 4319.456,3355.265 4296.103,3364.511 4271.776,3370.757 4246.858,3373.905 4221.742,3373.905 4196.824,3370.757 4172.497,3364.511 4149.144,3355.265 4127.135,3343.166 4106.815,3328.403 4088.506,3311.209 4072.497,3291.857 4059.039,3270.651 4048.345,3247.925 4040.583,3224.038 4035.877,3199.367"/>
<polygon class="node-25" points="-2775.996,2619.730 -2775.052,2515.494 -2770.623,2048.502 -2769.217,1900.720 -2768.005,1773.544 -2767.391,1710.883 -2766.890,1662.303 -2765.423,1642.833 -2760.717,1618.162 -2752.955,1594.275 -2742.261,1571.549 -2728.803,1550.343 -2712.794,1530.991 -2694.485,1513.797 -2674.165,1499.034 -2652.156,1486.935 -2628.803,1477.689 -2604.476,1471.443 -2579.558,1468.295 -2554.442,1468.295 -2529.524,1471.443 -2505.197,1477.689 -2481.844,1486.935 -2459.835,1499.034 -2439.515,1513.797 -2421.206,1530.991 -2405.197,1550.343 -2391.739,1571.549 -2381.045,1594.275 -2373.283,1618.162 -2368.577,1642.833 -2367.000,1667.900 -2369.227,1902.976 -2370.649,2052.946 -2375.108,2521.746 -2376.316,2645.130 -2376.637,2663.053 -2377.279,2681.100 -2399.701,2714.529 -2474.040,2749.077 -2586.050,2789.786 -2654.842,2799.419 -2677.287,2791.214 -2698.143,2781.057 -2750.181,2716.453 -2771.207,2655.626 -2775.171,2637.779"/>
<polygon class="node-26" points="1673.000,-1610.700 1674.577,-1635.767 1679.283,-1660.438 1687.045,-1684.325 1697.739,-1707.051 1711.197,-1728.257 1727.206,-1747.609 1745.515,-1764.803 1765.835,-1779.566 1787.844,-1791.665 1811.197,-1800.911 1835.524,-1807.157 1860.442,-1810.305 1885.558,-1810.305 1910.476,-1807.157 1934.803,-1800.911 2039.216,-1765.893 2821.825,-1503.350 2843.511,-1496.064 2864.670,-1488.954 2880.626,-1481.545 2895.298,-1471.273 2908.452,-1458.301 2951.735,-1414.213 2984.153,-1365.635 2986.717,-1342.722 2986.972,-1318.918 2984.912,-1294.599 2944.750,-1229.226 2840.049,-1110.640 2805.697,-1091.503 2788.076,-1093.520 2771.279,-1098.576 2733.530,-1111.086 2713.529,-1117.784 2694.055,-1124.306 1912.584,-1386.467 1872.096,-1400.055 1804.491,-1422.876 1787.844,-1429.735 1765.835,-1441.834 1745.515,-1456.597 1727.206,-1473.791 1711.197,-1493.143 1697.739,-1514.349 1687.045,-1537.075 1679.283,-1560.962 1674.577,-1585.633"/>
<polygon class="node-27" points="4152.937,2612.736 4154.816,2599.922 4159.581,2577.437 4186.795,2452.417 4230.082,2253.613 4243.634,2191.467 4247.186,2186.226 4253.370,2180.610 4511.953,2022.631 4540.020,2005.902 4573.616,1993.959 4606.544,1993.170 4623.384,2011.675 4636.815,2032.839 4647.488,2055.520 4655.617,2079.262 4659.931,2103.983 4661.900,2129.000 4659.931,2154.017 4656.356,2173.768 4655.148,2180.014 4652.276,2193.861 4648.094,2213.836 4620.886,2338.883 4577.685,2537.293 4550.275,2663.145 4545.936,2682.472 4543.263,2690.564 4525.121,2704.019 4498.890,2705.975 4323.760,2681.607 4299.632,2675.689 4276.269,2669.393 4214.355,2649.241 4197.528,2642.457 4183.075,2635.818 4171.225,2629.428 4162.165,2623.389 4156.036,2617.796"/>
<polygon class="node-28" points="-5152.685,522.423 -5151.370,508.065 -5147.407,495.278 -5140.857,484.263 -4895.170,171.785 -4794.610,43.902 -4789.501,37.722 -4775.394,20.691 -4757.085,3.497 -4736.765,-11.266 -4714.756,-23.365 -4691.403,-32.611 -4667.076,-38.857 -4642.158,-42.005 -4617.042,-42.005 -4592.124,-38.857 -4567.797,-32.611 -4544.444,-23.365 -4522.435,-11.266 -4502.115,3.497 -4483.806,20.691 -4467.797,40.043 -4454.339,61.249 -4443.645,83.975 -4435.883,107.862 -4431.177,132.533 -4429.600,157.600 -4429.600,157.600 -4431.177,182.667 -4435.883,207.338 -4443.645,231.225 -4454.339,253.951 -4467.797,275.157 -4479.032,289.666 -4580.660,418.935 -4826.001,730.969 -4842.255,749.224 -4853.628,756.206 -4867.161,760.989 -4882.643,763.498 -4918.444,761.572 -4938.200,757.168 -4958.782,750.551 -5001.123,731.125 -5022.213,718.623 -5042.806,704.515 -5062.576,689.024 -5081.211,672.394 -5098.419,654.888 -5113.926,636.780 -5127.490,618.358 -5147.329,554.920 -5151.331,538.123"/>
<polygon class="node-29" points="-4792.554,93.082 -4792.554,68.015 -4788.537,42.125 -4775.394,20.691 -4757.085,3.497 -4736.765,-11.266 -4714.756,-23.365 -4667.002,-38.470 -4642.133,-41.611 -4617.067,-41.611 -4603.957,-40.572 -4575.010,-37.111 -4518.501,-30.266 -4341.964,-8.793 -4254.275,1.902 -3435.710,101.761 -3348.014,112.462 -3171.133,134.114 -3106.391,149.158 -3084.619,160.720 -3063.301,172.440 -3025.887,203.392 -3010.380,222.136 -3000.417,244.365 -2982.865,288.696 -2970.643,336.000 -2970.643,336.000 -2976.815,384.857 -2994.943,430.644 -3006.572,452.630 -3022.456,471.830 -3039.615,490.103 -3060.780,503.534 -3082.112,516.608 -3129.624,532.457 -3154.641,534.031 -3179.559,534.031 -3193.806,533.656 -3221.567,530.750 -3395.686,509.586 -3483.490,498.879 -4302.925,398.930 -4390.736,388.217 -4537.680,370.229 -4555.848,360.421 -4723.510,209.227 -4757.085,157.600 -4778.861,119.276"/>
<polygon class="node-30" points="370.842,-1405.569 375.511,-1430.046 392.785,-1476.861 405.897,-1498.257 421.906,-1517.609 441.220,-1533.588 460.746,-1549.232 482.544,-1561.665 529.347,-1576.660 547.996,-1580.211 571.043,-1584.337 676.720,-1602.990 1133.811,-1683.529 1186.149,-1692.748 1207.792,-1695.305 1232.908,-1695.305 1257.826,-1692.157 1282.153,-1685.911 1305.506,-1676.665 1327.515,-1664.566 1347.835,-1649.803 1366.144,-1632.609 1382.153,-1613.257 1395.611,-1592.051 1406.305,-1569.325 1414.067,-1545.438 1418.773,-1520.767 1420.350,-1495.700 1418.773,-1470.633 1414.067,-1445.962 1406.305,-1422.075 1395.611,-1399.349 1382.153,-1378.143 1366.144,-1358.791 1347.835,-1341.597 1327.515,-1326.834 1305.506,-1314.735 1282.153,-1305.489 1257.826,-1299.243 1254.551,-1298.652 1202.465,-1289.471 745.846,-1209.010 720.875,-1204.635 651.748,-1192.641 634.695,-1190.600 617.380,-1189.370 596.789,-1190.794 511.779,-1208.592 490.649,-1216.958 449.168,-1237.419 435.782,-1256.821 425.911,-1277.684"/>
<polygon class="node-31" points="-3269.772,126.732 -3263.537,116.562 -3251.860,97.909 -3169.943,-29.697 -3101.106,-136.891 -3045.559,-223.374 -2997.014,-298.941 -2989.069,-311.143 -2984.403,-318.007 -2968.394,-337.359 -2950.085,-354.553 -2929.765,-369.316 -2907.756,-381.415 -2884.403,-390.661 -2860.076,-396.907 -2835.158,-400.055 -2810.042,-400.055 -2785.124,-396.907 -2760.797,-390.661 -2737.444,-381.415 -2715.435,-369.316 -2695.115,-354.553 -2676.806,-337.359 -2660.797,-318.007 -2647.339,-296.801 -2636.645,-274.075 -2628.883,-250.188 -2624.177,-225.517 -2622.600,-200.450 -2622.600,-200.450 -2624.177,-175.383 -2628.883,-150.712 -2636.645,-126.825 -2647.339,-104.099 -2656.131,-89.757 -2661.966,-80.501 -2709.881,-5.862 -2764.574,79.319 -2978.245,412.043 -2985.875,423.877 -2990.754,431.418 -2998.020,440.915 -3039.615,490.103 -3060.780,503.534 -3082.112,516.608 -3129.624,532.457 -3154.641,534.031 -3179.559,534.031 -3267.315,181.526"/>
<polygon class="node-32" points="3789.434,-236.300 3836.312,-341.885 3876.857,-394.090 3919.417,-418.996 3930.278,-423.040 3997.090,-443.627 4045.437,-458.435 4515.712,-602.459 4916.572,-725.223 4987.310,-746.886 5008.224,-752.057 5033.142,-755.205 5058.258,-755.205 5083.176,-752.057 5107.503,-745.811 5130.856,-736.565 5152.865,-724.466 5173.185,-709.703 5191.494,-692.509 5207.503,-673.157 5220.961,-651.951 5231.655,-629.225 5239.417,-605.338 5244.123,-580.667 5245.700,-555.600 5244.123,-530.533 5239.417,-505.862 5231.655,-481.975 5220.961,-459.249 5207.503,-438.043 5191.494,-418.691 5173.185,-401.497 5152.865,-386.734 5130.856,-374.635 5107.503,-365.389 5104.090,-364.314 5033.492,-342.693 4633.448,-220.181 4161.483,-75.645 4115.606,-61.597 4041.082,-38.900 3994.280,-32.452 3981.392,-37.280 3905.005,-77.775 3854.782,-113.554 3806.928,-163.927 3799.617,-187.956 3793.755,-212.208"/>
<polygon class="node-33" points="-2398.100,-1281.500 -2396.523,-1306.567 -2391.817,-1331.238 -2384.055,-1355.125 -2374.961,-1374.785 -2353.433,-1416.778 -2314.417,-1492.666 -2208.047,-1699.555 -2157.677,-1797.524 -2135.480,-1840.686 -2124.855,-1861.246 -2118.904,-1870.643 -2105.852,-1888.484 -2078.858,-1909.540 -2058.300,-1923.538 -2026.113,-1935.632 -1870.480,-1972.660 -1776.887,-1958.708 -1761.380,-1939.964 -1737.987,-1897.412 -1725.911,-1875.446 -1718.495,-1826.100 -1720.069,-1801.083 -1725.911,-1776.754 -1732.512,-1752.620 -1739.100,-1737.048 -1745.729,-1723.960 -1852.153,-1516.965 -1958.583,-1309.958 -1997.967,-1233.358 -2021.239,-1188.215 -2022.839,-1185.149 -2036.297,-1163.943 -2052.306,-1144.591 -2070.615,-1127.397 -2090.935,-1112.634 -2112.944,-1100.535 -2136.297,-1091.289 -2160.624,-1085.043 -2185.542,-1081.895 -2210.658,-1081.895 -2235.576,-1085.043 -2259.903,-1091.289 -2283.256,-1100.535 -2305.265,-1112.634 -2325.585,-1127.397 -2343.894,-1144.591 -2359.903,-1163.943 -2373.361,-1185.149 -2384.055,-1207.875 -2391.817,-1231.762 -2396.523,-1256.433"/>
<polygon class="node-34" points="-3303.165,518.538 -3284.542,476.975 -3228.626,394.841 -3208.261,382.608 -3186.680,370.900 -3164.222,359.902 -2948.457,353.118 -2937.549,358.797 -2877.155,492.709 -2852.607,547.144 -2792.690,680.121 -2468.615,1399.394 -2397.167,1558.050 -2381.412,1594.420 -2373.283,1618.162 -2368.577,1642.833 -2367.395,1667.900 -2370.142,1692.769 -2382.765,1715.204 -2408.419,1755.081 -2449.050,1778.662 -2484.428,1798.013 -2558.403,1804.539 -2612.053,1806.558 -2649.572,1798.013 -2684.950,1778.662 -2720.583,1752.333 -2763.148,1716.610 -2770.976,1700.799 -2774.518,1693.481 -2796.361,1645.436 -2809.051,1617.515 -2833.413,1563.474 -3157.446,844.295 -3217.549,710.892 -3241.009,658.775 -3300.635,526.307"/>
<polygon class="node-35" points="-223.250,-1506.600 -221.673,-1531.667 -216.967,-1556.338 -209.205,-1580.225 -198.511,-1602.951 -185.053,-1624.157 -169.044,-1643.509 -150.735,-1660.703 -130.415,-1675.466 -108.406,-1687.565 -85.053,-1696.811 -60.726,-1703.057 -35.808,-1706.205 -10.692,-1706.205 14.226,-1703.057 30.012,-1699.741 148.780,-1674.437 349.958,-1631.575 373.742,-1626.506 421.262,-1616.378 552.545,-1588.375 558.316,-1587.071 567.681,-1584.878 572.139,-1583.380 578.635,-1575.354 581.532,-1563.161 587.806,-1534.500 596.467,-1375.393 594.557,-1324.995 584.087,-1236.132 576.093,-1202.377 561.252,-1193.996 530.875,-1190.264 511.306,-1191.571 482.532,-1194.473 464.665,-1198.205 335.930,-1225.598 288.898,-1235.614 265.406,-1240.617 64.738,-1283.367 -52.874,-1308.423 -61.143,-1310.301 -85.053,-1316.389 -108.406,-1325.635 -130.415,-1337.734 -150.735,-1352.497 -169.044,-1369.691 -185.053,-1389.043 -198.511,-1410.249 -209.205,-1432.975 -216.967,-1456.862 -221.673,-1481.533"/>
<polygon class="node-36" points="4386.103,2101.448 4404.453,2044.489 4431.076,1986.794 4476.300,1925.766 4518.107,1904.339 4544.322,1896.279 4573.402,1887.593 4760.508,1832.301 4998.419,1762.045 5473.562,1621.748 5547.716,1599.987 5596.907,1585.641 5611.124,1582.143 5636.042,1578.995 5661.158,1578.995 5686.076,1582.143 5710.403,1588.389 5733.756,1597.635 5755.765,1609.734 5776.085,1624.497 5794.394,1641.691 5810.403,1661.043 5823.861,1682.249 5834.555,1704.975 5842.317,1728.862 5847.023,1753.533 5848.600,1778.600 5847.023,1803.667 5842.317,1828.338 5834.555,1852.225 5823.861,1874.951 5810.403,1896.157 5794.394,1915.509 5776.085,1932.703 5755.765,1947.466 5733.756,1959.565 5710.403,1968.811 5586.298,2005.532 5112.081,2145.555 4875.312,2215.459 4682.674,2272.295 4664.286,2277.625 4631.945,2286.972 4620.047,2287.318 4569.309,2285.051 4501.475,2251.035 4447.419,2208.968 4405.531,2173.753 4397.633,2149.965 4391.123,2125.736"/>
<polygon class="node-37" points="1162.311,-1584.570 1162.870,-1606.104 1164.540,-1625.932 1167.297,-1643.744 1178.471,-1689.943 1186.001,-1692.725 1459.562,-1740.930 1550.958,-1757.035 1798.883,-1800.720 1836.729,-1807.324 1860.467,-1809.911 1885.533,-1809.911 1910.402,-1806.770 1969.966,-1763.494 1984.716,-1745.741 2009.615,-1709.957 2014.213,-1646.957 2005.608,-1576.652 1951.120,-1487.602 1875.997,-1416.185 1860.765,-1406.963 1857.208,-1404.915 1841.845,-1402.139 1620.710,-1363.165 1529.364,-1347.070 1254.699,-1298.675 1220.464,-1318.324 1186.202,-1381.854 1167.310,-1513.237 1164.549,-1537.768 1162.874,-1561.671"/>
<polygon class="node-38" points="-5072.650,-269.700 -5071.073,-294.767 -5066.367,-319.438 -5058.605,-343.325 -5047.911,-366.051 -5034.453,-387.257 -5018.444,-406.609 -5000.135,-423.803 -4979.815,-438.566 -4957.806,-450.665 -4934.453,-459.911 -4910.126,-466.157 -4885.208,-469.305 -4860.092,-469.305 -4835.174,-466.157 -4810.847,-459.911 -4787.494,-450.665 -4765.485,-438.566 -4745.165,-423.803 -4726.856,-406.609 -4710.847,-387.257 -4704.122,-376.606 -4696.353,-363.867 -4690.456,-353.802 -4678.827,-333.443 -4552.819,-111.929 -4508.991,-34.872 -4498.041,-15.490 -4492.630,-1.474 -4490.068,13.837 -4490.397,30.203 -4492.721,68.329 -4511.233,119.534 -4525.431,151.210 -4538.553,177.438 -4560.229,207.358 -4590.802,249.333 -4611.674,269.988 -4634.674,278.591 -4694.364,273.076 -4716.153,266.090 -4776.212,244.608 -4821.130,211.527 -4832.690,201.283 -4848.657,176.862 -4857.151,162.060 -4900.821,85.289 -5027.585,-137.589 -5047.911,-173.349 -5048.947,-175.533 -5058.605,-196.075 -5066.367,-219.962 -5071.073,-244.633"/>
<polygon class="node-39" points="-1989.111,-1944.743 -1923.093,-1996.608 -1854.214,-2015.937 -1841.011,-2016.659 -1811.214,-2012.417 -897.745,-1876.793 -638.062,-1838.224 -581.972,-1829.828 -576.724,-1828.957 -552.397,-1822.711 -529.044,-1813.465 -507.035,-1801.366 -486.715,-1786.603 -468.406,-1769.409 -452.397,-1750.057 -438.939,-1728.851 -428.245,-1706.125 -420.483,-1682.238 -415.777,-1657.567 -414.200,-1632.500 -415.777,-1607.433 -420.483,-1582.762 -428.245,-1558.875 -438.939,-1536.149 -452.397,-1514.943 -468.406,-1495.591 -486.715,-1478.397 -507.035,-1463.634 -529.044,-1451.535 -552.397,-1442.289 -576.724,-1436.043 -601.642,-1432.895 -626.758,-1432.895 -646.428,-1435.172 -694.650,-1442.264 -956.527,-1481.135 -1685.839,-1589.429 -1787.153,-1604.606 -1799.941,-1607.151 -1862.810,-1703.251 -1918.721,-1807.032"/>
<polygon class="node-40" points="-2993.185,-304.506 -2976.930,-330.253 -2687.292,-781.262 -2665.153,-815.521 -2648.702,-840.921 -2639.903,-854.457 -2623.894,-873.809 -2605.585,-891.003 -2585.265,-905.766 -2563.256,-917.865 -2539.903,-927.111 -2515.576,-933.357 -2490.658,-936.505 -2465.542,-936.505 -2440.624,-933.357 -2416.297,-927.111 -2392.944,-917.865 -2370.935,-905.766 -2350.615,-891.003 -2332.306,-873.809 -2316.297,-854.457 -2302.839,-833.251 -2292.145,-810.525 -2284.383,-786.638 -2279.677,-761.967 -2278.100,-736.900 -2279.677,-711.833 -2284.383,-687.162 -2292.145,-663.275 -2302.839,-640.549 -2307.498,-632.879 -2351.588,-563.790 -2640.710,-113.563 -2652.015,-96.394 -2668.086,-78.506 -2679.850,-72.383 -2693.865,-68.280 -2709.911,-66.261 -2767.562,-72.863 -2810.849,-87.383 -2854.875,-109.009 -2896.872,-136.380 -2964.521,-201.226 -2992.834,-250.649"/>
<polygon class="node-41" points="-2650.997,-805.355 -2650.257,-831.544 -2646.998,-844.660 -2646.300,-846.770 -2633.621,-871.814 -2560.690,-1013.663 -2515.711,-1101.140 -2476.358,-1177.670 -2392.104,-1341.509 -2380.284,-1364.359 -2377.615,-1369.296 -2353.132,-1393.530 -2339.868,-1398.219 -2324.367,-1401.067 -2287.668,-1401.092 -2267.049,-1398.268 -2245.342,-1393.602 -2200.047,-1379.069 -2177.173,-1369.430 -2154.629,-1358.404 -2132.771,-1346.166 -2111.943,-1332.908 -2092.474,-1318.839 -2074.671,-1304.181 -2033.905,-1259.011 -2025.247,-1244.347 -2019.314,-1230.270 -2018.585,-1193.704 -2027.116,-1176.857 -2037.696,-1156.139 -2121.442,-993.218 -2160.489,-917.260 -2205.110,-830.465 -2277.779,-689.122 -2298.253,-649.985 -2317.572,-620.270 -2370.461,-606.787 -2395.528,-606.787 -2419.807,-613.021 -2471.371,-629.946 -2507.874,-645.265 -2562.533,-690.483 -2615.009,-736.900 -2641.660,-778.895"/>
<polygon class="node-42" points="4871.841,-690.870 4874.553,-704.983 4883.776,-746.022 4912.038,-870.826 4947.443,-1027.129 4956.853,-1068.663 4966.283,-1110.280 4968.811,-1121.384 4970.033,-1126.488 4977.795,-1150.375 4988.489,-1173.101 5001.947,-1194.307 5017.956,-1213.659 5036.265,-1230.853 5056.585,-1245.616 5078.594,-1257.715 5101.947,-1266.961 5126.274,-1273.207 5151.192,-1276.355 5176.308,-1276.355 5201.226,-1273.207 5225.553,-1266.961 5248.906,-1257.715 5270.915,-1245.616 5291.235,-1230.853 5309.544,-1213.659 5325.553,-1194.307 5339.011,-1173.101 5349.705,-1150.375 5357.467,-1126.488 5362.173,-1101.817 5363.750,-1076.750 5362.173,-1051.683 5358.689,-1032.116 5356.495,-1022.374 5347.037,-980.607 5337.559,-938.757 5302.134,-782.370 5240.724,-511.272 5239.417,-505.862 5231.288,-482.120 5220.615,-459.439 5207.184,-438.275 5191.494,-418.691 5173.185,-401.497 5152.865,-386.734 5130.856,-374.635 5107.503,-365.389 5081.999,-365.315 5057.063,-374.992 5035.540,-394.116 5006.305,-434.355 4995.647,-449.231 4899.122,-620.888 4880.346,-655.014 4875.661,-671.075"/>
<polygon class="node-43" points="-2736.755,1711.486 -2524.100,1481.965 -2504.508,1464.363 -2477.208,1440.341 -2457.173,1434.717 -2438.394,1430.013 -2067.783,1338.236 -1785.489,1268.330 -1767.998,1264.000 -1750.535,1259.682 -1733.152,1255.392 -1721.926,1252.893 -1697.008,1249.745 -1671.892,1249.745 -1646.974,1252.893 -1622.647,1259.139 -1599.294,1268.385 -1577.285,1280.484 -1556.965,1295.247 -1538.656,1312.441 -1522.647,1331.793 -1509.189,1352.999 -1498.495,1375.725 -1490.733,1399.612 -1486.027,1424.283 -1484.450,1449.350 -1486.027,1474.417 -1490.733,1499.088 -1498.495,1522.975 -1509.189,1545.701 -1522.647,1566.907 -1538.656,1586.259 -1556.965,1603.453 -1577.285,1618.216 -1599.294,1630.315 -1622.647,1639.561 -1635.748,1643.308 -1653.667,1647.760 -1671.506,1652.184 -1689.317,1656.596 -1971.855,1726.562 -2342.586,1818.367 -2359.109,1822.405 -2410.956,1835.036 -2416.312,1836.044 -2437.639,1839.502 -2461.216,1840.350 -2486.416,1837.346 -2649.572,1798.013 -2684.950,1778.662"/>
<polygon class="node-44" points="4968.744,-1121.148 4982.881,-1183.570 5006.456,-1287.651 5034.782,-1412.698 5046.641,-1465.045 5072.523,-1579.289 5086.896,-1642.646 5088.083,-1647.638 5095.845,-1671.525 5106.539,-1694.251 5119.997,-1715.457 5136.006,-1734.809 5154.315,-1752.003 5174.635,-1766.766 5196.644,-1778.865 5219.997,-1788.111 5244.324,-1794.357 5269.242,-1797.505 5294.358,-1797.505 5319.276,-1794.357 5343.603,-1788.111 5366.956,-1778.865 5388.965,-1766.766 5409.285,-1752.003 5427.594,-1734.809 5443.603,-1715.457 5457.061,-1694.251 5467.755,-1671.525 5475.517,-1647.638 5480.223,-1622.967 5481.800,-1597.900 5480.223,-1572.833 5476.704,-1553.154 5462.745,-1491.435 5436.685,-1376.373 5424.934,-1324.490 5396.596,-1199.385 5372.951,-1095.006 5358.756,-1032.352 5356.075,-1028.350 5350.360,-1025.111 5299.657,-1020.615 5281.020,-1021.694 5260.535,-1023.642 5238.523,-1026.427 5191.327,-1034.322 5094.811,-1057.446 5072.464,-1064.235 5051.556,-1071.222 5032.417,-1078.296 4988.469,-1098.928 4979.079,-1105.248"/>
<polygon class="node-45" points="-717.999,-1605.849 -699.895,-1712.973 -676.276,-1764.418 -647.041,-1804.657 -625.876,-1818.088 -572.805,-1828.169 -312.687,-1772.752 -17.410,-1709.843 7.793,-1704.463 19.953,-1701.865 33.493,-1697.015 46.138,-1689.162 57.689,-1678.431 67.963,-1664.989 89.623,-1610.717 95.354,-1565.843 95.430,-1541.823 89.994,-1492.503 77.443,-1444.069 68.729,-1421.142 34.546,-1361.784 21.070,-1346.179 6.895,-1333.104 -52.232,-1309.565 -66.453,-1311.335 -77.931,-1313.773 -100.004,-1318.465 -395.677,-1381.456 -501.252,-1403.956 -622.782,-1429.886 -640.618,-1433.736 -643.095,-1435.180 -671.663,-1455.646 -688.823,-1473.919 -700.899,-1495.885 -717.337,-1557.566"/>
<polygon class="node-46" points="4946.152,-493.085 4959.452,-510.217 4974.395,-527.752 4990.745,-545.413 5056.962,-571.064 5119.073,-585.838 5195.814,-601.640 5264.761,-611.265 5426.724,-431.838 5910.059,103.891 6053.445,262.827 6088.709,301.917 6102.303,318.643 6115.761,339.849 6126.455,362.575 6134.217,386.462 6138.923,411.133 6140.500,436.200 6138.923,461.267 6134.217,485.938 6126.455,509.825 6115.761,532.551 6102.303,553.757 6086.294,573.109 6067.985,590.303 6047.665,605.066 6025.656,617.165 6002.303,626.411 5977.976,632.657 5953.058,635.805 5927.942,635.805 5903.024,632.657 5878.697,626.411 5855.344,617.165 5833.335,605.066 5813.015,590.303 5794.706,573.109 5792.291,570.483 5755.971,530.229 5613.021,371.789 5129.972,-163.626 4969.807,-341.247 4965.665,-347.249 4948.761,-393.659"/>
<polygon class="node-47" points="5546.642,1869.955 5548.797,1684.879 5550.371,1659.862 5554.690,1630.622 5567.612,1606.492 5636.042,1578.995 5661.133,1579.389 5733.756,1597.635 5755.765,1609.734 5776.085,1624.497 5795.320,1642.932 5804.675,1653.067 5845.624,1698.435 5943.217,1806.631 6075.699,1953.509 6138.692,2023.359 6146.862,2032.673 6158.653,2047.143 6172.111,2068.349 6182.805,2091.075 6190.567,2114.962 6195.273,2139.633 6196.850,2164.700 6195.273,2189.767 6190.567,2214.438 6182.805,2238.325 6172.111,2261.051 6158.653,2282.257 6142.644,2301.609 6124.335,2318.803 6104.015,2333.566 6082.006,2345.665 6058.653,2354.911 6034.326,2361.157 6009.408,2364.305 5984.292,2364.305 5959.374,2361.157 5935.047,2354.911 5911.694,2345.665 5889.685,2333.566 5869.365,2318.803 5851.056,2301.609 5841.078,2290.597 5778.701,2221.451 5646.513,2074.893 5583.027,2004.465 5570.773,1990.826 5566.620,1984.825 5558.011,1970.473 5552.160,1948.484 5548.369,1930.041 5546.986,1909.248"/>
<polygon class="node-48" points="1704.517,-1674.111 1707.086,-1697.193 1714.076,-1726.884 1724.142,-1747.365 1732.535,-1760.522 1767.179,-1812.437 1819.124,-1890.277 1825.169,-1899.328 1834.513,-1913.297 1853.710,-1941.889 1854.597,-1943.157 1870.606,-1962.509 1888.915,-1979.703 1909.235,-1994.466 1931.244,-2006.565 1954.597,-2015.811 1978.924,-2022.057 2003.842,-2025.205 2028.958,-2025.205 2053.876,-2022.057 2078.203,-2015.811 2101.556,-2006.565 2123.565,-1994.466 2143.885,-1979.703 2162.194,-1962.509 2178.203,-1943.157 2191.661,-1921.951 2202.355,-1899.225 2210.117,-1875.338 2214.823,-1850.667 2216.400,-1825.600 2214.823,-1800.533 2210.117,-1775.862 2202.355,-1751.975 2191.661,-1729.249 2186.181,-1720.498 2181.745,-1713.493 2179.090,-1709.311 2173.869,-1701.384 2163.871,-1686.327 2156.007,-1674.508 2150.580,-1666.367 2099.277,-1589.479 2065.089,-1538.242 2054.971,-1523.936 2043.034,-1509.017 2026.333,-1493.363 2013.865,-1481.783 1991.832,-1465.784 1962.745,-1450.309 1928.682,-1434.639 1891.582,-1427.650 1867.164,-1429.337 1839.455,-1445.072 1819.665,-1457.558 1783.426,-1483.442 1765.944,-1503.689 1743.349,-1534.648 1726.951,-1567.351 1715.115,-1604.008 1708.563,-1627.148 1705.012,-1650.640"/>
<polygon class="node-49" points="5476.468,1631.104 5477.274,1626.819 5482.222,1602.956 5488.349,1574.444 5534.892,1360.264 5692.523,635.345 5721.682,501.258 5724.031,497.315 5990.553,329.831 6052.216,301.159 6085.144,300.370 6101.984,318.875 6115.415,340.039 6126.088,362.720 6134.217,386.462 6138.531,411.183 6138.531,461.217 6135.744,479.374 6112.614,585.926 6083.393,720.319 5925.772,1445.192 5878.907,1660.580 5873.358,1685.764 5866.630,1715.597 5862.753,1719.183 5853.094,1727.027 5822.743,1739.358 5782.229,1751.793 5590.121,1771.730 5567.480,1765.234 5546.210,1758.526 5526.647,1751.711 5497.809,1710.450 5479.134,1669.085"/>
<polygon class="node-50" points="-5315.700,-697.000 -5314.123,-722.067 -5309.417,-746.738 -5301.655,-770.625 -5290.961,-793.351 -5277.503,-814.557 -5261.494,-833.909 -5243.185,-851.103 -5222.865,-865.866 -5200.856,-877.965 -5177.503,-887.211 -5153.176,-893.457 -5128.258,-896.605 -5103.142,-896.605 -5078.224,-893.457 -5053.897,-887.211 -5030.544,-877.965 -5008.535,-865.866 -4988.215,-851.103 -4969.906,-833.909 -4953.897,-814.557 -4944.545,-800.237 -4926.784,-769.372 -4917.490,-753.047 -4791.081,-530.811 -4727.700,-419.378 -4707.533,-383.866 -4705.085,-379.514 -4701.101,-372.342 -4694.291,-359.061 -4690.943,-311.705 -4719.235,-265.043 -4757.695,-206.775 -4863.718,-143.339 -4886.759,-135.954 -4909.578,-130.679 -4931.815,-127.597 -4973.153,-128.168 -5008.175,-137.632 -5022.612,-145.534 -5044.199,-167.058 -5049.937,-176.978 -5057.211,-189.718 -5075.932,-222.574 -5138.937,-333.337 -5265.300,-555.493 -5275.450,-573.352 -5290.961,-600.649 -5301.655,-623.375 -5309.417,-647.262 -5314.123,-671.933"/>
<polygon class="node-51" points="-1748.315,1313.069 -1746.652,1282.869 -1721.007,1255.038 -1716.344,1251.338 -1608.825,1224.583 -1273.639,1141.578 -1044.093,1084.734 -868.109,1041.168 -839.376,1034.343 -814.458,1031.195 -789.342,1031.195 -764.424,1034.343 -740.097,1040.589 -716.744,1049.835 -694.735,1061.934 -674.415,1076.697 -656.106,1093.891 -640.097,1113.243 -626.639,1134.449 -615.945,1157.175 -608.183,1181.062 -603.477,1205.733 -601.900,1230.800 -603.477,1255.867 -608.183,1280.538 -615.945,1304.425 -626.639,1327.151 -640.097,1348.357 -656.106,1367.709 -674.415,1384.903 -694.735,1399.666 -716.744,1411.765 -740.097,1421.011 -752.096,1424.325 -770.993,1429.174 -948.029,1473.028 -1177.409,1529.830 -1512.961,1612.923 -1617.254,1638.620 -1642.678,1643.053 -1656.009,1632.833 -1695.062,1560.012 -1724.096,1469.316 -1743.322,1373.681 -1747.639,1331.522"/>
<polygon class="node-52" points="-2650.997,-805.355 -2650.257,-831.544 -2628.541,-846.202 -2406.109,-895.855 -2354.145,-901.401 -2326.110,-900.180 -2300.297,-895.545 -2274.269,-888.528 -2250.733,-882.099 -2168.668,-859.675 -2063.125,-830.835 -1946.138,-798.866 -1877.071,-779.989 -1851.555,-773.002 -1844.298,-770.961 -1832.247,-767.511 -1808.894,-758.265 -1786.885,-746.166 -1766.565,-731.403 -1748.256,-714.209 -1732.247,-694.857 -1718.789,-673.651 -1708.095,-650.925 -1700.333,-627.038 -1695.627,-602.367 -1694.050,-577.300 -1695.627,-552.233 -1700.333,-527.562 -1708.095,-503.675 -1718.789,-480.949 -1732.247,-459.743 -1748.256,-440.391 -1766.565,-423.197 -1786.885,-408.434 -1808.894,-396.335 -1832.247,-387.089 -1856.574,-380.843 -1881.492,-377.695 -1906.608,-377.695 -1931.526,-380.843 -1943.802,-383.639 -1959.907,-387.982 -1981.115,-393.763 -2052.220,-413.190 -2168.853,-445.061 -2273.568,-473.677 -2355.037,-495.941 -2378.225,-502.280 -2439.868,-519.175 -2452.903,-524.971 -2482.899,-543.247 -2504.881,-560.180 -2526.642,-583.270 -2545.232,-607.533 -2641.660,-778.895"/>
<polygon class="node-53" points="5843.452,2285.564 5860.410,2235.975 5870.289,2220.218 5882.163,2203.586 5927.750,2151.103 5945.468,2133.666 5963.996,2116.719 5983.042,2100.529 6002.306,2085.351 6021.484,2071.424 6040.273,2058.968 6118.492,2024.656 6129.258,2024.147 6137.936,2025.854 6152.430,2038.581 6228.897,2123.359 6486.140,2408.585 6491.385,2414.786 6506.903,2433.243 6520.361,2454.449 6531.055,2477.175 6538.817,2501.062 6543.523,2525.733 6545.100,2550.800 6543.523,2575.867 6538.817,2600.538 6531.055,2624.425 6520.361,2647.151 6506.903,2668.357 6490.894,2687.709 6472.585,2704.903 6452.265,2719.666 6430.256,2731.765 6406.903,2741.011 6382.576,2747.257 6357.658,2750.405 6332.542,2750.405 6307.624,2747.257 6283.297,2741.011 6259.944,2731.765 6237.935,2719.666 6217.615,2704.903 6199.306,2687.709 6190.130,2677.571 5931.963,2391.369 5855.200,2306.263 5845.186,2293.623"/>
<polygon class="node-54" points="5853.004,427.825 5891.308,320.600 5928.088,264.348 5948.001,239.559 5972.486,220.700 5982.919,215.220 6015.149,205.665 6152.113,165.166 6198.057,151.595 6253.009,135.367 6272.368,129.652 6338.422,110.190 6342.131,109.219 6364.874,103.343 6389.792,100.195 6414.908,100.195 6439.826,103.343 6464.153,109.589 6487.506,118.835 6509.515,130.934 6529.835,145.697 6548.144,162.891 6564.153,182.243 6577.611,203.449 6588.305,226.175 6596.067,250.062 6600.773,274.733 6602.350,299.800 6602.350,299.800 6600.773,324.867 6596.067,349.538 6588.305,373.425 6577.611,396.151 6564.153,417.357 6548.144,436.709 6529.835,453.903 6509.515,468.666 6487.506,480.765 6464.153,490.011 6447.804,494.866 6384.540,513.596 6366.951,518.793 6311.059,535.301 6264.633,549.010 6124.487,590.351 6101.295,597.164 6089.929,599.634 6077.808,599.052 6039.076,589.127 6011.299,576.633 5982.340,556.986 5925.403,518.063 5891.336,488.601 5858.947,452.123"/>
<polygon class="node-55" points="-1255.950,406.550 -1254.373,381.483 -1249.667,356.812 -1241.905,332.925 -1231.211,310.199 -1217.753,288.993 -1201.744,269.641 -1183.435,252.447 -1163.115,237.684 -1141.106,225.585 -1117.753,216.339 -1093.426,210.093 -1068.508,206.945 -1043.392,206.945 -1018.474,210.093 -994.147,216.339 -970.794,225.585 -948.785,237.684 -928.465,252.447 -910.156,269.641 -894.147,288.993 -880.689,310.199 -869.995,332.925 -864.360,349.393 -859.667,364.373 -707.295,858.730 -630.947,1106.456 -616.316,1154.060 -608.566,1181.160 -603.477,1205.733 -603.477,1230.800 -603.477,1255.867 -608.566,1280.440 -615.945,1304.425 -626.639,1327.151 -656.394,1367.439 -674.415,1384.903 -694.735,1399.666 -716.744,1411.765 -740.097,1421.011 -792.746,1376.306 -973.269,1201.371 -992.006,1183.097 -1035.438,1136.951 -1046.194,1114.156 -1049.433,1106.385 -1069.358,1042.048 -1089.583,976.440 -1242.071,481.697 -1247.540,463.707 -1249.667,456.288 -1254.373,431.617"/>
<polygon class="node-56" points="-793.999,-1747.378 -789.878,-1774.542 -782.434,-1812.725 -775.938,-1845.592 -741.854,-2018.020 -733.871,-2058.353 -730.043,-2077.673 -726.267,-2095.238 -718.505,-2119.125 -707.811,-2141.851 -694.353,-2163.057 -678.344,-2182.409 -660.035,-2199.603 -639.715,-2214.366 -617.706,-2226.465 -594.353,-2235.711 -570.026,-2241.957 -545.108,-2245.105 -519.992,-2245.105 -495.074,-2241.957 -470.747,-2235.711 -447.394,-2226.465 -425.385,-2214.366 -405.065,-2199.603 -386.756,-2182.409 -370.747,-2163.057 -357.289,-2141.851 -346.595,-2119.125 -338.833,-2095.238 -334.127,-2070.567 -332.550,-2045.500 -334.127,-2020.433 -335.276,-2013.694 -338.323,-1996.807 -341.027,-1983.087 -349.374,-1940.820 -383.876,-1766.328 -390.444,-1733.115 -400.294,-1683.309 -405.204,-1667.907 -411.181,-1650.906 -417.908,-1634.665 -455.611,-1579.581 -602.524,-1446.912 -625.876,-1446.912 -671.663,-1455.646 -688.823,-1473.919 -700.899,-1495.885 -764.952,-1614.816 -774.293,-1635.139 -782.025,-1666.879 -792.915,-1715.985"/>
<polygon class="node-57" points="-3419.300,2222.400 -3417.723,2197.333 -3413.017,2172.662 -3405.255,2148.775 -3394.561,2126.049 -3381.103,2104.843 -3365.094,2085.491 -3359.922,2080.555 -3344.524,2066.499 -3309.356,2036.458 -2878.648,1670.327 -2788.856,1594.004 -2763.923,1572.840 -2747.316,1560.226 -2728.894,1550.185 -2680.596,1528.247 -2658.767,1525.902 -2585.720,1522.791 -2563.336,1531.015 -2508.300,1588.089 -2473.394,1665.136 -2463.760,1687.800 -2456.783,1711.025 -2452.572,1734.444 -2451.195,1757.689 -2448.820,1806.219 -2465.201,1842.679 -2480.553,1856.787 -2500.537,1873.860 -2527.788,1897.056 -2620.640,1975.993 -3050.968,2341.802 -3091.815,2376.503 -3094.076,2378.301 -3112.135,2391.266 -3134.144,2403.365 -3157.497,2412.611 -3181.824,2418.857 -3206.742,2422.005 -3231.858,2422.005 -3256.776,2418.857 -3281.103,2412.611 -3304.456,2403.365 -3326.465,2391.266 -3346.785,2376.503 -3365.094,2359.309 -3381.103,2339.957 -3394.561,2318.751 -3405.255,2296.025 -3413.017,2272.138 -3417.723,2247.467"/>
<polygon class="node-58" points="-1510.000,-417.700 -1508.423,-442.767 -1503.717,-467.438 -1495.955,-491.325 -1485.261,-514.051 -1483.443,-517.285 -1205.293,-1002.910 -954.791,-1440.262 -884.842,-1562.374 -871.723,-1585.263 -848.502,-1620.580 -816.700,-1653.780 -802.873,-1656.616 -786.949,-1657.539 -769.178,-1656.534 -749.841,-1653.618 -480.030,-1549.100 -478.632,-1488.990 -492.494,-1445.996 -496.129,-1436.243 -607.593,-1241.634 -858.067,-804.330 -1136.557,-318.115 -1148.197,-300.143 -1164.206,-280.791 -1182.515,-263.597 -1202.835,-248.834 -1224.844,-236.735 -1248.197,-227.489 -1272.524,-221.243 -1297.442,-218.095 -1322.558,-218.095 -1347.476,-221.243 -1371.803,-227.489 -1395.156,-236.735 -1417.165,-248.834 -1437.485,-263.597 -1455.794,-280.791 -1471.803,-300.143 -1485.261,-321.349 -1495.955,-344.075 -1503.717,-367.962 -1508.423,-392.633"/>
<polygon class="node-59" points="6298.158,195.135 6318.027,129.626 6347.102,107.603 6382.189,97.217 6613.454,28.914 6760.977,-14.653 6809.294,-28.885 6826.724,-33.057 6851.642,-36.205 6876.758,-36.205 6901.676,-33.057 6926.003,-26.811 6949.356,-17.565 6971.365,-5.466 6991.685,9.297 7009.994,26.491 7026.003,45.843 7039.461,67.049 7050.155,89.775 7057.917,113.662 7062.623,138.333 7064.200,163.400 7064.200,163.400 7062.623,188.467 7057.917,213.138 7050.155,237.025 7039.461,259.751 7026.003,280.957 7009.994,300.309 6991.685,317.503 6971.365,332.266 6949.356,344.365 6926.003,353.611 6919.106,355.685 6875.053,368.733 6726.992,412.462 6496.407,480.559 6457.598,491.997 6433.600,491.719 6420.764,487.027 6407.638,479.382 6344.874,402.591 6324.769,358.566"/>
<polygon class="node-60" points="-2014.808,-526.431 -2004.769,-599.378 -1997.831,-623.512 -1941.635,-726.161 -1927.340,-740.813 -1882.242,-768.578 -1867.263,-771.950 -1844.472,-769.268 -1830.391,-767.232 -1736.898,-741.685 -1665.386,-722.143 -1455.014,-664.654 -1422.896,-655.846 -1414.620,-653.364 -1409.545,-651.058 -1397.203,-643.295 -1165.356,-399.427 -1141.743,-351.082 -1135.085,-321.539 -1164.494,-281.061 -1182.767,-263.901 -1202.835,-248.834 -1225.516,-238.162 -1346.812,-224.722 -1361.597,-224.478 -1374.393,-227.963 -1934.347,-380.984 -1949.297,-385.121 -1974.286,-399.667 -1994.234,-425.374 -2012.067,-481.162"/>
<polygon class="node-61" points="1824.755,-1810.465 1824.807,-1844.784 1826.052,-1880.272 1832.546,-1902.301 1841.939,-1923.120 1847.897,-1932.917 1855.823,-1945.134 1861.005,-1953.043 1873.229,-1971.365 1972.916,-2120.754 1986.575,-2141.204 1991.596,-2148.690 1997.997,-2158.057 2005.156,-2167.008 2014.006,-2177.409 2032.315,-2194.603 2052.635,-2209.366 2074.644,-2221.465 2097.997,-2230.711 2122.324,-2236.957 2147.242,-2240.105 2172.358,-2240.105 2197.276,-2236.957 2221.603,-2230.711 2244.956,-2221.465 2266.965,-2209.366 2287.285,-2194.603 2305.594,-2177.409 2321.603,-2158.057 2335.061,-2136.851 2345.755,-2114.125 2353.517,-2090.238 2358.223,-2065.567 2359.800,-2040.500 2358.223,-2015.433 2353.517,-1990.762 2345.755,-1966.875 2335.061,-1944.149 2328.004,-1932.310 2321.553,-1922.604 2306.532,-1900.074 2205.459,-1748.603 2194.739,-1732.541 2178.717,-1708.799 2164.012,-1691.359 2146.980,-1676.037 2127.889,-1663.074 2107.039,-1652.674 2084.760,-1645.000 2037.335,-1638.275 1964.691,-1650.185 1941.603,-1659.817 1896.855,-1695.483 1878.881,-1712.901 1863.121,-1732.164 1838.991,-1764.499 1830.406,-1787.179"/>
<polygon class="node-62" points="-1467.725,-264.618 -1399.585,-453.169 -1394.433,-464.117 -1371.416,-491.940 -1361.627,-499.052 -1351.024,-504.881 -1339.774,-509.335 -1294.043,-501.348 -1092.760,-391.157 -1088.640,-378.471 -1002.072,-97.655 -986.770,-48.009 -915.587,182.941 -874.784,315.361 -865.856,344.928 -863.853,353.083 -868.920,371.780 -885.738,392.662 -898.252,403.515 -930.503,425.193 -970.636,445.700 -1016.130,463.747 -1040.002,471.486 -1064.126,478.200 -1088.121,483.785 -1111.608,488.151 -1134.218,491.231 -1155.593,492.975 -1175.397,493.356 -1209.071,490.027 -1222.410,486.369 -1233.124,481.453 -1241.044,475.355 -1246.044,468.172 -1257.440,431.799 -1297.933,300.459 -1369.018,69.829 -1384.202,20.565 -1450.023,-193.052 -1455.679,-211.416 -1466.138,-245.700"/>
<polygon class="node-63" points="-729.868,-2059.321 -728.516,-2081.826 -727.002,-2091.444 -726.467,-2094.623 -725.921,-2097.725 -723.683,-2109.907 -715.640,-2150.610 -648.695,-2489.233 -644.617,-2508.238 -636.855,-2532.125 -626.161,-2554.851 -612.703,-2576.057 -596.694,-2595.409 -578.385,-2612.603 -558.065,-2627.366 -536.056,-2639.465 -512.703,-2648.711 -488.376,-2654.957 -463.458,-2658.105 -438.342,-2658.105 -413.424,-2654.957 -389.097,-2648.711 -365.744,-2639.465 -343.735,-2627.366 -323.415,-2612.603 -305.106,-2595.409 -289.097,-2576.057 -275.639,-2554.851 -264.945,-2532.125 -257.183,-2508.238 -252.477,-2483.567 -250.900,-2458.500 -252.477,-2433.433 -253.769,-2425.475 -256.371,-2411.247 -323.332,-2072.550 -331.619,-2030.653 -335.913,-2009.795 -344.154,-1984.456 -353.182,-1970.319 -379.536,-1945.806 -436.408,-1921.158 -506.783,-1913.973 -580.777,-1925.261 -643.781,-1960.203 -663.246,-1972.548 -680.624,-1986.174 -695.641,-2000.866 -708.060,-2016.392 -726.632,-2042.803"/>
<polygon class="node-64" points="-4444.600,2557.200 -4443.023,2532.133 -4438.317,2507.462 -4430.555,2483.575 -4419.861,2460.849 -4406.403,2439.643 -4390.394,2420.291 -4372.085,2403.097 -4351.765,2388.334 -4329.756,2376.235 -4307.535,2367.430 -4235.212,2343.751 -4204.199,2333.615 -3793.753,2199.589 -3769.426,2193.343 -3744.508,2190.195 -3719.392,2190.195 -3694.474,2193.343 -3670.147,2199.589 -3646.794,2208.835 -3624.785,2220.934 -3604.465,2235.697 -3586.156,2252.891 -3570.147,2272.243 -3556.689,2293.449 -3545.995,2316.175 -3538.233,2340.062 -3533.527,2364.733 -3531.950,2389.800 -3533.527,2414.867 -3538.233,2439.538 -3545.995,2463.425 -3556.689,2486.151 -3570.147,2507.357 -3586.156,2526.709 -3604.465,2543.903 -3624.785,2558.666 -3646.794,2570.765 -3670.543,2580.100 -3679.883,2583.185 -3741.521,2603.317 -4079.941,2713.825 -4182.797,2747.411 -4207.124,2753.657 -4232.042,2756.805 -4257.158,2756.805 -4282.076,2753.657 -4306.403,2747.411 -4329.756,2738.165 -4351.765,2726.066 -4372.085,2711.303 -4390.394,2694.109 -4406.403,2674.757 -4419.861,2653.551 -4430.555,2630.825 -4438.317,2606.938 -4443.023,2582.267"/>
<polygon class="node-65" points="-3801.989,2240.249 -3801.821,2215.628 -3800.079,2207.350 -3785.168,2196.982 -3753.194,2186.347 -3650.596,2152.843 -3589.045,2132.744 -3342.982,2052.395 -3322.733,2045.793 -3305.932,2042.337 -3186.459,2050.243 -3167.118,2061.799 -3101.350,2111.638 -3055.740,2180.405 -3039.762,2245.081 -3049.545,2315.724 -3060.363,2337.875 -3091.815,2376.503 -3112.135,2391.266 -3134.816,2401.938 -3158.529,2412.798 -3167.079,2415.726 -3218.654,2432.581 -3464.735,2512.936 -3526.220,2533.013 -3628.682,2566.469 -3658.226,2575.922 -3675.299,2579.524 -3681.008,2575.968 -3687.521,2569.477 -3694.734,2560.152 -3728.191,2498.073 -3745.820,2455.712 -3777.411,2361.488"/>
<polygon class="node-66" points="-1613.350,-451.450 -1611.773,-476.517 -1607.067,-501.188 -1599.305,-525.075 -1588.611,-547.801 -1575.153,-569.007 -1559.144,-588.359 -1540.835,-605.553 -1520.515,-620.316 -1498.506,-632.415 -1475.153,-641.661 -1450.826,-647.907 -1425.908,-651.055 -1410.250,-651.067 -1400.792,-651.055 -1385.663,-649.396 -1375.874,-647.907 -1361.512,-644.603 -1352.961,-642.081 -1351.547,-641.661 -1280.308,-618.396 -1277.609,-617.515 -1268.842,-614.545 -1258.656,-610.712 -1246.287,-604.676 -1236.567,-599.828 -1216.027,-586.200 -1196.421,-570.467 -1179.776,-552.172 -1165.750,-534.830 -1150.156,-509.299 -1136.985,-477.631 -1131.584,-462.334 -1123.966,-420.105 -1125.927,-395.094 -1130.548,-381.386 -1137.631,-363.172 -1153.174,-331.401 -1163.729,-317.310 -1178.283,-300.375 -1195.012,-281.754 -1219.400,-263.481 -1243.854,-249.989 -1266.387,-239.526 -1290.000,-232.001 -1314.319,-227.532 -1338.961,-226.190 -1359.915,-227.112 -1384.079,-231.841 -1387.662,-232.921 -1400.267,-236.785 -1405.836,-238.604 -1457.420,-255.449 -1466.989,-258.583 -1471.858,-260.183 -1476.392,-261.722 -1488.522,-266.136 -1498.506,-270.485 -1510.669,-276.898 -1520.515,-282.584 -1540.835,-297.347 -1559.144,-314.541 -1575.153,-333.893 -1588.611,-355.099 -1599.305,-377.825 -1607.067,-401.712 -1611.773,-426.383"/>
<polygon class="node-67" points="-3321.330,2374.917 -3319.415,2354.505 -3288.193,2075.996 -3276.763,2045.546 -3186.459,2050.243 -3167.118,2061.799 -3077.581,2117.955 -3054.596,2136.249 -3028.031,2158.427 -3015.346,2172.302 -3006.418,2185.232 -2984.270,2220.450 -2962.583,2254.937 -2814.609,2490.257 -2786.988,2534.209 -2777.974,2548.746 -2770.589,2560.899 -2759.895,2583.625 -2752.133,2607.512 -2747.427,2632.183 -2745.850,2657.250 -2747.427,2682.317 -2752.133,2706.988 -2759.895,2730.875 -2770.589,2753.601 -2784.047,2774.807 -2800.056,2794.159 -2818.365,2811.353 -2838.685,2826.116 -2860.694,2838.215 -2884.047,2847.461 -2908.374,2853.707 -2933.292,2856.855 -2958.408,2856.855 -2983.326,2853.707 -3007.653,2847.461 -3031.006,2838.215 -3053.015,2826.116 -3073.335,2811.353 -3091.644,2794.159 -3107.653,2774.807 -3113.726,2765.754 -3126.588,2745.503 -3131.086,2738.356 -3153.657,2702.485 -3301.009,2468.167 -3312.854,2449.232 -3315.692,2440.672 -3320.891,2419.260"/>
<polygon class="node-68" points="-3442.400,1849.250 -3440.823,1824.183 -3436.117,1799.512 -3428.355,1775.625 -3417.661,1752.899 -3404.203,1731.693 -3388.194,1712.341 -3369.885,1695.147 -3349.565,1680.384 -3327.556,1668.285 -3304.203,1659.039 -3279.876,1652.793 -3254.958,1649.645 -3229.842,1649.645 -3204.924,1652.793 -3180.597,1659.039 -3157.244,1668.285 -3135.235,1680.384 -3114.915,1695.147 -3096.606,1712.341 -3080.597,1731.693 -3067.139,1752.899 -3056.445,1775.625 -3048.683,1799.512 -3043.977,1824.183 -3042.883,1835.424 -3038.165,1911.475 -3033.563,1985.829 -3032.645,2000.658 -3025.769,2111.831 -3023.671,2146.735 -3022.723,2162.872 -3033.600,2186.885 -3054.726,2204.721 -3072.548,2215.326 -3109.786,2233.747 -3131.095,2244.066 -3177.440,2266.082 -3281.622,2296.907 -3305.875,2298.237 -3327.337,2283.231 -3367.127,2246.817 -3392.128,2217.696 -3406.905,2191.661 -3416.362,2167.357 -3422.382,2149.690 -3425.301,2131.521 -3431.827,2026.214 -3432.757,2011.191 -3437.395,1936.285 -3441.917,1863.076"/>
<polygon class="node-69" points="-3119.102,2745.615 -3116.976,2734.404 -3112.152,2721.977 -3094.752,2694.272 -3082.451,2679.431 -3067.996,2664.240 -3051.614,2648.939 -3033.565,2633.769 -3014.132,2618.970 -2993.623,2604.774 -2972.360,2591.406 -2928.922,2567.979 -2907.431,2558.290 -2866.598,2543.721 -2847.899,2539.072 -2830.744,2536.287 -2791.108,2539.401 -2776.533,2550.799 -2623.325,2794.437 -2529.916,2943.017 -2507.883,2978.085 -2503.884,2984.453 -2497.139,2995.749 -2486.445,3018.475 -2478.683,3042.362 -2473.977,3067.033 -2472.400,3092.100 -2473.977,3117.167 -2478.683,3141.838 -2486.445,3165.725 -2497.139,3188.451 -2510.597,3209.657 -2526.606,3229.009 -2544.915,3246.203 -2565.235,3260.966 -2587.244,3273.065 -2610.597,3282.311 -2634.924,3288.557 -2659.842,3291.705 -2684.958,3291.705 -2709.876,3288.557 -2734.203,3282.311 -2757.556,3273.065 -2779.565,3260.966 -2799.885,3246.203 -2818.194,3229.009 -2834.203,3209.657 -2840.916,3199.747 -2869.574,3154.213 -2962.111,3007.095 -3115.167,2763.701 -3118.496,2755.432"/>
<polygon class="node-70" points="-1716.700,-485.200 -1715.123,-510.267 -1710.417,-534.938 -1702.655,-558.825 -1691.961,-581.551 -1678.503,-602.757 -1662.494,-622.109 -1644.185,-639.303 -1623.865,-654.066 -1601.856,-666.165 -1578.503,-675.411 -1554.176,-681.657 -1529.258,-684.805 -1504.142,-684.805 -1483.378,-682.314 -1479.224,-681.657 -1459.382,-676.808 -1454.897,-675.411 -1427.711,-666.534 -1382.408,-651.739 -1357.611,-643.627 -1353.836,-642.369 -1339.455,-637.114 -1332.283,-634.237 -1317.355,-626.253 -1296.801,-612.647 -1272.124,-591.867 -1256.132,-572.977 -1247.508,-557.693 -1231.800,-529.776 -1218.875,-481.653 -1216.974,-456.684 -1223.279,-413.105 -1229.893,-388.876 -1239.909,-359.903 -1252.824,-338.392 -1266.643,-323.619 -1283.885,-305.487 -1305.751,-285.769 -1327.191,-273.120 -1349.990,-263.284 -1373.789,-256.415 -1394.732,-253.881 -1419.373,-252.513 -1447.383,-254.454 -1468.080,-259.193 -1471.358,-260.049 -1477.357,-261.973 -1506.302,-271.411 -1551.947,-286.316 -1567.486,-291.393 -1578.370,-294.953 -1584.241,-297.146 -1597.109,-302.119 -1601.856,-304.235 -1618.933,-313.534 -1623.865,-316.334 -1644.185,-331.097 -1662.494,-348.291 -1678.503,-367.643 -1691.961,-388.849 -1702.655,-411.575 -1710.417,-435.462 -1715.123,-460.133"/>
<polygon class="node-71" points="-3465.500,1476.100 -3463.923,1451.033 -3459.217,1426.362 -3451.455,1402.475 -3440.761,1379.749 -3427.303,1358.543 -3411.294,1339.191 -3392.985,1321.997 -3372.665,1307.234 -3350.656,1295.135 -3327.303,1285.889 -3302.976,1279.643 -3278.058,1276.495 -3252.942,1276.495 -3228.024,1279.643 -3203.697,1285.889 -3180.344,1295.135 -3158.335,1307.234 -3138.015,1321.997 -3119.706,1339.191 -3103.697,1358.543 -3090.239,1379.749 -3079.545,1402.475 -3071.783,1426.362 -3067.077,1451.033 -3065.691,1468.669 -3064.123,1492.283 -3061.330,1537.357 -3044.223,1813.666 -3043.634,1823.265 -3042.646,1839.689 -3043.568,1858.081 -3047.626,1876.333 -3077.733,1927.413 -3093.219,1942.319 -3111.058,1955.757 -3152.635,1977.409 -3175.718,1985.281 -3249.743,1995.700 -3274.713,1994.591 -3299.173,1991.190 -3384.448,1956.258 -3414.936,1928.031 -3434.583,1894.853 -3438.488,1877.246 -3442.154,1858.811 -3443.014,1845.383 -3443.349,1840.056 -3460.430,1564.103 -3463.181,1519.621 -3465.309,1483.531"/>
</svg>