<?xml version="1.0" encoding="UTF-8"?>
<svg xmlns="http://www.w3.org/2000/svg" viewBox="-70.150 -32.447 145.792 75.910">
<defs>
<style>
.node-0{fill:url(#node-0);}
.node-1{fill:url(#node-1);}
.node-2{fill:url(#node-2);}
.node-3{fill:url(#node-3);}
.node-4{fill:url(#node-4);}
.node-5{fill:url(#node-5);}
.node-6{fill:url(#node-6);}
.node-7{fill:url(#node-7);}
.node-8{fill:url(#node-8);}
.node-9{fill:url(#node-9);}
.node-10{fill:url(#node-10);}
.node-11{fill:url(#node-11);}
.node-12{fill:url(#node-12);}
.node-13{fill:url(#node-13);}
.node-14{fill:url(#node-14);}
.node-15{fill:url(#node-15);}
.node-16{fill:url(#node-16);}
.node-17{fill:url(#node-17);}
.node-18{fill:url(#node-18);}
.node-19{fill:url(#node-19);}
.node-20{fill:url(#node-20);}
.node-21{fill:url(#node-21);}
.node-22{fill:url(#node-22);}
.node-23{fill:url(#node-23);}
.node-24{fill:url(#node-24);}
.node-25{fill:url(#node-25);}
.node-26{fill:url(#node-26);}
.node-27{fill:url(#node-27);}
.node-28{fill:url(#node-28);}
.node-29{fill:url(#node-29);}
.node-30{fill:url(#node-30);}
.node-31{fill:url(#node-31);}
.node-32{fill:url(#node-32);}
.node-33{fill:url(#node-33);}
.node-34{fill:url(#node-34);}
.node-35{fill:url(#node-35);}
.node-36{fill:url(#node-36);}
.node-37{fill:url(#node-37);}
.node-38{fill:url(#node-38);}
.node-39{fill:url(#node-39);}
.node-40{fill:url(#node-40);}
.node-41{fill:url(#node-41);}
.node-42{fill:url(#node-42);}
.node-43{fill:url(#node-43);}
.node-44{fill:url(#node-44);}
.node-45{fill:url(#node-45);}
.node-46{fill:url(#node-46);}
.node-47{fill:url(#node-47);}
.node-48{fill:url(#node-48);}
.node-49{fill:url(#node-49);}
.node-50{fill:url(#node-50);}
.node-51{fill:url(#node-51);}
.node-52{fill:url(#node-52);}
.node-53{fill:url(#node-53);}
.node-54{fill:url(#node-54);}
.node-55{fill:url(#node-55);}
.node-56{fill:url(#node-56);}
.node-57{fill:url(#node-57);}
.node-58{fill:url(#node-58);}
.node-59{fill:url(#node-59);}
.node-60{fill:url(#node-60);}
.node-61{fill:url(#node-61);}
.node-62{fill:url(#node-62);}
.node-63{fill:url(#node-63);}
.node-64{fill:url(#node-64);}
.node-65{fill:url(#node-65);}
.node-66{fill:url(#node-66);}
.node-67{fill:url(#node-67);}
.node-68{fill:url(#node-68);}
.node-69{fill:url(#node-69);}
.node-70{fill:url(#node-70);}
.node-71{fill:url(#node-71);}
</style>
<linearGradient id="node-0" x1="-69.920" y1="76.638" x2="-62.526" y2="71.337" gradientUnits="userSpaceOnUse" spreadMethod="reflect" gradientTransform="rotate(90)" opacity="1.0"><stop offset="0.00" stop-color="#ffffff"/><stop offset="1.00" stop-color="#bfbfbf"/></linearGradient>
<linearGradient id="node-1" x1="79.873" y1="-33.452" x2="72.687" y2="-28.938" gradientUnits="userSpaceOnUse" spreadMethod="reflect" gradientTransform="rotate(90)" opacity="1.0"><stop offset="0.00" stop-color="#ffffff"/><stop offset="1.00" stop-color="#bfbfbf"/></linearGradient>
<linearGradient id="node-2" x1="-77.313" y1="81.939" x2="-69.920" y2="76.638" gradientUnits="userSpaceOnUse" spreadMethod="reflect" gradientTransform="rotate(90)" opacity="1.0"><stop offset="0.00" stop-color="#505050"/><stop offset="1.00" stop-color="#3c3c3c"/></linearGradient>
<linearGradient id="node-3" x1="-92.448" y1="7.929" x2="-89.883" y2="5.778" gradientUnits="userSpaceOnUse" spreadMethod="reflect" gradientTransform="rotate(90)" opacity="1.0"><stop offset="0.00" stop-color="#ffffff"/><stop offset="1.00" stop-color="#bfbfbf"/></linearGradient>
<linearGradient id="node-4" x1="87.060" y1="-37.965" x2="79.873" y2="-33.452" gradientUnits="userSpaceOnUse" spreadMethod="reflect" gradientTransform="rotate(90)" opacity="1.0"><stop offset="0.00" stop-color="#505050"/><stop offset="1.00" stop-color="#3c3c3c"/></linearGradient>
<linearGradient id="node-5" x1="-92.669" y1="86.148" x2="-108.024" y2="90.357" gradientUnits="userSpaceOnUse" spreadMethod="reflect" gradientTransform="rotate(90)" opacity="1.0"><stop offset="0.00" stop-color="#ffffff"/><stop offset="1.00" stop-color="#bfbfbf"/></linearGradient>
<linearGradient id="node-6" x1="93.169" y1="38.368" x2="79.329" y2="42.618" gradientUnits="userSpaceOnUse" spreadMethod="reflect" gradientTransform="rotate(90)" opacity="1.0"><stop offset="0.00" stop-color="#ffffff"/><stop offset="1.00" stop-color="#bfbfbf"/></linearGradient>
<linearGradient id="node-7" x1="95.210" y1="-51.819" x2="103.359" y2="-65.673" gradientUnits="userSpaceOnUse" spreadMethod="reflect" gradientTransform="rotate(90)" opacity="1.0"><stop offset="0.00" stop-color="#ffffff"/><stop offset="1.00" stop-color="#bfbfbf"/></linearGradient>
<linearGradient id="node-8" x1="-77.313" y1="81.939" x2="-92.669" y2="86.148" gradientUnits="userSpaceOnUse" spreadMethod="reflect" gradientTransform="rotate(90)" opacity="1.0"><stop offset="0.00" stop-color="#505050"/><stop offset="1.00" stop-color="#3c3c3c"/></linearGradient>
<linearGradient id="node-9" x1="15.054" y1="-35.880" x2="13.077" y2="-30.339" gradientUnits="userSpaceOnUse" spreadMethod="reflect" gradientTransform="rotate(90)" opacity="1.0"><stop offset="0.00" stop-color="#ffffff"/><stop offset="1.00" stop-color="#bfbfbf"/></linearGradient>
<linearGradient id="node-10" x1="87.060" y1="-37.965" x2="95.210" y2="-51.819" gradientUnits="userSpaceOnUse" spreadMethod="reflect" gradientTransform="rotate(90)" opacity="1.0"><stop offset="0.00" stop-color="#505050"/><stop offset="1.00" stop-color="#3c3c3c"/></linearGradient>
<linearGradient id="node-11" x1="-68.526" y1="-76.353" x2="-63.034" y2="-65.568" gradientUnits="userSpaceOnUse" spreadMethod="reflect" gradientTransform="rotate(90)" opacity="1.0"><stop offset="0.00" stop-color="#ff0000"/><stop offset="1.00" stop-color="#bf0000"/></linearGradient>
<linearGradient id="node-12" x1="-77.313" y1="81.939" x2="-69.656" y2="95.670" gradientUnits="userSpaceOnUse" spreadMethod="reflect" gradientTransform="rotate(90)" opacity="1.0"><stop offset="0.00" stop-color="#505050"/><stop offset="1.00" stop-color="#3c3c3c"/></linearGradient>
<linearGradient id="node-13" x1="107.010" y1="34.119" x2="93.169" y2="38.368" gradientUnits="userSpaceOnUse" spreadMethod="reflect" gradientTransform="rotate(90)" opacity="1.0"><stop offset="0.00" stop-color="#505050"/><stop offset="1.00" stop-color="#3c3c3c"/></linearGradient>
<linearGradient id="node-14" x1="-160.551" y1="32.280" x2="-175.000" y2="30.783" gradientUnits="userSpaceOnUse" spreadMethod="reflect" gradientTransform="rotate(90)" opacity="1.0"><stop offset="0.00" stop-color="#ff0000"/><stop offset="1.00" stop-color="#bf0000"/></linearGradient>
<linearGradient id="node-15" x1="-69.656" y1="95.670" x2="-61.998" y2="109.401" gradientUnits="userSpaceOnUse" spreadMethod="reflect" gradientTransform="rotate(90)" opacity="1.0"><stop offset="0.00" stop-color="#ffffff"/><stop offset="1.00" stop-color="#bfbfbf"/></linearGradient>
<linearGradient id="node-16" x1="87.060" y1="-37.965" x2="116.037" y2="-5.847" gradientUnits="userSpaceOnUse" spreadMethod="reflect" gradientTransform="rotate(90)" opacity="1.0"><stop offset="0.00" stop-color="#505050"/><stop offset="1.00" stop-color="#3c3c3c"/></linearGradient>
<linearGradient id="node-17" x1="-175.000" y1="30.783" x2="-189.450" y2="29.286" gradientUnits="userSpaceOnUse" spreadMethod="reflect" gradientTransform="rotate(90)" opacity="1.0"><stop offset="0.00" stop-color="#ffffff"/><stop offset="1.00" stop-color="#bfbfbf"/></linearGradient>
<linearGradient id="node-18" x1="-95.013" y1="10.080" x2="-92.448" y2="7.929" gradientUnits="userSpaceOnUse" spreadMethod="reflect" gradientTransform="rotate(90)" opacity="1.0"><stop offset="0.00" stop-color="#505050"/><stop offset="1.00" stop-color="#3c3c3c"/></linearGradient>
<linearGradient id="node-19" x1="116.037" y1="-5.847" x2="107.010" y2="34.119" gradientUnits="userSpaceOnUse" spreadMethod="reflect" gradientTransform="rotate(90)" opacity="1.0"><stop offset="0.00" stop-color="#505050"/><stop offset="1.00" stop-color="#3c3c3c"/></linearGradient>
<linearGradient id="node-20" x1="-160.551" y1="32.280" x2="-149.720" y2="18.504" gradientUnits="userSpaceOnUse" spreadMethod="reflect" gradientTransform="rotate(90)" opacity="1.0"><stop offset="0.00" stop-color="#ff0000"/><stop offset="1.00" stop-color="#bf0000"/></linearGradient>
<linearGradient id="node-21" x1="17.031" y1="-41.421" x2="15.054" y2="-35.880" gradientUnits="userSpaceOnUse" spreadMethod="reflect" gradientTransform="rotate(90)" opacity="1.0"><stop offset="0.00" stop-color="#0000ff"/><stop offset="1.00" stop-color="#0000bf"/></linearGradient>
<linearGradient id="node-22" x1="107.010" y1="34.119" x2="133.857" y2="63.870" gradientUnits="userSpaceOnUse" spreadMethod="reflect" gradientTransform="rotate(90)" opacity="1.0"><stop offset="0.00" stop-color="#505050"/><stop offset="1.00" stop-color="#3c3c3c"/></linearGradient>
<linearGradient id="node-23" x1="-63.034" y1="-65.568" x2="-57.543" y2="-54.783" gradientUnits="userSpaceOnUse" spreadMethod="reflect" gradientTransform="rotate(90)" opacity="1.0"><stop offset="0.00" stop-color="#505050"/><stop offset="1.00" stop-color="#3c3c3c"/></linearGradient>
<linearGradient id="node-24" x1="130.443" y1="79.549" x2="127.029" y2="95.229" gradientUnits="userSpaceOnUse" spreadMethod="reflect" gradientTransform="rotate(90)" opacity="1.0"><stop offset="0.00" stop-color="#ffffff"/><stop offset="1.00" stop-color="#bfbfbf"/></linearGradient>
<linearGradient id="node-25" x1="-77.010" y1="50.037" x2="-77.313" y2="81.939" gradientUnits="userSpaceOnUse" spreadMethod="reflect" gradientTransform="rotate(90)" opacity="1.0"><stop offset="0.00" stop-color="#505050"/><stop offset="1.00" stop-color="#3c3c3c"/></linearGradient>
<linearGradient id="node-26" x1="56.190" y1="-48.321" x2="87.060" y2="-37.965" gradientUnits="userSpaceOnUse" spreadMethod="reflect" gradientTransform="rotate(90)" opacity="1.0"><stop offset="0.00" stop-color="#505050"/><stop offset="1.00" stop-color="#3c3c3c"/></linearGradient>
<linearGradient id="node-27" x1="133.857" y1="63.870" x2="130.443" y2="79.549" gradientUnits="userSpaceOnUse" spreadMethod="reflect" gradientTransform="rotate(90)" opacity="1.0"><stop offset="0.00" stop-color="#505050"/><stop offset="1.00" stop-color="#3c3c3c"/></linearGradient>
<linearGradient id="node-28" x1="-149.720" y1="18.504" x2="-138.888" y2="4.728" gradientUnits="userSpaceOnUse" spreadMethod="reflect" gradientTransform="rotate(90)" opacity="1.0"><stop offset="0.00" stop-color="#505050"/><stop offset="1.00" stop-color="#3c3c3c"/></linearGradient>
<linearGradient id="node-29" x1="-95.013" y1="10.080" x2="-138.888" y2="4.728" gradientUnits="userSpaceOnUse" spreadMethod="reflect" gradientTransform="rotate(90)" opacity="1.0"><stop offset="0.00" stop-color="#505050"/><stop offset="1.00" stop-color="#3c3c3c"/></linearGradient>
<linearGradient id="node-30" x1="17.031" y1="-41.421" x2="36.611" y2="-44.871" gradientUnits="userSpaceOnUse" spreadMethod="reflect" gradientTransform="rotate(90)" opacity="1.0"><stop offset="0.00" stop-color="#0000ff"/><stop offset="1.00" stop-color="#0000bf"/></linearGradient>
<linearGradient id="node-31" x1="-84.678" y1="-6.013" x2="-95.013" y2="10.080" gradientUnits="userSpaceOnUse" spreadMethod="reflect" gradientTransform="rotate(90)" opacity="1.0"><stop offset="0.00" stop-color="#505050"/><stop offset="1.00" stop-color="#3c3c3c"/></linearGradient>
<linearGradient id="node-32" x1="116.037" y1="-5.847" x2="151.371" y2="-16.668" gradientUnits="userSpaceOnUse" spreadMethod="reflect" gradientTransform="rotate(90)" opacity="1.0"><stop offset="0.00" stop-color="#505050"/><stop offset="1.00" stop-color="#3c3c3c"/></linearGradient>
<linearGradient id="node-33" x1="-65.943" y1="-38.445" x2="-57.543" y2="-54.783" gradientUnits="userSpaceOnUse" spreadMethod="reflect" gradientTransform="rotate(90)" opacity="1.0"><stop offset="0.00" stop-color="#505050"/><stop offset="1.00" stop-color="#3c3c3c"/></linearGradient>
<linearGradient id="node-34" x1="-77.010" y1="50.037" x2="-95.013" y2="10.080" gradientUnits="userSpaceOnUse" spreadMethod="reflect" gradientTransform="rotate(90)" opacity="1.0"><stop offset="0.00" stop-color="#505050"/><stop offset="1.00" stop-color="#3c3c3c"/></linearGradient>
<linearGradient id="node-35" x1="17.031" y1="-41.421" x2="-0.697" y2="-45.198" gradientUnits="userSpaceOnUse" spreadMethod="reflect" gradientTransform="rotate(90)" opacity="1.0"><stop offset="0.00" stop-color="#0000ff"/><stop offset="1.00" stop-color="#0000bf"/></linearGradient>
<linearGradient id="node-36" x1="133.857" y1="63.870" x2="169.458" y2="53.358" gradientUnits="userSpaceOnUse" spreadMethod="reflect" gradientTransform="rotate(90)" opacity="1.0"><stop offset="0.00" stop-color="#505050"/><stop offset="1.00" stop-color="#3c3c3c"/></linearGradient>
<linearGradient id="node-37" x1="36.611" y1="-44.871" x2="56.190" y2="-48.321" gradientUnits="userSpaceOnUse" spreadMethod="reflect" gradientTransform="rotate(90)" opacity="1.0"><stop offset="0.00" stop-color="#505050"/><stop offset="1.00" stop-color="#3c3c3c"/></linearGradient>
<linearGradient id="node-38" x1="-146.180" y1="-8.091" x2="-138.888" y2="4.728" gradientUnits="userSpaceOnUse" spreadMethod="reflect" gradientTransform="rotate(90)" opacity="1.0"><stop offset="0.00" stop-color="#505050"/><stop offset="1.00" stop-color="#3c3c3c"/></linearGradient>
<linearGradient id="node-39" x1="-18.426" y1="-48.975" x2="-57.543" y2="-54.783" gradientUnits="userSpaceOnUse" spreadMethod="reflect" gradientTransform="rotate(90)" opacity="1.0"><stop offset="0.00" stop-color="#505050"/><stop offset="1.00" stop-color="#3c3c3c"/></linearGradient>
<linearGradient id="node-40" x1="-74.343" y1="-22.107" x2="-84.678" y2="-6.013" gradientUnits="userSpaceOnUse" spreadMethod="reflect" gradientTransform="rotate(90)" opacity="1.0"><stop offset="0.00" stop-color="#0000ff"/><stop offset="1.00" stop-color="#0000bf"/></linearGradient>
<linearGradient id="node-41" x1="-74.343" y1="-22.107" x2="-65.943" y2="-38.445" gradientUnits="userSpaceOnUse" spreadMethod="reflect" gradientTransform="rotate(90)" opacity="1.0"><stop offset="0.00" stop-color="#0000ff"/><stop offset="1.00" stop-color="#0000bf"/></linearGradient>
<linearGradient id="node-42" x1="151.371" y1="-16.668" x2="154.913" y2="-32.303" gradientUnits="userSpaceOnUse" spreadMethod="reflect" gradientTransform="rotate(90)" opacity="1.0"><stop offset="0.00" stop-color="#505050"/><stop offset="1.00" stop-color="#3c3c3c"/></linearGradient>
<linearGradient id="node-43" x1="-50.534" y1="43.480" x2="-77.010" y2="50.037" gradientUnits="userSpaceOnUse" spreadMethod="reflect" gradientTransform="rotate(90)" opacity="1.0"><stop offset="0.00" stop-color="#505050"/><stop offset="1.00" stop-color="#3c3c3c"/></linearGradient>
<linearGradient id="node-44" x1="154.913" y1="-32.303" x2="158.454" y2="-47.937" gradientUnits="userSpaceOnUse" spreadMethod="reflect" gradientTransform="rotate(90)" opacity="1.0"><stop offset="0.00" stop-color="#ffffff"/><stop offset="1.00" stop-color="#bfbfbf"/></linearGradient>
<linearGradient id="node-45" x1="-0.697" y1="-45.198" x2="-18.426" y2="-48.975" gradientUnits="userSpaceOnUse" spreadMethod="reflect" gradientTransform="rotate(90)" opacity="1.0"><stop offset="0.00" stop-color="#505050"/><stop offset="1.00" stop-color="#3c3c3c"/></linearGradient>
<linearGradient id="node-46" x1="151.371" y1="-16.668" x2="178.215" y2="13.086" gradientUnits="userSpaceOnUse" spreadMethod="reflect" gradientTransform="rotate(90)" opacity="1.0"><stop offset="0.00" stop-color="#505050"/><stop offset="1.00" stop-color="#3c3c3c"/></linearGradient>
<linearGradient id="node-47" x1="169.458" y1="53.358" x2="179.906" y2="64.941" gradientUnits="userSpaceOnUse" spreadMethod="reflect" gradientTransform="rotate(90)" opacity="1.0"><stop offset="0.00" stop-color="#505050"/><stop offset="1.00" stop-color="#3c3c3c"/></linearGradient>
<linearGradient id="node-48" x1="60.492" y1="-54.768" x2="56.190" y2="-48.321" gradientUnits="userSpaceOnUse" spreadMethod="reflect" gradientTransform="rotate(90)" opacity="1.0"><stop offset="0.00" stop-color="#505050"/><stop offset="1.00" stop-color="#3c3c3c"/></linearGradient>
<linearGradient id="node-49" x1="178.215" y1="13.086" x2="169.458" y2="53.358" gradientUnits="userSpaceOnUse" spreadMethod="reflect" gradientTransform="rotate(90)" opacity="1.0"><stop offset="0.00" stop-color="#505050"/><stop offset="1.00" stop-color="#3c3c3c"/></linearGradient>
<linearGradient id="node-50" x1="-153.471" y1="-20.910" x2="-146.180" y2="-8.091" gradientUnits="userSpaceOnUse" spreadMethod="reflect" gradientTransform="rotate(90)" opacity="1.0"><stop offset="0.00" stop-color="#ff0000"/><stop offset="1.00" stop-color="#bf0000"/></linearGradient>
<linearGradient id="node-51" x1="-24.057" y1="36.924" x2="-50.534" y2="43.480" gradientUnits="userSpaceOnUse" spreadMethod="reflect" gradientTransform="rotate(90)" opacity="1.0"><stop offset="0.00" stop-color="#ffff00"/><stop offset="1.00" stop-color="#bfbf00"/></linearGradient>
<linearGradient id="node-52" x1="-74.343" y1="-22.107" x2="-56.822" y2="-17.319" gradientUnits="userSpaceOnUse" spreadMethod="reflect" gradientTransform="rotate(90)" opacity="1.0"><stop offset="0.00" stop-color="#0000ff"/><stop offset="1.00" stop-color="#0000bf"/></linearGradient>
<linearGradient id="node-53" x1="179.906" y1="64.941" x2="190.353" y2="76.524" gradientUnits="userSpaceOnUse" spreadMethod="reflect" gradientTransform="rotate(90)" opacity="1.0"><stop offset="0.00" stop-color="#ffffff"/><stop offset="1.00" stop-color="#bfbfbf"/></linearGradient>
<linearGradient id="node-54" x1="178.215" y1="13.086" x2="192.070" y2="8.994" gradientUnits="userSpaceOnUse" spreadMethod="reflect" gradientTransform="rotate(90)" opacity="1.0"><stop offset="0.00" stop-color="#505050"/><stop offset="1.00" stop-color="#3c3c3c"/></linearGradient>
<linearGradient id="node-55" x1="-24.057" y1="36.924" x2="-31.678" y2="12.197" gradientUnits="userSpaceOnUse" spreadMethod="reflect" gradientTransform="rotate(90)" opacity="1.0"><stop offset="0.00" stop-color="#ffff00"/><stop offset="1.00" stop-color="#bfbf00"/></linearGradient>
<linearGradient id="node-56" x1="-18.426" y1="-48.975" x2="-15.976" y2="-61.365" gradientUnits="userSpaceOnUse" spreadMethod="reflect" gradientTransform="rotate(90)" opacity="1.0"><stop offset="0.00" stop-color="#505050"/><stop offset="1.00" stop-color="#3c3c3c"/></linearGradient>
<linearGradient id="node-57" x1="-77.010" y1="50.037" x2="-96.579" y2="66.672" gradientUnits="userSpaceOnUse" spreadMethod="reflect" gradientTransform="rotate(90)" opacity="1.0"><stop offset="0.00" stop-color="#505050"/><stop offset="1.00" stop-color="#3c3c3c"/></linearGradient>
<linearGradient id="node-58" x1="-39.300" y1="-12.531" x2="-18.426" y2="-48.975" gradientUnits="userSpaceOnUse" spreadMethod="reflect" gradientTransform="rotate(90)" opacity="1.0"><stop offset="0.00" stop-color="#505050"/><stop offset="1.00" stop-color="#3c3c3c"/></linearGradient>
<linearGradient id="node-59" x1="192.070" y1="8.994" x2="205.926" y2="4.902" gradientUnits="userSpaceOnUse" spreadMethod="reflect" gradientTransform="rotate(90)" opacity="1.0"><stop offset="0.00" stop-color="#ffffff"/><stop offset="1.00" stop-color="#bfbfbf"/></linearGradient>
<linearGradient id="node-60" x1="-56.822" y1="-17.319" x2="-39.300" y2="-12.531" gradientUnits="userSpaceOnUse" spreadMethod="reflect" gradientTransform="rotate(90)" opacity="1.0"><stop offset="0.00" stop-color="#505050"/><stop offset="1.00" stop-color="#3c3c3c"/></linearGradient>
<linearGradient id="node-61" x1="64.794" y1="-61.215" x2="60.492" y2="-54.768" gradientUnits="userSpaceOnUse" spreadMethod="reflect" gradientTransform="rotate(90)" opacity="1.0"><stop offset="0.00" stop-color="#ff0000"/><stop offset="1.00" stop-color="#bf0000"/></linearGradient>
<linearGradient id="node-62" x1="-31.678" y1="12.197" x2="-39.300" y2="-12.531" gradientUnits="userSpaceOnUse" spreadMethod="reflect" gradientTransform="rotate(90)" opacity="1.0"><stop offset="0.00" stop-color="#505050"/><stop offset="1.00" stop-color="#3c3c3c"/></linearGradient>
<linearGradient id="node-63" x1="-15.976" y1="-61.365" x2="-13.527" y2="-73.755" gradientUnits="userSpaceOnUse" spreadMethod="reflect" gradientTransform="rotate(90)" opacity="1.0"><stop offset="0.00" stop-color="#ffffff"/><stop offset="1.00" stop-color="#bfbfbf"/></linearGradient>
<linearGradient id="node-64" x1="-111.959" y1="71.694" x2="-127.338" y2="76.716" gradientUnits="userSpaceOnUse" spreadMethod="reflect" gradientTransform="rotate(90)" opacity="1.0"><stop offset="0.00" stop-color="#ffffff"/><stop offset="1.00" stop-color="#bfbfbf"/></linearGradient>
<linearGradient id="node-65" x1="-96.579" y1="66.672" x2="-111.959" y2="71.694" gradientUnits="userSpaceOnUse" spreadMethod="reflect" gradientTransform="rotate(90)" opacity="1.0"><stop offset="0.00" stop-color="#505050"/><stop offset="1.00" stop-color="#3c3c3c"/></linearGradient>
<linearGradient id="node-66" x1="-39.300" y1="-12.531" x2="-42.400" y2="-13.543" gradientUnits="userSpaceOnUse" spreadMethod="reflect" gradientTransform="rotate(90)" opacity="1.0"><stop offset="0.00" stop-color="#505050"/><stop offset="1.00" stop-color="#3c3c3c"/></linearGradient>
<linearGradient id="node-67" x1="-96.579" y1="66.672" x2="-88.376" y2="79.718" gradientUnits="userSpaceOnUse" spreadMethod="reflect" gradientTransform="rotate(90)" opacity="1.0"><stop offset="0.00" stop-color="#505050"/><stop offset="1.00" stop-color="#3c3c3c"/></linearGradient>
<linearGradient id="node-68" x1="-96.579" y1="66.672" x2="-97.272" y2="55.477" gradientUnits="userSpaceOnUse" spreadMethod="reflect" gradientTransform="rotate(90)" opacity="1.0"><stop offset="0.00" stop-color="#505050"/><stop offset="1.00" stop-color="#3c3c3c"/></linearGradient>
<linearGradient id="node-69" x1="-88.376" y1="79.718" x2="-80.172" y2="92.763" gradientUnits="userSpaceOnUse" spreadMethod="reflect" gradientTransform="rotate(90)" opacity="1.0"><stop offset="0.00" stop-color="#ffffff"/><stop offset="1.00" stop-color="#bfbfbf"/></linearGradient>
<linearGradient id="node-70" x1="-42.400" y1="-13.543" x2="-45.501" y2="-14.556" gradientUnits="userSpaceOnUse" spreadMethod="reflect" gradientTransform="rotate(90)" opacity="1.0"><stop offset="0.00" stop-color="#ffffff"/><stop offset="1.00" stop-color="#bfbfbf"/></linearGradient>
<linearGradient id="node-71" x1="-97.272" y1="55.477" x2="-97.965" y2="44.283" gradientUnits="userSpaceOnUse" spreadMethod="reflect" gradientTransform="rotate(90)" opacity="1.0"><stop offset="0.00" stop-color="#ffffff"/><stop offset="1.00" stop-color="#bfbfbf"/></linearGradient>
</defs>
<polygon class="node-0" points="-25.307,25.546 -25.291,25.295 -25.244,25.049 -25.166,24.810 -25.059,24.582 -24.925,24.370 -24.764,24.177 -24.581,24.005 -24.499,23.940 -24.446,23.903 -24.128,23.674 -23.536,23.250 -22.845,22.754 -22.011,22.156 -21.914,22.090 -21.694,21.969 -21.460,21.877 -21.217,21.814 -20.968,21.783 -20.716,21.783 -20.467,21.814 -20.224,21.877 -19.990,21.969 -19.770,22.090 -19.567,22.238 -19.384,22.410 -19.224,22.603 -19.089,22.815 -18.982,23.043 -18.905,23.282 -18.858,23.528 -18.842,23.779 -18.858,24.030 -18.905,24.276 -18.982,24.515 -19.089,24.743 -19.224,24.955 -19.384,25.148 -19.567,25.320 -19.673,25.402 -20.515,26.006 -21.204,26.499 -21.794,26.923 -22.065,27.117 -22.114,27.152 -22.235,27.235 -22.455,27.356 -22.688,27.448 -22.932,27.511 -23.181,27.542 -23.432,27.542 -23.681,27.511 -23.925,27.448 -24.158,27.356 -24.378,27.235 -24.581,27.087 -24.764,26.915 -24.925,26.722 -25.059,26.510 -25.166,26.282 -25.244,26.043 -25.291,25.797"/>
<polygon class="node-1" points="22.229,-9.646 22.245,-9.897 22.292,-10.143 22.369,-10.382 22.476,-10.610 22.611,-10.822 22.771,-11.015 22.954,-11.187 23.103,-11.298 23.157,-11.335 23.886,-11.792 25.320,-12.693 25.521,-12.819 25.646,-12.894 25.773,-12.960 26.006,-13.053 26.250,-13.115 26.499,-13.147 26.750,-13.147 26.999,-13.115 27.243,-13.053 27.476,-12.960 27.696,-12.839 27.899,-12.692 28.082,-12.520 28.243,-12.326 28.377,-12.114 28.484,-11.887 28.562,-11.648 28.609,-11.401 28.624,-11.151 28.609,-10.900 28.562,-10.653 28.484,-10.414 28.377,-10.187 28.243,-9.975 28.082,-9.781 27.899,-9.609 27.785,-9.523 27.696,-9.462 27.450,-9.307 26.009,-8.402 25.419,-8.032 25.355,-7.994 25.170,-7.883 25.081,-7.836 24.847,-7.744 24.604,-7.681 24.355,-7.650 24.103,-7.650 23.854,-7.681 23.611,-7.744 23.377,-7.836 23.157,-7.957 22.954,-8.105 22.771,-8.277 22.611,-8.470 22.476,-8.682 22.369,-8.910 22.292,-9.149 22.245,-9.395"/>
<polygon class="node-2" points="-27.771,27.313 -27.755,27.062 -27.708,26.816 -27.631,26.577 -27.524,26.349 -27.389,26.137 -27.229,25.944 -27.046,25.772 -26.925,25.680 -26.790,25.583 -26.594,25.442 -24.723,24.101 -24.691,24.078 -24.452,23.909 -24.267,23.811 -24.067,23.741 -23.816,23.666 -23.598,23.653 -23.375,23.670 -22.968,23.831 -22.506,24.024 -22.176,24.395 -22.017,24.590 -21.879,24.800 -21.765,25.022 -21.676,25.253 -21.529,25.681 -21.588,26.367 -21.763,26.765 -21.943,26.980 -22.091,27.129 -22.189,27.204 -22.316,27.297 -22.383,27.345 -24.258,28.689 -24.456,28.831 -24.617,28.946 -24.699,29.002 -24.919,29.123 -25.153,29.215 -25.396,29.278 -25.645,29.309 -25.897,29.309 -26.146,29.278 -26.389,29.215 -26.623,29.123 -26.843,29.002 -27.046,28.854 -27.229,28.682 -27.389,28.489 -27.524,28.277 -27.631,28.049 -27.708,27.810 -27.755,27.564"/>
<polygon class="node-3" points="-32.816,2.643 -32.800,2.392 -32.753,2.146 -32.676,1.907 -32.569,1.679 -32.480,1.539 -32.434,1.467 -32.333,1.342 -32.274,1.274 -32.163,1.164 -32.068,1.083 -31.978,1.007 -31.470,0.582 -31.236,0.385 -31.141,0.312 -31.033,0.237 -30.933,0.180 -30.813,0.116 -30.579,0.024 -30.336,-0.039 -30.087,-0.070 -29.835,-0.070 -29.586,-0.039 -29.343,0.024 -29.109,0.116 -28.889,0.237 -28.686,0.385 -28.503,0.557 -28.343,0.750 -28.208,0.962 -28.101,1.190 -28.024,1.429 -27.977,1.675 -27.961,1.926 -27.961,1.926 -27.977,2.177 -28.024,2.423 -28.101,2.662 -28.208,2.890 -28.280,3.003 -28.343,3.102 -28.424,3.203 -28.503,3.295 -28.591,3.383 -28.681,3.462 -28.735,3.508 -28.896,3.643 -29.415,4.078 -29.541,4.184 -29.661,4.276 -29.744,4.332 -29.871,4.404 -29.964,4.453 -30.198,4.545 -30.441,4.608 -30.690,4.639 -30.942,4.639 -31.191,4.608 -31.434,4.545 -31.668,4.453 -31.888,4.332 -32.091,4.184 -32.274,4.012 -32.434,3.819 -32.569,3.607 -32.676,3.379 -32.753,3.140 -32.800,2.894"/>
<polygon class="node-4" points="24.869,-11.826 24.932,-12.046 25.021,-12.252 25.136,-12.441 25.275,-12.610 25.493,-12.793 25.605,-12.870 25.674,-12.915 25.782,-12.983 25.995,-13.117 26.664,-13.537 27.621,-14.138 27.804,-14.253 27.926,-14.330 27.937,-14.336 28.168,-14.465 28.402,-14.557 28.645,-14.620 28.894,-14.651 29.146,-14.651 29.395,-14.620 29.638,-14.557 29.872,-14.465 30.092,-14.344 30.295,-14.196 30.478,-14.024 30.638,-13.831 30.773,-13.619 30.880,-13.391 30.957,-13.152 31.004,-12.906 31.020,-12.655 31.004,-12.404 30.957,-12.158 30.880,-11.919 30.773,-11.691 30.638,-11.479 30.478,-11.286 30.295,-11.114 30.103,-10.974 30.092,-10.966 29.748,-10.750 28.789,-10.148 28.116,-9.726 27.946,-9.619 27.862,-9.567 27.636,-9.425 27.477,-9.358 27.234,-9.268 27.017,-9.234 26.568,-9.255 25.910,-9.508 25.559,-9.849 25.391,-10.034 25.243,-10.236 24.973,-10.638 24.897,-10.875 24.874,-11.401"/>
<polygon class="node-5" points="-38.008,30.119 -37.992,29.868 -37.945,29.622 -37.868,29.383 -37.761,29.155 -37.626,28.943 -37.466,28.750 -37.283,28.578 -37.080,28.430 -36.860,28.309 -36.626,28.217 -36.550,28.195 -36.022,28.049 -34.696,27.686 -33.466,27.348 -31.628,26.845 -31.411,26.785 -31.264,26.751 -31.015,26.720 -30.764,26.720 -30.515,26.751 -30.271,26.814 -30.038,26.906 -29.818,27.027 -29.615,27.175 -29.432,27.347 -29.271,27.540 -29.137,27.752 -29.030,27.980 -28.952,28.219 -28.905,28.465 -28.890,28.716 -28.905,28.967 -28.952,29.213 -29.030,29.452 -29.137,29.680 -29.271,29.892 -29.432,30.085 -29.615,30.257 -29.818,30.405 -30.038,30.526 -30.271,30.618 -30.368,30.647 -30.561,30.700 -32.408,31.206 -33.635,31.542 -34.970,31.908 -35.466,32.043 -35.633,32.084 -35.882,32.115 -36.134,32.115 -36.383,32.084 -36.626,32.021 -36.860,31.929 -37.080,31.808 -37.283,31.660 -37.466,31.488 -37.626,31.295 -37.761,31.083 -37.868,30.855 -37.945,30.616 -37.992,30.370"/>
<polygon class="node-6" points="24.443,14.206 24.459,13.955 24.506,13.709 24.583,13.470 24.690,13.242 24.825,13.030 24.985,12.837 25.168,12.665 25.371,12.517 25.591,12.396 25.825,12.304 27.422,11.813 27.887,11.671 30.108,10.989 30.387,10.903 30.457,10.882 30.682,10.825 30.931,10.793 31.182,10.793 31.431,10.825 31.675,10.887 31.908,10.980 32.128,11.101 32.331,11.248 32.514,11.420 32.675,11.614 32.809,11.826 32.916,12.053 32.994,12.292 33.041,12.539 33.056,12.790 33.041,13.040 32.994,13.287 32.916,13.526 32.809,13.753 32.675,13.965 32.514,14.159 32.331,14.331 32.128,14.478 31.908,14.599 31.675,14.692 31.656,14.697 31.541,14.733 31.267,14.817 29.059,15.495 28.601,15.636 27.291,16.037 27.086,16.099 26.966,16.132 26.818,16.171 26.569,16.202 26.317,16.202 26.068,16.171 25.825,16.108 25.591,16.016 25.371,15.895 25.168,15.747 24.985,15.575 24.825,15.382 24.690,15.170 24.583,14.942 24.506,14.703 24.459,14.457"/>
<polygon class="node-7" points="29.737,-17.273 29.752,-17.524 29.799,-17.770 29.877,-18.009 29.984,-18.237 30.018,-18.295 30.072,-18.387 30.284,-18.748 31.370,-20.594 32.727,-22.901 32.835,-23.067 32.995,-23.260 33.178,-23.432 33.381,-23.580 33.601,-23.701 33.835,-23.793 34.078,-23.856 34.327,-23.887 34.579,-23.887 34.828,-23.856 35.071,-23.793 35.305,-23.701 35.525,-23.580 35.728,-23.432 35.911,-23.260 36.071,-23.067 36.206,-22.855 36.313,-22.627 36.390,-22.388 36.437,-22.142 36.453,-21.891 36.437,-21.640 36.390,-21.394 36.313,-21.155 36.206,-20.927 36.179,-20.881 34.820,-18.570 33.733,-16.722 33.510,-16.344 33.455,-16.251 33.355,-16.097 33.194,-15.904 33.011,-15.732 32.808,-15.584 32.588,-15.463 32.355,-15.371 32.111,-15.308 31.862,-15.277 31.611,-15.277 31.362,-15.308 31.118,-15.371 30.885,-15.463 30.665,-15.584 30.462,-15.732 30.279,-15.904 30.118,-16.097 29.984,-16.309 29.877,-16.537 29.799,-16.776 29.752,-17.022"/>
<polygon class="node-8" points="-31.600,27.434 -31.528,26.896 -31.483,26.828 -31.322,26.761 -31.109,26.702 -29.473,26.254 -28.550,26.001 -27.736,25.778 -26.923,25.555 -26.724,25.501 -26.637,25.481 -26.459,25.445 -26.127,25.445 -25.657,25.507 -25.229,25.646 -25.052,25.785 -24.592,26.205 -24.267,26.717 -24.096,27.101 -24.018,27.313 -24.042,27.998 -24.104,28.229 -24.204,28.452 -24.499,28.851 -24.708,28.988 -24.919,29.123 -25.343,29.269 -28.416,30.112 -30.056,30.561 -30.252,30.615 -30.349,30.641 -30.481,30.625 -30.557,30.571 -30.639,30.488 -30.812,30.241 -30.990,29.897 -31.078,29.696 -31.385,28.772 -31.445,28.530 -31.590,27.626"/>
<polygon class="node-9" points="2.359,-10.113 2.375,-10.364 2.422,-10.610 2.437,-10.665 2.482,-10.803 2.513,-10.892 2.608,-11.157 2.674,-11.341 2.848,-11.829 2.984,-12.212 3.067,-12.442 3.125,-12.603 3.158,-12.696 3.169,-12.721 3.265,-12.924 3.400,-13.136 3.560,-13.329 3.743,-13.501 3.946,-13.649 4.166,-13.770 4.400,-13.862 4.643,-13.925 4.892,-13.956 5.144,-13.956 5.393,-13.925 5.636,-13.862 5.870,-13.770 6.090,-13.649 6.293,-13.501 6.476,-13.329 6.636,-13.136 6.771,-12.924 6.878,-12.696 6.955,-12.457 7.002,-12.211 7.018,-11.960 7.002,-11.709 6.955,-11.463 6.942,-11.419 6.887,-11.253 6.859,-11.170 6.811,-11.035 6.762,-10.895 6.608,-10.466 6.440,-9.993 6.374,-9.808 6.284,-9.556 6.262,-9.496 6.219,-9.377 6.204,-9.343 6.112,-9.149 5.977,-8.937 5.817,-8.744 5.634,-8.572 5.431,-8.424 5.211,-8.303 4.977,-8.211 4.734,-8.148 4.485,-8.117 4.233,-8.117 3.984,-8.148 3.741,-8.211 3.507,-8.303 3.287,-8.424 3.084,-8.572 2.901,-8.744 2.741,-8.937 2.606,-9.149 2.499,-9.377 2.422,-9.616 2.375,-9.862"/>
<polygon class="node-10" points="27.267,-12.655 27.291,-13.340 27.460,-13.900 27.534,-14.063 27.557,-14.106 27.632,-14.238 27.846,-14.603 27.998,-14.861 28.600,-15.885 29.903,-18.101 29.964,-18.204 30.053,-18.326 30.214,-18.354 30.630,-18.269 30.806,-18.209 31.200,-18.045 31.628,-17.832 32.063,-17.584 33.353,-16.566 33.461,-16.385 33.461,-16.259 30.907,-11.918 30.802,-11.740 30.732,-11.625 30.635,-11.482 30.475,-11.289 30.295,-11.114 30.092,-10.966 29.627,-10.787 29.376,-10.787 28.903,-10.799 28.461,-10.934 28.274,-11.069 27.944,-11.354 27.450,-12.033"/>
<polygon class="node-11" points="-24.842,-25.451 -24.826,-25.702 -24.779,-25.948 -24.702,-26.187 -24.595,-26.415 -24.460,-26.627 -24.300,-26.820 -24.117,-26.992 -23.914,-27.140 -23.694,-27.261 -23.460,-27.353 -23.217,-27.416 -22.968,-27.447 -22.716,-27.447 -22.467,-27.416 -22.224,-27.353 -21.990,-27.261 -21.770,-27.140 -21.567,-26.992 -21.384,-26.820 -21.224,-26.627 -21.089,-26.415 -21.019,-26.279 -20.951,-26.144 -20.108,-24.490 -19.484,-23.264 -19.299,-22.901 -19.224,-22.752 -19.152,-22.592 -19.074,-22.353 -19.027,-22.107 -19.011,-21.856 -19.027,-21.605 -19.074,-21.359 -19.152,-21.120 -19.259,-20.892 -19.393,-20.680 -19.554,-20.487 -19.737,-20.315 -19.940,-20.167 -20.160,-20.046 -20.393,-19.954 -20.637,-19.891 -20.886,-19.860 -21.137,-19.860 -21.386,-19.891 -21.630,-19.954 -21.863,-20.046 -22.083,-20.167 -22.286,-20.315 -22.469,-20.487 -22.630,-20.680 -22.764,-20.892 -22.799,-20.960 -22.870,-21.099 -23.051,-21.454 -23.672,-22.674 -24.514,-24.326 -24.591,-24.479 -24.650,-24.598 -24.702,-24.715 -24.779,-24.954 -24.826,-25.200"/>
<polygon class="node-12" points="-26.900,29.157 -26.878,28.762 -26.427,25.919 -26.330,25.592 -26.127,25.445 -25.657,25.507 -25.229,25.646 -24.261,26.395 -23.884,26.704 -23.709,26.929 -23.638,27.040 -23.560,27.172 -23.466,27.340 -23.256,27.716 -22.697,28.719 -21.779,30.365 -21.466,30.926 -21.359,31.154 -21.281,31.393 -21.234,31.639 -21.219,31.890 -21.234,32.141 -21.281,32.387 -21.359,32.626 -21.466,32.854 -21.600,33.066 -21.761,33.259 -21.944,33.431 -22.147,33.579 -22.367,33.700 -22.600,33.792 -22.844,33.855 -23.093,33.886 -23.344,33.886 -23.593,33.855 -23.837,33.792 -24.070,33.700 -24.290,33.579 -24.493,33.431 -24.676,33.259 -24.837,33.066 -24.960,32.872 -25.271,32.317 -26.190,30.667 -26.754,29.656 -26.790,29.588 -26.821,29.521 -26.877,29.389"/>
<polygon class="node-13" points="30.001,11.889 30.014,11.682 30.207,11.225 30.275,11.091 30.356,10.983 30.450,10.902 30.523,10.865 30.554,10.852 30.835,10.765 33.697,9.887 34.898,9.518 34.966,9.498 35.133,9.449 35.295,9.408 35.544,9.377 35.796,9.377 36.045,9.408 36.288,9.471 36.522,9.563 36.742,9.684 36.945,9.832 37.128,10.004 37.288,10.197 37.423,10.409 37.530,10.637 37.607,10.876 37.654,11.122 37.670,11.373 37.654,11.624 37.607,11.870 37.530,12.109 37.423,12.337 37.288,12.549 37.128,12.742 36.945,12.914 36.742,13.062 36.522,13.183 36.288,13.275 36.073,13.341 34.875,13.709 32.016,14.587 31.743,14.671 31.590,14.714 31.347,14.692 30.822,14.299 30.695,14.136 30.459,13.749 30.355,13.532 30.181,13.065 30.114,12.823 30.061,12.581 30.005,12.110"/>
<polygon class="node-14" points="-60.334,10.261 -60.318,10.010 -60.271,9.764 -60.193,9.525 -60.086,9.297 -59.952,9.085 -59.791,8.892 -59.608,8.720 -59.405,8.572 -59.185,8.451 -58.952,8.359 -58.708,8.296 -58.459,8.265 -58.208,8.265 -58.123,8.272 -57.647,8.321 -55.912,8.501 -55.237,8.571 -54.371,8.661 -53.702,8.730 -53.325,8.771 -53.142,8.795 -52.899,8.858 -52.665,8.950 -52.445,9.071 -52.242,9.219 -52.059,9.391 -51.899,9.584 -51.764,9.796 -51.657,10.024 -51.580,10.263 -51.533,10.509 -51.517,10.760 -51.533,11.011 -51.580,11.257 -51.657,11.496 -51.764,11.724 -51.899,11.936 -52.059,12.129 -52.242,12.301 -52.445,12.449 -52.665,12.570 -52.899,12.662 -53.142,12.725 -53.391,12.756 -53.643,12.756 -54.103,12.710 -54.783,12.640 -55.650,12.550 -56.323,12.480 -58.057,12.300 -58.544,12.250 -58.708,12.226 -58.952,12.163 -59.185,12.071 -59.405,11.950 -59.608,11.802 -59.791,11.630 -59.952,11.437 -60.086,11.225 -60.193,10.997 -60.271,10.758 -60.318,10.512"/>
<polygon class="node-15" points="-24.958,32.876 -24.956,32.626 -24.900,32.518 -24.426,32.004 -24.067,31.729 -23.654,31.463 -23.435,31.339 -22.562,30.948 -22.174,30.836 -21.851,30.790 -21.570,30.903 -21.487,30.939 -21.431,30.992 -21.324,31.182 -20.960,31.834 -20.656,32.379 -19.992,33.570 -19.275,34.854 -18.913,35.503 -18.806,35.731 -18.729,35.970 -18.682,36.216 -18.666,36.467 -18.682,36.718 -18.729,36.964 -18.806,37.203 -18.913,37.431 -19.048,37.643 -19.208,37.836 -19.391,38.008 -19.594,38.156 -19.814,38.277 -20.048,38.369 -20.291,38.432 -20.540,38.463 -20.792,38.463 -21.041,38.432 -21.284,38.369 -21.518,38.277 -21.738,38.156 -21.941,38.008 -22.124,37.836 -22.284,37.643 -22.416,37.435 -22.771,36.798 -23.484,35.520 -24.148,34.330 -24.456,33.777 -24.807,33.148"/>
<polygon class="node-16" points="27.267,-12.655 27.291,-13.340 27.390,-13.551 27.602,-13.685 30.948,-13.188 31.426,-12.959 31.481,-12.912 31.665,-12.709 34.369,-9.712 39.581,-3.935 39.957,-3.516 40.145,-3.307 40.297,-3.125 40.432,-2.913 40.539,-2.685 40.616,-2.446 40.663,-2.200 40.679,-1.949 40.663,-1.698 40.616,-1.452 40.539,-1.213 40.432,-0.985 40.297,-0.773 40.137,-0.580 39.954,-0.408 39.751,-0.260 39.531,-0.139 39.297,-0.047 39.054,0.016 38.805,0.047 38.553,0.047 38.304,0.016 38.061,-0.047 37.827,-0.139 37.607,-0.260 37.404,-0.408 37.221,-0.580 36.618,-1.248 31.398,-7.033 28.693,-10.032 28.103,-10.687 27.873,-11.012 27.704,-11.408 27.450,-12.033"/>
<polygon class="node-17" points="-65.150,9.762 -65.134,9.511 -65.087,9.265 -65.010,9.026 -64.903,8.798 -64.768,8.586 -64.608,8.393 -64.425,8.221 -64.222,8.073 -64.002,7.952 -63.768,7.860 -63.525,7.797 -63.276,7.766 -63.024,7.766 -62.953,7.773 -62.746,7.793 -61.883,7.883 -61.595,7.912 -58.416,8.242 -58.227,8.261 -58.103,8.281 -58.009,8.490 -57.958,9.361 -57.965,9.591 -58.083,10.820 -58.121,11.055 -58.297,11.836 -58.547,12.181 -58.591,12.227 -58.633,12.241 -58.829,12.220 -62.008,11.891 -62.298,11.861 -63.169,11.770 -63.347,11.751 -63.525,11.727 -63.768,11.664 -64.002,11.572 -64.222,11.451 -64.425,11.303 -64.608,11.131 -64.768,10.938 -64.903,10.726 -65.010,10.498 -65.087,10.259 -65.134,10.013"/>
<polygon class="node-18" points="-33.671,3.360 -33.655,3.109 -33.608,2.863 -33.531,2.624 -33.424,2.396 -33.289,2.184 -33.147,2.011 -33.129,1.991 -33.063,1.927 -32.970,1.840 -32.715,1.626 -32.493,1.439 -32.128,1.133 -32.033,1.056 -31.931,0.986 -31.716,0.866 -31.488,0.773 -31.133,0.680 -30.886,0.660 -30.638,0.672 -30.393,0.715 -30.154,0.789 -29.926,0.892 -29.515,1.178 -29.339,1.357 -29.186,1.556 -29.059,1.773 -28.890,2.243 -28.841,2.739 -28.864,2.986 -28.908,3.145 -29.000,3.461 -29.080,3.608 -29.208,3.818 -29.361,4.011 -29.414,4.068 -29.538,4.182 -29.926,4.507 -30.148,4.693 -30.396,4.901 -30.429,4.927 -30.568,5.028 -30.599,5.049 -30.819,5.170 -31.053,5.262 -31.296,5.325 -31.545,5.356 -31.797,5.356 -32.046,5.325 -32.289,5.262 -32.523,5.170 -32.743,5.049 -32.946,4.901 -33.129,4.729 -33.289,4.536 -33.424,4.324 -33.531,4.096 -33.608,3.857 -33.655,3.611"/>
<polygon class="node-19" points="33.960,9.864 36.487,-1.322 36.511,-1.362 39.180,-3.013 39.796,-3.299 40.125,-3.307 40.294,-3.122 40.432,-2.913 40.524,-2.679 40.612,-2.445 40.659,-2.199 40.679,-1.949 40.659,-1.699 40.630,-1.509 37.861,10.750 37.743,11.268 37.674,11.565 37.592,11.866 37.515,12.103 37.423,12.337 37.285,12.546 37.128,12.742 36.945,12.914 36.520,13.179 36.283,13.260 36.033,13.276 35.568,12.988 35.096,12.278 34.206,10.706 33.982,10.271"/>
<polygon class="node-20" points="-54.487,8.992 -54.475,8.848 -54.435,8.720 -54.414,8.667 -54.370,8.610 -53.428,7.411 -52.054,5.664 -51.692,5.203 -51.468,4.919 -51.364,4.799 -51.181,4.627 -50.978,4.479 -50.758,4.358 -50.525,4.266 -50.281,4.203 -50.032,4.172 -49.781,4.172 -49.532,4.203 -49.288,4.266 -49.055,4.358 -48.835,4.479 -48.632,4.627 -48.449,4.799 -48.288,4.992 -48.154,5.204 -48.047,5.432 -47.969,5.671 -47.922,5.917 -47.907,6.168 -47.907,6.168 -47.922,6.419 -47.969,6.665 -48.047,6.904 -48.154,7.132 -48.288,7.344 -48.345,7.417 -48.554,7.684 -48.914,8.141 -50.284,9.884 -51.869,11.899 -52.059,12.129 -52.242,12.301 -52.445,12.449 -52.667,12.566 -52.904,12.647 -53.142,12.725 -53.391,12.756 -53.643,12.756 -53.833,12.419 -54.474,9.149"/>
<polygon class="node-21" points="3.051,-12.196 3.081,-12.450 3.141,-12.651 3.199,-12.815 3.384,-13.332 3.729,-14.298 3.809,-14.520 3.817,-14.543 3.924,-14.771 4.059,-14.983 4.219,-15.176 4.402,-15.348 4.605,-15.496 4.825,-15.617 5.059,-15.709 5.302,-15.772 5.551,-15.803 5.803,-15.803 6.052,-15.772 6.295,-15.709 6.529,-15.617 6.749,-15.496 6.952,-15.348 7.135,-15.176 7.295,-14.983 7.430,-14.771 7.537,-14.543 7.614,-14.304 7.661,-14.058 7.677,-13.807 7.661,-13.556 7.614,-13.310 7.572,-13.170 7.545,-13.094 7.493,-12.946 7.153,-11.991 6.968,-11.475 6.921,-11.343 6.831,-11.129 6.664,-10.843 6.512,-10.664 6.337,-10.507 5.927,-10.262 5.460,-10.125 5.214,-10.099 4.717,-10.135 4.239,-10.286 3.810,-10.542 3.457,-10.887 3.316,-11.086 3.202,-11.300 3.086,-11.729 3.053,-11.963"/>
<polygon class="node-22" points="34.694,12.433 34.739,11.913 34.880,11.740 35.037,11.563 35.207,11.387 35.761,11.237 37.213,10.893 37.873,10.830 38.230,11.225 42.166,15.586 42.524,15.983 44.495,18.168 45.562,19.350 45.918,19.744 46.114,19.963 46.237,20.114 46.372,20.326 46.479,20.554 46.556,20.793 46.603,21.039 46.619,21.290 46.603,21.541 46.556,21.787 46.479,22.026 46.372,22.254 46.237,22.466 46.077,22.659 45.894,22.831 45.691,22.979 45.471,23.100 45.237,23.192 44.994,23.255 44.745,23.286 44.493,23.286 44.244,23.255 44.001,23.192 43.767,23.100 43.547,22.979 43.344,22.831 43.161,22.659 42.602,22.040 41.521,20.842 39.555,18.663 39.197,18.267 35.258,13.901 34.898,13.503 34.863,13.438 34.717,12.945"/>
<polygon class="node-23" points="-22.918,-21.492 -22.854,-21.893 -22.631,-22.231 -22.500,-22.421 -22.214,-22.832 -21.536,-23.168 -21.303,-23.260 -21.065,-23.328 -20.826,-23.373 -20.589,-23.392 -20.358,-23.386 -20.137,-23.355 -19.784,-23.295 -19.611,-23.194 -19.460,-23.071 -19.290,-22.849 -19.192,-22.690 -17.618,-19.599 -17.431,-19.232 -17.418,-19.204 -17.321,-18.997 -17.244,-18.758 -17.197,-18.512 -17.181,-18.261 -17.197,-18.010 -17.244,-17.764 -17.321,-17.525 -17.428,-17.297 -17.563,-17.085 -17.723,-16.892 -17.906,-16.720 -18.109,-16.572 -18.329,-16.451 -18.563,-16.359 -18.806,-16.296 -19.055,-16.265 -19.307,-16.265 -19.556,-16.296 -19.799,-16.359 -20.033,-16.451 -20.253,-16.572 -20.456,-16.720 -20.639,-16.892 -20.799,-17.085 -20.934,-17.297 -20.944,-17.318 -21.004,-17.433 -21.184,-17.786 -22.758,-20.878 -22.828,-21.052 -22.905,-21.299"/>
<polygon class="node-24" points="40.343,31.743 40.359,31.492 40.395,31.302 40.413,31.206 40.457,31.004 40.594,30.376 41.504,26.195 41.544,26.019 41.621,25.780 41.728,25.553 41.863,25.341 42.023,25.147 42.206,24.975 42.409,24.828 42.629,24.707 42.863,24.614 43.106,24.552 43.355,24.520 43.607,24.520 43.856,24.552 44.099,24.614 44.333,24.707 44.553,24.828 44.756,24.975 44.939,25.147 45.099,25.341 45.234,25.553 45.341,25.780 45.418,26.019 45.465,26.266 45.481,26.517 45.465,26.767 45.412,27.048 44.502,31.228 44.366,31.855 44.318,32.071 44.280,32.240 44.203,32.479 44.096,32.707 43.961,32.919 43.801,33.112 43.618,33.284 43.415,33.432 43.195,33.553 42.961,33.645 42.718,33.708 42.469,33.739 42.217,33.739 41.968,33.708 41.725,33.645 41.491,33.553 41.271,33.432 41.068,33.284 40.885,33.112 40.725,32.919 40.590,32.707 40.483,32.479 40.406,32.240 40.359,31.994"/>
<polygon class="node-25" points="-27.761,26.218 -27.757,25.801 -27.749,24.955 -27.708,20.696 -27.682,17.953 -27.670,16.811 -27.667,16.593 -27.654,16.428 -27.607,16.182 -27.530,15.943 -27.423,15.715 -27.288,15.503 -27.128,15.310 -26.945,15.138 -26.742,14.990 -26.522,14.869 -26.288,14.777 -26.045,14.714 -25.796,14.683 -25.544,14.683 -25.295,14.714 -25.052,14.777 -24.818,14.869 -24.598,14.990 -24.395,15.138 -24.212,15.310 -24.052,15.503 -23.917,15.715 -23.810,15.943 -23.733,16.182 -23.686,16.428 -23.675,16.584 -23.670,16.679 -23.709,20.744 -23.749,24.992 -23.757,25.847 -23.761,26.282 -23.766,26.649 -23.775,26.830 -23.995,27.143 -24.716,27.480 -24.938,27.564 -25.856,27.898 -26.572,27.987 -26.795,27.903 -27.002,27.799 -27.500,27.167 -27.706,26.576 -27.749,26.398"/>
<polygon class="node-26" points="16.730,-16.107 16.746,-16.358 16.793,-16.604 16.870,-16.843 16.977,-17.071 17.112,-17.283 17.272,-17.476 17.455,-17.648 17.658,-17.796 17.878,-17.917 18.112,-18.009 18.355,-18.072 18.604,-18.103 18.856,-18.103 19.105,-18.072 19.348,-18.009 19.378,-17.999 19.974,-17.799 20.402,-17.656 23.682,-16.555 27.400,-15.308 28.661,-14.884 28.820,-14.807 28.965,-14.702 29.095,-14.570 29.520,-14.135 29.857,-13.545 29.871,-13.311 29.862,-13.070 29.444,-12.284 28.394,-11.103 27.969,-10.921 27.797,-10.956 26.113,-11.521 22.421,-12.759 19.116,-13.868 18.082,-14.215 17.878,-14.297 17.658,-14.418 17.455,-14.566 17.272,-14.738 17.112,-14.931 16.977,-15.143 16.870,-15.371 16.793,-15.610 16.746,-15.856"/>
<polygon class="node-27" points="41.550,26.014 41.555,25.971 41.617,25.679 41.641,25.568 42.301,22.535 42.439,21.902 42.547,21.818 44.917,20.374 45.736,19.940 46.065,19.932 46.224,20.124 46.372,20.326 46.556,20.793 46.588,21.041 46.588,21.539 46.552,21.808 46.528,21.925 45.549,26.420 45.527,26.518 45.452,26.853 45.401,26.989 44.816,27.057 44.626,27.045 43.721,26.918 42.327,26.559 41.971,26.423 41.827,26.356 41.575,26.063"/>
<polygon class="node-28" points="-51.599,5.328 -51.490,4.994 -51.434,4.878 -51.343,4.760 -51.263,4.658 -51.118,4.473 -48.228,0.797 -47.862,0.332 -47.754,0.207 -47.571,0.035 -47.368,-0.113 -47.148,-0.234 -46.914,-0.326 -46.671,-0.389 -46.422,-0.420 -46.170,-0.420 -45.921,-0.389 -45.678,-0.326 -45.444,-0.234 -45.224,-0.113 -45.021,0.035 -44.838,0.207 -44.678,0.400 -44.543,0.612 -44.436,0.840 -44.359,1.079 -44.312,1.325 -44.296,1.576 -44.312,1.827 -44.359,2.073 -44.436,2.312 -44.543,2.540 -44.678,2.752 -44.730,2.820 -45.086,3.273 -47.973,6.944 -48.116,7.127 -48.181,7.208 -48.235,7.274 -48.317,7.372 -48.423,7.449 -48.813,7.634 -48.984,7.638 -49.366,7.576 -49.782,7.426 -49.994,7.321 -51.265,6.199 -51.541,5.655 -51.583,5.486"/>
<polygon class="node-29" points="-47.926,0.680 -47.901,0.410 -47.754,0.207 -47.571,0.035 -47.359,-0.099 -47.146,-0.230 -46.909,-0.311 -46.421,-0.404 -46.058,-0.410 -41.668,0.126 -39.325,0.411 -33.478,1.125 -32.021,1.303 -31.704,1.344 -31.371,1.415 -30.835,1.582 -30.284,2.058 -30.132,2.242 -29.795,2.878 -29.722,3.114 -29.706,3.360 -29.706,3.360 -29.722,3.606 -29.826,4.090 -30.056,4.533 -30.396,4.901 -30.819,5.170 -31.054,5.258 -31.796,5.340 -32.223,5.305 -32.491,5.274 -33.959,5.096 -39.812,4.382 -42.149,4.097 -44.486,3.811 -45.089,3.736 -45.348,3.703 -45.391,3.697 -45.582,3.631 -47.435,1.868 -47.665,1.576 -47.863,1.174"/>
<polygon class="node-30" points="3.801,-13.325 3.832,-14.537 4.110,-14.946 4.405,-15.345 4.605,-15.496 4.825,-15.617 5.064,-15.694 5.302,-15.772 6.112,-15.914 11.856,-16.927 12.078,-16.953 12.329,-16.953 12.578,-16.922 12.822,-16.859 13.055,-16.767 13.275,-16.646 13.478,-16.498 13.661,-16.326 13.822,-16.133 13.956,-15.921 14.063,-15.693 14.141,-15.454 14.188,-15.208 14.204,-14.957 14.188,-14.706 14.141,-14.460 14.063,-14.221 13.956,-13.993 13.822,-13.781 13.661,-13.588 13.478,-13.416 13.275,-13.268 13.055,-13.147 12.822,-13.055 12.578,-12.992 12.551,-12.987 6.808,-11.976 6.568,-11.935 6.322,-11.911 6.162,-11.898 5.338,-12.029 5.118,-12.086 4.906,-12.170 4.492,-12.374 4.321,-12.534 4.173,-12.714 4.047,-12.911"/>
<polygon class="node-31" points="-32.717,1.318 -32.667,1.209 -30.388,-2.339 -30.188,-2.651 -30.039,-2.882 -29.921,-3.066 -29.844,-3.180 -29.684,-3.374 -29.501,-3.546 -29.298,-3.693 -29.078,-3.814 -28.844,-3.907 -28.601,-3.969 -28.352,-4.001 -28.100,-4.001 -27.851,-3.969 -27.608,-3.907 -27.374,-3.814 -27.154,-3.693 -26.951,-3.546 -26.768,-3.374 -26.608,-3.180 -26.473,-2.968 -26.366,-2.741 -26.289,-2.502 -26.242,-2.255 -26.226,-2.004 -26.242,-1.754 -26.289,-1.507 -26.366,-1.268 -26.473,-1.041 -26.531,-0.943 -26.689,-0.698 -26.815,-0.500 -27.029,-0.168 -29.297,3.365 -29.854,4.232 -30.056,4.533 -30.396,4.901 -30.821,5.166 -31.054,5.258 -31.569,4.975 -32.484,2.368 -32.643,1.887"/>
<polygon class="node-32" points="37.922,-2.202 38.098,-2.732 38.371,-3.459 38.825,-4.013 39.247,-4.214 39.516,-4.297 40.447,-4.582 45.162,-6.026 47.036,-6.600 47.977,-6.888 48.709,-7.112 48.946,-7.185 49.842,-7.458 50.082,-7.521 50.331,-7.552 50.583,-7.552 50.832,-7.521 51.075,-7.458 51.309,-7.366 51.529,-7.245 51.732,-7.097 51.915,-6.925 52.075,-6.732 52.210,-6.520 52.317,-6.292 52.394,-6.053 52.441,-5.807 52.457,-5.556 52.457,-5.556 52.441,-5.305 52.394,-5.059 52.317,-4.820 52.210,-4.592 52.075,-4.380 51.915,-4.187 51.732,-4.015 51.529,-3.867 51.309,-3.746 51.075,-3.654 49.168,-3.070 48.224,-2.781 46.330,-2.200 41.623,-0.759 40.669,-0.467 40.466,-0.405 40.353,-0.380 39.855,-0.354 39.724,-0.423 39.023,-0.815 38.568,-1.096 38.126,-1.481 38.044,-1.718 37.975,-1.959"/>
<polygon class="node-33" points="-23.981,-12.815 -23.965,-13.066 -23.918,-13.312 -23.841,-13.551 -23.760,-13.729 -22.640,-15.907 -21.742,-17.654 -21.636,-17.860 -21.334,-18.444 -21.276,-18.555 -21.257,-18.591 -21.204,-18.688 -21.076,-18.871 -20.876,-19.065 -20.584,-19.235 -19.802,-19.580 -18.892,-19.775 -18.462,-19.789 -18.211,-19.789 -17.769,-19.587 -17.614,-19.400 -17.248,-18.757 -17.201,-18.511 -17.232,-18.015 -17.367,-17.448 -17.404,-17.343 -19.082,-14.080 -20.202,-11.901 -20.228,-11.851 -20.363,-11.639 -20.523,-11.446 -20.706,-11.274 -20.909,-11.126 -21.129,-11.005 -21.363,-10.913 -21.606,-10.850 -21.855,-10.819 -22.107,-10.819 -22.356,-10.850 -22.599,-10.913 -22.833,-11.005 -23.053,-11.126 -23.256,-11.274 -23.439,-11.446 -23.599,-11.639 -23.734,-11.851 -23.841,-12.079 -23.918,-12.318 -23.965,-12.564"/>
<polygon class="node-34" points="-33.034,5.153 -32.805,4.724 -32.222,3.908 -32.014,3.787 -31.795,3.672 -29.406,3.546 -29.363,3.616 -29.245,3.876 -28.766,4.938 -27.927,6.801 -23.966,15.592 -23.733,16.182 -23.690,16.429 -23.674,16.679 -23.941,17.364 -24.084,17.551 -24.491,17.787 -25.413,18.024 -25.584,18.045 -25.756,18.045 -25.927,18.024 -26.849,17.787 -27.206,17.523 -27.399,17.364 -27.632,17.152 -27.722,16.990 -27.857,16.692 -27.972,16.438 -31.574,8.443 -32.415,6.577 -32.897,5.508 -33.019,5.235"/>
<polygon class="node-35" points="-2.232,-15.066 -2.217,-15.317 -2.170,-15.563 -2.092,-15.802 -1.985,-16.030 -1.851,-16.242 -1.690,-16.435 -1.507,-16.607 -1.304,-16.755 -1.084,-16.876 -0.851,-16.968 -0.607,-17.031 -0.358,-17.062 -0.107,-17.062 0.142,-17.031 0.163,-17.026 0.435,-16.969 0.654,-16.922 3.966,-16.216 5.401,-15.910 5.697,-15.846 5.778,-15.675 5.877,-15.348 5.965,-13.758 5.974,-13.331 5.812,-12.183 5.774,-12.033 5.626,-11.946 5.370,-11.918 5.092,-11.914 4.862,-11.940 4.535,-12.006 3.133,-12.304 -0.173,-13.009 -0.427,-13.063 -0.628,-13.106 -0.851,-13.164 -1.084,-13.256 -1.304,-13.377 -1.507,-13.525 -1.690,-13.697 -1.851,-13.890 -1.985,-14.102 -2.092,-14.330 -2.170,-14.569 -2.217,-14.815"/>
<polygon class="node-36" points="43.847,20.927 44.043,20.397 44.312,19.861 44.714,19.325 44.798,19.219 45.164,19.052 45.273,19.013 45.493,18.947 49.033,17.901 50.935,17.340 51.886,17.059 52.124,16.989 55.692,15.935 55.881,15.881 56.111,15.821 56.360,15.790 56.612,15.790 56.861,15.821 57.104,15.884 57.338,15.976 57.558,16.097 57.761,16.245 57.944,16.417 58.104,16.610 58.239,16.822 58.346,17.050 58.423,17.289 58.470,17.535 58.486,17.786 58.470,18.037 58.423,18.283 58.346,18.522 58.239,18.750 58.104,18.962 57.944,19.155 57.761,19.327 57.558,19.475 57.338,19.596 57.104,19.688 56.806,19.777 53.253,20.826 53.016,20.896 52.068,21.176 50.174,21.735 46.594,22.792 46.338,22.866 46.221,22.875 45.772,22.891 45.010,22.504 44.452,22.045 44.025,21.652 43.951,21.412 43.891,21.170"/>
<polygon class="node-37" points="11.493,-15.825 11.515,-16.238 11.751,-16.875 11.955,-16.941 12.144,-16.976 12.647,-17.066 13.817,-17.272 17.465,-17.915 17.870,-17.986 18.225,-18.047 18.604,-18.103 18.856,-18.103 19.105,-18.072 19.337,-17.975 19.749,-17.713 19.884,-17.501 20.080,-16.849 20.086,-16.644 20.003,-15.603 19.838,-15.302 19.659,-14.984 19.556,-14.806 19.058,-14.385 18.699,-14.104 18.633,-14.066 18.545,-14.044 18.168,-13.977 14.506,-13.332 13.326,-13.124 12.785,-13.030 12.713,-13.019 12.635,-13.008 12.552,-13.028 12.248,-13.134 12.158,-13.243 11.900,-13.723 11.628,-14.618"/>
<polygon class="node-38" points="-50.727,-2.697 -50.711,-2.948 -50.664,-3.194 -50.586,-3.433 -50.479,-3.661 -50.345,-3.873 -50.184,-4.066 -50.001,-4.238 -49.798,-4.386 -49.578,-4.507 -49.345,-4.599 -49.101,-4.662 -48.852,-4.693 -48.601,-4.693 -48.352,-4.662 -48.108,-4.599 -47.875,-4.507 -47.655,-4.386 -47.452,-4.238 -47.269,-4.066 -47.108,-3.873 -46.980,-3.671 -46.846,-3.436 -46.693,-3.168 -46.016,-1.978 -45.184,-0.515 -45.100,-0.366 -44.965,-0.124 -44.918,0.020 -44.899,0.176 -44.909,0.341 -44.935,0.704 -45.128,1.217 -45.407,1.793 -45.529,2.020 -45.906,2.492 -46.119,2.701 -46.349,2.787 -46.897,2.724 -47.363,2.578 -47.689,2.463 -47.945,2.318 -48.226,2.104 -48.426,1.866 -48.562,1.638 -48.672,1.445 -49.492,0.002 -50.176,-1.201 -50.315,-1.445 -50.479,-1.733 -50.586,-1.961 -50.664,-2.200 -50.711,-2.446"/>
<polygon class="node-39" points="-19.681,-19.301 -19.582,-19.501 -19.471,-19.681 -19.352,-19.838 -19.227,-19.970 -18.585,-20.151 -18.452,-20.168 -18.125,-20.126 -17.309,-20.005 -16.548,-19.892 -11.845,-19.194 -6.895,-18.459 -6.362,-18.380 -5.877,-18.307 -5.767,-18.290 -5.524,-18.227 -5.290,-18.135 -5.070,-18.014 -4.867,-17.866 -4.684,-17.694 -4.524,-17.501 -4.389,-17.289 -4.282,-17.061 -4.205,-16.822 -4.158,-16.576 -4.142,-16.325 -4.158,-16.074 -4.205,-15.828 -4.282,-15.589 -4.389,-15.361 -4.524,-15.149 -4.684,-14.956 -4.867,-14.784 -5.070,-14.636 -5.290,-14.515 -5.524,-14.423 -5.767,-14.360 -6.016,-14.329 -6.268,-14.329 -6.407,-14.343 -6.965,-14.425 -7.476,-14.501 -12.435,-15.237 -17.120,-15.933 -17.923,-16.052 -18.049,-16.090 -18.942,-17.551 -19.186,-18.083"/>
<polygon class="node-40" points="-29.980,-2.721 -29.906,-3.089 -27.773,-6.411 -27.358,-7.057 -27.081,-7.489 -26.473,-8.436 -26.399,-8.545 -26.239,-8.738 -26.056,-8.910 -25.853,-9.058 -25.633,-9.179 -25.399,-9.271 -25.156,-9.334 -24.907,-9.365 -24.655,-9.365 -24.406,-9.334 -24.163,-9.271 -23.929,-9.179 -23.709,-9.058 -23.506,-8.910 -23.323,-8.738 -23.163,-8.545 -23.028,-8.333 -22.921,-8.105 -22.844,-7.866 -22.797,-7.620 -22.781,-7.369 -22.781,-7.369 -22.797,-7.118 -22.844,-6.872 -22.921,-6.633 -23.028,-6.405 -23.089,-6.302 -23.722,-5.317 -23.995,-4.892 -24.407,-4.250 -25.167,-3.067 -25.719,-2.207 -25.986,-1.792 -26.255,-1.373 -26.430,-1.104 -26.514,-0.979 -26.624,-0.829 -27.005,-0.672 -27.556,-0.701 -28.641,-1.144 -29.413,-1.748 -29.566,-1.915 -29.950,-2.572"/>
<polygon class="node-41" points="-26.510,-8.054 -26.500,-8.400 -26.278,-8.831 -24.264,-12.749 -23.983,-13.295 -23.926,-13.405 -23.862,-13.529 -23.831,-13.588 -23.721,-13.790 -23.639,-13.871 -23.530,-13.936 -23.398,-13.982 -23.242,-14.011 -22.501,-13.825 -21.544,-13.583 -20.745,-13.041 -20.451,-12.739 -20.338,-12.589 -20.193,-12.302 -20.216,-11.934 -20.243,-11.824 -20.324,-11.665 -20.372,-11.571 -20.427,-11.464 -20.706,-10.921 -22.724,-6.996 -22.950,-6.556 -23.028,-6.405 -23.192,-6.214 -23.425,-6.096 -23.705,-6.068 -24.198,-6.130 -24.561,-6.214 -24.962,-6.423 -25.483,-6.709 -25.920,-7.077 -26.310,-7.562 -26.417,-7.789"/>
<polygon class="node-42" points="48.722,-6.895 48.741,-7.019 48.836,-7.447 48.955,-7.978 49.427,-10.062 49.592,-10.791 49.700,-11.265 49.778,-11.504 49.885,-11.731 50.019,-11.943 50.180,-12.137 50.363,-12.309 50.566,-12.456 50.786,-12.577 51.019,-12.670 51.263,-12.732 51.512,-12.764 51.763,-12.764 52.012,-12.732 52.256,-12.670 52.489,-12.577 52.709,-12.456 52.912,-12.309 53.095,-12.137 53.256,-11.943 53.390,-11.731 53.497,-11.504 53.575,-11.265 53.622,-11.018 53.638,-10.768 53.622,-10.517 53.590,-10.339 53.566,-10.230 53.494,-9.911 53.328,-9.179 52.856,-7.095 52.549,-5.740 52.478,-5.424 52.401,-5.097 52.390,-5.060 52.302,-4.826 52.210,-4.592 52.072,-4.383 51.915,-4.187 51.732,-4.015 51.529,-3.867 51.307,-3.750 51.064,-3.688 50.554,-4.018 49.317,-5.732 49.210,-5.886 49.011,-6.200 48.787,-6.562 48.746,-6.721"/>
<polygon class="node-43" points="-27.399,17.364 -27.368,17.115 -25.233,14.753 -24.778,14.408 -24.581,14.351 -24.373,14.298 -24.219,14.260 -23.683,14.127 -23.501,14.081 -22.621,13.864 -18.389,12.816 -18.023,12.725 -17.691,12.644 -17.341,12.558 -17.219,12.529 -16.970,12.497 -16.719,12.497 -16.470,12.529 -16.226,12.591 -15.993,12.684 -15.773,12.805 -15.570,12.952 -15.387,13.124 -15.226,13.318 -15.092,13.530 -14.985,13.757 -14.907,13.996 -14.860,14.243 -14.845,14.493 -14.860,14.744 -14.907,14.991 -14.985,15.230 -15.092,15.457 -15.226,15.669 -15.387,15.863 -15.570,16.035 -15.773,16.182 -15.993,16.303 -16.226,16.396 -16.348,16.429 -16.704,16.518 -17.078,16.611 -17.418,16.696 -21.658,17.746 -22.544,17.965 -24.136,18.359 -24.356,18.401 -24.644,18.376 -25.382,18.215 -26.849,17.787 -27.206,17.523"/>
<polygon class="node-44" points="49.694,-11.228 49.709,-11.299 49.828,-11.831 49.899,-12.145 50.159,-13.294 50.655,-15.483 50.797,-16.109 50.845,-16.321 50.881,-16.476 50.958,-16.715 51.065,-16.943 51.200,-17.155 51.360,-17.348 51.543,-17.520 51.746,-17.668 51.966,-17.789 52.200,-17.881 52.443,-17.944 52.692,-17.975 52.944,-17.975 53.193,-17.944 53.436,-17.881 53.670,-17.789 53.890,-17.668 54.093,-17.520 54.276,-17.348 54.436,-17.155 54.571,-16.943 54.678,-16.715 54.755,-16.476 54.802,-16.230 54.818,-15.979 54.802,-15.728 54.762,-15.519 54.744,-15.428 54.698,-15.224 54.556,-14.599 54.060,-12.410 53.801,-11.266 53.731,-10.955 53.613,-10.444 53.581,-10.307 53.376,-10.220 53.251,-10.207 52.733,-10.223 52.062,-10.316 51.575,-10.414 51.330,-10.472 51.091,-10.534 50.440,-10.739 50.256,-10.810 49.956,-10.949 49.762,-11.076"/>
<polygon class="node-45" points="-7.180,-16.058 -7.081,-16.841 -6.763,-17.644 -6.458,-17.984 -6.252,-18.074 -5.801,-18.268 -5.657,-18.265 -4.684,-18.059 -4.526,-18.025 -4.081,-17.931 -3.132,-17.729 -1.819,-17.449 -0.401,-17.147 -0.161,-17.096 0.029,-17.054 0.110,-17.034 0.167,-17.017 0.382,-16.945 0.505,-16.856 0.616,-16.738 0.714,-16.595 0.796,-16.427 0.863,-16.237 0.838,-15.534 0.827,-15.290 0.798,-15.043 0.750,-14.796 0.685,-14.555 0.427,-13.729 -0.140,-13.288 -0.289,-13.203 -0.438,-13.147 -0.575,-13.098 -0.730,-13.128 -1.013,-13.188 -1.246,-13.237 -2.664,-13.539 -3.952,-13.814 -4.894,-14.014 -5.394,-14.121 -6.391,-14.335 -6.403,-14.341 -6.505,-14.422 -6.701,-14.604"/>
<polygon class="node-46" points="49.438,-4.424 49.485,-4.962 49.621,-5.135 49.774,-5.311 49.939,-5.487 51.925,-6.000 52.637,-6.122 52.848,-5.890 53.203,-5.498 53.730,-4.914 54.627,-3.919 56.058,-2.334 58.742,0.641 60.706,2.818 60.878,3.011 61.023,3.186 61.158,3.398 61.265,3.626 61.342,3.865 61.389,4.111 61.405,4.362 61.389,4.613 61.342,4.859 61.265,5.098 61.158,5.326 61.023,5.538 60.863,5.731 60.680,5.903 60.477,6.051 60.257,6.172 60.023,6.264 59.780,6.327 59.531,6.358 59.279,6.358 59.030,6.327 58.787,6.264 58.553,6.172 58.333,6.051 58.130,5.903 57.947,5.731 57.746,5.509 55.773,3.322 53.088,0.346 51.655,-1.242 50.764,-2.231 50.217,-2.837 49.856,-3.238 49.709,-3.403 49.663,-3.459 49.496,-3.962"/>
<polygon class="node-47" points="55.474,19.327 55.480,18.500 55.581,16.360 55.676,16.065 55.879,15.918 56.360,15.790 56.612,15.790 57.099,15.899 57.336,15.980 57.558,16.097 57.761,16.245 57.944,16.417 58.394,16.915 58.668,17.219 61.455,20.309 61.587,20.471 61.721,20.683 61.828,20.911 61.906,21.150 61.953,21.396 61.969,21.647 61.953,21.898 61.906,22.144 61.828,22.383 61.721,22.611 61.587,22.823 61.426,23.016 61.243,23.188 61.040,23.336 60.820,23.457 60.587,23.549 60.343,23.612 60.094,23.643 59.843,23.643 59.594,23.612 59.350,23.549 59.117,23.457 58.897,23.336 58.694,23.188 58.511,23.016 58.482,22.985 55.697,19.898 55.661,19.833 55.579,19.648"/>
<polygon class="node-48" points="17.044,-16.690 17.063,-16.922 17.112,-17.147 17.176,-17.350 17.288,-17.549 17.524,-17.903 18.240,-18.975 18.278,-19.033 18.403,-19.219 18.494,-19.356 18.546,-19.432 18.577,-19.471 18.706,-19.625 18.889,-19.797 19.092,-19.945 19.312,-20.066 19.546,-20.158 19.789,-20.221 20.038,-20.252 20.290,-20.252 20.539,-20.221 20.782,-20.158 21.016,-20.066 21.236,-19.945 21.439,-19.797 21.622,-19.625 21.782,-19.432 21.917,-19.220 22.024,-18.992 22.101,-18.753 22.148,-18.507 22.164,-18.256 22.148,-18.005 22.101,-17.759 22.024,-17.520 21.917,-17.292 21.880,-17.229 21.777,-17.070 21.696,-16.949 21.572,-16.763 20.854,-15.686 20.631,-15.353 20.520,-15.195 20.367,-15.026 20.219,-14.878 19.808,-14.575 19.411,-14.408 19.157,-14.329 18.844,-14.278 18.671,-14.340 18.446,-14.436 18.157,-14.593 17.998,-14.731 17.743,-14.966 17.532,-15.232 17.349,-15.544 17.225,-15.757 17.097,-16.220 17.055,-16.455"/>
<polygon class="node-49" points="54.764,16.297 54.823,16.023 54.998,15.215 55.466,13.066 56.925,6.353 57.219,5.006 57.247,4.967 57.376,4.890 60.851,3.004 61.010,3.196 61.158,3.398 61.327,3.869 61.374,4.113 61.401,4.362 61.374,4.611 61.302,5.042 61.242,5.325 60.834,7.204 59.375,13.914 58.908,16.062 58.733,16.864 58.675,17.127 58.657,17.168 57.827,17.520 55.895,17.716 55.669,17.651 55.456,17.583 55.261,17.515 55.041,17.134 54.839,16.726"/>
<polygon class="node-50" points="-53.157,-6.970 -53.141,-7.221 -53.094,-7.467 -53.017,-7.706 -52.910,-7.934 -52.775,-8.146 -52.615,-8.339 -52.432,-8.511 -52.229,-8.659 -52.009,-8.780 -51.775,-8.872 -51.532,-8.935 -51.283,-8.966 -51.031,-8.966 -50.782,-8.935 -50.539,-8.872 -50.305,-8.780 -50.085,-8.659 -49.882,-8.511 -49.699,-8.339 -49.539,-8.146 -49.426,-7.972 -49.175,-7.531 -47.573,-4.715 -46.981,-3.672 -46.924,-3.534 -46.895,-3.219 -46.924,-3.048 -47.314,-2.337 -47.472,-2.167 -47.650,-2.004 -48.053,-1.715 -48.272,-1.593 -48.499,-1.488 -48.729,-1.402 -49.185,-1.292 -49.404,-1.270 -49.807,-1.294 -50.142,-1.405 -50.386,-1.630 -50.472,-1.722 -51.046,-2.730 -52.653,-5.555 -52.888,-5.968 -52.910,-6.006 -53.017,-6.234 -53.094,-6.473 -53.141,-6.719"/>
<polygon class="node-51" points="-17.483,13.047 -17.475,12.896 -17.456,12.770 -17.428,12.671 -17.346,12.560 -17.158,12.511 -16.447,12.335 -15.911,12.202 -15.206,12.027 -13.796,11.678 -13.444,11.591 -8.495,10.366 -8.394,10.343 -8.145,10.312 -7.893,10.312 -7.644,10.343 -7.401,10.406 -7.167,10.498 -6.947,10.619 -6.744,10.767 -6.561,10.939 -6.401,11.132 -6.266,11.344 -6.159,11.572 -6.082,11.811 -6.035,12.057 -6.019,12.308 -6.035,12.559 -6.082,12.805 -6.159,13.044 -6.266,13.272 -6.401,13.484 -6.561,13.677 -6.744,13.849 -6.947,13.997 -7.167,14.118 -7.401,14.210 -7.543,14.250 -12.479,15.473 -12.833,15.560 -14.247,15.911 -14.953,16.086 -15.477,16.215 -16.178,16.388 -16.343,16.427 -16.397,16.437 -16.524,16.365 -16.596,16.285 -16.750,16.041 -16.830,15.881 -16.910,15.700 -16.989,15.499 -17.066,15.282 -17.208,14.816 -17.271,14.573 -17.327,14.329 -17.416,13.852 -17.447,13.627 -17.469,13.416 -17.481,13.222"/>
<polygon class="node-52" points="-26.510,-8.054 -26.479,-8.302 -26.285,-8.462 -24.685,-8.840 -24.018,-8.983 -23.767,-9.013 -23.262,-9.002 -23.057,-8.965 -22.892,-8.925 -22.473,-8.811 -22.136,-8.719 -21.211,-8.467 -20.638,-8.310 -18.505,-7.727 -18.322,-7.675 -18.089,-7.583 -17.869,-7.462 -17.666,-7.314 -17.483,-7.142 -17.322,-6.949 -17.188,-6.737 -17.081,-6.509 -17.003,-6.270 -16.956,-6.024 -16.941,-5.773 -16.941,-5.773 -16.956,-5.522 -17.003,-5.276 -17.081,-5.037 -17.188,-4.809 -17.322,-4.597 -17.483,-4.404 -17.666,-4.232 -17.869,-4.084 -18.089,-3.963 -18.322,-3.871 -18.566,-3.808 -18.815,-3.777 -19.066,-3.777 -19.315,-3.808 -19.399,-3.829 -19.610,-3.883 -21.682,-4.449 -24.257,-5.152 -24.364,-5.182 -24.497,-5.232 -24.750,-5.355 -25.069,-5.636 -25.319,-5.983 -25.624,-6.413 -26.417,-7.789"/>
<polygon class="node-53" points="58.437,22.879 58.462,22.672 58.788,22.082 59.231,21.559 59.589,21.212 59.971,20.893 60.536,20.509 61.152,20.252 61.429,20.285 61.576,20.446 61.936,20.843 62.216,21.153 62.846,21.852 64.102,23.243 64.509,23.696 64.949,24.184 65.069,24.332 65.204,24.544 65.311,24.772 65.388,25.011 65.435,25.257 65.451,25.508 65.435,25.759 65.388,26.005 65.311,26.244 65.204,26.472 65.069,26.684 64.909,26.877 64.726,27.049 64.523,27.197 64.303,27.318 64.069,27.410 63.826,27.473 63.577,27.504 63.325,27.504 63.076,27.473 62.833,27.410 62.599,27.318 62.379,27.197 62.176,27.049 61.993,26.877 61.129,25.919 59.877,24.531 59.253,23.840 58.976,23.532 58.640,23.157 58.508,23.009"/>
<polygon class="node-54" points="58.541,4.329 58.600,4.138 58.908,3.329 59.019,3.040 59.153,2.788 59.502,2.365 59.707,2.220 59.810,2.160 59.965,2.112 60.226,2.034 60.407,1.981 62.718,1.298 63.095,1.187 63.338,1.116 63.499,1.070 63.649,1.033 63.898,1.002 64.149,1.002 64.398,1.033 64.642,1.096 64.875,1.188 65.095,1.309 65.298,1.457 65.481,1.629 65.642,1.822 65.776,2.034 65.883,2.262 65.961,2.501 66.008,2.747 66.023,2.998 66.023,2.998 66.008,3.249 65.961,3.495 65.883,3.734 65.776,3.962 65.642,4.174 65.481,4.367 65.298,4.539 65.095,4.687 64.875,4.808 64.642,4.900 64.213,5.027 63.852,5.134 61.543,5.816 61.355,5.872 61.062,5.958 60.920,5.994 60.800,5.994 60.674,5.963 60.355,5.866 60.142,5.793 59.662,5.502 59.083,5.044 58.604,4.571"/>
<polygon class="node-55" points="-12.559,4.066 -12.544,3.815 -12.497,3.568 -12.419,3.329 -12.312,3.102 -12.178,2.890 -12.017,2.696 -11.834,2.524 -11.631,2.377 -11.411,2.256 -11.178,2.163 -10.934,2.101 -10.685,2.069 -10.434,2.069 -10.185,2.101 -9.941,2.163 -9.708,2.256 -9.488,2.377 -9.285,2.524 -9.102,2.696 -8.941,2.890 -8.807,3.102 -8.700,3.329 -8.660,3.446 -8.606,3.619 -8.447,4.128 -8.191,4.961 -7.937,5.785 -6.210,11.387 -6.153,11.574 -6.086,11.812 -6.039,12.058 -6.023,12.308 -6.035,12.559 -6.163,13.043 -6.280,13.264 -6.401,13.484 -6.564,13.674 -6.754,13.837 -6.947,13.997 -7.167,14.118 -7.406,14.195 -7.663,14.176 -9.968,11.822 -10.387,11.337 -10.491,11.078 -10.996,9.438 -11.760,6.962 -12.014,6.137 -12.265,5.321 -12.412,4.842 -12.497,4.563 -12.544,4.316"/>
<polygon class="node-56" points="-7.940,-17.462 -7.920,-17.621 -7.895,-17.769 -7.532,-19.604 -7.337,-20.594 -7.324,-20.656 -7.292,-20.810 -7.263,-20.952 -7.185,-21.191 -7.078,-21.419 -6.944,-21.631 -6.783,-21.824 -6.600,-21.996 -6.397,-22.144 -6.177,-22.265 -5.944,-22.357 -5.700,-22.420 -5.451,-22.451 -5.200,-22.451 -4.951,-22.420 -4.707,-22.357 -4.474,-22.265 -4.254,-22.144 -4.051,-21.996 -3.868,-21.824 -3.707,-21.631 -3.573,-21.419 -3.466,-21.191 -3.388,-20.952 -3.341,-20.706 -3.325,-20.455 -3.341,-20.204 -3.353,-20.133 -3.392,-19.924 -3.412,-19.821 -3.608,-18.828 -4.001,-16.845 -4.047,-16.690 -4.121,-16.493 -4.214,-16.300 -4.301,-16.139 -4.561,-15.793 -5.027,-15.358 -5.182,-15.239 -5.335,-15.128 -6.256,-14.519 -6.505,-14.422 -6.701,-14.604 -7.232,-15.460 -7.747,-16.356 -7.808,-16.542 -7.867,-16.749 -7.934,-17.178"/>
<polygon class="node-57" points="-34.193,22.224 -34.177,21.973 -34.130,21.727 -34.053,21.488 -33.946,21.260 -33.811,21.048 -33.651,20.855 -33.598,20.804 -33.443,20.664 -33.334,20.570 -32.297,19.688 -30.612,18.255 -28.660,16.596 -27.761,15.831 -27.570,15.671 -27.396,15.556 -27.204,15.467 -26.777,15.278 -25.976,15.196 -25.750,15.264 -25.529,15.359 -25.058,15.905 -24.689,16.748 -24.604,16.978 -24.546,17.212 -24.516,17.445 -24.499,18.090 -24.580,18.344 -24.723,18.497 -25.145,18.857 -26.072,19.646 -28.034,21.313 -30.918,23.765 -30.943,23.784 -31.121,23.913 -31.341,24.034 -31.575,24.126 -31.818,24.189 -32.067,24.220 -32.319,24.220 -32.568,24.189 -32.811,24.126 -33.045,24.034 -33.265,23.913 -33.468,23.765 -33.651,23.593 -33.811,23.400 -33.946,23.188 -34.053,22.960 -34.130,22.721 -34.177,22.475"/>
<polygon class="node-58" points="-15.100,-4.177 -15.084,-4.428 -15.037,-4.674 -14.960,-4.913 -14.853,-5.141 -14.832,-5.177 -14.698,-5.411 -13.584,-7.355 -10.660,-12.460 -9.689,-14.156 -8.723,-15.841 -8.498,-16.195 -8.201,-16.527 -8.069,-16.560 -7.915,-16.575 -7.742,-16.570 -7.553,-16.546 -4.865,-15.586 -4.768,-15.438 -4.787,-14.895 -4.949,-14.388 -5.109,-14.104 -6.213,-12.177 -7.190,-10.471 -10.111,-5.372 -11.223,-3.429 -11.368,-3.177 -11.482,-3.001 -11.642,-2.808 -11.825,-2.636 -12.028,-2.488 -12.248,-2.367 -12.482,-2.275 -12.725,-2.212 -12.974,-2.181 -13.226,-2.181 -13.475,-2.212 -13.718,-2.275 -13.952,-2.367 -14.172,-2.488 -14.375,-2.636 -14.558,-2.808 -14.718,-3.001 -14.853,-3.213 -14.960,-3.441 -15.037,-3.680 -15.084,-3.926"/>
<polygon class="node-59" points="63.064,2.215 63.069,1.997 63.089,1.795 63.126,1.612 63.178,1.450 63.246,1.312 63.326,1.200 63.420,1.116 63.524,1.061 63.823,0.972 67.337,-0.066 67.522,-0.120 67.607,-0.146 67.817,-0.207 68.111,-0.293 68.267,-0.331 68.516,-0.362 68.768,-0.362 69.017,-0.331 69.260,-0.268 69.494,-0.176 69.714,-0.055 69.917,0.093 70.100,0.265 70.260,0.458 70.395,0.670 70.502,0.898 70.579,1.137 70.626,1.383 70.642,1.634 70.642,1.634 70.626,1.885 70.579,2.131 70.502,2.370 70.395,2.598 70.260,2.810 70.100,3.003 69.917,3.175 69.714,3.323 69.494,3.444 69.260,3.536 68.753,3.687 68.654,3.716 68.469,3.770 64.963,4.806 64.708,4.881 64.501,4.932 63.990,4.729 63.488,4.097 63.280,3.666 63.106,2.682 63.077,2.444"/>
<polygon class="node-60" points="-20.148,-5.149 -20.075,-5.874 -20.015,-6.117 -19.937,-6.355 -19.735,-6.800 -19.615,-7.000 -19.484,-7.181 -18.746,-7.707 -18.390,-7.688 -18.252,-7.656 -18.205,-7.645 -17.826,-7.542 -15.729,-6.969 -14.098,-6.523 -14.041,-6.481 -13.923,-6.391 -12.062,-4.444 -11.607,-3.794 -11.361,-3.221 -11.642,-2.808 -11.825,-2.636 -12.255,-2.382 -12.975,-2.197 -13.570,-2.257 -13.712,-2.272 -13.842,-2.307 -15.139,-2.661 -16.779,-3.109 -18.887,-3.685 -19.209,-3.774 -19.426,-3.834 -19.560,-3.877 -19.899,-4.181 -19.983,-4.335"/>
<polygon class="node-61" points="18.222,-18.324 18.224,-18.558 18.320,-19.009 18.412,-19.218 18.510,-19.377 18.555,-19.446 18.611,-19.531 19.365,-20.661 19.668,-21.116 19.917,-21.489 19.980,-21.581 20.054,-21.673 20.140,-21.774 20.323,-21.946 20.526,-22.094 20.746,-22.215 20.980,-22.307 21.223,-22.370 21.472,-22.401 21.724,-22.401 21.973,-22.370 22.216,-22.307 22.450,-22.215 22.670,-22.094 22.873,-21.946 23.056,-21.774 23.216,-21.581 23.351,-21.369 23.458,-21.141 23.535,-20.902 23.582,-20.656 23.598,-20.405 23.582,-20.154 23.535,-19.908 23.458,-19.669 23.388,-19.520 23.351,-19.441 23.278,-19.320 23.222,-19.235 23.012,-18.921 22.684,-18.430 21.947,-17.325 21.823,-17.140 21.677,-16.965 21.482,-16.770 21.292,-16.639 20.863,-16.454 20.630,-16.404 20.146,-16.392 19.431,-16.591 19.032,-16.902 18.654,-17.211 18.512,-17.414 18.250,-18.089"/>
<polygon class="node-62" points="-14.666,-2.504 -14.632,-2.749 -14.138,-4.444 -13.967,-4.807 -13.783,-5.003 -13.674,-5.082 -13.047,-5.027 -12.940,-5.013 -10.925,-3.894 -10.886,-3.782 -10.224,-1.635 -9.105,1.996 -8.951,2.493 -8.747,3.158 -8.706,3.292 -8.689,3.374 -8.702,3.465 -8.777,3.842 -9.012,4.058 -9.344,4.274 -9.540,4.378 -9.752,4.477 -9.977,4.570 -10.451,4.730 -11.388,4.917 -12.121,4.894 -12.467,4.582 -12.514,4.510 -12.576,4.313 -12.777,3.659 -12.929,3.168 -14.046,-0.455 -14.400,-1.605 -14.651,-2.421"/>
<polygon class="node-63" points="-7.285,-20.827 -7.257,-20.985 -7.211,-21.229 -7.062,-21.981 -6.913,-22.736 -6.650,-24.066 -6.536,-24.643 -6.488,-24.886 -6.446,-25.082 -6.369,-25.321 -6.262,-25.549 -6.127,-25.761 -5.967,-25.954 -5.784,-26.126 -5.581,-26.274 -5.361,-26.395 -5.127,-26.487 -4.884,-26.550 -4.635,-26.581 -4.383,-26.581 -4.134,-26.550 -3.891,-26.487 -3.657,-26.395 -3.437,-26.274 -3.234,-26.126 -3.051,-25.954 -2.891,-25.761 -2.756,-25.549 -2.649,-25.321 -2.572,-25.082 -2.525,-24.836 -2.509,-24.585 -2.525,-24.334 -2.563,-24.118 -2.612,-23.866 -2.727,-23.287 -2.987,-21.974 -3.131,-21.242 -3.277,-20.507 -3.361,-20.090 -3.420,-19.938 -3.508,-19.796 -3.682,-19.546 -4.007,-19.338 -4.415,-19.200 -4.880,-19.140 -5.125,-19.142 -6.098,-19.350 -6.526,-19.562 -6.879,-19.831 -7.086,-20.172 -7.181,-20.334 -7.246,-20.498 -7.281,-20.663"/>
<polygon class="node-64" points="-44.446,25.572 -44.430,25.321 -44.383,25.075 -44.306,24.836 -44.199,24.608 -44.064,24.396 -43.904,24.203 -43.721,24.031 -43.518,23.883 -43.298,23.762 -43.082,23.678 -42.960,23.636 -42.041,23.336 -40.708,22.901 -37.938,21.996 -37.694,21.933 -37.445,21.902 -37.194,21.902 -36.945,21.933 -36.701,21.996 -36.468,22.088 -36.248,22.209 -36.045,22.357 -35.862,22.529 -35.701,22.722 -35.567,22.934 -35.460,23.162 -35.382,23.401 -35.335,23.647 -35.320,23.898 -35.335,24.149 -35.382,24.395 -35.460,24.634 -35.567,24.862 -35.701,25.074 -35.862,25.267 -36.045,25.439 -36.248,25.587 -36.468,25.708 -36.686,25.793 -36.803,25.833 -37.826,26.167 -39.467,26.703 -41.828,27.474 -42.071,27.537 -42.320,27.568 -42.572,27.568 -42.821,27.537 -43.064,27.474 -43.298,27.382 -43.518,27.261 -43.721,27.113 -43.904,26.941 -44.064,26.748 -44.199,26.536 -44.306,26.308 -44.383,26.069 -44.430,25.823"/>
<polygon class="node-65" points="-38.024,22.244 -38.016,22.138 -37.881,22.001 -37.846,21.966 -37.735,21.930 -34.968,21.026 -34.045,20.725 -33.736,20.624 -33.226,20.457 -33.153,20.445 -32.979,20.439 -32.083,20.475 -31.070,21.169 -30.689,21.628 -30.518,22.012 -30.440,22.224 -30.464,22.909 -30.495,23.157 -30.626,23.363 -30.918,23.765 -31.341,24.034 -31.578,24.127 -31.677,24.159 -32.496,24.427 -32.802,24.527 -33.725,24.828 -36.494,25.732 -36.588,25.763 -36.633,25.767 -36.888,25.679 -37.299,24.943 -37.717,23.808 -38.008,22.530 -38.022,22.375"/>
<polygon class="node-66" points="-16.133,-4.514 -16.118,-4.765 -16.071,-5.012 -15.993,-5.251 -15.886,-5.478 -15.752,-5.690 -15.591,-5.884 -15.408,-6.056 -15.205,-6.203 -14.985,-6.324 -14.752,-6.417 -14.508,-6.479 -14.259,-6.511 -14.008,-6.511 -13.904,-6.500 -13.759,-6.479 -13.661,-6.458 -13.515,-6.417 -13.368,-6.368 -13.348,-6.362 -13.037,-6.260 -12.775,-6.175 -12.748,-6.166 -12.713,-6.154 -12.557,-6.094 -12.486,-6.058 -12.338,-5.982 -12.135,-5.842 -11.951,-5.692 -11.786,-5.507 -11.693,-5.401 -11.536,-5.165 -11.402,-4.884 -11.293,-4.472 -11.263,-4.341 -11.240,-4.171 -11.264,-3.922 -11.364,-3.599 -11.428,-3.488 -11.734,-3.033 -11.905,-2.863 -12.209,-2.624 -12.467,-2.484 -12.694,-2.384 -12.932,-2.312 -13.176,-2.272 -13.422,-2.262 -13.618,-2.274 -13.859,-2.323 -13.908,-2.338 -13.955,-2.352 -14.045,-2.382 -14.279,-2.458 -14.589,-2.559 -14.610,-2.566 -14.746,-2.611 -14.841,-2.644 -14.985,-2.705 -15.065,-2.746 -15.205,-2.826 -15.274,-2.876 -15.408,-2.973 -15.591,-3.145 -15.752,-3.339 -15.886,-3.551 -15.993,-3.778 -16.071,-4.017 -16.118,-4.264"/>
<polygon class="node-67" points="-33.216,23.952 -33.189,23.538 -32.814,20.905 -32.735,20.557 -32.303,20.475 -32.083,20.475 -30.768,21.180 -30.372,21.481 -30.138,21.739 -30.065,21.851 -28.586,24.202 -27.821,25.420 -27.768,25.504 -27.706,25.609 -27.599,25.836 -27.521,26.075 -27.474,26.322 -27.459,26.572 -27.474,26.823 -27.521,27.070 -27.599,27.309 -27.706,27.536 -27.840,27.748 -28.001,27.942 -28.184,28.114 -28.387,28.261 -28.607,28.382 -28.840,28.475 -29.084,28.537 -29.333,28.569 -29.584,28.569 -29.833,28.537 -30.077,28.475 -30.310,28.382 -30.530,28.261 -30.733,28.114 -30.916,27.942 -31.077,27.748 -31.149,27.641 -31.206,27.551 -31.971,26.334 -32.685,25.199 -33.008,24.685 -33.128,24.493 -33.157,24.408 -33.206,24.176"/>
<polygon class="node-68" points="-34.424,18.492 -34.408,18.242 -34.361,17.995 -34.284,17.756 -34.177,17.529 -34.042,17.317 -33.882,17.123 -33.699,16.951 -33.496,16.804 -33.276,16.683 -33.042,16.590 -32.799,16.528 -32.550,16.496 -32.298,16.496 -32.049,16.528 -31.806,16.590 -31.572,16.683 -31.352,16.804 -31.149,16.951 -30.966,17.123 -30.806,17.317 -30.671,17.529 -30.564,17.756 -30.487,17.995 -30.440,18.242 -30.435,18.295 -30.415,18.581 -30.364,19.407 -30.298,20.461 -30.252,21.204 -30.227,21.631 -30.262,21.727 -30.331,21.857 -30.416,21.942 -30.580,22.086 -30.884,22.280 -31.755,22.657 -32.447,22.865 -32.712,22.913 -32.915,22.948 -33.109,22.966 -33.361,22.794 -33.810,22.287 -34.060,21.930 -34.159,21.684 -34.221,21.508 -34.252,21.326 -34.291,20.703 -34.355,19.667 -34.405,18.852 -34.418,18.634"/>
<polygon class="node-69" points="-31.165,27.330 -30.736,26.844 -30.587,26.692 -30.418,26.539 -30.234,26.388 -30.037,26.241 -29.830,26.101 -28.842,25.493 -28.458,25.386 -27.817,25.449 -27.700,25.614 -27.606,25.762 -26.233,27.945 -25.959,28.381 -25.037,29.847 -24.971,29.957 -24.864,30.185 -24.787,30.424 -24.740,30.670 -24.724,30.921 -24.740,31.172 -24.787,31.418 -24.864,31.657 -24.971,31.885 -25.106,32.097 -25.266,32.290 -25.449,32.462 -25.652,32.610 -25.872,32.731 -26.106,32.823 -26.349,32.886 -26.598,32.917 -26.850,32.917 -27.099,32.886 -27.342,32.823 -27.576,32.731 -27.796,32.610 -27.999,32.462 -28.182,32.290 -28.342,32.097 -28.411,31.995 -29.349,30.504 -29.622,30.070 -30.983,27.905 -31.108,27.705 -31.134,27.619"/>
<polygon class="node-70" points="-17.167,-4.852 -17.151,-5.103 -17.104,-5.349 -17.027,-5.588 -16.920,-5.816 -16.785,-6.028 -16.625,-6.221 -16.442,-6.393 -16.239,-6.541 -16.019,-6.662 -15.785,-6.754 -15.542,-6.817 -15.293,-6.848 -15.041,-6.848 -14.948,-6.838 -14.792,-6.817 -14.705,-6.798 -14.549,-6.754 -13.961,-6.562 -13.495,-6.410 -13.345,-6.350 -13.262,-6.307 -13.127,-6.235 -13.053,-6.195 -12.856,-6.046 -12.743,-5.926 -12.583,-5.738 -12.448,-5.530 -12.339,-5.306 -12.259,-5.070 -12.181,-4.755 -12.189,-4.254 -12.317,-3.837 -12.429,-3.544 -12.702,-3.195 -12.907,-2.970 -13.109,-2.824 -13.291,-2.739 -13.519,-2.640 -13.757,-2.571 -14.043,-2.522 -14.248,-2.526 -14.493,-2.551 -14.626,-2.580 -14.733,-2.607 -14.937,-2.673 -15.216,-2.764 -15.513,-2.861 -15.718,-2.928 -15.754,-2.940 -15.864,-2.978 -16.019,-3.042 -16.089,-3.078 -16.239,-3.163 -16.299,-3.207 -16.442,-3.311 -16.625,-3.483 -16.785,-3.676 -16.920,-3.888 -17.027,-4.116 -17.104,-4.355 -17.151,-4.601"/>
<polygon class="node-71" points="-34.655,14.761 -34.639,14.510 -34.592,14.264 -34.515,14.025 -34.408,13.797 -34.273,13.585 -34.113,13.392 -33.930,13.220 -33.727,13.072 -33.507,12.951 -33.273,12.859 -33.030,12.796 -32.781,12.765 -32.529,12.765 -32.280,12.796 -32.037,12.859 -31.803,12.951 -31.583,13.072 -31.380,13.220 -31.197,13.392 -31.037,13.585 -30.902,13.797 -30.795,14.025 -30.718,14.264 -30.671,14.510 -30.664,14.578 -30.649,14.802 -30.585,15.838 -30.516,16.946 -30.433,18.289 -30.436,18.473 -30.439,18.603 -30.663,19.133 -31.134,19.573 -31.554,19.785 -31.786,19.861 -32.029,19.916 -32.528,19.957 -33.021,19.906 -33.255,19.847 -33.681,19.666 -33.866,19.547 -34.131,19.233 -34.249,19.074 -34.354,18.927 -34.397,18.728 -34.424,18.546 -34.508,17.203 -34.578,16.072 -34.643,15.018"/>
</svg>