<?xml version="1.0" encoding="UTF-8"?>
<svg xmlns="http://www.w3.org/2000/svg" viewBox="-80.150 -45.651 165.792 99.118">
<defs>
<style>
.node-0{fill:url(#node-0);}
.node-1{fill:url(#node-1);}
.node-2{fill:url(#node-2);}
.node-3{fill:url(#node-3);}
.node-4{fill:url(#node-4);}
.node-5{fill:url(#node-5);}
.node-6{fill:url(#node-6);}
.node-7{fill:url(#node-7);}
.node-8{fill:url(#node-8);}
.node-9{fill:url(#node-9);}
.node-10{fill:url(#node-10);}
.node-11{fill:url(#node-11);}
.node-12{fill:url(#node-12);}
.node-13{fill:url(#node-13);}
.node-14{fill:url(#node-14);}
.node-15{fill:url(#node-15);}
.node-16{fill:url(#node-16);}
.node-17{fill:url(#node-17);}
.node-18{fill:url(#node-18);}
.node-19{fill:url(#node-19);}
.node-20{fill:url(#node-20);}
.node-21{fill:url(#node-21);}
.node-22{fill:url(#node-22);}
.node-23{fill:url(#node-23);}
.node-24{fill:url(#node-24);}
.node-25{fill:url(#node-25);}
.node-26{fill:url(#node-26);}
.node-27{fill:url(#node-27);}
.node-28{fill:url(#node-28);}
.node-29{fill:url(#node-29);}
.node-30{fill:url(#node-30);}
.node-31{fill:url(#node-31);}
.node-32{fill:url(#node-32);}
.node-33{fill:url(#node-33);}
.node-34{fill:url(#node-34);}
.node-35{fill:url(#node-35);}
.node-36{fill:url(#node-36);}
.node-37{fill:url(#node-37);}
.node-38{fill:url(#node-38);}
.node-39{fill:url(#node-39);}
.node-40{fill:url(#node-40);}
</style>
<radialGradient id="node-0" cx="-20.842" cy="23.779" r="12.000" fx="-20.842" fy="23.779" gradientTransform="matrix(1,0,0,1,0,0)" gradientUnits="userSpaceOnUse" opacity="1.0"><stop offset="0.00" stop-color="#ffffff"/><stop offset="1.00" stop-color="#bfbfbf"/></radialGradient>
<radialGradient id="node-1" cx="24.229" cy="-9.646" r="12.000" fx="24.229" fy="-9.646" gradientTransform="matrix(1,0,0,1,0,0)" gradientUnits="userSpaceOnUse" opacity="1.0"><stop offset="0.00" stop-color="#ffffff"/><stop offset="1.00" stop-color="#bfbfbf"/></radialGradient>
<radialGradient id="node-2" cx="-29.961" cy="1.926" r="12.000" fx="-29.961" fy="1.926" gradientTransform="matrix(1,0,0,1,0,0)" gradientUnits="userSpaceOnUse" opacity="1.0"><stop offset="0.00" stop-color="#ffffff"/><stop offset="1.00" stop-color="#bfbfbf"/></radialGradient>
<radialGradient id="node-3" cx="4.359" cy="-10.113" r="12.000" fx="4.359" fy="-10.113" gradientTransform="matrix(1,0,0,1,0,0)" gradientUnits="userSpaceOnUse" opacity="1.0"><stop offset="0.00" stop-color="#ffffff"/><stop offset="1.00" stop-color="#bfbfbf"/></radialGradient>
<radialGradient id="node-4" cx="26.443" cy="14.206" r="12.000" fx="26.443" fy="14.206" gradientTransform="matrix(1,0,0,1,0,0)" gradientUnits="userSpaceOnUse" opacity="1.0"><stop offset="0.00" stop-color="#ffffff"/><stop offset="1.00" stop-color="#bfbfbf"/></radialGradient>
<radialGradient id="node-5" cx="-36.008" cy="30.119" r="12.000" fx="-36.008" fy="30.119" gradientTransform="matrix(1,0,0,1,0,0)" gradientUnits="userSpaceOnUse" opacity="1.0"><stop offset="0.00" stop-color="#ffffff"/><stop offset="1.00" stop-color="#bfbfbf"/></radialGradient>
<radialGradient id="node-6" cx="-22.842" cy="-25.451" r="15.200" fx="-22.842" fy="-25.451" gradientTransform="matrix(1,0,0,1,0,0)" gradientUnits="userSpaceOnUse" opacity="1.0"><stop offset="0.00" stop-color="#ff0000"/><stop offset="1.00" stop-color="#bf0000"/></radialGradient>
<radialGradient id="node-7" cx="34.453" cy="-21.891" r="12.000" fx="34.453" fy="-21.891" gradientTransform="matrix(1,0,0,1,0,0)" gradientUnits="userSpaceOnUse" opacity="1.0"><stop offset="0.00" stop-color="#ffffff"/><stop offset="1.00" stop-color="#bfbfbf"/></radialGradient>
<radialGradient id="node-8" cx="-25.771" cy="27.313" r="17.000" fx="-25.771" fy="27.313" gradientTransform="matrix(1,0,0,1,0,0)" gradientUnits="userSpaceOnUse" opacity="1.0"><stop offset="0.00" stop-color="#505050"/><stop offset="1.00" stop-color="#3c3c3c"/></radialGradient>
<radialGradient id="node-9" cx="29.020" cy="-12.655" r="17.000" fx="29.020" fy="-12.655" gradientTransform="matrix(1,0,0,1,0,0)" gradientUnits="userSpaceOnUse" opacity="1.0"><stop offset="0.00" stop-color="#505050"/><stop offset="1.00" stop-color="#3c3c3c"/></radialGradient>
<radialGradient id="node-10" cx="-53.517" cy="10.760" r="15.200" fx="-53.517" fy="10.760" gradientTransform="matrix(1,0,0,1,0,0)" gradientUnits="userSpaceOnUse" opacity="1.0"><stop offset="0.00" stop-color="#ff0000"/><stop offset="1.00" stop-color="#bf0000"/></radialGradient>
<radialGradient id="node-11" cx="35.670" cy="11.373" r="17.000" fx="35.670" fy="11.373" gradientTransform="matrix(1,0,0,1,0,0)" gradientUnits="userSpaceOnUse" opacity="1.0"><stop offset="0.00" stop-color="#505050"/><stop offset="1.00" stop-color="#3c3c3c"/></radialGradient>
<radialGradient id="node-12" cx="-20.666" cy="36.467" r="12.000" fx="-20.666" fy="36.467" gradientTransform="matrix(1,0,0,1,0,0)" gradientUnits="userSpaceOnUse" opacity="1.0"><stop offset="0.00" stop-color="#ffffff"/><stop offset="1.00" stop-color="#bfbfbf"/></radialGradient>
<radialGradient id="node-13" cx="-63.150" cy="9.762" r="12.000" fx="-63.150" fy="9.762" gradientTransform="matrix(1,0,0,1,0,0)" gradientUnits="userSpaceOnUse" opacity="1.0"><stop offset="0.00" stop-color="#ffffff"/><stop offset="1.00" stop-color="#bfbfbf"/></radialGradient>
<radialGradient id="node-14" cx="42.343" cy="31.743" r="12.000" fx="42.343" fy="31.743" gradientTransform="matrix(1,0,0,1,0,0)" gradientUnits="userSpaceOnUse" opacity="1.0"><stop offset="0.00" stop-color="#ffffff"/><stop offset="1.00" stop-color="#bfbfbf"/></radialGradient>
<radialGradient id="node-15" cx="38.679" cy="-1.949" r="17.000" fx="38.679" fy="-1.949" gradientTransform="matrix(1,0,0,1,0,0)" gradientUnits="userSpaceOnUse" opacity="1.0"><stop offset="0.00" stop-color="#505050"/><stop offset="1.00" stop-color="#3c3c3c"/></radialGradient>
<radialGradient id="node-16" cx="-31.671" cy="3.360" r="17.000" fx="-31.671" fy="3.360" gradientTransform="matrix(1,0,0,1,0,0)" gradientUnits="userSpaceOnUse" opacity="1.0"><stop offset="0.00" stop-color="#505050"/><stop offset="1.00" stop-color="#3c3c3c"/></radialGradient>
<radialGradient id="node-17" cx="44.619" cy="21.290" r="17.000" fx="44.619" fy="21.290" gradientTransform="matrix(1,0,0,1,0,0)" gradientUnits="userSpaceOnUse" opacity="1.0"><stop offset="0.00" stop-color="#505050"/><stop offset="1.00" stop-color="#3c3c3c"/></radialGradient>
<radialGradient id="node-18" cx="5.677" cy="-13.807" r="15.500" fx="5.677" fy="-13.807" gradientTransform="matrix(1,0,0,1,0,0)" gradientUnits="userSpaceOnUse" opacity="1.0"><stop offset="0.00" stop-color="#0000ff"/><stop offset="1.00" stop-color="#0000bf"/></radialGradient>
<radialGradient id="node-19" cx="-19.181" cy="-18.261" r="17.000" fx="-19.181" fy="-18.261" gradientTransform="matrix(1,0,0,1,0,0)" gradientUnits="userSpaceOnUse" opacity="1.0"><stop offset="0.00" stop-color="#505050"/><stop offset="1.00" stop-color="#3c3c3c"/></radialGradient>
<radialGradient id="node-20" cx="-46.296" cy="1.576" r="17.000" fx="-46.296" fy="1.576" gradientTransform="matrix(1,0,0,1,0,0)" gradientUnits="userSpaceOnUse" opacity="1.0"><stop offset="0.00" stop-color="#505050"/><stop offset="1.00" stop-color="#3c3c3c"/></radialGradient>
<radialGradient id="node-21" cx="18.730" cy="-16.107" r="17.000" fx="18.730" fy="-16.107" gradientTransform="matrix(1,0,0,1,0,0)" gradientUnits="userSpaceOnUse" opacity="1.0"><stop offset="0.00" stop-color="#505050"/><stop offset="1.00" stop-color="#3c3c3c"/></radialGradient>
<radialGradient id="node-22" cx="-25.670" cy="16.679" r="17.000" fx="-25.670" fy="16.679" gradientTransform="matrix(1,0,0,1,0,0)" gradientUnits="userSpaceOnUse" opacity="1.0"><stop offset="0.00" stop-color="#505050"/><stop offset="1.00" stop-color="#3c3c3c"/></radialGradient>
<radialGradient id="node-23" cx="50.457" cy="-5.556" r="17.000" fx="50.457" fy="-5.556" gradientTransform="matrix(1,0,0,1,0,0)" gradientUnits="userSpaceOnUse" opacity="1.0"><stop offset="0.00" stop-color="#505050"/><stop offset="1.00" stop-color="#3c3c3c"/></radialGradient>
<radialGradient id="node-24" cx="56.486" cy="17.786" r="17.000" fx="56.486" fy="17.786" gradientTransform="matrix(1,0,0,1,0,0)" gradientUnits="userSpaceOnUse" opacity="1.0"><stop offset="0.00" stop-color="#505050"/><stop offset="1.00" stop-color="#3c3c3c"/></radialGradient>
<radialGradient id="node-25" cx="-24.781" cy="-7.369" r="15.500" fx="-24.781" fy="-7.369" gradientTransform="matrix(1,0,0,1,0,0)" gradientUnits="userSpaceOnUse" opacity="1.0"><stop offset="0.00" stop-color="#0000ff"/><stop offset="1.00" stop-color="#0000bf"/></radialGradient>
<radialGradient id="node-26" cx="52.818" cy="-15.979" r="12.000" fx="52.818" fy="-15.979" gradientTransform="matrix(1,0,0,1,0,0)" gradientUnits="userSpaceOnUse" opacity="1.0"><stop offset="0.00" stop-color="#ffffff"/><stop offset="1.00" stop-color="#bfbfbf"/></radialGradient>
<radialGradient id="node-27" cx="-6.142" cy="-16.325" r="17.000" fx="-6.142" fy="-16.325" gradientTransform="matrix(1,0,0,1,0,0)" gradientUnits="userSpaceOnUse" opacity="1.0"><stop offset="0.00" stop-color="#505050"/><stop offset="1.00" stop-color="#3c3c3c"/></radialGradient>
<radialGradient id="node-28" cx="-8.019" cy="12.308" r="18.000" fx="-8.019" fy="12.308" gradientTransform="matrix(1,0,0,1,0,0)" gradientUnits="userSpaceOnUse" opacity="1.0"><stop offset="0.00" stop-color="#ffff00"/><stop offset="1.00" stop-color="#bfbf00"/></radialGradient>
<radialGradient id="node-29" cx="59.405" cy="4.362" r="17.000" fx="59.405" fy="4.362" gradientTransform="matrix(1,0,0,1,0,0)" gradientUnits="userSpaceOnUse" opacity="1.0"><stop offset="0.00" stop-color="#505050"/><stop offset="1.00" stop-color="#3c3c3c"/></radialGradient>
<radialGradient id="node-30" cx="63.451" cy="25.508" r="12.000" fx="63.451" fy="25.508" gradientTransform="matrix(1,0,0,1,0,0)" gradientUnits="userSpaceOnUse" opacity="1.0"><stop offset="0.00" stop-color="#ffffff"/><stop offset="1.00" stop-color="#bfbfbf"/></radialGradient>
<radialGradient id="node-31" cx="-51.157" cy="-6.970" r="15.200" fx="-51.157" fy="-6.970" gradientTransform="matrix(1,0,0,1,0,0)" gradientUnits="userSpaceOnUse" opacity="1.0"><stop offset="0.00" stop-color="#ff0000"/><stop offset="1.00" stop-color="#bf0000"/></radialGradient>
<radialGradient id="node-32" cx="68.642" cy="1.634" r="12.000" fx="68.642" fy="1.634" gradientTransform="matrix(1,0,0,1,0,0)" gradientUnits="userSpaceOnUse" opacity="1.0"><stop offset="0.00" stop-color="#ffffff"/><stop offset="1.00" stop-color="#bfbfbf"/></radialGradient>
<radialGradient id="node-33" cx="-13.100" cy="-4.177" r="17.000" fx="-13.100" fy="-4.177" gradientTransform="matrix(1,0,0,1,0,0)" gradientUnits="userSpaceOnUse" opacity="1.0"><stop offset="0.00" stop-color="#505050"/><stop offset="1.00" stop-color="#3c3c3c"/></radialGradient>
<radialGradient id="node-34" cx="-42.446" cy="25.572" r="12.000" fx="-42.446" fy="25.572" gradientTransform="matrix(1,0,0,1,0,0)" gradientUnits="userSpaceOnUse" opacity="1.0"><stop offset="0.00" stop-color="#ffffff"/><stop offset="1.00" stop-color="#bfbfbf"/></radialGradient>
<radialGradient id="node-35" cx="-4.509" cy="-24.585" r="12.000" fx="-4.509" fy="-24.585" gradientTransform="matrix(1,0,0,1,0,0)" gradientUnits="userSpaceOnUse" opacity="1.0"><stop offset="0.00" stop-color="#ffffff"/><stop offset="1.00" stop-color="#bfbfbf"/></radialGradient>
<radialGradient id="node-36" cx="21.598" cy="-20.405" r="15.200" fx="21.598" fy="-20.405" gradientTransform="matrix(1,0,0,1,0,0)" gradientUnits="userSpaceOnUse" opacity="1.0"><stop offset="0.00" stop-color="#ff0000"/><stop offset="1.00" stop-color="#bf0000"/></radialGradient>
<radialGradient id="node-37" cx="-32.193" cy="22.224" r="17.000" fx="-32.193" fy="22.224" gradientTransform="matrix(1,0,0,1,0,0)" gradientUnits="userSpaceOnUse" opacity="1.0"><stop offset="0.00" stop-color="#505050"/><stop offset="1.00" stop-color="#3c3c3c"/></radialGradient>
<radialGradient id="node-38" cx="-26.724" cy="30.921" r="12.000" fx="-26.724" fy="30.921" gradientTransform="matrix(1,0,0,1,0,0)" gradientUnits="userSpaceOnUse" opacity="1.0"><stop offset="0.00" stop-color="#ffffff"/><stop offset="1.00" stop-color="#bfbfbf"/></radialGradient>
<radialGradient id="node-39" cx="-32.655" cy="14.761" r="12.000" fx="-32.655" fy="14.761" gradientTransform="matrix(1,0,0,1,0,0)" gradientUnits="userSpaceOnUse" opacity="1.0"><stop offset="0.00" stop-color="#ffffff"/><stop offset="1.00" stop-color="#bfbfbf"/></radialGradient>
<radialGradient id="node-40" cx="-15.167" cy="-4.852" r="12.000" fx="-15.167" fy="-4.852" gradientTransform="matrix(1,0,0,1,0,0)" gradientUnits="userSpaceOnUse" opacity="1.0"><stop offset="0.00" stop-color="#ffffff"/><stop offset="1.00" stop-color="#bfbfbf"/></radialGradient>
</defs>
<polygon class="node-0" points="-32.842,23.779 -32.818,23.026 -32.747,22.275 -32.629,21.530 -32.465,20.795 -32.255,20.071 -31.999,19.362 -31.700,18.670 -31.358,17.998 -30.974,17.349 -30.550,16.726 -30.088,16.130 -29.590,15.564 -29.057,15.031 -28.491,14.533 -27.895,14.071 -27.272,13.647 -26.623,13.263 -25.951,12.921 -25.259,12.622 -24.550,12.366 -23.826,12.156 -23.091,11.992 -22.346,11.874 -21.595,11.803 -20.842,11.779 -20.089,11.803 -19.338,11.874 -18.593,11.992 -17.858,12.156 -17.134,12.366 -16.425,12.622 -15.733,12.921 -15.061,13.263 -14.412,13.647 -13.789,14.071 -13.193,14.533 -12.627,15.031 -12.094,15.564 -11.596,16.130 -11.134,16.726 -10.710,17.349 -10.326,17.998 -9.984,18.670 -9.685,19.362 -9.429,20.071 -9.219,20.795 -9.055,21.530 -8.937,22.275 -8.866,23.026 -8.842,23.779 -8.842,23.779 -8.866,24.532 -8.937,25.283 -9.055,26.028 -9.219,26.763 -9.429,27.487 -9.685,28.196 -9.984,28.888 -10.326,29.560 -10.710,30.209 -11.134,30.832 -11.596,31.428 -12.094,31.994 -12.627,32.527 -13.193,33.025 -13.789,33.487 -14.412,33.911 -15.061,34.295 -15.733,34.637 -16.425,34.936 -17.134,35.192 -17.858,35.402 -18.593,35.566 -19.338,35.684 -20.089,35.755 -20.842,35.779 -21.595,35.755 -22.346,35.684 -23.091,35.566 -23.826,35.402 -24.550,35.192 -25.259,34.936 -25.951,34.637 -26.623,34.295 -27.272,33.911 -27.895,33.487 -28.491,33.025 -29.057,32.527 -29.590,31.994 -30.088,31.428 -30.550,30.832 -30.974,30.209 -31.358,29.560 -31.700,28.888 -31.999,28.196 -32.255,27.487 -32.465,26.763 -32.629,26.028 -32.747,25.283 -32.818,24.532"/>
<polygon class="node-1" points="12.229,-9.646 12.253,-10.399 12.324,-11.150 12.442,-11.895 12.606,-12.630 12.816,-13.354 13.072,-14.063 13.371,-14.755 13.713,-15.427 14.097,-16.076 14.521,-16.699 14.983,-17.295 15.481,-17.861 16.014,-18.394 16.580,-18.892 17.176,-19.354 17.799,-19.778 18.448,-20.162 19.120,-20.504 19.812,-20.803 20.521,-21.059 21.245,-21.269 21.980,-21.433 22.725,-21.551 23.476,-21.622 24.229,-21.646 24.982,-21.622 25.733,-21.551 26.478,-21.433 27.213,-21.269 27.937,-21.059 28.646,-20.803 29.338,-20.504 30.010,-20.162 30.659,-19.778 31.282,-19.354 31.878,-18.892 32.444,-18.394 32.977,-17.861 33.475,-17.295 33.937,-16.699 34.361,-16.076 34.745,-15.427 35.087,-14.755 35.386,-14.063 35.642,-13.354 35.852,-12.630 36.016,-11.895 36.134,-11.150 36.205,-10.399 36.229,-9.646 36.229,-9.646 36.205,-8.893 36.134,-8.142 36.016,-7.397 35.852,-6.662 35.642,-5.938 35.386,-5.229 35.087,-4.537 34.745,-3.865 34.361,-3.216 33.937,-2.593 33.475,-1.997 32.977,-1.431 32.444,-0.898 31.878,-0.400 31.282,0.062 30.659,0.486 30.010,0.870 29.338,1.212 28.646,1.511 27.937,1.767 27.213,1.977 26.478,2.141 25.733,2.259 24.982,2.330 24.229,2.354 23.476,2.330 22.725,2.259 21.980,2.141 21.245,1.977 20.521,1.767 19.812,1.511 19.120,1.212 18.448,0.870 17.799,0.486 17.176,0.062 16.580,-0.400 16.014,-0.898 15.481,-1.431 14.983,-1.997 14.521,-2.593 14.097,-3.216 13.713,-3.865 13.371,-4.537 13.072,-5.229 12.816,-5.938 12.606,-6.662 12.442,-7.397 12.324,-8.142 12.253,-8.893"/>
<polygon class="node-2" points="-41.961,1.926 -41.937,1.173 -41.866,0.422 -41.748,-0.323 -41.584,-1.058 -41.374,-1.782 -41.118,-2.491 -40.819,-3.183 -40.477,-3.855 -40.093,-4.504 -39.669,-5.127 -39.207,-5.723 -38.709,-6.289 -38.176,-6.822 -37.610,-7.320 -37.014,-7.782 -36.391,-8.206 -35.742,-8.590 -35.070,-8.932 -34.378,-9.231 -33.669,-9.487 -32.945,-9.697 -32.210,-9.861 -31.465,-9.979 -30.714,-10.050 -29.961,-10.074 -29.208,-10.050 -28.457,-9.979 -27.712,-9.861 -26.977,-9.697 -26.253,-9.487 -25.544,-9.231 -24.852,-8.932 -24.180,-8.590 -23.531,-8.206 -22.908,-7.782 -22.312,-7.320 -21.746,-6.822 -21.213,-6.289 -20.715,-5.723 -20.253,-5.127 -19.829,-4.504 -19.445,-3.855 -19.103,-3.183 -18.804,-2.491 -18.548,-1.782 -18.338,-1.058 -18.174,-0.323 -18.056,0.422 -17.985,1.173 -17.961,1.926 -17.961,1.926 -17.985,2.679 -18.056,3.430 -18.174,4.175 -18.338,4.910 -18.548,5.634 -18.804,6.343 -19.103,7.035 -19.445,7.707 -19.829,8.356 -20.253,8.979 -20.715,9.575 -21.213,10.141 -21.746,10.674 -22.312,11.172 -22.908,11.634 -23.531,12.058 -24.180,12.442 -24.852,12.784 -25.544,13.083 -26.253,13.339 -26.977,13.549 -27.712,13.713 -28.457,13.831 -29.208,13.902 -29.961,13.926 -30.714,13.902 -31.465,13.831 -32.210,13.713 -32.945,13.549 -33.669,13.339 -34.378,13.083 -35.070,12.784 -35.742,12.442 -36.391,12.058 -37.014,11.634 -37.610,11.172 -38.176,10.674 -38.709,10.141 -39.207,9.575 -39.669,8.979 -40.093,8.356 -40.477,7.707 -40.819,7.035 -41.118,6.343 -41.374,5.634 -41.584,4.910 -41.748,4.175 -41.866,3.430 -41.937,2.679"/>
<polygon class="node-3" points="-7.641,-10.113 -7.617,-10.866 -7.546,-11.617 -7.428,-12.362 -7.264,-13.097 -7.054,-13.821 -6.798,-14.530 -6.499,-15.222 -6.157,-15.894 -5.773,-16.543 -5.349,-17.166 -4.887,-17.762 -4.389,-18.328 -3.856,-18.861 -3.290,-19.359 -2.694,-19.821 -2.071,-20.245 -1.422,-20.629 -0.750,-20.971 -0.058,-21.270 0.651,-21.526 1.375,-21.736 2.110,-21.900 2.855,-22.018 3.606,-22.089 4.359,-22.113 5.112,-22.089 5.863,-22.018 6.608,-21.900 7.343,-21.736 8.067,-21.526 8.776,-21.270 9.468,-20.971 10.140,-20.629 10.789,-20.245 11.412,-19.821 12.008,-19.359 12.574,-18.861 13.107,-18.328 13.605,-17.762 14.067,-17.166 14.491,-16.543 14.875,-15.894 15.217,-15.222 15.494,-14.522 15.682,-13.792 15.839,-13.061 15.938,-12.322 16.047,-10.848 16.070,-10.113 16.070,-10.113 16.047,-9.378 15.978,-8.645 15.776,-7.182 15.631,-6.450 15.467,-5.715 15.212,-5.006 14.875,-4.332 14.491,-3.683 14.067,-3.060 13.605,-2.464 13.107,-1.898 12.574,-1.365 12.008,-0.867 11.412,-0.405 10.789,0.019 10.140,0.403 9.468,0.745 8.776,1.044 8.067,1.300 7.343,1.510 6.608,1.674 5.863,1.792 5.112,1.863 4.359,1.887 3.606,1.863 2.855,1.792 2.110,1.674 1.375,1.510 0.651,1.300 -0.058,1.044 -0.750,0.745 -1.422,0.403 -2.071,0.019 -2.694,-0.405 -3.290,-0.867 -3.856,-1.365 -4.389,-1.898 -4.887,-2.464 -5.349,-3.060 -5.773,-3.683 -6.157,-4.332 -6.499,-5.004 -6.798,-5.696 -7.054,-6.405 -7.264,-7.129 -7.428,-7.864 -7.546,-8.609 -7.617,-9.360"/>
<polygon class="node-4" points="14.443,14.206 14.467,13.453 14.538,12.702 14.656,11.957 14.820,11.222 15.030,10.498 15.286,9.789 15.585,9.097 15.927,8.425 16.311,7.776 16.735,7.153 17.197,6.557 17.695,5.991 18.228,5.458 18.794,4.960 19.390,4.498 20.013,4.074 20.662,3.690 21.334,3.348 22.026,3.049 22.735,2.793 23.459,2.583 24.194,2.419 24.939,2.301 25.690,2.230 26.443,2.206 27.196,2.230 27.947,2.301 28.692,2.419 29.427,2.583 30.151,2.793 30.860,3.049 31.552,3.348 32.224,3.690 32.873,4.074 33.496,4.498 34.092,4.960 34.658,5.458 35.191,5.991 35.689,6.557 36.151,7.153 36.575,7.776 36.959,8.425 37.301,9.097 37.600,9.789 37.856,10.498 38.066,11.222 38.230,11.957 38.348,12.702 38.419,13.453 38.443,14.206 38.443,14.206 38.419,14.959 38.348,15.710 38.230,16.455 38.066,17.190 37.856,17.914 37.600,18.623 37.301,19.315 36.959,19.987 36.575,20.636 36.151,21.259 35.689,21.855 35.191,22.421 34.658,22.954 34.092,23.452 33.496,23.914 32.873,24.338 32.224,24.722 31.552,25.064 30.860,25.363 30.151,25.619 29.427,25.829 28.692,25.993 27.947,26.111 27.196,26.182 26.443,26.206 25.690,26.182 24.939,26.111 24.194,25.993 23.459,25.829 22.735,25.619 22.026,25.363 21.334,25.064 20.662,24.722 20.013,24.338 19.390,23.914 18.794,23.452 18.228,22.954 17.695,22.421 17.197,21.855 16.735,21.259 16.311,20.636 15.927,19.987 15.585,19.315 15.286,18.623 15.030,17.914 14.820,17.190 14.656,16.455 14.538,15.710 14.467,14.959"/>
<polygon class="node-5" points="-48.008,30.119 -47.984,29.366 -47.913,28.615 -47.795,27.870 -47.631,27.135 -47.421,26.411 -47.165,25.702 -46.866,25.010 -46.524,24.338 -46.140,23.689 -45.716,23.066 -45.254,22.470 -44.756,21.904 -44.223,21.371 -43.657,20.873 -43.061,20.411 -42.438,19.987 -41.789,19.603 -41.117,19.261 -40.425,18.962 -39.716,18.706 -38.992,18.496 -38.257,18.332 -37.512,18.214 -36.761,18.143 -36.008,18.119 -35.255,18.143 -34.504,18.214 -33.759,18.332 -33.024,18.496 -32.300,18.706 -31.591,18.962 -30.899,19.261 -30.227,19.603 -29.607,20.032 -29.041,20.530 -28.052,21.646 -27.214,22.844 -26.874,23.483 -26.231,24.744 -25.913,25.368 -25.634,26.012 -25.397,26.671 -24.917,28.003 -24.618,29.402 -24.320,30.854 -24.314,31.596 -24.314,32.350 -24.391,33.102 -24.595,33.827 -24.851,34.536 -25.150,35.228 -25.492,35.900 -25.876,36.549 -26.300,37.172 -26.762,37.768 -27.260,38.334 -27.793,38.867 -28.359,39.365 -28.955,39.827 -29.578,40.251 -30.227,40.635 -30.899,40.977 -31.591,41.276 -32.300,41.532 -33.024,41.742 -33.759,41.906 -34.504,42.024 -35.255,42.095 -36.008,42.119 -36.761,42.095 -37.512,42.024 -38.257,41.906 -38.992,41.742 -39.716,41.532 -40.425,41.276 -41.117,40.977 -41.789,40.635 -42.438,40.251 -43.061,39.827 -43.657,39.365 -44.223,38.867 -44.756,38.334 -45.254,37.768 -45.716,37.172 -46.140,36.549 -46.524,35.900 -46.866,35.228 -47.165,34.536 -47.421,33.827 -47.631,33.103 -47.795,32.368 -47.913,31.623 -47.984,30.872"/>
<polygon class="node-6" points="-38.042,-25.451 -38.012,-26.405 -37.922,-27.356 -37.773,-28.299 -37.564,-29.231 -37.298,-30.148 -36.975,-31.046 -36.595,-31.923 -36.162,-32.774 -35.676,-33.596 -35.139,-34.385 -34.554,-35.140 -33.922,-35.856 -33.247,-36.531 -32.531,-37.163 -31.776,-37.748 -30.987,-38.285 -30.165,-38.771 -29.314,-39.204 -28.437,-39.584 -27.539,-39.907 -26.622,-40.173 -25.690,-40.382 -24.747,-40.531 -23.796,-40.621 -22.842,-40.651 -21.888,-40.621 -20.937,-40.531 -19.994,-40.382 -19.062,-40.173 -18.145,-39.907 -17.247,-39.584 -16.370,-39.204 -15.519,-38.771 -14.697,-38.285 -13.908,-37.748 -13.153,-37.163 -12.437,-36.531 -11.762,-35.856 -11.130,-35.140 -10.545,-34.385 -10.008,-33.596 -9.522,-32.774 -9.089,-31.923 -8.709,-31.046 -8.386,-30.148 -8.120,-29.231 -7.911,-28.299 -7.762,-27.356 -7.672,-26.405 -7.642,-25.451 -7.642,-25.451 -7.672,-24.497 -7.762,-23.546 -7.911,-22.603 -8.120,-21.671 -8.386,-20.754 -8.709,-19.856 -9.089,-18.979 -9.522,-18.128 -10.008,-17.306 -10.545,-16.517 -11.130,-15.762 -11.762,-15.046 -12.437,-14.371 -13.153,-13.739 -13.908,-13.154 -14.697,-12.617 -15.519,-12.131 -16.370,-11.698 -17.247,-11.318 -18.145,-10.995 -19.062,-10.729 -19.994,-10.520 -20.937,-10.371 -21.888,-10.281 -22.842,-10.251 -23.796,-10.281 -24.747,-10.371 -25.690,-10.520 -26.622,-10.729 -27.539,-10.995 -28.437,-11.318 -29.314,-11.698 -30.165,-12.131 -30.987,-12.617 -31.776,-13.154 -32.531,-13.739 -33.247,-14.371 -33.922,-15.046 -34.554,-15.762 -35.139,-16.517 -35.676,-17.306 -36.162,-18.128 -36.595,-18.979 -36.975,-19.856 -37.298,-20.754 -37.564,-21.671 -37.773,-22.603 -37.922,-23.546 -38.012,-24.497"/>
<polygon class="node-7" points="22.453,-21.891 22.477,-22.644 22.548,-23.395 22.666,-24.140 22.830,-24.875 23.040,-25.599 23.296,-26.308 23.595,-27.000 23.937,-27.672 24.321,-28.321 24.745,-28.944 25.207,-29.540 25.705,-30.106 26.238,-30.639 26.804,-31.137 27.400,-31.599 28.023,-32.023 28.672,-32.407 29.344,-32.749 30.036,-33.048 30.745,-33.304 31.469,-33.514 32.204,-33.678 32.949,-33.796 33.700,-33.867 34.453,-33.891 35.206,-33.867 35.957,-33.796 36.702,-33.678 37.437,-33.514 38.161,-33.304 38.870,-33.048 39.562,-32.749 40.234,-32.407 40.883,-32.023 41.506,-31.599 42.102,-31.137 42.668,-30.639 43.201,-30.106 43.699,-29.540 44.161,-28.944 44.585,-28.321 44.969,-27.672 45.311,-27.000 45.610,-26.308 45.866,-25.599 46.076,-24.875 46.240,-24.140 46.358,-23.395 46.429,-22.644 46.453,-21.891 46.453,-21.891 46.429,-21.138 46.358,-20.387 46.240,-19.642 46.076,-18.907 45.866,-18.183 45.610,-17.474 45.311,-16.782 44.969,-16.110 44.585,-15.461 44.161,-14.838 43.699,-14.242 43.201,-13.676 42.668,-13.143 42.102,-12.645 41.506,-12.183 40.883,-11.759 40.234,-11.375 39.562,-11.033 38.870,-10.734 38.161,-10.478 37.437,-10.268 36.702,-10.104 35.957,-9.986 35.206,-9.915 34.453,-9.891 33.700,-9.921 32.961,-10.080 32.244,-10.312 31.541,-10.548 30.861,-10.837 30.211,-11.177 29.594,-11.565 28.403,-12.358 27.817,-12.757 27.256,-13.191 26.724,-13.661 26.223,-14.162 25.220,-15.183 24.723,-15.716 24.268,-16.292 23.857,-16.905 23.493,-17.552 23.130,-18.212 22.853,-18.913 22.666,-19.642 22.548,-20.387 22.477,-21.138"/>
<polygon class="node-8" points="-41.297,22.268 -41.197,21.206 -41.085,20.107 -40.668,19.123 -40.125,18.204 -39.524,17.321 -38.870,16.477 -38.163,15.676 -37.408,14.921 -36.607,14.214 -35.763,13.560 -34.880,12.959 -33.961,12.416 -32.977,11.999 -31.980,11.631 -30.960,11.344 -28.900,10.910 -27.864,10.746 -25.771,10.522 -24.712,10.480 -23.645,10.480 -22.586,10.614 -21.543,10.847 -20.518,11.145 -19.513,11.507 -18.533,11.931 -17.581,12.416 -16.662,12.959 -15.779,13.560 -14.935,14.214 -14.134,14.921 -13.379,15.676 -12.672,16.477 -12.018,17.321 -11.417,18.204 -10.874,19.123 -10.389,20.075 -9.965,21.055 -9.603,22.060 -9.305,23.085 -9.072,24.128 -8.905,25.182 -8.805,26.246 -8.771,27.313 -8.771,27.313 -8.805,28.380 -8.905,29.444 -9.072,30.498 -9.305,31.541 -9.603,32.566 -9.965,33.571 -10.389,34.551 -10.874,35.503 -11.417,36.422 -12.018,37.305 -12.672,38.149 -13.379,38.950 -14.134,39.705 -14.935,40.412 -15.779,41.066 -16.662,41.667 -17.581,42.210 -18.533,42.695 -19.513,43.119 -20.518,43.481 -21.543,43.779 -22.586,44.012 -23.640,44.179 -24.704,44.279 -25.771,44.313 -26.838,44.279 -27.902,44.179 -28.956,44.012 -29.999,43.779 -31.024,43.481 -32.029,43.119 -33.009,42.695 -33.961,42.210 -34.876,41.659 -35.640,40.897 -36.267,40.000 -36.839,39.099 -37.293,38.133 -38.826,34.490 -39.687,31.835 -39.944,30.952 -40.144,30.055 -40.888,26.362 -41.032,25.385 -41.263,23.335"/>
<polygon class="node-9" points="12.684,-14.719 12.757,-16.831 12.860,-17.906 13.214,-18.913 13.638,-19.893 14.123,-20.845 14.666,-21.764 15.267,-22.647 15.921,-23.491 16.628,-24.292 17.383,-25.047 18.184,-25.754 19.028,-26.408 19.911,-27.009 20.830,-27.552 21.782,-28.037 22.762,-28.461 23.767,-28.823 24.792,-29.121 25.849,-29.280 26.941,-29.115 28.005,-28.791 29.020,-28.461 30.918,-27.683 33.542,-26.571 35.935,-25.233 36.711,-24.774 39.037,-23.322 42.193,-21.015 44.446,-18.762 45.116,-17.885 45.486,-16.883 45.719,-15.840 45.886,-14.786 45.986,-13.722 46.020,-12.655 46.020,-12.655 45.986,-11.588 45.886,-10.524 45.719,-9.470 45.486,-8.427 45.188,-7.402 44.826,-6.397 44.402,-5.417 43.917,-4.465 43.374,-3.546 42.773,-2.663 42.119,-1.819 41.412,-1.018 40.657,-0.263 39.856,0.444 39.012,1.098 38.129,1.699 37.210,2.242 36.258,2.727 35.278,3.151 34.273,3.513 33.248,3.811 32.205,4.044 31.141,4.136 30.074,4.103 27.971,4.011 26.927,3.912 24.844,3.608 23.790,3.441 22.762,3.151 21.782,2.727 20.830,2.242 19.911,1.699 19.028,1.098 18.184,0.444 17.383,-0.263 16.628,-1.018 15.921,-1.819 15.267,-2.663 14.666,-3.546 14.152,-4.481 13.827,-5.506 13.594,-6.548 12.980,-10.629 12.884,-11.640 12.727,-13.680"/>
<polygon class="node-10" points="-68.717,10.760 -68.687,9.806 -68.597,8.855 -68.448,7.912 -68.239,6.980 -67.973,6.063 -67.650,5.165 -67.270,4.288 -66.837,3.437 -66.351,2.615 -65.814,1.826 -65.229,1.071 -64.597,0.355 -63.922,-0.320 -63.206,-0.952 -62.451,-1.537 -61.662,-2.074 -60.840,-2.560 -59.989,-2.993 -59.112,-3.373 -58.214,-3.696 -57.297,-3.962 -56.365,-4.171 -55.422,-4.320 -54.471,-4.410 -53.517,-4.440 -52.563,-4.410 -51.612,-4.320 -50.669,-4.171 -49.737,-3.962 -48.820,-3.696 -47.922,-3.373 -47.045,-2.993 -46.194,-2.560 -45.372,-2.074 -44.583,-1.537 -43.828,-0.952 -43.112,-0.320 -42.437,0.355 -41.805,1.071 -41.220,1.826 -40.683,2.615 -40.197,3.437 -39.770,4.291 -39.391,5.167 -39.068,6.065 -38.795,6.980 -38.586,7.912 -38.437,8.855 -38.347,9.806 -38.317,10.760 -38.317,10.760 -38.347,11.714 -38.437,12.665 -38.586,13.608 -38.795,14.540 -39.061,15.457 -39.384,16.355 -39.764,17.232 -40.197,18.083 -40.683,18.905 -41.220,19.694 -41.805,20.449 -42.442,21.160 -43.132,21.818 -43.847,22.449 -44.587,23.051 -45.372,23.594 -46.194,24.080 -47.045,24.513 -47.922,24.893 -48.820,25.216 -49.737,25.482 -50.669,25.691 -51.612,25.840 -52.563,25.930 -53.517,25.960 -54.471,25.930 -55.422,25.840 -56.365,25.691 -57.297,25.482 -58.214,25.216 -59.112,24.893 -59.989,24.513 -60.840,24.080 -61.662,23.594 -62.451,23.057 -63.206,22.472 -63.922,21.840 -64.597,21.165 -65.229,20.449 -65.814,19.694 -66.351,18.905 -66.837,18.083 -67.270,17.232 -67.650,16.355 -67.973,15.457 -68.239,14.540 -68.448,13.608 -68.597,12.665 -68.687,11.714"/>
<polygon class="node-11" points="19.103,9.280 19.177,8.227 19.277,7.164 19.534,6.130 19.864,5.115 20.288,4.135 20.773,3.183 21.345,2.282 23.491,1.298 27.406,-0.002 29.951,-0.781 33.986,-1.954 35.670,-2.380 38.412,-3.000 40.491,-3.465 41.622,-3.660 42.819,-3.820 43.860,-3.524 44.779,-2.981 45.662,-2.380 46.506,-1.726 47.307,-1.019 48.062,-0.264 48.769,0.537 49.423,1.381 50.024,2.264 50.567,3.183 51.052,4.135 51.476,5.115 51.838,6.120 52.136,7.145 52.369,8.188 52.536,9.242 52.636,10.306 52.670,11.373 52.670,11.373 52.636,12.440 52.536,13.504 52.369,14.558 52.136,15.601 51.838,16.626 51.476,17.631 51.052,18.611 50.567,19.563 50.024,20.482 49.423,21.365 48.769,22.209 48.062,23.010 47.307,23.765 46.506,24.472 45.662,25.126 44.779,25.727 43.860,26.270 42.908,26.755 41.928,27.179 40.923,27.541 39.898,27.839 38.855,28.072 37.801,28.239 36.737,28.339 35.670,28.373 34.603,28.339 33.539,28.239 32.485,28.072 31.442,27.839 30.417,27.541 29.412,27.179 28.432,26.755 27.480,26.270 26.561,25.727 25.678,25.126 24.855,24.446 24.124,23.668 23.497,22.804 22.887,21.948 22.349,21.051 21.364,19.238 20.637,17.325 20.293,16.369 20.010,15.394 19.788,14.403 19.377,12.398 19.204,11.373 19.112,10.331"/>
<polygon class="node-12" points="-30.673,42.818 -30.443,41.842 -29.834,40.781 -29.035,39.781 -28.213,38.919 -27.498,38.221 -26.071,37.150 -23.909,35.634 -22.784,34.928 -20.830,33.854 -17.663,32.333 -14.337,31.231 -13.186,31.032 -11.945,30.932 -10.665,30.969 -9.894,31.398 -9.509,32.050 -9.253,32.759 -9.043,33.483 -8.879,34.218 -8.761,34.963 -8.690,35.714 -8.666,36.467 -8.690,37.220 -8.761,37.971 -8.879,38.716 -9.043,39.451 -9.253,40.175 -9.509,40.884 -9.808,41.576 -10.150,42.248 -10.534,42.897 -10.958,43.520 -11.420,44.116 -11.918,44.682 -12.451,45.215 -13.017,45.713 -13.613,46.175 -14.236,46.599 -14.885,46.983 -15.557,47.325 -16.249,47.624 -16.958,47.880 -17.682,48.090 -18.417,48.254 -19.162,48.372 -19.913,48.443 -20.666,48.467 -21.419,48.443 -22.170,48.372 -22.915,48.254 -23.650,48.090 -24.374,47.880 -25.083,47.624 -25.775,47.325 -26.447,46.983 -27.096,46.599 -27.719,46.175 -28.315,45.713 -28.881,45.215 -29.414,44.682 -29.912,44.116 -30.374,43.520"/>
<polygon class="node-13" points="-75.150,9.762 -75.126,9.009 -75.055,8.258 -74.937,7.513 -74.773,6.778 -74.563,6.054 -74.307,5.345 -74.008,4.653 -73.666,3.981 -73.282,3.332 -72.858,2.709 -72.396,2.113 -71.898,1.547 -71.365,1.014 -70.799,0.516 -70.203,0.054 -69.580,-0.370 -68.931,-0.754 -68.259,-1.096 -67.567,-1.395 -66.858,-1.651 -66.134,-1.861 -65.399,-2.025 -64.654,-2.143 -63.903,-2.214 -63.150,-2.238 -62.397,-2.214 -61.646,-2.143 -60.991,-1.557 -60.630,-0.052 -60.442,2.924 -60.559,6.630 -60.630,8.163 -60.940,11.165 -61.163,12.893 -61.631,15.679 -61.828,16.690 -62.120,17.912 -62.540,19.451 -63.150,20.919 -63.903,21.732 -64.654,21.667 -65.399,21.549 -66.134,21.385 -66.858,21.175 -67.567,20.919 -68.259,20.620 -68.931,20.278 -69.580,19.894 -70.203,19.470 -70.799,19.008 -71.365,18.510 -71.898,17.977 -72.396,17.411 -72.858,16.815 -73.282,16.192 -73.666,15.543 -74.008,14.871 -74.307,14.179 -74.563,13.470 -74.773,12.746 -74.937,12.011 -75.055,11.266 -75.126,10.515"/>
<polygon class="node-14" points="30.343,31.743 30.367,30.990 30.438,30.239 30.556,29.494 30.720,28.759 30.930,28.035 31.323,27.380 32.828,26.512 34.314,25.909 36.181,25.181 37.796,24.579 41.810,23.274 43.471,22.813 45.410,22.304 46.966,21.918 47.841,21.742 48.722,21.691 49.396,22.035 49.992,22.497 50.558,22.995 51.091,23.528 51.589,24.094 52.051,24.690 52.475,25.313 52.859,25.962 53.201,26.634 53.500,27.326 53.756,28.035 53.966,28.759 54.130,29.494 54.248,30.239 54.319,30.990 54.343,31.743 54.343,31.743 54.319,32.496 54.248,33.247 54.130,33.992 53.966,34.727 53.756,35.451 53.500,36.160 53.201,36.852 52.859,37.524 52.475,38.173 52.051,38.796 51.589,39.392 51.091,39.958 50.558,40.491 49.992,40.989 49.396,41.451 48.773,41.875 48.124,42.259 47.452,42.601 46.760,42.900 46.051,43.156 45.327,43.366 44.592,43.530 43.847,43.648 43.096,43.719 42.343,43.743 41.590,43.719 40.839,43.648 40.094,43.530 39.359,43.366 38.635,43.156 37.926,42.900 37.234,42.601 36.562,42.259 35.913,41.875 35.290,41.451 34.694,40.989 34.128,40.491 33.595,39.958 33.097,39.392 32.635,38.796 32.211,38.173 31.827,37.524 31.485,36.852 31.186,36.160 30.930,35.451 30.720,34.727 30.556,33.992 30.438,33.247 30.367,32.496"/>
<polygon class="node-15" points="22.276,1.180 22.639,0.077 23.532,-1.949 24.075,-2.868 24.730,-3.711 26.551,-5.890 28.145,-7.740 29.712,-9.367 31.839,-11.364 34.850,-13.735 37.815,-15.675 40.607,-17.210 42.774,-17.898 43.891,-17.989 44.937,-17.755 45.917,-17.331 46.869,-16.846 47.788,-16.303 48.671,-15.702 49.515,-15.048 50.316,-14.341 51.071,-13.586 51.778,-12.785 52.432,-11.941 53.033,-11.058 53.576,-10.139 54.061,-9.187 54.485,-8.207 54.847,-7.202 55.145,-6.177 55.378,-5.134 55.545,-4.080 55.645,-3.016 55.679,-1.949 55.679,-1.949 55.645,-0.882 55.545,0.182 55.378,1.236 55.145,2.279 54.847,3.304 54.485,4.309 54.061,5.289 53.576,6.241 53.033,7.160 52.432,8.043 51.546,8.695 50.201,8.871 48.877,8.911 46.575,8.918 45.512,8.818 42.818,8.504 36.888,7.437 36.303,7.306 30.484,5.747 27.912,4.884 26.908,4.522 24.828,3.535 23.646,2.935 22.505,2.204"/>
<polygon class="node-16" points="-47.711,-1.852 -47.477,-2.898 -47.053,-3.878 -46.568,-4.830 -46.025,-5.749 -45.424,-6.632 -44.770,-7.476 -44.063,-8.277 -43.308,-9.032 -42.507,-9.739 -41.663,-10.393 -40.780,-10.994 -39.861,-11.537 -38.909,-12.022 -37.929,-12.446 -36.924,-12.808 -35.899,-13.106 -34.856,-13.339 -33.802,-13.506 -32.738,-13.606 -31.671,-13.640 -30.604,-13.606 -29.540,-13.506 -28.486,-13.339 -27.443,-13.106 -26.418,-12.808 -25.413,-12.446 -24.433,-12.022 -23.481,-11.537 -22.562,-10.994 -21.679,-10.393 -20.835,-9.739 -20.034,-9.032 -19.279,-8.277 -18.572,-7.476 -17.918,-6.632 -17.317,-5.749 -16.774,-4.830 -16.289,-3.878 -15.865,-2.898 -15.503,-1.893 -15.205,-0.868 -14.972,0.175 -14.805,1.229 -14.705,2.293 -14.671,3.360 -14.671,3.360 -14.705,4.427 -14.805,5.491 -14.972,6.545 -15.205,7.588 -15.503,8.613 -15.865,9.618 -16.289,10.598 -16.774,11.550 -17.317,12.469 -17.918,13.352 -18.676,14.111 -19.577,14.717 -21.475,15.684 -25.222,17.066 -27.966,17.789 -30.720,18.477 -33.626,18.839 -35.692,19.020 -36.759,19.020 -37.852,18.972 -38.895,18.712 -39.861,18.257 -40.776,17.706 -41.486,16.870 -42.077,15.939 -42.620,15.020 -43.523,13.165 -44.726,10.537 -46.788,4.311 -47.242,2.380 -47.553,0.330"/>
<polygon class="node-17" points="28.283,25.484 28.445,24.375 28.937,23.271 29.986,21.290 30.586,20.407 32.268,18.119 32.833,17.461 34.421,15.684 38.595,11.798 40.335,10.470 42.297,9.117 43.021,8.639 44.619,8.191 48.189,7.387 50.282,6.988 51.429,6.817 52.664,6.657 53.728,6.936 54.611,7.537 55.455,8.191 56.256,8.898 57.011,9.653 57.718,10.454 58.372,11.298 58.973,12.181 59.516,13.100 60.001,14.052 60.425,15.032 60.787,16.037 61.085,17.062 61.318,18.105 61.485,19.159 61.585,20.223 61.619,21.290 61.619,21.290 61.585,22.357 61.485,23.421 61.318,24.475 61.085,25.518 60.787,26.543 60.425,27.548 60.001,28.528 59.516,29.480 58.973,30.399 58.372,31.282 57.718,32.126 57.011,32.927 56.256,33.682 55.455,34.389 54.611,35.043 53.728,35.644 52.708,36.004 50.507,36.162 49.440,36.128 47.410,35.923 46.453,35.807 43.736,35.323 39.443,34.363 36.778,33.645 35.863,33.342 33.939,32.663 32.959,32.239 31.932,31.786 30.974,31.204 30.265,30.399 29.722,29.480 29.237,28.528 28.813,27.548 28.451,26.543"/>
<polygon class="node-18" points="-9.823,-13.807 -9.792,-14.780 -9.701,-15.750 -9.548,-16.711 -9.336,-17.662 -9.064,-18.597 -8.735,-19.513 -8.348,-20.407 -7.906,-21.274 -7.410,-22.112 -6.863,-22.918 -6.266,-23.687 -5.622,-24.417 -4.933,-25.106 -4.203,-25.750 -3.434,-26.347 -2.628,-26.894 -1.790,-27.390 -0.923,-27.832 -0.029,-28.219 0.887,-28.548 1.822,-28.820 2.773,-29.032 3.734,-29.185 4.704,-29.276 5.677,-29.307 6.650,-29.276 7.620,-29.185 8.581,-29.032 9.532,-28.820 10.467,-28.548 11.383,-28.219 12.277,-27.832 13.144,-27.390 13.982,-26.894 14.788,-26.347 15.557,-25.750 16.287,-25.106 16.976,-24.417 17.620,-23.687 18.062,-22.806 18.449,-21.912 18.903,-19.044 19.015,-18.141 19.153,-15.509 18.833,-10.429 18.306,-6.864 17.408,-4.102 16.926,-3.244 16.287,-2.508 15.557,-1.864 14.788,-1.267 13.982,-0.720 13.144,-0.224 12.277,0.218 11.383,0.605 10.467,0.934 9.532,1.206 8.581,1.418 7.620,1.571 6.650,1.662 5.677,1.693 4.704,1.662 3.734,1.571 2.773,1.418 1.822,1.206 0.887,0.934 -0.029,0.605 -0.923,0.218 -1.790,-0.224 -2.628,-0.720 -3.434,-1.267 -4.203,-1.864 -4.933,-2.508 -5.622,-3.197 -6.266,-3.927 -6.863,-4.696 -7.410,-5.502 -7.906,-6.340 -8.348,-7.207 -8.735,-8.101 -9.064,-9.017 -9.336,-9.952 -9.548,-10.903 -9.701,-11.864 -9.792,-12.834"/>
<polygon class="node-19" points="-36.181,-18.261 -36.147,-19.328 -36.047,-20.392 -35.880,-21.446 -35.647,-22.489 -35.349,-23.514 -34.979,-24.516 -34.533,-25.485 -34.012,-26.414 -33.421,-27.298 -32.826,-28.175 -32.118,-28.964 -30.612,-30.434 -28.933,-31.683 -28.071,-32.269 -27.174,-32.799 -26.245,-33.273 -25.288,-33.687 -24.308,-34.040 -22.310,-34.664 -20.235,-35.019 -19.181,-35.127 -18.122,-35.094 -17.060,-35.052 -16.002,-34.927 -14.955,-34.719 -13.928,-34.429 -12.923,-34.067 -11.943,-33.643 -10.991,-33.158 -10.072,-32.615 -9.189,-32.014 -8.345,-31.360 -7.544,-30.653 -6.789,-29.898 -6.082,-29.097 -5.428,-28.253 -4.827,-27.370 -4.284,-26.451 -4.071,-25.371 -4.941,-20.060 -5.536,-16.537 -5.860,-14.841 -6.927,-9.358 -7.595,-5.924 -8.345,-5.162 -9.189,-4.508 -10.072,-3.907 -10.991,-3.364 -11.943,-2.879 -12.923,-2.455 -13.928,-2.093 -14.953,-1.795 -16.072,-1.964 -19.181,-3.628 -23.229,-5.803 -32.236,-11.084 -34.214,-12.309 -35.221,-13.049 -35.647,-14.033 -35.880,-15.076 -36.047,-16.130 -36.147,-17.194"/>
<polygon class="node-20" points="-63.129,-0.550 -62.995,-1.609 -62.762,-2.652 -62.464,-3.677 -62.102,-4.682 -61.678,-5.662 -61.193,-6.614 -60.650,-7.533 -60.049,-8.416 -59.395,-9.260 -58.688,-10.061 -57.933,-10.816 -57.132,-11.523 -56.288,-12.177 -55.405,-12.778 -54.486,-13.321 -53.534,-13.806 -52.554,-14.230 -51.549,-14.592 -50.524,-14.890 -49.481,-15.123 -48.427,-15.290 -47.363,-15.390 -46.296,-15.424 -45.229,-15.390 -44.165,-15.290 -43.111,-15.123 -42.068,-14.890 -41.043,-14.592 -40.038,-14.230 -39.058,-13.806 -38.106,-13.321 -37.187,-12.778 -36.481,-11.934 -36.221,-10.603 -36.098,-9.284 -35.946,-6.986 -35.833,-5.064 -35.990,-1.773 -36.061,-0.376 -36.323,2.203 -36.481,3.448 -36.868,6.012 -37.147,7.382 -37.813,10.610 -38.605,13.695 -38.999,14.850 -39.486,16.049 -40.115,17.188 -41.043,17.744 -42.068,18.042 -43.125,18.201 -44.192,18.234 -45.254,18.134 -47.311,17.712 -48.301,17.445 -50.176,16.688 -52.745,15.282 -55.052,13.628 -55.792,13.055 -57.967,11.231 -59.284,9.818 -60.413,8.219 -60.992,7.395 -61.329,6.460 -62.008,4.573 -62.336,3.602 -62.887,1.576 -63.054,0.522"/>
<polygon class="node-21" points="5.490,-22.337 5.742,-24.349 6.151,-26.513 6.490,-27.601 7.098,-28.493 7.894,-29.206 8.738,-29.860 9.621,-30.461 10.540,-31.004 11.492,-31.489 12.472,-31.913 13.477,-32.275 14.502,-32.573 15.545,-32.806 16.599,-32.973 17.663,-33.073 18.730,-33.107 19.797,-33.073 20.861,-32.973 21.915,-32.806 22.958,-32.573 23.983,-32.275 24.988,-31.913 25.968,-31.489 26.920,-31.004 27.839,-30.461 28.722,-29.860 29.566,-29.206 30.367,-28.499 31.122,-27.744 31.829,-26.943 32.483,-26.099 33.076,-25.212 33.598,-24.281 33.991,-23.288 34.342,-22.288 34.612,-21.267 34.799,-20.233 34.904,-19.192 35.023,-17.132 34.866,-15.092 34.599,-14.102 34.256,-13.145 33.842,-12.227 32.436,-9.658 30.782,-7.351 28.535,-4.255 26.436,-2.090 25.681,-1.336 24.837,-0.681 23.942,-0.067 22.958,0.359 21.915,0.592 20.861,0.759 19.797,0.859 18.730,0.893 17.663,0.859 16.599,0.759 15.545,0.592 14.502,0.359 13.477,0.061 12.472,-0.301 11.549,-0.846 10.737,-1.569 10.067,-2.456 9.075,-4.436 8.267,-6.281 7.896,-7.145 7.603,-8.023 6.878,-10.530 6.204,-13.718 5.657,-16.929 5.535,-18.624"/>
<polygon class="node-22" points="-42.561,17.742 -42.136,16.679 -40.931,14.751 -38.392,10.692 -37.282,9.310 -36.537,8.783 -32.954,6.653 -27.992,4.506 -26.471,3.952 -22.100,2.776 -18.940,2.377 -16.722,2.580 -15.697,2.953 -14.834,3.580 -14.033,4.287 -13.278,5.042 -12.571,5.843 -11.917,6.687 -11.316,7.570 -10.773,8.489 -10.288,9.441 -9.864,10.421 -9.502,11.426 -9.204,12.451 -8.971,13.494 -8.804,14.548 -8.704,15.612 -8.670,16.679 -8.670,16.679 -8.704,17.746 -8.804,18.810 -8.971,19.864 -9.204,20.907 -9.502,21.932 -9.864,22.937 -10.288,23.917 -10.773,24.869 -11.316,25.788 -11.917,26.671 -12.571,27.515 -13.284,28.311 -14.084,29.016 -14.919,29.674 -15.801,30.263 -16.722,30.778 -17.677,31.217 -19.608,31.989 -21.610,32.491 -23.644,32.719 -24.655,32.815 -25.670,32.847 -26.685,32.815 -27.696,32.719 -29.730,32.491 -31.732,31.989 -33.663,31.217 -34.618,30.778 -35.539,30.263 -36.421,29.674 -37.256,29.016 -38.038,28.293 -38.769,27.515 -39.423,26.671 -40.024,25.788 -40.567,24.869 -41.052,23.917 -41.476,22.937 -41.838,21.932 -42.136,20.907 -42.369,19.864 -42.536,18.810"/>
<polygon class="node-23" points="36.539,-12.105 36.606,-13.171 36.806,-14.219 37.136,-15.234 37.674,-16.131 38.284,-16.987 38.911,-17.851 39.669,-18.597 40.465,-19.309 41.348,-19.910 42.267,-20.453 43.219,-20.938 44.199,-21.362 45.204,-21.724 46.229,-22.022 47.272,-22.255 48.326,-22.422 49.390,-22.522 50.457,-22.556 51.524,-22.522 52.588,-22.422 53.642,-22.255 54.685,-22.022 55.710,-21.724 56.715,-21.362 57.695,-20.938 58.647,-20.453 59.566,-19.910 60.449,-19.309 61.293,-18.655 62.094,-17.948 62.849,-17.193 63.556,-16.392 64.210,-15.548 64.811,-14.665 65.354,-13.746 65.839,-12.794 66.263,-11.814 66.625,-10.809 66.923,-9.784 67.156,-8.741 67.323,-7.687 67.423,-6.623 67.457,-5.556 67.457,-5.556 67.423,-4.489 67.323,-3.425 67.156,-2.371 66.923,-1.328 66.625,-0.303 66.263,0.702 65.839,1.682 65.354,2.634 64.811,3.553 64.210,4.436 63.556,5.280 62.849,6.081 62.094,6.836 61.293,7.543 60.449,8.197 59.566,8.798 58.647,9.341 57.695,9.826 56.715,10.250 55.646,10.413 54.552,10.393 52.462,10.313 51.449,10.219 47.575,9.554 46.632,9.343 43.814,8.561 42.941,8.116 41.701,6.496 41.130,5.719 40.631,4.907 39.330,2.528 38.686,0.915 37.051,-4.713 36.731,-6.420 36.554,-9.126 36.541,-10.078"/>
<polygon class="node-24" points="42.568,11.237 42.981,9.215 43.546,8.384 45.626,7.588 47.524,6.952 49.288,6.444 57.329,4.380 59.121,3.975 63.370,3.157 64.575,3.072 65.595,3.432 66.478,4.033 67.322,4.687 68.123,5.394 68.878,6.149 69.585,6.950 70.239,7.794 70.840,8.677 71.383,9.596 71.868,10.548 72.292,11.528 72.654,12.533 72.952,13.558 73.185,14.601 73.352,15.655 73.452,16.719 73.486,17.786 73.486,17.786 73.452,18.853 73.352,19.917 73.185,20.971 72.952,22.014 72.654,23.039 72.292,24.044 71.868,25.024 71.383,25.976 70.840,26.895 70.239,27.778 69.585,28.622 68.878,29.423 68.123,30.178 67.322,30.885 66.478,31.539 65.595,32.140 64.676,32.683 63.724,33.168 62.744,33.592 61.739,33.954 60.714,34.252 59.671,34.485 58.617,34.652 57.553,34.752 56.486,34.786 55.419,34.752 54.355,34.652 53.301,34.485 52.277,34.179 51.326,33.668 50.476,32.965 49.676,32.259 48.244,30.774 47.159,29.061 46.660,28.249 45.359,25.870 44.332,23.505 43.159,19.470 42.760,16.922 42.583,14.216 42.570,13.264"/>
<polygon class="node-25" points="-39.167,-12.043 -39.164,-13.064 -38.806,-13.969 -38.364,-14.836 -37.868,-15.674 -37.321,-16.480 -36.724,-17.249 -36.080,-17.979 -35.391,-18.668 -34.642,-19.288 -33.730,-19.687 -32.757,-19.936 -31.807,-20.149 -28.904,-20.058 -26.316,-19.520 -24.051,-18.973 -20.746,-17.559 -20.114,-17.286 -19.501,-16.973 -18.908,-16.623 -16.544,-15.104 -14.697,-13.768 -14.049,-13.269 -12.092,-11.492 -11.005,-9.997 -9.926,-8.304 -9.556,-7.369 -9.380,-6.400 -9.403,-5.426 -9.556,-4.465 -9.768,-3.514 -10.040,-2.579 -10.369,-1.663 -10.756,-0.769 -11.198,0.098 -11.694,0.936 -12.241,1.742 -12.838,2.511 -13.482,3.241 -14.171,3.930 -15.139,4.286 -16.209,4.429 -18.237,4.534 -20.062,4.551 -20.906,4.557 -27.019,4.362 -27.751,4.199 -28.472,3.989 -31.011,2.448 -33.487,0.807 -34.689,-0.170 -35.770,-1.328 -36.127,-2.030 -36.440,-2.753 -37.374,-4.967 -38.695,-9.127 -38.937,-10.069 -39.059,-11.035"/>
<polygon class="node-26" points="41.456,-19.671 41.661,-20.396 41.960,-21.088 42.302,-21.760 42.686,-22.409 43.110,-23.032 43.572,-23.628 44.070,-24.194 44.603,-24.727 45.169,-25.225 45.765,-25.687 46.388,-26.111 47.037,-26.495 47.709,-26.837 48.401,-27.136 49.110,-27.392 49.834,-27.602 50.569,-27.766 51.314,-27.884 52.065,-27.955 52.818,-27.979 53.571,-27.955 54.322,-27.884 55.067,-27.766 55.802,-27.602 56.526,-27.392 57.235,-27.136 57.927,-26.837 58.599,-26.495 59.248,-26.111 59.871,-25.687 60.467,-25.225 61.033,-24.727 61.566,-24.194 62.064,-23.628 62.526,-23.032 62.950,-22.409 63.334,-21.760 63.676,-21.088 63.975,-20.396 64.231,-19.687 64.441,-18.963 64.605,-18.228 64.723,-17.483 64.794,-16.732 64.818,-15.979 64.818,-15.979 64.794,-15.226 64.700,-14.478 63.484,-13.944 61.037,-13.869 58.628,-14.091 57.249,-14.225 56.173,-14.400 55.433,-14.541 53.299,-14.957 51.948,-15.259 49.840,-15.792 46.758,-16.745 44.749,-17.518 42.462,-18.638"/>
<polygon class="node-27" points="-20.382,-18.124 -20.241,-19.015 -19.747,-21.712 -19.197,-23.502 -17.994,-26.130 -17.515,-27.005 -16.448,-28.783 -15.820,-29.646 -15.090,-30.424 -14.267,-31.105 -13.366,-31.677 -12.400,-32.131 -11.395,-32.493 -10.370,-32.791 -9.327,-33.024 -8.273,-33.191 -7.209,-33.291 -6.142,-33.325 -5.075,-33.291 -4.011,-33.191 -2.957,-33.024 -1.914,-32.791 -0.889,-32.493 0.116,-32.131 1.096,-31.707 2.048,-31.222 2.967,-30.679 3.850,-30.078 4.694,-29.424 5.495,-28.717 6.250,-27.962 6.899,-27.113 7.280,-26.077 7.509,-24.988 7.776,-22.874 7.957,-19.015 7.957,-13.635 7.530,-8.809 7.204,-7.856 6.798,-6.923 6.316,-6.019 5.758,-5.150 4.502,-3.458 3.727,-2.741 2.927,-2.035 2.044,-1.435 1.096,-0.943 0.116,-0.519 -0.889,-0.157 -1.914,0.141 -2.957,0.374 -4.011,0.541 -5.075,0.641 -6.142,0.675 -7.209,0.641 -8.273,0.541 -9.327,0.374 -10.370,0.141 -11.372,-0.229 -12.152,-1.146 -13.439,-3.051 -13.983,-3.970 -16.909,-9.492 -18.270,-12.384 -19.548,-15.482 -19.895,-16.325 -20.175,-17.208"/>
<polygon class="node-28" points="-22.291,5.592 -22.291,4.462 -20.780,3.037 -16.321,-0.773 -13.923,-2.604 -12.975,-2.945 -11.942,-2.970 -10.922,-2.911 -0.061,-2.168 2.374,-1.996 3.432,-1.534 4.303,-0.813 5.102,-0.014 5.850,0.834 6.543,1.728 7.179,2.663 7.755,3.636 8.268,4.644 8.717,5.682 9.100,6.746 9.415,7.832 9.662,8.935 9.839,10.052 9.945,11.178 9.981,12.308 9.981,12.308 9.945,13.438 9.839,14.564 9.662,15.681 9.415,16.784 9.100,17.870 8.717,18.934 8.268,19.972 7.755,20.980 7.179,21.953 6.543,22.888 5.850,23.782 5.102,24.630 4.303,25.429 3.455,26.177 2.561,26.870 1.626,27.506 0.653,28.082 -0.355,28.595 -1.393,29.044 -2.457,29.427 -3.543,29.742 -4.646,29.989 -5.763,30.166 -6.889,30.272 -8.019,30.308 -9.149,30.272 -10.275,30.166 -11.392,29.989 -12.495,29.742 -13.581,29.427 -14.645,29.044 -15.547,28.306 -16.266,27.310 -17.446,25.283 -17.895,24.246 -18.978,21.374 -19.851,18.813 -20.728,15.571 -21.521,12.308 -21.990,9.643 -22.124,8.687 -22.178,7.708"/>
<polygon class="node-29" points="43.142,8.538 43.231,7.447 43.723,6.343 44.772,4.362 45.372,3.479 47.054,1.191 47.619,0.533 49.207,-1.244 53.381,-5.130 55.121,-6.458 57.083,-7.811 59.405,-9.391 61.272,-10.418 63.383,-11.130 64.532,-11.417 65.651,-11.413 66.643,-11.020 67.595,-10.535 68.514,-9.992 69.397,-9.391 70.241,-8.737 71.042,-8.030 71.797,-7.275 72.504,-6.474 73.158,-5.630 73.759,-4.747 74.302,-3.828 74.787,-2.876 75.211,-1.896 75.573,-0.891 75.871,0.134 76.104,1.177 76.271,2.231 76.371,3.295 76.405,4.362 76.405,4.362 76.371,5.429 76.271,6.493 76.104,7.547 75.871,8.590 75.573,9.615 75.211,10.620 74.787,11.600 74.302,12.552 73.759,13.471 73.158,14.354 72.188,14.937 70.927,15.182 69.603,15.222 68.367,15.196 64.360,14.892 62.754,14.668 57.614,13.748 57.029,13.617 51.210,12.058 48.638,11.195 47.634,10.833 45.322,9.938 44.193,9.305"/>
<polygon class="node-30" points="55.132,33.321 55.492,32.092 55.971,30.943 57.270,28.906 58.386,27.514 59.172,26.607 59.772,25.973 61.912,23.869 62.018,23.775 64.707,21.642 66.896,20.079 67.774,19.558 68.860,18.970 70.097,18.431 71.366,18.075 72.407,18.099 73.154,18.458 73.583,19.078 73.967,19.727 74.309,20.399 74.608,21.091 74.864,21.800 75.074,22.524 75.238,23.259 75.356,24.004 75.427,24.755 75.451,25.508 75.451,25.508 75.427,26.261 75.356,27.012 75.238,27.757 75.074,28.492 74.864,29.216 74.608,29.925 74.309,30.617 73.967,31.289 73.583,31.938 73.159,32.561 72.697,33.157 72.199,33.723 71.666,34.256 71.100,34.754 70.504,35.216 69.881,35.640 69.232,36.024 68.560,36.366 67.868,36.665 67.159,36.921 66.435,37.131 65.700,37.295 64.955,37.413 64.204,37.484 63.451,37.508 62.698,37.484 61.947,37.413 61.202,37.295 60.467,37.131 59.743,36.921 59.034,36.665 58.342,36.366 57.670,36.024 57.021,35.640 56.398,35.216 55.802,34.754 55.273,34.217"/>
<polygon class="node-31" points="-66.357,-6.970 -66.327,-7.924 -66.237,-8.875 -66.088,-9.818 -65.879,-10.750 -65.613,-11.667 -65.290,-12.565 -64.910,-13.442 -64.477,-14.293 -63.991,-15.115 -63.454,-15.904 -62.869,-16.659 -62.237,-17.375 -61.562,-18.050 -60.846,-18.682 -60.091,-19.267 -59.302,-19.804 -58.480,-20.290 -57.629,-20.723 -56.752,-21.103 -55.854,-21.426 -54.937,-21.692 -54.005,-21.901 -53.062,-22.050 -52.111,-22.140 -51.157,-22.170 -50.203,-22.140 -49.252,-22.050 -48.309,-21.901 -47.377,-21.692 -46.460,-21.426 -45.562,-21.103 -44.685,-20.723 -43.834,-20.290 -43.012,-19.804 -42.223,-19.267 -41.468,-18.682 -40.752,-18.050 -40.077,-17.375 -39.445,-16.659 -38.860,-15.904 -38.323,-15.115 -37.942,-14.235 -37.735,-13.286 -37.586,-12.343 -37.468,-10.485 -37.317,-5.222 -37.454,-4.356 -38.489,-2.854 -38.992,-2.154 -39.545,-1.506 -41.208,0.258 -42.402,1.252 -44.882,2.919 -45.515,3.293 -46.170,3.627 -48.906,4.828 -51.157,5.602 -54.525,6.148 -55.407,6.110 -57.246,5.970 -58.189,5.821 -59.105,5.555 -59.981,5.176 -60.803,4.690 -61.562,4.110 -62.237,3.435 -62.869,2.719 -63.454,1.964 -63.991,1.175 -64.477,0.353 -64.910,-0.498 -65.290,-1.375 -65.613,-2.273 -65.879,-3.190 -66.088,-4.122 -66.237,-5.065 -66.327,-6.016"/>
<polygon class="node-32" points="63.445,-2.665 63.688,-6.173 64.165,-7.881 64.588,-8.606 65.081,-9.326 65.711,-9.783 66.398,-10.130 67.138,-10.271 67.889,-10.342 68.642,-10.366 69.395,-10.342 70.146,-10.271 70.891,-10.153 71.626,-9.989 72.350,-9.779 73.059,-9.523 73.751,-9.224 74.423,-8.882 75.072,-8.498 75.695,-8.074 76.291,-7.612 76.857,-7.114 77.390,-6.581 77.888,-6.015 78.350,-5.419 78.774,-4.796 79.158,-4.147 79.500,-3.475 79.799,-2.783 80.055,-2.074 80.265,-1.350 80.429,-0.615 80.547,0.130 80.618,0.881 80.642,1.634 80.642,1.634 80.618,2.387 80.547,3.138 80.429,3.883 80.265,4.618 80.055,5.342 79.799,6.051 79.500,6.743 79.158,7.415 78.774,8.064 78.350,8.687 77.888,9.283 77.390,9.849 76.857,10.382 76.291,10.880 75.695,11.342 75.072,11.766 74.423,12.150 73.751,12.492 73.051,12.769 72.285,12.845 71.480,12.688 70.677,12.300 69.937,11.881 69.252,11.323 68.109,10.103 67.647,9.507 66.888,8.466 65.723,6.234 65.385,5.571 64.535,3.260 64.303,2.462 63.783,0.055 63.576,-1.151"/>
<polygon class="node-33" points="-28.969,-2.172 -28.875,-3.185 -28.579,-6.132 -27.217,-10.820 -26.446,-12.646 -25.424,-14.373 -24.886,-15.245 -24.275,-16.077 -22.915,-17.687 -22.097,-18.354 -21.189,-18.891 -20.210,-19.287 -19.162,-19.487 -18.043,-19.389 -16.980,-19.289 -14.967,-18.957 -14.019,-18.781 -13.100,-18.531 -12.217,-18.210 -9.759,-17.188 -6.790,-15.656 -3.905,-13.969 -2.503,-12.944 0.983,-9.753 2.210,-8.108 2.782,-7.207 3.360,-6.256 3.733,-5.236 3.892,-4.177 3.892,-4.177 3.866,-3.110 3.766,-2.046 3.599,-0.992 3.333,0.042 2.782,0.983 2.079,1.833 0.379,3.233 -1.262,4.424 -5.401,6.420 -7.671,7.361 -11.502,8.474 -13.100,8.922 -15.677,9.333 -16.597,9.442 -17.535,9.474 -19.549,9.529 -21.763,9.474 -23.506,8.402 -25.103,7.095 -25.883,6.398 -26.610,5.638 -27.340,4.860 -27.880,3.948 -28.210,2.933 -28.526,1.930 -28.760,0.911"/>
<polygon class="node-34" points="-54.446,25.572 -54.422,24.819 -54.351,24.068 -54.233,23.323 -54.069,22.588 -53.859,21.864 -53.603,21.155 -53.304,20.463 -52.962,19.791 -52.578,19.142 -52.154,18.519 -51.692,17.923 -51.194,17.357 -50.661,16.824 -50.095,16.326 -49.499,15.864 -48.876,15.440 -48.227,15.056 -47.555,14.714 -46.863,14.415 -46.154,14.159 -45.430,13.949 -44.695,13.785 -43.950,13.667 -43.199,13.596 -42.446,13.572 -41.693,13.596 -40.942,13.667 -40.197,13.785 -39.462,13.949 -38.738,14.159 -38.037,14.437 -37.377,14.800 -36.767,15.243 -36.171,15.684 -35.614,16.169 -35.101,16.693 -34.633,17.253 -33.746,18.375 -33.026,19.594 -32.669,20.197 -32.351,20.821 -32.072,21.465 -31.510,22.764 -31.123,24.142 -30.945,24.848 -30.823,25.572 -30.687,27.057 -30.711,27.811 -30.829,28.555 -31.033,29.280 -31.289,29.989 -31.588,30.681 -31.930,31.353 -32.314,32.002 -32.738,32.625 -33.200,33.221 -33.698,33.787 -34.231,34.320 -34.797,34.818 -35.393,35.280 -36.016,35.704 -36.665,36.088 -37.337,36.430 -38.029,36.729 -38.738,36.985 -39.462,37.195 -40.197,37.359 -40.942,37.477 -41.693,37.548 -42.446,37.572 -43.199,37.548 -43.950,37.477 -44.695,37.359 -45.430,37.195 -46.154,36.985 -46.863,36.729 -47.555,36.430 -48.227,36.088 -48.876,35.704 -49.499,35.280 -50.095,34.818 -50.661,34.320 -51.194,33.787 -51.692,33.221 -52.154,32.625 -52.578,32.002 -52.962,31.353 -53.304,30.681 -53.603,29.989 -53.859,29.280 -54.069,28.556 -54.233,27.821 -54.351,27.076 -54.422,26.325"/>
<polygon class="node-35" points="-16.151,-26.806 -16.080,-27.556 -15.916,-28.291 -15.666,-29.002 -15.367,-29.694 -15.025,-30.366 -14.641,-31.015 -14.217,-31.638 -13.755,-32.234 -13.257,-32.800 -12.724,-33.333 -12.158,-33.831 -11.562,-34.293 -10.939,-34.717 -10.290,-35.101 -9.618,-35.443 -8.926,-35.742 -8.217,-35.998 -7.493,-36.208 -6.758,-36.372 -6.013,-36.490 -5.262,-36.561 -4.509,-36.585 -3.756,-36.561 -3.005,-36.490 -2.260,-36.372 -1.525,-36.208 -0.801,-35.998 -0.092,-35.742 0.600,-35.443 1.272,-35.101 1.921,-34.717 2.544,-34.293 3.140,-33.831 3.706,-33.333 4.239,-32.800 4.737,-32.234 5.199,-31.638 5.623,-31.015 6.007,-30.366 6.349,-29.694 6.648,-29.002 6.904,-28.293 7.114,-27.569 7.278,-26.834 7.396,-26.089 7.467,-25.338 7.491,-24.585 7.491,-24.585 7.467,-23.832 7.344,-23.088 7.133,-22.364 6.834,-21.673 6.345,-21.058 5.865,-20.478 5.316,-19.962 4.706,-19.519 3.520,-18.751 2.231,-18.256 -1.252,-17.664 -2.236,-17.590 -3.187,-17.657 -5.354,-17.893 -5.773,-17.959 -6.186,-18.052 -8.288,-18.630 -10.085,-19.349 -11.445,-20.183 -11.945,-20.497 -13.527,-21.655 -14.461,-22.686 -14.942,-23.267 -15.345,-23.903 -15.666,-24.585 -15.899,-25.302 -16.040,-26.042"/>
<polygon class="node-36" points="6.697,-21.343 7.136,-24.118 7.465,-26.000 7.845,-26.877 8.278,-27.728 8.764,-28.550 9.301,-29.339 9.886,-30.094 10.518,-30.810 11.193,-31.485 11.909,-32.117 12.664,-32.702 13.453,-33.239 14.275,-33.725 15.126,-34.158 16.003,-34.538 16.901,-34.861 17.818,-35.127 18.750,-35.336 19.693,-35.485 20.644,-35.575 21.598,-35.605 22.552,-35.575 23.503,-35.485 24.446,-35.336 25.378,-35.127 26.295,-34.861 27.193,-34.538 28.070,-34.158 28.921,-33.725 29.743,-33.239 30.532,-32.702 31.287,-32.117 32.003,-31.485 32.678,-30.810 33.310,-30.094 33.895,-29.339 34.432,-28.550 34.918,-27.728 35.351,-26.877 35.731,-26.000 36.054,-25.102 36.320,-24.185 36.529,-23.253 36.678,-22.310 36.768,-21.359 36.798,-20.405 36.798,-20.405 36.768,-19.451 36.678,-18.500 36.529,-17.557 36.320,-16.625 36.054,-15.708 35.731,-14.810 35.351,-13.933 34.918,-13.082 34.432,-12.260 33.895,-11.471 33.310,-10.716 32.678,-10.000 32.003,-9.325 31.287,-8.693 30.532,-8.108 29.743,-7.571 28.921,-7.085 28.070,-6.652 27.193,-6.272 26.293,-5.956 25.371,-5.712 24.441,-5.504 23.495,-5.392 22.548,-5.302 21.598,-5.325 20.651,-5.355 18.785,-5.658 16.984,-6.205 16.102,-6.523 15.241,-6.895 14.405,-7.321 13.598,-7.799 12.822,-8.326 12.081,-8.901 11.377,-9.521 10.714,-10.184 9.452,-11.581 8.922,-12.361 8.442,-13.172 8.014,-14.013 7.716,-14.909 7.230,-16.716 6.992,-18.560 6.764,-20.405"/>
<polygon class="node-37" points="-47.719,16.077 -47.567,14.989 -47.090,14.034 -46.547,13.115 -45.946,12.232 -45.292,11.388 -44.585,10.587 -43.830,9.832 -43.029,9.125 -42.185,8.471 -41.302,7.870 -40.383,7.327 -39.431,6.842 -38.451,6.418 -37.446,6.056 -36.421,5.758 -35.378,5.525 -34.324,5.358 -33.260,5.258 -32.193,5.224 -31.126,5.258 -30.062,5.358 -29.008,5.525 -27.967,5.766 -26.942,6.064 -25.947,6.449 -24.148,7.591 -22.441,8.802 -21.618,9.441 -20.921,10.221 -20.293,11.049 -19.735,11.918 -18.688,13.653 -17.891,15.494 -17.497,16.405 -17.160,17.340 -16.481,19.227 -15.727,22.224 -15.535,24.328 -15.568,25.395 -15.727,26.452 -16.025,27.477 -16.387,28.482 -16.811,29.462 -17.296,30.414 -17.839,31.333 -18.440,32.216 -19.094,33.060 -19.801,33.861 -20.556,34.616 -21.357,35.323 -22.201,35.977 -23.084,36.578 -24.003,37.121 -24.955,37.606 -25.935,38.030 -26.940,38.392 -27.965,38.690 -29.008,38.923 -30.062,39.090 -31.126,39.190 -32.193,39.224 -33.260,39.190 -34.324,39.090 -35.378,38.923 -36.421,38.690 -37.446,38.392 -38.451,38.030 -39.431,37.606 -40.367,37.092 -41.083,36.232 -41.696,35.304 -42.268,34.403 -42.723,33.437 -44.312,29.915 -44.915,28.211 -46.004,24.859 -46.518,23.125 -47.303,19.342 -47.503,18.293"/>
<polygon class="node-38" points="-36.454,37.096 -36.239,36.152 -35.704,35.147 -35.093,34.235 -34.537,33.459 -33.350,32.185 -32.784,31.687 -30.661,29.910 -30.172,29.556 -29.551,29.127 -27.144,27.600 -26.491,27.220 -25.962,26.928 -23.451,25.763 -22.036,25.254 -20.162,24.759 -19.077,24.595 -18.074,24.636 -17.088,24.806 -16.291,25.186 -15.866,25.812 -15.567,26.504 -15.311,27.213 -15.101,27.937 -14.937,28.672 -14.819,29.417 -14.748,30.168 -14.724,30.921 -14.724,30.921 -14.748,31.674 -14.819,32.425 -14.937,33.170 -15.101,33.905 -15.311,34.629 -15.567,35.338 -15.866,36.030 -16.208,36.702 -16.592,37.351 -17.016,37.974 -17.478,38.570 -17.976,39.136 -18.509,39.669 -19.075,40.167 -19.671,40.629 -20.294,41.053 -20.943,41.437 -21.615,41.779 -22.307,42.078 -23.016,42.334 -23.740,42.544 -24.475,42.708 -25.220,42.826 -25.971,42.897 -26.724,42.921 -27.477,42.897 -28.228,42.826 -28.973,42.708 -29.708,42.544 -30.432,42.334 -31.141,42.078 -31.833,41.779 -32.505,41.437 -33.154,41.053 -33.777,40.629 -34.373,40.167 -34.939,39.669 -35.472,39.136 -35.970,38.570 -36.389,37.943"/>
<polygon class="node-39" points="-44.625,14.008 -44.560,13.257 -44.442,12.512 -44.278,11.777 -44.068,11.053 -43.812,10.344 -43.513,9.652 -43.171,8.980 -42.787,8.331 -42.363,7.708 -41.901,7.112 -41.403,6.546 -40.870,6.013 -40.304,5.515 -39.708,5.053 -39.085,4.629 -38.436,4.245 -37.764,3.903 -37.072,3.604 -36.363,3.348 -35.639,3.138 -34.904,2.974 -34.159,2.856 -33.408,2.785 -32.655,2.761 -31.902,2.785 -31.151,2.856 -30.406,2.974 -29.671,3.138 -28.947,3.348 -28.238,3.604 -27.546,3.903 -26.874,4.245 -26.225,4.629 -25.602,5.053 -25.006,5.515 -24.440,6.013 -23.907,6.546 -23.409,7.112 -22.947,7.708 -22.523,8.331 -22.139,8.980 -21.797,9.652 -21.498,10.344 -21.242,11.053 -21.032,11.777 -20.873,12.514 -20.802,13.264 -20.826,14.017 -20.868,14.761 -21.055,15.491 -21.332,16.191 -21.988,17.500 -22.878,18.632 -23.958,19.542 -24.458,19.963 -24.984,20.334 -25.531,20.655 -27.079,21.501 -29.157,22.194 -31.168,22.556 -31.660,22.634 -32.157,22.681 -32.655,22.697 -33.153,22.681 -35.193,22.574 -37.342,22.147 -38.984,21.501 -39.567,21.252 -40.135,20.949 -40.684,20.595 -41.870,19.827 -42.895,18.815 -43.709,17.599 -44.072,16.939 -44.484,15.505 -44.602,14.761"/>
<polygon class="node-40" points="-27.167,-4.852 -27.143,-5.605 -27.072,-6.356 -26.954,-7.101 -26.790,-7.836 -26.580,-8.560 -26.324,-9.269 -26.025,-9.961 -25.683,-10.633 -25.299,-11.282 -24.875,-11.905 -24.413,-12.501 -23.915,-13.067 -23.382,-13.600 -22.816,-14.098 -22.220,-14.560 -21.597,-14.984 -20.948,-15.368 -20.276,-15.710 -19.584,-16.009 -18.875,-16.265 -18.151,-16.475 -17.414,-16.634 -16.670,-16.752 -15.920,-16.822 -15.167,-16.828 -14.415,-16.805 -13.666,-16.734 -12.928,-16.587 -12.196,-16.423 -11.488,-16.175 -10.784,-15.921 -10.098,-15.624 -8.816,-14.859 -7.653,-13.934 -7.098,-13.445 -6.144,-12.317 -5.693,-11.736 -4.982,-10.451 -4.650,-9.801 -4.207,-8.413 -4.006,-7.718 -3.848,-7.011 -3.734,-6.296 -3.754,-4.852 -3.777,-4.135 -3.844,-3.422 -3.956,-2.713 -4.113,-2.014 -4.313,-1.325 -4.556,-0.651 -4.841,0.007 -5.166,0.646 -5.531,1.263 -5.934,1.856 -6.767,3.036 -7.279,3.548 -7.822,4.027 -8.394,4.471 -9.568,5.333 -10.218,5.665 -11.548,6.286 -12.255,6.491 -13.690,6.842 -14.427,6.912 -15.911,6.977 -17.398,6.842 -18.128,6.679 -18.846,6.471 -19.565,6.256 -20.254,5.958 -20.937,5.643 -21.584,5.260 -22.207,4.837 -22.812,4.390 -23.378,3.891 -23.910,3.359 -24.413,2.797 -24.875,2.201 -25.299,1.578 -25.683,0.929 -26.025,0.257 -26.324,-0.435 -26.580,-1.144 -26.790,-1.868 -26.954,-2.603 -27.072,-3.348 -27.143,-4.099"/>
</svg>