<?xml version="1.0" encoding="UTF-8"?>
<svg xmlns="http://www.w3.org/2000/svg" viewBox="-7520.000 -4070.100 15589.200 8921.800">
<defs>
<style>
.node-0{fill:url(#node-0);}
.node-1{fill:url(#node-1);}
.node-2{fill:url(#node-2);}
.node-3{fill:url(#node-3);}
.node-4{fill:url(#node-4);}
.node-5{fill:url(#node-5);}
.node-6{fill:url(#node-6);}
.node-7{fill:url(#node-7);}
.node-8{fill:url(#node-8);}
.node-9{fill:url(#node-9);}
.node-10{fill:url(#node-10);}
.node-11{fill:url(#node-11);}
.node-12{fill:url(#node-12);}
.node-13{fill:url(#node-13);}
.node-14{fill:url(#node-14);}
.node-15{fill:url(#node-15);}
.node-16{fill:url(#node-16);}
.node-17{fill:url(#node-17);}
.node-18{fill:url(#node-18);}
.node-19{fill:url(#node-19);}
.node-20{fill:url(#node-20);}
.node-21{fill:url(#node-21);}
.node-22{fill:url(#node-22);}
.node-23{fill:url(#node-23);}
.node-24{fill:url(#node-24);}
.node-25{fill:url(#node-25);}
.node-26{fill:url(#node-26);}
.node-27{fill:url(#node-27);}
.node-28{fill:url(#node-28);}
.node-29{fill:url(#node-29);}
.node-30{fill:url(#node-30);}
.node-31{fill:url(#node-31);}
.node-32{fill:url(#node-32);}
.node-33{fill:url(#node-33);}
.node-34{fill:url(#node-34);}
.node-35{fill:url(#node-35);}
.node-36{fill:url(#node-36);}
.node-37{fill:url(#node-37);}
.node-38{fill:url(#node-38);}
.node-39{fill:url(#node-39);}
.node-40{fill:url(#node-40);}
</style>
<radialGradient id="node-0" cx="-2084.200" cy="2377.900" r="1200.000" fx="-2084.200" fy="2377.900" gradientTransform="matrix(1,0,0,1,0,0)" gradientUnits="userSpaceOnUse" opacity="1.0"><stop offset="0.00" stop-color="#ffffff"/><stop offset="1.00" stop-color="#bfbfbf"/></radialGradient>
<radialGradient id="node-1" cx="2422.900" cy="-964.600" r="1200.000" fx="2422.900" fy="-964.600" gradientTransform="matrix(1,0,0,1,0,0)" gradientUnits="userSpaceOnUse" opacity="1.0"><stop offset="0.00" stop-color="#ffffff"/><stop offset="1.00" stop-color="#bfbfbf"/></radialGradient>
<radialGradient id="node-2" cx="-2996.100" cy="192.600" r="1200.000" fx="-2996.100" fy="192.600" gradientTransform="matrix(1,0,0,1,0,0)" gradientUnits="userSpaceOnUse" opacity="1.0"><stop offset="0.00" stop-color="#ffffff"/><stop offset="1.00" stop-color="#bfbfbf"/></radialGradient>
<radialGradient id="node-3" cx="435.900" cy="-1011.300" r="1200.000" fx="435.900" fy="-1011.300" gradientTransform="matrix(1,0,0,1,0,0)" gradientUnits="userSpaceOnUse" opacity="1.0"><stop offset="0.00" stop-color="#ffffff"/><stop offset="1.00" stop-color="#bfbfbf"/></radialGradient>
<radialGradient id="node-4" cx="2644.300" cy="1420.600" r="1200.000" fx="2644.300" fy="1420.600" gradientTransform="matrix(1,0,0,1,0,0)" gradientUnits="userSpaceOnUse" opacity="1.0"><stop offset="0.00" stop-color="#ffffff"/><stop offset="1.00" stop-color="#bfbfbf"/></radialGradient>
<radialGradient id="node-5" cx="-3600.800" cy="3011.900" r="1200.000" fx="-3600.800" fy="3011.900" gradientTransform="matrix(1,0,0,1,0,0)" gradientUnits="userSpaceOnUse" opacity="1.0"><stop offset="0.00" stop-color="#ffffff"/><stop offset="1.00" stop-color="#bfbfbf"/></radialGradient>
<radialGradient id="node-6" cx="-2284.200" cy="-2545.100" r="1520.000" fx="-2284.200" fy="-2545.100" gradientTransform="matrix(1,0,0,1,0,0)" gradientUnits="userSpaceOnUse" opacity="1.0"><stop offset="0.00" stop-color="#ff0000"/><stop offset="1.00" stop-color="#bf0000"/></radialGradient>
<radialGradient id="node-7" cx="3445.300" cy="-2189.100" r="1200.000" fx="3445.300" fy="-2189.100" gradientTransform="matrix(1,0,0,1,0,0)" gradientUnits="userSpaceOnUse" opacity="1.0"><stop offset="0.00" stop-color="#ffffff"/><stop offset="1.00" stop-color="#bfbfbf"/></radialGradient>
<radialGradient id="node-8" cx="-2577.100" cy="2731.300" r="1700.000" fx="-2577.100" fy="2731.300" gradientTransform="matrix(1,0,0,1,0,0)" gradientUnits="userSpaceOnUse" opacity="1.0"><stop offset="0.00" stop-color="#505050"/><stop offset="1.00" stop-color="#3c3c3c"/></radialGradient>
<radialGradient id="node-9" cx="2902.000" cy="-1265.500" r="1700.000" fx="2902.000" fy="-1265.500" gradientTransform="matrix(1,0,0,1,0,0)" gradientUnits="userSpaceOnUse" opacity="1.0"><stop offset="0.00" stop-color="#505050"/><stop offset="1.00" stop-color="#3c3c3c"/></radialGradient>
<radialGradient id="node-10" cx="-5351.700" cy="1076.000" r="1520.000" fx="-5351.700" fy="1076.000" gradientTransform="matrix(1,0,0,1,0,0)" gradientUnits="userSpaceOnUse" opacity="1.0"><stop offset="0.00" stop-color="#ff0000"/><stop offset="1.00" stop-color="#bf0000"/></radialGradient>
<radialGradient id="node-11" cx="3567.000" cy="1137.300" r="1700.000" fx="3567.000" fy="1137.300" gradientTransform="matrix(1,0,0,1,0,0)" gradientUnits="userSpaceOnUse" opacity="1.0"><stop offset="0.00" stop-color="#505050"/><stop offset="1.00" stop-color="#3c3c3c"/></radialGradient>
<radialGradient id="node-12" cx="-2066.600" cy="3646.700" r="1200.000" fx="-2066.600" fy="3646.700" gradientTransform="matrix(1,0,0,1,0,0)" gradientUnits="userSpaceOnUse" opacity="1.0"><stop offset="0.00" stop-color="#ffffff"/><stop offset="1.00" stop-color="#bfbfbf"/></radialGradient>
<radialGradient id="node-13" cx="-6315.000" cy="976.200" r="1200.000" fx="-6315.000" fy="976.200" gradientTransform="matrix(1,0,0,1,0,0)" gradientUnits="userSpaceOnUse" opacity="1.0"><stop offset="0.00" stop-color="#ffffff"/><stop offset="1.00" stop-color="#bfbfbf"/></radialGradient>
<radialGradient id="node-14" cx="4234.300" cy="3174.300" r="1200.000" fx="4234.300" fy="3174.300" gradientTransform="matrix(1,0,0,1,0,0)" gradientUnits="userSpaceOnUse" opacity="1.0"><stop offset="0.00" stop-color="#ffffff"/><stop offset="1.00" stop-color="#bfbfbf"/></radialGradient>
<radialGradient id="node-15" cx="3867.900" cy="-194.900" r="1700.000" fx="3867.900" fy="-194.900" gradientTransform="matrix(1,0,0,1,0,0)" gradientUnits="userSpaceOnUse" opacity="1.0"><stop offset="0.00" stop-color="#505050"/><stop offset="1.00" stop-color="#3c3c3c"/></radialGradient>
<radialGradient id="node-16" cx="-3167.100" cy="336.000" r="1700.000" fx="-3167.100" fy="336.000" gradientTransform="matrix(1,0,0,1,0,0)" gradientUnits="userSpaceOnUse" opacity="1.0"><stop offset="0.00" stop-color="#505050"/><stop offset="1.00" stop-color="#3c3c3c"/></radialGradient>
<radialGradient id="node-17" cx="4461.900" cy="2129.000" r="1700.000" fx="4461.900" fy="2129.000" gradientTransform="matrix(1,0,0,1,0,0)" gradientUnits="userSpaceOnUse" opacity="1.0"><stop offset="0.00" stop-color="#505050"/><stop offset="1.00" stop-color="#3c3c3c"/></radialGradient>
<radialGradient id="node-18" cx="567.700" cy="-1380.700" r="1550.000" fx="567.700" fy="-1380.700" gradientTransform="matrix(1,0,0,1,0,0)" gradientUnits="userSpaceOnUse" opacity="1.0"><stop offset="0.00" stop-color="#0000ff"/><stop offset="1.00" stop-color="#0000bf"/></radialGradient>
<radialGradient id="node-19" cx="-1918.100" cy="-1826.100" r="1700.000" fx="-1918.100" fy="-1826.100" gradientTransform="matrix(1,0,0,1,0,0)" gradientUnits="userSpaceOnUse" opacity="1.0"><stop offset="0.00" stop-color="#505050"/><stop offset="1.00" stop-color="#3c3c3c"/></radialGradient>
<radialGradient id="node-20" cx="-4629.600" cy="157.600" r="1700.000" fx="-4629.600" fy="157.600" gradientTransform="matrix(1,0,0,1,0,0)" gradientUnits="userSpaceOnUse" opacity="1.0"><stop offset="0.00" stop-color="#505050"/><stop offset="1.00" stop-color="#3c3c3c"/></radialGradient>
<radialGradient id="node-21" cx="1873.000" cy="-1610.700" r="1700.000" fx="1873.000" fy="-1610.700" gradientTransform="matrix(1,0,0,1,0,0)" gradientUnits="userSpaceOnUse" opacity="1.0"><stop offset="0.00" stop-color="#505050"/><stop offset="1.00" stop-color="#3c3c3c"/></radialGradient>
<radialGradient id="node-22" cx="-2567.000" cy="1667.900" r="1700.000" fx="-2567.000" fy="1667.900" gradientTransform="matrix(1,0,0,1,0,0)" gradientUnits="userSpaceOnUse" opacity="1.0"><stop offset="0.00" stop-color="#505050"/><stop offset="1.00" stop-color="#3c3c3c"/></radialGradient>
<radialGradient id="node-23" cx="5045.700" cy="-555.600" r="1700.000" fx="5045.700" fy="-555.600" gradientTransform="matrix(1,0,0,1,0,0)" gradientUnits="userSpaceOnUse" opacity="1.0"><stop offset="0.00" stop-color="#505050"/><stop offset="1.00" stop-color="#3c3c3c"/></radialGradient>
<radialGradient id="node-24" cx="5648.600" cy="1778.600" r="1700.000" fx="5648.600" fy="1778.600" gradientTransform="matrix(1,0,0,1,0,0)" gradientUnits="userSpaceOnUse" opacity="1.0"><stop offset="0.00" stop-color="#505050"/><stop offset="1.00" stop-color="#3c3c3c"/></radialGradient>
<radialGradient id="node-25" cx="-2478.100" cy="-736.900" r="1550.000" fx="-2478.100" fy="-736.900" gradientTransform="matrix(1,0,0,1,0,0)" gradientUnits="userSpaceOnUse" opacity="1.0"><stop offset="0.00" stop-color="#0000ff"/><stop offset="1.00" stop-color="#0000bf"/></radialGradient>
<radialGradient id="node-26" cx="5281.800" cy="-1597.900" r="1200.000" fx="5281.800" fy="-1597.900" gradientTransform="matrix(1,0,0,1,0,0)" gradientUnits="userSpaceOnUse" opacity="1.0"><stop offset="0.00" stop-color="#ffffff"/><stop offset="1.00" stop-color="#bfbfbf"/></radialGradient>
<radialGradient id="node-27" cx="-614.200" cy="-1632.500" r="1700.000" fx="-614.200" fy="-1632.500" gradientTransform="matrix(1,0,0,1,0,0)" gradientUnits="userSpaceOnUse" opacity="1.0"><stop offset="0.00" stop-color="#505050"/><stop offset="1.00" stop-color="#3c3c3c"/></radialGradient>
<radialGradient id="node-28" cx="-801.900" cy="1230.800" r="1800.000" fx="-801.900" fy="1230.800" gradientTransform="matrix(1,0,0,1,0,0)" gradientUnits="userSpaceOnUse" opacity="1.0"><stop offset="0.00" stop-color="#ffff00"/><stop offset="1.00" stop-color="#bfbf00"/></radialGradient>
<radialGradient id="node-29" cx="5940.500" cy="436.200" r="1700.000" fx="5940.500" fy="436.200" gradientTransform="matrix(1,0,0,1,0,0)" gradientUnits="userSpaceOnUse" opacity="1.0"><stop offset="0.00" stop-color="#505050"/><stop offset="1.00" stop-color="#3c3c3c"/></radialGradient>
<radialGradient id="node-30" cx="6345.100" cy="2550.800" r="1200.000" fx="6345.100" fy="2550.800" gradientTransform="matrix(1,0,0,1,0,0)" gradientUnits="userSpaceOnUse" opacity="1.0"><stop offset="0.00" stop-color="#ffffff"/><stop offset="1.00" stop-color="#bfbfbf"/></radialGradient>
<radialGradient id="node-31" cx="-5115.700" cy="-697.000" r="1520.000" fx="-5115.700" fy="-697.000" gradientTransform="matrix(1,0,0,1,0,0)" gradientUnits="userSpaceOnUse" opacity="1.0"><stop offset="0.00" stop-color="#ff0000"/><stop offset="1.00" stop-color="#bf0000"/></radialGradient>
<radialGradient id="node-32" cx="6864.200" cy="163.400" r="1200.000" fx="6864.200" fy="163.400" gradientTransform="matrix(1,0,0,1,0,0)" gradientUnits="userSpaceOnUse" opacity="1.0"><stop offset="0.00" stop-color="#ffffff"/><stop offset="1.00" stop-color="#bfbfbf"/></radialGradient>
<radialGradient id="node-33" cx="-1310.000" cy="-417.700" r="1700.000" fx="-1310.000" fy="-417.700" gradientTransform="matrix(1,0,0,1,0,0)" gradientUnits="userSpaceOnUse" opacity="1.0"><stop offset="0.00" stop-color="#505050"/><stop offset="1.00" stop-color="#3c3c3c"/></radialGradient>
<radialGradient id="node-34" cx="-4244.600" cy="2557.200" r="1200.000" fx="-4244.600" fy="2557.200" gradientTransform="matrix(1,0,0,1,0,0)" gradientUnits="userSpaceOnUse" opacity="1.0"><stop offset="0.00" stop-color="#ffffff"/><stop offset="1.00" stop-color="#bfbfbf"/></radialGradient>
<radialGradient id="node-35" cx="-450.900" cy="-2458.500" r="1200.000" fx="-450.900" fy="-2458.500" gradientTransform="matrix(1,0,0,1,0,0)" gradientUnits="userSpaceOnUse" opacity="1.0"><stop offset="0.00" stop-color="#ffffff"/><stop offset="1.00" stop-color="#bfbfbf"/></radialGradient>
<radialGradient id="node-36" cx="2159.800" cy="-2040.500" r="1520.000" fx="2159.800" fy="-2040.500" gradientTransform="matrix(1,0,0,1,0,0)" gradientUnits="userSpaceOnUse" opacity="1.0"><stop offset="0.00" stop-color="#ff0000"/><stop offset="1.00" stop-color="#bf0000"/></radialGradient>
<radialGradient id="node-37" cx="-3219.300" cy="2222.400" r="1700.000" fx="-3219.300" fy="2222.400" gradientTransform="matrix(1,0,0,1,0,0)" gradientUnits="userSpaceOnUse" opacity="1.0"><stop offset="0.00" stop-color="#505050"/><stop offset="1.00" stop-color="#3c3c3c"/></radialGradient>
<radialGradient id="node-38" cx="-2672.400" cy="3092.100" r="1200.000" fx="-2672.400" fy="3092.100" gradientTransform="matrix(1,0,0,1,0,0)" gradientUnits="userSpaceOnUse" opacity="1.0"><stop offset="0.00" stop-color="#ffffff"/><stop offset="1.00" stop-color="#bfbfbf"/></radialGradient>
<radialGradient id="node-39" cx="-3265.500" cy="1476.100" r="1200.000" fx="-3265.500" fy="1476.100" gradientTransform="matrix(1,0,0,1,0,0)" gradientUnits="userSpaceOnUse" opacity="1.0"><stop offset="0.00" stop-color="#ffffff"/><stop offset="1.00" stop-color="#bfbfbf"/></radialGradient>
<radialGradient id="node-40" cx="-1516.700" cy="-485.200" r="1200.000" fx="-1516.700" fy="-485.200" gradientTransform="matrix(1,0,0,1,0,0)" gradientUnits="userSpaceOnUse" opacity="1.0"><stop offset="0.00" stop-color="#ffffff"/><stop offset="1.00" stop-color="#bfbfbf"/></radialGradient>
</defs>
<polygon class="node-0" points="-3284.200,2377.900 -3281.832,2302.551 -3274.738,2227.500 -3262.945,2153.042 -3246.500,2079.472 -3225.468,2007.080 -3199.932,1936.151 -3169.992,1866.965 -3135.768,1799.796 -3097.394,1734.908 -3055.020,1672.558 -3008.816,1612.991 -2958.962,1556.443 -2905.657,1503.138 -2849.109,1453.284 -2789.542,1407.080 -2727.192,1364.706 -2662.304,1326.332 -2595.135,1292.108 -2525.949,1262.168 -2455.020,1236.632 -2382.628,1215.600 -2309.058,1199.155 -2234.600,1187.362 -2159.549,1180.268 -2084.200,1177.900 -2008.851,1180.268 -1933.800,1187.362 -1859.342,1199.155 -1785.772,1215.600 -1713.380,1236.632 -1642.451,1262.168 -1573.265,1292.108 -1506.096,1326.332 -1441.208,1364.706 -1378.858,1407.080 -1319.291,1453.284 -1262.743,1503.138 -1209.438,1556.443 -1159.584,1612.991 -1113.380,1672.558 -1071.006,1734.908 -1032.632,1799.796 -998.408,1866.965 -968.468,1936.151 -942.932,2007.080 -921.900,2079.472 -905.455,2153.042 -893.662,2227.500 -886.568,2302.551 -884.200,2377.900 -884.200,2377.900 -886.568,2453.249 -893.662,2528.300 -905.455,2602.758 -921.900,2676.328 -942.932,2748.720 -968.468,2819.649 -998.408,2888.835 -1032.632,2956.004 -1071.006,3020.892 -1113.380,3083.242 -1159.584,3142.809 -1209.438,3199.357 -1262.743,3252.662 -1319.291,3302.516 -1378.858,3348.720 -1441.208,3391.094 -1506.096,3429.468 -1573.265,3463.692 -1642.451,3493.632 -1713.380,3519.168 -1785.772,3540.200 -1859.342,3556.645 -1933.800,3568.438 -2008.851,3575.532 -2084.200,3577.900 -2159.549,3575.532 -2234.600,3568.438 -2309.058,3556.645 -2382.628,3540.200 -2455.020,3519.168 -2525.949,3493.632 -2595.135,3463.692 -2662.304,3429.468 -2727.192,3391.094 -2789.542,3348.720 -2849.109,3302.516 -2905.657,3252.662 -2958.962,3199.357 -3008.816,3142.809 -3055.020,3083.242 -3097.394,3020.892 -3135.768,2956.004 -3169.992,2888.835 -3199.932,2819.649 -3225.468,2748.720 -3246.500,2676.328 -3262.945,2602.758 -3274.738,2528.300 -3281.832,2453.249"/>
<polygon class="node-1" points="1222.900,-964.600 1225.268,-1039.949 1232.362,-1115.000 1244.155,-1189.458 1260.600,-1263.028 1281.632,-1335.420 1307.168,-1406.349 1337.108,-1475.535 1371.332,-1542.704 1409.706,-1607.592 1452.080,-1669.942 1498.284,-1729.509 1548.138,-1786.057 1601.443,-1839.362 1657.991,-1889.216 1717.558,-1935.420 1779.908,-1977.794 1844.796,-2016.168 1911.965,-2050.392 1981.151,-2080.332 2052.080,-2105.868 2124.472,-2126.900 2198.042,-2143.345 2272.500,-2155.138 2347.551,-2162.232 2422.900,-2164.600 2498.249,-2162.232 2573.300,-2155.138 2647.758,-2143.345 2721.328,-2126.900 2793.720,-2105.868 2864.649,-2080.332 2933.835,-2050.392 3001.004,-2016.168 3065.892,-1977.794 3128.242,-1935.420 3187.809,-1889.216 3244.357,-1839.362 3297.662,-1786.057 3347.516,-1729.509 3393.720,-1669.942 3436.094,-1607.592 3474.468,-1542.704 3508.692,-1475.535 3538.632,-1406.349 3564.168,-1335.420 3585.200,-1263.028 3601.645,-1189.458 3613.438,-1115.000 3620.532,-1039.949 3622.900,-964.600 3622.900,-964.600 3620.532,-889.251 3613.438,-814.200 3601.645,-739.742 3585.200,-666.172 3564.168,-593.780 3538.632,-522.851 3508.692,-453.665 3474.468,-386.496 3436.094,-321.608 3393.720,-259.258 3347.516,-199.691 3297.662,-143.143 3244.357,-89.838 3187.809,-39.984 3128.242,6.220 3065.892,48.594 3001.004,86.968 2933.835,121.192 2864.649,151.132 2793.720,176.668 2721.328,197.700 2647.758,214.145 2573.300,225.938 2498.249,233.032 2422.900,235.400 2347.551,233.032 2272.500,225.938 2198.042,214.145 2124.472,197.700 2052.080,176.668 1981.151,151.132 1911.965,121.192 1844.796,86.968 1779.908,48.594 1717.558,6.220 1657.991,-39.984 1601.443,-89.838 1548.138,-143.143 1498.284,-199.691 1452.080,-259.258 1409.706,-321.608 1371.332,-386.496 1337.108,-453.665 1307.168,-522.851 1281.632,-593.780 1260.600,-666.172 1244.155,-739.742 1232.362,-814.200 1225.268,-889.251"/>
<polygon class="node-2" points="-4196.100,192.600 -4193.732,117.251 -4186.638,42.200 -4174.845,-32.258 -4158.400,-105.828 -4137.368,-178.220 -4111.832,-249.149 -4081.892,-318.335 -4047.668,-385.504 -4009.294,-450.392 -3966.920,-512.742 -3920.716,-572.309 -3870.862,-628.857 -3817.557,-682.162 -3761.009,-732.016 -3701.442,-778.220 -3639.092,-820.594 -3574.204,-858.968 -3507.035,-893.192 -3437.849,-923.132 -3366.920,-948.668 -3294.528,-969.700 -3220.958,-986.145 -3146.500,-997.938 -3071.449,-1005.032 -2996.100,-1007.400 -2920.751,-1005.032 -2845.700,-997.938 -2771.242,-986.145 -2697.672,-969.700 -2625.280,-948.668 -2554.351,-923.132 -2485.165,-893.192 -2417.996,-858.968 -2353.108,-820.594 -2290.758,-778.220 -2231.191,-732.016 -2174.643,-682.162 -2121.338,-628.857 -2071.484,-572.309 -2025.280,-512.742 -1982.906,-450.392 -1944.532,-385.504 -1910.308,-318.335 -1880.368,-249.149 -1854.832,-178.220 -1833.800,-105.828 -1817.355,-32.258 -1805.562,42.200 -1798.468,117.251 -1796.100,192.600 -1796.100,192.600 -1798.468,267.949 -1805.562,343.000 -1817.355,417.458 -1833.800,491.028 -1854.832,563.420 -1880.368,634.349 -1910.308,703.535 -1944.532,770.704 -1982.906,835.592 -2025.280,897.942 -2071.484,957.509 -2121.338,1014.057 -2174.643,1067.362 -2231.191,1117.216 -2290.758,1163.420 -2353.108,1205.794 -2417.996,1244.168 -2485.165,1278.392 -2554.351,1308.332 -2625.280,1333.868 -2697.672,1354.900 -2771.242,1371.345 -2845.700,1383.138 -2920.751,1390.232 -2996.100,1392.600 -3071.449,1390.232 -3146.500,1383.138 -3220.958,1371.345 -3294.528,1354.900 -3366.920,1333.868 -3437.849,1308.332 -3507.035,1278.392 -3574.204,1244.168 -3639.092,1205.794 -3701.442,1163.420 -3761.009,1117.216 -3817.557,1067.362 -3870.862,1014.057 -3920.716,957.509 -3966.920,897.942 -4009.294,835.592 -4047.668,770.704 -4081.892,703.535 -4111.832,634.349 -4137.368,563.420 -4158.400,491.028 -4174.845,417.458 -4186.638,343.000 -4193.732,267.949"/>
<polygon class="node-3" points="-764.100,-1011.300 -761.732,-1086.649 -754.638,-1161.700 -742.845,-1236.158 -726.400,-1309.728 -705.368,-1382.120 -679.832,-1453.049 -649.892,-1522.235 -615.668,-1589.404 -577.294,-1654.292 -534.920,-1716.642 -488.716,-1776.209 -438.862,-1832.757 -385.557,-1886.062 -329.009,-1935.916 -269.442,-1982.120 -207.092,-2024.494 -142.204,-2062.868 -75.035,-2097.092 -5.849,-2127.032 65.080,-2152.568 137.472,-2173.600 211.042,-2190.045 285.500,-2201.838 360.551,-2208.932 435.900,-2211.300 511.249,-2208.932 586.300,-2201.838 660.758,-2190.045 734.328,-2173.600 806.720,-2152.568 877.649,-2127.032 946.835,-2097.092 1014.004,-2062.868 1078.892,-2024.494 1141.242,-1982.120 1200.809,-1935.916 1257.357,-1886.062 1310.662,-1832.757 1360.516,-1776.209 1406.720,-1716.642 1449.094,-1654.292 1487.468,-1589.404 1521.692,-1522.235 1549.430,-1452.178 1568.169,-1379.196 1583.890,-1306.054 1593.766,-1232.175 1604.689,-1084.834 1607.000,-1011.300 1607.000,-1011.300 1604.689,-937.766 1597.766,-864.522 1577.612,-718.158 1563.117,-645.045 1546.680,-571.511 1521.157,-500.617 1487.468,-433.196 1449.094,-368.308 1406.720,-305.958 1360.516,-246.391 1310.662,-189.843 1257.357,-136.538 1200.809,-86.684 1141.242,-40.480 1078.892,1.894 1014.004,40.268 946.835,74.492 877.649,104.432 806.720,129.968 734.328,151.000 660.758,167.445 586.300,179.238 511.249,186.332 435.900,188.700 360.551,186.332 285.500,179.238 211.042,167.445 137.472,151.000 65.080,129.968 -5.849,104.432 -75.035,74.492 -142.204,40.268 -207.092,1.894 -269.442,-40.480 -329.009,-86.684 -385.557,-136.538 -438.862,-189.843 -488.716,-246.391 -534.920,-305.958 -577.294,-368.308 -615.668,-433.196 -649.892,-500.365 -679.832,-569.551 -705.368,-640.480 -726.400,-712.872 -742.845,-786.442 -754.638,-860.900 -761.732,-935.951"/>
<polygon class="node-4" points="1444.300,1420.600 1446.668,1345.251 1453.762,1270.200 1465.555,1195.742 1482.000,1122.172 1503.032,1049.780 1528.568,978.851 1558.508,909.665 1592.732,842.496 1631.106,777.608 1673.480,715.258 1719.684,655.691 1769.538,599.143 1822.843,545.838 1879.391,495.984 1938.958,449.780 2001.308,407.406 2066.196,369.032 2133.365,334.808 2202.551,304.868 2273.480,279.332 2345.872,258.300 2419.442,241.855 2493.900,230.062 2568.951,222.968 2644.300,220.600 2719.649,222.968 2794.700,230.062 2869.158,241.855 2942.728,258.300 3015.120,279.332 3086.049,304.868 3155.235,334.808 3222.404,369.032 3287.292,407.406 3349.642,449.780 3409.209,495.984 3465.757,545.838 3519.062,599.143 3568.916,655.691 3615.120,715.258 3657.494,777.608 3695.868,842.496 3730.092,909.665 3760.032,978.851 3785.568,1049.780 3806.600,1122.172 3823.045,1195.742 3834.838,1270.200 3841.932,1345.251 3844.300,1420.600 3844.300,1420.600 3841.932,1495.949 3834.838,1571.000 3823.045,1645.458 3806.600,1719.028 3785.568,1791.420 3760.032,1862.349 3730.092,1931.535 3695.868,1998.704 3657.494,2063.592 3615.120,2125.942 3568.916,2185.509 3519.062,2242.057 3465.757,2295.362 3409.209,2345.216 3349.642,2391.420 3287.292,2433.794 3222.404,2472.168 3155.235,2506.392 3086.049,2536.332 3015.120,2561.868 2942.728,2582.900 2869.158,2599.345 2794.700,2611.138 2719.649,2618.232 2644.300,2620.600 2568.951,2618.232 2493.900,2611.138 2419.442,2599.345 2345.872,2582.900 2273.480,2561.868 2202.551,2536.332 2133.365,2506.392 2066.196,2472.168 2001.308,2433.794 1938.958,2391.420 1879.391,2345.216 1822.843,2295.362 1769.538,2242.057 1719.684,2185.509 1673.480,2125.942 1631.106,2063.592 1592.732,1998.704 1558.508,1931.535 1528.568,1862.349 1503.032,1791.420 1482.000,1719.028 1465.555,1645.458 1453.762,1571.000 1446.668,1495.949"/>
<polygon class="node-5" points="-4800.800,3011.900 -4798.432,2936.551 -4791.338,2861.500 -4779.545,2787.042 -4763.100,2713.472 -4742.068,2641.080 -4716.532,2570.151 -4686.592,2500.965 -4652.368,2433.796 -4613.994,2368.908 -4571.620,2306.558 -4525.416,2246.991 -4475.562,2190.443 -4422.257,2137.138 -4365.709,2087.284 -4306.142,2041.080 -4243.792,1998.706 -4178.904,1960.332 -4111.735,1926.108 -4042.549,1896.168 -3971.620,1870.632 -3899.228,1849.600 -3825.658,1833.155 -3751.200,1821.362 -3676.149,1814.268 -3600.800,1811.900 -3525.451,1814.268 -3450.400,1821.362 -3375.942,1833.155 -3302.372,1849.600 -3229.980,1870.632 -3159.051,1896.168 -3089.865,1926.108 -3022.696,1960.332 -2960.661,2003.203 -2904.142,2053.032 -2805.151,2164.620 -2721.438,2284.429 -2687.374,2348.257 -2623.077,2474.392 -2591.256,2536.845 -2563.419,2601.172 -2539.676,2667.120 -2491.742,2800.336 -2461.784,2940.239 -2432.011,3085.434 -2431.350,3159.636 -2431.350,3234.985 -2439.074,3310.181 -2459.532,3382.720 -2485.068,3453.649 -2515.008,3522.835 -2549.232,3590.004 -2587.606,3654.892 -2629.980,3717.242 -2676.184,3776.809 -2726.038,3833.357 -2779.343,3886.662 -2835.891,3936.516 -2895.458,3982.720 -2957.808,4025.094 -3022.696,4063.468 -3089.865,4097.692 -3159.051,4127.632 -3229.980,4153.168 -3302.372,4174.200 -3375.942,4190.645 -3450.400,4202.438 -3525.451,4209.532 -3600.800,4211.900 -3676.149,4209.532 -3751.200,4202.438 -3825.658,4190.645 -3899.228,4174.200 -3971.620,4153.168 -4042.549,4127.632 -4111.735,4097.692 -4178.904,4063.468 -4243.792,4025.094 -4306.142,3982.720 -4365.709,3936.516 -4422.257,3886.662 -4475.562,3833.357 -4525.416,3776.809 -4571.620,3717.242 -4613.994,3654.892 -4652.368,3590.004 -4686.592,3522.835 -4716.532,3453.649 -4742.068,3382.720 -4763.100,3310.328 -4779.545,3236.758 -4791.338,3162.300 -4798.432,3087.249"/>
<polygon class="node-6" points="-3804.200,-2545.100 -3801.201,-2640.542 -3792.214,-2735.607 -3777.277,-2829.920 -3756.446,-2923.109 -3729.806,-3014.806 -3697.460,-3104.649 -3659.537,-3192.285 -3616.186,-3277.366 -3567.578,-3359.557 -3513.906,-3438.534 -3455.380,-3513.984 -3392.232,-3585.612 -3324.712,-3653.132 -3253.084,-3716.280 -3177.634,-3774.806 -3098.657,-3828.478 -3016.466,-3877.086 -2931.385,-3920.437 -2843.749,-3958.360 -2753.906,-3990.706 -2662.209,-4017.346 -2569.020,-4038.177 -2474.707,-4053.114 -2379.642,-4062.101 -2284.200,-4065.100 -2188.758,-4062.101 -2093.693,-4053.114 -1999.380,-4038.177 -1906.191,-4017.346 -1814.494,-3990.706 -1724.651,-3958.360 -1637.015,-3920.437 -1551.934,-3877.086 -1469.743,-3828.478 -1390.766,-3774.806 -1315.316,-3716.280 -1243.688,-3653.132 -1176.168,-3585.612 -1113.020,-3513.984 -1054.494,-3438.534 -1000.822,-3359.557 -952.214,-3277.366 -908.863,-3192.285 -870.940,-3104.649 -838.594,-3014.806 -811.954,-2923.109 -791.123,-2829.920 -776.186,-2735.607 -767.199,-2640.542 -764.200,-2545.100 -764.200,-2545.100 -767.199,-2449.658 -776.186,-2354.593 -791.123,-2260.280 -811.954,-2167.091 -838.594,-2075.394 -870.940,-1985.551 -908.863,-1897.915 -952.214,-1812.834 -1000.822,-1730.643 -1054.494,-1651.666 -1113.020,-1576.216 -1176.168,-1504.588 -1243.688,-1437.068 -1315.316,-1373.920 -1390.766,-1315.394 -1469.743,-1261.722 -1551.934,-1213.114 -1637.015,-1169.763 -1724.651,-1131.840 -1814.494,-1099.494 -1906.191,-1072.854 -1999.380,-1052.023 -2093.693,-1037.086 -2188.758,-1028.099 -2284.200,-1025.100 -2379.642,-1028.099 -2474.707,-1037.086 -2569.020,-1052.023 -2662.209,-1072.854 -2753.906,-1099.494 -2843.749,-1131.840 -2931.385,-1169.763 -3016.466,-1213.114 -3098.657,-1261.722 -3177.634,-1315.394 -3253.084,-1373.920 -3324.712,-1437.068 -3392.232,-1504.588 -3455.380,-1576.216 -3513.906,-1651.666 -3567.578,-1730.643 -3616.186,-1812.834 -3659.537,-1897.915 -3697.460,-1985.551 -3729.806,-2075.394 -3756.446,-2167.091 -3777.277,-2260.280 -3792.214,-2354.593 -3801.201,-2449.658"/>
<polygon class="node-7" points="2245.300,-2189.100 2247.668,-2264.449 2254.762,-2339.500 2266.555,-2413.958 2283.000,-2487.528 2304.032,-2559.920 2329.568,-2630.849 2359.508,-2700.035 2393.732,-2767.204 2432.106,-2832.092 2474.480,-2894.442 2520.684,-2954.009 2570.538,-3010.557 2623.843,-3063.862 2680.391,-3113.716 2739.958,-3159.920 2802.308,-3202.294 2867.196,-3240.668 2934.365,-3274.892 3003.551,-3304.832 3074.480,-3330.368 3146.872,-3351.400 3220.442,-3367.845 3294.900,-3379.638 3369.951,-3386.732 3445.300,-3389.100 3520.649,-3386.732 3595.700,-3379.638 3670.158,-3367.845 3743.728,-3351.400 3816.120,-3330.368 3887.049,-3304.832 3956.235,-3274.892 4023.404,-3240.668 4088.292,-3202.294 4150.642,-3159.920 4210.209,-3113.716 4266.757,-3063.862 4320.062,-3010.557 4369.916,-2954.009 4416.120,-2894.442 4458.494,-2832.092 4496.868,-2767.204 4531.092,-2700.035 4561.032,-2630.849 4586.568,-2559.920 4607.600,-2487.528 4624.045,-2413.958 4635.838,-2339.500 4642.932,-2264.449 4645.300,-2189.100 4645.300,-2189.100 4642.932,-2113.751 4635.838,-2038.700 4624.045,-1964.242 4607.600,-1890.672 4586.568,-1818.280 4561.032,-1747.351 4531.092,-1678.165 4496.868,-1610.996 4458.494,-1546.108 4416.120,-1483.758 4369.916,-1424.191 4320.062,-1367.643 4266.757,-1314.338 4210.209,-1264.484 4150.642,-1218.280 4088.292,-1175.906 4023.404,-1137.532 3956.235,-1103.308 3887.049,-1073.368 3816.120,-1047.832 3743.728,-1026.800 3670.158,-1010.355 3595.700,-998.562 3520.649,-991.468 3445.300,-989.100 3369.989,-992.059 3296.086,-1007.950 3224.425,-1031.234 3154.059,-1054.792 3086.130,-1083.687 3021.091,-1117.670 2959.372,-1156.450 2840.321,-1235.806 2781.657,-1275.674 2725.612,-1319.147 2672.407,-1366.053 2622.253,-1416.207 2521.995,-1518.280 2472.337,-1571.639 2426.769,-1629.158 2385.657,-1690.470 2349.331,-1755.175 2313.031,-1821.204 2285.294,-1891.261 2266.555,-1964.242 2254.762,-2038.700 2247.668,-2113.751"/>
<polygon class="node-8" points="-4129.699,2226.830 -4119.654,2120.560 -4108.479,2010.688 -4066.821,1912.319 -4012.457,1820.394 -3952.429,1732.065 -3886.973,1647.679 -3816.347,1567.570 -3740.830,1492.053 -3660.721,1421.427 -3576.335,1355.971 -3488.006,1295.943 -3396.081,1241.579 -3297.712,1199.921 -3197.977,1163.144 -3095.961,1134.409 -2890.006,1090.990 -2786.393,1074.579 -2577.100,1052.230 -2471.198,1048.033 -2364.454,1048.033 -2258.552,1061.412 -2154.327,1084.709 -2051.771,1114.504 -1951.288,1150.680 -1853.275,1193.094 -1758.119,1241.579 -1666.194,1295.943 -1577.865,1355.971 -1493.479,1421.427 -1413.370,1492.053 -1337.853,1567.570 -1267.227,1647.679 -1201.771,1732.065 -1141.743,1820.394 -1087.379,1912.319 -1038.894,2007.475 -996.480,2105.488 -960.304,2205.971 -930.509,2308.527 -907.212,2412.752 -890.505,2518.234 -880.455,2624.556 -877.100,2731.300 -877.100,2731.300 -880.455,2838.044 -890.505,2944.366 -907.212,3049.848 -930.509,3154.073 -960.304,3256.629 -996.480,3357.112 -1038.894,3455.125 -1087.379,3550.281 -1141.743,3642.206 -1201.771,3730.535 -1267.227,3814.921 -1337.853,3895.030 -1413.370,3970.547 -1493.479,4041.173 -1577.865,4106.629 -1666.194,4166.657 -1758.119,4221.021 -1853.275,4269.506 -1951.288,4311.920 -2051.771,4348.096 -2154.327,4377.891 -2258.552,4401.188 -2364.034,4417.895 -2470.356,4427.945 -2577.100,4431.300 -2683.844,4427.945 -2790.166,4417.895 -2895.648,4401.188 -2999.873,4377.891 -3102.429,4348.096 -3202.912,4311.920 -3300.925,4269.506 -3396.081,4221.021 -3487.556,4165.949 -3564.033,4089.696 -3626.677,4000.020 -3683.873,3909.894 -3729.322,3813.309 -3882.553,3448.979 -3968.744,3183.473 -3994.390,3095.198 -4014.443,3005.488 -4088.822,2636.191 -4103.177,2538.512 -4126.346,2333.521"/>
<polygon class="node-9" points="1268.392,-1471.873 1275.681,-1683.068 1286.002,-1790.570 1321.380,-1891.312 1363.794,-1989.325 1412.279,-2084.481 1466.643,-2176.406 1526.671,-2264.735 1592.127,-2349.121 1662.753,-2429.230 1738.270,-2504.747 1818.379,-2575.373 1902.765,-2640.829 1991.094,-2700.857 2083.019,-2755.221 2178.175,-2803.706 2276.188,-2846.120 2376.671,-2882.296 2479.227,-2912.091 2584.865,-2927.977 2694.065,-2911.476 2800.481,-2879.106 2902.000,-2846.120 3091.844,-2768.267 3354.173,-2657.144 3593.489,-2523.313 3671.103,-2477.412 3903.671,-2332.172 4219.306,-2101.488 4444.554,-1876.240 4511.621,-1788.497 4548.591,-1688.273 4571.888,-1584.048 4588.595,-1478.566 4598.645,-1372.244 4602.000,-1265.500 4602.000,-1265.500 4598.645,-1158.756 4588.595,-1052.434 4571.888,-946.952 4548.591,-842.727 4518.796,-740.171 4482.620,-639.688 4440.206,-541.675 4391.721,-446.519 4337.357,-354.594 4277.329,-266.265 4211.873,-181.879 4141.247,-101.770 4065.730,-26.253 3985.621,44.373 3901.235,109.829 3812.906,169.857 3720.981,224.221 3625.825,272.706 3527.812,315.120 3427.329,351.296 3324.773,381.091 3220.548,404.388 3114.121,413.610 3007.430,410.257 2797.147,401.093 2692.707,391.221 2484.432,360.819 2379.003,344.121 2276.188,315.120 2178.175,272.706 2083.019,224.221 1991.094,169.857 1902.765,109.829 1818.379,44.373 1738.270,-26.253 1662.753,-101.770 1592.127,-181.879 1526.671,-266.265 1466.643,-354.594 1415.218,-448.135 1382.732,-550.587 1359.446,-654.760 1297.953,-1062.862 1288.394,-1163.981 1272.722,-1368.005"/>
<polygon class="node-10" points="-6871.700,1076.000 -6868.701,980.558 -6859.714,885.493 -6844.777,791.180 -6823.946,697.991 -6797.306,606.294 -6764.960,516.451 -6727.037,428.815 -6683.686,343.734 -6635.078,261.543 -6581.406,182.566 -6522.880,107.116 -6459.732,35.488 -6392.212,-32.032 -6320.584,-95.180 -6245.134,-153.706 -6166.157,-207.378 -6083.966,-255.986 -5998.885,-299.337 -5911.249,-337.260 -5821.406,-369.606 -5729.709,-396.246 -5636.520,-417.077 -5542.207,-432.014 -5447.142,-441.001 -5351.700,-444.000 -5256.258,-441.001 -5161.193,-432.014 -5066.880,-417.077 -4973.691,-396.246 -4881.994,-369.606 -4792.151,-337.260 -4704.515,-299.337 -4619.434,-255.986 -4537.243,-207.378 -4458.266,-153.706 -4382.816,-95.180 -4311.188,-32.032 -4243.668,35.488 -4180.520,107.116 -4121.994,182.566 -4068.322,261.543 -4019.714,343.734 -3977.042,429.135 -3939.137,516.727 -3906.807,606.526 -3879.454,697.991 -3858.623,791.180 -3843.686,885.493 -3834.699,980.558 -3831.700,1076.000 -3831.700,1076.000 -3834.699,1171.442 -3843.686,1266.507 -3858.623,1360.820 -3879.454,1454.009 -3906.094,1545.706 -3938.440,1635.549 -3976.363,1723.185 -4019.714,1808.266 -4068.322,1890.457 -4121.994,1969.434 -4180.520,2044.884 -4244.214,2115.998 -4313.242,2181.846 -4384.727,2244.869 -4458.707,2305.099 -4537.243,2359.378 -4619.434,2407.986 -4704.515,2451.337 -4792.151,2489.260 -4881.994,2521.606 -4973.691,2548.246 -5066.880,2569.077 -5161.193,2584.014 -5256.258,2593.001 -5351.700,2596.000 -5447.142,2593.001 -5542.207,2584.014 -5636.520,2569.077 -5729.709,2548.246 -5821.406,2521.606 -5911.249,2489.260 -5998.885,2451.337 -6083.966,2407.986 -6166.157,2359.378 -6245.134,2305.706 -6320.584,2247.180 -6392.212,2184.032 -6459.732,2116.512 -6522.880,2044.884 -6581.406,1969.434 -6635.078,1890.457 -6683.686,1808.266 -6727.037,1723.185 -6764.960,1635.549 -6797.306,1545.706 -6823.946,1454.009 -6844.777,1360.820 -6859.714,1266.507 -6868.701,1171.442"/>
<polygon class="node-11" points="1910.279,928.007 1917.671,822.674 1927.716,716.403 1953.394,613.008 1986.380,511.488 2028.794,413.475 2077.279,318.319 2134.475,228.192 2349.111,129.775 2740.552,-0.208 2995.066,-78.121 3398.644,-195.371 3567.000,-238.029 3841.188,-300.043 4049.123,-346.522 4162.182,-365.959 4281.913,-381.968 4385.981,-352.421 4477.906,-298.057 4566.235,-238.029 4650.621,-172.573 4730.730,-101.947 4806.247,-26.430 4876.873,53.679 4942.329,138.065 5002.357,226.394 5056.721,318.319 5105.206,413.475 5147.620,511.488 5183.796,611.971 5213.591,714.527 5236.888,818.752 5253.595,924.234 5263.645,1030.556 5267.000,1137.300 5267.000,1137.300 5263.645,1244.044 5253.595,1350.366 5236.888,1455.848 5213.591,1560.073 5183.796,1662.629 5147.620,1763.112 5105.206,1861.125 5056.721,1956.281 5002.357,2048.206 4942.329,2136.535 4876.873,2220.921 4806.247,2301.030 4730.730,2376.547 4650.621,2447.173 4566.235,2512.629 4477.906,2572.657 4385.981,2627.021 4290.825,2675.506 4192.812,2717.920 4092.329,2754.096 3989.773,2783.891 3885.548,2807.188 3780.066,2823.895 3673.744,2833.945 3567.000,2837.300 3460.256,2833.945 3353.934,2823.895 3248.452,2807.188 3144.227,2783.891 3041.671,2754.096 2941.188,2717.920 2843.175,2675.506 2748.019,2627.021 2656.094,2572.657 2567.765,2512.629 2485.517,2444.588 2412.446,2366.775 2349.704,2280.417 2288.673,2194.824 2234.880,2105.142 2136.430,1923.763 2063.741,1732.482 2029.336,1636.917 2000.999,1539.381 1978.842,1440.257 1937.722,1239.805 1920.409,1137.300 1911.215,1033.127"/>
<polygon class="node-12" points="-3067.319,4281.776 -3044.323,4184.208 -2983.365,4078.097 -2903.523,3978.061 -2821.334,3891.928 -2749.783,3822.111 -2607.093,3714.980 -2390.871,3563.441 -2278.378,3492.834 -2083.037,3385.445 -1766.280,3233.345 -1433.657,3123.084 -1318.570,3103.224 -1194.502,3093.250 -1066.499,3096.890 -989.369,3139.794 -950.868,3204.951 -925.332,3275.880 -904.300,3348.272 -887.855,3421.842 -876.062,3496.300 -868.968,3571.351 -866.600,3646.700 -866.600,3646.700 -868.968,3722.049 -876.062,3797.100 -887.855,3871.558 -904.300,3945.128 -925.332,4017.520 -950.868,4088.449 -980.808,4157.635 -1015.032,4224.804 -1053.406,4289.692 -1095.780,4352.042 -1141.984,4411.609 -1191.838,4468.157 -1245.143,4521.462 -1301.691,4571.316 -1361.258,4617.520 -1423.608,4659.894 -1488.496,4698.268 -1555.665,4732.492 -1624.851,4762.432 -1695.780,4787.968 -1768.172,4809.000 -1841.742,4825.445 -1916.200,4837.238 -1991.251,4844.332 -2066.600,4846.700 -2141.949,4844.332 -2217.000,4837.238 -2291.458,4825.445 -2365.028,4809.000 -2437.420,4787.968 -2508.349,4762.432 -2577.535,4732.492 -2644.704,4698.268 -2709.592,4659.894 -2771.942,4617.520 -2831.509,4571.316 -2888.057,4521.462 -2941.362,4468.157 -2991.216,4411.609 -3037.420,4352.042"/>
<polygon class="node-13" points="-7515.000,976.200 -7512.632,900.851 -7505.538,825.800 -7493.745,751.342 -7477.300,677.772 -7456.268,605.380 -7430.732,534.451 -7400.792,465.265 -7366.568,398.096 -7328.194,333.208 -7285.820,270.858 -7239.616,211.291 -7189.762,154.743 -7136.457,101.438 -7079.909,51.584 -7020.342,5.380 -6957.992,-36.994 -6893.104,-75.368 -6825.935,-109.592 -6756.749,-139.532 -6685.820,-165.068 -6613.428,-186.100 -6539.858,-202.545 -6465.400,-214.338 -6390.349,-221.432 -6315.000,-223.800 -6239.651,-221.432 -6164.600,-214.338 -6099.071,-155.741 -6063.029,-5.162 -6044.249,292.360 -6055.896,662.998 -6063.029,816.294 -6093.979,1116.464 -6116.304,1289.294 -6163.088,1567.859 -6182.832,1669.049 -6212.044,1791.179 -6254.042,1945.105 -6315.000,2091.932 -6390.311,2173.241 -6465.400,2166.738 -6539.858,2154.945 -6613.428,2138.500 -6685.820,2117.468 -6756.749,2091.932 -6825.935,2061.992 -6893.104,2027.768 -6957.992,1989.394 -7020.342,1947.020 -7079.909,1900.816 -7136.457,1850.962 -7189.762,1797.657 -7239.616,1741.109 -7285.820,1681.542 -7328.194,1619.192 -7366.568,1554.304 -7400.792,1487.135 -7430.732,1417.949 -7456.268,1347.020 -7477.300,1274.628 -7493.745,1201.058 -7505.538,1126.600 -7512.632,1051.549"/>
<polygon class="node-14" points="3034.300,3174.300 3036.668,3098.951 3043.762,3023.900 3055.555,2949.442 3072.000,2875.872 3093.032,2803.480 3132.305,2737.989 3282.813,2651.215 3431.353,2590.925 3618.116,2518.131 3779.636,2457.864 4181.020,2327.446 4347.117,2281.265 4540.998,2230.380 4696.608,2191.846 4784.110,2174.199 4872.222,2169.096 4939.642,2203.480 4999.209,2249.684 5055.757,2299.538 5109.062,2352.843 5158.916,2409.391 5205.120,2468.958 5247.494,2531.308 5285.868,2596.196 5320.092,2663.365 5350.032,2732.551 5375.568,2803.480 5396.600,2875.872 5413.045,2949.442 5424.838,3023.900 5431.932,3098.951 5434.300,3174.300 5434.300,3174.300 5431.932,3249.649 5424.838,3324.700 5413.045,3399.158 5396.600,3472.728 5375.568,3545.120 5350.032,3616.049 5320.092,3685.235 5285.868,3752.404 5247.494,3817.292 5205.120,3879.642 5158.916,3939.209 5109.062,3995.757 5055.757,4049.062 4999.209,4098.916 4939.642,4145.120 4877.292,4187.494 4812.404,4225.868 4745.235,4260.092 4676.049,4290.032 4605.120,4315.568 4532.728,4336.600 4459.158,4353.045 4384.700,4364.838 4309.649,4371.932 4234.300,4374.300 4158.951,4371.932 4083.900,4364.838 4009.442,4353.045 3935.872,4336.600 3863.480,4315.568 3792.551,4290.032 3723.365,4260.092 3656.196,4225.868 3591.308,4187.494 3528.958,4145.120 3469.391,4098.916 3412.843,4049.062 3359.538,3995.757 3309.684,3939.209 3263.480,3879.642 3221.106,3817.292 3182.732,3752.404 3148.508,3685.235 3118.568,3616.049 3093.032,3545.120 3072.000,3472.728 3055.555,3399.158 3043.762,3324.700 3036.668,3249.649"/>
<polygon class="node-15" points="2227.590,118.006 2263.853,7.738 2353.189,-194.900 2407.526,-286.779 2472.950,-371.123 2655.123,-588.955 2814.508,-774.007 2971.231,-936.689 3183.877,-1136.377 3484.952,-1373.494 3781.542,-1567.515 4060.688,-1720.977 4277.391,-1789.761 4389.087,-1798.947 4493.712,-1775.520 4591.725,-1733.106 4686.881,-1684.621 4778.806,-1630.257 4867.135,-1570.229 4951.521,-1504.773 5031.630,-1434.147 5107.147,-1358.630 5177.773,-1278.521 5243.229,-1194.135 5303.257,-1105.806 5357.621,-1013.881 5406.106,-918.725 5448.520,-820.712 5484.696,-720.229 5514.491,-617.673 5537.788,-513.448 5554.495,-407.966 5564.545,-301.644 5567.900,-194.900 5567.900,-194.900 5564.545,-88.156 5554.495,18.166 5537.788,123.648 5514.491,227.873 5484.696,330.429 5448.520,430.912 5406.106,528.925 5357.621,624.081 5303.257,716.006 5243.229,804.335 5154.571,869.527 5020.122,887.109 4887.684,891.060 4657.450,891.823 4551.180,881.778 4281.757,850.383 3688.849,743.716 3630.266,730.622 3048.371,574.689 2791.222,488.380 2690.789,452.222 2482.792,353.503 2364.641,293.538 2250.474,220.384"/>
<polygon class="node-16" points="-4771.147,-185.187 -4747.720,-289.812 -4705.306,-387.825 -4656.821,-482.981 -4602.457,-574.906 -4542.429,-663.235 -4476.973,-747.621 -4406.347,-827.730 -4330.830,-903.247 -4250.721,-973.873 -4166.335,-1039.329 -4078.006,-1099.357 -3986.081,-1153.721 -3890.925,-1202.206 -3792.912,-1244.620 -3692.429,-1280.796 -3589.873,-1310.591 -3485.648,-1333.888 -3380.166,-1350.595 -3273.844,-1360.645 -3167.100,-1364.000 -3060.356,-1360.645 -2954.034,-1350.595 -2848.552,-1333.888 -2744.327,-1310.591 -2641.771,-1280.796 -2541.288,-1244.620 -2443.275,-1202.206 -2348.119,-1153.721 -2256.194,-1099.357 -2167.865,-1039.329 -2083.479,-973.873 -2003.370,-903.247 -1927.853,-827.730 -1857.227,-747.621 -1791.771,-663.235 -1731.743,-574.906 -1677.379,-482.981 -1628.894,-387.825 -1586.480,-289.812 -1550.304,-189.329 -1520.509,-86.773 -1497.212,17.452 -1480.505,122.934 -1470.455,229.256 -1467.100,336.000 -1467.100,336.000 -1470.455,442.744 -1480.505,549.066 -1497.212,654.548 -1520.509,758.773 -1550.304,861.329 -1586.480,961.812 -1628.894,1059.825 -1677.379,1154.981 -1731.743,1246.906 -1791.771,1335.235 -1867.556,1411.076 -1957.698,1471.704 -2147.542,1568.434 -2522.167,1706.552 -2796.621,1778.919 -3071.991,1847.722 -3362.643,1883.880 -3569.181,1902.001 -3675.925,1902.001 -3785.207,1897.160 -3889.496,1871.171 -3986.081,1825.721 -4077.556,1770.649 -4148.636,1686.968 -4207.694,1593.862 -4262.031,1501.983 -4352.308,1316.489 -4472.553,1053.679 -4678.822,431.109 -4724.204,238.035 -4755.258,33.043"/>
<polygon class="node-17" points="2828.292,2548.439 2844.474,2437.540 2893.744,2327.104 2998.639,2129.000 3058.638,2040.714 3226.774,1811.873 3283.306,1746.052 3442.116,1568.369 3859.507,1179.781 4033.502,1046.991 4229.688,911.704 4302.076,863.866 4461.900,819.127 4818.859,738.737 5028.151,698.812 5142.933,681.732 5266.375,665.666 5372.806,693.643 5461.135,753.671 5545.521,819.127 5625.630,889.753 5701.147,965.270 5771.773,1045.379 5837.229,1129.765 5897.257,1218.094 5951.621,1310.019 6000.106,1405.175 6042.520,1503.188 6078.696,1603.671 6108.491,1706.227 6131.788,1810.452 6148.495,1915.934 6158.545,2022.256 6161.900,2129.000 6161.900,2129.000 6158.545,2235.744 6148.495,2342.066 6131.788,2447.548 6108.491,2551.773 6078.696,2654.329 6042.520,2754.812 6000.106,2852.825 5951.621,2947.981 5897.257,3039.906 5837.229,3128.235 5771.773,3212.621 5701.147,3292.730 5625.630,3368.247 5545.521,3438.873 5461.135,3504.329 5372.806,3564.357 5270.798,3600.380 5050.714,3616.175 4944.023,3612.822 4741.046,3592.334 4645.295,3580.723 4373.614,3532.262 3944.303,3436.300 3677.845,3364.473 3586.264,3334.210 3393.881,3266.324 3295.917,3223.931 3193.180,3178.577 3097.416,3120.356 3026.543,3039.906 2972.179,2947.981 2923.694,2852.825 2881.280,2754.812 2845.104,2654.329"/>
<polygon class="node-18" points="-982.300,-1380.700 -979.241,-1478.025 -970.078,-1574.967 -954.845,-1671.141 -933.604,-1766.169 -906.438,-1859.676 -873.454,-1951.293 -834.782,-2040.658 -790.575,-2127.418 -741.008,-2211.232 -686.276,-2291.767 -626.596,-2368.707 -562.201,-2441.748 -493.348,-2510.601 -420.307,-2574.996 -343.367,-2634.676 -262.832,-2689.408 -179.018,-2738.975 -92.258,-2783.182 -2.893,-2821.854 88.724,-2854.838 182.231,-2882.004 277.259,-2903.245 373.433,-2918.478 470.375,-2927.641 567.700,-2930.700 665.025,-2927.641 761.967,-2918.478 858.141,-2903.245 953.169,-2882.004 1046.676,-2854.838 1138.293,-2821.854 1227.658,-2783.182 1314.418,-2738.975 1398.232,-2689.408 1478.767,-2634.676 1555.707,-2574.996 1628.748,-2510.601 1697.601,-2441.748 1761.996,-2368.707 1806.238,-2280.550 1844.890,-2191.230 1890.325,-1904.364 1901.540,-1814.091 1915.265,-1550.937 1883.303,-1042.911 1830.592,-686.419 1740.841,-410.193 1692.587,-324.361 1628.748,-250.799 1555.707,-186.404 1478.767,-126.724 1398.232,-71.992 1314.418,-22.425 1227.658,21.782 1138.293,60.454 1046.676,93.438 953.169,120.604 858.141,141.845 761.967,157.078 665.025,166.241 567.700,169.300 470.375,166.241 373.433,157.078 277.259,141.845 182.231,120.604 88.724,93.438 -2.893,60.454 -92.258,21.782 -179.018,-22.425 -262.832,-71.992 -343.367,-126.724 -420.307,-186.404 -493.348,-250.799 -562.201,-319.652 -626.596,-392.693 -686.276,-469.633 -741.008,-550.168 -790.575,-633.982 -834.782,-720.742 -873.454,-810.107 -906.438,-901.724 -933.604,-995.231 -954.845,-1090.259 -970.078,-1186.433 -979.241,-1283.375"/>
<polygon class="node-19" points="-3618.100,-1826.100 -3614.745,-1932.844 -3604.695,-2039.166 -3587.988,-2144.648 -3564.691,-2248.873 -3534.896,-2351.429 -3497.940,-2451.603 -3453.271,-2548.496 -3401.210,-2641.447 -3342.139,-2729.823 -3282.584,-2817.456 -3211.846,-2896.380 -3061.217,-3043.396 -2893.270,-3168.307 -2807.068,-3226.889 -2717.358,-3279.944 -2624.493,-3327.261 -2528.840,-3368.654 -2430.777,-3403.958 -2231.006,-3466.410 -2023.530,-3501.857 -1918.100,-3512.695 -1812.198,-3509.367 -1705.979,-3505.210 -1600.180,-3492.693 -1495.536,-3471.879 -1392.771,-3442.896 -1292.288,-3406.720 -1194.275,-3364.306 -1099.119,-3315.821 -1007.194,-3261.457 -918.865,-3201.429 -834.479,-3135.973 -754.370,-3065.347 -678.853,-2989.830 -608.227,-2909.721 -542.771,-2825.335 -482.743,-2737.006 -428.379,-2645.081 -407.140,-2537.104 -494.061,-2005.998 -553.616,-1653.726 -585.980,-1484.070 -692.673,-935.775 -759.535,-592.353 -834.479,-516.227 -918.865,-450.771 -1007.194,-390.743 -1099.119,-336.379 -1194.275,-287.894 -1292.288,-245.480 -1392.771,-209.304 -1495.327,-179.509 -1607.223,-196.428 -1918.100,-362.839 -2322.873,-580.337 -3223.553,-1108.421 -3421.359,-1230.918 -3522.147,-1304.913 -3564.691,-1403.327 -3587.988,-1507.552 -3604.695,-1613.034 -3614.745,-1719.356"/>
<polygon class="node-20" points="-6312.867,-55.046 -6299.488,-160.948 -6276.191,-265.173 -6246.396,-367.729 -6210.220,-468.212 -6167.806,-566.225 -6119.321,-661.381 -6064.957,-753.306 -6004.929,-841.635 -5939.473,-926.021 -5868.847,-1006.130 -5793.330,-1081.647 -5713.221,-1152.273 -5628.835,-1217.729 -5540.506,-1277.757 -5448.581,-1332.121 -5353.425,-1380.606 -5255.412,-1423.020 -5154.929,-1459.196 -5052.373,-1488.991 -4948.148,-1512.288 -4842.666,-1528.995 -4736.344,-1539.045 -4629.600,-1542.400 -4522.856,-1539.045 -4416.534,-1528.995 -4311.052,-1512.288 -4206.827,-1488.991 -4104.271,-1459.196 -4003.788,-1423.020 -3905.775,-1380.606 -3810.619,-1332.121 -3718.694,-1277.757 -3648.064,-1193.368 -3622.075,-1060.289 -3609.816,-928.360 -3594.598,-698.628 -3583.269,-506.422 -3599.015,-177.257 -3606.114,-37.640 -3632.337,220.342 -3648.064,344.838 -3686.823,601.237 -3714.669,738.233 -3781.277,1060.972 -3860.497,1369.512 -3899.882,1484.951 -3948.567,1604.868 -4011.493,1718.760 -4104.271,1774.396 -4206.827,1804.191 -4312.465,1820.077 -4419.157,1823.430 -4525.427,1813.385 -4731.119,1771.206 -4830.070,1744.485 -5017.602,1668.767 -5274.533,1528.152 -5505.236,1362.810 -5579.184,1305.450 -5796.705,1123.113 -5928.350,981.812 -6041.296,821.894 -6099.223,739.465 -6132.859,646.038 -6200.766,457.316 -6233.647,360.238 -6288.658,157.600 -6305.357,52.170"/>
<polygon class="node-21" points="549.001,-2233.726 574.250,-2434.912 615.138,-2651.294 649.011,-2760.103 709.844,-2849.335 789.379,-2920.573 873.765,-2986.029 962.094,-3046.057 1054.019,-3100.421 1149.175,-3148.906 1247.188,-3191.320 1347.671,-3227.496 1450.227,-3257.291 1554.452,-3280.588 1659.934,-3297.295 1766.256,-3307.345 1873.000,-3310.700 1979.744,-3307.345 2086.066,-3297.295 2191.548,-3280.588 2295.773,-3257.291 2398.329,-3227.496 2498.812,-3191.320 2596.825,-3148.906 2691.981,-3100.421 2783.906,-3046.057 2872.235,-2986.029 2956.621,-2920.573 3036.730,-2849.947 3112.247,-2774.430 3182.873,-2694.321 3248.329,-2609.935 3307.649,-2521.156 3359.782,-2428.065 3399.077,-2328.817 3434.160,-2228.807 3461.158,-2126.724 3479.936,-2023.291 3490.426,-1919.240 3502.278,-1713.205 3486.606,-1509.181 3459.885,-1410.230 3425.623,-1314.521 3384.167,-1222.698 3243.552,-965.767 3078.210,-735.064 2853.489,-425.492 2643.564,-209.050 2568.084,-133.571 2483.740,-68.146 2394.187,-6.653 2295.773,35.891 2191.548,59.188 2086.066,75.895 1979.744,85.945 1873.000,89.300 1766.256,85.945 1659.934,75.895 1554.452,59.188 1450.227,35.891 1347.671,6.096 1247.188,-30.080 1154.883,-84.623 1073.742,-156.856 1006.677,-245.594 907.487,-443.595 826.669,-628.130 789.630,-714.458 760.336,-802.302 687.792,-1052.983 620.398,-1371.753 565.712,-1692.948 553.529,-1862.402"/>
<polygon class="node-22" points="-4256.116,1774.170 -4213.591,1667.900 -4093.077,1475.112 -3839.220,1069.239 -3728.229,930.962 -3653.723,878.350 -3295.411,665.328 -2799.212,450.604 -2647.070,395.227 -2210.041,277.637 -1894.005,237.712 -1672.229,257.967 -1569.737,295.285 -1483.379,358.027 -1403.270,428.653 -1327.753,504.170 -1257.127,584.279 -1191.671,668.665 -1131.643,756.994 -1077.279,848.919 -1028.794,944.075 -986.380,1042.088 -950.204,1142.571 -920.409,1245.127 -897.112,1349.352 -880.405,1454.834 -870.355,1561.156 -867.000,1667.900 -867.000,1667.900 -870.355,1774.644 -880.405,1880.966 -897.112,1986.448 -920.409,2090.673 -950.204,2193.229 -986.380,2293.712 -1028.794,2391.725 -1077.279,2486.881 -1131.643,2578.806 -1191.671,2667.135 -1257.127,2751.521 -1328.365,2831.056 -1408.435,2901.647 -1491.924,2967.444 -1580.067,3026.296 -1672.229,3077.833 -1767.742,3121.744 -1960.849,3198.862 -2161.014,3249.111 -2364.362,3271.947 -2465.481,3281.506 -2567.000,3284.696 -2668.519,3281.506 -2769.638,3271.947 -2972.986,3249.111 -3173.151,3198.862 -3366.258,3121.744 -3461.771,3077.833 -3553.933,3026.296 -3642.076,2967.444 -3725.565,2901.647 -3803.801,2829.334 -3876.873,2751.521 -3942.329,2667.135 -4002.357,2578.806 -4056.721,2486.881 -4105.206,2391.725 -4147.620,2293.712 -4183.796,2193.229 -4213.591,2090.673 -4236.888,1986.448 -4253.595,1880.966"/>
<polygon class="node-23" points="3653.890,-1210.536 3660.592,-1317.070 3680.594,-1421.923 3713.580,-1523.442 3767.373,-1613.124 3828.404,-1698.717 3891.146,-1785.075 3966.888,-1859.659 4046.465,-1930.929 4134.794,-1990.957 4226.719,-2045.321 4321.875,-2093.806 4419.888,-2136.220 4520.371,-2172.396 4622.927,-2202.191 4727.152,-2225.488 4832.634,-2242.195 4938.956,-2252.245 5045.700,-2255.600 5152.444,-2252.245 5258.766,-2242.195 5364.248,-2225.488 5468.473,-2202.191 5571.029,-2172.396 5671.512,-2136.220 5769.525,-2093.806 5864.681,-2045.321 5956.606,-1990.957 6044.935,-1930.929 6129.321,-1865.473 6209.430,-1794.847 6284.947,-1719.330 6355.573,-1639.221 6421.029,-1554.835 6481.057,-1466.506 6535.421,-1374.581 6583.906,-1279.425 6626.320,-1181.412 6662.496,-1080.929 6692.291,-978.373 6715.588,-874.148 6732.295,-768.666 6742.345,-662.344 6745.700,-555.600 6745.700,-555.600 6742.345,-448.856 6732.295,-342.534 6715.588,-237.052 6692.291,-132.827 6662.496,-30.271 6626.320,70.212 6583.906,168.225 6535.421,263.381 6481.057,355.306 6421.029,443.635 6355.573,528.021 6284.947,608.130 6209.430,683.647 6129.321,754.273 6044.935,819.729 5956.606,879.757 5864.681,934.121 5769.525,982.606 5671.512,1025.020 5564.561,1041.291 5455.191,1039.261 5246.170,1031.285 5144.948,1021.901 4757.469,955.360 4663.164,934.280 4381.406,856.096 4294.076,811.599 4170.064,649.610 4112.982,571.862 4063.130,490.731 3933.036,252.798 3868.589,91.522 3705.087,-471.256 3673.085,-641.958 3655.437,-912.559 3654.056,-1007.773"/>
<polygon class="node-24" points="4256.790,1123.664 4298.100,921.546 4354.579,838.439 4562.640,758.816 4752.358,695.230 4928.843,644.445 5732.944,437.987 5912.065,397.468 6336.998,315.679 6457.498,307.220 6559.506,343.243 6647.835,403.271 6732.221,468.727 6812.330,539.353 6887.847,614.870 6958.473,694.979 7023.929,779.365 7083.957,867.694 7138.321,959.619 7186.806,1054.775 7229.220,1152.788 7265.396,1253.271 7295.191,1355.827 7318.488,1460.052 7335.195,1565.534 7345.245,1671.856 7348.600,1778.600 7348.600,1778.600 7345.245,1885.344 7335.195,1991.666 7318.488,2097.148 7295.191,2201.373 7265.396,2303.929 7229.220,2404.412 7186.806,2502.425 7138.321,2597.581 7083.957,2689.506 7023.929,2777.835 6958.473,2862.221 6887.847,2942.330 6812.330,3017.847 6732.221,3088.473 6647.835,3153.929 6559.506,3213.957 6467.581,3268.321 6372.425,3316.806 6274.412,3359.220 6173.929,3395.396 6071.373,3425.191 5967.148,3448.488 5861.666,3465.195 5755.344,3475.245 5648.600,3478.600 5541.856,3475.245 5435.534,3465.195 5330.052,3448.488 5227.703,3417.884 5132.576,3366.758 5047.637,3296.459 4967.567,3225.868 4824.388,3077.350 4715.882,2906.062 4666.030,2824.931 4535.936,2586.998 4433.179,2350.534 4315.929,1946.956 4275.985,1692.242 4258.337,1421.641 4256.956,1326.427"/>
<polygon class="node-25" points="-3916.736,-1204.341 -3916.410,-1306.367 -3880.582,-1396.858 -3836.375,-1483.618 -3786.808,-1567.432 -3732.076,-1647.967 -3672.396,-1724.907 -3608.001,-1797.948 -3539.148,-1866.801 -3464.158,-1928.839 -3373.030,-1968.665 -3275.654,-1993.644 -3180.673,-2014.875 -2890.375,-2005.752 -2631.601,-1951.983 -2405.095,-1897.278 -2074.630,-1755.949 -2011.439,-1728.604 -1950.091,-1697.346 -1890.826,-1662.297 -1654.437,-1510.371 -1469.723,-1376.836 -1404.852,-1326.923 -1209.248,-1149.175 -1100.460,-999.699 -992.582,-830.361 -955.555,-736.900 -938.024,-640.007 -940.322,-542.633 -955.555,-446.459 -976.796,-351.431 -1003.962,-257.924 -1036.946,-166.307 -1075.618,-76.942 -1119.825,9.818 -1169.392,93.632 -1224.124,174.167 -1283.804,251.107 -1348.199,324.148 -1417.052,393.001 -1513.887,428.633 -1620.894,442.942 -1823.746,453.366 -2006.174,455.050 -2090.600,455.702 -2701.889,436.241 -2775.109,419.875 -2847.158,398.943 -3101.091,244.777 -3348.704,80.652 -3468.936,-17.016 -3576.968,-132.792 -3612.732,-202.983 -3644.018,-275.281 -3737.368,-496.682 -3869.523,-912.678 -3893.727,-1006.945 -3905.925,-1103.503"/>
<polygon class="node-26" points="4145.597,-1967.075 4166.068,-2039.649 4196.008,-2108.835 4230.232,-2176.004 4268.606,-2240.892 4310.980,-2303.242 4357.184,-2362.809 4407.038,-2419.357 4460.343,-2472.662 4516.891,-2522.516 4576.458,-2568.720 4638.808,-2611.094 4703.696,-2649.468 4770.865,-2683.692 4840.051,-2713.632 4910.980,-2739.168 4983.372,-2760.200 5056.942,-2776.645 5131.400,-2788.438 5206.451,-2795.532 5281.800,-2797.900 5357.149,-2795.532 5432.200,-2788.438 5506.658,-2776.645 5580.228,-2760.200 5652.620,-2739.168 5723.549,-2713.632 5792.735,-2683.692 5859.904,-2649.468 5924.792,-2611.094 5987.142,-2568.720 6046.709,-2522.516 6103.257,-2472.662 6156.562,-2419.357 6206.416,-2362.809 6252.620,-2303.242 6294.994,-2240.892 6333.368,-2176.004 6367.592,-2108.835 6397.532,-2039.649 6423.068,-1968.720 6444.100,-1896.328 6460.545,-1822.758 6472.338,-1748.300 6479.432,-1673.249 6481.800,-1597.900 6481.800,-1597.900 6479.432,-1522.551 6469.988,-1447.797 6348.360,-1394.443 6103.670,-1386.880 5862.753,-1409.137 5724.911,-1422.460 5617.328,-1440.012 5543.314,-1454.131 5329.883,-1495.718 5194.786,-1525.916 4983.961,-1579.162 4675.767,-1674.460 4474.894,-1751.826 4246.183,-1863.801"/>
<polygon class="node-27" points="-2038.239,-1812.398 -2024.133,-1901.459 -1974.706,-2171.162 -1919.653,-2350.179 -1799.408,-2612.989 -1751.524,-2700.519 -1644.785,-2878.263 -1582.042,-2964.620 -1508.971,-3042.433 -1426.723,-3110.474 -1336.596,-3167.671 -1240.012,-3213.120 -1139.529,-3249.296 -1036.973,-3279.091 -932.748,-3302.388 -827.266,-3319.095 -720.944,-3329.145 -614.200,-3332.500 -507.456,-3329.145 -401.134,-3319.095 -295.652,-3302.388 -191.427,-3279.091 -88.871,-3249.296 11.612,-3213.120 109.625,-3170.706 204.781,-3122.221 296.706,-3067.857 385.035,-3007.829 469.421,-2942.373 549.530,-2871.747 625.047,-2796.230 689.859,-2711.312 728.007,-2607.670 750.906,-2498.823 777.610,-2287.436 795.733,-1901.459 795.733,-1363.541 752.999,-880.876 720.362,-785.561 679.821,-692.339 631.563,-601.915 575.841,-514.977 450.227,-345.829 372.733,-274.104 292.663,-203.513 204.377,-143.514 109.625,-94.294 11.612,-51.880 -88.871,-15.704 -191.427,14.091 -295.652,37.388 -401.134,54.095 -507.456,64.145 -614.200,67.500 -720.944,64.145 -827.266,54.095 -932.748,37.388 -1036.973,14.091 -1137.197,-22.879 -1215.163,-114.641 -1343.918,-305.149 -1398.255,-397.027 -1690.878,-949.220 -1826.977,-1238.445 -1954.813,-1548.156 -1989.529,-1632.500 -2017.462,-1720.786"/>
<polygon class="node-28" points="-2229.131,559.196 -2229.131,446.173 -2078.005,303.656 -1632.076,-77.347 -1392.302,-260.386 -1297.505,-294.516 -1194.171,-296.997 -1092.217,-291.093 -6.063,-216.822 237.373,-199.637 343.199,-153.387 430.285,-81.344 510.244,-1.385 585.024,83.437 654.331,172.787 717.890,266.312 775.452,363.643 826.789,464.397 871.698,568.176 910.002,674.569 941.550,783.158 966.217,893.514 983.906,1005.200 994.548,1117.777 998.100,1230.800 998.100,1230.800 994.548,1343.823 983.906,1456.400 966.217,1568.086 941.550,1678.442 910.002,1787.031 871.698,1893.424 826.789,1997.203 775.452,2097.957 717.890,2195.288 654.331,2288.813 585.024,2378.163 510.244,2462.985 430.285,2542.944 345.463,2617.724 256.113,2687.031 162.588,2750.590 65.257,2808.152 -35.497,2859.489 -139.276,2904.398 -245.669,2942.702 -354.258,2974.250 -464.614,2998.917 -576.300,3016.606 -688.877,3027.248 -801.900,3030.800 -914.923,3027.248 -1027.500,3016.606 -1139.186,2998.917 -1249.542,2974.250 -1358.131,2942.702 -1464.524,2904.398 -1554.728,2830.640 -1626.615,2730.951 -1744.597,2528.311 -1789.484,2424.584 -1897.785,2137.395 -1985.089,1881.264 -2072.820,1557.117 -2152.100,1230.800 -2198.987,964.291 -2212.380,868.650 -2217.781,770.752"/>
<polygon class="node-29" points="4314.181,853.768 4323.074,744.740 4372.344,634.304 4477.239,436.200 4537.238,347.914 4705.374,119.073 4761.906,53.252 4920.716,-124.431 5338.107,-513.019 5512.102,-645.809 5708.288,-781.096 5940.500,-939.129 6127.212,-1041.774 6338.279,-1113.046 6453.177,-1141.658 6565.077,-1141.301 6664.325,-1102.006 6759.481,-1053.521 6851.406,-999.157 6939.735,-939.129 7024.121,-873.673 7104.230,-803.047 7179.747,-727.530 7250.373,-647.421 7315.829,-563.035 7375.857,-474.706 7430.221,-382.781 7478.706,-287.625 7521.120,-189.612 7557.296,-89.129 7587.091,13.427 7610.388,117.652 7627.095,223.134 7637.145,329.456 7640.500,436.200 7640.500,436.200 7637.145,542.944 7627.095,649.266 7610.388,754.748 7587.091,858.973 7557.296,961.529 7521.120,1062.012 7478.706,1160.025 7430.221,1255.181 7375.857,1347.106 7315.829,1435.435 7218.827,1493.724 7092.722,1518.209 6960.284,1522.160 6836.742,1519.570 6435.992,1489.174 6275.357,1466.785 5761.449,1374.816 5702.866,1361.722 5120.971,1205.789 4863.822,1119.480 4763.389,1083.322 4532.157,993.802 4419.288,930.472"/>
<polygon class="node-30" points="5513.152,3332.052 5549.244,3209.189 5597.070,3094.276 5727.004,2890.601 5838.568,2751.350 5917.229,2660.659 5977.204,2597.276 6191.174,2386.886 6201.770,2377.544 6470.711,2164.209 6689.632,2007.904 6777.409,1955.777 6885.972,1896.998 7009.672,1843.102 7136.609,1807.524 7240.667,1809.922 7315.441,1845.806 7358.294,1907.808 7396.668,1972.696 7430.892,2039.865 7460.832,2109.051 7486.368,2179.980 7507.400,2252.372 7523.845,2325.942 7535.638,2400.400 7542.732,2475.451 7545.100,2550.800 7545.100,2550.800 7542.732,2626.149 7535.638,2701.200 7523.845,2775.658 7507.400,2849.228 7486.368,2921.620 7460.832,2992.549 7430.892,3061.735 7396.668,3128.904 7358.294,3193.792 7315.920,3256.142 7269.716,3315.709 7219.862,3372.257 7166.557,3425.562 7110.009,3475.416 7050.442,3521.620 6988.092,3563.994 6923.204,3602.368 6856.035,3636.592 6786.849,3666.532 6715.920,3692.068 6643.528,3713.100 6569.958,3729.545 6495.500,3741.338 6420.449,3748.432 6345.100,3750.800 6269.751,3748.432 6194.700,3741.338 6120.242,3729.545 6046.672,3713.100 5974.280,3692.068 5903.351,3666.532 5834.165,3636.592 5766.996,3602.368 5702.108,3563.994 5639.758,3521.620 5580.191,3475.416 5527.289,3421.680"/>
<polygon class="node-31" points="-6635.700,-697.000 -6632.701,-792.442 -6623.714,-887.507 -6608.777,-981.820 -6587.946,-1075.009 -6561.306,-1166.706 -6528.960,-1256.549 -6491.037,-1344.185 -6447.686,-1429.266 -6399.078,-1511.457 -6345.406,-1590.434 -6286.880,-1665.884 -6223.732,-1737.512 -6156.212,-1805.032 -6084.584,-1868.180 -6009.134,-1926.706 -5930.157,-1980.378 -5847.966,-2028.986 -5762.885,-2072.337 -5675.249,-2110.260 -5585.406,-2142.606 -5493.709,-2169.246 -5400.520,-2190.077 -5306.207,-2205.014 -5211.142,-2214.001 -5115.700,-2217.000 -5020.258,-2214.001 -4925.193,-2205.014 -4830.880,-2190.077 -4737.691,-2169.246 -4645.994,-2142.606 -4556.151,-2110.260 -4468.515,-2072.337 -4383.434,-2028.986 -4301.243,-1980.378 -4222.266,-1926.706 -4146.816,-1868.180 -4075.188,-1805.032 -4007.668,-1737.512 -3944.520,-1665.884 -3885.994,-1590.434 -3832.322,-1511.457 -3794.217,-1423.491 -3773.485,-1328.598 -3758.555,-1234.332 -3746.840,-1048.464 -3731.713,-522.162 -3745.422,-435.605 -3848.906,-285.394 -3899.248,-215.372 -3954.464,-150.564 -4120.847,25.803 -4240.183,125.165 -4488.150,291.860 -4551.480,329.313 -4617.036,362.715 -4890.648,482.762 -5115.700,560.162 -5452.508,614.781 -5540.703,611.023 -5724.623,597.028 -5818.890,582.098 -5910.542,555.471 -5998.134,517.566 -6080.285,468.982 -6156.212,411.032 -6223.732,343.512 -6286.880,271.884 -6345.406,196.434 -6399.078,117.457 -6447.686,35.266 -6491.037,-49.815 -6528.960,-137.451 -6561.306,-227.294 -6587.946,-318.991 -6608.777,-412.180 -6623.714,-506.493 -6632.701,-601.558"/>
<polygon class="node-32" points="6344.489,-266.543 6368.766,-617.279 6416.464,-788.087 6458.782,-860.568 6508.104,-932.552 6571.058,-978.312 6639.786,-1013.019 6713.800,-1027.138 6788.851,-1034.232 6864.200,-1036.600 6939.549,-1034.232 7014.600,-1027.138 7089.058,-1015.345 7162.628,-998.900 7235.020,-977.868 7305.949,-952.332 7375.135,-922.392 7442.304,-888.168 7507.192,-849.794 7569.542,-807.420 7629.109,-761.216 7685.657,-711.362 7738.962,-658.057 7788.816,-601.509 7835.020,-541.942 7877.394,-479.592 7915.768,-414.704 7949.992,-347.535 7979.932,-278.349 8005.468,-207.420 8026.500,-135.028 8042.945,-61.458 8054.738,13.000 8061.832,88.051 8064.200,163.400 8064.200,163.400 8061.832,238.749 8054.738,313.800 8042.945,388.258 8026.500,461.828 8005.468,534.220 7979.932,605.149 7949.992,674.335 7915.768,741.504 7877.394,806.392 7835.020,868.742 7788.816,928.309 7738.962,984.857 7685.657,1038.162 7629.109,1088.016 7569.542,1134.220 7507.192,1176.594 7442.304,1214.968 7375.135,1249.192 7305.078,1276.930 7228.452,1284.453 7148.022,1268.813 7067.657,1229.960 6993.655,1188.146 6925.158,1132.305 6810.920,1010.254 6764.739,950.717 6688.789,846.583 6572.288,623.380 6538.518,557.082 6453.472,326.019 6430.275,246.176 6378.272,5.512 6357.603,-115.104"/>
<polygon class="node-33" points="-2896.885,-217.230 -2887.501,-318.452 -2857.880,-613.243 -2721.696,-1081.994 -2644.562,-1264.639 -2542.434,-1437.258 -2488.594,-1524.473 -2427.523,-1607.741 -2291.536,-1768.668 -2209.691,-1835.386 -2118.898,-1889.080 -2021.004,-1928.660 -1916.151,-1948.662 -1804.272,-1938.912 -1698.002,-1928.867 -1496.712,-1895.674 -1401.879,-1878.074 -1310.000,-1853.057 -1221.714,-1820.962 -975.944,-1718.762 -678.964,-1565.550 -390.473,-1396.897 -250.291,-1294.368 98.343,-975.302 220.962,-810.784 278.158,-720.657 335.976,-625.635 373.267,-523.602 389.161,-417.700 389.161,-417.700 386.645,-310.956 376.595,-204.634 359.888,-99.152 333.342,4.239 278.158,98.324 207.859,183.263 37.940,323.336 -126.197,442.383 -540.076,642.009 -767.051,736.125 -1150.176,847.434 -1310.000,892.173 -1567.711,933.268 -1659.667,944.164 -1753.550,947.406 -1954.933,952.852 -2176.323,947.406 -2350.594,840.162 -2510.313,709.469 -2588.327,639.824 -2660.968,563.836 -2734.039,486.023 -2787.974,394.823 -2820.960,293.304 -2852.554,193.040 -2876.001,91.125"/>
<polygon class="node-34" points="-5444.600,2557.200 -5442.232,2481.851 -5435.138,2406.800 -5423.345,2332.342 -5406.900,2258.772 -5385.868,2186.380 -5360.332,2115.451 -5330.392,2046.265 -5296.168,1979.096 -5257.794,1914.208 -5215.420,1851.858 -5169.216,1792.291 -5119.362,1735.743 -5066.057,1682.438 -5009.509,1632.584 -4949.942,1586.380 -4887.592,1544.006 -4822.704,1505.632 -4755.535,1471.408 -4686.349,1441.468 -4615.420,1415.932 -4543.028,1394.900 -4469.458,1378.455 -4395.000,1366.662 -4319.949,1359.568 -4244.600,1357.200 -4169.251,1359.568 -4094.200,1366.662 -4019.742,1378.455 -3946.172,1394.900 -3873.780,1415.932 -3803.722,1443.670 -3737.694,1479.969 -3676.735,1524.258 -3617.093,1568.407 -3561.417,1616.880 -3510.063,1669.297 -3463.348,1725.252 -3374.647,1837.512 -3302.556,1959.361 -3266.877,2019.692 -3235.056,2082.145 -3207.219,2146.472 -3151.014,2276.415 -3112.331,2414.161 -3094.521,2484.843 -3082.300,2557.200 -3068.720,2705.748 -3071.087,2781.060 -3082.874,2855.481 -3103.332,2928.020 -3128.868,2998.949 -3158.808,3068.135 -3193.032,3135.304 -3231.406,3200.192 -3273.780,3262.542 -3319.984,3322.109 -3369.838,3378.657 -3423.143,3431.962 -3479.691,3481.816 -3539.258,3528.020 -3601.608,3570.394 -3666.496,3608.768 -3733.665,3642.992 -3802.851,3672.932 -3873.780,3698.468 -3946.172,3719.500 -4019.742,3735.945 -4094.200,3747.738 -4169.251,3754.832 -4244.600,3757.200 -4319.949,3754.832 -4395.000,3747.738 -4469.458,3735.945 -4543.028,3719.500 -4615.420,3698.468 -4686.349,3672.932 -4755.535,3642.992 -4822.704,3608.768 -4887.592,3570.394 -4949.942,3528.020 -5009.509,3481.816 -5066.057,3431.962 -5119.362,3378.657 -5169.216,3322.109 -5215.420,3262.542 -5257.794,3200.192 -5296.168,3135.304 -5330.392,3068.135 -5360.332,2998.949 -5385.868,2928.020 -5406.900,2855.628 -5423.345,2782.058 -5435.138,2707.600 -5442.232,2632.549"/>
<polygon class="node-35" points="-1615.132,-2680.589 -1608.041,-2755.603 -1591.605,-2829.137 -1566.632,-2900.249 -1536.692,-2969.435 -1502.468,-3036.604 -1464.094,-3101.492 -1421.720,-3163.842 -1375.516,-3223.409 -1325.662,-3279.957 -1272.357,-3333.262 -1215.809,-3383.116 -1156.242,-3429.320 -1093.892,-3471.694 -1029.004,-3510.068 -961.835,-3544.292 -892.649,-3574.232 -821.720,-3599.768 -749.328,-3620.800 -675.758,-3637.245 -601.300,-3649.038 -526.249,-3656.132 -450.900,-3658.500 -375.551,-3656.132 -300.500,-3649.038 -226.042,-3637.245 -152.472,-3620.800 -80.080,-3599.768 -9.151,-3574.232 60.035,-3544.292 127.204,-3510.068 192.092,-3471.694 254.442,-3429.320 314.009,-3383.116 370.557,-3333.262 423.862,-3279.957 473.716,-3223.409 519.920,-3163.842 562.294,-3101.492 600.668,-3036.604 634.892,-2969.435 664.832,-2900.249 690.368,-2829.320 711.400,-2756.928 727.845,-2683.358 739.638,-2608.900 746.732,-2533.849 749.100,-2458.500 749.100,-2458.500 746.732,-2383.151 734.354,-2308.768 713.332,-2236.411 683.408,-2167.259 634.510,-2105.829 586.481,-2047.772 531.554,-1996.192 470.596,-1951.903 352.047,-1875.125 223.116,-1825.557 -125.218,-1766.390 -223.622,-1759.009 -318.732,-1765.651 -535.437,-1789.319 -577.289,-1795.947 -618.641,-1805.191 -828.841,-1862.960 -1008.495,-1934.884 -1144.479,-2018.342 -1194.471,-2049.718 -1352.678,-2165.494 -1446.147,-2268.646 -1494.176,-2326.704 -1534.550,-2390.323 -1566.632,-2458.500 -1589.916,-2530.161 -1604.035,-2604.175"/>
<polygon class="node-36" points="669.670,-2134.251 713.631,-2411.813 746.540,-2600.049 784.463,-2687.685 827.814,-2772.766 876.422,-2854.957 930.094,-2933.934 988.620,-3009.384 1051.768,-3081.012 1119.288,-3148.532 1190.916,-3211.680 1266.366,-3270.206 1345.343,-3323.878 1427.534,-3372.486 1512.615,-3415.837 1600.251,-3453.760 1690.094,-3486.106 1781.791,-3512.746 1874.980,-3533.577 1969.293,-3548.514 2064.358,-3557.501 2159.800,-3560.500 2255.242,-3557.501 2350.307,-3548.514 2444.620,-3533.577 2537.809,-3512.746 2629.506,-3486.106 2719.349,-3453.760 2806.985,-3415.837 2892.066,-3372.486 2974.257,-3323.878 3053.234,-3270.206 3128.684,-3211.680 3200.312,-3148.532 3267.832,-3081.012 3330.980,-3009.384 3389.506,-2933.934 3443.178,-2854.957 3491.786,-2772.766 3535.137,-2687.685 3573.060,-2600.049 3605.406,-2510.206 3632.046,-2418.509 3652.877,-2325.320 3667.814,-2231.007 3676.801,-2135.942 3679.800,-2040.500 3679.800,-2040.500 3676.801,-1945.058 3667.814,-1849.993 3652.877,-1755.680 3632.046,-1662.491 3605.406,-1570.794 3573.060,-1480.951 3535.137,-1393.315 3491.786,-1308.234 3443.178,-1226.043 3389.506,-1147.066 3330.980,-1071.616 3267.832,-999.988 3200.312,-932.468 3128.684,-869.320 3053.234,-810.794 2974.257,-757.122 2892.066,-708.514 2806.985,-665.163 2719.349,-627.240 2629.274,-595.607 2537.063,-571.159 2444.058,-550.370 2349.461,-539.178 2254.818,-530.232 2159.800,-532.486 2065.111,-535.461 1878.487,-565.806 1698.414,-620.500 1610.162,-652.272 1524.079,-689.524 1440.505,-732.107 1359.770,-779.854 1282.192,-832.576 1208.077,-890.065 1137.719,-952.094 1071.394,-1018.419 945.234,-1158.066 892.222,-1236.071 844.213,-1317.250 801.396,-1401.283 771.572,-1490.862 723.010,-1671.595 699.163,-1855.979 676.407,-2040.500"/>
<polygon class="node-37" points="-4771.923,1607.673 -4756.747,1498.932 -4709.021,1403.419 -4654.657,1311.494 -4594.629,1223.165 -4529.173,1138.779 -4458.547,1058.670 -4383.030,983.153 -4302.921,912.527 -4218.535,847.071 -4130.206,787.043 -4038.281,732.679 -3943.125,684.194 -3845.112,641.780 -3744.629,605.604 -3642.073,575.809 -3537.848,552.512 -3432.366,535.805 -3326.044,525.755 -3219.300,522.400 -3112.556,525.755 -3006.234,535.805 -2900.752,552.512 -2796.736,576.621 -2694.230,606.402 -2594.723,644.899 -2414.825,759.066 -2244.130,880.193 -2161.776,944.073 -2092.131,1022.087 -2029.259,1104.877 -1973.537,1191.815 -1868.800,1365.346 -1789.112,1549.405 -1749.677,1640.535 -1716.041,1733.962 -1648.134,1922.684 -1572.709,2222.400 -1553.470,2432.843 -1556.823,2539.535 -1572.709,2645.173 -1602.504,2747.729 -1638.680,2848.212 -1681.094,2946.225 -1729.579,3041.381 -1783.943,3133.306 -1843.971,3221.635 -1909.427,3306.021 -1980.053,3386.130 -2055.570,3461.647 -2135.679,3532.273 -2220.065,3597.729 -2308.394,3657.757 -2400.319,3712.121 -2495.475,3760.606 -2593.488,3803.020 -2693.971,3839.196 -2796.527,3868.991 -2900.752,3892.288 -3006.234,3908.995 -3112.556,3919.045 -3219.300,3922.400 -3326.044,3919.045 -3432.366,3908.995 -3537.848,3892.288 -3642.073,3868.991 -3744.629,3839.196 -3845.112,3803.020 -3943.125,3760.606 -4036.665,3709.182 -4108.268,3623.189 -4169.629,3530.416 -4226.825,3440.289 -4272.274,3343.704 -4431.212,2991.503 -4491.520,2821.061 -4600.432,2485.865 -4651.825,2312.527 -4730.260,1934.169 -4750.262,1829.316"/>
<polygon class="node-38" points="-3645.363,3709.561 -3623.887,3615.185 -3570.438,3514.685 -3509.323,3423.461 -3453.652,3345.944 -3334.953,3218.489 -3278.433,3168.660 -3066.115,2991.011 -3017.180,2955.592 -2955.072,2912.711 -2714.360,2759.951 -2649.116,2722.011 -2596.232,2692.814 -2345.090,2576.343 -2203.582,2525.396 -2016.231,2475.916 -1907.668,2459.459 -1807.393,2463.635 -1708.796,2480.578 -1629.124,2518.554 -1586.608,2581.165 -1556.668,2650.351 -1531.132,2721.280 -1510.100,2793.672 -1493.655,2867.242 -1481.862,2941.700 -1474.768,3016.751 -1472.400,3092.100 -1472.400,3092.100 -1474.768,3167.449 -1481.862,3242.500 -1493.655,3316.958 -1510.100,3390.528 -1531.132,3462.920 -1556.668,3533.849 -1586.608,3603.035 -1620.832,3670.204 -1659.206,3735.092 -1701.580,3797.442 -1747.784,3857.009 -1797.638,3913.557 -1850.943,3966.862 -1907.491,4016.716 -1967.058,4062.920 -2029.408,4105.294 -2094.296,4143.668 -2161.465,4177.892 -2230.651,4207.832 -2301.580,4233.368 -2373.972,4254.400 -2447.542,4270.845 -2522.000,4282.638 -2597.051,4289.732 -2672.400,4292.100 -2747.749,4289.732 -2822.800,4282.638 -2897.258,4270.845 -2970.828,4254.400 -3043.220,4233.368 -3114.149,4207.832 -3183.335,4177.892 -3250.504,4143.668 -3315.392,4105.294 -3377.742,4062.920 -3437.309,4016.716 -3493.857,3966.862 -3547.162,3913.557 -3597.016,3857.009 -3638.912,3794.312"/>
<polygon class="node-39" points="-4462.541,1400.789 -4456.038,1325.700 -4444.245,1251.242 -4427.800,1177.672 -4406.768,1105.280 -4381.232,1034.351 -4351.292,965.165 -4317.068,897.996 -4278.694,833.108 -4236.320,770.758 -4190.116,711.191 -4140.262,654.643 -4086.957,601.338 -4030.409,551.484 -3970.842,505.280 -3908.492,462.906 -3843.604,424.532 -3776.435,390.308 -3707.249,360.368 -3636.320,334.832 -3563.928,313.800 -3490.358,297.355 -3415.900,285.562 -3340.849,278.468 -3265.500,276.100 -3190.151,278.468 -3115.100,285.562 -3040.642,297.355 -2967.072,313.800 -2894.680,334.832 -2823.751,360.368 -2754.565,390.308 -2687.396,424.532 -2622.508,462.906 -2560.158,505.280 -2500.591,551.484 -2444.043,601.338 -2390.738,654.643 -2340.884,711.191 -2294.680,770.758 -2252.306,833.108 -2213.932,897.996 -2179.708,965.165 -2149.768,1034.351 -2124.232,1105.280 -2103.200,1177.672 -2087.337,1251.353 -2080.246,1326.368 -2082.613,1401.679 -2086.755,1476.100 -2105.494,1549.081 -2133.231,1619.139 -2198.794,1749.984 -2287.777,1863.208 -2395.769,1954.239 -2445.809,1996.292 -2498.401,2033.430 -2553.071,2065.472 -2707.905,2150.116 -2915.741,2219.376 -3116.799,2255.618 -3166.039,2263.417 -3215.671,2268.108 -3265.500,2269.674 -3315.329,2268.108 -3519.344,2257.352 -3734.221,2214.686 -3898.443,2150.116 -3956.698,2125.178 -4013.530,2094.924 -4068.447,2059.475 -4186.996,1982.697 -4289.468,1881.518 -4370.913,1759.922 -4407.212,1693.893 -4448.387,1550.521 -4460.174,1476.100"/>
<polygon class="node-40" points="-2716.700,-485.200 -2714.332,-560.549 -2707.238,-635.600 -2695.445,-710.058 -2679.000,-783.628 -2657.968,-856.020 -2632.432,-926.949 -2602.492,-996.135 -2568.268,-1063.304 -2529.894,-1128.192 -2487.520,-1190.542 -2441.316,-1250.109 -2391.462,-1306.657 -2338.157,-1359.962 -2281.609,-1409.816 -2222.042,-1456.020 -2159.692,-1498.394 -2094.804,-1536.768 -2027.635,-1570.992 -1958.449,-1600.932 -1887.520,-1626.468 -1815.128,-1647.500 -1741.447,-1663.363 -1667.026,-1675.150 -1592.011,-1682.241 -1516.700,-1682.832 -1441.500,-1680.469 -1366.597,-1673.388 -1292.840,-1658.713 -1219.597,-1642.341 -1148.804,-1617.469 -1078.434,-1592.134 -1009.794,-1562.431 -881.624,-1485.919 -765.340,-1393.438 -709.794,-1344.468 -614.352,-1231.687 -569.260,-1173.555 -498.169,-1045.142 -465.020,-980.083 -420.748,-841.296 -400.551,-771.778 -384.759,-701.129 -373.434,-629.628 -375.432,-485.200 -377.684,-413.539 -384.431,-342.161 -395.647,-271.348 -411.287,-201.378 -431.290,-132.529 -455.576,-65.071 -484.050,0.728 -516.599,64.610 -553.096,126.322 -593.395,185.620 -676.671,303.640 -727.860,354.829 -782.163,402.703 -839.364,447.073 -956.758,533.331 -1021.817,566.480 -1154.810,628.582 -1225.459,649.108 -1368.964,684.250 -1442.686,691.219 -1591.121,697.687 -1739.785,684.250 -1812.775,667.935 -1884.596,647.069 -1956.489,625.580 -2025.368,595.774 -2093.664,564.293 -2158.423,525.994 -2220.650,483.705 -2281.231,438.960 -2337.751,389.131 -2391.031,335.851 -2441.316,279.709 -2487.520,220.142 -2529.894,157.792 -2568.268,92.904 -2602.492,25.735 -2632.432,-43.451 -2657.968,-114.380 -2679.000,-186.772 -2695.445,-260.342 -2707.238,-334.800 -2714.332,-409.851"/>
</svg>