<?xml version="1.0" encoding="UTF-8"?>
<svg xmlns="http://www.w3.org/2000/svg" viewBox="-66.983 -34.612 149.619 78.354">
<defs>
<style>
.node-0{fill:url(#node-0);}
.node-1{fill:url(#node-1);}
.node-2{fill:url(#node-2);}
.node-3{fill:url(#node-3);}
.node-4{fill:url(#node-4);}
.node-5{fill:url(#node-5);}
.node-6{fill:url(#node-6);}
.node-7{fill:url(#node-7);}
.node-8{fill:url(#node-8);}
.node-9{fill:url(#node-9);}
.node-10{fill:url(#node-10);}
.node-11{fill:url(#node-11);}
.node-12{fill:url(#node-12);}
.node-13{fill:url(#node-13);}
.node-14{fill:url(#node-14);}
.node-15{fill:url(#node-15);}
.node-16{fill:url(#node-16);}
.node-17{fill:url(#node-17);}
.node-18{fill:url(#node-18);}
.node-19{fill:url(#node-19);}
.node-20{fill:url(#node-20);}
.node-21{fill:url(#node-21);}
.node-22{fill:url(#node-22);}
.node-23{fill:url(#node-23);}
.node-24{fill:url(#node-24);}
.node-25{fill:url(#node-25);}
.node-26{fill:url(#node-26);}
.node-27{fill:url(#node-27);}
.node-28{fill:url(#node-28);}
.node-29{fill:url(#node-29);}
.node-30{fill:url(#node-30);}
.node-31{fill:url(#node-31);}
.node-32{fill:url(#node-32);}
.node-33{fill:url(#node-33);}
.node-34{fill:url(#node-34);}
.node-35{fill:url(#node-35);}
.node-36{fill:url(#node-36);}
.node-37{fill:url(#node-37);}
.node-38{fill:url(#node-38);}
.node-39{fill:url(#node-39);}
.node-40{fill:url(#node-40);}
.node-41{fill:url(#node-41);}
.node-42{fill:url(#node-42);}
.node-43{fill:url(#node-43);}
.node-44{fill:url(#node-44);}
.node-45{fill:url(#node-45);}
.node-46{fill:url(#node-46);}
.node-47{fill:url(#node-47);}
.node-48{fill:url(#node-48);}
.node-49{fill:url(#node-49);}
.node-50{fill:url(#node-50);}
.node-51{fill:url(#node-51);}
.node-52{fill:url(#node-52);}
.node-53{fill:url(#node-53);}
.node-54{fill:url(#node-54);}
.node-55{fill:url(#node-55);}
.node-56{fill:url(#node-56);}
.node-57{fill:url(#node-57);}
.node-58{fill:url(#node-58);}
.node-59{fill:url(#node-59);}
.node-60{fill:url(#node-60);}
.node-61{fill:url(#node-61);}
.node-62{fill:url(#node-62);}
.node-63{fill:url(#node-63);}
.node-64{fill:url(#node-64);}
.node-65{fill:url(#node-65);}
.node-66{fill:url(#node-66);}
.node-67{fill:url(#node-67);}
.node-68{fill:url(#node-68);}
.node-69{fill:url(#node-69);}
.node-70{fill:url(#node-70);}
.node-71{fill:url(#node-71);}
</style>
<linearGradient id="node-0" x1="-62.408" y1="68.405" x2="-53.974" y2="61.580" gradientUnits="userSpaceOnUse" spreadMethod="reflect" gradientTransform="rotate(90)" opacity="1.0"><stop offset="0.00" stop-color="#ffffff"/><stop offset="1.00" stop-color="#bfbfbf"/></linearGradient>
<linearGradient id="node-1" x1="71.382" y1="-29.895" x2="62.761" y2="-24.986" gradientUnits="userSpaceOnUse" spreadMethod="reflect" gradientTransform="rotate(90)" opacity="1.0"><stop offset="0.00" stop-color="#ffffff"/><stop offset="1.00" stop-color="#bfbfbf"/></linearGradient>
<linearGradient id="node-2" x1="-71.436" y1="75.710" x2="-62.408" y2="68.405" gradientUnits="userSpaceOnUse" spreadMethod="reflect" gradientTransform="rotate(90)" opacity="1.0"><stop offset="0.00" stop-color="#505050"/><stop offset="1.00" stop-color="#3c3c3c"/></linearGradient>
<linearGradient id="node-3" x1="-85.833" y1="7.362" x2="-80.115" y2="5.150" gradientUnits="userSpaceOnUse" spreadMethod="reflect" gradientTransform="rotate(90)" opacity="1.0"><stop offset="0.00" stop-color="#ffffff"/><stop offset="1.00" stop-color="#bfbfbf"/></linearGradient>
<linearGradient id="node-4" x1="80.628" y1="-35.160" x2="71.382" y2="-29.895" gradientUnits="userSpaceOnUse" spreadMethod="reflect" gradientTransform="rotate(90)" opacity="1.0"><stop offset="0.00" stop-color="#505050"/><stop offset="1.00" stop-color="#3c3c3c"/></linearGradient>
<linearGradient id="node-5" x1="-84.743" y1="78.780" x2="-97.779" y2="81.787" gradientUnits="userSpaceOnUse" spreadMethod="reflect" gradientTransform="rotate(90)" opacity="1.0"><stop offset="0.00" stop-color="#ffffff"/><stop offset="1.00" stop-color="#bfbfbf"/></linearGradient>
<linearGradient id="node-6" x1="85.876" y1="35.365" x2="71.743" y2="38.543" gradientUnits="userSpaceOnUse" spreadMethod="reflect" gradientTransform="rotate(90)" opacity="1.0"><stop offset="0.00" stop-color="#ffffff"/><stop offset="1.00" stop-color="#bfbfbf"/></linearGradient>
<linearGradient id="node-7" x1="87.370" y1="-47.552" x2="93.990" y2="-59.720" gradientUnits="userSpaceOnUse" spreadMethod="reflect" gradientTransform="rotate(90)" opacity="1.0"><stop offset="0.00" stop-color="#ffffff"/><stop offset="1.00" stop-color="#bfbfbf"/></linearGradient>
<linearGradient id="node-8" x1="-71.436" y1="75.710" x2="-84.743" y2="78.780" gradientUnits="userSpaceOnUse" spreadMethod="reflect" gradientTransform="rotate(90)" opacity="1.0"><stop offset="0.00" stop-color="#505050"/><stop offset="1.00" stop-color="#3c3c3c"/></linearGradient>
<linearGradient id="node-9" x1="14.105" y1="-33.617" x2="11.819" y2="-27.420" gradientUnits="userSpaceOnUse" spreadMethod="reflect" gradientTransform="rotate(90)" opacity="1.0"><stop offset="0.00" stop-color="#ffffff"/><stop offset="1.00" stop-color="#bfbfbf"/></linearGradient>
<linearGradient id="node-10" x1="80.628" y1="-35.160" x2="87.370" y2="-47.552" gradientUnits="userSpaceOnUse" spreadMethod="reflect" gradientTransform="rotate(90)" opacity="1.0"><stop offset="0.00" stop-color="#505050"/><stop offset="1.00" stop-color="#3c3c3c"/></linearGradient>
<linearGradient id="node-11" x1="-62.278" y1="-69.392" x2="-59.315" y2="-61.699" gradientUnits="userSpaceOnUse" spreadMethod="reflect" gradientTransform="rotate(90)" opacity="1.0"><stop offset="0.00" stop-color="#ff0000"/><stop offset="1.00" stop-color="#bf0000"/></linearGradient>
<linearGradient id="node-12" x1="-71.436" y1="75.710" x2="-65.169" y2="89.508" gradientUnits="userSpaceOnUse" spreadMethod="reflect" gradientTransform="rotate(90)" opacity="1.0"><stop offset="0.00" stop-color="#505050"/><stop offset="1.00" stop-color="#3c3c3c"/></linearGradient>
<linearGradient id="node-13" x1="100.562" y1="32.063" x2="85.876" y2="35.365" gradientUnits="userSpaceOnUse" spreadMethod="reflect" gradientTransform="rotate(90)" opacity="1.0"><stop offset="0.00" stop-color="#505050"/><stop offset="1.00" stop-color="#3c3c3c"/></linearGradient>
<linearGradient id="node-14" x1="-150.307" y1="30.220" x2="-164.838" y2="28.995" gradientUnits="userSpaceOnUse" spreadMethod="reflect" gradientTransform="rotate(90)" opacity="1.0"><stop offset="0.00" stop-color="#ff0000"/><stop offset="1.00" stop-color="#bf0000"/></linearGradient>
<linearGradient id="node-15" x1="-65.169" y1="89.508" x2="-58.742" y2="103.656" gradientUnits="userSpaceOnUse" spreadMethod="reflect" gradientTransform="rotate(90)" opacity="1.0"><stop offset="0.00" stop-color="#ffffff"/><stop offset="1.00" stop-color="#bfbfbf"/></linearGradient>
<linearGradient id="node-16" x1="80.628" y1="-35.160" x2="111.191" y2="-5.603" gradientUnits="userSpaceOnUse" spreadMethod="reflect" gradientTransform="rotate(90)" opacity="1.0"><stop offset="0.00" stop-color="#505050"/><stop offset="1.00" stop-color="#3c3c3c"/></linearGradient>
<linearGradient id="node-17" x1="-164.838" y1="28.995" x2="-179.548" y2="27.755" gradientUnits="userSpaceOnUse" spreadMethod="reflect" gradientTransform="rotate(90)" opacity="1.0"><stop offset="0.00" stop-color="#ffffff"/><stop offset="1.00" stop-color="#bfbfbf"/></linearGradient>
<linearGradient id="node-18" x1="-92.048" y1="9.765" x2="-85.833" y2="7.362" gradientUnits="userSpaceOnUse" spreadMethod="reflect" gradientTransform="rotate(90)" opacity="1.0"><stop offset="0.00" stop-color="#505050"/><stop offset="1.00" stop-color="#3c3c3c"/></linearGradient>
<linearGradient id="node-19" x1="111.191" y1="-5.603" x2="100.562" y2="32.063" gradientUnits="userSpaceOnUse" spreadMethod="reflect" gradientTransform="rotate(90)" opacity="1.0"><stop offset="0.00" stop-color="#505050"/><stop offset="1.00" stop-color="#3c3c3c"/></linearGradient>
<linearGradient id="node-20" x1="-150.307" y1="30.220" x2="-144.032" y2="17.801" gradientUnits="userSpaceOnUse" spreadMethod="reflect" gradientTransform="rotate(90)" opacity="1.0"><stop offset="0.00" stop-color="#ff0000"/><stop offset="1.00" stop-color="#bf0000"/></linearGradient>
<linearGradient id="node-21" x1="16.565" y1="-40.287" x2="14.105" y2="-33.617" gradientUnits="userSpaceOnUse" spreadMethod="reflect" gradientTransform="rotate(90)" opacity="1.0"><stop offset="0.00" stop-color="#0000ff"/><stop offset="1.00" stop-color="#0000bf"/></linearGradient>
<linearGradient id="node-22" x1="100.562" y1="32.063" x2="129.881" y2="61.973" gradientUnits="userSpaceOnUse" spreadMethod="reflect" gradientTransform="rotate(90)" opacity="1.0"><stop offset="0.00" stop-color="#505050"/><stop offset="1.00" stop-color="#3c3c3c"/></linearGradient>
<linearGradient id="node-23" x1="-59.315" y1="-61.699" x2="-56.135" y2="-53.442" gradientUnits="userSpaceOnUse" spreadMethod="reflect" gradientTransform="rotate(90)" opacity="1.0"><stop offset="0.00" stop-color="#505050"/><stop offset="1.00" stop-color="#3c3c3c"/></linearGradient>
<linearGradient id="node-24" x1="125.614" y1="76.604" x2="121.410" y2="91.017" gradientUnits="userSpaceOnUse" spreadMethod="reflect" gradientTransform="rotate(90)" opacity="1.0"><stop offset="0.00" stop-color="#ffffff"/><stop offset="1.00" stop-color="#bfbfbf"/></linearGradient>
<linearGradient id="node-25" x1="-77.745" y1="50.515" x2="-71.436" y2="75.710" gradientUnits="userSpaceOnUse" spreadMethod="reflect" gradientTransform="rotate(90)" opacity="1.0"><stop offset="0.00" stop-color="#505050"/><stop offset="1.00" stop-color="#3c3c3c"/></linearGradient>
<linearGradient id="node-26" x1="56.674" y1="-48.737" x2="80.628" y2="-35.160" gradientUnits="userSpaceOnUse" spreadMethod="reflect" gradientTransform="rotate(90)" opacity="1.0"><stop offset="0.00" stop-color="#505050"/><stop offset="1.00" stop-color="#3c3c3c"/></linearGradient>
<linearGradient id="node-27" x1="129.881" y1="61.973" x2="125.614" y2="76.604" gradientUnits="userSpaceOnUse" spreadMethod="reflect" gradientTransform="rotate(90)" opacity="1.0"><stop offset="0.00" stop-color="#505050"/><stop offset="1.00" stop-color="#3c3c3c"/></linearGradient>
<linearGradient id="node-28" x1="-144.032" y1="17.801" x2="-137.401" y2="4.677" gradientUnits="userSpaceOnUse" spreadMethod="reflect" gradientTransform="rotate(90)" opacity="1.0"><stop offset="0.00" stop-color="#505050"/><stop offset="1.00" stop-color="#3c3c3c"/></linearGradient>
<linearGradient id="node-29" x1="-92.048" y1="9.765" x2="-137.401" y2="4.677" gradientUnits="userSpaceOnUse" spreadMethod="reflect" gradientTransform="rotate(90)" opacity="1.0"><stop offset="0.00" stop-color="#505050"/><stop offset="1.00" stop-color="#3c3c3c"/></linearGradient>
<linearGradient id="node-30" x1="16.565" y1="-40.287" x2="36.255" y2="-44.435" gradientUnits="userSpaceOnUse" spreadMethod="reflect" gradientTransform="rotate(90)" opacity="1.0"><stop offset="0.00" stop-color="#0000ff"/><stop offset="1.00" stop-color="#0000bf"/></linearGradient>
<linearGradient id="node-31" x1="-84.381" y1="-5.992" x2="-92.048" y2="9.765" gradientUnits="userSpaceOnUse" spreadMethod="reflect" gradientTransform="rotate(90)" opacity="1.0"><stop offset="0.00" stop-color="#505050"/><stop offset="1.00" stop-color="#3c3c3c"/></linearGradient>
<linearGradient id="node-32" x1="111.191" y1="-5.603" x2="152.864" y2="-16.832" gradientUnits="userSpaceOnUse" spreadMethod="reflect" gradientTransform="rotate(90)" opacity="1.0"><stop offset="0.00" stop-color="#505050"/><stop offset="1.00" stop-color="#3c3c3c"/></linearGradient>
<linearGradient id="node-33" x1="-65.946" y1="-38.447" x2="-56.135" y2="-53.442" gradientUnits="userSpaceOnUse" spreadMethod="reflect" gradientTransform="rotate(90)" opacity="1.0"><stop offset="0.00" stop-color="#505050"/><stop offset="1.00" stop-color="#3c3c3c"/></linearGradient>
<linearGradient id="node-34" x1="-77.745" y1="50.515" x2="-92.048" y2="9.765" gradientUnits="userSpaceOnUse" spreadMethod="reflect" gradientTransform="rotate(90)" opacity="1.0"><stop offset="0.00" stop-color="#505050"/><stop offset="1.00" stop-color="#3c3c3c"/></linearGradient>
<linearGradient id="node-35" x1="16.565" y1="-40.287" x2="-0.702" y2="-45.505" gradientUnits="userSpaceOnUse" spreadMethod="reflect" gradientTransform="rotate(90)" opacity="1.0"><stop offset="0.00" stop-color="#0000ff"/><stop offset="1.00" stop-color="#0000bf"/></linearGradient>
<linearGradient id="node-36" x1="129.881" y1="61.973" x2="173.465" y2="54.620" gradientUnits="userSpaceOnUse" spreadMethod="reflect" gradientTransform="rotate(90)" opacity="1.0"><stop offset="0.00" stop-color="#505050"/><stop offset="1.00" stop-color="#3c3c3c"/></linearGradient>
<linearGradient id="node-37" x1="36.255" y1="-44.435" x2="56.674" y2="-48.737" gradientUnits="userSpaceOnUse" spreadMethod="reflect" gradientTransform="rotate(90)" opacity="1.0"><stop offset="0.00" stop-color="#505050"/><stop offset="1.00" stop-color="#3c3c3c"/></linearGradient>
<linearGradient id="node-38" x1="-149.080" y1="-8.252" x2="-137.401" y2="4.677" gradientUnits="userSpaceOnUse" spreadMethod="reflect" gradientTransform="rotate(90)" opacity="1.0"><stop offset="0.00" stop-color="#505050"/><stop offset="1.00" stop-color="#3c3c3c"/></linearGradient>
<linearGradient id="node-39" x1="-19.226" y1="-51.102" x2="-56.135" y2="-53.442" gradientUnits="userSpaceOnUse" spreadMethod="reflect" gradientTransform="rotate(90)" opacity="1.0"><stop offset="0.00" stop-color="#505050"/><stop offset="1.00" stop-color="#3c3c3c"/></linearGradient>
<linearGradient id="node-40" x1="-76.263" y1="-22.678" x2="-84.381" y2="-5.992" gradientUnits="userSpaceOnUse" spreadMethod="reflect" gradientTransform="rotate(90)" opacity="1.0"><stop offset="0.00" stop-color="#0000ff"/><stop offset="1.00" stop-color="#0000bf"/></linearGradient>
<linearGradient id="node-41" x1="-76.263" y1="-22.678" x2="-65.946" y2="-38.447" gradientUnits="userSpaceOnUse" spreadMethod="reflect" gradientTransform="rotate(90)" opacity="1.0"><stop offset="0.00" stop-color="#0000ff"/><stop offset="1.00" stop-color="#0000bf"/></linearGradient>
<linearGradient id="node-42" x1="152.864" y1="-16.832" x2="157.736" y2="-32.891" gradientUnits="userSpaceOnUse" spreadMethod="reflect" gradientTransform="rotate(90)" opacity="1.0"><stop offset="0.00" stop-color="#505050"/><stop offset="1.00" stop-color="#3c3c3c"/></linearGradient>
<linearGradient id="node-43" x1="-51.898" y1="44.655" x2="-77.745" y2="50.515" gradientUnits="userSpaceOnUse" spreadMethod="reflect" gradientTransform="rotate(90)" opacity="1.0"><stop offset="0.00" stop-color="#505050"/><stop offset="1.00" stop-color="#3c3c3c"/></linearGradient>
<linearGradient id="node-44" x1="157.736" y1="-32.891" x2="162.688" y2="-49.218" gradientUnits="userSpaceOnUse" spreadMethod="reflect" gradientTransform="rotate(90)" opacity="1.0"><stop offset="0.00" stop-color="#ffffff"/><stop offset="1.00" stop-color="#bfbfbf"/></linearGradient>
<linearGradient id="node-45" x1="-0.702" y1="-45.505" x2="-19.226" y2="-51.102" gradientUnits="userSpaceOnUse" spreadMethod="reflect" gradientTransform="rotate(90)" opacity="1.0"><stop offset="0.00" stop-color="#505050"/><stop offset="1.00" stop-color="#3c3c3c"/></linearGradient>
<linearGradient id="node-46" x1="152.864" y1="-16.832" x2="186.280" y2="13.678" gradientUnits="userSpaceOnUse" spreadMethod="reflect" gradientTransform="rotate(90)" opacity="1.0"><stop offset="0.00" stop-color="#505050"/><stop offset="1.00" stop-color="#3c3c3c"/></linearGradient>
<linearGradient id="node-47" x1="173.465" y1="54.620" x2="186.655" y2="67.377" gradientUnits="userSpaceOnUse" spreadMethod="reflect" gradientTransform="rotate(90)" opacity="1.0"><stop offset="0.00" stop-color="#505050"/><stop offset="1.00" stop-color="#3c3c3c"/></linearGradient>
<linearGradient id="node-48" x1="64.014" y1="-57.957" x2="56.674" y2="-48.737" gradientUnits="userSpaceOnUse" spreadMethod="reflect" gradientTransform="rotate(90)" opacity="1.0"><stop offset="0.00" stop-color="#505050"/><stop offset="1.00" stop-color="#3c3c3c"/></linearGradient>
<linearGradient id="node-49" x1="186.280" y1="13.678" x2="173.465" y2="54.620" gradientUnits="userSpaceOnUse" spreadMethod="reflect" gradientTransform="rotate(90)" opacity="1.0"><stop offset="0.00" stop-color="#505050"/><stop offset="1.00" stop-color="#3c3c3c"/></linearGradient>
<linearGradient id="node-50" x1="-161.502" y1="-22.004" x2="-149.080" y2="-8.252" gradientUnits="userSpaceOnUse" spreadMethod="reflect" gradientTransform="rotate(90)" opacity="1.0"><stop offset="0.00" stop-color="#ff0000"/><stop offset="1.00" stop-color="#bf0000"/></linearGradient>
<linearGradient id="node-51" x1="-25.141" y1="38.588" x2="-51.898" y2="44.655" gradientUnits="userSpaceOnUse" spreadMethod="reflect" gradientTransform="rotate(90)" opacity="1.0"><stop offset="0.00" stop-color="#ffff00"/><stop offset="1.00" stop-color="#bfbf00"/></linearGradient>
<linearGradient id="node-52" x1="-76.263" y1="-22.678" x2="-60.425" y2="-18.417" gradientUnits="userSpaceOnUse" spreadMethod="reflect" gradientTransform="rotate(90)" opacity="1.0"><stop offset="0.00" stop-color="#0000ff"/><stop offset="1.00" stop-color="#0000bf"/></linearGradient>
<linearGradient id="node-53" x1="186.655" y1="67.377" x2="200.208" y2="80.486" gradientUnits="userSpaceOnUse" spreadMethod="reflect" gradientTransform="rotate(90)" opacity="1.0"><stop offset="0.00" stop-color="#ffffff"/><stop offset="1.00" stop-color="#bfbfbf"/></linearGradient>
<linearGradient id="node-54" x1="186.280" y1="13.678" x2="205.253" y2="9.611" gradientUnits="userSpaceOnUse" spreadMethod="reflect" gradientTransform="rotate(90)" opacity="1.0"><stop offset="0.00" stop-color="#505050"/><stop offset="1.00" stop-color="#3c3c3c"/></linearGradient>
<linearGradient id="node-55" x1="-25.141" y1="38.588" x2="-34.012" y2="13.095" gradientUnits="userSpaceOnUse" spreadMethod="reflect" gradientTransform="rotate(90)" opacity="1.0"><stop offset="0.00" stop-color="#ffff00"/><stop offset="1.00" stop-color="#bfbf00"/></linearGradient>
<linearGradient id="node-56" x1="-19.226" y1="-51.102" x2="-17.197" y2="-66.053" gradientUnits="userSpaceOnUse" spreadMethod="reflect" gradientTransform="rotate(90)" opacity="1.0"><stop offset="0.00" stop-color="#505050"/><stop offset="1.00" stop-color="#3c3c3c"/></linearGradient>
<linearGradient id="node-57" x1="-77.745" y1="50.515" x2="-109.216" y2="75.396" gradientUnits="userSpaceOnUse" spreadMethod="reflect" gradientTransform="rotate(90)" opacity="1.0"><stop offset="0.00" stop-color="#505050"/><stop offset="1.00" stop-color="#3c3c3c"/></linearGradient>
<linearGradient id="node-58" x1="-43.382" y1="-13.832" x2="-19.226" y2="-51.102" gradientUnits="userSpaceOnUse" spreadMethod="reflect" gradientTransform="rotate(90)" opacity="1.0"><stop offset="0.00" stop-color="#505050"/><stop offset="1.00" stop-color="#3c3c3c"/></linearGradient>
<linearGradient id="node-59" x1="205.253" y1="9.611" x2="225.095" y2="5.358" gradientUnits="userSpaceOnUse" spreadMethod="reflect" gradientTransform="rotate(90)" opacity="1.0"><stop offset="0.00" stop-color="#ffffff"/><stop offset="1.00" stop-color="#bfbfbf"/></linearGradient>
<linearGradient id="node-60" x1="-60.425" y1="-18.417" x2="-43.382" y2="-13.832" gradientUnits="userSpaceOnUse" spreadMethod="reflect" gradientTransform="rotate(90)" opacity="1.0"><stop offset="0.00" stop-color="#505050"/><stop offset="1.00" stop-color="#3c3c3c"/></linearGradient>
<linearGradient id="node-61" x1="72.113" y1="-68.130" x2="64.014" y2="-57.957" gradientUnits="userSpaceOnUse" spreadMethod="reflect" gradientTransform="rotate(90)" opacity="1.0"><stop offset="0.00" stop-color="#ff0000"/><stop offset="1.00" stop-color="#bf0000"/></linearGradient>
<linearGradient id="node-62" x1="-34.012" y1="13.095" x2="-43.382" y2="-13.832" gradientUnits="userSpaceOnUse" spreadMethod="reflect" gradientTransform="rotate(90)" opacity="1.0"><stop offset="0.00" stop-color="#505050"/><stop offset="1.00" stop-color="#3c3c3c"/></linearGradient>
<linearGradient id="node-63" x1="-17.197" y1="-66.053" x2="-15.035" y2="-81.978" gradientUnits="userSpaceOnUse" spreadMethod="reflect" gradientTransform="rotate(90)" opacity="1.0"><stop offset="0.00" stop-color="#ffffff"/><stop offset="1.00" stop-color="#bfbfbf"/></linearGradient>
<linearGradient id="node-64" x1="-125.468" y1="80.345" x2="-141.429" y2="85.205" gradientUnits="userSpaceOnUse" spreadMethod="reflect" gradientTransform="rotate(90)" opacity="1.0"><stop offset="0.00" stop-color="#ffffff"/><stop offset="1.00" stop-color="#bfbfbf"/></linearGradient>
<linearGradient id="node-65" x1="-109.216" y1="75.396" x2="-125.468" y2="80.345" gradientUnits="userSpaceOnUse" spreadMethod="reflect" gradientTransform="rotate(90)" opacity="1.0"><stop offset="0.00" stop-color="#505050"/><stop offset="1.00" stop-color="#3c3c3c"/></linearGradient>
<linearGradient id="node-66" x1="-43.382" y1="-13.832" x2="-49.234" y2="-15.726" gradientUnits="userSpaceOnUse" spreadMethod="reflect" gradientTransform="rotate(90)" opacity="1.0"><stop offset="0.00" stop-color="#505050"/><stop offset="1.00" stop-color="#3c3c3c"/></linearGradient>
<linearGradient id="node-67" x1="-109.216" y1="75.396" x2="-101.782" y2="91.810" gradientUnits="userSpaceOnUse" spreadMethod="reflect" gradientTransform="rotate(90)" opacity="1.0"><stop offset="0.00" stop-color="#505050"/><stop offset="1.00" stop-color="#3c3c3c"/></linearGradient>
<linearGradient id="node-68" x1="-109.216" y1="75.396" x2="-114.319" y2="65.200" gradientUnits="userSpaceOnUse" spreadMethod="reflect" gradientTransform="rotate(90)" opacity="1.0"><stop offset="0.00" stop-color="#505050"/><stop offset="1.00" stop-color="#3c3c3c"/></linearGradient>
<linearGradient id="node-69" x1="-101.782" y1="91.810" x2="-94.068" y2="108.841" gradientUnits="userSpaceOnUse" spreadMethod="reflect" gradientTransform="rotate(90)" opacity="1.0"><stop offset="0.00" stop-color="#ffffff"/><stop offset="1.00" stop-color="#bfbfbf"/></linearGradient>
<linearGradient id="node-70" x1="-49.234" y1="-15.726" x2="-55.728" y2="-17.828" gradientUnits="userSpaceOnUse" spreadMethod="reflect" gradientTransform="rotate(90)" opacity="1.0"><stop offset="0.00" stop-color="#ffffff"/><stop offset="1.00" stop-color="#bfbfbf"/></linearGradient>
<linearGradient id="node-71" x1="-114.319" y1="65.200" x2="-119.840" y2="54.171" gradientUnits="userSpaceOnUse" spreadMethod="reflect" gradientTransform="rotate(90)" opacity="1.0"><stop offset="0.00" stop-color="#ffffff"/><stop offset="1.00" stop-color="#bfbfbf"/></linearGradient>
</defs>
<polygon class="node-0" points="-22.619,22.865 -22.605,22.645 -22.602,22.622 -22.560,22.403 -22.491,22.191 -22.480,22.166 -22.385,21.964 -22.265,21.775 -22.247,21.752 -22.104,21.580 -21.941,21.426 -21.758,21.282 -21.673,21.215 -21.317,20.936 -20.102,19.986 -19.162,19.250 -19.115,19.213 -19.026,19.144 -18.897,19.055 -18.708,18.950 -18.507,18.871 -18.487,18.863 -18.279,18.810 -18.066,18.783 -17.851,18.783 -17.837,18.783 -17.626,18.810 -17.420,18.863 -17.223,18.941 -17.037,19.043 -16.865,19.168 -16.710,19.314 -16.575,19.477 -16.461,19.657 -16.370,19.849 -16.305,20.051 -16.265,20.259 -16.263,20.275 -16.249,20.490 -16.263,20.704 -16.303,20.915 -16.308,20.936 -16.374,21.142 -16.466,21.337 -16.478,21.358 -16.595,21.541 -16.733,21.708 -16.750,21.726 -16.838,21.811 -16.891,21.857 -16.976,21.930 -17.072,22.011 -17.162,22.086 -17.491,22.362 -19.221,23.809 -19.605,24.130 -19.685,24.197 -19.867,24.329 -19.891,24.342 -20.086,24.450 -20.293,24.532 -20.509,24.587 -20.531,24.593 -20.750,24.620 -20.971,24.620 -20.989,24.618 -21.205,24.591 -21.416,24.537 -21.619,24.457 -21.810,24.352 -21.986,24.224 -22.145,24.074 -22.284,23.906 -22.401,23.722 -22.494,23.525 -22.561,23.318 -22.564,23.303 -22.605,23.086"/>
<polygon class="node-1" points="19.172,-8.306 19.172,-8.314 19.186,-8.528 19.226,-8.739 19.292,-8.943 19.384,-9.138 19.499,-9.319 19.508,-9.333 19.646,-9.500 19.804,-9.648 19.979,-9.775 19.995,-9.787 20.010,-9.796 20.105,-9.853 20.371,-10.011 20.476,-10.074 21.315,-10.572 22.288,-11.150 22.812,-11.461 22.897,-11.511 23.033,-11.582 23.242,-11.665 23.264,-11.672 23.482,-11.728 23.704,-11.756 23.727,-11.757 23.950,-11.757 24.171,-11.729 24.387,-11.673 24.405,-11.667 24.610,-11.586 24.804,-11.479 24.983,-11.350 25.144,-11.198 25.285,-11.028 25.288,-11.023 25.405,-10.839 25.498,-10.642 25.565,-10.434 25.606,-10.220 25.607,-10.214 25.621,-9.993 25.607,-9.772 25.566,-9.555 25.498,-9.345 25.403,-9.145 25.395,-9.128 25.276,-8.939 25.133,-8.768 25.118,-8.752 24.954,-8.599 24.773,-8.467 24.691,-8.418 24.465,-8.294 24.298,-8.203 23.891,-7.981 22.781,-7.375 21.871,-6.879 21.686,-6.781 21.674,-6.775 21.656,-6.766 21.454,-6.686 21.244,-6.632 21.224,-6.630 21.009,-6.603 20.793,-6.603 20.579,-6.630 20.562,-6.634 20.354,-6.687 20.154,-6.766 19.966,-6.870 19.792,-6.996 19.636,-7.143 19.631,-7.148 19.495,-7.312 19.381,-7.491 19.291,-7.684 19.225,-7.886 19.186,-8.094"/>
<polygon class="node-2" points="-25.701,25.310 -25.687,25.082 -25.644,24.857 -25.637,24.829 -25.566,24.609 -25.468,24.401 -25.453,24.372 -25.328,24.176 -25.181,23.997 -25.159,23.972 -24.990,23.813 -24.937,23.769 -24.691,23.577 -23.634,22.750 -22.367,21.758 -21.950,21.432 -21.818,21.335 -21.678,21.264 -21.358,21.196 -20.981,21.295 -20.795,21.360 -20.271,21.585 -19.943,21.886 -19.679,22.376 -19.576,22.573 -19.494,22.775 -19.434,22.977 -19.397,23.178 -19.383,23.373 -19.392,23.559 -19.425,23.734 -19.464,23.931 -19.661,24.177 -20.423,24.814 -20.606,24.967 -21.258,25.512 -22.658,26.684 -22.686,26.705 -22.846,26.820 -22.874,26.836 -23.076,26.948 -23.290,27.033 -23.318,27.041 -23.540,27.098 -23.767,27.127 -23.791,27.127 -24.016,27.127 -24.240,27.099 -24.459,27.043 -24.669,26.960 -24.678,26.955 -24.872,26.848 -25.052,26.718 -25.213,26.566 -25.355,26.395 -25.473,26.208 -25.478,26.199 -25.574,25.995 -25.644,25.781 -25.686,25.559 -25.700,25.334"/>
<polygon class="node-3" points="-30.527,2.463 -30.513,2.237 -30.470,2.014 -30.400,1.799 -30.395,1.788 -30.297,1.580 -30.174,1.386 -30.028,1.209 -29.860,1.052 -29.843,1.036 -29.656,0.900 -29.453,0.788 -29.429,0.778 -29.236,0.700 -29.092,0.650 -28.298,0.376 -27.836,0.216 -27.341,0.045 -27.280,0.025 -27.151,-0.011 -27.064,-0.031 -27.039,-0.034 -26.817,-0.062 -26.593,-0.062 -26.371,-0.034 -26.347,-0.031 -26.131,0.025 -25.923,0.107 -25.904,0.116 -25.709,0.223 -25.530,0.353 -25.369,0.505 -25.358,0.517 -25.218,0.686 -25.101,0.871 -25.007,1.069 -24.939,1.278 -24.898,1.493 -24.885,1.712 -24.885,1.712 -24.898,1.931 -24.939,2.146 -25.007,2.355 -25.101,2.553 -25.218,2.738 -25.227,2.751 -25.369,2.922 -25.530,3.074 -25.709,3.204 -25.728,3.216 -25.866,3.295 -25.923,3.323 -26.064,3.385 -26.236,3.459 -27.388,3.953 -27.770,4.117 -27.907,4.173 -27.987,4.204 -28.011,4.212 -28.037,4.220 -28.263,4.278 -28.494,4.307 -28.522,4.308 -28.755,4.308 -28.986,4.278 -29.013,4.272 -29.237,4.214 -29.453,4.129 -29.656,4.017 -29.674,4.006 -29.860,3.871 -30.028,3.713 -30.174,3.536 -30.182,3.525 -30.304,3.333 -30.400,3.128 -30.470,2.912 -30.513,2.690"/>
<polygon class="node-4" points="22.334,-10.163 22.365,-10.767 22.422,-10.947 22.500,-11.110 22.598,-11.256 22.743,-11.386 22.873,-11.494 23.075,-11.617 23.646,-11.956 24.374,-12.389 25.236,-12.900 25.486,-13.049 25.931,-13.313 26.087,-13.396 26.304,-13.482 26.330,-13.491 26.555,-13.549 26.786,-13.578 26.813,-13.580 27.044,-13.580 27.273,-13.551 27.296,-13.546 27.518,-13.490 27.731,-13.405 27.932,-13.295 27.945,-13.286 28.128,-13.153 28.293,-12.998 28.437,-12.824 28.558,-12.633 28.654,-12.428 28.724,-12.213 28.766,-11.991 28.781,-11.765 28.766,-11.540 28.764,-11.525 28.721,-11.300 28.651,-11.082 28.553,-10.875 28.542,-10.856 28.418,-10.661 28.270,-10.482 28.102,-10.324 28.082,-10.306 27.894,-10.169 27.821,-10.126 27.707,-10.062 27.267,-9.822 26.131,-9.202 25.390,-8.798 25.083,-8.631 24.961,-8.564 24.768,-8.459 24.690,-8.417 24.533,-8.355 24.365,-8.318 24.084,-8.277 23.717,-8.351 23.533,-8.426 23.353,-8.526 23.180,-8.649 22.865,-8.956 22.428,-9.738 22.370,-9.950"/>
<polygon class="node-5" points="-34.476,27.365 -34.462,27.145 -34.421,26.927 -34.413,26.896 -34.343,26.683 -34.248,26.481 -34.232,26.447 -34.110,26.256 -34.087,26.225 -33.942,26.050 -33.777,25.895 -33.747,25.868 -33.563,25.734 -33.529,25.713 -33.331,25.603 -33.295,25.589 -33.085,25.506 -32.950,25.468 -32.751,25.421 -32.594,25.384 -31.558,25.140 -29.474,24.650 -29.385,24.629 -29.046,24.550 -28.845,24.503 -28.533,24.431 -28.503,24.425 -28.280,24.397 -28.055,24.397 -28.030,24.399 -27.810,24.427 -27.595,24.482 -27.389,24.564 -27.195,24.671 -27.187,24.675 -27.011,24.803 -26.853,24.952 -26.714,25.119 -26.598,25.303 -26.505,25.499 -26.500,25.511 -26.431,25.722 -26.390,25.940 -26.376,26.161 -26.376,26.185 -26.390,26.410 -26.432,26.631 -26.440,26.660 -26.510,26.877 -26.607,27.082 -26.623,27.113 -26.745,27.307 -26.768,27.335 -26.914,27.512 -27.082,27.669 -27.110,27.693 -27.296,27.828 -27.497,27.938 -27.528,27.955 -27.740,28.039 -27.772,28.049 -27.968,28.099 -28.044,28.117 -28.175,28.148 -29.060,28.348 -30.029,28.567 -32.195,29.057 -32.351,29.092 -32.573,29.120 -32.605,29.122 -32.826,29.122 -33.046,29.094 -33.070,29.089 -33.280,29.035 -33.482,28.955 -33.673,28.851 -33.682,28.844 -33.854,28.719 -34.009,28.573 -34.144,28.410 -34.258,28.230 -34.262,28.224 -34.354,28.027 -34.421,27.820 -34.462,27.607 -34.475,27.390"/>
<polygon class="node-6" points="22.075,12.811 22.089,12.589 22.131,12.371 22.200,12.159 22.295,11.958 22.414,11.770 22.556,11.599 22.718,11.446 22.898,11.315 23.093,11.208 23.107,11.203 23.316,11.120 23.458,11.080 24.110,10.928 25.787,10.539 27.868,10.055 28.063,10.010 28.228,9.973 28.456,9.944 28.482,9.943 28.713,9.943 28.942,9.972 28.971,9.978 29.195,10.035 29.410,10.120 29.437,10.133 29.640,10.245 29.827,10.381 29.849,10.399 30.016,10.557 30.163,10.734 30.177,10.755 30.300,10.948 30.397,11.154 30.467,11.371 30.471,11.388 30.514,11.609 30.528,11.834 30.514,12.058 30.471,12.279 30.402,12.493 30.306,12.697 30.185,12.887 30.042,13.061 29.878,13.215 29.696,13.347 29.681,13.356 29.481,13.466 29.269,13.550 29.066,13.603 28.998,13.618 28.026,13.830 26.318,14.201 26.130,14.242 25.103,14.465 24.905,14.508 24.552,14.584 24.316,14.634 24.297,14.638 24.073,14.666 23.847,14.666 23.623,14.638 23.599,14.635 23.379,14.578 23.168,14.495 23.144,14.484 22.945,14.375 22.762,14.241 22.742,14.225 22.577,14.070 22.433,13.896 22.420,13.876 22.300,13.686 22.204,13.483 22.135,13.269 22.131,13.252 22.089,13.033"/>
<polygon class="node-7" points="27.242,-15.791 27.242,-15.805 27.257,-16.031 27.299,-16.252 27.369,-16.467 27.378,-16.489 27.464,-16.675 27.475,-16.696 27.651,-17.016 28.409,-18.398 29.469,-20.329 29.668,-20.688 29.725,-20.785 29.813,-20.927 29.833,-20.954 29.978,-21.129 30.144,-21.285 30.171,-21.308 30.355,-21.442 30.386,-21.460 30.586,-21.570 30.798,-21.654 30.831,-21.664 31.051,-21.720 31.276,-21.749 31.307,-21.751 31.532,-21.751 31.755,-21.723 31.780,-21.719 31.995,-21.664 32.201,-21.582 32.396,-21.475 32.409,-21.468 32.585,-21.339 32.744,-21.190 32.883,-21.022 33.000,-20.838 33.093,-20.640 33.161,-20.433 33.202,-20.218 33.203,-20.204 33.217,-19.982 33.203,-19.760 33.161,-19.542 33.155,-19.518 33.085,-19.304 32.999,-19.119 32.726,-18.611 32.598,-18.373 31.193,-15.768 30.925,-15.272 30.790,-15.022 30.655,-14.809 30.509,-14.632 30.488,-14.611 30.320,-14.453 30.134,-14.318 30.107,-14.301 29.905,-14.190 29.690,-14.105 29.661,-14.095 29.438,-14.038 29.210,-14.009 29.182,-14.007 28.953,-14.007 28.727,-14.035 28.703,-14.040 28.485,-14.096 28.275,-14.179 28.077,-14.288 28.064,-14.295 27.884,-14.426 27.722,-14.578 27.580,-14.750 27.461,-14.937 27.366,-15.139 27.298,-15.350 27.256,-15.569"/>
<polygon class="node-8" points="-29.239,25.912 -29.237,25.687 -29.218,25.471 -29.073,24.914 -28.910,24.647 -28.655,24.482 -28.545,24.433 -28.158,24.341 -26.220,23.885 -25.962,23.824 -25.507,23.717 -24.701,23.528 -24.558,23.511 -23.864,23.724 -23.486,23.874 -22.930,24.435 -22.627,24.912 -22.449,25.250 -22.359,25.425 -22.341,26.017 -22.378,26.208 -22.450,26.390 -22.658,26.684 -22.874,26.836 -23.049,26.932 -23.318,27.041 -23.560,27.104 -24.729,27.368 -25.978,27.651 -26.334,27.731 -27.122,27.909 -27.773,28.056 -27.889,28.080 -28.017,28.103 -28.386,27.982 -28.508,27.886 -28.739,27.616 -28.939,27.258 -29.023,27.054 -29.154,26.610 -29.198,26.378 -29.226,26.144"/>
<polygon class="node-9" points="2.132,-9.140 2.146,-9.367 2.189,-9.590 2.211,-9.669 2.284,-9.889 2.419,-10.291 2.554,-10.694 2.741,-11.252 2.870,-11.639 2.891,-11.701 2.947,-11.864 2.959,-11.896 3.059,-12.109 3.066,-12.119 3.192,-12.317 3.342,-12.498 3.513,-12.659 3.703,-12.797 3.909,-12.911 4.128,-12.997 4.135,-12.999 4.362,-13.058 4.594,-13.087 4.828,-13.087 5.060,-13.058 5.286,-12.999 5.504,-12.913 5.709,-12.801 5.898,-12.663 6.069,-12.503 6.218,-12.323 6.343,-12.125 6.347,-12.119 6.447,-11.906 6.519,-11.682 6.563,-11.451 6.578,-11.217 6.563,-10.982 6.519,-10.751 6.517,-10.740 6.456,-10.547 6.431,-10.483 6.286,-10.123 5.712,-8.702 5.638,-8.519 5.620,-8.475 5.598,-8.421 5.524,-8.269 5.402,-8.078 5.257,-7.903 5.092,-7.747 4.908,-7.614 4.902,-7.610 4.703,-7.501 4.493,-7.417 4.274,-7.361 4.049,-7.333 3.823,-7.333 3.598,-7.361 3.379,-7.417 3.168,-7.501 2.970,-7.610 2.787,-7.743 2.622,-7.898 2.478,-8.072 2.357,-8.263 2.260,-8.468 2.190,-8.683 2.148,-8.905 2.146,-8.913"/>
<polygon class="node-10" points="25.419,-12.425 25.438,-12.927 25.460,-12.990 25.495,-13.087 25.539,-13.168 25.628,-13.331 26.123,-14.232 27.341,-16.452 27.468,-16.682 27.527,-16.767 27.721,-16.892 27.853,-16.930 28.005,-16.952 28.362,-16.942 28.769,-16.864 30.024,-16.278 30.202,-16.146 30.362,-16.009 30.620,-15.730 30.714,-15.593 30.839,-15.217 30.826,-15.110 30.786,-15.016 30.706,-14.865 29.052,-11.799 28.652,-11.057 28.617,-10.998 28.570,-10.916 28.399,-10.644 28.251,-10.465 28.102,-10.324 28.082,-10.306 27.869,-10.156 27.518,-10.019 26.921,-10.059 26.533,-10.193 26.381,-10.328 26.095,-10.603 25.634,-11.237 25.442,-11.808"/>
<polygon class="node-11" points="-22.609,-23.196 -22.595,-23.421 -22.553,-23.642 -22.550,-23.658 -22.481,-23.869 -22.387,-24.070 -22.268,-24.257 -22.126,-24.428 -21.965,-24.580 -21.785,-24.710 -21.590,-24.817 -21.384,-24.899 -21.169,-24.954 -20.949,-24.982 -20.931,-24.984 -20.706,-24.984 -20.483,-24.955 -20.265,-24.899 -20.241,-24.893 -20.030,-24.809 -19.831,-24.700 -19.806,-24.686 -19.622,-24.552 -19.456,-24.396 -19.434,-24.375 -19.289,-24.199 -19.167,-24.006 -19.152,-23.982 -19.058,-23.785 -19.044,-23.751 -18.508,-22.450 -18.186,-21.670 -18.008,-21.237 -18.002,-21.223 -17.935,-21.013 -17.928,-20.990 -17.884,-20.760 -17.869,-20.526 -17.871,-20.506 -17.885,-20.275 -17.928,-20.048 -18.000,-19.828 -18.099,-19.618 -18.223,-19.423 -18.370,-19.244 -18.539,-19.086 -18.726,-18.950 -18.929,-18.838 -19.144,-18.753 -19.368,-18.696 -19.598,-18.667 -19.616,-18.666 -19.850,-18.666 -20.082,-18.696 -20.309,-18.754 -20.332,-18.762 -20.551,-18.848 -20.758,-18.962 -20.780,-18.977 -20.971,-19.116 -21.144,-19.278 -21.162,-19.300 -21.312,-19.482 -21.439,-19.681 -21.546,-19.908 -21.550,-19.918 -21.623,-20.118 -21.647,-20.186 -22.023,-21.234 -22.114,-21.489 -22.431,-22.372 -22.451,-22.429 -22.533,-22.671 -22.549,-22.725 -22.591,-22.948 -22.595,-22.972"/>
<polygon class="node-12" points="-25.091,27.021 -25.084,26.554 -24.660,24.186 -24.489,23.803 -24.257,23.623 -23.864,23.724 -23.486,23.874 -22.192,24.792 -21.965,24.966 -21.854,25.065 -21.779,25.166 -21.710,25.271 -21.656,25.372 -21.598,25.491 -21.561,25.571 -21.057,26.665 -20.169,28.596 -19.998,28.968 -19.960,29.056 -19.890,29.272 -19.884,29.293 -19.841,29.519 -19.827,29.749 -19.828,29.778 -19.842,30.010 -19.886,30.238 -19.895,30.271 -19.967,30.493 -20.067,30.705 -20.083,30.737 -20.209,30.936 -20.232,30.964 -20.382,31.145 -20.553,31.305 -20.580,31.328 -20.769,31.465 -20.974,31.577 -21.002,31.591 -21.217,31.677 -21.441,31.734 -21.467,31.739 -21.693,31.768 -21.922,31.768 -22.148,31.739 -22.163,31.737 -22.381,31.681 -22.590,31.598 -22.786,31.490 -22.968,31.358 -23.132,31.205 -23.275,31.032 -23.395,30.842 -23.402,30.829 -23.461,30.711 -23.506,30.613 -23.548,30.519 -23.801,29.956 -24.883,27.542 -24.967,27.356 -25.000,27.279 -25.053,27.129"/>
<polygon class="node-13" points="27.936,10.650 27.941,10.483 27.984,10.212 28.067,10.043 28.122,10.000 28.246,9.967 28.540,9.899 30.180,9.517 32.335,9.016 32.535,8.970 33.016,8.859 33.106,8.839 33.338,8.809 33.370,8.807 33.605,8.807 33.839,8.836 33.873,8.841 34.101,8.900 34.134,8.912 34.353,8.999 34.560,9.113 34.588,9.131 34.777,9.269 34.949,9.430 34.969,9.452 35.117,9.631 35.242,9.827 35.253,9.849 35.351,10.057 35.422,10.275 35.465,10.500 35.479,10.730 35.480,10.740 35.466,10.965 35.424,11.186 35.354,11.401 35.258,11.605 35.137,11.795 35.130,11.804 34.984,11.981 34.817,12.138 34.631,12.273 34.430,12.383 34.408,12.395 34.192,12.480 34.026,12.523 33.512,12.637 32.703,12.814 29.853,13.433 29.384,13.534 29.198,13.574 29.134,13.582 29.130,13.581 29.062,13.561 28.762,13.403 28.590,13.144 28.419,12.798 28.338,12.598 28.261,12.386 28.190,12.164 28.126,11.936 28.070,11.706 28.022,11.477 27.941,10.837"/>
<polygon class="node-14" points="-57.032,9.730 -57.019,9.515 -56.978,9.303 -56.972,9.283 -56.904,9.073 -56.810,8.873 -56.691,8.686 -56.671,8.654 -56.527,8.480 -56.497,8.449 -56.329,8.292 -56.291,8.264 -56.103,8.127 -55.899,8.014 -55.852,7.990 -55.633,7.903 -55.582,7.885 -55.353,7.826 -55.299,7.815 -55.064,7.785 -55.010,7.781 -54.774,7.781 -54.721,7.784 -54.506,7.802 -54.209,7.828 -51.305,8.080 -49.953,8.197 -49.844,8.208 -49.657,8.233 -49.613,8.243 -49.390,8.300 -49.175,8.385 -49.139,8.400 -48.941,8.509 -48.912,8.529 -48.732,8.660 -48.570,8.812 -48.428,8.983 -48.416,8.998 -48.299,9.182 -48.207,9.379 -48.139,9.585 -48.099,9.799 -48.085,10.016 -48.099,10.233 -48.139,10.446 -48.145,10.466 -48.214,10.677 -48.309,10.879 -48.428,11.067 -48.447,11.096 -48.592,11.271 -48.619,11.299 -48.787,11.457 -48.974,11.592 -49.011,11.619 -49.215,11.731 -49.258,11.753 -49.476,11.839 -49.524,11.854 -49.752,11.913 -49.801,11.921 -50.034,11.950 -50.084,11.951 -50.318,11.951 -50.362,11.948 -50.843,11.908 -51.227,11.877 -51.421,11.861 -53.167,11.718 -54.045,11.646 -55.219,11.550 -55.456,11.517 -55.682,11.459 -55.728,11.445 -55.942,11.361 -55.981,11.341 -56.179,11.232 -56.362,11.100 -56.389,11.079 -56.550,10.927 -56.691,10.757 -56.705,10.739 -56.820,10.557 -56.912,10.362 -56.978,10.157 -57.019,9.945"/>
<polygon class="node-15" points="-23.430,30.588 -22.879,30.136 -21.876,29.564 -21.655,29.456 -21.220,29.259 -20.639,29.037 -20.336,28.952 -20.217,28.931 -20.122,28.923 -20.009,28.952 -19.953,29.068 -19.915,29.149 -19.529,29.988 -18.797,31.578 -18.060,33.182 -17.887,33.557 -17.844,33.651 -17.804,33.744 -17.733,33.962 -17.725,33.988 -17.682,34.217 -17.667,34.450 -17.666,34.484 -17.681,34.719 -17.687,34.755 -17.731,34.988 -17.805,35.213 -17.819,35.250 -17.920,35.465 -17.941,35.498 -18.069,35.699 -18.220,35.882 -18.246,35.910 -18.419,36.072 -18.610,36.211 -18.639,36.231 -18.844,36.344 -18.873,36.356 -19.089,36.441 -19.313,36.498 -19.542,36.527 -19.563,36.529 -19.791,36.529 -20.016,36.501 -20.237,36.444 -20.448,36.360 -20.647,36.251 -20.831,36.117 -20.997,35.961 -21.142,35.786 -21.264,35.594 -21.330,35.459 -21.424,35.253 -21.636,34.782 -21.767,34.491 -23.423,30.798 -23.426,30.756"/>
<polygon class="node-16" points="25.419,-12.425 25.512,-12.622 25.755,-12.769 26.247,-12.731 28.062,-12.499 28.920,-12.327 29.213,-12.119 29.419,-11.922 31.841,-9.602 38.073,-3.631 38.500,-3.221 38.570,-3.151 38.719,-2.970 38.845,-2.773 38.853,-2.759 38.951,-2.551 39.022,-2.332 39.065,-2.106 39.079,-1.877 39.065,-1.647 39.022,-1.421 38.951,-1.203 38.944,-1.189 38.845,-0.977 38.719,-0.780 38.570,-0.599 38.551,-0.581 38.378,-0.418 38.187,-0.279 38.159,-0.263 37.949,-0.147 37.727,-0.059 37.692,-0.049 37.460,0.011 37.221,0.041 37.184,0.045 36.943,0.045 36.906,0.041 36.668,0.011 36.436,-0.048 36.403,-0.059 36.182,-0.147 35.973,-0.262 35.947,-0.277 35.756,-0.416 35.637,-0.524 34.180,-1.946 29.490,-6.524 26.316,-9.621 26.094,-9.857 25.908,-10.178 25.791,-10.558 25.442,-11.808"/>
<polygon class="node-17" points="-61.983,9.323 -61.969,9.113 -61.968,9.098 -61.928,8.885 -61.861,8.679 -61.768,8.483 -61.753,8.452 -61.634,8.264 -61.609,8.232 -61.464,8.057 -61.298,7.901 -61.261,7.868 -61.073,7.732 -61.028,7.703 -60.822,7.590 -60.771,7.565 -60.551,7.478 -60.494,7.460 -60.264,7.401 -60.205,7.390 -59.968,7.360 -59.909,7.356 -59.671,7.356 -59.588,7.362 -57.722,7.523 -54.889,7.769 -54.714,7.785 -54.534,7.909 -54.486,8.006 -54.446,8.129 -54.413,8.275 -54.389,8.443 -54.562,10.411 -54.818,11.146 -54.890,11.280 -55.179,11.549 -55.394,11.535 -55.608,11.518 -57.959,11.325 -58.944,11.245 -59.833,11.172 -59.936,11.163 -60.112,11.148 -60.321,11.121 -60.377,11.114 -60.604,11.055 -60.655,11.041 -60.871,10.956 -60.915,10.936 -61.114,10.827 -61.150,10.803 -61.330,10.672 -61.492,10.519 -61.514,10.497 -61.652,10.329 -61.768,10.146 -61.861,9.950 -61.865,9.939 -61.930,9.739 -61.969,9.533"/>
<polygon class="node-18" points="-32.691,3.268 -32.676,3.032 -32.631,2.800 -32.558,2.575 -32.458,2.361 -32.449,2.345 -32.320,2.143 -32.167,1.958 -31.993,1.794 -31.973,1.778 -31.777,1.635 -31.565,1.519 -31.538,1.507 -31.368,1.438 -31.329,1.423 -31.262,1.400 -29.497,0.790 -29.393,0.754 -29.174,0.683 -29.079,0.656 -28.861,0.621 -28.417,0.639 -28.198,0.691 -27.782,0.878 -27.264,1.339 -27.130,1.532 -26.935,1.957 -26.845,2.414 -26.842,2.645 -26.867,2.872 -26.998,3.304 -27.103,3.501 -27.234,3.653 -27.379,3.820 -27.543,3.965 -27.725,4.086 -27.921,4.182 -28.068,4.245 -28.371,4.375 -28.608,4.477 -28.686,4.511 -29.742,4.964 -29.912,5.035 -30.054,5.089 -30.084,5.098 -30.319,5.158 -30.561,5.189 -30.592,5.190 -30.835,5.190 -31.076,5.160 -31.106,5.154 -31.340,5.094 -31.565,5.005 -31.589,4.992 -31.799,4.877 -31.993,4.736 -32.167,4.572 -32.180,4.558 -32.331,4.376 -32.458,4.176 -32.558,3.962 -32.631,3.737 -32.676,3.504"/>
<polygon class="node-19" points="31.920,9.219 31.984,8.941 32.127,8.428 32.263,7.939 32.607,6.704 33.303,4.212 34.072,1.453 34.568,-0.322 34.710,-0.830 34.779,-1.070 34.788,-1.093 34.874,-1.293 38.430,-3.186 38.527,-3.176 38.551,-3.166 38.570,-3.151 38.733,-2.932 38.845,-2.773 38.951,-2.551 39.022,-2.332 39.060,-2.109 39.061,-2.103 39.063,-1.873 39.061,-1.654 39.060,-1.641 39.019,-1.433 38.935,-1.124 38.860,-0.854 38.570,0.164 38.350,0.934 37.264,4.740 35.552,10.739 35.484,10.968 35.354,11.401 35.253,11.610 35.137,11.783 34.984,11.981 34.817,12.138 34.408,12.395 34.192,12.480 33.994,12.525 33.736,12.319 32.105,9.695"/>
<polygon class="node-20" points="-51.664,9.304 -51.651,8.859 -51.618,8.686 -51.555,8.523 -51.109,7.614 -49.910,5.171 -49.862,5.077 -49.738,4.882 -49.591,4.704 -49.567,4.677 -49.396,4.516 -49.364,4.491 -49.171,4.351 -48.963,4.236 -48.922,4.215 -48.699,4.127 -48.653,4.112 -48.419,4.052 -48.371,4.044 -48.132,4.013 -48.083,4.013 -47.842,4.013 -47.603,4.043 -47.557,4.051 -47.326,4.110 -47.285,4.124 -47.065,4.211 -46.857,4.325 -46.825,4.343 -46.637,4.480 -46.613,4.501 -46.446,4.658 -46.301,4.834 -46.178,5.027 -46.170,5.042 -46.075,5.244 -46.006,5.457 -45.964,5.676 -45.950,5.899 -45.950,5.899 -45.964,6.122 -46.006,6.341 -46.010,6.357 -46.081,6.575 -46.132,6.689 -46.263,6.944 -46.332,7.079 -46.769,7.918 -47.998,10.283 -48.288,10.840 -48.447,11.096 -48.592,11.271 -48.619,11.299 -48.757,11.426 -48.823,11.482 -49.175,11.703 -49.258,11.753 -49.432,11.817 -49.752,11.913 -49.985,11.942 -50.084,11.951 -50.318,11.951 -51.090,10.736 -51.265,10.370 -51.592,9.685"/>
<polygon class="node-21" points="2.849,-11.372 2.870,-11.581 2.919,-11.784 3.115,-12.369 3.249,-12.769 3.385,-13.176 3.641,-13.939 3.690,-14.083 3.713,-14.145 3.817,-14.366 3.824,-14.379 3.955,-14.585 4.111,-14.773 4.288,-14.940 4.486,-15.083 4.700,-15.201 4.709,-15.206 4.935,-15.295 5.170,-15.356 5.411,-15.386 5.654,-15.386 5.895,-15.356 6.130,-15.295 6.356,-15.206 6.569,-15.089 6.765,-14.946 6.943,-14.780 7.097,-14.593 7.227,-14.388 7.331,-14.168 7.406,-13.937 7.410,-13.926 7.455,-13.686 7.471,-13.443 7.455,-13.199 7.410,-12.959 7.406,-12.945 7.354,-12.775 7.326,-12.703 7.239,-12.486 7.220,-12.439 7.201,-12.392 6.649,-11.023 6.480,-10.606 6.409,-10.434 6.307,-10.252 6.029,-9.935 5.857,-9.804 5.667,-9.696 5.242,-9.553 5.015,-9.520 4.549,-9.535 4.318,-9.582 4.093,-9.655 3.878,-9.752 3.468,-10.089 3.178,-10.352 2.963,-10.742 2.896,-10.950"/>
<polygon class="node-22" points="32.872,12.326 32.980,11.832 33.093,11.344 33.258,11.188 33.430,11.028 33.607,10.865 34.312,10.430 35.292,10.224 35.684,10.191 35.881,10.371 36.264,10.758 41.747,16.302 44.360,18.945 44.763,19.353 44.788,19.379 44.819,19.412 44.972,19.597 44.995,19.632 45.122,19.832 45.223,20.046 45.236,20.079 45.308,20.300 45.352,20.529 45.354,20.554 45.368,20.781 45.354,21.009 45.311,21.233 45.241,21.450 45.144,21.656 45.022,21.848 44.876,22.024 44.710,22.180 44.526,22.314 44.505,22.328 44.301,22.440 44.084,22.526 44.052,22.536 43.822,22.595 43.587,22.625 43.545,22.629 43.305,22.629 43.260,22.625 43.020,22.595 42.974,22.583 42.739,22.522 42.512,22.433 42.467,22.413 42.254,22.296 42.213,22.270 42.016,22.127 41.981,22.096 41.830,21.957 41.030,21.133 34.204,14.109 33.254,13.131 33.065,12.936 32.877,12.731"/>
<polygon class="node-23" points="-21.639,-20.406 -21.626,-20.620 -21.611,-20.855 -21.544,-21.065 -21.448,-21.266 -21.179,-21.634 -20.613,-22.053 -20.393,-22.148 -19.928,-22.261 -19.399,-22.211 -19.169,-22.169 -18.948,-22.101 -18.599,-21.963 -18.424,-21.828 -18.272,-21.673 -18.106,-21.423 -18.041,-21.316 -18.007,-21.236 -17.940,-21.073 -17.807,-20.751 -17.352,-19.649 -16.986,-18.759 -16.917,-18.592 -16.884,-18.512 -16.832,-18.354 -16.808,-18.280 -16.803,-18.258 -16.757,-18.020 -16.742,-17.778 -16.757,-17.536 -16.759,-17.521 -16.804,-17.285 -16.878,-17.057 -16.980,-16.840 -17.109,-16.637 -17.262,-16.452 -17.437,-16.288 -17.631,-16.147 -17.841,-16.031 -18.064,-15.943 -18.297,-15.883 -18.312,-15.880 -18.552,-15.850 -18.795,-15.850 -19.036,-15.880 -19.057,-15.885 -19.294,-15.946 -19.521,-16.036 -19.735,-16.154 -19.757,-16.167 -19.955,-16.311 -20.134,-16.479 -20.152,-16.498 -20.308,-16.687 -20.439,-16.893 -20.525,-17.070 -20.553,-17.137 -20.606,-17.280 -20.635,-17.360 -21.281,-19.164 -21.431,-19.583 -21.480,-19.720 -21.526,-19.847 -21.549,-19.914 -21.574,-19.987 -21.635,-20.217"/>
<polygon class="node-24" points="38.463,30.190 38.477,29.963 38.481,29.940 38.522,29.722 38.559,29.592 38.697,29.112 38.973,28.154 39.830,25.183 39.923,24.870 39.970,24.729 40.065,24.527 40.185,24.338 40.327,24.166 40.490,24.013 40.671,23.882 40.688,23.870 40.888,23.759 41.101,23.675 41.130,23.666 41.356,23.608 41.588,23.579 41.627,23.576 41.864,23.576 41.907,23.580 42.144,23.610 42.376,23.670 42.422,23.683 42.647,23.772 42.691,23.792 42.903,23.909 42.944,23.936 43.140,24.078 43.176,24.111 43.351,24.276 43.505,24.461 43.533,24.497 43.660,24.698 43.680,24.735 43.781,24.948 43.853,25.171 43.863,25.204 43.906,25.431 43.921,25.662 43.922,25.687 43.907,25.912 43.865,26.135 43.844,26.208 43.645,26.886 43.416,27.660 42.736,29.966 42.475,30.849 42.413,31.054 42.371,31.176 42.276,31.379 42.273,31.385 42.156,31.570 42.016,31.738 41.857,31.888 41.849,31.896 41.667,32.028 41.470,32.136 41.261,32.218 41.235,32.227 41.013,32.284 40.785,32.313 40.748,32.315 40.514,32.315 40.283,32.286 40.238,32.280 40.009,32.221 39.964,32.207 39.742,32.119 39.698,32.097 39.487,31.982 39.446,31.953 39.252,31.812 39.077,31.647 39.040,31.613 38.888,31.429 38.858,31.391 38.731,31.190 38.709,31.150 38.609,30.938 38.596,30.898 38.524,30.678 38.481,30.450 38.477,30.417"/>
<polygon class="node-25" points="-27.988,16.909 -27.973,16.663 -27.971,16.642 -27.924,16.397 -27.847,16.159 -27.836,16.135 -27.729,15.907 -27.594,15.694 -27.575,15.670 -27.413,15.475 -27.228,15.302 -27.202,15.283 -26.997,15.133 -26.775,15.011 -26.745,14.999 -26.510,14.906 -26.265,14.843 -26.235,14.839 -25.986,14.808 -25.735,14.808 -25.486,14.839 -25.463,14.843 -25.223,14.905 -24.992,14.996 -24.774,15.116 -24.764,15.124 -24.566,15.267 -24.387,15.435 -24.231,15.623 -24.100,15.830 -23.996,16.051 -23.919,16.294 -23.910,16.325 -23.616,17.609 -23.214,19.364 -22.124,24.121 -22.055,24.530 -22.063,24.730 -22.100,24.931 -22.379,25.301 -22.518,25.479 -23.160,25.801 -23.379,25.906 -24.217,26.238 -24.913,26.255 -25.108,26.161 -25.283,26.045 -25.572,25.649 -25.683,25.484 -25.828,25.099 -25.881,24.910 -25.932,24.724 -26.727,21.804 -27.624,18.510 -27.671,18.338 -27.719,18.160 -27.872,17.596 -27.926,17.398 -27.936,17.355 -27.973,17.155"/>
<polygon class="node-26" points="16.854,-16.212 16.870,-16.462 16.917,-16.708 16.923,-16.729 17.002,-16.969 17.109,-17.197 17.244,-17.411 17.259,-17.431 17.421,-17.627 17.606,-17.800 17.627,-17.816 17.831,-17.965 18.053,-18.087 18.289,-18.180 18.312,-18.188 18.555,-18.250 18.805,-18.282 19.057,-18.282 19.076,-18.281 19.324,-18.250 19.565,-18.188 19.797,-18.096 19.891,-18.047 20.183,-17.877 20.471,-17.708 22.980,-16.225 24.880,-15.101 26.558,-14.109 26.958,-13.871 27.230,-13.707 27.377,-13.586 27.667,-13.335 27.771,-13.168 28.054,-12.688 28.083,-12.476 28.086,-12.255 27.793,-11.669 26.715,-10.454 26.512,-10.365 26.039,-10.182 25.844,-10.206 25.658,-10.257 25.485,-10.335 25.341,-10.413 23.818,-11.240 19.948,-13.341 17.897,-14.454 17.774,-14.527 17.573,-14.673 17.392,-14.843 17.234,-15.034 17.101,-15.243 16.995,-15.468 16.919,-15.703 16.872,-15.947 16.870,-15.961"/>
<polygon class="node-27" points="39.912,24.978 39.937,24.815 39.971,24.695 40.051,24.417 40.862,21.602 41.003,21.113 41.036,21.060 41.099,21.017 41.347,20.868 44.788,19.379 44.819,19.412 44.942,19.566 45.101,19.799 45.122,19.832 45.223,20.046 45.236,20.079 45.311,20.330 45.341,20.505 45.348,20.820 45.341,20.978 45.311,21.233 45.202,21.606 44.945,22.478 44.510,23.955 44.136,25.222 43.963,25.806 43.907,25.995 43.831,26.236 43.777,26.290 43.693,26.333 43.580,26.363 43.439,26.379 43.272,26.383 43.083,26.372 42.166,26.201 41.915,26.130 41.416,25.960 40.736,25.659 40.542,25.553 40.369,25.448 40.222,25.344 40.101,25.243"/>
<polygon class="node-28" points="-49.975,5.814 -49.950,5.353 -49.909,5.184 -49.838,5.026 -49.816,4.978 -49.357,4.043 -48.226,1.736 -47.967,1.209 -47.727,0.720 -47.693,0.656 -47.565,0.455 -47.414,0.272 -47.392,0.248 -47.216,0.083 -47.020,-0.059 -46.987,-0.082 -46.773,-0.200 -46.733,-0.217 -46.503,-0.308 -46.264,-0.370 -46.218,-0.381 -45.972,-0.412 -45.925,-0.416 -45.676,-0.416 -45.629,-0.411 -45.383,-0.380 -45.143,-0.319 -45.101,-0.307 -44.872,-0.217 -44.834,-0.199 -44.621,-0.082 -44.424,0.061 -44.397,0.082 -44.222,0.246 -44.069,0.431 -44.053,0.451 -43.927,0.649 -43.827,0.862 -43.755,1.086 -43.753,1.095 -43.710,1.321 -43.695,1.550 -43.710,1.779 -43.711,1.786 -43.755,2.017 -43.827,2.240 -43.894,2.390 -43.957,2.511 -44.230,3.037 -46.116,6.663 -46.210,6.809 -46.332,6.941 -46.681,7.229 -46.873,7.307 -47.083,7.363 -47.547,7.407 -48.777,7.116 -49.213,6.857 -49.404,6.705 -49.716,6.366"/>
<polygon class="node-29" points="-47.815,1.172 -47.702,0.677 -47.565,0.455 -47.414,0.272 -47.392,0.248 -47.216,0.083 -47.020,-0.059 -46.949,-0.098 -46.733,-0.217 -46.503,-0.308 -46.019,-0.401 -45.531,-0.402 -44.629,-0.299 -44.010,-0.228 -43.699,-0.193 -42.473,-0.052 -33.114,1.024 -31.630,1.195 -31.030,1.264 -30.747,1.299 -29.963,1.538 -29.487,2.004 -29.338,2.183 -28.981,2.800 -28.882,3.026 -28.867,3.265 -28.867,3.265 -28.882,3.504 -28.954,3.971 -29.148,4.396 -29.447,4.748 -29.858,5.008 -30.054,5.089 -30.116,5.099 -30.741,5.163 -31.230,5.148 -31.521,5.117 -32.414,5.020 -42.071,3.963 -44.840,3.659 -45.212,3.579 -45.591,3.383 -47.089,2.327 -47.562,1.873 -47.729,1.578 -47.771,1.394"/>
<polygon class="node-30" points="3.712,-13.013 3.735,-14.168 4.013,-14.595 4.288,-14.940 4.479,-15.071 4.709,-15.206 4.935,-15.295 5.154,-15.349 5.268,-15.377 5.376,-15.401 7.721,-15.908 10.625,-16.536 11.741,-16.777 11.986,-16.808 12.234,-16.808 12.479,-16.777 12.488,-16.775 12.726,-16.714 12.953,-16.624 13.168,-16.505 13.366,-16.361 13.545,-16.194 13.701,-16.005 13.833,-15.798 13.937,-15.576 13.941,-15.567 14.017,-15.332 14.064,-15.089 14.079,-14.842 14.064,-14.596 14.061,-14.579 14.014,-14.335 13.937,-14.099 13.832,-13.874 13.698,-13.664 13.687,-13.648 13.529,-13.456 13.347,-13.286 13.146,-13.140 13.131,-13.129 12.913,-13.010 12.683,-12.918 12.488,-12.869 12.321,-12.832 11.931,-12.751 8.760,-12.101 7.585,-11.859 6.673,-11.673 6.556,-11.649 6.362,-11.622 6.185,-11.614 5.828,-11.640 5.228,-11.781 5.012,-11.837 4.805,-11.919 4.395,-12.108 4.228,-12.264 4.083,-12.440"/>
<polygon class="node-31" points="-32.064,1.901 -32.031,1.567 -32.005,1.420 -31.950,1.285 -31.614,0.574 -31.569,0.479 -31.117,-0.473 -30.915,-0.898 -30.052,-2.717 -30.005,-2.815 -29.942,-2.940 -29.812,-3.145 -29.804,-3.158 -29.646,-3.348 -29.467,-3.517 -29.267,-3.662 -29.247,-3.675 -29.029,-3.794 -28.798,-3.886 -28.772,-3.893 -28.529,-3.955 -28.281,-3.987 -28.031,-3.987 -28.002,-3.987 -27.754,-3.955 -27.511,-3.893 -27.484,-3.885 -27.252,-3.793 -27.033,-3.673 -27.011,-3.659 -26.811,-3.514 -26.630,-3.344 -26.472,-3.153 -26.461,-3.138 -26.329,-2.931 -26.225,-2.710 -26.149,-2.477 -26.103,-2.236 -26.088,-1.991 -26.088,-1.991 -26.103,-1.747 -26.149,-1.506 -26.225,-1.273 -26.264,-1.187 -26.396,-0.914 -26.556,-0.593 -27.765,1.833 -28.175,2.655 -28.327,2.959 -28.648,3.602 -28.715,3.733 -28.877,4.021 -29.148,4.396 -29.447,4.748 -29.890,5.010 -30.054,5.089 -30.116,5.099 -30.877,4.866 -31.554,3.450 -31.890,2.668 -31.999,2.318"/>
<polygon class="node-32" points="36.857,-2.251 37.232,-3.251 37.489,-3.839 37.835,-4.072 38.382,-4.224 41.344,-5.045 49.789,-7.386 50.365,-7.544 50.524,-7.583 50.576,-7.595 50.828,-7.627 50.882,-7.631 51.135,-7.631 51.189,-7.627 51.439,-7.595 51.489,-7.584 51.731,-7.521 51.964,-7.429 52.006,-7.412 52.222,-7.293 52.256,-7.271 52.452,-7.128 52.629,-6.962 52.650,-6.939 52.801,-6.757 52.929,-6.556 53.030,-6.341 53.034,-6.329 53.106,-6.109 53.149,-5.882 53.164,-5.651 53.149,-5.421 53.147,-5.409 53.103,-5.176 53.030,-4.950 52.929,-4.735 52.913,-4.710 52.784,-4.505 52.629,-4.318 52.601,-4.290 52.421,-4.121 52.222,-3.976 52.183,-3.948 51.964,-3.828 51.918,-3.806 51.683,-3.713 51.632,-3.698 51.524,-3.668 51.234,-3.591 50.659,-3.440 49.489,-3.133 46.910,-2.458 43.824,-1.650 40.807,-0.860 39.189,-0.437 38.943,-0.375 38.899,-0.366 38.567,-0.324 37.990,-0.696 37.521,-1.075 37.057,-1.548 36.984,-1.781 36.918,-2.017"/>
<polygon class="node-33" points="-24.022,-12.856 -24.006,-13.103 -23.960,-13.346 -23.958,-13.353 -23.882,-13.585 -23.778,-13.806 -23.676,-13.972 -23.554,-14.156 -21.083,-17.865 -20.755,-18.357 -20.644,-18.522 -20.503,-18.717 -20.302,-18.910 -19.994,-19.080 -19.535,-19.316 -18.623,-19.493 -18.169,-19.475 -17.890,-19.439 -17.405,-19.185 -17.253,-19.002 -16.808,-18.280 -16.763,-18.040 -16.813,-17.274 -16.987,-16.836 -17.120,-16.615 -17.241,-16.426 -17.301,-16.332 -17.867,-15.451 -20.066,-12.028 -20.197,-11.823 -20.329,-11.624 -20.486,-11.435 -20.665,-11.267 -20.864,-11.122 -21.080,-11.004 -21.093,-10.997 -21.324,-10.906 -21.565,-10.844 -21.812,-10.813 -21.834,-10.812 -22.084,-10.812 -22.333,-10.843 -22.575,-10.906 -22.600,-10.913 -22.834,-11.006 -23.054,-11.127 -23.076,-11.142 -23.279,-11.289 -23.462,-11.461 -23.622,-11.654 -23.637,-11.674 -23.771,-11.884 -23.877,-12.110 -23.883,-12.130 -23.960,-12.366 -24.006,-12.609"/>
<polygon class="node-34" points="-32.161,4.598 -31.796,3.886 -31.616,3.768 -31.416,3.654 -31.201,3.546 -28.513,3.418 -28.244,4.167 -27.488,6.281 -25.167,12.771 -25.068,13.049 -24.570,14.441 -24.470,14.721 -24.069,15.845 -24.002,16.067 -23.938,16.320 -23.891,16.568 -23.925,16.856 -24.320,17.639 -24.490,17.846 -24.972,18.136 -25.975,18.422 -26.149,18.444 -26.325,18.444 -26.499,18.422 -27.377,18.136 -27.690,17.835 -27.833,17.639 -27.976,17.272 -28.855,14.720 -30.095,11.121 -31.861,5.992 -31.955,5.719 -32.145,5.159"/>
<polygon class="node-35" points="-2.248,-15.168 -2.232,-15.421 -2.230,-15.436 -2.183,-15.684 -2.105,-15.925 -1.997,-16.153 -1.862,-16.367 -1.854,-16.377 -1.694,-16.571 -1.511,-16.743 -1.307,-16.890 -1.087,-17.012 -0.853,-17.104 -0.610,-17.167 -0.360,-17.198 -0.109,-17.198 0.141,-17.167 0.398,-17.099 0.735,-16.994 2.127,-16.556 4.088,-15.939 5.570,-15.472 5.625,-15.453 5.700,-15.411 5.841,-15.023 5.926,-13.716 5.840,-12.486 5.621,-11.765 5.467,-11.669 5.181,-11.628 4.932,-11.630 4.668,-11.656 4.497,-11.695 4.360,-11.732 4.180,-11.782 4.087,-11.808 2.368,-12.306 1.561,-12.540 0.393,-12.879 0.042,-12.980 -0.850,-13.240 -1.082,-13.333 -1.089,-13.336 -1.309,-13.457 -1.513,-13.605 -1.697,-13.778 -1.858,-13.972 -1.993,-14.185 -2.100,-14.413 -2.106,-14.427 -2.184,-14.667 -2.232,-14.916"/>
<polygon class="node-36" points="43.177,20.579 43.550,19.441 43.814,18.740 43.995,18.555 44.186,18.485 44.744,18.386 45.870,18.187 48.131,17.789 53.657,16.814 57.270,16.177 57.511,16.148 57.571,16.145 57.825,16.145 57.888,16.150 58.142,16.182 58.205,16.196 58.454,16.259 58.516,16.281 58.755,16.375 58.812,16.404 59.036,16.527 59.088,16.562 59.293,16.710 59.338,16.750 59.520,16.921 59.555,16.963 59.712,17.153 59.844,17.360 59.866,17.399 59.968,17.617 60.043,17.845 60.052,17.876 60.096,18.106 60.111,18.340 60.110,18.358 60.096,18.584 60.053,18.807 59.983,19.023 59.886,19.229 59.880,19.239 59.755,19.437 59.605,19.617 59.435,19.778 59.408,19.798 59.214,19.939 59.003,20.055 58.962,20.074 58.733,20.165 58.684,20.178 58.441,20.240 58.377,20.251 57.757,20.351 56.840,20.499 53.228,21.081 48.554,21.834 46.564,22.154 45.173,22.375 45.129,22.381 44.810,22.410 44.273,22.093 43.824,21.752 43.374,21.307 43.303,21.070 43.237,20.826"/>
<polygon class="node-37" points="11.533,-16.056 11.533,-16.237 11.543,-16.396 11.561,-16.528 11.662,-16.754 11.710,-16.768 11.830,-16.796 11.956,-16.824 13.709,-17.203 17.535,-18.030 18.497,-18.238 18.555,-18.250 18.805,-18.282 19.057,-18.282 19.307,-18.250 19.565,-18.188 19.811,-18.076 20.023,-17.959 20.200,-17.780 20.473,-17.179 20.495,-16.983 20.426,-15.933 20.257,-15.626 20.060,-15.289 19.938,-15.095 19.380,-14.628 18.902,-14.254 18.802,-14.187 18.596,-14.124 18.559,-14.114 18.432,-14.085 18.163,-14.030 16.927,-13.776 14.749,-13.329 12.996,-12.970 12.606,-12.890 12.407,-12.868 12.350,-12.908 12.288,-12.978 12.155,-13.204 11.759,-14.417 11.705,-14.664 11.617,-15.161 11.583,-15.403 11.558,-15.636 11.541,-15.854"/>
<polygon class="node-38" points="-51.915,-2.771 -51.900,-3.004 -51.900,-3.007 -51.855,-3.242 -51.781,-3.470 -51.679,-3.687 -51.550,-3.890 -51.533,-3.911 -51.377,-4.100 -51.199,-4.268 -51.169,-4.291 -50.967,-4.437 -50.749,-4.557 -50.708,-4.578 -50.473,-4.671 -50.426,-4.685 -50.179,-4.748 -50.128,-4.755 -49.874,-4.787 -49.618,-4.787 -49.565,-4.786 -49.311,-4.754 -49.259,-4.745 -49.012,-4.682 -48.963,-4.665 -48.728,-4.572 -48.685,-4.549 -48.465,-4.428 -48.262,-4.281 -48.230,-4.255 -48.050,-4.086 -47.615,-3.596 -47.450,-3.409 -46.828,-2.705 -44.777,-0.383 -44.725,-0.322 -44.686,-0.187 -45.053,0.746 -45.237,1.138 -46.186,2.677 -46.399,2.769 -47.023,2.734 -47.492,2.578 -47.683,2.472 -47.866,2.344 -47.954,2.277 -48.424,1.768 -49.687,0.401 -49.926,0.142 -50.730,-0.728 -51.377,-1.430 -51.533,-1.619 -51.665,-1.826 -51.679,-1.848 -51.781,-2.065 -51.855,-2.293 -51.900,-2.529 -51.915,-2.768"/>
<polygon class="node-39" points="-19.582,-19.274 -18.966,-19.629 -18.333,-19.761 -18.171,-19.763 -17.266,-19.716 -8.407,-19.254 -6.319,-19.145 -6.301,-19.142 -6.034,-19.109 -5.782,-19.045 -5.539,-18.949 -5.311,-18.823 -5.100,-18.670 -5.087,-18.659 -4.896,-18.480 -4.729,-18.278 -4.589,-18.057 -4.580,-18.039 -4.468,-17.802 -4.387,-17.553 -4.338,-17.296 -4.322,-17.034 -4.321,-17.015 -4.338,-16.755 -4.387,-16.498 -4.467,-16.250 -4.579,-16.013 -4.584,-16.002 -4.723,-15.783 -4.889,-15.583 -5.078,-15.405 -5.288,-15.253 -5.515,-15.128 -5.756,-15.032 -6.008,-14.968 -6.265,-14.935 -6.498,-14.935 -6.525,-14.935 -6.825,-14.957 -7.844,-15.033 -10.654,-15.243 -13.134,-15.428 -15.782,-15.625 -17.677,-15.767 -17.845,-15.888 -18.519,-16.903 -18.852,-17.508 -19.083,-17.954 -19.397,-18.709"/>
<polygon class="node-40" points="-30.052,-2.623 -29.966,-2.892 -29.933,-2.967 -29.895,-3.049 -29.735,-3.385 -27.986,-7.071 -27.335,-8.443 -27.278,-8.553 -27.144,-8.765 -27.138,-8.772 -26.977,-8.968 -26.792,-9.141 -26.586,-9.291 -26.364,-9.413 -26.344,-9.421 -26.106,-9.516 -25.858,-9.579 -25.604,-9.611 -25.577,-9.613 -25.320,-9.613 -25.064,-9.581 -25.037,-9.575 -24.787,-9.511 -24.547,-9.416 -24.322,-9.292 -24.298,-9.278 -24.090,-9.127 -23.903,-8.951 -23.886,-8.934 -23.723,-8.737 -23.587,-8.522 -23.478,-8.291 -23.472,-8.275 -23.394,-8.035 -23.347,-7.787 -23.331,-7.535 -23.331,-7.535 -23.347,-7.283 -23.394,-7.036 -23.472,-6.796 -23.522,-6.683 -23.597,-6.528 -24.772,-4.171 -25.374,-2.964 -25.482,-2.747 -26.127,-1.454 -26.299,-1.108 -26.621,-0.806 -27.049,-0.782 -27.260,-0.772 -27.485,-0.783 -27.720,-0.816 -27.962,-0.868 -28.205,-0.941 -28.447,-1.033 -28.683,-1.142 -29.424,-1.487 -29.778,-2.042 -29.878,-2.210 -29.950,-2.375"/>
<polygon class="node-41" points="-27.367,-8.314 -27.278,-8.553 -27.174,-8.723 -27.115,-8.813 -26.977,-9.020 -25.982,-10.513 -25.139,-11.778 -24.448,-12.816 -24.037,-13.432 -23.741,-13.873 -23.593,-14.051 -23.024,-14.164 -22.832,-14.139 -22.627,-14.092 -22.187,-13.939 -20.905,-13.112 -20.734,-12.943 -20.351,-12.440 -20.274,-12.282 -20.208,-11.870 -20.309,-11.654 -20.396,-11.514 -20.863,-10.787 -22.205,-8.698 -23.162,-7.208 -23.456,-6.753 -23.496,-6.692 -23.550,-6.618 -23.556,-6.609 -23.867,-6.395 -24.183,-6.293 -24.542,-6.282 -25.137,-6.368 -25.549,-6.464 -25.996,-6.689 -26.540,-6.988 -26.962,-7.361 -27.287,-7.843 -27.350,-8.064"/>
<polygon class="node-42" points="49.203,-7.281 49.235,-7.388 49.426,-8.025 50.001,-9.943 50.258,-10.799 50.419,-11.335 50.452,-11.443 50.502,-11.588 50.513,-11.616 50.616,-11.835 50.745,-12.039 50.768,-12.072 50.925,-12.262 50.958,-12.294 51.141,-12.465 51.343,-12.613 51.387,-12.643 51.608,-12.765 51.658,-12.789 51.895,-12.883 51.949,-12.900 52.197,-12.964 52.253,-12.974 52.507,-13.006 52.564,-13.008 52.818,-13.008 52.872,-13.002 53.122,-12.970 53.367,-12.907 53.414,-12.894 53.645,-12.803 53.685,-12.783 53.899,-12.665 54.097,-12.522 54.124,-12.501 54.298,-12.337 54.451,-12.153 54.463,-12.135 54.588,-11.938 54.687,-11.727 54.759,-11.505 54.803,-11.276 54.818,-11.044 54.803,-10.811 54.759,-10.582 54.755,-10.559 54.733,-10.479 54.466,-9.611 53.606,-6.808 53.507,-6.486 53.310,-5.844 53.244,-5.629 53.113,-5.204 53.017,-4.929 52.891,-4.688 52.801,-4.535 52.758,-4.480 52.629,-4.318 52.601,-4.290 52.343,-4.075 51.918,-3.806 51.731,-3.736 49.236,-7.144"/>
<polygon class="node-43" points="-27.855,17.420 -27.560,17.060 -25.752,15.107 -25.482,14.858 -25.075,14.580 -24.827,14.510 -23.612,14.229 -20.522,13.516 -18.788,13.115 -18.086,12.953 -17.712,12.868 -17.664,12.857 -17.409,12.825 -17.390,12.824 -17.135,12.824 -16.881,12.856 -16.634,12.919 -16.396,13.013 -16.388,13.017 -16.166,13.139 -15.962,13.288 -15.778,13.460 -15.617,13.655 -15.482,13.868 -15.374,14.097 -15.296,14.337 -15.293,14.347 -15.245,14.598 -15.229,14.853 -15.245,15.108 -15.293,15.359 -15.297,15.378 -15.377,15.623 -15.486,15.855 -15.624,16.073 -15.638,16.092 -15.802,16.291 -15.990,16.468 -16.010,16.482 -16.218,16.634 -16.444,16.758 -16.684,16.853 -16.706,16.859 -16.885,16.909 -23.304,18.338 -24.680,18.644 -24.990,18.686 -25.315,18.679 -25.648,18.617 -26.499,18.422 -27.377,18.136 -27.690,17.835 -27.833,17.639"/>
<polygon class="node-44" points="50.451,-11.443 50.903,-12.950 51.519,-15.006 51.976,-16.529 52.074,-16.856 52.126,-17.002 52.138,-17.035 52.241,-17.255 52.372,-17.461 52.397,-17.500 52.556,-17.692 52.590,-17.730 52.774,-17.903 52.817,-17.937 53.024,-18.087 53.074,-18.117 53.299,-18.241 53.355,-18.264 53.595,-18.359 53.654,-18.375 53.903,-18.439 53.963,-18.447 54.218,-18.479 54.474,-18.479 54.531,-18.478 54.783,-18.447 54.836,-18.438 55.079,-18.376 55.125,-18.361 55.354,-18.270 55.570,-18.151 55.603,-18.132 55.798,-17.991 55.974,-17.825 55.992,-17.808 56.142,-17.627 56.268,-17.428 56.368,-17.216 56.441,-16.992 56.485,-16.761 56.499,-16.527 56.485,-16.292 56.441,-16.061 56.435,-16.032 56.411,-15.951 56.379,-15.843 55.872,-14.191 54.966,-11.240 54.866,-10.913 54.732,-10.479 54.557,-10.516 54.435,-10.542 53.451,-10.761 52.680,-10.934 52.415,-10.993 52.154,-11.053 51.899,-11.110 51.654,-11.166 51.212,-11.266 50.599,-11.407 50.518,-11.426"/>
<polygon class="node-45" points="-7.604,-17.006 -7.499,-17.835 -7.142,-18.633 -6.802,-18.942 -6.579,-19.019 -6.026,-19.072 -5.891,-19.071 -5.794,-19.046 -5.644,-19.001 -5.567,-18.977 -5.407,-18.927 -5.294,-18.891 -5.166,-18.851 0.130,-17.184 0.383,-17.104 0.508,-17.044 0.807,-16.688 0.876,-16.517 0.961,-16.113 0.975,-15.886 0.902,-15.151 0.840,-14.900 0.437,-13.983 -0.130,-13.368 -0.281,-13.281 -0.430,-13.225 -0.716,-13.205 -0.849,-13.242 -1.073,-13.305 -1.361,-13.388 -1.761,-13.503 -1.995,-13.571 -4.201,-14.210 -5.569,-14.606 -5.836,-14.684 -6.737,-14.945 -7.044,-15.352"/>
<polygon class="node-46" points="50.310,-3.461 50.455,-4.038 50.750,-5.144 50.945,-5.327 51.143,-5.512 51.342,-5.696 51.970,-5.866 53.230,-6.171 53.326,-6.184 53.613,-6.080 54.051,-5.685 57.154,-2.880 59.862,-0.432 61.463,1.015 63.081,2.478 63.780,3.111 63.887,3.216 63.920,3.250 64.077,3.439 64.099,3.473 64.228,3.675 64.330,3.892 64.404,4.120 64.409,4.139 64.452,4.366 64.467,4.598 64.452,4.830 64.409,5.057 64.337,5.278 64.330,5.295 64.228,5.512 64.099,5.714 63.947,5.898 63.920,5.928 63.741,6.096 63.704,6.124 63.501,6.272 63.281,6.393 63.230,6.419 62.992,6.513 62.933,6.534 62.683,6.598 62.619,6.611 62.360,6.644 62.292,6.649 62.030,6.649 61.962,6.646 61.702,6.613 61.635,6.602 61.381,6.537 61.318,6.518 61.077,6.422 61.020,6.397 60.794,6.273 60.745,6.242 60.540,6.093 60.500,6.059 59.974,5.578 50.472,-3.184"/>
<polygon class="node-47" points="57.162,20.472 57.295,16.532 57.342,16.205 57.453,16.159 57.701,16.159 57.950,16.163 58.324,16.240 58.575,16.310 58.755,16.375 58.812,16.404 59.036,16.527 59.088,16.562 59.338,16.750 59.700,17.090 63.603,20.829 63.959,21.174 63.999,21.222 64.158,21.414 64.292,21.624 64.319,21.668 64.423,21.888 64.439,21.930 64.512,22.156 64.557,22.389 64.561,22.418 64.575,22.648 64.561,22.878 64.518,23.104 64.446,23.323 64.348,23.531 64.225,23.726 64.078,23.903 63.910,24.061 63.886,24.083 63.694,24.223 63.486,24.337 63.444,24.360 63.217,24.450 63.166,24.467 62.925,24.529 62.866,24.539 62.614,24.571 62.549,24.573 62.292,24.573 62.224,24.567 61.967,24.535 61.898,24.520 61.645,24.455 61.577,24.433 61.335,24.337 61.270,24.307 61.042,24.181 60.983,24.145 60.774,23.993 60.722,23.952 60.597,23.837 60.313,23.562 60.140,23.393 59.441,22.711 58.041,21.345 57.348,20.668 57.180,20.503"/>
<polygon class="node-48" points="17.398,-17.141 17.417,-17.361 17.437,-17.560 17.522,-17.753 17.635,-17.930 17.822,-18.177 18.573,-19.172 19.447,-20.329 19.626,-20.563 19.701,-20.659 19.795,-20.768 19.989,-20.950 20.014,-20.970 20.229,-21.126 20.461,-21.254 20.489,-21.266 20.735,-21.363 20.991,-21.429 21.253,-21.462 21.278,-21.465 21.540,-21.465 21.800,-21.432 22.053,-21.367 22.068,-21.362 22.309,-21.267 22.535,-21.143 22.745,-20.991 22.933,-20.814 23.098,-20.614 23.236,-20.396 23.346,-20.162 23.426,-19.916 23.475,-19.662 23.478,-19.644 23.495,-19.383 23.478,-19.122 23.429,-18.864 23.424,-18.838 23.342,-18.587 23.229,-18.348 23.215,-18.322 23.072,-18.097 22.978,-17.977 21.939,-16.737 21.488,-16.199 20.931,-15.535 20.752,-15.324 20.598,-15.180 20.465,-15.058 20.231,-14.892 19.972,-14.749 19.775,-14.652 19.487,-14.558 19.227,-14.496 18.988,-14.517 18.773,-14.631 18.599,-14.763 18.028,-15.370 17.806,-15.703 17.668,-16.015 17.521,-16.460 17.451,-16.687 17.409,-16.915"/>
<polygon class="node-49" points="56.056,16.214 56.143,15.929 56.223,15.669 56.970,13.254 58.819,7.278 59.414,5.353 59.643,5.047 63.744,3.147 63.799,3.164 63.846,3.187 64.099,3.473 64.288,3.848 64.404,4.120 64.467,4.598 64.435,4.834 64.404,5.067 64.380,5.151 64.202,5.722 63.847,6.840 63.054,9.344 60.883,16.199 60.710,16.746 60.540,17.279 60.443,17.575 60.285,17.891 59.606,18.164 58.838,18.313 58.098,18.416 57.818,18.333 57.540,18.243 56.946,17.722 56.564,17.248 56.084,16.646"/>
<polygon class="node-50" points="-56.158,-7.390 -56.143,-7.630 -56.098,-7.867 -56.023,-8.096 -55.921,-8.314 -55.910,-8.331 -55.778,-8.540 -55.620,-8.731 -55.440,-8.900 -55.410,-8.925 -55.206,-9.074 -55.167,-9.096 -54.942,-9.219 -54.703,-9.314 -54.653,-9.332 -54.400,-9.396 -54.345,-9.406 -54.084,-9.439 -54.025,-9.441 -53.761,-9.441 -53.702,-9.435 -53.440,-9.402 -53.381,-9.388 -53.126,-9.322 -52.881,-9.225 -52.829,-9.204 -52.599,-9.078 -52.553,-9.050 -52.344,-8.898 -52.306,-8.867 -52.120,-8.692 -52.056,-8.621 -51.736,-8.260 -50.740,-7.132 -48.238,-4.301 -48.015,-4.048 -47.925,-3.864 -47.945,-3.610 -48.076,-3.299 -48.181,-3.129 -48.634,-2.590 -48.823,-2.410 -49.688,-1.772 -50.507,-1.509 -50.707,-1.449 -51.201,-1.330 -51.307,-1.375 -51.388,-1.441 -52.954,-3.136 -53.121,-3.318 -54.735,-5.066 -55.417,-5.805 -55.595,-5.997 -55.756,-6.192 -55.778,-6.225 -55.910,-6.434 -56.015,-6.657 -56.092,-6.893 -56.098,-6.913 -56.143,-7.149"/>
<polygon class="node-51" points="-18.175,13.774 -18.150,13.569 -18.061,13.226 -17.998,13.094 -17.924,12.991 -17.571,12.834 -17.038,12.711 -14.392,12.100 -9.740,11.026 -9.025,10.861 -8.762,10.802 -8.502,10.769 -8.240,10.769 -8.232,10.770 -7.974,10.802 -7.723,10.867 -7.481,10.962 -7.253,11.088 -7.043,11.240 -6.854,11.418 -6.688,11.618 -6.549,11.838 -6.545,11.845 -6.434,12.082 -6.353,12.330 -6.304,12.587 -6.288,12.849 -6.304,13.110 -6.307,13.125 -6.356,13.383 -6.437,13.632 -6.549,13.870 -6.689,14.091 -6.700,14.104 -6.867,14.306 -7.058,14.486 -7.271,14.640 -7.500,14.766 -7.744,14.863 -7.757,14.867 -7.968,14.923 -9.581,15.283 -16.008,16.714 -16.549,16.834 -16.945,16.916 -17.375,16.672 -17.485,16.535 -17.792,15.975 -17.961,15.508"/>
<polygon class="node-52" points="-27.367,-8.314 -27.278,-8.553 -27.135,-8.736 -25.875,-9.110 -25.248,-9.253 -24.993,-9.299 -24.766,-9.318 -24.404,-9.345 -24.066,-9.319 -23.785,-9.261 -21.784,-8.752 -21.164,-8.594 -19.598,-8.196 -19.484,-8.162 -19.236,-8.063 -19.002,-7.935 -18.983,-7.922 -18.768,-7.766 -18.574,-7.584 -18.404,-7.379 -18.394,-7.363 -18.252,-7.140 -18.139,-6.900 -18.058,-6.649 -18.008,-6.389 -17.991,-6.125 -17.991,-6.125 -18.008,-5.862 -18.058,-5.602 -18.139,-5.350 -18.252,-5.111 -18.394,-4.888 -18.562,-4.684 -18.755,-4.503 -18.969,-4.348 -19.200,-4.220 -19.216,-4.214 -19.464,-4.116 -19.722,-4.050 -19.986,-4.016 -20.252,-4.016 -20.275,-4.016 -20.540,-4.050 -20.685,-4.083 -20.919,-4.149 -21.264,-4.247 -21.489,-4.310 -23.932,-5.004 -24.152,-5.066 -24.527,-5.173 -25.210,-5.367 -25.388,-5.442 -25.715,-5.622 -25.993,-5.831 -26.462,-6.352 -26.626,-6.569 -26.786,-6.882 -27.350,-8.064"/>
<polygon class="node-53" points="60.564,23.776 60.575,23.710 60.611,23.625 60.673,23.522 60.758,23.402 60.995,23.123 61.485,22.634 61.674,22.463 62.075,22.122 62.281,21.958 62.486,21.801 62.882,21.520 63.067,21.400 63.535,21.142 63.654,21.096 63.750,21.071 63.823,21.067 63.939,21.160 63.974,21.189 64.052,21.260 65.319,22.473 68.431,25.455 68.520,25.545 68.566,25.598 68.727,25.793 68.763,25.846 68.895,26.055 69.000,26.278 69.021,26.325 69.096,26.554 69.106,26.595 69.149,26.824 69.164,27.057 69.149,27.290 69.148,27.308 69.106,27.529 69.037,27.743 68.941,27.947 68.820,28.137 68.676,28.311 68.660,28.330 68.490,28.490 68.301,28.627 68.266,28.650 68.055,28.766 67.831,28.854 67.778,28.875 67.539,28.937 67.477,28.951 67.226,28.982 67.157,28.989 66.900,28.989 66.826,28.986 66.568,28.954 66.491,28.942 66.237,28.877 66.160,28.857 66.086,28.829 65.840,28.732 65.770,28.697 65.539,28.570 65.474,28.528 65.262,28.374 65.205,28.328 65.055,28.191 64.886,28.027 64.521,27.670 62.450,25.649 61.381,24.605 60.933,24.167 60.754,23.992 60.686,23.923 60.620,23.846"/>
<polygon class="node-54" points="62.166,4.583 62.194,4.234 62.305,3.735 62.707,2.514 62.864,2.234 62.868,2.230 63.240,2.145 63.614,2.062 65.375,1.671 67.287,1.247 67.800,1.134 67.869,1.118 67.942,1.107 68.207,1.074 68.284,1.071 68.552,1.071 68.629,1.076 68.895,1.110 68.969,1.123 69.228,1.190 69.298,1.211 69.544,1.309 69.608,1.337 69.837,1.462 69.892,1.496 70.100,1.647 70.145,1.684 70.328,1.856 70.362,1.894 70.518,2.083 70.649,2.290 70.666,2.321 70.767,2.536 70.840,2.762 70.885,2.995 70.900,3.232 70.900,3.235 70.900,3.235 70.885,3.463 70.885,3.468 70.840,3.701 70.767,3.927 70.666,4.142 70.539,4.342 70.518,4.374 70.362,4.562 70.328,4.594 70.145,4.766 69.942,4.914 69.892,4.947 69.667,5.071 69.608,5.099 69.365,5.196 69.298,5.218 69.039,5.285 64.309,6.263 64.183,6.289 64.057,6.315 63.878,6.211 63.525,5.964 63.166,5.680 62.630,5.247 62.241,4.841"/>
<polygon class="node-55" points="-13.498,4.375 -13.481,4.107 -13.431,3.844 -13.348,3.589 -13.345,3.580 -13.230,3.336 -13.086,3.109 -12.914,2.901 -12.718,2.717 -12.500,2.558 -12.264,2.429 -12.252,2.422 -12.001,2.323 -11.740,2.256 -11.472,2.222 -11.202,2.222 -10.935,2.256 -10.923,2.257 -10.663,2.324 -10.413,2.423 -10.178,2.553 -9.960,2.711 -9.764,2.895 -9.593,3.102 -9.449,3.329 -9.334,3.572 -9.240,3.839 -9.001,4.541 -6.683,11.343 -6.509,11.853 -6.406,12.155 -6.353,12.330 -6.304,12.587 -6.288,12.849 -6.304,13.110 -6.307,13.125 -6.434,13.616 -6.448,13.646 -6.578,13.892 -6.689,14.091 -6.867,14.306 -7.074,14.492 -7.260,14.627 -7.500,14.766 -7.771,14.864 -8.051,14.896 -8.372,14.633 -10.331,12.732 -10.538,12.518 -10.698,12.302 -10.930,11.965 -11.015,11.730 -11.059,11.608 -11.132,11.405 -11.244,11.090 -11.305,10.916 -12.575,7.343 -13.373,5.095 -13.431,4.906 -13.481,4.642"/>
<polygon class="node-56" points="-8.366,-18.145 -8.354,-18.388 -7.948,-21.700 -7.923,-21.910 -7.869,-22.335 -7.866,-22.356 -7.819,-22.600 -7.736,-22.855 -7.621,-23.098 -7.477,-23.325 -7.468,-23.339 -7.298,-23.544 -7.104,-23.727 -6.889,-23.883 -6.655,-24.012 -6.407,-24.110 -6.149,-24.176 -5.885,-24.209 -5.618,-24.209 -5.354,-24.176 -5.096,-24.110 -4.848,-24.012 -4.834,-24.004 -4.598,-23.875 -4.381,-23.717 -4.185,-23.533 -4.013,-23.325 -3.999,-23.307 -3.854,-23.079 -3.739,-22.834 -3.731,-22.810 -3.647,-22.553 -3.597,-22.287 -3.580,-22.018 -3.580,-21.993 -3.597,-21.724 -3.603,-21.679 -3.844,-20.061 -3.981,-19.145 -4.123,-18.191 -4.182,-17.815 -4.207,-17.683 -4.266,-17.551 -4.437,-17.179 -4.523,-17.020 -4.871,-16.639 -5.299,-16.224 -6.576,-15.263 -6.817,-15.114 -7.044,-15.352 -7.765,-16.508 -8.080,-17.058 -8.294,-17.661"/>
<polygon class="node-57" points="-38.783,25.279 -38.765,25.008 -38.761,24.975 -38.709,24.703 -38.623,24.440 -38.608,24.400 -38.488,24.147 -38.338,23.911 -38.311,23.870 -38.131,23.652 -38.096,23.615 -37.889,23.420 -37.524,23.141 -36.622,22.452 -31.542,18.584 -30.711,17.951 -29.300,16.877 -28.102,15.965 -27.952,15.874 -27.427,15.629 -26.538,15.565 -26.326,15.651 -26.116,15.764 -25.801,16.308 -25.389,17.315 -25.296,17.544 -25.030,18.448 -25.036,18.697 -25.155,18.826 -25.772,19.332 -26.525,19.951 -27.104,20.426 -27.692,20.908 -31.401,23.951 -33.588,25.746 -34.964,26.875 -35.194,27.042 -35.238,27.070 -35.486,27.207 -35.534,27.227 -35.797,27.331 -36.070,27.401 -36.117,27.411 -36.395,27.446 -36.439,27.447 -36.715,27.447 -36.989,27.412 -37.024,27.405 -37.287,27.337 -37.540,27.237 -37.778,27.106 -37.795,27.096 -38.010,26.939 -38.204,26.757 -38.373,26.552 -38.516,26.328 -38.629,26.087 -38.711,25.834 -38.715,25.817 -38.765,25.551"/>
<polygon class="node-58" points="-16.689,-4.621 -16.672,-4.897 -16.620,-5.167 -16.535,-5.430 -16.418,-5.679 -16.349,-5.791 -16.150,-6.098 -13.776,-9.697 -11.312,-13.430 -9.717,-15.847 -9.240,-16.570 -9.073,-16.822 -8.904,-17.075 -8.615,-17.429 -8.486,-17.492 -8.334,-17.533 -8.159,-17.551 -7.966,-17.546 -5.130,-16.456 -5.022,-16.274 -5.038,-15.674 -5.198,-15.060 -5.253,-14.943 -9.304,-8.578 -10.759,-6.293 -12.578,-3.435 -12.659,-3.316 -12.834,-3.104 -12.840,-3.099 -13.041,-2.910 -13.265,-2.747 -13.507,-2.614 -13.764,-2.512 -14.031,-2.444 -14.306,-2.409 -14.322,-2.407 -14.599,-2.407 -14.874,-2.442 -15.143,-2.511 -15.401,-2.613 -15.417,-2.620 -15.659,-2.754 -15.883,-2.916 -16.085,-3.106 -16.262,-3.320 -16.270,-3.331 -16.418,-3.564 -16.535,-3.813 -16.620,-4.076 -16.672,-4.346"/>
<polygon class="node-59" points="67.830,1.273 67.931,1.105 68.316,1.018 70.137,0.614 71.848,0.234 73.846,-0.209 73.983,-0.240 74.248,-0.298 74.455,-0.344 74.538,-0.357 74.809,-0.391 74.894,-0.396 75.169,-0.396 75.255,-0.392 75.527,-0.358 75.611,-0.345 75.693,-0.324 75.955,-0.257 76.031,-0.229 76.279,-0.130 76.347,-0.096 76.577,0.031 76.635,0.070 76.843,0.221 76.890,0.264 77.072,0.435 77.232,0.628 77.260,0.666 77.390,0.871 77.494,1.090 77.505,1.118 77.578,1.340 77.622,1.570 77.636,1.804 77.636,1.804 77.622,2.037 77.578,2.267 77.505,2.490 77.406,2.702 77.390,2.733 77.260,2.938 77.106,3.125 77.072,3.165 76.890,3.336 76.843,3.375 76.635,3.526 76.577,3.562 76.347,3.688 76.279,3.719 76.031,3.817 75.955,3.842 75.693,3.909 75.549,3.940 73.660,4.330 71.530,4.771 70.476,4.988 69.299,5.232 69.037,5.284 68.972,5.111 68.831,4.675 68.704,4.267 68.560,3.796 68.484,3.546 68.408,3.290 68.331,3.034 68.050,2.072 67.992,1.866 67.939,1.680"/>
<polygon class="node-60" points="-21.653,-5.208 -21.548,-6.763 -20.855,-7.830 -20.092,-8.220 -19.897,-8.237 -19.580,-8.190 -19.391,-8.143 -19.080,-8.064 -18.408,-7.893 -15.446,-7.140 -15.293,-7.058 -15.137,-6.946 -13.525,-4.982 -12.965,-4.238 -12.570,-3.564 -12.851,-3.100 -13.053,-2.910 -13.497,-2.623 -14.290,-2.419 -14.966,-2.485 -15.149,-2.512 -15.299,-2.554 -18.735,-3.529 -19.866,-3.850 -20.760,-4.104 -21.100,-4.283 -21.381,-4.580"/>
<polygon class="node-61" points="19.374,-19.962 19.533,-20.386 19.637,-20.575 19.748,-20.727 20.089,-21.177 21.174,-22.613 21.925,-23.608 22.237,-24.018 22.350,-24.156 22.415,-24.234 22.619,-24.425 22.648,-24.450 22.874,-24.614 23.119,-24.749 23.151,-24.766 23.410,-24.868 23.679,-24.937 23.710,-24.944 23.984,-24.979 24.259,-24.979 24.285,-24.977 24.555,-24.943 24.819,-24.875 25.071,-24.775 25.310,-24.644 25.317,-24.639 25.534,-24.482 25.729,-24.299 25.899,-24.092 26.042,-23.867 26.047,-23.859 26.163,-23.613 26.247,-23.354 26.298,-23.087 26.315,-22.815 26.316,-22.789 26.298,-22.514 26.247,-22.244 26.238,-22.212 26.152,-21.948 26.033,-21.697 26.015,-21.665 25.865,-21.429 25.701,-21.225 24.957,-20.338 24.005,-19.201 23.563,-18.674 23.127,-18.155 23.013,-18.019 22.917,-17.909 22.756,-17.764 22.572,-17.644 22.147,-17.484 21.794,-17.502 21.546,-17.516 21.296,-17.559 20.682,-17.703 20.234,-17.994 20.034,-18.172 19.856,-18.369 19.400,-19.269"/>
<polygon class="node-62" points="-16.220,-2.933 -16.176,-3.186 -15.881,-4.834 -15.853,-4.982 -15.661,-5.390 -15.455,-5.610 -15.333,-5.698 -14.646,-5.643 -14.526,-5.628 -12.040,-4.296 -12.027,-4.277 -11.984,-4.212 -10.319,0.672 -9.418,3.318 -9.352,3.514 -9.287,3.713 -9.325,3.916 -9.490,4.149 -9.618,4.272 -9.956,4.523 -10.383,4.764 -11.393,5.160 -12.156,5.329 -12.989,5.170 -13.141,5.137 -13.264,5.090 -13.389,5.018 -13.419,4.954 -13.506,4.715 -13.567,4.548 -13.747,4.041 -14.062,3.156 -14.124,2.980 -15.138,0.126 -15.653,-1.326 -16.176,-2.800"/>
<polygon class="node-63" points="-7.868,-22.347 -7.822,-22.733 -7.797,-22.939 -7.592,-24.614 -7.329,-26.765 -7.233,-27.544 -7.216,-27.674 -7.165,-27.939 -7.079,-28.203 -6.961,-28.455 -6.949,-28.477 -6.802,-28.709 -6.627,-28.921 -6.426,-29.110 -6.414,-29.119 -6.194,-29.279 -5.956,-29.410 -5.703,-29.510 -5.440,-29.577 -5.171,-29.612 -4.899,-29.612 -4.630,-29.577 -4.366,-29.510 -4.352,-29.505 -4.096,-29.404 -3.855,-29.271 -3.632,-29.110 -3.614,-29.093 -3.412,-28.903 -3.235,-28.689 -3.086,-28.455 -3.071,-28.428 -2.952,-28.176 -2.866,-27.910 -2.859,-27.879 -2.806,-27.605 -2.789,-27.326 -2.790,-27.294 -2.807,-27.017 -2.812,-26.979 -3.088,-25.128 -3.198,-24.391 -3.572,-21.883 -3.601,-21.688 -3.641,-21.613 -3.720,-21.489 -3.935,-21.203 -4.282,-21.028 -5.230,-20.873 -5.770,-20.902 -6.309,-21.003 -6.566,-21.078 -6.810,-21.168 -7.036,-21.272 -7.241,-21.387 -7.576,-21.645 -7.699,-21.784 -7.803,-22.078 -7.851,-22.220"/>
<polygon class="node-64" points="-49.546,28.597 -49.530,28.336 -49.481,28.080 -49.473,28.037 -49.390,27.783 -49.371,27.738 -49.255,27.492 -49.110,27.263 -49.079,27.214 -48.903,27.002 -48.863,26.956 -48.661,26.766 -48.613,26.725 -48.387,26.561 -48.333,26.526 -48.089,26.392 -48.031,26.365 -47.773,26.263 -47.210,26.088 -46.141,25.758 -43.802,25.037 -43.269,24.872 -42.953,24.775 -42.426,24.613 -42.140,24.540 -42.088,24.533 -41.814,24.498 -41.539,24.498 -41.493,24.501 -41.224,24.535 -40.961,24.603 -40.927,24.612 -40.680,24.710 -40.447,24.838 -40.428,24.851 -40.217,25.004 -40.028,25.182 -39.862,25.382 -39.723,25.601 -39.612,25.837 -39.532,26.084 -39.483,26.339 -39.480,26.362 -39.463,26.628 -39.480,26.893 -39.485,26.928 -39.536,27.195 -39.620,27.453 -39.637,27.496 -39.754,27.745 -39.781,27.788 -39.930,28.023 -40.108,28.238 -40.145,28.280 -40.349,28.472 -40.394,28.509 -40.622,28.674 -40.672,28.704 -40.918,28.839 -40.972,28.861 -41.232,28.964 -42.780,29.430 -43.537,29.658 -46.516,30.553 -46.669,30.598 -46.897,30.652 -47.170,30.686 -47.226,30.690 -47.497,30.690 -47.548,30.686 -47.813,30.652 -48.071,30.586 -48.109,30.575 -48.352,30.478 -48.581,30.353 -48.603,30.338 -48.809,30.189 -48.995,30.014 -49.157,29.818 -49.293,29.604 -49.402,29.373 -49.480,29.131 -49.528,28.882 -49.530,28.857"/>
<polygon class="node-65" points="-43.183,26.147 -43.167,25.883 -42.948,25.324 -42.866,25.122 -42.767,24.946 -42.651,24.800 -42.517,24.650 -42.379,24.603 -42.162,24.532 -41.886,24.446 -41.657,24.375 -37.661,23.142 -37.483,23.092 -36.614,23.366 -35.563,24.230 -35.093,24.733 -34.739,25.362 -34.648,26.311 -34.964,26.875 -35.008,26.903 -35.486,27.207 -35.534,27.227 -35.823,27.339 -36.054,27.408 -36.607,27.575 -37.606,27.875 -40.201,28.655 -40.851,28.850 -41.052,28.910 -41.200,28.955 -41.433,29.009 -41.597,29.004 -41.862,28.836 -42.030,28.720 -42.194,28.572 -42.350,28.395 -42.496,28.191 -42.943,27.541 -43.031,27.268 -43.150,26.705 -43.177,26.423"/>
<polygon class="node-66" points="-18.761,-5.255 -18.761,-5.261 -18.743,-5.548 -18.689,-5.831 -18.600,-6.104 -18.477,-6.364 -18.323,-6.607 -18.320,-6.612 -18.135,-6.836 -17.924,-7.034 -17.689,-7.205 -17.435,-7.345 -17.165,-7.451 -16.884,-7.524 -16.866,-7.528 -16.577,-7.564 -16.286,-7.564 -15.997,-7.528 -15.976,-7.523 -15.723,-7.460 -15.694,-7.451 -15.555,-7.401 -15.504,-7.381 -15.377,-7.332 -14.446,-6.972 -14.368,-6.942 -14.215,-6.883 -14.137,-6.853 -13.943,-6.769 -13.711,-6.635 -13.436,-6.436 -13.247,-6.242 -13.082,-6.061 -12.941,-5.827 -12.799,-5.576 -12.634,-5.235 -12.495,-4.428 -12.571,-4.212 -12.760,-3.866 -12.882,-3.693 -13.075,-3.444 -13.295,-3.226 -13.579,-3.003 -13.804,-2.843 -14.053,-2.738 -14.307,-2.636 -14.570,-2.567 -14.838,-2.533 -15.101,-2.527 -15.366,-2.568 -15.506,-2.603 -16.115,-2.763 -16.675,-2.910 -16.891,-2.967 -16.921,-2.975 -17.100,-3.024 -17.148,-3.041 -17.359,-3.124 -17.400,-3.141 -17.419,-3.149 -17.675,-3.289 -17.911,-3.460 -18.123,-3.660 -18.135,-3.674 -18.320,-3.897 -18.475,-4.142 -18.599,-4.405 -18.688,-4.680 -18.743,-4.965"/>
<polygon class="node-67" points="-38.103,26.821 -38.079,26.602 -37.593,23.949 -37.357,23.460 -36.865,23.366 -36.614,23.366 -34.736,24.344 -34.421,24.548 -34.088,24.788 -33.911,24.943 -33.719,25.247 -33.617,25.466 -32.765,27.312 -31.956,29.062 -31.900,29.185 -31.702,29.621 -31.618,29.881 -31.566,30.150 -31.563,30.180 -31.545,30.458 -31.563,30.736 -31.569,30.776 -31.622,31.054 -31.709,31.324 -31.726,31.369 -31.848,31.628 -31.874,31.673 -32.029,31.916 -32.213,32.138 -32.248,32.180 -32.459,32.378 -32.501,32.414 -32.735,32.584 -32.782,32.611 -33.034,32.750 -33.301,32.856 -33.348,32.874 -33.624,32.945 -33.670,32.952 -33.949,32.988 -34.231,32.988 -34.268,32.986 -34.543,32.951 -34.811,32.882 -34.835,32.873 -35.087,32.773 -35.325,32.643 -35.544,32.483 -35.741,32.298 -35.914,32.089 -36.059,31.861 -36.147,31.681 -36.439,31.023 -36.839,30.124 -37.529,28.569 -37.866,27.810 -37.925,27.676 -38.026,27.443 -38.078,27.227 -38.094,27.009"/>
<polygon class="node-68" points="-40.588,21.866 -40.570,21.584 -40.517,21.307 -40.509,21.271 -40.420,20.998 -40.298,20.738 -40.278,20.697 -40.122,20.451 -40.092,20.413 -39.904,20.187 -39.690,19.986 -39.651,19.950 -39.412,19.777 -39.366,19.749 -39.107,19.607 -39.057,19.587 -38.784,19.478 -38.499,19.405 -38.449,19.395 -38.159,19.358 -38.111,19.358 -37.823,19.358 -37.536,19.394 -37.497,19.402 -37.221,19.473 -36.957,19.578 -36.931,19.592 -36.686,19.726 -36.461,19.890 -36.257,20.081 -36.079,20.296 -35.930,20.532 -35.895,20.598 -35.845,20.703 -35.707,20.995 -35.599,21.226 -35.309,21.841 -35.053,22.387 -34.684,23.172 -34.565,23.432 -34.501,23.592 -34.436,23.789 -34.344,24.334 -34.376,24.581 -34.460,24.717 -34.851,25.116 -35.064,25.286 -35.624,25.700 -36.735,26.209 -37.177,26.347 -37.421,26.416 -37.991,26.477 -38.219,26.370 -38.350,26.246 -38.469,26.121 -38.771,25.797 -38.939,25.532 -39.096,25.238 -39.515,24.451 -40.072,23.404 -40.225,23.116 -40.348,22.885 -40.430,22.702 -40.516,22.439 -40.568,22.167 -40.570,22.148"/>
<polygon class="node-69" points="-36.103,31.698 -36.071,31.596 -36.004,31.480 -35.903,31.351 -35.769,31.211 -35.145,30.572 -34.636,30.261 -34.362,30.112 -33.521,29.725 -32.988,29.534 -32.519,29.413 -32.143,29.368 -31.779,29.535 -31.716,29.590 -31.595,29.844 -31.548,29.945 -31.189,30.723 -29.472,34.442 -29.419,34.556 -29.151,35.138 -29.105,35.246 -29.019,35.511 -28.967,35.784 -28.960,35.821 -28.942,36.105 -28.945,36.148 -28.963,36.436 -29.017,36.719 -29.030,36.769 -29.120,37.047 -29.143,37.097 -29.268,37.363 -29.425,37.611 -29.458,37.660 -29.645,37.887 -29.685,37.930 -29.900,38.132 -29.945,38.168 -30.183,38.340 -30.232,38.367 -30.486,38.507 -30.757,38.614 -30.804,38.630 -31.081,38.702 -31.366,38.738 -31.406,38.742 -31.688,38.742 -31.968,38.707 -31.995,38.703 -32.263,38.634 -32.519,38.532 -32.761,38.399 -32.984,38.237 -33.186,38.048 -33.362,37.836 -33.509,37.603 -33.591,37.439 -33.646,37.315 -35.388,33.391 -35.836,32.382 -35.984,32.047 -36.048,31.902 -36.100,31.784"/>
<polygon class="node-70" points="-21.063,-5.965 -21.044,-6.268 -20.987,-6.566 -20.893,-6.855 -20.764,-7.129 -20.601,-7.385 -20.408,-7.619 -20.187,-7.826 -20.177,-7.835 -19.929,-8.015 -19.661,-8.162 -19.376,-8.275 -19.080,-8.351 -19.058,-8.355 -18.753,-8.393 -18.446,-8.393 -18.141,-8.355 -18.117,-8.349 -17.825,-8.274 -17.819,-8.272 -17.701,-8.228 -17.540,-8.168 -16.440,-7.743 -15.945,-7.552 -15.722,-7.466 -15.612,-7.422 -15.505,-7.380 -15.258,-7.254 -15.028,-7.096 -14.820,-6.908 -14.482,-6.457 -14.357,-6.200 -14.300,-5.927 -14.243,-5.644 -14.222,-5.354 -14.242,-4.775 -14.323,-4.494 -14.437,-4.225 -14.583,-3.972 -14.757,-3.738 -14.958,-3.529 -15.424,-3.195 -15.682,-3.076 -15.952,-2.991 -16.228,-2.941 -16.507,-2.928 -16.785,-2.951 -17.056,-3.011 -17.112,-3.025 -17.165,-3.039 -18.611,-3.419 -19.091,-3.545 -19.327,-3.611 -19.356,-3.622 -19.619,-3.726 -19.642,-3.735 -19.911,-3.883 -20.160,-4.064 -20.384,-4.274 -20.400,-4.290 -20.595,-4.526 -20.759,-4.784 -20.889,-5.061 -20.983,-5.352 -20.987,-5.365 -21.044,-5.663"/>
<polygon class="node-71" points="-42.542,18.172 -42.523,17.878 -42.468,17.589 -42.377,17.310 -42.365,17.272 -42.238,17.002 -42.214,16.964 -42.052,16.708 -41.859,16.475 -41.823,16.437 -41.600,16.228 -41.353,16.049 -41.308,16.016 -41.039,15.868 -40.988,15.843 -40.703,15.730 -40.649,15.715 -40.352,15.638 -40.049,15.600 -39.997,15.595 -39.693,15.595 -39.644,15.599 -39.346,15.637 -39.055,15.711 -39.016,15.723 -38.741,15.832 -38.482,15.975 -38.457,15.992 -38.222,16.162 -38.011,16.361 -37.826,16.585 -37.670,16.830 -37.633,16.901 -37.580,17.010 -37.207,17.804 -36.576,19.145 -35.906,20.571 -35.833,20.733 -35.733,21.194 -35.739,21.439 -35.783,21.691 -35.863,21.944 -36.263,22.502 -36.462,22.728 -36.688,22.937 -36.938,23.127 -37.208,23.294 -37.883,23.657 -38.186,23.727 -38.488,23.765 -38.783,23.770 -39.337,23.683 -39.754,23.458 -39.964,23.322 -40.175,23.153 -40.293,22.975 -40.459,22.675 -40.504,22.592 -40.890,21.867 -41.049,21.568 -42.155,19.492 -42.293,19.230 -42.380,19.037 -42.469,18.764 -42.523,18.481 -42.541,18.194"/>
</svg>